<?xml version="1.0" standalone="no"?>
<!DOCTYPE svg PUBLIC "-//W3C//DTD SVG 1.1//EN" "http://www.w3.org/Graphics/SVG/1.1/DTD/svg11.dtd" >
<svg xmlns="http://www.w3.org/2000/svg" xmlns:xlink="http://www.w3.org/1999/xlink" version="1.1">
<metadata>
Created by FontForge 20161013 at Fri Mar 24 19:59:24 2017
 By ,,,
Copyright (c) 2015 by Studio Kmzero. All rights reserved.
</metadata>
<defs>
<font id="coco-gothic-bold" horiz-adv-x="0" >
  <font-face 
    font-family="Coco Gothic"
    font-weight="700"
    font-stretch="normal"
    units-per-em="2000"
    panose-1="2 0 5 3 2 0 0 2 0 3"
    ascent="1600"
    descent="-400"
    x-height="981"
    cap-height="1485"
    bbox="-940 -774 2642 2242"
    underline-thickness="100"
    underline-position="-300"
    unicode-range="U+0020-FB04"
  />
<missing-glyph horiz-adv-x="627" 
d="M844 250q-57 -48 -129 -77t-153 -29t-152 29t-128 77h562zM248 282q-50 57 -77 129t-27 153q0 77 24.5 143.5t69.5 122.5h556zM280 876q57 51 129 79.5t153 28.5t152.5 -29t125.5 -79h-560zM980 564q0 -77 -24.5 -144.5t-69.5 -123.5h-558l546 550q106 -131 106 -282z
M698 76q-66 -18 -136 -18q-108 0 -200.5 41t-160.5 110t-106.5 161t-38.5 194q0 108 41 201t110 161t161 107t194 39q109 0 202 -42t160.5 -112.5t105.5 -162t38 -191.5q0 -92 -29 -170.5t-79 -141.5t-117.5 -108t-144.5 -68zM684 1012q-54 18 -122 18q-101 0 -186 -38
t-146.5 -102t-96.5 -148.5t-35 -177.5q0 -94 35.5 -178.5t98 -149t147.5 -102.5t183 -38q96 0 181 36.5t148 100t100 148.5t37 183q0 85 -27.5 158.5t-74 131.5t-109.5 98t-133 60z" />
    <glyph glyph-name="ff" unicode="ff" horiz-adv-x="1236" 
d="M807 1156q0 82 29.5 146t81.5 107.5t121 66t149 22.5q26 0 41 -14.5t15 -40.5v-139q0 -24 -10.5 -34t-25 -14t-30.5 -6t-28 -10q-36 -9 -59 -35t-23 -76v-145h105q24 0 38.5 -13t14.5 -42v-104q0 -26 -14.5 -42.5t-38.5 -16.5h-105v-715q0 -24 -16 -37.5t-36 -13.5h-157
q-23 0 -37.5 14t-14.5 37v715h-87h-272v-715q0 -24 -16.5 -37.5t-36.5 -13.5h-157q-23 0 -37 14t-14 37v715h-79q-25 0 -39.5 15.5t-14.5 43.5v104q0 29 14.5 42t39.5 13h79v172q0 82 29.5 146t81.5 107.5t121 66t149 22.5q26 0 40.5 -14.5t14.5 -40.5v-139q0 -21 -12 -36
t-33 -15q-58 0 -94 -29t-36 -95v-145h269h90v172z" />
    <glyph glyph-name="fi" unicode="fi" horiz-adv-x="1146" 
d="M799 766h-353v-715q0 -24 -16 -37.5t-36 -13.5h-157q-23 0 -37.5 14t-14.5 37v715h-78q-25 0 -40 15t-15 44v104q0 29 15 41.5t40 12.5h78v144q0 87 27.5 155.5t77.5 116.5t120 73.5t156 25.5q26 0 41 -14.5t15 -40.5v-139q0 -21 -12.5 -36t-32.5 -15q-56 0 -93.5 -30
t-37.5 -94v-146h566q23 0 37 -13t14 -38v-885q0 -47 -50 -47h-166q-48 0 -48 47v719zM775 1275q0 32 12 60t33 49t48.5 33t59.5 12q33 0 61 -12t49 -33t32.5 -49t11.5 -60t-11.5 -59.5t-32.5 -48.5t-49 -33t-61 -12q-32 0 -59.5 12t-48.5 33t-33 48.5t-12 59.5z" />
    <glyph glyph-name="ffi" unicode="ffi" horiz-adv-x="1794" 
d="M1428 765h-348v-714q0 -24 -16 -37.5t-36 -13.5h-157q-23 0 -37.5 14t-14.5 37v714h-373v-714q0 -24 -16 -37.5t-36 -13.5h-157q-23 0 -37.5 14t-14.5 37v714h-78q-25 0 -40 15.5t-15 43.5v104q0 29 15 42t40 13h78v173q0 82 29.5 146t81.5 107.5t121 66t149 22.5
q26 0 41 -14.5t15 -40.5v-139q0 -21 -12.5 -36t-32.5 -15q-56 0 -93.5 -30t-37.5 -94v-146h373v147q0 86 27.5 154t78 115.5t120.5 73t155 25.5q26 0 41 -14.5t15 -40.5v-139q0 -21 -12.5 -36t-32.5 -15q-56 0 -93.5 -30t-37.5 -94v-146h559q24 0 38.5 -13t14.5 -42v-3v-878
q0 -47 -50 -47h-166q-48 0 -48 47v718zM1404 1275q0 32 12 60t33 49t48.5 33t59.5 12q33 0 61 -12t49 -33t32.5 -49t11.5 -60t-11.5 -59.5t-32.5 -48.5t-49 -33t-61 -12q-32 0 -59.5 12t-48.5 33t-33 48.5t-12 59.5z" />
    <glyph glyph-name=".notdef" horiz-adv-x="627" 
d="M844 250q-57 -48 -129 -77t-153 -29t-152 29t-128 77h562zM248 282q-50 57 -77 129t-27 153q0 77 24.5 143.5t69.5 122.5h556zM280 876q57 51 129 79.5t153 28.5t152.5 -29t125.5 -79h-560zM980 564q0 -77 -24.5 -144.5t-69.5 -123.5h-558l546 550q106 -131 106 -282z
M698 76q-66 -18 -136 -18q-108 0 -200.5 41t-160.5 110t-106.5 161t-38.5 194q0 108 41 201t110 161t161 107t194 39q109 0 202 -42t160.5 -112.5t105.5 -162t38 -191.5q0 -92 -29 -170.5t-79 -141.5t-117.5 -108t-144.5 -68zM684 1012q-54 18 -122 18q-101 0 -186 -38
t-146.5 -102t-96.5 -148.5t-35 -177.5q0 -94 35.5 -178.5t98 -149t147.5 -102.5t183 -38q96 0 181 36.5t148 100t100 148.5t37 183q0 85 -27.5 158.5t-74 131.5t-109.5 98t-133 60z" />
    <glyph glyph-name=".null" 
 />
    <glyph glyph-name="nonmarkingreturn" horiz-adv-x="666" 
 />
    <glyph glyph-name="space" unicode=" " horiz-adv-x="626" 
 />
    <glyph glyph-name="exclam" unicode="!" horiz-adv-x="614" 
d="M455 491q0 -25 -14 -39.5t-40 -14.5h-182q-23 0 -40 14t-17 40v940q0 26 14.5 40t42.5 14h182q26 0 40 -14t14 -40v-940zM147 136q0 34 13 63.5t34.5 51.5t51 34.5t62.5 12.5q34 0 64 -12.5t51.5 -34.5t34 -51.5t12.5 -63.5q0 -33 -12.5 -62.5t-34 -51t-51.5 -34.5
t-64 -13q-33 0 -62.5 13t-51 34.5t-34.5 51t-13 62.5z" />
    <glyph glyph-name="quotedbl" unicode="&#x22;" horiz-adv-x="832" 
d="M162 1441q0 44 44 44h140q44 0 44 -44v-336q0 -26 -12.5 -35.5t-32.5 -9.5h-139q-44 0 -44 45v336zM532 1441q0 44 44 44h140q44 0 44 -44v-336q0 -26 -12.5 -35.5t-32.5 -9.5h-139q-44 0 -44 45v336z" />
    <glyph glyph-name="numbersign" unicode="#" horiz-adv-x="1158" 
d="M1033 1109q19 0 30.5 -11.5t11.5 -32.5l-6 -133q-1 -16 -13.5 -31.5t-32.5 -15.5h-131l-22 -288h131q17 0 29.5 -10.5t12.5 -31.5q0 -32 -1.5 -66t-3.5 -67q-1 -17 -14.5 -32.5t-32.5 -15.5h-131l-22 -330q-3 -44 -50 -44h-132q-41 0 -41 39v5l22 330h-176l-22 -330
q-3 -44 -50 -44h-132q-41 0 -41 39v5l22 330h-117q-42 0 -42 42q0 34 1.5 68.5t3.5 68.5q1 22 14 33t34 11h116l22 288h-117q-42 0 -42 41v6l5 133q3 44 48 44h116l22 332q1 18 12.5 31t34.5 13h131q17 0 31 -12t14 -32l-22 -332h176l22 332q1 18 12.5 31t34.5 13h132
q17 0 30.5 -12t13.5 -32l-22 -332h131zM471 597h176l22 288h-176z" />
    <glyph glyph-name="dollar" unicode="$" horiz-adv-x="1282" 
d="M1008 1089q-13 0 -24 6.5t-25 17.5l-2 1q-19 19 -49 42t-67 43t-79.5 34t-86.5 14q-56 0 -99 -12.5t-72 -34t-44 -50.5t-15 -62q0 -36 22.5 -63t61 -48t88.5 -38.5t105 -34.5q63 -19 125 -41t118.5 -49.5t105.5 -61t84.5 -77t56 -97t20.5 -120.5q0 -91 -31.5 -168
t-87 -136t-133 -99.5t-168.5 -58.5v-137q0 -44 -48 -44h-180q-44 0 -44 44v133q-124 22 -233.5 85t-189.5 157v-1l-2 4q-22 25 -22 46q-1 11 5.5 21t18.5 22l33 33q15 13 32 29t34 29t31.5 22t23.5 9q14 0 26 -9t20 -17l4 -4h-1q35 -33 78.5 -63t89.5 -53.5t91.5 -37
t85.5 -13.5q55 0 103 14t83 39.5t55 61.5t20 80t-26 75.5t-68 55t-94.5 40.5t-105.5 32q-122 37 -213.5 80t-152.5 96.5t-91.5 120t-30.5 149.5q0 79 27.5 146.5t79 120t124.5 88t165 50.5v141q0 18 11 31t33 13h180q15 0 31.5 -12t16.5 -32v-147q117 -27 218 -90
q24 -15 49 -34t46 -38.5t34.5 -38t13.5 -31.5q-2 -26 -21 -47l-30 -32v1q-15 -16 -31 -33t-32 -30.5t-29 -22.5t-22 -9z" />
    <glyph glyph-name="percent" unicode="%" horiz-adv-x="1856" 
d="M96 1128q0 81 30 152.5t82.5 124.5t123.5 83.5t153 30.5q81 0 152 -30.5t123.5 -83.5t83 -124.5t30.5 -152.5t-30.5 -152t-83 -123.5t-123.5 -83t-152 -30.5q-82 0 -153 30.5t-123.5 83t-82.5 123.5t-30 152zM1047 369q0 81 26.5 151.5t75 123.5t116 83.5t148.5 30.5
t156 -30.5t132 -83.5t91.5 -123.5t34.5 -151.5t-30.5 -152.5t-83 -124t-123.5 -83t-152 -30.5t-152.5 30.5t-124.5 83t-83.5 124t-30.5 152.5zM1278 369q0 -34 12.5 -63.5t34 -51t50.5 -34t63 -12.5q33 0 62.5 12.5t51 34t34 51t12.5 63.5q0 37 -14 66.5t-36.5 49.5t-51 31
t-58.5 11q-34 0 -63 -12.5t-50.5 -33.5t-34 -50t-12.5 -62zM323 1128q0 -34 12.5 -63.5t34.5 -51t51.5 -34t63.5 -12.5q33 0 62.5 12.5t51.5 34t34.5 51t12.5 63.5t-12.5 63.5t-34.5 51t-51.5 34t-62.5 12.5q-34 0 -63.5 -12.5t-51.5 -34t-34.5 -51t-12.5 -63.5zM1134 1435
q11 23 26.5 36.5t43.5 13.5h152q25 0 40.5 -10t15.5 -28q0 -8 -2 -18q0 -1 -0.5 -2.5t-0.5 -2.5q-88 -186 -174 -369t-172 -369l-134 -285q-43 -91 -84.5 -179.5t-82.5 -176.5q-11 -23 -24.5 -34t-34.5 -11h-170q-48 0 -48 34l4 16v-1q0 5 1 8z" />
    <glyph glyph-name="ampersand" unicode="&#x26;" horiz-adv-x="1676" 
d="M792 710q2 12 9.5 22.5t21.5 7.5l472 -100q55 -12 86 0t46.5 33t20.5 44t8 33q5 14 15.5 18.5t23.5 2.5l180 -36q13 -2 17.5 -15.5t1.5 -25.5q-5 -22 -18 -57t-35.5 -74t-56 -76.5t-79.5 -64t-106.5 -37t-136.5 5.5l-71 14q-16 -110 -66.5 -190t-124 -132.5t-164 -78
t-186.5 -25.5q-101 0 -195 35.5t-166 99t-115.5 150t-43.5 188.5q0 65 15 123.5t42.5 108t66 90t86.5 70.5q-56 59 -79.5 132t-23.5 146q0 82 33.5 152t89.5 120t130.5 78.5t155.5 28.5q98 0 174.5 -29.5t128.5 -81.5t79 -123t27 -153q0 -8 -0.5 -18t-2.5 -19t-8 -15t-16 -6
l-178 -2q-21 0 -26 10t-5 19q0 76 -39 119t-117 43q-41 0 -72 -12t-51.5 -31.5t-30.5 -46t-10 -54.5q0 -38 13 -69.5t35 -55.5t52 -38.5t64 -17.5q5 0 11.5 -3t12.5 -7.5t9.5 -12t1.5 -16.5l-33 -162q-3 -14 -11.5 -19.5t-20 -6t-24 1.5t-22.5 3q-38 2 -70 -11t-55.5 -40.5
t-36.5 -68t-13 -93.5q0 -57 20 -102t54.5 -76t80 -47.5t96.5 -16.5q57 0 103 15t79.5 43t53 68t22.5 91l-140 34q-5 1 -11.5 3t-11.5 6t-8 9.5t-1 13.5z" />
    <glyph glyph-name="quotesingle" unicode="'" horiz-adv-x="528" 
d="M162 1441q0 44 44 44h140q44 0 44 -44v-336q0 -26 -12.5 -35.5t-32.5 -9.5h-139q-44 0 -44 45v336z" />
    <glyph glyph-name="parenleft" unicode="(" horiz-adv-x="643" 
d="M423 -305q-143 229 -221 492.5t-78 551.5t78 551.5t221 491.5q11 18 27.5 21.5t32.5 -9.5l162 -107q18 -13 20 -31t-9 -32q-126 -201 -188.5 -423.5t-62.5 -461.5q0 -121 15 -235.5t47 -226.5q31 -111 78.5 -216t110.5 -206q11 -15 9 -32.5t-20 -31.5l-162 -107
q-16 -12 -32.5 -9t-27.5 20z" />
    <glyph glyph-name="parenright" unicode=")" horiz-adv-x="659" 
d="M246 -305q-11 -17 -27.5 -20t-32.5 9l-162 107q-18 14 -20 31.5t9 32.5q63 101 110.5 206t78.5 216q32 112 47 226.5t15 235.5q0 239 -62.5 461.5t-188.5 423.5q-11 14 -9 32t20 31l162 107q16 13 32.5 9.5t27.5 -21.5q143 -228 221 -491.5t78 -551.5t-78 -551.5
t-221 -492.5z" />
    <glyph glyph-name="asterisk" unicode="*" horiz-adv-x="982" 
d="M127 701q0 14 8.5 24t22.5 8l206 -21l-121 167q-5 8 -3.5 21t15.5 21l125 73q12 7 25 4t19 -16l81 -177l81 175q5 14 17 16t25 -5l127 -73q11 -8 14.5 -20t-4.5 -23l-124 -166l211 22q14 2 21.5 -7t8.5 -23v-147q0 -14 -9.5 -23t-23.5 -8l-202 26l122 -170q9 -11 5 -22.5
t-16 -19.5l-127 -73q-12 -7 -25 -3.5t-18 15.5l-83 202l-90 -206q-5 -9 -16.5 -14.5t-25.5 2.5l-125 73q-13 8 -16.5 20.5t3.5 24.5l122 169l-200 -22q-11 0 -21 7t-10 24z" />
    <glyph glyph-name="plus" unicode="+" horiz-adv-x="900" 
d="M595 284q0 -23 -14 -38.5t-40 -15.5h-151q-20 0 -39 15t-19 39v203h-194q-54 0 -54 55v141q0 26 14 40t40 14h194v201q0 53 58 53h151q54 0 54 -53v-201h195q23 0 38.5 -14t15.5 -40v-141q0 -20 -15 -37.5t-39 -17.5h-195v-203z" />
    <glyph glyph-name="comma" unicode="," horiz-adv-x="528" 
d="M120 133q0 35 13 65.5t35.5 52.5t52.5 34.5t64 12.5q36 0 66 -13t52.5 -36t35 -56t12.5 -73q0 -84 -17.5 -146.5t-42 -104t-50 -62t-41.5 -20.5q-11 0 -18.5 3t-14.5 8l-49 37q-12 9 -12 27q0 16 11 27l13 19q7 8 14.5 24.5t7.5 37.5q-27 5 -51 20.5t-42 37.5t-28.5 49
t-10.5 56z" />
    <glyph glyph-name="hyphen" unicode="-" horiz-adv-x="1034" 
d="M865 694q23 0 38.5 -14t15.5 -38v-141q0 -20 -15 -38.5t-39 -18.5h-652q-25 0 -39 14t-14 43v141q0 24 14 38t39 14h652z" />
    <glyph glyph-name="period" unicode="." horiz-adv-x="528" 
d="M120 136q0 34 13 63.5t34.5 51.5t51 34.5t62.5 12.5q34 0 64 -12.5t51.5 -34.5t34 -51.5t12.5 -63.5q0 -33 -12.5 -62.5t-34 -51t-51.5 -34.5t-64 -13q-33 0 -62.5 13t-51 34.5t-34.5 51t-13 62.5z" />
    <glyph glyph-name="slash" unicode="/" horiz-adv-x="994" 
d="M395 36q-9 -20 -22.5 -28t-29.5 -8h-196q-18 0 -26 11.5t1 31.5l609 1405q17 37 52 37h193q19 0 26.5 -11t-1.5 -32z" />
    <glyph glyph-name="zero" unicode="0" horiz-adv-x="1706" 
d="M88 741q0 105 27 202.5t76.5 182t118.5 154t153.5 119t182 77t202.5 27.5t203 -27.5t183.5 -77t156.5 -119t122 -154t79 -182t28 -202.5t-28 -202t-79 -181.5t-122 -154t-156.5 -119t-183.5 -76.5t-203 -27q-158 0 -296.5 59.5t-241.5 163t-162.5 241.5t-59.5 296z
M375 742q0 -101 37 -189t101 -153t150.5 -103t185.5 -38t187.5 38t155 103t105 153t38.5 189q0 100 -38.5 188t-105 154t-155 104.5t-187.5 38.5t-185.5 -38.5t-150.5 -104.5t-101 -154t-37 -188z" />
    <glyph glyph-name="one" unicode="1" horiz-adv-x="682" 
d="M595 1484q22 0 26 -11.5t4 -23.5v-1408q0 -41 -42 -41h-203q-23 0 -31.5 12t-8.5 27v1160l-152 -71q-14 -5 -22.5 -1.5t-10.5 14.5l-1 199q-3 34 25 45l141 75q31 16 51.5 20t34.5 4h189z" />
    <glyph glyph-name="two" unicode="2" horiz-adv-x="1232" 
d="M601 1250q-78 -5 -136 -44.5t-100 -106.5q-8 -12 -18 -17.5t-21 -5.5q-10 0 -21 4t-23 10l-112 57q-13 7 -16.5 15t-4.5 16q0 10 5 24t12.5 29.5t16 30t15.5 24.5q35 48 80 88t98 68t112.5 43.5t122.5 15.5q97 0 187.5 -32.5t161 -92.5t113.5 -144.5t46 -187.5
q-1 -89 -31 -163t-85 -137q-21 -24 -54.5 -59.5t-74.5 -77t-87 -88t-92.5 -93t-91 -91.5t-82.5 -83q142 1 285 0t285 1q20 0 33.5 -11t13.5 -34v-159q0 -18 -13.5 -33.5t-33.5 -15.5q-229 -1 -459 0.5t-459 -0.5q-19 0 -34 14.5t-15 34.5v114q0 13 7 26l639 675
q79 82 79 166q0 50 -19 90.5t-52 69.5t-78.5 44.5t-98.5 15.5z" />
    <glyph glyph-name="three" unicode="3" horiz-adv-x="1066" 
d="M546 220q52 0 98 16.5t81 47.5t55.5 75.5t20.5 100.5q0 49 -19 91.5t-52.5 74.5t-79.5 50.5t-100 18.5q-21 0 -33 9t-12 32v150q0 43 46 43q37 0 67.5 14.5t52.5 37.5t33.5 52t11.5 58q0 33 -11.5 63t-32.5 53.5t-52 37.5t-70 14q-25 0 -46.5 -5.5t-40.5 -15.5
q-32 -17 -53.5 -42t-38.5 -51q-8 -13 -14.5 -18t-16.5 -5q-11 0 -22.5 5t-23.5 13q-5 3 -26 13.5t-44 24.5t-41 29t-18 26q0 18 11 34q34 51 73.5 93t87 73t102.5 48t120 17q81 0 153.5 -30.5t127 -83.5t86.5 -124.5t32 -153.5q0 -41 -4.5 -75.5t-18 -66t-37.5 -62
t-62 -62.5q49 -31 91 -69t73 -85t48.5 -104t17.5 -126q0 -101 -39 -188t-106.5 -151.5t-158.5 -101t-194 -36.5q-84 0 -152.5 17t-123 47t-96.5 70t-74 86q-19 29 -32.5 54.5t-18.5 54.5q-5 8 -5 17t4 17.5t18 14.5q29 12 58.5 25t58.5 24l22 10t21 5q24 0 33.5 -12.5
t21.5 -30.5q49 -82 110.5 -120t132.5 -38z" />
    <glyph glyph-name="four" unicode="4" horiz-adv-x="1242" 
d="M162 242q-20 0 -32 9.5t-15.5 24.5t0 34t14.5 38l697 1105q12 20 24 26.5t29 6.5l181 -1q20 0 28.5 -10.5t8.5 -31.5v-951h117q19 0 29.5 -10.5t10.5 -27.5v-158q0 -9 -1 -18t-5 -17t-13 -13t-24 -5h-114v-209q0 -12 -5.5 -22.5t-24.5 -10.5h-210q-23 0 -28 9.5t-5 24.5
v207h-662zM828 494v494l-309 -494h309z" />
    <glyph glyph-name="five" unicode="5" horiz-adv-x="1144" 
d="M274 426q6 3 12.5 4t11.5 1q17 0 25 -13.5t16 -27.5q16 -33 42 -62.5t57.5 -52t67.5 -35.5t72 -13q52 0 99.5 18t83.5 52t57 82t21 107q0 54 -22 102t-59 84t-86 57t-104 21q-30 0 -56 -5t-51.5 -13t-52 -18.5t-58.5 -20.5q-20 -7 -41.5 -11.5t-49.5 -4.5h-88
q-20 0 -32 11t-14 37q17 180 34 356.5t34 356.5q0 47 45 47h716q45 0 45 -47v-163q0 -20 -12 -32.5t-36 -12.5h-523q-7 -70 -13 -139.5t-12 -139.5q45 20 93 31t93 11q111 0 204 -41t160.5 -110.5t105.5 -160.5t38 -191q0 -107 -42 -200t-112.5 -162t-163.5 -109t-195 -40
q-80 0 -145 19t-117 51t-92.5 74t-71.5 89q-21 32 -37.5 65t-16.5 65q0 5 6 13t22 17z" />
    <glyph glyph-name="six" unicode="6" horiz-adv-x="1198" 
d="M603 -19q-102 0 -195 38.5t-164 105.5t-113.5 158t-42.5 196q0 149 70 271l392 691q13 23 27 33.5t40 10.5h204q23 0 34 -13t-3 -37l-256 -450l16 2t16 1q102 0 191.5 -40t156 -108.5t105 -159.5t38.5 -192q0 -106 -40.5 -198.5t-110.5 -161t-164 -108t-201 -39.5z
M360 486q0 -53 18 -99.5t50 -80.5t76 -53.5t97 -19.5q52 0 96 19.5t75.5 53.5t49 80.5t17.5 99.5q0 52 -17.5 99t-49 81.5t-75.5 55t-96 20.5q-53 0 -97 -20.5t-76 -55t-50 -81.5t-18 -99z" />
    <glyph glyph-name="seven" unicode="7" horiz-adv-x="1148" 
d="M1099 1485q23 0 35.5 -9t16.5 -22.5t0.5 -30t-11.5 -30.5l-708 -1364q-15 -29 -46 -29h-243q-14 0 -20.5 5t-9 12t-1 15t4.5 13l601 1171h-598q-18 0 -30 9.5t-12 31.5v188q0 18 11.5 29t30.5 11h979z" />
    <glyph glyph-name="eight" unicode="8" horiz-adv-x="1108" 
d="M453 1100q0 -34 12.5 -63t34 -50.5t50.5 -33.5t62 -12q32 0 60.5 12t50.5 33.5t34.5 50.5t12.5 63q0 32 -12.5 60.5t-34.5 50t-50.5 34t-60.5 12.5q-33 0 -62 -12.5t-50.5 -34t-34 -50t-12.5 -60.5zM377 473q0 -49 18 -92t49.5 -74.5t74 -50t92.5 -18.5q48 0 90 18.5
t72.5 50t48 74.5t17.5 93q0 48 -17 91.5t-47.5 75.5t-72.5 51t-91 19q-51 0 -94 -19t-74 -51.5t-48.5 -76t-17.5 -91.5zM211 1109q0 80 31.5 151t86 124.5t127 85t154.5 31.5q84 0 159.5 -35t130 -94t83.5 -137t20 -163q-6 -62 -35 -121t-72 -101q49 -30 89.5 -71
t69.5 -89.5t44.5 -105t15.5 -117.5q0 -102 -37.5 -190.5t-104.5 -154t-159.5 -103t-203.5 -37.5q-97 0 -180.5 29t-148.5 80.5t-108 123t-58 156.5q-13 70 -6 138t33.5 130t71.5 115.5t107 95.5q-50 46 -80 115.5t-30 143.5z" />
    <glyph glyph-name="nine" unicode="9" horiz-adv-x="1196" 
d="M604 1504q102 0 195 -38.5t164 -105.5t113.5 -158t42.5 -196q0 -147 -70 -271l-392 -690q-13 -23 -27 -34t-40 -11h-204q-23 0 -34 13.5t3 36.5l256 450q-8 -1 -16 -1.5t-16 -0.5q-102 0 -191.5 40t-156 108.5t-105 159t-38.5 192.5q0 106 40.5 198t110.5 160.5t164 108
t201 39.5zM847 999q0 54 -18 100t-50 80t-76 53.5t-97 19.5t-96.5 -19.5t-75 -53.5t-49 -80t-17.5 -100q0 -53 17.5 -99t49 -81t75 -55t96.5 -20t97 20t76 55t50 81t18 99z" />
    <glyph glyph-name="colon" unicode=":" horiz-adv-x="496" 
d="M120 841q0 34 13 63.5t34.5 51.5t51 34.5t62.5 12.5q34 0 64 -12.5t51.5 -34.5t34 -51.5t12.5 -63.5q0 -33 -12.5 -62.5t-34 -51t-51.5 -34.5t-64 -13q-33 0 -62.5 13t-51 34.5t-34.5 51t-13 62.5zM120 136q0 34 13 63.5t34.5 51.5t51 34.5t62.5 12.5q34 0 64 -12.5
t51.5 -34.5t34 -51.5t12.5 -63.5q0 -33 -12.5 -62.5t-34 -51t-51.5 -34.5t-64 -13q-33 0 -62.5 13t-51 34.5t-34.5 51t-13 62.5z" />
    <glyph glyph-name="semicolon" unicode=";" horiz-adv-x="585" 
d="M117 131q0 34 13 64.5t35 53t52 35.5t65 13q34 0 64.5 -13t53 -35.5t35.5 -53t13 -64.5q0 -83 -16 -141.5t-38 -98.5t-46.5 -63.5t-40.5 -35.5q-12 -9 -24.5 -11t-26.5 9l-51 48q-9 8 -11 15.5t0 14t6 12t8 9.5q22 22 34.5 41.5t20.5 36.5q-31 3 -58 17t-46.5 36
t-30.5 50.5t-11 60.5zM121 841q0 34 13 63.5t34.5 51.5t51 34.5t62.5 12.5q34 0 64 -12.5t51.5 -34.5t34 -51.5t12.5 -63.5q0 -33 -12.5 -62.5t-34 -51t-51.5 -34.5t-64 -13q-33 0 -62.5 13t-51 34.5t-34.5 51t-13 62.5z" />
    <glyph glyph-name="less" unicode="&#x3c;" horiz-adv-x="876" 
d="M647 1114q11 11 31 11q17 0 33 -13l127 -127q14 -14 14 -31q0 -7 -3 -15t-8 -16l-363 -363l363 -361q5 -8 8 -16t3 -15q0 -19 -16 -35l-130 -127q-12 -14 -28 -14q-17 0 -31 14l-524 525q-15 15 -15 29q0 16 15 31z" />
    <glyph glyph-name="equal" unicode="=" horiz-adv-x="1034" 
d="M146 468q0 44 46 44h661q18 0 31 -11.5t13 -32.5v-143q0 -17 -12 -32t-32 -15h-661q-46 0 -46 47v143zM146 822q0 44 46 44h661q18 0 31 -11t13 -33v-143q0 -17 -12 -32t-32 -15h-661q-46 0 -46 47v143z" />
    <glyph glyph-name="greater" unicode="&#x3e;" horiz-adv-x="970" 
d="M293 1072q13 13 33 13q14 0 31 -11l524 -523q15 -15 15 -31q0 -14 -15 -29l-524 -525q-14 -14 -31 -14q-19 0 -28 14l-130 127q-18 18 -18 35q0 16 13 31l363 361l-363 363q-5 8 -8 16t-3 15q0 17 14 31z" />
    <glyph glyph-name="question" unicode="?" horiz-adv-x="1148" 
d="M716 568v-130q0 -22 -14 -35.5t-32 -13.5h-190q-22 0 -34 15.5t-12 33.5v169q0 49 15.5 87t40.5 68.5t57 55.5t65 48.5t65 47.5t57 53t40.5 64t15.5 80q0 42 -18 81t-48.5 69t-71.5 48t-86 18t-84 -18.5t-68 -49.5t-46 -71.5t-17 -83.5v-30q0 -20 -13 -32t-33 -12h-193
q-25 0 -34.5 13.5t-9.5 27.5v33q0 105 40.5 192.5t108.5 150.5t158.5 98t190.5 35q103 0 195.5 -35.5t162 -98.5t110 -151t40.5 -193q0 -96 -26.5 -160.5t-66.5 -109t-86 -75t-86 -58t-66.5 -57.5t-26.5 -74zM414 133q0 -33 13 -62t34.5 -51t51 -34.5t62.5 -12.5
q35 0 65 12.5t51.5 34.5t33.5 51t12 62q0 34 -12 63.5t-33.5 51.5t-51.5 34.5t-65 12.5q-33 0 -62.5 -12.5t-51 -34.5t-34.5 -51.5t-13 -63.5z" />
    <glyph glyph-name="at" unicode="@" horiz-adv-x="1896" 
d="M1384 -119l11 5.5t15 5t15.5 0t12.5 -9.5l89 -128q7 -10 2 -25t-17 -22q-108 -58 -227 -95.5t-246 -37.5q-128 0 -246.5 33.5t-221.5 94t-187.5 145.5t-145 188t-93.5 222t-33 247q0 127 33 246.5t94 223.5t146 190.5t188.5 148.5t223 96t248.5 34q105 0 207.5 -25
t195 -72.5t170.5 -116.5t135 -156t89 -191.5t32 -223.5q0 -141 -24 -256t-75 -196t-131 -125t-193 -44q-75 0 -121 25.5t-76 63.5q-20 -21 -45.5 -39t-60 -31t-79 -20.5t-101.5 -7.5q-104 0 -190.5 37.5t-148.5 102.5t-97 152.5t-35 187.5q0 99 35 186t97.5 151.5t147.5 102
t184 37.5q95 0 156.5 -39.5t99.5 -103.5l21 83q4 14 7 23t8.5 14t14.5 7t24 2h87q25 0 38.5 -12.5t13.5 -33.5v-588q0 -23 4.5 -35.5t12 -19.5t18 -8.5t23.5 -1.5q51 0 85.5 31t55.5 83.5t30 120t9 141.5q0 124 -48 231t-131 185.5t-195 123.5t-239 45q-105 0 -201 -26.5
t-178.5 -74.5t-149.5 -115t-114 -148t-72.5 -174t-25.5 -193q0 -98 27 -190t75.5 -172t115.5 -146t147 -113t170.5 -73t186.5 -26q48 0 91.5 5.5t85 17.5t83.5 31t87 45zM749 507q0 -48 17.5 -89t48 -71.5t71 -47.5t85.5 -17q47 0 87 17t69.5 47.5t46.5 71.5t17 89
q0 46 -17 86.5t-46.5 71t-69.5 48.5t-87 18q-45 0 -85.5 -18t-71 -48.5t-48 -71t-17.5 -86.5z" />
    <glyph glyph-name="A" unicode="A" horiz-adv-x="1432" 
d="M595 1447q17 38 50 38h167q17 0 30 -9t21 -29l564 -1404q8 -20 0 -31.5t-28 -11.5h-219q-17 0 -29.5 8t-19.5 28l-97 240h-613l-95 -239q-8 -20 -20.5 -28.5t-29.5 -8.5h-219q-20 0 -28 11t1 32zM515 534h424l-210 567z" />
    <glyph glyph-name="B" unicode="B" horiz-adv-x="1356" 
d="M162 1446q0 39 39 39h645q85 0 159 -32t129 -88t86 -131.5t31 -162.5q0 -86 -28.5 -156.5t-85.5 -120.5q42 -28 76 -67.5t58 -87t36.5 -100.5t12.5 -108q0 -87 -32 -165t-87 -137t-129.5 -94t-159.5 -35h-711q-39 0 -39 40v1406zM454 652v-408h379q46 0 81.5 17.5
t59.5 45.5t36 63.5t12 71.5q0 44 -16 82.5t-42.5 67t-61.5 44.5t-73 16h-375zM454 1244v-362h315q87 0 139.5 48.5t52.5 133.5q0 40 -13.5 73.5t-38.5 57t-60 36.5t-78 13h-317z" />
    <glyph glyph-name="C" unicode="C" horiz-adv-x="1410" 
d="M1137 346q18 14 34 16t29 -15l101 -171q14 -17 11 -30.5t-22 -27.5q-86 -64 -192 -101.5t-242 -37.5q-106 0 -204 27.5t-183.5 77t-155.5 119.5t-120 155t-77.5 183t-27.5 204t27.5 203.5t77.5 182t120 154t155.5 118.5t183.5 76t204 27q136 0 242.5 -37t193.5 -101
q16 -13 16.5 -27.5t-4.5 -22.5l-106 -179q-8 -12 -23 -12.5t-33 10.5q-35 22 -69 39t-68.5 29t-71 18t-77.5 6q-101 0 -187.5 -37.5t-149.5 -103t-99 -153.5t-36 -190q0 -101 36 -190.5t99 -156.5t149.5 -106t187.5 -39q82 0 154.5 26.5t126.5 66.5z" />
    <glyph glyph-name="D" unicode="D" horiz-adv-x="1490" 
d="M162 1445q0 39 40 39h478q94 0 186.5 -26t176 -73.5t154.5 -114.5t123 -149.5t81.5 -178t29.5 -200.5q0 -150 -57.5 -282.5t-158 -233t-236 -160.5t-291.5 -66h-486q-40 0 -40 40v1405zM1137 742q0 98 -37 184.5t-101.5 150.5t-153 101t-191.5 37h-197v-945h197
q103 0 191.5 37t153 101t101.5 150t37 184z" />
    <glyph glyph-name="E" unicode="E" horiz-adv-x="1284" 
d="M162 1445q0 39 39 39h977q41 0 41 -39v-194q0 -40 -41 -40h-724v-303h552q20 0 32.5 -9.5t12.5 -30.5v-190q0 -20 -12 -29.5t-33 -9.5h-552v-367h743q20 0 31 -10t11 -30v-192q0 -20 -11 -30t-31 -10h-996q-39 0 -39 40v1405z" />
    <glyph glyph-name="F" unicode="F" horiz-adv-x="1254" 
d="M162 1445q0 39 39 39h958q39 0 39 -39v-194q0 -40 -39 -40h-705v-393h538q38 0 38 -40v-184q0 -40 -38 -40h-538v-514q0 -40 -39 -40h-214q-39 0 -39 40v1405z" />
    <glyph glyph-name="G" unicode="G" horiz-adv-x="1452" 
d="M856 250q57 1 118.5 16.5t109.5 51.5v306q0 41 40 41h178q14 0 26.5 -8.5t12.5 -32.5v-453q0 -27 -21 -44q-45 -31 -97.5 -57.5t-111.5 -46.5t-123.5 -31.5t-131.5 -11.5q-106 0 -204 27.5t-183.5 77t-155.5 119.5t-120 155t-77.5 183t-27.5 204t27 203.5t77 181.5
t119.5 153.5t154.5 118.5t183 76t204 27q135 0 244 -39t203 -110q17 -13 18 -27t-7 -25l-118 -170q-9 -11 -24 -15t-32 9q-59 44 -128 71t-153 27q-104 0 -193 -37t-154 -102t-101.5 -153t-36.5 -189q0 -102 37.5 -192.5t103 -158.5t154 -107.5t190.5 -37.5z" />
    <glyph glyph-name="H" unicode="H" horiz-adv-x="1546" 
d="M1120 641h-666v-600q0 -20 -10 -30.5t-33 -10.5h-210q-39 0 -39 41v1402q0 17 9.5 29t29.5 12h216q12 0 24.5 -8t12.5 -31v-523h666v521q0 17 9 29t29 12h216q13 0 25 -8t12 -31v-1404q0 -20 -9.5 -30.5t-32.5 -10.5h-211q-38 0 -38 41v600z" />
    <glyph glyph-name="I" unicode="I" horiz-adv-x="618" 
d="M162 1443q0 41 40 41h216q39 0 39 -41v-1402q0 -41 -39 -41h-216q-40 0 -40 41v1402z" />
    <glyph glyph-name="J" unicode="J" horiz-adv-x="910" 
d="M343 -22q-99 0 -187.5 40.5t-157.5 114.5q-16 16 -11.5 29.5t12.5 21.5l117 130q21 23 35.5 22.5t23.5 -7.5q11 -8 24 -20t31.5 -23t43.5 -19t59 -8q28 0 53.5 11t44.5 29.5t30 43t11 52.5v1038q0 23 13 37.5t38 14.5h188q26 0 41.5 -15t15.5 -43v-989
q0 -117 -37.5 -203.5t-98 -143.5t-136.5 -85t-153 -28z" />
    <glyph glyph-name="K" unicode="K" horiz-adv-x="1468" 
d="M830 854l618 -808q14 -18 8.5 -32t-25.5 -14h-291q-17 0 -29 10t-25 26l-451 596l-181 -194v-397q0 -41 -38 -41h-215q-39 0 -39 41v1403q0 19 10.5 30t28.5 11h212q11 0 26 -10.5t15 -30.5v-618l555 630q18 20 31.5 24.5t30.5 4.5h258q22 0 24.5 -16t-9.5 -30z" />
    <glyph glyph-name="L" unicode="L" horiz-adv-x="1148" 
d="M162 1443q0 18 12.5 31t33.5 13h204q41 0 44 -44v-1170h585q18 0 31 -12.5t13 -33.5v-183q0 -41 -44 -44h-835q-44 0 -44 44v1399z" />
    <glyph glyph-name="M" unicode="M" horiz-adv-x="1852" 
d="M494 985l-105 -945q-2 -20 -11 -30t-29 -10h-204q-20 0 -30 10.5t-8 30.5l151 1406q2 18 12 28.5t30 10.5h260q17 0 23.5 -8.5t13.5 -27.5l358 -990l352 989q7 19 14.5 28t23.5 9h266q38 0 41 -39l151 -1406q2 -20 -8.5 -30.5t-30.5 -10.5h-203q-20 0 -29 9.5t-12 29.5
l-102 945l-340 -917q-8 -23 -16.5 -30t-24.5 -7h-168q-16 0 -24.5 7t-16.5 30z" />
    <glyph glyph-name="N" unicode="N" horiz-adv-x="1586" 
d="M162 1441q0 18 11 31t33 13h235q15 0 32.5 -8t25.5 -23l657 -946v946q7 18 20 24.5t24 6.5h202q15 0 32 -12t17 -32v-1397q0 -44 -49 -44h-197q-25 0 -35.5 9.5t-22.5 23.5l-695 1000v-989q3 -44 -44 -44h-202q-44 0 -44 44v1397z" />
    <glyph glyph-name="O" unicode="O" horiz-adv-x="1706" 
d="M1614 743q0 -106 -27.5 -203.5t-77 -182t-119.5 -154t-155 -119.5t-183 -77t-203 -27q-106 0 -203.5 27t-182 77t-153.5 119.5t-118.5 154t-76.5 182.5t-27 203q0 106 27 203.5t76.5 182.5t118.5 154.5t153.5 119t182 76.5t203.5 27q105 0 203 -27t183 -76.5t155 -119
t119.5 -154.5t77 -182.5t27.5 -203.5zM1321 743q0 101 -36 189t-99 153.5t-149.5 103t-187.5 37.5t-187 -37.5t-148.5 -103t-98 -153.5t-35.5 -189t35.5 -189t98 -153.5t148.5 -103t187 -37.5t187.5 37.5t149.5 103t99 153.5t36 189z" />
    <glyph glyph-name="P" unicode="P" horiz-adv-x="1258" 
d="M162 1445q0 20 11 29.5t28 9.5h582q101 0 185.5 -40t146 -106.5t96 -152.5t34.5 -179q0 -92 -35.5 -177t-97.5 -150.5t-148 -105t-186 -39.5h-325v-493q0 -41 -40 -41h-212q-39 0 -39 41v1404zM453 1230v-443h271q50 0 91 17t70.5 46.5t46 69.5t16.5 87q0 46 -16.5 86.5
t-46 71t-70.5 48t-91 17.5h-271z" />
    <glyph glyph-name="Q" unicode="Q" horiz-adv-x="1706" 
d="M88 741q0 106 27 203.5t77 183t119.5 155.5t154.5 119.5t182.5 77t203.5 27.5q105 0 203 -27.5t183 -77t155 -119.5t119.5 -155.5t77 -183t27.5 -203.5q0 -141 -46.5 -267t-129 -225.5t-196 -167t-248.5 -90.5v-257q0 -44 -48 -44h-203q-44 0 -44 44v257
q-134 24 -246.5 91.5t-194 166.5t-127.5 225t-46 267zM385 741q0 -101 34.5 -189.5t96.5 -154.5t147 -104t187 -38q101 0 186.5 38t147.5 104t97 154.5t35 189.5q0 102 -35 191t-97 155t-147.5 104.5t-186.5 38.5q-102 0 -187 -38.5t-147 -104.5t-96.5 -155t-34.5 -191z" />
    <glyph glyph-name="R" unicode="R" horiz-adv-x="1342" 
d="M162 1445q0 16 9.5 27.5t29.5 11.5h635q103 0 189.5 -40.5t149 -108.5t97.5 -156t35 -182q0 -63 -18.5 -123t-52 -114t-80 -99t-102.5 -78l273 -540q7 -14 0 -28.5t-26 -14.5h-258q-17 0 -27 7.5t-20 27.5l-238 479h-304v-474q0 -40 -39 -40h-214q-39 0 -39 40v1405z
M454 1226v-447h312q52 0 96.5 16.5t76.5 46.5t50.5 71t18.5 89t-18.5 89t-50.5 71t-76.5 47t-96.5 17h-312z" />
    <glyph glyph-name="S" unicode="S" horiz-adv-x="1282" 
d="M130 227q-8 9 -14.5 18t-9 18.5t0.5 19t14 20.5l134 131q18 17 35 11.5t34 -21.5q31 -30 68 -61t80 -55.5t92.5 -40t106.5 -15.5q59 0 106 16.5t79.5 43.5t49.5 62t17 73q0 48 -29 81t-71.5 56t-91 37t-88.5 25q-122 36 -214.5 79.5t-155.5 98t-95 122t-32 152.5
q0 93 39 169t110.5 130.5t171 84.5t219.5 30q66 0 130 -16.5t123.5 -45.5t113 -68t97.5 -84q36 -37 -1 -77l-110 -119q-20 -18 -38 -10.5t-38 23.5q-24 20 -55.5 44t-68 44.5t-77.5 34.5t-85 14q-39 0 -79.5 -5.5t-74.5 -23t-55.5 -49t-21.5 -82.5q0 -38 21.5 -65.5t60 -49
t92 -39t117.5 -35.5q101 -30 191 -67t157.5 -90.5t107 -128t39.5 -179.5q0 -104 -46 -188.5t-123 -144t-177 -92t-209 -32.5q-78 0 -154 18t-146.5 50t-133.5 77.5t-113 100.5z" />
    <glyph glyph-name="T" unicode="T" horiz-adv-x="1222" 
d="M42 1446q0 39 39 39h1050q39 0 39 -39v-189q0 -40 -39 -40h-384v-1177q0 -40 -39 -40h-215q-39 0 -39 40v1177h-373q-39 0 -39 40v189z" />
    <glyph glyph-name="U" unicode="U" horiz-adv-x="1504" 
d="M435 587q0 -70 23 -132t65 -108.5t100.5 -73.5t128.5 -27t128 27t100 73.5t65 108.5t23 132v854q0 18 13.5 31t33.5 13h198q18 0 34 -12t16 -32v-854q0 -126 -48 -237t-131.5 -194.5t-194.5 -131.5t-237 -48q-84 0 -162 22t-146 62t-124 95.5t-96 123.5t-62 146t-22 162
v854q0 15 12 29.5t30 14.5h207q14 0 30 -13t16 -31v-854z" />
    <glyph glyph-name="V" unicode="V" horiz-adv-x="1436" 
d="M855 36q-16 -37 -51 -37h-168q-37 0 -51 37l-553 1406q-9 22 -0.5 32.5t27.5 10.5h228q36 0 49 -38l383 -1037l381 1036q7 20 19.5 29.5t29.5 9.5h231q19 0 27.5 -11.5t-0.5 -33.5z" />
    <glyph glyph-name="W" unicode="W" horiz-adv-x="2130" 
d="M1078 542l-196 -505q-16 -37 -51 -37h-169q-17 0 -29.5 8.5t-20.5 28.5l-553 1404q-8 20 0.5 31.5t27.5 11.5h226q36 0 49 -37l382 -1033l382 1033q8 20 20 28.5t29 8.5h233q19 0 27 -12.5t1 -30.5l-213 -532l193 -493l393 1031q8 20 20.5 28.5t29.5 8.5h234
q19 0 27.5 -12t0.5 -31l-570 -1404q-8 -20 -21.5 -28.5t-29.5 -8.5h-159q-36 0 -52 37z" />
    <glyph glyph-name="X" unicode="X" horiz-adv-x="1334" 
d="M830 755l478 -711q14 -20 4.5 -32t-26.5 -12h-244q-17 0 -29.5 8.5t-23.5 26.5l-321 479l-322 -479q-15 -23 -25 -29t-27 -6h-242q-19 0 -27.5 12.5t4.5 32.5l476 710l-458 685q-13 19 -6.5 32t25.5 13h248q17 0 27.5 -8t24.5 -28l302 -451l304 452q13 18 24.5 27t28.5 9
h244q19 0 27 -13.5t-3 -30.5z" />
    <glyph glyph-name="Y" unicode="Y" horiz-adv-x="1318" 
d="M568 625l-477 816q-11 20 -2.5 32t28.5 12h245q17 0 28.5 -8t21.5 -28l302 -583l301 582q11 20 22 28t27 8h249q19 0 27.5 -11.5t-1.5 -32.5l-479 -814v-584q0 -42 -38 -42h-215q-39 0 -39 42v583z" />
    <glyph glyph-name="Z" unicode="Z" horiz-adv-x="1278" 
d="M1220 1485q36 0 36 -36v-167q0 -12 -4 -22t-8 -15l-776 -973h749q36 0 36 -36v-202q0 -34 -36 -34h-1117q-36 0 -36 34v172q0 8 2.5 16.5t10.5 19.5l778 968h-745q-38 0 -38 37v202q0 36 38 36h1110z" />
    <glyph glyph-name="bracketleft" unicode="[" horiz-adv-x="592" 
d="M160 1641q0 39 39 39h392q13 0 21.5 -8t8.5 -22v-194q0 -13 -9.5 -21.5t-22.5 -8.5h-158v-1453h160q13 0 21.5 -8.5t8.5 -22.5v-194q0 -14 -9.5 -22t-22.5 -8h-390q-39 0 -39 39v1884z" />
    <glyph glyph-name="backslash" unicode="\" horiz-adv-x="1054" 
d="M65 1442q-10 21 -2 32t27 11h192q17 0 30.5 -8.5t21.5 -28.5l610 -1405q8 -20 0.5 -31.5t-25.5 -11.5h-196q-17 0 -30.5 8t-21.5 28z" />
    <glyph glyph-name="bracketright" unicode="]" horiz-adv-x="647" 
d="M520 -243q0 -39 -39 -39h-389q-14 0 -23.5 8t-9.5 22v194q0 14 8.5 22.5t22.5 8.5h159v1453h-157q-14 0 -23.5 8.5t-9.5 21.5v194q0 14 8.5 22t22.5 8h391q39 0 39 -39v-1884z" />
    <glyph glyph-name="asciicircum" unicode="^" horiz-adv-x="976" 
d="M481 1617q37 37 75 0l327 -327q19 -18 20 -38.5t-18 -37.5l-90 -90q-19 -19 -40 -16.5t-36 16.5l-204 203l-203 -203q-16 -16 -35 -17.5t-38 16.5l-89 88q-20 19 -17.5 38.5t19.5 36.5z" />
    <glyph glyph-name="underscore" unicode="_" horiz-adv-x="902" 
d="M859 -77q23 0 37.5 -14t14.5 -40v-131q0 -19 -14 -38t-38 -19h-806q-53 0 -53 57v131q0 26 13 40t40 14h806z" />
    <glyph glyph-name="grave" unicode="`" horiz-adv-x="516" 
d="M143 1426q-7 14 -9 22.5t-2 15.5q0 12 7.5 16.5t20.5 4.5h150q19 0 30.5 -10t23.5 -32l88 -205q10 -23 11 -38q0 -13 -6.5 -19.5t-26.5 -6.5h-143q-34 0 -53 42z" />
    <glyph glyph-name="a" unicode="a" horiz-adv-x="1188" 
d="M838 55q-2 19 -5 32.5t-6 32.5q-18 -27 -40 -52t-52 -44.5t-70.5 -31t-95.5 -11.5h-5q-107 0 -195.5 39t-153 107t-100 161t-35.5 200q0 109 35.5 202t99 161t152.5 107t197 39q54 0 94 -11t71.5 -30.5t56.5 -45.5t49 -55l20 76q4 16 7.5 27t9.5 17t15 8.5t23 2.5l113 -4
q23 0 40 -14.5t17 -39.5v-878q0 -24 -17 -37t-40 -13h-129q-30 0 -40.5 15t-15.5 40zM341 486q0 -55 17 -103t48.5 -83.5t76 -56t98.5 -20.5q55 0 100 20t76.5 55t48.5 83t17 104q0 54 -16.5 102.5t-48 85t-76 58t-101.5 21.5q-55 0 -99.5 -21t-75.5 -57.5t-48 -85
t-17 -102.5z" />
    <glyph glyph-name="b" unicode="b" horiz-adv-x="1186" 
d="M162 1435q0 23 12.5 36.5t34.5 13.5h175q27 0 39 -14t12 -36v-560q42 54 103.5 86.5t150.5 32.5q102 0 187.5 -39.5t147 -108t96 -161t34.5 -198.5q0 -105 -35.5 -197t-98 -161t-147.5 -108.5t-184 -39.5q-95 0 -159.5 33t-115.5 105q-5 -21 -8 -39t-7 -36
q-5 -18 -17 -27t-28 -13t-33.5 -4h-33.5h-77q-24 2 -36 15t-12 36v1384zM408 482q0 -54 19.5 -101.5t52.5 -83t76.5 -56t92.5 -20.5t92 20.5t75.5 56.5t51 84t18.5 103t-18 103.5t-49 84.5t-73.5 57t-91.5 21q-50 0 -94.5 -21t-78 -57t-53.5 -84.5t-20 -103.5v-3z" />
    <glyph glyph-name="c" unicode="c" horiz-adv-x="1022" 
d="M585 228q59 1 103 17.5t92 39.5q9 5 15.5 7.5t12.5 2.5q14 0 30 -23l86 -124q4 -5 6 -11.5t2 -9.5q0 -18 -11.5 -28.5t-22.5 -17.5q-66 -44 -143.5 -73t-164.5 -29q-105 0 -198.5 39.5t-163 108.5t-110 161.5t-40.5 199.5q0 106 40.5 200t110 163.5t163 110t198.5 40.5
q81 0 153.5 -25.5t144.5 -71.5h-1q17 -11 26.5 -22t9.5 -28q0 -5 -2 -12t-5 -11l-77 -133q-5 -8 -13 -14t-19 -6t-32 13q-35 28 -84.5 45.5t-98.5 17.5q-55 0 -102.5 -21.5t-83 -58.5t-55.5 -86t-20 -104q0 -57 19.5 -104.5t53.5 -81.5t80.5 -52.5t100.5 -18.5z" />
    <glyph glyph-name="d" unicode="d" horiz-adv-x="1158" 
d="M1070 51q0 -23 -12 -36t-37 -15h-88q-38 0 -69 6q-14 4 -22 15t-12.5 26.5t-7 34t-5.5 37.5q-25 -36 -52 -62t-59.5 -43t-72.5 -25t-91 -8q-103 0 -189 39.5t-147.5 108.5t-95.5 161t-34 197q0 106 33.5 198.5t95 161t148.5 108t193 39.5q47 0 84.5 -8t67.5 -23
t53.5 -36.5t44.5 -48.5v557q0 22 13.5 36t39.5 14h164q22 0 39.5 -13.5t17.5 -36.5v-1384zM823 485q0 55 -17.5 103.5t-49.5 84.5t-76.5 57t-97.5 21q-57 0 -101 -21t-74 -57t-46 -84.5t-16 -103.5t16 -103t46 -84t74 -56.5t101 -20.5q52 0 96 20.5t76 56t50 83t19 101.5v3z
" />
    <glyph glyph-name="e" unicode="e" horiz-adv-x="1144" 
d="M593 214q43 -1 86 12.5t82 35.5q16 8 30 18.5t25 10.5q16 0 31 -18l74 -118q9 -15 9 -26q0 -15 -10 -26.5t-22 -21.5q-63 -49 -138.5 -77t-160.5 -28q-105 0 -197.5 40t-162.5 109.5t-110.5 163t-40.5 200.5q0 103 40 196.5t108 163.5t158.5 111.5t192.5 41.5
q96 0 182 -36t150 -98t101.5 -145t37.5 -177q0 -77 -13.5 -112.5t-56.5 -35.5h-622q4 -43 26.5 -77t54.5 -58t70.5 -36.5t75.5 -12.5zM797 590q-2 38 -19 71.5t-46 59t-67.5 40t-83.5 14.5q-37 0 -73.5 -14.5t-66 -39.5t-49.5 -58.5t-25 -72.5h430z" />
    <glyph glyph-name="f" unicode="f" horiz-adv-x="648" 
d="M566 1498q26 0 40.5 -14.5t14.5 -40.5v-139q0 -21 -12 -36t-33 -15q-58 0 -94 -29t-36 -95v-146h105q23 0 37.5 -12.5t14.5 -41.5v-104q0 -26 -14 -42.5t-38 -16.5h-105v-715q0 -24 -16.5 -37.5t-36.5 -13.5h-157q-23 0 -37 14t-14 37v715h-79q-25 0 -39.5 15t-14.5 44
v104q0 29 14.5 41.5t39.5 12.5h79v173q0 81 30 144.5t81.5 107t121 66.5t148.5 24z" />
    <glyph glyph-name="g" unicode="g" horiz-adv-x="1192" 
d="M790 -20q8 26 11 64.5t3 73.5q-16 -28 -38 -52.5t-52 -43t-67.5 -29t-84.5 -10.5q-104 0 -192.5 39.5t-153 108t-100.5 161t-36 199.5q0 105 36 197t100.5 160t153 107t192.5 39q48 0 88.5 -12.5t75 -32t62 -44t49.5 -49.5l17 73q5 13 8.5 23t9.5 16.5t15 9.5t24 3h115
q21 0 41 -14.5t20 -42.5v-845q0 -120 -39 -212.5t-107.5 -155.5t-161.5 -96t-200 -33q-41 0 -89 6t-95.5 19.5t-91.5 35t-78 51.5q-11 8 -19 21t-8 29q0 9 3 19t11 21l81 108q21 23 40 23q16 0 42 -18q19 -18 44.5 -29.5t52 -18t52 -8.5t46.5 -2q34 0 69.5 9.5t66 27.5
t53 44t31.5 60zM343 486q0 -55 17 -103t48.5 -83.5t76 -56t98.5 -20.5q55 0 100 20t76.5 55t48.5 83t17 104q0 54 -16.5 102.5t-48 85t-76 58t-101.5 21.5q-55 0 -99.5 -21t-75.5 -57.5t-48 -85t-17 -102.5z" />
    <glyph glyph-name="h" unicode="h" horiz-adv-x="1254" 
d="M425 864q16 25 49 48.5t75 42.5t90 30.5t95 11.5q91 0 162 -32.5t120.5 -89.5t76.5 -133.5t30 -164.5v-11t1 -11v-504q0 -25 -14 -38t-35 -13h-166q-27 0 -37.5 12t-10.5 37v505q0 40 -15 75.5t-40.5 62t-60.5 42t-75 15.5q-37 0 -80 -15.5t-79.5 -42t-61 -62.5
t-24.5 -76v-509q-1 -28 -21 -36t-41 -8h-149q-52 0 -52 47v1390q0 21 12 34.5t37 13.5h163q22 0 36.5 -11t14.5 -37v-573z" />
    <glyph glyph-name="i" unicode="i" horiz-adv-x="576" 
d="M415 47q0 -47 -50 -47h-174q-47 0 -47 47v888q0 20 12 34t35 14h174q18 0 34 -13.5t16 -34.5v-888zM119 1275q0 32 12 60t33 49t48.5 33t59.5 12q33 0 61 -12t49 -33t32.5 -49t11.5 -60t-11.5 -59.5t-32.5 -48.5t-49 -33t-61 -12q-32 0 -59.5 12t-48.5 33t-33 48.5
t-12 59.5z" />
    <glyph glyph-name="j" unicode="j" horiz-adv-x="565" 
d="M24 -411q-26 0 -40 14t-14 38v132q0 23 13.5 36.5t35.5 13.5h5q25 1 47 12t38.5 29.5t26 43t9.5 51.5v972q0 25 15 38t38 13h158q24 0 38.5 -14t14.5 -37v-910q0 -23 -1 -46t-3 -45q-7 -75 -38.5 -137t-82 -107t-117 -70.5t-143.5 -26.5zM120 1275q0 32 12 60t33 49
t48.5 33t59.5 12q33 0 61 -12t49 -33t32.5 -49t11.5 -60t-11.5 -59.5t-32.5 -48.5t-49 -33t-61 -12q-32 0 -59.5 12t-48.5 33t-33 48.5t-12 59.5z" />
    <glyph glyph-name="k" unicode="k" horiz-adv-x="1141" 
d="M148 1426q0 26 8 42.5t37 16.5h176q30 0 39.5 -15t9.5 -36v-787l277 308q19 22 48 22h236q20 0 31 -9t11 -24q-1 -8 -3 -14t-11 -15l-316 -334l398 -511h-2q10 -10 14.5 -20.5t4.5 -18.5q0 -18 -9.5 -24.5t-29.5 -6.5h-260q-13 0 -24.5 10t-25.5 30l-251 356l-86 -88
v-256q0 -6 -1.5 -15t-6 -17.5t-13.5 -14t-25 -5.5h-175q-29 0 -40 14t-11 37v1375z" />
    <glyph glyph-name="l" unicode="l" horiz-adv-x="565" 
d="M150 1441q0 21 11.5 32.5t30.5 11.5h187q20 0 31.5 -12.5t11.5 -31.5v-1397q0 -20 -11 -32t-32 -12h-187q-42 0 -42 44v1397z" />
    <glyph glyph-name="m" unicode="m" horiz-adv-x="1746" 
d="M335 982q17 0 29 -13.5t20 -33t13 -42t8 -39.5q21 25 48 49.5t61 44t75 31.5t89 12q51 0 96 -12.5t82.5 -33.5t67 -49t49.5 -60q24 34 57.5 63.5t73.5 51.5t84 34t89 12q101 0 173 -32.5t118 -88.5t68.5 -132.5t25.5 -163.5q1 -23 1 -44.5v-44.5v-442q0 -28 -17.5 -38.5
t-43.5 -10.5h-151q-32 0 -48 9.5t-16 37.5v508q0 37 -8 70t-25 57t-43 38t-62 14q-35 0 -70.5 -13.5t-64 -37.5t-46.5 -56.5t-18 -69.5v-509q0 -28 -16.5 -38t-42.5 -10h-165q-29 0 -42 9.5t-13 37.5v517q0 81 -41 125.5t-113 44.5q-34 0 -68 -13.5t-61 -37t-44 -55
t-17 -68.5v-517q0 -23 -14 -33t-37 -10h-171q-29 0 -43 10.5t-14 34.5v875q0 27 18.5 44.5t36.5 17.5h132z" />
    <glyph glyph-name="n" unicode="n" horiz-adv-x="1254" 
d="M331 982q30 0 45 -10t22.5 -27.5t11 -40.5t10.5 -49q23 26 54.5 51t70 44.5t83 31.5t93.5 12q93 0 165.5 -29.5t122 -82t75.5 -125t26 -158.5v-550q0 -28 -12 -38.5t-36 -10.5h-184q-16 0 -25 2t-13.5 7.5t-6 14.5t-1.5 23v506q0 40 -13.5 73.5t-38 56.5t-57.5 36t-72 13
q-32 0 -67 -13.5t-65 -37t-51.5 -55t-27.5 -67.5v-514q0 -26 -9.5 -35.5t-39.5 -9.5h-181q-29 0 -38.5 10.5t-9.5 34.5v877q0 29 15 44.5t46 15.5h108v0z" />
    <glyph glyph-name="o" unicode="o" horiz-adv-x="1156" 
d="M60 488q0 106 40.5 200t110.5 163.5t164.5 110t202.5 40.5q107 0 201.5 -40.5t165 -110t111 -163.5t40.5 -200q0 -107 -40.5 -199.5t-111 -161.5t-165 -108.5t-201.5 -39.5q-108 0 -202.5 39.5t-164.5 108.5t-110.5 161.5t-40.5 199.5zM327 487q0 -54 19.5 -101.5t53 -83
t79.5 -56t100 -20.5q53 0 99.5 20.5t80.5 56t53.5 83t19.5 101.5q0 53 -19.5 100.5t-53.5 83.5t-80.5 57t-99.5 21q-54 0 -100 -21t-79.5 -57t-53 -83.5t-19.5 -100.5z" />
    <glyph glyph-name="p" unicode="p" horiz-adv-x="1182" 
d="M152 924q0 26 14.5 41.5t41.5 17.5h98q16 0 29.5 -1t25 -6t20 -15t13.5 -29l13 -64q50 63 111 100t150 37q99 0 184.5 -39.5t148.5 -108.5t98.5 -161t35.5 -197q0 -106 -35 -198.5t-98 -161t-149.5 -108t-188.5 -39.5q-38 0 -72 8t-63.5 22t-54.5 32.5t-44 39.5v-432
q0 -26 -16 -42.5t-46 -16.5h-151q-26 0 -45.5 16.5t-19.5 42.5v1262zM403 504q0 -53 18 -99t49 -80.5t72 -54.5t88 -20q46 0 86.5 20t71 54t48 79.5t17.5 97.5q0 51 -17.5 96.5t-48 79t-71 53t-86.5 19.5t-87 -19.5t-72 -52.5t-49.5 -77.5t-18.5 -95.5z" />
    <glyph glyph-name="q" unicode="q" horiz-adv-x="1170" 
d="M1071 -335q0 -26 -19.5 -42.5t-45.5 -16.5h-151q-30 0 -46 16.5t-16 42.5v429q-39 -41 -98.5 -71.5t-135.5 -30.5q-102 0 -188.5 39.5t-149.5 108t-98 161t-35 198.5q0 105 35.5 197t98.5 161t148.5 108.5t184.5 39.5q89 0 150 -37t111 -100l13 63q5 19 13.5 29t20 15
t25 6t29.5 1h98q27 -2 41.5 -17.5t14.5 -41.5v-1258zM820 504q0 51 -18.5 95.5t-49.5 77.5t-72 52.5t-87 19.5t-86.5 -19.5t-71 -53t-48 -79t-17.5 -96.5q0 -52 17.5 -97.5t48 -79.5t71 -54t86.5 -20t87.5 20t72.5 54.5t49 80.5t18 99z" />
    <glyph glyph-name="r" unicode="r" horiz-adv-x="949" 
d="M378 926q1 -5 4 -16t6.5 -23t6.5 -23t4 -16q18 24 42.5 50t56 47.5t69.5 35.5t81 14q21 0 38 -3q28 -3 64 -15t68 -29t54 -36t22 -36q0 -14 -9 -27l-81 -131q-17 -28 -41 -28q-8 0 -24 8l-34 17q-29 19 -50.5 27t-48.5 8q-44 0 -79 -17.5t-59 -45t-37 -62t-13 -68.5v-506
q0 -51 -53 -51h-166q-53 0 -53 51v876q0 25 16.5 38t36.5 13h127q25 0 35.5 -16t16.5 -36z" />
    <glyph glyph-name="s" unicode="s" horiz-adv-x="892" 
d="M48 170q-4 8 -4 20q0 7 3 14.5t11 14.5l122 98q4 4 10.5 7t11.5 3q16 -2 32 -15q19 -16 40.5 -34.5t46 -34.5t52 -27t58.5 -11q34 0 56.5 8t36 21.5t19.5 30.5t6 36q0 21 -17.5 38.5t-41.5 31t-49.5 22t-41.5 13.5q-87 23 -149.5 52.5t-103 67t-59.5 84.5t-19 106
q0 57 26.5 108.5t75.5 91t118 62.5t154 23q100 0 180 -33t140 -88q36 -33 36 -59q0 -6 -10 -18t-26 -26.5t-34.5 -30t-36 -28t-31 -20.5t-18.5 -8q-14 0 -34 18q-14 12 -30.5 25t-36 23t-43.5 16.5t-52 6.5q-19 0 -37.5 -3.5t-33 -11t-23.5 -20t-9 -31.5q0 -18 10.5 -32
t30 -25.5t48 -21.5t64.5 -22q76 -25 139 -54t107 -67t68.5 -87t24.5 -115q0 -77 -33.5 -135t-89.5 -97.5t-128.5 -59.5t-151.5 -20q-105 0 -197 38.5t-156 107.5q-21 22 -31 47z" />
    <glyph glyph-name="t" unicode="t" horiz-adv-x="656" 
d="M165 1252q0 24 15 39.5t46 19.5l148 22q4 1 7.5 1h6.5q29 0 38.5 -17t9.5 -43v-291h120q25 0 40 -15t15 -44v-110q0 -32 -15 -47t-40 -15h-120v-693q0 -29 -12 -44t-42 -15h-168q-29 0 -39 15t-10 44v693h-54q-59 0 -59 62v110q0 59 59 59h54v269z" />
    <glyph glyph-name="u" unicode="u" horiz-adv-x="1136" 
d="M907 0q-30 0 -46 9t-24.5 25t-13 38t-11.5 48q-23 -26 -56.5 -50t-74 -42t-87 -29t-95.5 -11q-93 0 -164 29.5t-118.5 82t-72 125t-24.5 158.5v540q0 28 17 43.5t41 15.5h164q32 0 44 -14.5t12 -42.5v-496q0 -41 12 -74t34.5 -56t54.5 -36t71 -13q32 0 72 12.5t74.5 35.5
t58 55t23.5 70v504q0 55 59 55h161q29 0 43.5 -15.5t14.5 -39.5v-867q0 -29 -15 -44.5t-46 -15.5h-108v0z" />
    <glyph glyph-name="v" unicode="v" horiz-adv-x="1055" 
d="M528 385l197 553q19 45 67 45h179q29 0 41 -12t12 -34q0 -8 -2.5 -16.5t-2.5 -10.5l-347 -848q-10 -24 -27 -43t-43 -19h-147q-18 0 -31 7t-22 19t-15.5 27t-12.5 30l-164 404q-42 103 -84.5 210t-84.5 206q-2 5 -5.5 16.5t-3.5 19.5q0 43 53 43h182q26 0 41 -12.5
t23 -33.5z" />
    <glyph glyph-name="w" unicode="w" horiz-adv-x="1600" 
d="M411 709q29 -85 55 -159.5t55 -149.5l189 529q9 25 24.5 39t46.5 14h159q29 0 43 -12.5t14 -35.5q0 -5 -1 -12t-2 -9l-62 -174q26 -75 58.5 -163.5t68.5 -177.5l55 155q33 94 66.5 188t65.5 189q9 27 28 39.5t41 12.5h182q25 0 39.5 -10.5t14.5 -31.5q0 -7 -2 -14t-4 -13
l-343 -854l-8 -16t-13 -19.5t-20 -16.5t-29 -7h-144q-24 0 -38 10.5t-22 24t-11.5 27.5t-6.5 20l-85 214q-9 23 -17 41t-18 43l-39 -95q-10 -29 -22 -56.5t-23 -56.5l-44 -109q-1 -1 -1 -4l-3 -6q-3 -8 -8 -17t-12.5 -17t-18 -13.5t-25.5 -5.5h-147q-19 0 -31.5 7t-21 18.5
t-14.5 25t-11 26.5q-79 196 -134.5 334t-92 230.5t-57 146t-31 81t-13.5 35.5t-4 10q-5 12 -5 25q0 43 52 43h182q25 0 41.5 -13t25.5 -34z" />
    <glyph glyph-name="x" unicode="x" horiz-adv-x="1055" 
d="M56 0q-28 0 -28 17q0 10 10 27l7 12q5 10 11.5 18.5t13.5 18.5q72 106 144.5 210t145.5 210l-289 414q-7 9 -11.5 18.5t-4.5 15.5q0 20 37 20h181q21 0 36 -2.5t27.5 -10t24 -20t24.5 -33.5q35 -57 68.5 -112.5t67.5 -112.5q19 28 39.5 60.5t40.5 66.5q16 28 32.5 57
t33.5 53t36 39t40 15h213q17 0 27 -5t10 -16q0 -5 -4 -12.5t-9 -15.5q-42 -59 -76.5 -106.5t-68 -94.5t-70 -99t-83.5 -119l313 -455q8 -13 12 -22.5t6 -16.5q0 -19 -31 -19h-233q-15 0 -24.5 4.5t-17.5 12.5t-16 20t-18 26q-38 61 -76 121.5t-76 121.5l-168 -267
q-25 -39 -60 -39h-237z" />
    <glyph glyph-name="y" unicode="y" horiz-adv-x="1118" 
d="M580 -351q-11 -23 -27.5 -34t-36.5 -11h-162q-23 0 -39 9t-16 33q0 15 4 27l125 337l-364 893h1q-6 11 -7.5 20t-1.5 14q0 44 54 44h175q26 0 42 -13.5t21 -33.5v1l219 -585l215 587q16 44 66 44h173q31 0 43.5 -13.5t12.5 -35.5q0 -5 -2 -13.5t-7 -22.5z" />
    <glyph glyph-name="z" unicode="z" horiz-adv-x="1034" 
d="M122 921q0 27 16.5 43.5t45.5 16.5h710q25 0 43.5 -15t18.5 -45v-134q0 -7 -1 -16t-8 -19l-462 -503h418q28 0 44.5 -15t16.5 -47v-121q0 -12 -4.5 -23.5t-12.5 -21t-19 -15.5t-25 -6h-741q-25 0 -43.5 20.5t-18.5 45.5v106q0 11 2 21t11 21q52 57 114.5 123.5t127.5 135
t127.5 135t114.5 124.5h-413q-29 0 -45.5 15.5t-16.5 48.5v125z" />
    <glyph glyph-name="braceleft" unicode="{" horiz-adv-x="715" 
d="M109 807q0 14 11 22.5t26 8.5q27 0 51 2.5t41.5 12t27.5 28.5t10 52v354q0 113 30 190t76.5 127t102 77t106.5 39t90 14t53 2q31 0 31 -30v-233q0 -14 -9.5 -22t-23.5 -8q-6 0 -21.5 -0.5t-35 -4.5t-40 -13t-37.5 -26t-28 -43.5t-11 -65.5v-430q0 -49 -19.5 -88.5
t-51.5 -70.5q32 -32 51.5 -70.5t19.5 -87.5v-429q0 -59 23.5 -90t53.5 -45.5t58 -16.5t38 -2q14 0 23.5 -8t9.5 -22v-233q0 -30 -31 -30q-14 0 -53 2t-90 14.5t-106.5 39.5t-102 76.5t-76.5 126.5t-30 190v354q0 34 -10 53t-28 28.5t-42.5 12t-52.5 2.5q-14 0 -24 7t-10 23
v211z" />
    <glyph glyph-name="bar" unicode="|" horiz-adv-x="587" 
d="M158 1446q0 39 40 39h160q40 0 40 -39v-1793q0 -39 -40 -39h-160q-40 0 -40 39v1793z" />
    <glyph glyph-name="braceright" unicode="}" horiz-adv-x="721" 
d="M719 596q0 -16 -10 -23t-24 -7q-28 0 -52.5 -2.5t-42.5 -12t-28 -28.5t-10 -53v-354q0 -113 -30 -190t-76.5 -126.5t-102 -76.5t-106.5 -39.5t-90 -14.5t-53 -2q-30 0 -30 30v233q0 14 9 22t23 8q10 0 38 2t58 16.5t53.5 45.5t23.5 90v429q0 49 20 87.5t52 70.5
q-32 31 -52 70.5t-20 88.5v430q0 39 -11 65.5t-28 43.5t-37.5 26t-40 13t-34.5 4.5t-22 0.5q-14 0 -23 8t-9 22v233q0 30 30 30q13 0 52.5 -2t90.5 -14t106.5 -39t102 -77t76.5 -127t30 -190v-354q0 -33 10 -52t27.5 -28.5t41.5 -12t51 -2.5q15 0 26 -8.5t11 -22.5v-211z
" />
    <glyph glyph-name="asciitilde" unicode="~" horiz-adv-x="1318" 
d="M303 398q-8 -8 -16.5 -7.5t-15.5 4.5q-10 4 -33.5 17.5t-47.5 31t-42 36t-18 32.5q0 6 5.5 17.5t12.5 20.5l30 40q60 77 136 113.5t166 36.5q53 0 106.5 -19t102.5 -51q21 -14 41.5 -28.5t42 -26t43.5 -19t45 -7.5q16 0 33 4.5t36.5 16.5t41 33.5t45.5 55.5
q5 7 13.5 10.5t16.5 3.5q6 0 31 -13.5t53 -33t50 -40.5t22 -36t-10 -28.5t-14 -19.5q-37 -46 -73 -79.5t-75.5 -55.5t-84 -33t-96.5 -11t-105 18.5t-101 50.5l-84 56q-43 26 -88 26q-62 0 -103 -44q-6 -7 -15 -16.5t-18.5 -20t-18 -20t-14.5 -15.5z" />
    <glyph glyph-name="exclamdown" unicode="&#xa1;" horiz-adv-x="496" 
d="M141 471q0 25 14 39.5t40 14.5h182q23 0 40 -14t17 -40v-940q0 -26 -14.5 -40t-42.5 -14h-182q-26 0 -40 14t-14 40v940zM449 826q0 -34 -13 -63.5t-34.5 -51.5t-51 -34.5t-62.5 -12.5q-35 0 -64.5 12.5t-51 34.5t-34 51.5t-12.5 63.5q0 33 12.5 62.5t34 51t51 34.5
t64.5 13q33 0 62.5 -13t51 -34.5t34.5 -51t13 -62.5z" />
    <glyph glyph-name="cent" unicode="&#xa2;" horiz-adv-x="976" 
d="M555 233q48 0 93.5 13t87.5 37q11 6 25 13.5t22 8.5q12 0 20 -3t15 -9t14.5 -16.5t16.5 -25.5q7 -12 18 -28.5t21 -33t17.5 -30.5t7.5 -21q0 -22 -25 -44.5t-62 -43t-80 -36t-79 -23.5v-123q0 -23 -13.5 -37.5t-36.5 -14.5h-157q-52 0 -52 52v142q-73 24 -133.5 70.5
t-104 109.5t-68 140t-24.5 162q0 87 24.5 163.5t68 139t104.5 109.5t133 75v127q0 22 14 36.5t37 14.5h157q21 0 36 -15.5t15 -35.5v-113q31 -6 73.5 -19.5t81.5 -32t66 -41.5t27 -48q0 -6 -2.5 -13t-10.5 -21l-69 -115q-14 -20 -23.5 -24.5t-16.5 -4.5q-12 0 -24.5 8.5
t-26.5 18.5q-37 25 -79.5 39t-88.5 14q-48 0 -90.5 -21t-74 -57t-49.5 -83.5t-18 -101.5q0 -49 16 -95.5t44 -82.5t67 -58t86 -22z" />
    <glyph glyph-name="sterling" unicode="&#xa3;" horiz-adv-x="1200" 
d="M382 824h272q31 0 31 -31v-185q0 -13 -9 -21.5t-23 -8.5h-271v-306h626q40 0 40 -39v-193q0 -40 -40 -40h-880q-38 0 -38 40v964q0 111 46 203.5t121 159.5t171 104.5t195 37.5q120 0 214.5 -32.5t171.5 -89.5q6 -4 14.5 -11.5t15 -16.5t9 -20t-3.5 -22l-87 -141
q-10 -15 -20.5 -21t-20.5 -5t-19 5.5t-17 10.5q-17 12 -38.5 26.5t-50 27t-66 21t-85.5 8.5q-47 0 -93 -21t-83 -55.5t-59.5 -80t-22.5 -93.5v-175z" />
    <glyph glyph-name="currency" unicode="&#xa4;" horiz-adv-x="1078" 
d="M187 676q0 87 36 159l-86 92q-10 9 -11 21.5t10 22.5l132 124q21 20 44 0l84 -87q36 17 76 27t84 10q42 0 81 -9t75 -26l83 85q21 20 43 0l133 -124q10 -10 9 -22.5t-10 -21.5l-82 -85q19 -38 29 -79.5t10 -86.5q0 -87 -38 -161l80 -81q11 -10 11 -22.5t-11 -21.5
l-130 -124q-12 -12 -24 -10t-20 10l-80 78q-37 -17 -76.5 -26.5t-82.5 -9.5q-45 0 -85.5 10t-77.5 28l-81 -80q-8 -8 -20 -10t-24 10l-131 124q-11 9 -11 21.5t11 22.5l84 85q-34 74 -34 157zM384 681q0 -35 12.5 -66t35 -54t53 -36.5t65.5 -13.5q36 0 66.5 14t53.5 37
t36 54t13 65q0 35 -13 66t-36 54.5t-53.5 37t-66.5 13.5q-35 0 -65.5 -13.5t-53 -36.5t-35 -54t-12.5 -67z" />
    <glyph glyph-name="yen" unicode="&#xa5;" horiz-adv-x="1300" 
d="M296 730q0 18 10 27t23 9h140l-397 675q-12 20 -2.5 32t28.5 12h249q17 0 27.5 -8t21.5 -28l299 -574l305 574q11 20 21.5 28t27.5 8h249q19 0 28.5 -12t-2.5 -32l-402 -675h155q32 0 32 -34v-113q0 -15 -9.5 -24t-25.5 -9h-232v-103h235q32 0 32 -33v-114
q0 -14 -9.5 -23t-25.5 -9h-232v-263q0 -41 -40 -41h-213q-40 0 -40 41v263h-220q-11 0 -22 8t-11 24v112q0 18 10 26.5t23 8.5h220v103h-220q-11 0 -22 8t-11 25v111z" />
    <glyph glyph-name="brokenbar" unicode="&#xa6;" horiz-adv-x="496" 
d="M162 1476q0 18 11 31t33 13h171q18 0 33 -12t15 -32v-746q0 -44 -48 -44h-171q-44 0 -44 44v746zM162 372q0 18 11 31t33 13h171q18 0 33 -12t15 -32v-746q0 -44 -48 -44h-171q-44 0 -44 44v746z" />
    <glyph glyph-name="section" unicode="&#xa7;" horiz-adv-x="1076" 
d="M816 1217q-27 37 -59 62t-65 40t-65.5 21.5t-62.5 6.5q-36 0 -71.5 -10.5t-63.5 -30.5t-45.5 -49.5t-17.5 -67.5q0 -34 23.5 -56.5t60 -39t80.5 -29t86 -24.5q88 -26 151.5 -56.5t104.5 -68t60.5 -83t19.5 -101.5q0 -82 -39 -141.5t-105 -96.5q62 -42 98 -102t36 -134
q0 -77 -33.5 -138t-90 -104t-130 -66t-153.5 -23q-47 0 -100.5 12.5t-106 40t-100.5 70.5t-83 105q-7 11 -7 22q0 8 3.5 13.5t8.5 7.5l89 63q5 3 10.5 5.5t11.5 2.5q8 0 15.5 -4.5t14.5 -15.5q18 -30 44 -56.5t58.5 -47t69 -32.5t75.5 -12q33 0 70.5 9.5t69.5 29.5t53 50.5
t21 71.5q0 31 -19 54.5t-50.5 41.5t-71.5 32t-82 25q-87 23 -155 52t-114.5 66.5t-71 85t-24.5 106.5q0 81 37.5 142.5t108.5 97.5q-60 40 -97.5 99t-37.5 132q0 74 31 134t84.5 102.5t124.5 65.5t152 23q69 0 124.5 -13.5t101 -40.5t84 -66.5t72.5 -90.5q13 -19 13 -30
q0 -12 -16 -23l-84 -58q-8 -4 -12 -4q-17 0 -34 23zM360 727q0 -32 21 -56.5t52 -42t67 -26.5t66 -9q29 0 62.5 7t61.5 22.5t46.5 41.5t18.5 64q0 31 -17 56.5t-45 43.5t-63.5 28t-71.5 10q-32 0 -67 -7t-64 -23.5t-48 -43t-19 -65.5z" />
    <glyph glyph-name="dieresis" unicode="&#xa8;" horiz-adv-x="884" 
d="M138 1267q0 30 11 55.5t30.5 45t45 30.5t54.5 11q30 0 56 -11t45 -30.5t30 -45t11 -55.5q0 -29 -11 -54.5t-30 -45t-45 -30.5t-56 -11q-29 0 -54.5 11t-45 30.5t-30.5 45t-11 54.5zM544 1269q0 30 11 56t30 45.5t45 30.5t55 11q30 0 56 -11t45 -30.5t30 -45.5t11 -56
q0 -29 -11 -54.5t-30 -44.5t-45 -30t-56 -11q-29 0 -55 11t-45 30t-30 44.5t-11 54.5z" />
    <glyph glyph-name="copyright" unicode="&#xa9;" horiz-adv-x="1730" 
d="M1219 1128q18 -12 24.5 -24t-2.5 -28l-66 -117q-9 -15 -18 -19.5t-30 6.5q-49 28 -91 37t-80 9q-56 0 -103 -21t-81 -56t-53 -81t-19 -97q0 -57 20.5 -104t56 -80t82.5 -51.5t100 -19.5q38 0 80 9t87 38q16 10 26.5 6t18.5 -16l65 -108q20 -34 -12 -56q-59 -43 -132 -65
t-150 -22q-97 0 -182.5 36.5t-149.5 100.5t-101 150t-37 185q0 98 37.5 183.5t101.5 149.5t150 100.5t183 36.5q76 0 145.5 -20t129.5 -62zM114 746q0 112 29 216t82 194.5t128 164.5t165.5 127.5t195 82.5t217.5 29q111 0 215 -29t194.5 -82t165 -127.5t127.5 -165
t82.5 -195t29.5 -217.5q0 -112 -29 -215.5t-82 -194t-127.5 -165t-165.5 -127.5t-195 -82.5t-217 -29.5q-112 0 -216 29t-194.5 82t-165 127.5t-127.5 165.5t-82.5 195t-29.5 217zM305 736q0 -86 23 -165t64.5 -147.5t98.5 -124.5t126 -95.5t147.5 -61t161.5 -21.5
q89 0 170.5 24.5t151.5 67.5t127 102.5t97.5 129.5t62.5 148t22 159q0 89 -23.5 169t-66 148t-100 122.5t-126 93t-145 59.5t-155.5 21q-92 0 -174.5 -24.5t-153.5 -67.5t-128 -102.5t-97 -129.5t-61.5 -147.5t-21.5 -157.5z" />
    <glyph glyph-name="ordfeminine" unicode="&#xaa;" horiz-adv-x="938" 
d="M709 859q-11 -15 -27 -36t-43 -40t-67.5 -32t-100.5 -13q-79 0 -148.5 30t-121 81.5t-81.5 121t-30 148.5t29.5 149t80.5 121.5t119 81.5t145 29q45 0 82 -8.5t67.5 -25t56 -41t49.5 -55.5l10 86q4 30 33 30h92q12 0 22 -6t10 -24l3 -676q0 -8 -6 -19t-23 -11h-122
q-18 0 -23.5 13t-5.5 20v76zM272 1120q0 -42 15.5 -78t42 -62.5t62.5 -42t77 -15.5t77 15.5t63 42t42.5 62.5t15.5 78q0 40 -15.5 76t-42.5 63t-63 43t-77 16t-77 -15.5t-62.5 -42.5t-42 -63t-15.5 -77z" />
    <glyph glyph-name="guillemotleft" unicode="&#xab;" horiz-adv-x="1378" 
d="M147 524q-8 8 -11.5 18t-3.5 20q0 20 16 36l511 512q8 5 20.5 9.5t21.5 4.5q12 0 21.5 -4t17.5 -10l98 -100q6 -8 10.5 -16.5t4.5 -19.5q0 -8 -2.5 -19t-10.5 -19l-373 -376l373 -374q6 -7 9.5 -19t3.5 -20q0 -24 -17 -41l-101 -99q-7 -5 -15 -9.5t-19 -4.5q-17 0 -31 10
t-25 21l-198 199l-15.5 15.5l-22.5 22.5t-23 22.5t-15 15.5zM689 524q-8 8 -11.5 18t-3.5 20q0 20 16 36l513 512q8 5 19.5 9.5t20.5 4.5q12 0 21.5 -4t17.5 -10l98 -100q6 -8 10.5 -16.5t4.5 -19.5q0 -8 -2.5 -19t-10.5 -19l-373 -376l373 -374q6 -7 9.5 -19t3.5 -20
q0 -23 -16 -41l-102 -99q-7 -5 -15 -9.5t-19 -4.5q-16 0 -29.5 10t-24.5 21l-200 199l-128 130q-44 43 -86.5 85.5z" />
    <glyph glyph-name="logicalnot" unicode="&#xac;" horiz-adv-x="1162" 
d="M1046 325q0 -20 -12.5 -34t-35.5 -14h-120q-18 0 -35 13.5t-17 34.5v259h-634q-50 0 -50 51v121q0 48 50 48h806q23 0 35.5 -12.5t12.5 -35.5v-431z" />
    <glyph glyph-name="uni00AD" unicode="&#xad;" horiz-adv-x="1056" 
d="M875 694q23 0 38.5 -14t15.5 -38v-141q0 -20 -15 -38.5t-39 -18.5h-652q-25 0 -39 14t-14 43v141q0 24 14 38t39 14h652z" />
    <glyph glyph-name="registered" unicode="&#xae;" horiz-adv-x="1756" 
d="M114 750q0 114 29.5 219.5t83.5 197.5t129 167t167 129t197 83.5t219 29.5t219.5 -29.5t197.5 -83.5t167.5 -129t129 -167t83 -197.5t29.5 -219.5t-29.5 -219.5t-83 -197t-129 -167t-167.5 -129t-197.5 -83t-219.5 -29.5t-219 29.5t-197 83t-167 129t-129 167t-83.5 197
t-29.5 219.5zM331 749q0 -86 21 -165t59 -147.5t92 -125t120.5 -96.5t144 -62t162.5 -22t164 22t148 62t126 96.5t97.5 125t63 147.5t22.5 165q0 92 -22.5 173.5t-63 150t-97.5 122.5t-126 92t-148 58t-164 20t-162.5 -22t-144 -62t-120.5 -96t-92 -124.5t-59 -147.5
t-21 -164zM623 1152q0 9 5.5 15.5t16.5 6.5h385q58 0 107.5 -23t84.5 -62t55 -89t20 -104q0 -39 -12 -75.5t-33.5 -68.5t-51.5 -58t-66 -44l152 -293q5 -8 0.5 -18.5t-17.5 -10.5h-147q-9 0 -15.5 4.5t-13.5 16.5l-139 272h-136v-269q0 -26 -26 -26h-144q-25 0 -25 26v800z
M818 1022v-233h160q26 0 48.5 9t38.5 24.5t25 36.5t9 45t-9 45.5t-25 37.5t-38.5 25.5t-48.5 9.5h-160z" />
    <glyph glyph-name="macron" unicode="&#xaf;" horiz-adv-x="974" 
d="M100 1337q0 35 35 35h725q36 0 36 -35v-100q0 -12 -9 -26t-27 -14h-725q-35 0 -35 40v100z" />
    <glyph glyph-name="degree" unicode="&#xb0;" horiz-adv-x="650" 
d="M332 1350q47 0 87.5 -17.5t70.5 -47.5t47.5 -71.5t17.5 -89.5t-17.5 -88.5t-48 -70.5t-71 -47t-86.5 -17q-47 0 -88 17t-71.5 47t-48.5 70.5t-18 88.5t17.5 89.5t48 71.5t71.5 47.5t89 17.5zM332 1221q-42 0 -69 -28.5t-27 -68.5t27 -67.5t69 -27.5q19 0 36.5 7.5t30 20
t20 30t7.5 37.5t-7.5 37.5t-20 31t-30 21t-36.5 7.5z" />
    <glyph glyph-name="plusminus" unicode="&#xb1;" horiz-adv-x="994" 
d="M640 365q0 -23 -13.5 -38.5t-39.5 -15.5h-151q-20 0 -39 14.5t-19 39.5v200h-193q-55 0 -55 57v141q0 54 55 54h193v199q0 55 58 55h151q53 0 53 -55v-199h196q23 0 38.5 -14t15.5 -40v-141q0 -20 -15 -38.5t-39 -18.5h-196v-200zM839 234q23 0 38.5 -13t15.5 -39v-126
q0 -22 -15 -39t-39 -17h-644q-54 0 -54 56v126q0 52 54 52h644z" />
    <glyph glyph-name="twosuperior" unicode="&#xb2;" horiz-adv-x="836" 
d="M219 1242q-5 -9 -11 -11.5t-12 -2.5q-5 0 -11 2t-11 4l-90 42q-10 5 -13 10.5t-3 12.5q0 10 5 18l-1 -1q40 85 106.5 134.5t156.5 49.5q55 0 106.5 -18.5t91 -53t64 -82.5t25.5 -108q1 -54 -17.5 -95.5t-53.5 -79.5q-45 -50 -99.5 -105.5t-121.5 -124.5h269q28 0 28 -28
v-109q0 -13 -8 -21.5t-20 -8.5h-504q-12 0 -21.5 8.5t-9.5 21.5v82q0 3 1 6.5t3 8.5l345 366q17 17 23.5 31.5t6.5 32.5q0 21 -8 41t-22.5 35t-34.5 24t-44 9q-35 0 -63 -20t-41 -51z" />
    <glyph glyph-name="threesuperior" unicode="&#xb3;" horiz-adv-x="756" 
d="M310 821q22 0 42.5 7t36 20.5t24.5 33.5t9 45q0 45 -31.5 76t-85.5 31q-12 0 -19.5 5.5t-7.5 19.5v104q0 27 28 27q18 0 31.5 7.5t23 18t14.5 23t5 23.5q0 27 -18 51.5t-55 24.5q-27 0 -44 -13t-29 -28.5t-21 -28.5t-19 -13q-9 0 -19 8l-78 43q-8 5 -12 9.5t-4 12.5
q0 11 8 22q15 31 38 58t52 47t63 31t72 11q44 0 85 -17.5t73 -47.5t51 -71t19 -87q0 -43 -17.5 -78.5t-43.5 -62.5q25 -18 47.5 -38t39 -44.5t26 -55.5t9.5 -71q0 -56 -22 -104.5t-60 -84.5t-89.5 -56.5t-109.5 -20.5q-56 0 -103.5 15.5t-84.5 44t-62 67t-37 85.5
q-3 7 -3 16q0 8 4 15t15 11l92 27q5 2 10.5 3t10.5 1q11 0 14.5 -5t9.5 -21q47 -96 122 -96z" />
    <glyph glyph-name="acute" unicode="&#xb4;" horiz-adv-x="496" 
d="M391 1216q-19 -42 -53 -42h-143q-20 0 -26.5 6.5t-6.5 19.5q1 15 11 38l88 205q12 22 23.5 32t30.5 10h150q13 0 20.5 -4.5t7.5 -16.5q0 -7 -2 -15.5t-9 -22.5z" />
    <glyph glyph-name="mu" unicode="&#xb5;" horiz-adv-x="1168" 
d="M425 -342q0 -26 -14.5 -37t-36.5 -11h-163q-25 0 -37 13.5t-12 34.5v1278q0 47 52 47h149q21 0 41 -8t21 -36v-509q0 -48 24.5 -84.5t61 -61t79.5 -37.5t80 -13q40 0 75 15.5t60.5 42t40.5 62t15 75.5v505q0 25 10.5 37t37.5 12h166q21 0 35 -13t14 -38v-504
q-1 -5 -1 -11v-11q-3 -88 -30 -164.5t-76.5 -133.5t-120.5 -89.5t-162 -32.5q-47 0 -93.5 12t-88 31.5t-74.5 43t-53 46.5v-461z" />
    <glyph glyph-name="paragraph" unicode="&#xb6;" horiz-adv-x="1336" 
d="M1297 1484q28 0 37.5 -9t9.5 -26v-141q0 -16 -11.5 -27t-37.5 -11h-145v-1237q0 -16 -6.5 -24.5t-23.5 -8.5h-160q-31 0 -31 30v1240h-210v-1240q0 -14 -5.5 -22t-22.5 -8h-166q-12 0 -20.5 8.5t-8.5 22.5v641q-94 0 -172 28.5t-134.5 81.5t-88 128.5t-31.5 170.5
q0 88 33 162t90 127.5t133.5 83.5t163.5 30h807z" />
    <glyph glyph-name="periodcentered" unicode="&#xb7;" horiz-adv-x="454" 
d="M110 561q0 34 13 63.5t34.5 51.5t51 34.5t62.5 12.5q35 0 65 -12.5t51.5 -34.5t33.5 -51.5t12 -63.5q0 -33 -12 -62.5t-33.5 -51t-51.5 -34.5t-65 -13q-33 0 -62.5 13t-51 34.5t-34.5 51t-13 62.5z" />
    <glyph glyph-name="cedilla" unicode="&#xb8;" horiz-adv-x="556" 
d="M233 -530h-4q-2 1 -5 1t-5 2q-14 3 -25.5 18.5t-19.5 34t-12.5 37t-4.5 28.5q0 13 4 18l2 3q2 2 4 3.5t4 2.5l10 3q49 13 82.5 25.5t54 25.5t29.5 26.5t9 28.5q0 22 -15.5 40.5t-39 35.5t-50.5 34t-50.5 37t-39 43.5t-15.5 53.5v42h168q0 -25 16.5 -45.5t41.5 -40
t54.5 -39.5t54.5 -43.5t41.5 -52.5t16.5 -66q0 -36 -12.5 -69.5t-45.5 -66t-91.5 -62.5t-151.5 -58h-5z" />
    <glyph glyph-name="onesuperior" unicode="&#xb9;" horiz-adv-x="468" 
d="M44 1403q0 22 28 39l89 40q9 4 16.5 5t22.5 2h101q28 0 28 -26v-766q0 -27 -27 -27h-128q-14 0 -20.5 7t-6.5 18v606l-67 -30q-1 -1 -7 -2t-6 -2q-23 0 -23 28v108z" />
    <glyph glyph-name="ordmasculine" unicode="&#xba;" horiz-adv-x="974" 
d="M118 1115q0 81 30.5 152t83.5 124t124 83.5t152 30.5t152 -30.5t124 -83.5t83.5 -124t30.5 -152q0 -83 -31.5 -154.5t-85 -123.5t-124 -81.5t-149.5 -29.5q-81 0 -152 30.5t-124 83.5t-83.5 123.5t-30.5 151.5zM314 1114q0 -41 15 -76t41.5 -60.5t61.5 -40.5t74 -15
q40 0 75 15t61.5 40.5t41.5 60.5t15 76q0 40 -15 75t-41 61t-61.5 41t-75.5 15q-39 0 -74 -15t-61.5 -41t-41.5 -61t-15 -75z" />
    <glyph glyph-name="guillemotright" unicode="&#xbb;" horiz-adv-x="1382" 
d="M1390 520q-72 -73 -142.5 -144.5t-143.5 -143.5l-213 -213q-11 -11 -24.5 -21t-31.5 -10q-20 0 -34 14l-100 99q-7 8 -12 18.5t-5 22.5q0 9 3 20.5t10 18.5l375 374l-374 376h1q-10 9 -12.5 20t-2.5 18q0 18 15 36l97 99q17 15 39 15q10 0 21.5 -3t17.5 -8l515 -515
q9 -9 12.5 -17t3.5 -19q0 -10 -3.5 -19.5t-11.5 -17.5zM562 232l-214 -213q-10 -11 -23.5 -21t-31.5 -10q-20 0 -34 14l-100 99q-7 8 -12 18.5t-5 22.5q0 8 3.5 20t9.5 19l373 374l-372 376h1q-10 9 -12.5 20t-2.5 18q0 18 15 36l97 99q17 15 39 15q10 0 21.5 -3t17.5 -8
l515 -515q16 -16 16 -36q0 -10 -3.5 -19.5t-11.5 -17.5z" />
    <glyph glyph-name="onequarter" unicode="&#xbc;" horiz-adv-x="1484" 
d="M767 127q-17 0 -25 10.5t-8 23.5q0 17 10 32l371 622q7 11 13 14t18 3h112q10 -1 18.5 -9t8.5 -18v-502h71q12 0 21.5 -6.5t9.5 -20.5v-120q0 -11 -9 -19.5t-22 -8.5h-71v-97q0 -26 -30 -26h-118q-26 0 -26 26v96h-344zM1115 302v218l-126 -218h126zM110 1403q0 22 28 39
l89 40q9 4 16.5 5t22.5 2h101q28 0 28 -26v-766q0 -27 -27 -27h-128q-14 0 -20.5 7t-6.5 18v606l-67 -30q-1 -1 -7 -2t-6 -2q-23 0 -23 28v108zM977 1459q5 8 13.5 16.5t28.5 8.5h161q15 0 22.5 -5t9.5 -12t0 -15.5t-7 -15.5l-760 -1410q-12 -19 -21.5 -22.5t-22.5 -3.5
h-170q-17 1 -21 14.5t4 25.5z" />
    <glyph glyph-name="onehalf" unicode="&#xbd;" horiz-adv-x="1484" 
d="M883 1459q5 8 13.5 16.5t28.5 8.5h161q15 0 22.5 -5t9.5 -12t0 -15.5t-7 -15.5l-760 -1410q-12 -19 -21.5 -22.5t-22.5 -3.5h-170q-17 1 -21 14.5t4 25.5zM113 1403q0 22 28 39l89 40q9 4 16.5 5t22.5 2h101q28 0 28 -26v-766q0 -27 -27 -27h-128q-14 0 -20.5 7t-6.5 18
v606l-67 -30q-1 -1 -7 -2t-6 -2q-23 0 -23 28v108zM936 579q-5 -9 -11 -11.5t-12 -2.5q-5 0 -11 2t-11 4l-90 42q-10 5 -13 10.5t-3 12.5q0 10 5 18l-1 -1q40 85 106.5 134.5t156.5 49.5q55 0 106.5 -18.5t91 -53t64 -82.5t25.5 -108q1 -54 -17.5 -95.5t-53.5 -79.5
q-45 -50 -99.5 -105.5t-121.5 -124.5h269q28 0 28 -28v-109q0 -13 -8 -21.5t-20 -8.5h-504q-12 0 -21.5 8.5t-9.5 21.5v82q0 3 1 6.5t3 8.5l345 366q17 17 23.5 31.5t6.5 32.5q0 21 -8 41t-22.5 35t-34.5 24t-44 9q-35 0 -63 -20t-41 -51z" />
    <glyph glyph-name="threequarters" unicode="&#xbe;" horiz-adv-x="1532" 
d="M1110 1459q5 8 13.5 16.5t28.5 8.5h161q15 0 22.5 -5t9.5 -12t0 -15.5t-7 -15.5l-760 -1410q-12 -19 -21.5 -22.5t-22.5 -3.5h-170q-17 1 -21 14.5t4 25.5zM304 843q22 0 42.5 7t36 20.5t24.5 33.5t9 45q0 45 -31.5 76t-85.5 31q-12 0 -19.5 5.5t-7.5 19.5v104
q0 27 28 27q18 0 31.5 7.5t23 18t14.5 23t5 23.5q0 27 -18 51.5t-55 24.5q-27 0 -44 -13t-29 -28.5t-21 -28.5t-19 -13q-9 0 -19 8l-78 43q-8 5 -12 9.5t-4 12.5q0 11 8 22q15 31 38 58t52 47t63 31t72 11q44 0 85 -17.5t73 -47.5t51 -71t19 -87q0 -43 -17.5 -78.5
t-43.5 -62.5q25 -18 47.5 -38t39 -44.5t26 -55.5t9.5 -71q0 -56 -22 -104.5t-60 -84.5t-89.5 -56.5t-109.5 -20.5q-56 0 -103.5 15.5t-84.5 44t-62 67t-37 85.5q-3 7 -3 16q0 8 4 15t15 11l92 27q5 2 10.5 3t10.5 1q11 0 14.5 -5t9.5 -21q47 -96 122 -96zM865 129
q-17 0 -25 10.5t-8 23.5q0 17 10 32l371 622q7 11 13 14t18 3h112q10 -1 18.5 -9t8.5 -18v-502h71q12 0 21.5 -6.5t9.5 -20.5v-120q0 -11 -9 -19.5t-22 -8.5h-71v-97q0 -26 -30 -26h-118q-26 0 -26 26v96h-344zM1213 304v218l-126 -218h126z" />
    <glyph glyph-name="questiondown" unicode="&#xbf;" horiz-adv-x="1024" 
d="M438 410v130q0 22 14 35.5t32 13.5h190q22 0 34 -15.5t12 -33.5v-169q0 -66 -26.5 -111.5t-66 -81.5t-85.5 -66.5t-85.5 -64.5t-66 -77t-26.5 -103q0 -42 18 -81t48.5 -69t71.5 -48t86 -18t84 18.5t68 49.5t46 71.5t17 83.5v30q0 20 13 32t33 12h193q25 0 34.5 -13.5
t9.5 -27.5v-33q0 -105 -40.5 -192.5t-108.5 -150.5t-158.5 -98t-190.5 -35q-103 0 -195.5 35.5t-162 98.5t-110 151t-40.5 193q0 96 26.5 160.5t66.5 109t86 75t86 58t66.5 57.5t26.5 74zM740 845q0 -34 -13 -63.5t-34.5 -51.5t-51 -34.5t-62.5 -12.5q-35 0 -65 12.5
t-51.5 34.5t-33.5 51.5t-12 63.5q0 33 12 62t33.5 51t51.5 34.5t65 12.5q33 0 62.5 -12.5t51 -34.5t34.5 -51t13 -62z" />
    <glyph glyph-name="Agrave" unicode="&#xc0;" horiz-adv-x="1432" 
d="M595 1447q17 38 50 38h167q17 0 30 -9t21 -29l564 -1404q8 -20 0 -31.5t-28 -11.5h-219q-17 0 -29.5 8t-19.5 28l-97 240h-613l-95 -239q-8 -20 -20.5 -28.5t-29.5 -8.5h-219q-20 0 -28 11t1 32zM515 534h424l-210 567zM515 1930q-7 14 -9 22.5t-2 15.5q0 12 7.5 16.5
t20.5 4.5h150q19 0 30.5 -10t23.5 -32l88 -205q10 -23 11 -38q0 -13 -6.5 -19.5t-26.5 -6.5h-143q-34 0 -53 42z" />
    <glyph glyph-name="Aacute" unicode="&#xc1;" horiz-adv-x="1432" 
d="M595 1447q17 38 50 38h167q17 0 30 -9t21 -29l564 -1404q8 -20 0 -31.5t-28 -11.5h-219q-17 0 -29.5 8t-19.5 28l-97 240h-613l-95 -239q-8 -20 -20.5 -28.5t-29.5 -8.5h-219q-20 0 -28 11t1 32zM515 534h424l-210 567zM874 1721q-19 -42 -53 -42h-143q-20 0 -26.5 6.5
t-6.5 19.5q1 15 11 38l88 205q12 22 23.5 32t30.5 10h150q13 0 20.5 -4.5t7.5 -16.5q0 -7 -2 -15.5t-9 -22.5z" />
    <glyph glyph-name="Acircumflex" unicode="&#xc2;" horiz-adv-x="1432" 
d="M595 1447q17 38 50 38h167q17 0 30 -9t21 -29l564 -1404q8 -20 0 -31.5t-28 -11.5h-219q-17 0 -29.5 8t-19.5 28l-97 240h-613l-95 -239q-8 -20 -20.5 -28.5t-29.5 -8.5h-219q-20 0 -28 11t1 32zM515 534h424l-210 567zM724 2059q11 9 22 9q9 0 21 -10q67 -67 134.5 -134
t134.5 -135q4 -3 7.5 -9.5t3.5 -14.5q0 -10 -11 -21l-56 -55q-10 -10 -22.5 -21t-25.5 -11q-3 0 -10 1.5t-24 18.5l-152 154l-155 -155q-7 -7 -15.5 -12.5t-19.5 -5.5t-22.5 11t-22.5 20l-55 53q-12 12 -11 30q1 5 4 9.5t7 7.5z" />
    <glyph glyph-name="Atilde" unicode="&#xc3;" horiz-adv-x="1432" 
d="M595 1447q17 38 50 38h167q17 0 30 -9t21 -29l564 -1404q8 -20 0 -31.5t-28 -11.5h-219q-17 0 -29.5 8t-19.5 28l-97 240h-613l-95 -239q-8 -20 -20.5 -28.5t-29.5 -8.5h-219q-20 0 -28 11t1 32zM515 534h424l-210 567zM533 1665q-6 -2 -10 -2q-3 0 -7 2q-5 3 -20.5 15
t-32 27t-29.5 30t-13 24q0 4 4 10.5t9 13.5l20 26q39 51 89 76t108 25q34 -2 70 -14.5t68 -33.5l55 -36q27 -18 52 -18q42 0 70 29q5 6 11.5 14.5t13.5 17t14.5 14.5t16.5 6q8 0 19 -8l74 -71q10 -11 10 -23q0 -5 -3.5 -12t-5.5 -9l-28 -35q-39 -45 -87 -68.5t-105 -23.5
q-36 0 -71.5 12.5t-66.5 34.5q-13 9 -26.5 18.5t-28 17.5t-28.5 13.5t-28 5.5q-27 0 -42 -10.5t-26 -24t-21 -26.5t-25 -17z" />
    <glyph glyph-name="Adieresis" unicode="&#xc4;" horiz-adv-x="1432" 
d="M595 1447q17 38 50 38h167q17 0 30 -9t21 -29l564 -1404q8 -20 0 -31.5t-28 -11.5h-219q-17 0 -29.5 8t-19.5 28l-97 240h-613l-95 -239q-8 -20 -20.5 -28.5t-29.5 -8.5h-219q-20 0 -28 11t1 32zM515 534h424l-210 567zM436 1771q0 30 11 55.5t30.5 45t45 30.5t54.5 11
q30 0 56 -11t45 -30.5t30 -45t11 -55.5q0 -29 -11 -54.5t-30 -45t-45 -30.5t-56 -11q-29 0 -54.5 11t-45 30.5t-30.5 45t-11 54.5zM842 1773q0 30 11 56t30 45.5t45 30.5t55 11q30 0 56 -11t45 -30.5t30 -45.5t11 -56q0 -29 -11 -54.5t-30 -44.5t-45 -30t-56 -11
q-29 0 -55 11t-45 30t-30 44.5t-11 54.5z" />
    <glyph glyph-name="Aring" unicode="&#xc5;" horiz-adv-x="1432" 
d="M595 1447q17 38 50 38h167q17 0 30 -9t21 -29l564 -1404q8 -20 0 -31.5t-28 -11.5h-219q-17 0 -29.5 8t-19.5 28l-97 240h-613l-95 -239q-8 -20 -20.5 -28.5t-29.5 -8.5h-219q-20 0 -28 11t1 32zM515 534h424l-210 567zM745 2056q43 0 81.5 -16.5t67.5 -45.5t45.5 -67.5
t16.5 -81.5q0 -44 -16.5 -82t-45.5 -66.5t-67.5 -44.5t-81.5 -16q-44 0 -82 16t-66.5 44.5t-44.5 66.5t-16 82q0 43 16 81.5t44.5 67.5t66.5 45.5t82 16.5zM746 1928q-35 0 -58 -24t-23 -59t23 -58t58 -23t58.5 23t23.5 58t-23.5 59t-58.5 24z" />
    <glyph glyph-name="AE" unicode="&#xc6;" horiz-adv-x="2302" 
d="M370 42q-33 -42 -72 -42h-221q-20 0 -29.5 6t-9.5 22q0 9 5.5 19.5t9.5 16.5l-2 -2v1l44 58l1041 1322q11 14 30 28t45 14h942q55 0 55 -58v-162q0 -19 -14.5 -37t-42.5 -18h-707v-323h566q23 0 38.5 -13t15.5 -40v-147q0 -17 -14 -34t-40 -17h-569v-361h735q55 0 55 -55
v-165q0 -26 -15.5 -40.5t-40.5 -14.5h-978q-53 0 -53 49q0 60 0.5 114.5t1.5 114.5h-592zM757 540h398v506z" />
    <glyph glyph-name="Ccedilla" unicode="&#xc7;" horiz-adv-x="1410" 
d="M1137 346q18 14 34 16t29 -15l101 -171q14 -17 11 -30.5t-22 -27.5q-86 -64 -192 -101.5t-242 -37.5q-106 0 -204 27.5t-183.5 77t-155.5 119.5t-120 155t-77.5 183t-27.5 204t27.5 203.5t77.5 182t120 154t155.5 118.5t183.5 76t204 27q136 0 242.5 -37t193.5 -101
q16 -13 16.5 -27.5t-4.5 -22.5l-106 -179q-8 -12 -23 -12.5t-33 10.5q-35 22 -69 39t-68.5 29t-71 18t-77.5 6q-101 0 -187.5 -37.5t-149.5 -103t-99 -153.5t-36 -190q0 -101 36 -190.5t99 -156.5t149.5 -106t187.5 -39q82 0 154.5 26.5t126.5 66.5zM840 -530h-4q-2 1 -5 1
t-5 2q-14 3 -25.5 18.5t-19.5 34t-12.5 37t-4.5 28.5q0 13 4 18l2 3q2 2 4 3.5t4 2.5l10 3q49 13 82.5 25.5t54 25.5t29.5 26.5t9 28.5q0 22 -15.5 40.5t-39 35.5t-50.5 34t-50.5 37t-39 43.5t-15.5 53.5v42h168q0 -25 16.5 -45.5t41.5 -40t54.5 -39.5t54.5 -43.5
t41.5 -52.5t16.5 -66q0 -36 -12.5 -69.5t-45.5 -66t-91.5 -62.5t-151.5 -58h-5z" />
    <glyph glyph-name="Egrave" unicode="&#xc8;" horiz-adv-x="1284" 
d="M162 1445q0 39 39 39h977q41 0 41 -39v-194q0 -40 -41 -40h-724v-303h552q20 0 32.5 -9.5t12.5 -30.5v-190q0 -20 -12 -29.5t-33 -9.5h-552v-367h743q20 0 31 -10t11 -30v-192q0 -20 -11 -30t-31 -10h-996q-39 0 -39 40v1405zM534 1930q-7 14 -9 22.5t-2 15.5
q0 12 7.5 16.5t20.5 4.5h150q19 0 30.5 -10t23.5 -32l88 -205q10 -23 11 -38q0 -13 -6.5 -19.5t-26.5 -6.5h-143q-34 0 -53 42z" />
    <glyph glyph-name="Eacute" unicode="&#xc9;" horiz-adv-x="1284" 
d="M162 1445q0 39 39 39h977q41 0 41 -39v-194q0 -40 -41 -40h-724v-303h552q20 0 32.5 -9.5t12.5 -30.5v-190q0 -20 -12 -29.5t-33 -9.5h-552v-367h743q20 0 31 -10t11 -30v-192q0 -20 -11 -30t-31 -10h-996q-39 0 -39 40v1405zM833 1720q-19 -42 -53 -42h-143
q-20 0 -26.5 6.5t-6.5 19.5q1 15 11 38l88 205q12 22 23.5 32t30.5 10h150q13 0 20.5 -4.5t7.5 -16.5q0 -7 -2 -15.5t-9 -22.5z" />
    <glyph glyph-name="Ecircumflex" unicode="&#xca;" horiz-adv-x="1284" 
d="M162 1445q0 39 39 39h977q41 0 41 -39v-194q0 -40 -41 -40h-724v-303h552q20 0 32.5 -9.5t12.5 -30.5v-190q0 -20 -12 -29.5t-33 -9.5h-552v-367h743q20 0 31 -10t11 -30v-192q0 -20 -11 -30t-31 -10h-996q-39 0 -39 40v1405zM673 2059q11 9 22 9q9 0 21 -10
q67 -67 134.5 -134t134.5 -135q4 -3 7.5 -9.5t3.5 -14.5q0 -10 -11 -21l-56 -55q-10 -10 -22.5 -21t-25.5 -11q-3 0 -10 1.5t-24 18.5l-152 154l-155 -155q-7 -7 -15.5 -12.5t-19.5 -5.5t-22.5 11t-22.5 20l-55 53q-12 12 -11 30q1 5 4 9.5t7 7.5z" />
    <glyph glyph-name="Edieresis" unicode="&#xcb;" horiz-adv-x="1284" 
d="M162 1445q0 39 39 39h977q41 0 41 -39v-194q0 -40 -41 -40h-724v-303h552q20 0 32.5 -9.5t12.5 -30.5v-190q0 -20 -12 -29.5t-33 -9.5h-552v-367h743q20 0 31 -10t11 -30v-192q0 -20 -11 -30t-31 -10h-996q-39 0 -39 40v1405zM377 1760q0 30 11 55.5t30.5 45t45 30.5
t54.5 11q30 0 56 -11t45 -30.5t30 -45t11 -55.5q0 -29 -11 -54.5t-30 -45t-45 -30.5t-56 -11q-29 0 -54.5 11t-45 30.5t-30.5 45t-11 54.5zM783 1762q0 30 11 56t30 45.5t45 30.5t55 11q30 0 56 -11t45 -30.5t30 -45.5t11 -56q0 -29 -11 -54.5t-30 -44.5t-45 -30t-56 -11
q-29 0 -55 11t-45 30t-30 44.5t-11 54.5z" />
    <glyph glyph-name="Igrave" unicode="&#xcc;" horiz-adv-x="618" 
d="M162 1443q0 41 40 41h216q39 0 39 -41v-1402q0 -41 -39 -41h-216q-40 0 -40 41v1402zM117 1930q-7 14 -9 22.5t-2 15.5q0 12 7.5 16.5t20.5 4.5h150q19 0 30.5 -10t23.5 -32l88 -205q10 -23 11 -38q0 -13 -6.5 -19.5t-26.5 -6.5h-143q-34 0 -53 42z" />
    <glyph glyph-name="Iacute" unicode="&#xcd;" horiz-adv-x="618" 
d="M162 1443q0 41 40 41h216q39 0 39 -41v-1402q0 -41 -39 -41h-216q-40 0 -40 41v1402zM435 1720q-19 -42 -53 -42h-143q-20 0 -26.5 6.5t-6.5 19.5q1 15 11 38l88 205q12 22 23.5 32t30.5 10h150q13 0 20.5 -4.5t7.5 -16.5q0 -7 -2 -15.5t-9 -22.5z" />
    <glyph glyph-name="Icircumflex" unicode="&#xce;" horiz-adv-x="618" 
d="M162 1443q0 41 40 41h216q39 0 39 -41v-1402q0 -41 -39 -41h-216q-40 0 -40 41v1402zM292 2059q11 9 22 9q9 0 21 -10q67 -67 134.5 -134t134.5 -135q4 -3 7.5 -9.5t3.5 -14.5q0 -10 -11 -21l-56 -55q-10 -10 -22.5 -21t-25.5 -11q-3 0 -10 1.5t-24 18.5l-152 154
l-155 -155q-7 -7 -15.5 -12.5t-19.5 -5.5t-22.5 11t-22.5 20l-55 53q-12 12 -11 30q1 5 4 9.5t7 7.5z" />
    <glyph glyph-name="Idieresis" unicode="&#xcf;" horiz-adv-x="615" 
d="M162 1443q0 41 40 41h216q39 0 39 -41v-1402q0 -41 -39 -41h-216q-40 0 -40 41v1402zM-35 1770q0 30 11 55.5t30.5 45t45 30.5t54.5 11q30 0 56 -11t45 -30.5t30 -45t11 -55.5q0 -29 -11 -54.5t-30 -45t-45 -30.5t-56 -11q-29 0 -54.5 11t-45 30.5t-30.5 45t-11 54.5z
M371 1772q0 30 11 56t30 45.5t45 30.5t55 11q30 0 56 -11t45 -30.5t30 -45.5t11 -56q0 -29 -11 -54.5t-30 -44.5t-45 -30t-56 -11q-29 0 -55 11t-45 30t-30 44.5t-11 54.5z" />
    <glyph glyph-name="Eth" unicode="&#xd0;" horiz-adv-x="1480" 
d="M155 1428q0 27 14 42t42 15h473q159 0 297 -57.5t240 -158t160.5 -236t58.5 -292.5q0 -104 -27 -199.5t-76 -178t-118 -149.5t-153 -114.5t-180.5 -73.5t-201.5 -26h-473q-23 0 -39.5 10t-16.5 42v561h-89q-44 0 -44 47v148q0 19 11 30t33 11h89v579zM545 290q73 0 148 3
q95 3 176 39.5t140.5 97.5t93 142.5t33.5 174.5q0 94 -33.5 173.5t-91 137.5t-135.5 92.5t-166 40.5q-44 3 -89 3h-161v-904h85z" />
    <glyph glyph-name="Ntilde" unicode="&#xd1;" horiz-adv-x="1586" 
d="M162 1441q0 18 11 31t33 13h235q15 0 32.5 -8t25.5 -23l657 -946v946q7 18 20 24.5t24 6.5h202q15 0 32 -12t17 -32v-1397q0 -44 -49 -44h-197q-25 0 -35.5 9.5t-22.5 23.5l-695 1000v-989q3 -44 -44 -44h-202q-44 0 -44 44v1397zM582 1665q-6 -2 -10 -2q-3 0 -7 2
q-5 3 -20.5 15t-32 27t-29.5 30t-13 24q0 4 4 10.5t9 13.5l20 26q39 51 89 76t108 25q34 -2 70 -14.5t68 -33.5l55 -36q27 -18 52 -18q42 0 70 29q5 6 11.5 14.5t13.5 17t14.5 14.5t16.5 6q8 0 19 -8l74 -71q10 -11 10 -23q0 -5 -3.5 -12t-5.5 -9l-28 -35q-39 -45 -87 -68.5
t-105 -23.5q-36 0 -71.5 12.5t-66.5 34.5q-13 9 -26.5 18.5t-28 17.5t-28.5 13.5t-28 5.5q-27 0 -42 -10.5t-26 -24t-21 -26.5t-25 -17z" />
    <glyph glyph-name="Ograve" unicode="&#xd2;" horiz-adv-x="1706" 
d="M1614 743q0 -106 -27.5 -203.5t-77 -182t-119.5 -154t-155 -119.5t-183 -77t-203 -27q-106 0 -203.5 27t-182 77t-153.5 119.5t-118.5 154t-76.5 182.5t-27 203q0 106 27 203.5t76.5 182.5t118.5 154.5t153.5 119t182 76.5t203.5 27q105 0 203 -27t183 -76.5t155 -119
t119.5 -154.5t77 -182.5t27.5 -203.5zM1321 743q0 101 -36 189t-99 153.5t-149.5 103t-187.5 37.5t-187 -37.5t-148.5 -103t-98 -153.5t-35.5 -189t35.5 -189t98 -153.5t148.5 -103t187 -37.5t187.5 37.5t149.5 103t99 153.5t36 189zM657 1930q-7 14 -9 22.5t-2 15.5
q0 12 7.5 16.5t20.5 4.5h150q19 0 30.5 -10t23.5 -32l88 -205q10 -23 11 -38q0 -13 -6.5 -19.5t-26.5 -6.5h-143q-34 0 -53 42z" />
    <glyph glyph-name="Oacute" unicode="&#xd3;" horiz-adv-x="1706" 
d="M1614 743q0 -106 -27.5 -203.5t-77 -182t-119.5 -154t-155 -119.5t-183 -77t-203 -27q-106 0 -203.5 27t-182 77t-153.5 119.5t-118.5 154t-76.5 182.5t-27 203q0 106 27 203.5t76.5 182.5t118.5 154.5t153.5 119t182 76.5t203.5 27q105 0 203 -27t183 -76.5t155 -119
t119.5 -154.5t77 -182.5t27.5 -203.5zM1321 743q0 101 -36 189t-99 153.5t-149.5 103t-187.5 37.5t-187 -37.5t-148.5 -103t-98 -153.5t-35.5 -189t35.5 -189t98 -153.5t148.5 -103t187 -37.5t187.5 37.5t149.5 103t99 153.5t36 189zM967 1720q-19 -42 -53 -42h-143
q-20 0 -26.5 6.5t-6.5 19.5q1 15 11 38l88 205q12 22 23.5 32t30.5 10h150q13 0 20.5 -4.5t7.5 -16.5q0 -7 -2 -15.5t-9 -22.5z" />
    <glyph glyph-name="Ocircumflex" unicode="&#xd4;" horiz-adv-x="1706" 
d="M1614 743q0 -106 -27.5 -203.5t-77 -182t-119.5 -154t-155 -119.5t-183 -77t-203 -27q-106 0 -203.5 27t-182 77t-153.5 119.5t-118.5 154t-76.5 182.5t-27 203q0 106 27 203.5t76.5 182.5t118.5 154.5t153.5 119t182 76.5t203.5 27q105 0 203 -27t183 -76.5t155 -119
t119.5 -154.5t77 -182.5t27.5 -203.5zM1321 743q0 101 -36 189t-99 153.5t-149.5 103t-187.5 37.5t-187 -37.5t-148.5 -103t-98 -153.5t-35.5 -189t35.5 -189t98 -153.5t148.5 -103t187 -37.5t187.5 37.5t149.5 103t99 153.5t36 189zM834 2059q11 9 22 9q9 0 21 -10
q67 -67 134.5 -134t134.5 -135q4 -3 7.5 -9.5t3.5 -14.5q0 -10 -11 -21l-56 -55q-10 -10 -22.5 -21t-25.5 -11q-3 0 -10 1.5t-24 18.5l-152 154l-155 -155q-7 -7 -15.5 -12.5t-19.5 -5.5t-22.5 11t-22.5 20l-55 53q-12 12 -11 30q1 5 4 9.5t7 7.5z" />
    <glyph glyph-name="Otilde" unicode="&#xd5;" horiz-adv-x="1706" 
d="M1614 743q0 -106 -27.5 -203.5t-77 -182t-119.5 -154t-155 -119.5t-183 -77t-203 -27q-106 0 -203.5 27t-182 77t-153.5 119.5t-118.5 154t-76.5 182.5t-27 203q0 106 27 203.5t76.5 182.5t118.5 154.5t153.5 119t182 76.5t203.5 27q105 0 203 -27t183 -76.5t155 -119
t119.5 -154.5t77 -182.5t27.5 -203.5zM1321 743q0 101 -36 189t-99 153.5t-149.5 103t-187.5 37.5t-187 -37.5t-148.5 -103t-98 -153.5t-35.5 -189t35.5 -189t98 -153.5t148.5 -103t187 -37.5t187.5 37.5t149.5 103t99 153.5t36 189zM642 1665q-6 -2 -10 -2q-3 0 -7 2
q-5 3 -20.5 15t-32 27t-29.5 30t-13 24q0 4 4 10.5t9 13.5l20 26q39 51 89 76t108 25q34 -2 70 -14.5t68 -33.5l55 -36q27 -18 52 -18q42 0 70 29q5 6 11.5 14.5t13.5 17t14.5 14.5t16.5 6q8 0 19 -8l74 -71q10 -11 10 -23q0 -5 -3.5 -12t-5.5 -9l-28 -35q-39 -45 -87 -68.5
t-105 -23.5q-36 0 -71.5 12.5t-66.5 34.5q-13 9 -26.5 18.5t-28 17.5t-28.5 13.5t-28 5.5q-27 0 -42 -10.5t-26 -24t-21 -26.5t-25 -17z" />
    <glyph glyph-name="Odieresis" unicode="&#xd6;" horiz-adv-x="1706" 
d="M1614 743q0 -106 -27.5 -203.5t-77 -182t-119.5 -154t-155 -119.5t-183 -77t-203 -27q-106 0 -203.5 27t-182 77t-153.5 119.5t-118.5 154t-76.5 182.5t-27 203q0 106 27 203.5t76.5 182.5t118.5 154.5t153.5 119t182 76.5t203.5 27q105 0 203 -27t183 -76.5t155 -119
t119.5 -154.5t77 -182.5t27.5 -203.5zM1321 743q0 101 -36 189t-99 153.5t-149.5 103t-187.5 37.5t-187 -37.5t-148.5 -103t-98 -153.5t-35.5 -189t35.5 -189t98 -153.5t148.5 -103t187 -37.5t187.5 37.5t149.5 103t99 153.5t36 189zM485 1751q0 30 11 55.5t30.5 45t45 30.5
t54.5 11q30 0 56 -11t45 -30.5t30 -45t11 -55.5q0 -29 -11 -54.5t-30 -45t-45 -30.5t-56 -11q-29 0 -54.5 11t-45 30.5t-30.5 45t-11 54.5zM891 1753q0 30 11 56t30 45.5t45 30.5t55 11q30 0 56 -11t45 -30.5t30 -45.5t11 -56q0 -29 -11 -54.5t-30 -44.5t-45 -30t-56 -11
q-29 0 -55 11t-45 30t-30 44.5t-11 54.5z" />
    <glyph glyph-name="multiply" unicode="&#xd7;" horiz-adv-x="892" 
d="M680 626l144 -144q16 -16 16 -39t-17 -40l-105 -105q-17 -17 -44 -17q-20 0 -34 14l-146 145q-71 -69 -140 -140q-7 -8 -17 -13t-20 -5q-22 0 -41 19l-98 98q-19 19 -19 41t17 39l140 139l-143 143q-17 17 -17 39q0 10 6 20t14 18l105 108q19 19 39 19q21 0 38 -18v1
l142 -143l141 140q8 8 17.5 11.5t20.5 3.5q25 0 41 -16l99 -101q16 -16 16 -39t-15 -38z" />
    <glyph glyph-name="Oslash" unicode="&#xd8;" horiz-adv-x="1702" 
d="M88 743q0 106 27.5 203.5t77 182.5t119.5 154.5t155 119t182.5 76.5t203.5 27q43 0 85 -5t83 -14l53 120q17 42 57 42h236q20 0 29.5 -12t-1.5 -35l-103 -235q73 -52 132.5 -120t101.5 -147.5t65 -169.5t23 -187q0 -105 -27 -203t-76.5 -182.5t-118.5 -154t-153.5 -119.5
t-182 -77t-203.5 -27q-79 0 -158 17l-59 -132q-9 -22 -24 -31t-34 -9h-238q-21 0 -29 11.5t2 34.5l110 242q-76 51 -138 119t-105.5 148.5t-67.5 172t-24 190.5zM381 743q0 -101 36 -189t99 -153.5t149.5 -103t187.5 -37.5t187 37.5t148.5 103t98 153.5t35.5 189t-35.5 189
t-98 153.5t-148.5 103t-187 37.5t-187.5 -37.5t-149.5 -103t-99 -153.5t-36 -189z" />
    <glyph glyph-name="Ugrave" unicode="&#xd9;" horiz-adv-x="1504" 
d="M435 587q0 -70 23 -132t65 -108.5t100.5 -73.5t128.5 -27t128 27t100 73.5t65 108.5t23 132v854q0 18 13.5 31t33.5 13h198q18 0 34 -12t16 -32v-854q0 -126 -48 -237t-131.5 -194.5t-194.5 -131.5t-237 -48q-84 0 -162 22t-146 62t-124 95.5t-96 123.5t-62 146t-22 162
v854q0 15 12 29.5t30 14.5h207q14 0 30 -13t16 -31v-854zM557 1930q-7 14 -9 22.5t-2 15.5q0 12 7.5 16.5t20.5 4.5h150q19 0 30.5 -10t23.5 -32l88 -205q10 -23 11 -38q0 -13 -6.5 -19.5t-26.5 -6.5h-143q-34 0 -53 42z" />
    <glyph glyph-name="Uacute" unicode="&#xda;" horiz-adv-x="1504" 
d="M435 587q0 -70 23 -132t65 -108.5t100.5 -73.5t128.5 -27t128 27t100 73.5t65 108.5t23 132v854q0 18 13.5 31t33.5 13h198q18 0 34 -12t16 -32v-854q0 -126 -48 -237t-131.5 -194.5t-194.5 -131.5t-237 -48q-84 0 -162 22t-146 62t-124 95.5t-96 123.5t-62 146t-22 162
v854q0 15 12 29.5t30 14.5h207q14 0 30 -13t16 -31v-854zM884 1720q-19 -42 -53 -42h-143q-20 0 -26.5 6.5t-6.5 19.5q1 15 11 38l88 205q12 22 23.5 32t30.5 10h150q13 0 20.5 -4.5t7.5 -16.5q0 -7 -2 -15.5t-9 -22.5z" />
    <glyph glyph-name="Ucircumflex" unicode="&#xdb;" horiz-adv-x="1504" 
d="M435 587q0 -70 23 -132t65 -108.5t100.5 -73.5t128.5 -27t128 27t100 73.5t65 108.5t23 132v854q0 18 13.5 31t33.5 13h198q18 0 34 -12t16 -32v-854q0 -126 -48 -237t-131.5 -194.5t-194.5 -131.5t-237 -48q-84 0 -162 22t-146 62t-124 95.5t-96 123.5t-62 146t-22 162
v854q0 15 12 29.5t30 14.5h207q14 0 30 -13t16 -31v-854zM724 2059q11 9 22 9q9 0 21 -10q67 -67 134.5 -134t134.5 -135q4 -3 7.5 -9.5t3.5 -14.5q0 -10 -11 -21l-56 -55q-10 -10 -22.5 -21t-25.5 -11q-3 0 -10 1.5t-24 18.5l-152 154l-155 -155q-7 -7 -15.5 -12.5
t-19.5 -5.5t-22.5 11t-22.5 20l-55 53q-12 12 -11 30q1 5 4 9.5t7 7.5z" />
    <glyph glyph-name="Udieresis" unicode="&#xdc;" horiz-adv-x="1504" 
d="M435 587q0 -70 23 -132t65 -108.5t100.5 -73.5t128.5 -27t128 27t100 73.5t65 108.5t23 132v854q0 18 13.5 31t33.5 13h198q18 0 34 -12t16 -32v-854q0 -126 -48 -237t-131.5 -194.5t-194.5 -131.5t-237 -48q-84 0 -162 22t-146 62t-124 95.5t-96 123.5t-62 146t-22 162
v854q0 15 12 29.5t30 14.5h207q14 0 30 -13t16 -31v-854zM434 1751q0 30 11 55.5t30.5 45t45 30.5t54.5 11q30 0 56 -11t45 -30.5t30 -45t11 -55.5q0 -29 -11 -54.5t-30 -45t-45 -30.5t-56 -11q-29 0 -54.5 11t-45 30.5t-30.5 45t-11 54.5zM840 1753q0 30 11 56t30 45.5
t45 30.5t55 11q30 0 56 -11t45 -30.5t30 -45.5t11 -56q0 -29 -11 -54.5t-30 -44.5t-45 -30t-56 -11q-29 0 -55 11t-45 30t-30 44.5t-11 54.5z" />
    <glyph glyph-name="Yacute" unicode="&#xdd;" horiz-adv-x="1318" 
d="M568 625l-477 816q-11 20 -2.5 32t28.5 12h245q17 0 28.5 -8t21.5 -28l302 -583l301 582q11 20 22 28t27 8h249q19 0 27.5 -11.5t-1.5 -32.5l-479 -814v-584q0 -42 -38 -42h-215q-39 0 -39 42v583zM789 1720q-19 -42 -53 -42h-143q-20 0 -26.5 6.5t-6.5 19.5q1 15 11 38
l88 205q12 22 23.5 32t30.5 10h150q13 0 20.5 -4.5t7.5 -16.5q0 -7 -2 -15.5t-9 -22.5z" />
    <glyph glyph-name="Thorn" unicode="&#xde;" horiz-adv-x="1254" 
d="M162 1446q0 20 11 29.5t28 9.5h213q39 0 39 -39v-229h318q100 0 185 -38.5t146.5 -103.5t96 -150t34.5 -178q0 -92 -33.5 -177.5t-94.5 -151.5t-145 -105.5t-184 -39.5h-323v-232q0 -41 -40 -41h-212q-39 0 -39 41v1405zM453 963v-438h257q51 0 92.5 17.5t71 47.5
t45.5 71t16 88q0 46 -16.5 85t-46 67.5t-71 45t-91.5 16.5h-257z" />
    <glyph glyph-name="germandbls" unicode="&#xdf;" horiz-adv-x="1152" 
d="M569 -13q-20 0 -31.5 9.5t-11.5 36.5v149q0 10 2 20.5t8.5 19t18 13.5t30.5 5q60 0 102 16.5t68.5 46t38.5 71t12 91.5q0 51 -17 92t-47.5 70.5t-74 45.5t-96.5 16q-18 0 -31.5 10t-13.5 30v159q0 20 11.5 31.5t37.5 11.5q48 0 75 15.5t40.5 39t16.5 50t3 47.5
q0 30 -8 59.5t-25 52t-45.5 36.5t-70.5 14q-45 0 -73 -20.5t-44 -53.5t-21.5 -75t-5.5 -85v-1347q0 -46 -38 -46h-207q-16 0 -24.5 3.5t-12.5 10.5t-4.5 15.5t-0.5 19.5v1372q0 232 113.5 344.5t328.5 112.5q93 0 170 -30t132 -81.5t85 -120t30 -145.5q0 -46 -5 -86
t-17 -74.5t-33 -64t-53 -54.5q58 -32 100.5 -76.5t70 -97t41 -112t13.5 -120.5q0 -99 -35.5 -181t-104 -141.5t-168.5 -92t-229 -32.5z" />
    <glyph glyph-name="agrave" unicode="&#xe0;" horiz-adv-x="1188" 
d="M838 55q-2 19 -5 32.5t-6 32.5q-18 -27 -40 -52t-52 -44.5t-70.5 -31t-95.5 -11.5h-5q-107 0 -195.5 39t-153 107t-100 161t-35.5 200q0 109 35.5 202t99 161t152.5 107t197 39q54 0 94 -11t71.5 -30.5t56.5 -45.5t49 -55l20 76q4 16 7.5 27t9.5 17t15 8.5t23 2.5l113 -4
q23 0 40 -14.5t17 -39.5v-878q0 -24 -17 -37t-40 -13h-129q-30 0 -40.5 15t-15.5 40zM341 486q0 -55 17 -103t48.5 -83.5t76 -56t98.5 -20.5q55 0 100 20t76.5 55t48.5 83t17 104q0 54 -16.5 102.5t-48 85t-76 58t-101.5 21.5q-55 0 -99.5 -21t-75.5 -57.5t-48 -85
t-17 -102.5zM408 1426q-7 14 -9 22.5t-2 15.5q0 12 7.5 16.5t20.5 4.5h150q19 0 30.5 -10t23.5 -32l88 -205q10 -23 11 -38q0 -13 -6.5 -19.5t-26.5 -6.5h-143q-34 0 -53 42z" />
    <glyph glyph-name="aacute" unicode="&#xe1;" horiz-adv-x="1188" 
d="M838 55q-2 19 -5 32.5t-6 32.5q-18 -27 -40 -52t-52 -44.5t-70.5 -31t-95.5 -11.5h-5q-107 0 -195.5 39t-153 107t-100 161t-35.5 200q0 109 35.5 202t99 161t152.5 107t197 39q54 0 94 -11t71.5 -30.5t56.5 -45.5t49 -55l20 76q4 16 7.5 27t9.5 17t15 8.5t23 2.5l113 -4
q23 0 40 -14.5t17 -39.5v-878q0 -24 -17 -37t-40 -13h-129q-30 0 -40.5 15t-15.5 40zM341 486q0 -55 17 -103t48.5 -83.5t76 -56t98.5 -20.5q55 0 100 20t76.5 55t48.5 83t17 104q0 54 -16.5 102.5t-48 85t-76 58t-101.5 21.5q-55 0 -99.5 -21t-75.5 -57.5t-48 -85
t-17 -102.5zM698 1216q-19 -42 -53 -42h-143q-20 0 -26.5 6.5t-6.5 19.5q1 15 11 38l88 205q12 22 23.5 32t30.5 10h150q13 0 20.5 -4.5t7.5 -16.5q0 -7 -2 -15.5t-9 -22.5z" />
    <glyph glyph-name="acircumflex" unicode="&#xe2;" horiz-adv-x="1188" 
d="M838 55q-2 19 -5 32.5t-6 32.5q-18 -27 -40 -52t-52 -44.5t-70.5 -31t-95.5 -11.5h-5q-107 0 -195.5 39t-153 107t-100 161t-35.5 200q0 109 35.5 202t99 161t152.5 107t197 39q54 0 94 -11t71.5 -30.5t56.5 -45.5t49 -55l20 76q4 16 7.5 27t9.5 17t15 8.5t23 2.5l113 -4
q23 0 40 -14.5t17 -39.5v-878q0 -24 -17 -37t-40 -13h-129q-30 0 -40.5 15t-15.5 40zM341 486q0 -55 17 -103t48.5 -83.5t76 -56t98.5 -20.5q55 0 100 20t76.5 55t48.5 83t17 104q0 54 -16.5 102.5t-48 85t-76 58t-101.5 21.5q-55 0 -99.5 -21t-75.5 -57.5t-48 -85
t-17 -102.5zM544 1555q11 9 22 9q9 0 21 -10q67 -67 134.5 -134t134.5 -135q4 -3 7.5 -9.5t3.5 -14.5q0 -10 -11 -21l-56 -55q-10 -10 -22.5 -21t-25.5 -11q-3 0 -10 1.5t-24 18.5l-152 154l-155 -155q-7 -7 -15.5 -12.5t-19.5 -5.5t-22.5 11t-22.5 20l-55 53q-12 12 -11 30
q1 5 4 9.5t7 7.5z" />
    <glyph glyph-name="atilde" unicode="&#xe3;" horiz-adv-x="1188" 
d="M838 55q-2 19 -5 32.5t-6 32.5q-18 -27 -40 -52t-52 -44.5t-70.5 -31t-95.5 -11.5h-5q-107 0 -195.5 39t-153 107t-100 161t-35.5 200q0 109 35.5 202t99 161t152.5 107t197 39q54 0 94 -11t71.5 -30.5t56.5 -45.5t49 -55l20 76q4 16 7.5 27t9.5 17t15 8.5t23 2.5l113 -4
q23 0 40 -14.5t17 -39.5v-878q0 -24 -17 -37t-40 -13h-129q-30 0 -40.5 15t-15.5 40zM341 486q0 -55 17 -103t48.5 -83.5t76 -56t98.5 -20.5q55 0 100 20t76.5 55t48.5 83t17 104q0 54 -16.5 102.5t-48 85t-76 58t-101.5 21.5q-55 0 -99.5 -21t-75.5 -57.5t-48 -85
t-17 -102.5zM353 1138q-6 -2 -10 -2q-3 0 -7 2q-5 3 -20.5 15t-32 27t-29.5 30t-13 24q0 4 4 10.5t9 13.5l20 26q39 51 89 76t108 25q34 -2 70 -14.5t68 -33.5l55 -36q27 -18 52 -18q42 0 70 29q5 6 11.5 14.5t13.5 17t14.5 14.5t16.5 6q8 0 19 -8l74 -71q10 -11 10 -23
q0 -5 -3.5 -12t-5.5 -9l-28 -35q-39 -45 -87 -68.5t-105 -23.5q-36 0 -71.5 12.5t-66.5 34.5q-13 9 -26.5 18.5t-28 17.5t-28.5 13.5t-28 5.5q-27 0 -42 -10.5t-26 -24t-21 -26.5t-25 -17z" />
    <glyph glyph-name="adieresis" unicode="&#xe4;" horiz-adv-x="1188" 
d="M838 55q-2 19 -5 32.5t-6 32.5q-18 -27 -40 -52t-52 -44.5t-70.5 -31t-95.5 -11.5h-5q-107 0 -195.5 39t-153 107t-100 161t-35.5 200q0 109 35.5 202t99 161t152.5 107t197 39q54 0 94 -11t71.5 -30.5t56.5 -45.5t49 -55l20 76q4 16 7.5 27t9.5 17t15 8.5t23 2.5l113 -4
q23 0 40 -14.5t17 -39.5v-878q0 -24 -17 -37t-40 -13h-129q-30 0 -40.5 15t-15.5 40zM341 486q0 -55 17 -103t48.5 -83.5t76 -56t98.5 -20.5q55 0 100 20t76.5 55t48.5 83t17 104q0 54 -16.5 102.5t-48 85t-76 58t-101.5 21.5q-55 0 -99.5 -21t-75.5 -57.5t-48 -85
t-17 -102.5zM245 1267q0 30 11 55.5t30.5 45t45 30.5t54.5 11q30 0 56 -11t45 -30.5t30 -45t11 -55.5q0 -29 -11 -54.5t-30 -45t-45 -30.5t-56 -11q-29 0 -54.5 11t-45 30.5t-30.5 45t-11 54.5zM651 1269q0 30 11 56t30 45.5t45 30.5t55 11q30 0 56 -11t45 -30.5t30 -45.5
t11 -56q0 -29 -11 -54.5t-30 -44.5t-45 -30t-56 -11q-29 0 -55 11t-45 30t-30 44.5t-11 54.5z" />
    <glyph glyph-name="aring" unicode="&#xe5;" horiz-adv-x="1188" 
d="M838 55q-2 19 -5 32.5t-6 32.5q-18 -27 -40 -52t-52 -44.5t-70.5 -31t-95.5 -11.5h-5q-107 0 -195.5 39t-153 107t-100 161t-35.5 200q0 109 35.5 202t99 161t152.5 107t197 39q54 0 94 -11t71.5 -30.5t56.5 -45.5t49 -55l20 76q4 16 7.5 27t9.5 17t15 8.5t23 2.5l113 -4
q23 0 40 -14.5t17 -39.5v-878q0 -24 -17 -37t-40 -13h-129q-30 0 -40.5 15t-15.5 40zM341 486q0 -55 17 -103t48.5 -83.5t76 -56t98.5 -20.5q55 0 100 20t76.5 55t48.5 83t17 104q0 54 -16.5 102.5t-48 85t-76 58t-101.5 21.5q-55 0 -99.5 -21t-75.5 -57.5t-48 -85
t-17 -102.5zM566 1614q43 0 81.5 -16.5t67.5 -45.5t45.5 -67.5t16.5 -81.5q0 -44 -16.5 -82t-45.5 -66.5t-67.5 -44.5t-81.5 -16q-44 0 -82 16t-66.5 44.5t-44.5 66.5t-16 82q0 43 16 81.5t44.5 67.5t66.5 45.5t82 16.5zM567 1486q-35 0 -58 -24t-23 -59t23 -58t58 -23
t58.5 23t23.5 58t-23.5 59t-58.5 24z" />
    <glyph glyph-name="ae" unicode="&#xe6;" horiz-adv-x="1934" 
d="M837 55q-2 19 -5 32.5t-6 32.5q-18 -27 -40 -52t-52 -44.5t-70.5 -31t-95.5 -11.5h-5q-107 0 -195.5 39t-153 107t-100 161t-35.5 200q0 109 35.5 202t99 161t152.5 107t197 39q54 0 94 -11t71.5 -30.5t56.5 -45.5t49 -55l20 76q4 16 7.5 27t9.5 17t15 8.5t23 2.5l113 -4
q23 0 40 -14.5t17 -39.5v-878q0 -24 -17 -37t-40 -13h-129q-30 0 -40.5 15t-15.5 40zM340 486q0 -55 17 -103t48.5 -83.5t76 -56t98.5 -20.5q55 0 100 20t76.5 55t48.5 83t17 104q0 54 -16.5 102.5t-48 85t-76 58t-101.5 21.5q-55 0 -99.5 -21t-75.5 -57.5t-48 -85
t-17 -102.5zM1364 214q43 -1 86 12.5t82 35.5q16 8 30 18.5t25 10.5q16 0 31 -18l74 -118q9 -15 9 -26q0 -15 -10 -26.5t-22 -21.5q-63 -49 -138.5 -77t-160.5 -28q-105 0 -197.5 40t-162.5 109.5t-110.5 163t-40.5 200.5q0 103 40 196.5t108 163.5t158.5 111.5t192.5 41.5
q96 0 182 -36t150 -98t101.5 -145t37.5 -177q0 -77 -13.5 -112.5t-56.5 -35.5h-622q4 -43 26.5 -77t54.5 -58t70.5 -36.5t75.5 -12.5zM1568 590q-2 38 -19 71.5t-46 59t-67.5 40t-83.5 14.5q-37 0 -73.5 -14.5t-66 -39.5t-49.5 -58.5t-25 -72.5h430z" />
    <glyph glyph-name="ccedilla" unicode="&#xe7;" horiz-adv-x="1022" 
d="M585 228q59 1 103 17.5t92 39.5q9 5 15.5 7.5t12.5 2.5q14 0 30 -23l86 -124q4 -5 6 -11.5t2 -9.5q0 -18 -11.5 -28.5t-22.5 -17.5q-66 -44 -143.5 -73t-164.5 -29q-105 0 -198.5 39.5t-163 108.5t-110 161.5t-40.5 199.5q0 106 40.5 200t110 163.5t163 110t198.5 40.5
q81 0 153.5 -25.5t144.5 -71.5h-1q17 -11 26.5 -22t9.5 -28q0 -5 -2 -12t-5 -11l-77 -133q-5 -8 -13 -14t-19 -6t-32 13q-35 28 -84.5 45.5t-98.5 17.5q-55 0 -102.5 -21.5t-83 -58.5t-55.5 -86t-20 -104q0 -57 19.5 -104.5t53.5 -81.5t80.5 -52.5t100.5 -18.5zM563 -530h-4
q-2 1 -5 1t-5 2q-14 3 -25.5 18.5t-19.5 34t-12.5 37t-4.5 28.5q0 13 4 18l2 3q2 2 4 3.5t4 2.5l10 3q49 13 82.5 25.5t54 25.5t29.5 26.5t9 28.5q0 22 -15.5 40.5t-39 35.5t-50.5 34t-50.5 37t-39 43.5t-15.5 53.5v42h168q0 -25 16.5 -45.5t41.5 -40t54.5 -39.5t54.5 -43.5
t41.5 -52.5t16.5 -66q0 -36 -12.5 -69.5t-45.5 -66t-91.5 -62.5t-151.5 -58h-5z" />
    <glyph glyph-name="egrave" unicode="&#xe8;" horiz-adv-x="1144" 
d="M593 214q43 -1 86 12.5t82 35.5q16 8 30 18.5t25 10.5q16 0 31 -18l74 -118q9 -15 9 -26q0 -15 -10 -26.5t-22 -21.5q-63 -49 -138.5 -77t-160.5 -28q-105 0 -197.5 40t-162.5 109.5t-110.5 163t-40.5 200.5q0 103 40 196.5t108 163.5t158.5 111.5t192.5 41.5
q96 0 182 -36t150 -98t101.5 -145t37.5 -177q0 -77 -13.5 -112.5t-56.5 -35.5h-622q4 -43 26.5 -77t54.5 -58t70.5 -36.5t75.5 -12.5zM797 590q-2 38 -19 71.5t-46 59t-67.5 40t-83.5 14.5q-37 0 -73.5 -14.5t-66 -39.5t-49.5 -58.5t-25 -72.5h430zM388 1426q-7 14 -9 22.5
t-2 15.5q0 12 7.5 16.5t20.5 4.5h150q19 0 30.5 -10t23.5 -32l88 -205q10 -23 11 -38q0 -13 -6.5 -19.5t-26.5 -6.5h-143q-34 0 -53 42z" />
    <glyph glyph-name="eacute" unicode="&#xe9;" horiz-adv-x="1144" 
d="M593 214q43 -1 86 12.5t82 35.5q16 8 30 18.5t25 10.5q16 0 31 -18l74 -118q9 -15 9 -26q0 -15 -10 -26.5t-22 -21.5q-63 -49 -138.5 -77t-160.5 -28q-105 0 -197.5 40t-162.5 109.5t-110.5 163t-40.5 200.5q0 103 40 196.5t108 163.5t158.5 111.5t192.5 41.5
q96 0 182 -36t150 -98t101.5 -145t37.5 -177q0 -77 -13.5 -112.5t-56.5 -35.5h-622q4 -43 26.5 -77t54.5 -58t70.5 -36.5t75.5 -12.5zM797 590q-2 38 -19 71.5t-46 59t-67.5 40t-83.5 14.5q-37 0 -73.5 -14.5t-66 -39.5t-49.5 -58.5t-25 -72.5h430zM728 1216
q-19 -42 -53 -42h-143q-20 0 -26.5 6.5t-6.5 19.5q1 15 11 38l88 205q12 22 23.5 32t30.5 10h150q13 0 20.5 -4.5t7.5 -16.5q0 -7 -2 -15.5t-9 -22.5z" />
    <glyph glyph-name="ecircumflex" unicode="&#xea;" horiz-adv-x="1144" 
d="M593 214q43 -1 86 12.5t82 35.5q16 8 30 18.5t25 10.5q16 0 31 -18l74 -118q9 -15 9 -26q0 -15 -10 -26.5t-22 -21.5q-63 -49 -138.5 -77t-160.5 -28q-105 0 -197.5 40t-162.5 109.5t-110.5 163t-40.5 200.5q0 103 40 196.5t108 163.5t158.5 111.5t192.5 41.5
q96 0 182 -36t150 -98t101.5 -145t37.5 -177q0 -77 -13.5 -112.5t-56.5 -35.5h-622q4 -43 26.5 -77t54.5 -58t70.5 -36.5t75.5 -12.5zM797 590q-2 38 -19 71.5t-46 59t-67.5 40t-83.5 14.5q-37 0 -73.5 -14.5t-66 -39.5t-49.5 -58.5t-25 -72.5h430zM556 1555q11 9 22 9
q9 0 21 -10q67 -67 134.5 -134t134.5 -135q4 -3 7.5 -9.5t3.5 -14.5q0 -10 -11 -21l-56 -55q-10 -10 -22.5 -21t-25.5 -11q-3 0 -10 1.5t-24 18.5l-152 154l-155 -155q-7 -7 -15.5 -12.5t-19.5 -5.5t-22.5 11t-22.5 20l-55 53q-12 12 -11 30q1 5 4 9.5t7 7.5z" />
    <glyph glyph-name="edieresis" unicode="&#xeb;" horiz-adv-x="1144" 
d="M593 214q43 -1 86 12.5t82 35.5q16 8 30 18.5t25 10.5q16 0 31 -18l74 -118q9 -15 9 -26q0 -15 -10 -26.5t-22 -21.5q-63 -49 -138.5 -77t-160.5 -28q-105 0 -197.5 40t-162.5 109.5t-110.5 163t-40.5 200.5q0 103 40 196.5t108 163.5t158.5 111.5t192.5 41.5
q96 0 182 -36t150 -98t101.5 -145t37.5 -177q0 -77 -13.5 -112.5t-56.5 -35.5h-622q4 -43 26.5 -77t54.5 -58t70.5 -36.5t75.5 -12.5zM797 590q-2 38 -19 71.5t-46 59t-67.5 40t-83.5 14.5q-37 0 -73.5 -14.5t-66 -39.5t-49.5 -58.5t-25 -72.5h430zM252 1267q0 30 11 55.5
t30.5 45t45 30.5t54.5 11q30 0 56 -11t45 -30.5t30 -45t11 -55.5q0 -29 -11 -54.5t-30 -45t-45 -30.5t-56 -11q-29 0 -54.5 11t-45 30.5t-30.5 45t-11 54.5zM658 1269q0 30 11 56t30 45.5t45 30.5t55 11q30 0 56 -11t45 -30.5t30 -45.5t11 -56q0 -29 -11 -54.5t-30 -44.5
t-45 -30t-56 -11q-29 0 -55 11t-45 30t-30 44.5t-11 54.5z" />
    <glyph glyph-name="igrave" unicode="&#xec;" horiz-adv-x="576" 
d="M415 47q0 -47 -50 -47h-174q-47 0 -47 47v888q0 20 12 34t35 14h174q18 0 34 -13.5t16 -34.5v-888zM53 1426q-7 14 -9 22.5t-2 15.5q0 12 7.5 16.5t20.5 4.5h150q19 0 30.5 -10t23.5 -32l88 -205q10 -23 11 -38q0 -13 -6.5 -19.5t-26.5 -6.5h-143q-34 0 -53 42z" />
    <glyph glyph-name="iacute" unicode="&#xed;" horiz-adv-x="576" 
d="M415 47q0 -47 -50 -47h-174q-47 0 -47 47v888q0 20 12 34t35 14h174q18 0 34 -13.5t16 -34.5v-888zM391 1216q-19 -42 -53 -42h-143q-20 0 -26.5 6.5t-6.5 19.5q1 15 11 38l88 205q12 22 23.5 32t30.5 10h150q13 0 20.5 -4.5t7.5 -16.5q0 -7 -2 -15.5t-9 -22.5z" />
    <glyph glyph-name="icircumflex" unicode="&#xee;" horiz-adv-x="576" 
d="M415 47q0 -47 -50 -47h-174q-47 0 -47 47v888q0 20 12 34t35 14h174q18 0 34 -13.5t16 -34.5v-888zM242 1542q11 9 22 9q9 0 21 -10q67 -67 134.5 -134t134.5 -135q4 -3 7.5 -9.5t3.5 -14.5q0 -10 -11 -21l-56 -55q-10 -10 -22.5 -21t-25.5 -11q-3 0 -10 1.5t-24 18.5
l-152 154l-155 -155q-7 -7 -15.5 -12.5t-19.5 -5.5t-22.5 11t-22.5 20l-55 53q-12 12 -11 30q1 5 4 9.5t7 7.5z" />
    <glyph glyph-name="idieresis" unicode="&#xef;" horiz-adv-x="576" 
d="M415 47q0 -47 -50 -47h-174q-47 0 -47 47v888q0 20 12 34t35 14h174q18 0 34 -13.5t16 -34.5v-888zM-59 1267q0 30 11 55.5t30.5 45t45 30.5t54.5 11q30 0 56 -11t45 -30.5t30 -45t11 -55.5q0 -29 -11 -54.5t-30 -45t-45 -30.5t-56 -11q-29 0 -54.5 11t-45 30.5t-30.5 45
t-11 54.5zM347 1269q0 30 11 56t30 45.5t45 30.5t55 11q30 0 56 -11t45 -30.5t30 -45.5t11 -56q0 -29 -11 -54.5t-30 -44.5t-45 -30t-56 -11q-29 0 -55 11t-45 30t-30 44.5t-11 54.5z" />
    <glyph glyph-name="eth" unicode="&#xf0;" horiz-adv-x="1148" 
d="M1118 459q-5 -103 -47.5 -190.5t-111.5 -151.5t-160.5 -100t-194.5 -36q-107 0 -201 39.5t-164 108.5t-110.5 161.5t-40.5 198.5q0 100 38.5 190.5t104.5 159t155 108.5t190 40q25 0 48 -3q-22 38 -38 67t-33 57l-97 -55q-15 -8 -23 -8q-4 0 -10 1.5t-12.5 6t-14 13.5
t-15.5 25q-7 12 -15 25.5t-15 26t-12 23.5t-5 17q0 7 6.5 14t17 14t23 14t25.5 13l56 31l-95 167q-4 6 -6 15.5t-2 13.5q0 20 38 20h194q26 0 39.5 -10.5t26.5 -33.5l26 -48l78 44q11 6 24.5 13t24.5 7q8 0 14 -5.5t12 -14.5q23 -35 43 -64.5t20 -49.5q0 -3 -6.5 -13
t-35.5 -30l-83 -47q70 -122 139.5 -243t138.5 -244q33 -58 50.5 -124t16.5 -134v-15t-1 -14zM858 487q0 54 -19 102.5t-52.5 85t-79.5 57.5t-101 21q-54 0 -100 -21t-79.5 -57.5t-52 -85t-18.5 -102.5q0 -55 18.5 -103t52 -83.5t79.5 -56t100 -20.5q55 0 101 20.5t79.5 56
t52.5 83.5t19 103z" />
    <glyph glyph-name="ntilde" unicode="&#xf1;" horiz-adv-x="1254" 
d="M331 982q30 0 45 -10t22.5 -27.5t11 -40.5t10.5 -49q23 26 54.5 51t70 44.5t83 31.5t93.5 12q93 0 165.5 -29.5t122 -82t75.5 -125t26 -158.5v-550q0 -28 -12 -38.5t-36 -10.5h-184q-16 0 -25 2t-13.5 7.5t-6 14.5t-1.5 23v506q0 40 -13.5 73.5t-38 56.5t-57.5 36t-72 13
q-32 0 -67 -13.5t-65 -37t-51.5 -55t-27.5 -67.5v-514q0 -26 -9.5 -35.5t-39.5 -9.5h-181q-29 0 -38.5 10.5t-9.5 34.5v877q0 29 15 44.5t46 15.5h108v0zM425 1155q-6 -2 -10 -2q-3 0 -7 2q-5 3 -20.5 15t-32 27t-29.5 30t-13 24q0 4 4 10.5t9 13.5l20 26q39 51 89 76
t108 25q34 -2 70 -14.5t68 -33.5l55 -36q27 -18 52 -18q42 0 70 29q5 6 11.5 14.5t13.5 17t14.5 14.5t16.5 6q8 0 19 -8l74 -71q10 -11 10 -23q0 -5 -3.5 -12t-5.5 -9l-28 -35q-39 -45 -87 -68.5t-105 -23.5q-36 0 -71.5 12.5t-66.5 34.5q-13 9 -26.5 18.5t-28 17.5
t-28.5 13.5t-28 5.5q-27 0 -42 -10.5t-26 -24t-21 -26.5t-25 -17z" />
    <glyph glyph-name="ograve" unicode="&#xf2;" horiz-adv-x="1156" 
d="M60 488q0 106 40.5 200t110.5 163.5t164.5 110t202.5 40.5q107 0 201.5 -40.5t165 -110t111 -163.5t40.5 -200q0 -107 -40.5 -199.5t-111 -161.5t-165 -108.5t-201.5 -39.5q-108 0 -202.5 39.5t-164.5 108.5t-110.5 161.5t-40.5 199.5zM327 487q0 -54 19.5 -101.5t53 -83
t79.5 -56t100 -20.5q53 0 99.5 20.5t80.5 56t53.5 83t19.5 101.5q0 53 -19.5 100.5t-53.5 83.5t-80.5 57t-99.5 21q-54 0 -100 -21t-79.5 -57t-53 -83.5t-19.5 -100.5zM376 1426q-7 14 -9 22.5t-2 15.5q0 12 7.5 16.5t20.5 4.5h150q19 0 30.5 -10t23.5 -32l88 -205
q10 -23 11 -38q0 -13 -6.5 -19.5t-26.5 -6.5h-143q-34 0 -53 42z" />
    <glyph glyph-name="oacute" unicode="&#xf3;" horiz-adv-x="1156" 
d="M60 488q0 106 40.5 200t110.5 163.5t164.5 110t202.5 40.5q107 0 201.5 -40.5t165 -110t111 -163.5t40.5 -200q0 -107 -40.5 -199.5t-111 -161.5t-165 -108.5t-201.5 -39.5q-108 0 -202.5 39.5t-164.5 108.5t-110.5 161.5t-40.5 199.5zM327 487q0 -54 19.5 -101.5t53 -83
t79.5 -56t100 -20.5q53 0 99.5 20.5t80.5 56t53.5 83t19.5 101.5q0 53 -19.5 100.5t-53.5 83.5t-80.5 57t-99.5 21q-54 0 -100 -21t-79.5 -57t-53 -83.5t-19.5 -100.5zM698 1216q-19 -42 -53 -42h-143q-20 0 -26.5 6.5t-6.5 19.5q1 15 11 38l88 205q12 22 23.5 32t30.5 10
h150q13 0 20.5 -4.5t7.5 -16.5q0 -7 -2 -15.5t-9 -22.5z" />
    <glyph glyph-name="ocircumflex" unicode="&#xf4;" horiz-adv-x="1156" 
d="M60 488q0 106 40.5 200t110.5 163.5t164.5 110t202.5 40.5q107 0 201.5 -40.5t165 -110t111 -163.5t40.5 -200q0 -107 -40.5 -199.5t-111 -161.5t-165 -108.5t-201.5 -39.5q-108 0 -202.5 39.5t-164.5 108.5t-110.5 161.5t-40.5 199.5zM327 487q0 -54 19.5 -101.5t53 -83
t79.5 -56t100 -20.5q53 0 99.5 20.5t80.5 56t53.5 83t19.5 101.5q0 53 -19.5 100.5t-53.5 83.5t-80.5 57t-99.5 21q-54 0 -100 -21t-79.5 -57t-53 -83.5t-19.5 -100.5zM549 1555q11 9 22 9q9 0 21 -10q67 -67 134.5 -134t134.5 -135q4 -3 7.5 -9.5t3.5 -14.5q0 -10 -11 -21
l-56 -55q-10 -10 -22.5 -21t-25.5 -11q-3 0 -10 1.5t-24 18.5l-152 154l-155 -155q-7 -7 -15.5 -12.5t-19.5 -5.5t-22.5 11t-22.5 20l-55 53q-12 12 -11 30q1 5 4 9.5t7 7.5z" />
    <glyph glyph-name="otilde" unicode="&#xf5;" horiz-adv-x="1156" 
d="M60 488q0 106 40.5 200t110.5 163.5t164.5 110t202.5 40.5q107 0 201.5 -40.5t165 -110t111 -163.5t40.5 -200q0 -107 -40.5 -199.5t-111 -161.5t-165 -108.5t-201.5 -39.5q-108 0 -202.5 39.5t-164.5 108.5t-110.5 161.5t-40.5 199.5zM327 487q0 -54 19.5 -101.5t53 -83
t79.5 -56t100 -20.5q53 0 99.5 20.5t80.5 56t53.5 83t19.5 101.5q0 53 -19.5 100.5t-53.5 83.5t-80.5 57t-99.5 21q-54 0 -100 -21t-79.5 -57t-53 -83.5t-19.5 -100.5zM360 1158q-6 -2 -10 -2q-3 0 -7 2q-5 3 -20.5 15t-32 27t-29.5 30t-13 24q0 4 4 10.5t9 13.5l20 26
q39 51 89 76t108 25q34 -2 70 -14.5t68 -33.5l55 -36q27 -18 52 -18q42 0 70 29q5 6 11.5 14.5t13.5 17t14.5 14.5t16.5 6q8 0 19 -8l74 -71q10 -11 10 -23q0 -5 -3.5 -12t-5.5 -9l-28 -35q-39 -45 -87 -68.5t-105 -23.5q-36 0 -71.5 12.5t-66.5 34.5q-13 9 -26.5 18.5
t-28 17.5t-28.5 13.5t-28 5.5q-27 0 -42 -10.5t-26 -24t-21 -26.5t-25 -17z" />
    <glyph glyph-name="odieresis" unicode="&#xf6;" horiz-adv-x="1156" 
d="M60 488q0 106 40.5 200t110.5 163.5t164.5 110t202.5 40.5q107 0 201.5 -40.5t165 -110t111 -163.5t40.5 -200q0 -107 -40.5 -199.5t-111 -161.5t-165 -108.5t-201.5 -39.5q-108 0 -202.5 39.5t-164.5 108.5t-110.5 161.5t-40.5 199.5zM327 487q0 -54 19.5 -101.5t53 -83
t79.5 -56t100 -20.5q53 0 99.5 20.5t80.5 56t53.5 83t19.5 101.5q0 53 -19.5 100.5t-53.5 83.5t-80.5 57t-99.5 21q-54 0 -100 -21t-79.5 -57t-53 -83.5t-19.5 -100.5zM231 1267q0 30 11 55.5t30.5 45t45 30.5t54.5 11q30 0 56 -11t45 -30.5t30 -45t11 -55.5
q0 -29 -11 -54.5t-30 -45t-45 -30.5t-56 -11q-29 0 -54.5 11t-45 30.5t-30.5 45t-11 54.5zM637 1269q0 30 11 56t30 45.5t45 30.5t55 11q30 0 56 -11t45 -30.5t30 -45.5t11 -56q0 -29 -11 -54.5t-30 -44.5t-45 -30t-56 -11q-29 0 -55 11t-45 30t-30 44.5t-11 54.5z" />
    <glyph glyph-name="divide" unicode="&#xf7;" horiz-adv-x="902" 
d="M315 928q0 31 11.5 58t32 47.5t47.5 32.5t58 12q33 0 60.5 -12t47.5 -32.5t31 -47.5t11 -58q0 -32 -11 -59t-31 -47t-47.5 -31.5t-60.5 -11.5q-31 0 -58 11.5t-47.5 31.5t-32 47t-11.5 59zM309 118q0 31 12 58.5t32 48t47.5 32t57.5 11.5q33 0 60.5 -11.5t47.5 -32
t31 -48t11 -58.5t-11 -58t-31 -47.5t-47.5 -32t-60.5 -11.5q-30 0 -57.5 11.5t-47.5 32t-32 47.5t-12 58zM145 391q-57 0 -57 55v157q0 55 57 55h633q23 0 38.5 -15.5t15.5 -39.5v-157q0 -24 -15.5 -39.5t-38.5 -15.5h-633z" />
    <glyph glyph-name="oslash" unicode="&#xf8;" horiz-adv-x="1156" 
d="M162 -103l84 196q-86 69 -136 171.5t-50 223.5q0 106 39.5 198.5t108 160t160.5 106.5t198 39q17 0 33 -1t33 -3l44 102q9 20 24 31.5t40 11.5h156q22 0 34.5 -7.5t12.5 -25.5q0 -5 -1.5 -12.5t-2.5 -9.5l-78 -180q48 -34 86.5 -78.5t65.5 -96.5t42 -111.5t15 -123.5
q0 -106 -39.5 -198.5t-108 -160.5t-160 -107.5t-196.5 -39.5q-50 0 -96 9q-12 -27 -23.5 -53t-22.5 -51q-10 -20 -21 -29.5t-31 -9.5h-173q-40 0 -40 29q0 4 2 9l1 9v2zM307 487q0 -54 19.5 -101.5t53 -83t79.5 -56t100 -20.5q53 0 99.5 20.5t80.5 56t53.5 83t19.5 101.5
q0 53 -19.5 100.5t-53.5 83.5t-80.5 57t-99.5 21q-54 0 -100 -21t-79.5 -57t-53 -83.5t-19.5 -100.5z" />
    <glyph glyph-name="ugrave" unicode="&#xf9;" horiz-adv-x="1136" 
d="M907 0q-30 0 -46 9t-24.5 25t-13 38t-11.5 48q-23 -26 -56.5 -50t-74 -42t-87 -29t-95.5 -11q-93 0 -164 29.5t-118.5 82t-72 125t-24.5 158.5v540q0 28 17 43.5t41 15.5h164q32 0 44 -14.5t12 -42.5v-496q0 -41 12 -74t34.5 -56t54.5 -36t71 -13q32 0 72 12.5t74.5 35.5
t58 55t23.5 70v504q0 55 59 55h161q29 0 43.5 -15.5t14.5 -39.5v-867q0 -29 -15 -44.5t-46 -15.5h-108v0zM442 1426q-7 14 -9 22.5t-2 15.5q0 12 7.5 16.5t20.5 4.5h150q19 0 30.5 -10t23.5 -32l88 -205q10 -23 11 -38q0 -13 -6.5 -19.5t-26.5 -6.5h-143q-34 0 -53 42z" />
    <glyph glyph-name="uacute" unicode="&#xfa;" horiz-adv-x="1136" 
d="M907 0q-30 0 -46 9t-24.5 25t-13 38t-11.5 48q-23 -26 -56.5 -50t-74 -42t-87 -29t-95.5 -11q-93 0 -164 29.5t-118.5 82t-72 125t-24.5 158.5v540q0 28 17 43.5t41 15.5h164q32 0 44 -14.5t12 -42.5v-496q0 -41 12 -74t34.5 -56t54.5 -36t71 -13q32 0 72 12.5t74.5 35.5
t58 55t23.5 70v504q0 55 59 55h161q29 0 43.5 -15.5t14.5 -39.5v-867q0 -29 -15 -44.5t-46 -15.5h-108v0zM685 1216q-19 -42 -53 -42h-143q-20 0 -26.5 6.5t-6.5 19.5q1 15 11 38l88 205q12 22 23.5 32t30.5 10h150q13 0 20.5 -4.5t7.5 -16.5q0 -7 -2 -15.5t-9 -22.5z" />
    <glyph glyph-name="ucircumflex" unicode="&#xfb;" horiz-adv-x="1136" 
d="M907 0q-30 0 -46 9t-24.5 25t-13 38t-11.5 48q-23 -26 -56.5 -50t-74 -42t-87 -29t-95.5 -11q-93 0 -164 29.5t-118.5 82t-72 125t-24.5 158.5v540q0 28 17 43.5t41 15.5h164q32 0 44 -14.5t12 -42.5v-496q0 -41 12 -74t34.5 -56t54.5 -36t71 -13q32 0 72 12.5t74.5 35.5
t58 55t23.5 70v504q0 55 59 55h161q29 0 43.5 -15.5t14.5 -39.5v-867q0 -29 -15 -44.5t-46 -15.5h-108v0zM566 1555q11 9 22 9q9 0 21 -10q67 -67 134.5 -134t134.5 -135q4 -3 7.5 -9.5t3.5 -14.5q0 -10 -11 -21l-56 -55q-10 -10 -22.5 -21t-25.5 -11q-3 0 -10 1.5t-24 18.5
l-152 154l-155 -155q-7 -7 -15.5 -12.5t-19.5 -5.5t-22.5 11t-22.5 20l-55 53q-12 12 -11 30q1 5 4 9.5t7 7.5z" />
    <glyph glyph-name="udieresis" unicode="&#xfc;" horiz-adv-x="1136" 
d="M907 0q-30 0 -46 9t-24.5 25t-13 38t-11.5 48q-23 -26 -56.5 -50t-74 -42t-87 -29t-95.5 -11q-93 0 -164 29.5t-118.5 82t-72 125t-24.5 158.5v540q0 28 17 43.5t41 15.5h164q32 0 44 -14.5t12 -42.5v-496q0 -41 12 -74t34.5 -56t54.5 -36t71 -13q32 0 72 12.5t74.5 35.5
t58 55t23.5 70v504q0 55 59 55h161q29 0 43.5 -15.5t14.5 -39.5v-867q0 -29 -15 -44.5t-46 -15.5h-108v0zM246 1267q0 30 11 55.5t30.5 45t45 30.5t54.5 11q30 0 56 -11t45 -30.5t30 -45t11 -55.5q0 -29 -11 -54.5t-30 -45t-45 -30.5t-56 -11q-29 0 -54.5 11t-45 30.5
t-30.5 45t-11 54.5zM652 1269q0 30 11 56t30 45.5t45 30.5t55 11q30 0 56 -11t45 -30.5t30 -45.5t11 -56q0 -29 -11 -54.5t-30 -44.5t-45 -30t-56 -11q-29 0 -55 11t-45 30t-30 44.5t-11 54.5z" />
    <glyph glyph-name="yacute" unicode="&#xfd;" horiz-adv-x="1118" 
d="M580 -351q-11 -23 -27.5 -34t-36.5 -11h-162q-23 0 -39 9t-16 33q0 15 4 27l125 337l-364 893h1q-6 11 -7.5 20t-1.5 14q0 44 54 44h175q26 0 42 -13.5t21 -33.5v1l219 -585l215 587q16 44 66 44h173q31 0 43.5 -13.5t12.5 -35.5q0 -5 -2 -13.5t-7 -22.5zM675 1216
q-19 -42 -53 -42h-143q-20 0 -26.5 6.5t-6.5 19.5q1 15 11 38l88 205q12 22 23.5 32t30.5 10h150q13 0 20.5 -4.5t7.5 -16.5q0 -7 -2 -15.5t-9 -22.5z" />
    <glyph glyph-name="thorn" unicode="&#xfe;" horiz-adv-x="1182" 
d="M877 494q0 55 -17.5 103t-48 84t-73 56.5t-91.5 20.5q-48 0 -89.5 -19t-73 -52.5t-50.5 -78.5t-22 -96v-32q2 -53 21 -98.5t50.5 -79.5t73.5 -53.5t90 -19.5q49 0 91.5 21t73 57t48 84t17.5 103zM218 -387q-21 0 -38.5 14t-17.5 37v1731q0 22 15 35t35 13h166
q23 0 35.5 -13.5t12.5 -34.5v-515q17 24 42 46.5t56 39t68.5 26.5t80.5 10q102 0 188.5 -39.5t149 -108t97.5 -160.5t35 -198v-3q0 -106 -34.5 -198.5t-97 -161.5t-149 -108.5t-189.5 -39.5q-44 0 -81.5 9.5t-68.5 25.5t-55 37.5t-42 46.5v-440q0 -23 -13.5 -37t-40.5 -14
h-154z" />
    <glyph glyph-name="ydieresis" unicode="&#xff;" horiz-adv-x="1118" 
d="M580 -351q-11 -23 -27.5 -34t-36.5 -11h-162q-23 0 -39 9t-16 33q0 15 4 27l125 337l-364 893h1q-6 11 -7.5 20t-1.5 14q0 44 54 44h175q26 0 42 -13.5t21 -33.5v1l219 -585l215 587q16 44 66 44h173q31 0 43.5 -13.5t12.5 -35.5q0 -5 -2 -13.5t-7 -22.5zM223 1267
q0 30 11 55.5t30.5 45t45 30.5t54.5 11q30 0 56 -11t45 -30.5t30 -45t11 -55.5q0 -29 -11 -54.5t-30 -45t-45 -30.5t-56 -11q-29 0 -54.5 11t-45 30.5t-30.5 45t-11 54.5zM629 1269q0 30 11 56t30 45.5t45 30.5t55 11q30 0 56 -11t45 -30.5t30 -45.5t11 -56q0 -29 -11 -54.5
t-30 -44.5t-45 -30t-56 -11q-29 0 -55 11t-45 30t-30 44.5t-11 54.5z" />
    <glyph glyph-name="Amacron" unicode="&#x100;" horiz-adv-x="1432" 
d="M595 1447q17 38 50 38h167q17 0 30 -9t21 -29l564 -1404q8 -20 0 -31.5t-28 -11.5h-219q-17 0 -29.5 8t-19.5 28l-97 240h-613l-95 -239q-8 -20 -20.5 -28.5t-29.5 -8.5h-219q-20 0 -28 11t1 32zM515 534h424l-210 567zM358 1841q0 35 35 35h725q36 0 36 -35v-100
q0 -12 -9 -26t-27 -14h-725q-35 0 -35 40v100z" />
    <glyph glyph-name="amacron" unicode="&#x101;" horiz-adv-x="1188" 
d="M838 55q-2 19 -5 32.5t-6 32.5q-18 -27 -40 -52t-52 -44.5t-70.5 -31t-95.5 -11.5h-5q-107 0 -195.5 39t-153 107t-100 161t-35.5 200q0 109 35.5 202t99 161t152.5 107t197 39q54 0 94 -11t71.5 -30.5t56.5 -45.5t49 -55l20 76q4 16 7.5 27t9.5 17t15 8.5t23 2.5l113 -4
q23 0 40 -14.5t17 -39.5v-878q0 -24 -17 -37t-40 -13h-129q-30 0 -40.5 15t-15.5 40zM341 486q0 -55 17 -103t48.5 -83.5t76 -56t98.5 -20.5q55 0 100 20t76.5 55t48.5 83t17 104q0 54 -16.5 102.5t-48 85t-76 58t-101.5 21.5q-55 0 -99.5 -21t-75.5 -57.5t-48 -85
t-17 -102.5zM236 1337q0 35 35 35h725q36 0 36 -35v-100q0 -12 -9 -26t-27 -14h-725q-35 0 -35 40v100z" />
    <glyph glyph-name="Abreve" unicode="&#x102;" horiz-adv-x="1432" 
d="M595 1447q17 38 50 38h167q17 0 30 -9t21 -29l564 -1404q8 -20 0 -31.5t-28 -11.5h-219q-17 0 -29.5 8t-19.5 28l-97 240h-613l-95 -239q-8 -20 -20.5 -28.5t-29.5 -8.5h-219q-20 0 -28 11t1 32zM515 534h424l-210 567zM752 1713q-56 1 -103.5 21.5t-83 54t-55.5 76
t-20 89.5q0 17 11.5 27.5t27.5 10.5h105q14 0 23 -9t9 -22q0 -29 22.5 -51.5t67.5 -22.5q39 0 62 21.5t23 48.5q0 13 6.5 24t23.5 11h102q17 0 31 -9.5t14 -28.5q0 -47 -20.5 -90.5t-56.5 -76.5t-84.5 -53t-104.5 -21z" />
    <glyph glyph-name="abreve" unicode="&#x103;" horiz-adv-x="1188" 
d="M838 55q-2 19 -5 32.5t-6 32.5q-18 -27 -40 -52t-52 -44.5t-70.5 -31t-95.5 -11.5h-5q-107 0 -195.5 39t-153 107t-100 161t-35.5 200q0 109 35.5 202t99 161t152.5 107t197 39q54 0 94 -11t71.5 -30.5t56.5 -45.5t49 -55l20 76q4 16 7.5 27t9.5 17t15 8.5t23 2.5l113 -4
q23 0 40 -14.5t17 -39.5v-878q0 -24 -17 -37t-40 -13h-129q-30 0 -40.5 15t-15.5 40zM341 486q0 -55 17 -103t48.5 -83.5t76 -56t98.5 -20.5q55 0 100 20t76.5 55t48.5 83t17 104q0 54 -16.5 102.5t-48 85t-76 58t-101.5 21.5q-55 0 -99.5 -21t-75.5 -57.5t-48 -85
t-17 -102.5zM563 1209q-56 1 -103.5 21.5t-83 54t-55.5 76t-20 89.5q0 17 11.5 27.5t27.5 10.5h105q14 0 23 -9t9 -22q0 -29 22.5 -51.5t67.5 -22.5q39 0 62 21.5t23 48.5q0 13 6.5 24t23.5 11h102q17 0 31 -9.5t14 -28.5q0 -47 -20.5 -90.5t-56.5 -76.5t-84.5 -53
t-104.5 -21z" />
    <glyph glyph-name="Aogonek" unicode="&#x104;" horiz-adv-x="1432" 
d="M595 1447q17 38 50 38h167q17 0 30 -9t21 -29l564 -1404q8 -20 0 -31.5t-28 -11.5h-219q-17 0 -29.5 8t-19.5 28l-97 240h-613l-95 -239q-8 -20 -20.5 -28.5t-29.5 -8.5h-219q-20 0 -28 11t1 32zM515 534h424l-210 567zM1351 -517q-93 28 -151.5 58t-91.5 62.5t-45.5 66
t-12.5 69.5q0 37 16.5 65.5t41.5 51.5t54.5 42.5t54.5 39t41.5 41t16.5 47.5h168v-42q0 -30 -15.5 -53.5t-39 -43.5t-50.5 -37t-50.5 -34t-39 -35.5t-15.5 -40.5q0 -15 9 -28.5t29.5 -26.5t54 -25.5t82.5 -25.5l10 -3q2 -1 4 -2.5t4 -3.5l2 -3q4 -5 4 -18q0 -10 -4.5 -28.5
t-12.5 -37t-19.5 -34t-25.5 -18.5q-2 -2 -5 -2t-5 -1h-4h-5z" />
    <glyph glyph-name="aogonek" unicode="&#x105;" horiz-adv-x="1188" 
d="M838 55q-2 19 -5 32.5t-6 32.5q-18 -27 -40 -52t-52 -44.5t-70.5 -31t-95.5 -11.5h-5q-107 0 -195.5 39t-153 107t-100 161t-35.5 200q0 109 35.5 202t99 161t152.5 107t197 39q54 0 94 -11t71.5 -30.5t56.5 -45.5t49 -55l20 76q4 16 7.5 27t9.5 17t15 8.5t23 2.5l113 -4
q23 0 40 -14.5t17 -39.5v-878q0 -24 -17 -37t-40 -13h-129q-30 0 -40.5 15t-15.5 40zM341 486q0 -55 17 -103t48.5 -83.5t76 -56t98.5 -20.5q55 0 100 20t76.5 55t48.5 83t17 104q0 54 -16.5 102.5t-48 85t-76 58t-101.5 21.5q-55 0 -99.5 -21t-75.5 -57.5t-48 -85
t-17 -102.5zM944 -511q-93 28 -151.5 58t-91.5 62.5t-45.5 66t-12.5 69.5q0 37 16.5 65.5t41.5 51.5t54.5 42.5t54.5 39t41.5 41t16.5 47.5h168v-42q0 -30 -15.5 -53.5t-39 -43.5t-50.5 -37t-50.5 -34t-39 -35.5t-15.5 -40.5q0 -15 9 -28.5t29.5 -26.5t54 -25.5t82.5 -25.5
l10 -3q2 -1 4 -2.5t4 -3.5l2 -3q4 -5 4 -18q0 -10 -4.5 -28.5t-12.5 -37t-19.5 -34t-25.5 -18.5q-2 -2 -5 -2t-5 -1h-4h-5z" />
    <glyph glyph-name="Cacute" unicode="&#x106;" horiz-adv-x="1410" 
d="M1137 346q18 14 34 16t29 -15l101 -171q14 -17 11 -30.5t-22 -27.5q-86 -64 -192 -101.5t-242 -37.5q-106 0 -204 27.5t-183.5 77t-155.5 119.5t-120 155t-77.5 183t-27.5 204t27.5 203.5t77.5 182t120 154t155.5 118.5t183.5 76t204 27q136 0 242.5 -37t193.5 -101
q16 -13 16.5 -27.5t-4.5 -22.5l-106 -179q-8 -12 -23 -12.5t-33 10.5q-35 22 -69 39t-68.5 29t-71 18t-77.5 6q-101 0 -187.5 -37.5t-149.5 -103t-99 -153.5t-36 -190q0 -101 36 -190.5t99 -156.5t149.5 -106t187.5 -39q82 0 154.5 26.5t126.5 66.5zM1014 1718
q-19 -42 -53 -42h-143q-20 0 -26.5 6.5t-6.5 19.5q1 15 11 38l88 205q12 22 23.5 32t30.5 10h150q13 0 20.5 -4.5t7.5 -16.5q0 -7 -2 -15.5t-9 -22.5z" />
    <glyph glyph-name="cacute" unicode="&#x107;" horiz-adv-x="1022" 
d="M585 228q59 1 103 17.5t92 39.5q9 5 15.5 7.5t12.5 2.5q14 0 30 -23l86 -124q4 -5 6 -11.5t2 -9.5q0 -18 -11.5 -28.5t-22.5 -17.5q-66 -44 -143.5 -73t-164.5 -29q-105 0 -198.5 39.5t-163 108.5t-110 161.5t-40.5 199.5q0 106 40.5 200t110 163.5t163 110t198.5 40.5
q81 0 153.5 -25.5t144.5 -71.5h-1q17 -11 26.5 -22t9.5 -28q0 -5 -2 -12t-5 -11l-77 -133q-5 -8 -13 -14t-19 -6t-32 13q-35 28 -84.5 45.5t-98.5 17.5q-55 0 -102.5 -21.5t-83 -58.5t-55.5 -86t-20 -104q0 -57 19.5 -104.5t53.5 -81.5t80.5 -52.5t100.5 -18.5zM675 1216
q-19 -42 -53 -42h-143q-20 0 -26.5 6.5t-6.5 19.5q1 15 11 38l88 205q12 22 23.5 32t30.5 10h150q13 0 20.5 -4.5t7.5 -16.5q0 -7 -2 -15.5t-9 -22.5z" />
    <glyph glyph-name="Ccircumflex" unicode="&#x108;" horiz-adv-x="1410" 
d="M1137 346q18 14 34 16t29 -15l101 -171q14 -17 11 -30.5t-22 -27.5q-86 -64 -192 -101.5t-242 -37.5q-106 0 -204 27.5t-183.5 77t-155.5 119.5t-120 155t-77.5 183t-27.5 204t27.5 203.5t77.5 182t120 154t155.5 118.5t183.5 76t204 27q136 0 242.5 -37t193.5 -101
q16 -13 16.5 -27.5t-4.5 -22.5l-106 -179q-8 -12 -23 -12.5t-33 10.5q-35 22 -69 39t-68.5 29t-71 18t-77.5 6q-101 0 -187.5 -37.5t-149.5 -103t-99 -153.5t-36 -190q0 -101 36 -190.5t99 -156.5t149.5 -106t187.5 -39q82 0 154.5 26.5t126.5 66.5zM806 2057q11 9 22 9
q9 0 21 -10q67 -67 134.5 -134t134.5 -135q4 -3 7.5 -9.5t3.5 -14.5q0 -10 -11 -21l-56 -55q-10 -10 -22.5 -21t-25.5 -11q-3 0 -10 1.5t-24 18.5l-152 154l-155 -155q-7 -7 -15.5 -12.5t-19.5 -5.5t-22.5 11t-22.5 20l-55 53q-12 12 -11 30q1 5 4 9.5t7 7.5z" />
    <glyph glyph-name="ccircumflex" unicode="&#x109;" horiz-adv-x="1022" 
d="M585 228q59 1 103 17.5t92 39.5q9 5 15.5 7.5t12.5 2.5q14 0 30 -23l86 -124q4 -5 6 -11.5t2 -9.5q0 -18 -11.5 -28.5t-22.5 -17.5q-66 -44 -143.5 -73t-164.5 -29q-105 0 -198.5 39.5t-163 108.5t-110 161.5t-40.5 199.5q0 106 40.5 200t110 163.5t163 110t198.5 40.5
q81 0 153.5 -25.5t144.5 -71.5h-1q17 -11 26.5 -22t9.5 -28q0 -5 -2 -12t-5 -11l-77 -133q-5 -8 -13 -14t-19 -6t-32 13q-35 28 -84.5 45.5t-98.5 17.5q-55 0 -102.5 -21.5t-83 -58.5t-55.5 -86t-20 -104q0 -57 19.5 -104.5t53.5 -81.5t80.5 -52.5t100.5 -18.5zM573 1518
q11 9 22 9q9 0 21 -10q67 -67 134.5 -134t134.5 -135q4 -3 7.5 -9.5t3.5 -14.5q0 -10 -11 -21l-56 -55q-10 -10 -22.5 -21t-25.5 -11q-3 0 -10 1.5t-24 18.5l-152 154l-155 -155q-7 -7 -15.5 -12.5t-19.5 -5.5t-22.5 11t-22.5 20l-55 53q-12 12 -11 30q1 5 4 9.5t7 7.5z" />
    <glyph glyph-name="Cdotaccent" unicode="&#x10a;" horiz-adv-x="1410" 
d="M1137 346q18 14 34 16t29 -15l101 -171q14 -17 11 -30.5t-22 -27.5q-86 -64 -192 -101.5t-242 -37.5q-106 0 -204 27.5t-183.5 77t-155.5 119.5t-120 155t-77.5 183t-27.5 204t27.5 203.5t77.5 182t120 154t155.5 118.5t183.5 76t204 27q136 0 242.5 -37t193.5 -101
q16 -13 16.5 -27.5t-4.5 -22.5l-106 -179q-8 -12 -23 -12.5t-33 10.5q-35 22 -69 39t-68.5 29t-71 18t-77.5 6q-101 0 -187.5 -37.5t-149.5 -103t-99 -153.5t-36 -190q0 -101 36 -190.5t99 -156.5t149.5 -106t187.5 -39q82 0 154.5 26.5t126.5 66.5zM711 1771q0 29 11 55
t30.5 45.5t45 30.5t54.5 11q30 0 56 -11t45 -30.5t30 -45.5t11 -55t-11 -55t-30 -45t-45 -30t-56 -11q-29 0 -54.5 11t-45 30t-30.5 45t-11 55z" />
    <glyph glyph-name="cdotaccent" unicode="&#x10b;" horiz-adv-x="1022" 
d="M585 228q59 1 103 17.5t92 39.5q9 5 15.5 7.5t12.5 2.5q14 0 30 -23l86 -124q4 -5 6 -11.5t2 -9.5q0 -18 -11.5 -28.5t-22.5 -17.5q-66 -44 -143.5 -73t-164.5 -29q-105 0 -198.5 39.5t-163 108.5t-110 161.5t-40.5 199.5q0 106 40.5 200t110 163.5t163 110t198.5 40.5
q81 0 153.5 -25.5t144.5 -71.5h-1q17 -11 26.5 -22t9.5 -28q0 -5 -2 -12t-5 -11l-77 -133q-5 -8 -13 -14t-19 -6t-32 13q-35 28 -84.5 45.5t-98.5 17.5q-55 0 -102.5 -21.5t-83 -58.5t-55.5 -86t-20 -104q0 -57 19.5 -104.5t53.5 -81.5t80.5 -52.5t100.5 -18.5zM363 1311
q0 34 13 63.5t34.5 51.5t51 34.5t62.5 12.5q34 0 64 -12.5t51.5 -34.5t34 -51.5t12.5 -63.5q0 -33 -12.5 -62.5t-34 -51t-51.5 -34.5t-64 -13q-33 0 -62.5 13t-51 34.5t-34.5 51t-13 62.5z" />
    <glyph glyph-name="Ccaron" unicode="&#x10c;" horiz-adv-x="1410" 
d="M1137 346q18 14 34 16t29 -15l101 -171q14 -17 11 -30.5t-22 -27.5q-86 -64 -192 -101.5t-242 -37.5q-106 0 -204 27.5t-183.5 77t-155.5 119.5t-120 155t-77.5 183t-27.5 204t27.5 203.5t77.5 182t120 154t155.5 118.5t183.5 76t204 27q136 0 242.5 -37t193.5 -101
q16 -13 16.5 -27.5t-4.5 -22.5l-106 -179q-8 -12 -23 -12.5t-33 10.5q-35 22 -69 39t-68.5 29t-71 18t-77.5 6q-101 0 -187.5 -37.5t-149.5 -103t-99 -153.5t-36 -190q0 -101 36 -190.5t99 -156.5t149.5 -106t187.5 -39q82 0 154.5 26.5t126.5 66.5zM539 1917q-5 2 -8 10.5
t-3 14.5q0 10 6 16l27 27l62 58q7 7 17 7q5 0 8 -2t8 -4l19 -15l154 -155l153 155q8 8 18 13.5t17 5.5q11 0 23 -10.5t23 -21.5l56 -54q5 -5 8 -10t3 -12t-3 -13.5t-7 -10.5l-270 -269q-5 -4 -10.5 -7t-10.5 -3q-7 0 -12 3t-10 7z" />
    <glyph glyph-name="ccaron" unicode="&#x10d;" horiz-adv-x="1022" 
d="M585 228q59 1 103 17.5t92 39.5q9 5 15.5 7.5t12.5 2.5q14 0 30 -23l86 -124q4 -5 6 -11.5t2 -9.5q0 -18 -11.5 -28.5t-22.5 -17.5q-66 -44 -143.5 -73t-164.5 -29q-105 0 -198.5 39.5t-163 108.5t-110 161.5t-40.5 199.5q0 106 40.5 200t110 163.5t163 110t198.5 40.5
q81 0 153.5 -25.5t144.5 -71.5h-1q17 -11 26.5 -22t9.5 -28q0 -5 -2 -12t-5 -11l-77 -133q-5 -8 -13 -14t-19 -6t-32 13q-35 28 -84.5 45.5t-98.5 17.5q-55 0 -102.5 -21.5t-83 -58.5t-55.5 -86t-20 -104q0 -57 19.5 -104.5t53.5 -81.5t80.5 -52.5t100.5 -18.5zM263 1415
q-5 2 -8 10.5t-3 14.5q0 10 6 16l27 27l62 58q7 7 17 7q5 0 8 -2t8 -4l19 -15l154 -155l153 155q8 8 18 13.5t17 5.5q11 0 23 -10.5t23 -21.5l56 -54q5 -5 8 -10t3 -12t-3 -13.5t-7 -10.5l-270 -269q-5 -4 -10.5 -7t-10.5 -3q-7 0 -12 3t-10 7z" />
    <glyph glyph-name="Dcaron" unicode="&#x10e;" horiz-adv-x="1490" 
d="M162 1445q0 39 40 39h478q94 0 186.5 -26t176 -73.5t154.5 -114.5t123 -149.5t81.5 -178t29.5 -200.5q0 -150 -57.5 -282.5t-158 -233t-236 -160.5t-291.5 -66h-486q-40 0 -40 40v1405zM1137 742q0 98 -37 184.5t-101.5 150.5t-153 101t-191.5 37h-197v-945h197
q103 0 191.5 37t153 101t101.5 150t37 184zM397 1919q-5 2 -8 10.5t-3 14.5q0 10 6 16l27 27l62 58q7 7 17 7q5 0 8 -2t8 -4l19 -15l154 -155l153 155q8 8 18 13.5t17 5.5q11 0 23 -10.5t23 -21.5l56 -54q5 -5 8 -10t3 -12t-3 -13.5t-7 -10.5l-270 -269q-5 -4 -10.5 -7
t-10.5 -3q-7 0 -12 3t-10 7z" />
    <glyph glyph-name="dcaron" unicode="&#x10f;" horiz-adv-x="1158" 
d="M1070 51q0 -23 -12 -36t-37 -15h-88q-38 0 -69 6q-14 4 -22 15t-12.5 26.5t-7 34t-5.5 37.5q-25 -36 -52 -62t-59.5 -43t-72.5 -25t-91 -8q-103 0 -189 39.5t-147.5 108.5t-95.5 161t-34 197q0 106 33.5 198.5t95 161t148.5 108t193 39.5q47 0 84.5 -8t67.5 -23
t53.5 -36.5t44.5 -48.5v557q0 22 13.5 36t39.5 14h164q22 0 39.5 -13.5t17.5 -36.5v-1384zM823 485q0 55 -17.5 103.5t-49.5 84.5t-76.5 57t-97.5 21q-57 0 -101 -21t-74 -57t-46 -84.5t-16 -103.5t16 -103t46 -84t74 -56.5t101 -20.5q52 0 96 20.5t76 56t50 83t19 101.5v3z
M1085.42 1482.42q0 31.4268 11.6367 58.8115q11.6367 27.3857 31.7773 47.1396q20.1406 19.7529 46.9951 30.9766t57.2891 11.2236q32.2256 0 59.0791 -11.6719q26.8545 -11.6729 46.9951 -32.3242t31.3301 -50.2822q11.1895 -29.6299 11.1895 -65.5459
q0 -75.4219 -15.665 -131.54t-37.5957 -93.3809q-21.9316 -37.2617 -44.7578 -55.6689q-22.8252 -18.4062 -37.1475 -18.4062q-9.84668 0 -16.5605 2.69336t-12.9795 7.18359l-43.8623 33.2217q-10.7412 8.08105 -10.7412 24.2432q0 14.3662 9.84668 24.2422
l11.6367 17.0605q6.26562 7.18262 12.9795 21.998t6.71387 33.6709q-24.1689 4.48926 -45.6523 18.4062q-21.4834 13.918 -37.5967 33.6709q-16.1123 19.7539 -25.5107 43.9971q-9.39941 24.2432 -9.39941 50.2812z" />
    <glyph glyph-name="Dcroat" unicode="&#x110;" horiz-adv-x="1480" 
d="M217 613h-142q-53 0 -53 55v130q0 23 13.5 36t39.5 13h142v-234zM392 613h177q22 0 35.5 18t13.5 37v130q0 23 -14.5 36t-34.5 13h-177v-234zM162 1445q0 39 40 39h478q94 0 186.5 -26t176 -73.5t154.5 -114.5t123 -149.5t81.5 -178t29.5 -200.5q0 -150 -57.5 -282.5
t-158 -233t-236 -160.5t-291.5 -66h-486q-40 0 -40 40v1405zM1137 742q0 98 -37 184.5t-101.5 150.5t-153 101t-191.5 37h-197v-945h197q103 0 191.5 37t153 101t101.5 150t37 184z" />
    <glyph glyph-name="dcroat" unicode="&#x111;" horiz-adv-x="1158" 
d="M1070 51q0 -23 -12 -36t-37 -15h-88q-38 0 -69 6q-14 4 -22 15t-12.5 26.5t-7 34t-5.5 37.5q-25 -36 -52 -62t-59.5 -43t-72.5 -25t-91 -8q-103 0 -189 39.5t-147.5 108.5t-95.5 161t-34 197q0 106 33.5 198.5t95 161t148.5 108t193 39.5q47 0 84.5 -8t67.5 -23
t53.5 -36.5t44.5 -48.5v557q0 22 13.5 36t39.5 14h164q22 0 39.5 -13.5t17.5 -36.5v-1384zM823 485q0 55 -17.5 103.5t-49.5 84.5t-76.5 57t-97.5 21q-57 0 -101 -21t-74 -57t-46 -84.5t-16 -103.5t16 -103t46 -84t74 -56.5t101 -20.5q52 0 96 20.5t76 56t50 83t19 101.5v3z
M1151.42 1310.34q18.9697 0 31.7529 -10.9199q12.7842 -10.9199 12.7842 -29.6406v-109.984q0 -15.6006 -12.3721 -30.0312q-12.3711 -14.4307 -32.165 -14.4307h-537.749q-20.6191 0 -32.166 10.9209q-11.5469 10.9199 -11.5469 33.541v109.984q0 18.7207 11.5469 29.6406
t32.166 10.9199h537.749z" />
    <glyph glyph-name="Emacron" unicode="&#x112;" horiz-adv-x="1284" 
d="M162 1445q0 39 39 39h977q41 0 41 -39v-194q0 -40 -41 -40h-724v-303h552q20 0 32.5 -9.5t12.5 -30.5v-190q0 -20 -12 -29.5t-33 -9.5h-552v-367h743q20 0 31 -10t11 -30v-192q0 -20 -11 -30t-31 -10h-996q-39 0 -39 40v1405zM307 1841q0 35 35 35h725q36 0 36 -35v-100
q0 -12 -9 -26t-27 -14h-725q-35 0 -35 40v100z" />
    <glyph glyph-name="emacron" unicode="&#x113;" horiz-adv-x="1144" 
d="M593 214q43 -1 86 12.5t82 35.5q16 8 30 18.5t25 10.5q16 0 31 -18l74 -118q9 -15 9 -26q0 -15 -10 -26.5t-22 -21.5q-63 -49 -138.5 -77t-160.5 -28q-105 0 -197.5 40t-162.5 109.5t-110.5 163t-40.5 200.5q0 103 40 196.5t108 163.5t158.5 111.5t192.5 41.5
q96 0 182 -36t150 -98t101.5 -145t37.5 -177q0 -77 -13.5 -112.5t-56.5 -35.5h-622q4 -43 26.5 -77t54.5 -58t70.5 -36.5t75.5 -12.5zM797 590q-2 38 -19 71.5t-46 59t-67.5 40t-83.5 14.5q-37 0 -73.5 -14.5t-66 -39.5t-49.5 -58.5t-25 -72.5h430zM208 1337q0 35 35 35h725
q36 0 36 -35v-100q0 -12 -9 -26t-27 -14h-725q-35 0 -35 40v100z" />
    <glyph glyph-name="Ebreve" unicode="&#x114;" horiz-adv-x="1284" 
d="M162 1445q0 39 39 39h977q41 0 41 -39v-194q0 -40 -41 -40h-724v-303h552q20 0 32.5 -9.5t12.5 -30.5v-190q0 -20 -12 -29.5t-33 -9.5h-552v-367h743q20 0 31 -10t11 -30v-192q0 -20 -11 -30t-31 -10h-996q-39 0 -39 40v1405zM712 1713q-56 1 -103.5 21.5t-83 54
t-55.5 76t-20 89.5q0 17 11.5 27.5t27.5 10.5h105q14 0 23 -9t9 -22q0 -29 22.5 -51.5t67.5 -22.5q39 0 62 21.5t23 48.5q0 13 6.5 24t23.5 11h102q17 0 31 -9.5t14 -28.5q0 -47 -20.5 -90.5t-56.5 -76.5t-84.5 -53t-104.5 -21z" />
    <glyph glyph-name="ebreve" unicode="&#x115;" horiz-adv-x="1144" 
d="M593 214q43 -1 86 12.5t82 35.5q16 8 30 18.5t25 10.5q16 0 31 -18l74 -118q9 -15 9 -26q0 -15 -10 -26.5t-22 -21.5q-63 -49 -138.5 -77t-160.5 -28q-105 0 -197.5 40t-162.5 109.5t-110.5 163t-40.5 200.5q0 103 40 196.5t108 163.5t158.5 111.5t192.5 41.5
q96 0 182 -36t150 -98t101.5 -145t37.5 -177q0 -77 -13.5 -112.5t-56.5 -35.5h-622q4 -43 26.5 -77t54.5 -58t70.5 -36.5t75.5 -12.5zM797 590q-2 38 -19 71.5t-46 59t-67.5 40t-83.5 14.5q-37 0 -73.5 -14.5t-66 -39.5t-49.5 -58.5t-25 -72.5h430zM589 1209
q-56 1 -103.5 21.5t-83 54t-55.5 76t-20 89.5q0 17 11.5 27.5t27.5 10.5h105q14 0 23 -9t9 -22q0 -29 22.5 -51.5t67.5 -22.5q39 0 62 21.5t23 48.5q0 13 6.5 24t23.5 11h102q17 0 31 -9.5t14 -28.5q0 -47 -20.5 -90.5t-56.5 -76.5t-84.5 -53t-104.5 -21z" />
    <glyph glyph-name="Edotaccent" unicode="&#x116;" horiz-adv-x="1284" 
d="M162 1445q0 39 39 39h977q41 0 41 -39v-194q0 -40 -41 -40h-724v-303h552q20 0 32.5 -9.5t12.5 -30.5v-190q0 -20 -12 -29.5t-33 -9.5h-552v-367h743q20 0 31 -10t11 -30v-192q0 -20 -11 -30t-31 -10h-996q-39 0 -39 40v1405zM556 1792q0 29 11 55t30.5 45.5t45 30.5
t54.5 11q30 0 56 -11t45 -30.5t30 -45.5t11 -55t-11 -55t-30 -45t-45 -30t-56 -11q-29 0 -54.5 11t-45 30t-30.5 45t-11 55z" />
    <glyph glyph-name="edotaccent" unicode="&#x117;" horiz-adv-x="1144" 
d="M593 214q43 -1 86 12.5t82 35.5q16 8 30 18.5t25 10.5q16 0 31 -18l74 -118q9 -15 9 -26q0 -15 -10 -26.5t-22 -21.5q-63 -49 -138.5 -77t-160.5 -28q-105 0 -197.5 40t-162.5 109.5t-110.5 163t-40.5 200.5q0 103 40 196.5t108 163.5t158.5 111.5t192.5 41.5
q96 0 182 -36t150 -98t101.5 -145t37.5 -177q0 -77 -13.5 -112.5t-56.5 -35.5h-622q4 -43 26.5 -77t54.5 -58t70.5 -36.5t75.5 -12.5zM797 590q-2 38 -19 71.5t-46 59t-67.5 40t-83.5 14.5q-37 0 -73.5 -14.5t-66 -39.5t-49.5 -58.5t-25 -72.5h430zM432 1311q0 34 13 63.5
t34.5 51.5t51 34.5t62.5 12.5q34 0 64 -12.5t51.5 -34.5t34 -51.5t12.5 -63.5q0 -33 -12.5 -62.5t-34 -51t-51.5 -34.5t-64 -13q-33 0 -62.5 13t-51 34.5t-34.5 51t-13 62.5z" />
    <glyph glyph-name="Eogonek" unicode="&#x118;" horiz-adv-x="1284" 
d="M162 1445q0 39 39 39h977q41 0 41 -39v-194q0 -40 -41 -40h-724v-303h552q20 0 32.5 -9.5t12.5 -30.5v-190q0 -20 -12 -29.5t-33 -9.5h-552v-367h743q20 0 31 -10t11 -30v-192q0 -20 -11 -30t-31 -10h-996q-39 0 -39 40v1405zM1144 -506q-93 28 -151.5 58t-91.5 62.5
t-45.5 66t-12.5 69.5q0 37 16.5 65.5t41.5 51.5t54.5 42.5t54.5 39t41.5 41t16.5 47.5h168v-42q0 -30 -15.5 -53.5t-39 -43.5t-50.5 -37t-50.5 -34t-39 -35.5t-15.5 -40.5q0 -15 9 -28.5t29.5 -26.5t54 -25.5t82.5 -25.5l10 -3q2 -1 4 -2.5t4 -3.5l2 -3q4 -5 4 -18
q0 -10 -4.5 -28.5t-12.5 -37t-19.5 -34t-25.5 -18.5q-2 -2 -5 -2t-5 -1h-4h-5z" />
    <glyph glyph-name="eogonek" unicode="&#x119;" horiz-adv-x="1144" 
d="M593 214q43 -1 86 12.5t82 35.5q16 8 30 18.5t25 10.5q16 0 31 -18l74 -118q9 -15 9 -26q0 -15 -10 -26.5t-22 -21.5q-63 -49 -138.5 -77t-160.5 -28q-105 0 -197.5 40t-162.5 109.5t-110.5 163t-40.5 200.5q0 103 40 196.5t108 163.5t158.5 111.5t192.5 41.5
q96 0 182 -36t150 -98t101.5 -145t37.5 -177q0 -77 -13.5 -112.5t-56.5 -35.5h-622q4 -43 26.5 -77t54.5 -58t70.5 -36.5t75.5 -12.5zM797 590q-2 38 -19 71.5t-46 59t-67.5 40t-83.5 14.5q-37 0 -73.5 -14.5t-66 -39.5t-49.5 -58.5t-25 -72.5h430zM647 -530
q-93 28 -151.5 58t-91.5 62.5t-45.5 66t-12.5 69.5q0 37 16.5 65.5t41.5 51.5t54.5 42.5t54.5 39t41.5 41t16.5 47.5h168v-42q0 -30 -15.5 -53.5t-39 -43.5t-50.5 -37t-50.5 -34t-39 -35.5t-15.5 -40.5q0 -15 9 -28.5t29.5 -26.5t54 -25.5t82.5 -25.5l10 -3q2 -1 4 -2.5
t4 -3.5l2 -3q4 -5 4 -18q0 -10 -4.5 -28.5t-12.5 -37t-19.5 -34t-25.5 -18.5q-2 -2 -5 -2t-5 -1h-4h-5z" />
    <glyph glyph-name="Ecaron" unicode="&#x11a;" horiz-adv-x="1284" 
d="M162 1445q0 39 39 39h977q41 0 41 -39v-194q0 -40 -41 -40h-724v-303h552q20 0 32.5 -9.5t12.5 -30.5v-190q0 -20 -12 -29.5t-33 -9.5h-552v-367h743q20 0 31 -10t11 -30v-192q0 -20 -11 -30t-31 -10h-996q-39 0 -39 40v1405zM425 1919q-5 2 -8 10.5t-3 14.5q0 10 6 16
l27 27l62 58q7 7 17 7q5 0 8 -2t8 -4l19 -15l154 -155l153 155q8 8 18 13.5t17 5.5q11 0 23 -10.5t23 -21.5l56 -54q5 -5 8 -10t3 -12t-3 -13.5t-7 -10.5l-270 -269q-5 -4 -10.5 -7t-10.5 -3q-7 0 -12 3t-10 7z" />
    <glyph glyph-name="ecaron" unicode="&#x11b;" horiz-adv-x="1144" 
d="M593 214q43 -1 86 12.5t82 35.5q16 8 30 18.5t25 10.5q16 0 31 -18l74 -118q9 -15 9 -26q0 -15 -10 -26.5t-22 -21.5q-63 -49 -138.5 -77t-160.5 -28q-105 0 -197.5 40t-162.5 109.5t-110.5 163t-40.5 200.5q0 103 40 196.5t108 163.5t158.5 111.5t192.5 41.5
q96 0 182 -36t150 -98t101.5 -145t37.5 -177q0 -77 -13.5 -112.5t-56.5 -35.5h-622q4 -43 26.5 -77t54.5 -58t70.5 -36.5t75.5 -12.5zM797 590q-2 38 -19 71.5t-46 59t-67.5 40t-83.5 14.5q-37 0 -73.5 -14.5t-66 -39.5t-49.5 -58.5t-25 -72.5h430zM289 1415q-5 2 -8 10.5
t-3 14.5q0 10 6 16l27 27l62 58q7 7 17 7q5 0 8 -2t8 -4l19 -15l154 -155l153 155q8 8 18 13.5t17 5.5q11 0 23 -10.5t23 -21.5l56 -54q5 -5 8 -10t3 -12t-3 -13.5t-7 -10.5l-270 -269q-5 -4 -10.5 -7t-10.5 -3q-7 0 -12 3t-10 7z" />
    <glyph glyph-name="Gcircumflex" unicode="&#x11c;" horiz-adv-x="1452" 
d="M856 250q57 1 118.5 16.5t109.5 51.5v306q0 41 40 41h178q14 0 26.5 -8.5t12.5 -32.5v-453q0 -27 -21 -44q-45 -31 -97.5 -57.5t-111.5 -46.5t-123.5 -31.5t-131.5 -11.5q-106 0 -204 27.5t-183.5 77t-155.5 119.5t-120 155t-77.5 183t-27.5 204t27 203.5t77 181.5
t119.5 153.5t154.5 118.5t183 76t204 27q135 0 244 -39t203 -110q17 -13 18 -27t-7 -25l-118 -170q-9 -11 -24 -15t-32 9q-59 44 -128 71t-153 27q-104 0 -193 -37t-154 -102t-101.5 -153t-36.5 -189q0 -102 37.5 -192.5t103 -158.5t154 -107.5t190.5 -37.5zM805 2059
q11 9 22 9q9 0 21 -10q67 -67 134.5 -134t134.5 -135q4 -3 7.5 -9.5t3.5 -14.5q0 -10 -11 -21l-56 -55q-10 -10 -22.5 -21t-25.5 -11q-3 0 -10 1.5t-24 18.5l-152 154l-155 -155q-7 -7 -15.5 -12.5t-19.5 -5.5t-22.5 11t-22.5 20l-55 53q-12 12 -11 30q1 5 4 9.5t7 7.5z" />
    <glyph glyph-name="gcircumflex" unicode="&#x11d;" horiz-adv-x="1192" 
d="M790 -20q8 26 11 64.5t3 73.5q-16 -28 -38 -52.5t-52 -43t-67.5 -29t-84.5 -10.5q-104 0 -192.5 39.5t-153 108t-100.5 161t-36 199.5q0 105 36 197t100.5 160t153 107t192.5 39q48 0 88.5 -12.5t75 -32t62 -44t49.5 -49.5l17 73q5 13 8.5 23t9.5 16.5t15 9.5t24 3h115
q21 0 41 -14.5t20 -42.5v-845q0 -120 -39 -212.5t-107.5 -155.5t-161.5 -96t-200 -33q-41 0 -89 6t-95.5 19.5t-91.5 35t-78 51.5q-11 8 -19 21t-8 29q0 9 3 19t11 21l81 108q21 23 40 23q16 0 42 -18q19 -18 44.5 -29.5t52 -18t52 -8.5t46.5 -2q34 0 69.5 9.5t66 27.5
t53 44t31.5 60zM343 486q0 -55 17 -103t48.5 -83.5t76 -56t98.5 -20.5q55 0 100 20t76.5 55t48.5 83t17 104q0 54 -16.5 102.5t-48 85t-76 58t-101.5 21.5q-55 0 -99.5 -21t-75.5 -57.5t-48 -85t-17 -102.5zM545 1537q11 9 22 9q9 0 21 -10q67 -67 134.5 -134t134.5 -135
q4 -3 7.5 -9.5t3.5 -14.5q0 -10 -11 -21l-56 -55q-10 -10 -22.5 -21t-25.5 -11q-3 0 -10 1.5t-24 18.5l-152 154l-155 -155q-7 -7 -15.5 -12.5t-19.5 -5.5t-22.5 11t-22.5 20l-55 53q-12 12 -11 30q1 5 4 9.5t7 7.5z" />
    <glyph glyph-name="Gbreve" unicode="&#x11e;" horiz-adv-x="1452" 
d="M856 250q57 1 118.5 16.5t109.5 51.5v306q0 41 40 41h178q14 0 26.5 -8.5t12.5 -32.5v-453q0 -27 -21 -44q-45 -31 -97.5 -57.5t-111.5 -46.5t-123.5 -31.5t-131.5 -11.5q-106 0 -204 27.5t-183.5 77t-155.5 119.5t-120 155t-77.5 183t-27.5 204t27 203.5t77 181.5
t119.5 153.5t154.5 118.5t183 76t204 27q135 0 244 -39t203 -110q17 -13 18 -27t-7 -25l-118 -170q-9 -11 -24 -15t-32 9q-59 44 -128 71t-153 27q-104 0 -193 -37t-154 -102t-101.5 -153t-36.5 -189q0 -102 37.5 -192.5t103 -158.5t154 -107.5t190.5 -37.5zM835 1713
q-56 1 -103.5 21.5t-83 54t-55.5 76t-20 89.5q0 17 11.5 27.5t27.5 10.5h105q14 0 23 -9t9 -22q0 -29 22.5 -51.5t67.5 -22.5q39 0 62 21.5t23 48.5q0 13 6.5 24t23.5 11h102q17 0 31 -9.5t14 -28.5q0 -47 -20.5 -90.5t-56.5 -76.5t-84.5 -53t-104.5 -21z" />
    <glyph glyph-name="gbreve" unicode="&#x11f;" horiz-adv-x="1192" 
d="M790 -20q8 26 11 64.5t3 73.5q-16 -28 -38 -52.5t-52 -43t-67.5 -29t-84.5 -10.5q-104 0 -192.5 39.5t-153 108t-100.5 161t-36 199.5q0 105 36 197t100.5 160t153 107t192.5 39q48 0 88.5 -12.5t75 -32t62 -44t49.5 -49.5l17 73q5 13 8.5 23t9.5 16.5t15 9.5t24 3h115
q21 0 41 -14.5t20 -42.5v-845q0 -120 -39 -212.5t-107.5 -155.5t-161.5 -96t-200 -33q-41 0 -89 6t-95.5 19.5t-91.5 35t-78 51.5q-11 8 -19 21t-8 29q0 9 3 19t11 21l81 108q21 23 40 23q16 0 42 -18q19 -18 44.5 -29.5t52 -18t52 -8.5t46.5 -2q34 0 69.5 9.5t66 27.5
t53 44t31.5 60zM343 486q0 -55 17 -103t48.5 -83.5t76 -56t98.5 -20.5q55 0 100 20t76.5 55t48.5 83t17 104q0 54 -16.5 102.5t-48 85t-76 58t-101.5 21.5q-55 0 -99.5 -21t-75.5 -57.5t-48 -85t-17 -102.5zM558 1209q-56 1 -103.5 21.5t-83 54t-55.5 76t-20 89.5
q0 17 11.5 27.5t27.5 10.5h105q14 0 23 -9t9 -22q0 -29 22.5 -51.5t67.5 -22.5q39 0 62 21.5t23 48.5q0 13 6.5 24t23.5 11h102q17 0 31 -9.5t14 -28.5q0 -47 -20.5 -90.5t-56.5 -76.5t-84.5 -53t-104.5 -21z" />
    <glyph glyph-name="Gdotaccent" unicode="&#x120;" horiz-adv-x="1452" 
d="M856 250q57 1 118.5 16.5t109.5 51.5v306q0 41 40 41h178q14 0 26.5 -8.5t12.5 -32.5v-453q0 -27 -21 -44q-45 -31 -97.5 -57.5t-111.5 -46.5t-123.5 -31.5t-131.5 -11.5q-106 0 -204 27.5t-183.5 77t-155.5 119.5t-120 155t-77.5 183t-27.5 204t27 203.5t77 181.5
t119.5 153.5t154.5 118.5t183 76t204 27q135 0 244 -39t203 -110q17 -13 18 -27t-7 -25l-118 -170q-9 -11 -24 -15t-32 9q-59 44 -128 71t-153 27q-104 0 -193 -37t-154 -102t-101.5 -153t-36.5 -189q0 -102 37.5 -192.5t103 -158.5t154 -107.5t190.5 -37.5zM709 1816
q0 34 13 63.5t34.5 51.5t51 34.5t62.5 12.5q34 0 64 -12.5t51.5 -34.5t34 -51.5t12.5 -63.5q0 -33 -12.5 -62.5t-34 -51t-51.5 -34.5t-64 -13q-33 0 -62.5 13t-51 34.5t-34.5 51t-13 62.5z" />
    <glyph glyph-name="gdotaccent" unicode="&#x121;" horiz-adv-x="1192" 
d="M790 -20q8 26 11 64.5t3 73.5q-16 -28 -38 -52.5t-52 -43t-67.5 -29t-84.5 -10.5q-104 0 -192.5 39.5t-153 108t-100.5 161t-36 199.5q0 105 36 197t100.5 160t153 107t192.5 39q48 0 88.5 -12.5t75 -32t62 -44t49.5 -49.5l17 73q5 13 8.5 23t9.5 16.5t15 9.5t24 3h115
q21 0 41 -14.5t20 -42.5v-845q0 -120 -39 -212.5t-107.5 -155.5t-161.5 -96t-200 -33q-41 0 -89 6t-95.5 19.5t-91.5 35t-78 51.5q-11 8 -19 21t-8 29q0 9 3 19t11 21l81 108q21 23 40 23q16 0 42 -18q19 -18 44.5 -29.5t52 -18t52 -8.5t46.5 -2q34 0 69.5 9.5t66 27.5
t53 44t31.5 60zM343 486q0 -55 17 -103t48.5 -83.5t76 -56t98.5 -20.5q55 0 100 20t76.5 55t48.5 83t17 104q0 54 -16.5 102.5t-48 85t-76 58t-101.5 21.5q-55 0 -99.5 -21t-75.5 -57.5t-48 -85t-17 -102.5zM406 1311q0 34 13 63.5t34.5 51.5t51 34.5t62.5 12.5
q34 0 64 -12.5t51.5 -34.5t34 -51.5t12.5 -63.5q0 -33 -12.5 -62.5t-34 -51t-51.5 -34.5t-64 -13q-33 0 -62.5 13t-51 34.5t-34.5 51t-13 62.5z" />
    <glyph glyph-name="Gcommaaccent" unicode="&#x122;" horiz-adv-x="1452" 
d="M856 250q57 1 118.5 16.5t109.5 51.5v306q0 41 40 41h178q14 0 26.5 -8.5t12.5 -32.5v-453q0 -27 -21 -44q-45 -31 -97.5 -57.5t-111.5 -46.5t-123.5 -31.5t-131.5 -11.5q-106 0 -204 27.5t-183.5 77t-155.5 119.5t-120 155t-77.5 183t-27.5 204t27 203.5t77 181.5
t119.5 153.5t154.5 118.5t183 76t204 27q135 0 244 -39t203 -110q17 -13 18 -27t-7 -25l-118 -170q-9 -11 -24 -15t-32 9q-59 44 -128 71t-153 27q-104 0 -193 -37t-154 -102t-101.5 -153t-36.5 -189q0 -102 37.5 -192.5t103 -158.5t154 -107.5t190.5 -37.5zM722 -298
q0 33 12.5 62t34 50t50 33t60.5 12q34 0 63 -12t50 -34.5t33 -54t12 -69.5q0 -83 -16.5 -144.5t-39 -102t-47 -60.5t-39.5 -20q-10 0 -24 7t-27 18t-22 23.5t-9 24.5q0 10 7 22.5t15.5 26.5t15 27.5t6.5 24.5v9q-27 4 -51.5 18.5t-43 35.5t-29.5 47.5t-11 55.5z" />
    <glyph glyph-name="gcommaaccent" unicode="&#x123;" horiz-adv-x="1192" 
d="M790 -20q8 26 11 64.5t3 73.5q-16 -28 -38 -52.5t-52 -43t-67.5 -29t-84.5 -10.5q-104 0 -192.5 39.5t-153 108t-100.5 161t-36 199.5q0 105 36 197t100.5 160t153 107t192.5 39q48 0 88.5 -12.5t75 -32t62 -44t49.5 -49.5l17 73q5 13 8.5 23t9.5 16.5t15 9.5t24 3h115
q21 0 41 -14.5t20 -42.5v-845q0 -120 -39 -212.5t-107.5 -155.5t-161.5 -96t-200 -33q-41 0 -89 6t-95.5 19.5t-91.5 35t-78 51.5q-11 8 -19 21t-8 29q0 9 3 19t11 21l81 108q21 23 40 23q16 0 42 -18q19 -18 44.5 -29.5t52 -18t52 -8.5t46.5 -2q34 0 69.5 9.5t66 27.5
t53 44t31.5 60zM343 486q0 -55 17 -103t48.5 -83.5t76 -56t98.5 -20.5q55 0 100 20t76.5 55t48.5 83t17 104q0 54 -16.5 102.5t-48 85t-76 58t-101.5 21.5q-55 0 -99.5 -21t-75.5 -57.5t-48 -85t-17 -102.5zM759.016 1274.96q0 -32.9961 -12.498 -61.9932
q-12.499 -28.9961 -33.9961 -49.9932q-21.498 -20.998 -49.9941 -32.9961q-28.4961 -11.999 -60.4922 -11.999q-33.9961 0 -62.9922 11.999q-28.9971 11.998 -49.9941 34.4961q-20.998 22.4971 -32.9961 53.9932q-11.999 31.4961 -11.999 69.4912q0 82.9902 16.498 144.482
t38.9951 101.987q22.498 40.4951 46.9951 60.4932q24.4971 19.9971 39.4951 19.9971q9.99805 0 23.9971 -6.99902q13.998 -6.99902 26.9961 -17.998q12.999 -10.998 21.9971 -23.4971q8.99902 -12.498 8.99902 -24.4971q0 -9.99805 -6.99902 -22.4971
q-6.99902 -12.498 -15.498 -26.4961q-8.49902 -13.999 -14.998 -27.4971t-6.49902 -24.4971v-8.99902q26.9971 -3.99902 51.4932 -18.498q24.4971 -14.498 42.9951 -35.4951q18.498 -20.998 29.4961 -47.4941q10.999 -26.4971 10.999 -55.4932z" />
    <glyph glyph-name="Hcircumflex" unicode="&#x124;" horiz-adv-x="1586" 
d="M1120 641h-666v-600q0 -20 -10 -30.5t-33 -10.5h-210q-39 0 -39 41v1402q0 17 9.5 29t29.5 12h216q12 0 24.5 -8t12.5 -31v-523h666v521q0 17 9 29t29 12h216q13 0 25 -8t12 -31v-1404q0 -20 -9.5 -30.5t-32.5 -10.5h-211q-38 0 -38 41v600zM753 2059q11 9 22 9
q9 0 21 -10q67 -67 134.5 -134t134.5 -135q4 -3 7.5 -9.5t3.5 -14.5q0 -10 -11 -21l-56 -55q-10 -10 -22.5 -21t-25.5 -11q-3 0 -10 1.5t-24 18.5l-152 154l-155 -155q-7 -7 -15.5 -12.5t-19.5 -5.5t-22.5 11t-22.5 20l-55 53q-12 12 -11 30q1 5 4 9.5t7 7.5z" />
    <glyph glyph-name="hcircumflex" unicode="&#x125;" horiz-adv-x="1254" 
d="M425 864q16 25 49 48.5t75 42.5t90 30.5t95 11.5q91 0 162 -32.5t120.5 -89.5t76.5 -133.5t30 -164.5v-11t1 -11v-504q0 -25 -14 -38t-35 -13h-166q-27 0 -37.5 12t-10.5 37v505q0 40 -15 75.5t-40.5 62t-60.5 42t-75 15.5q-37 0 -80 -15.5t-79.5 -42t-61 -62.5
t-24.5 -76v-509q-1 -28 -21 -36t-41 -8h-149q-52 0 -52 47v1390q0 21 12 34.5t37 13.5h163q22 0 36.5 -11t14.5 -37v-573zM744 1517q11 9 22 9q9 0 21 -10q67 -67 134.5 -134t134.5 -135q4 -3 7.5 -9.5t3.5 -14.5q0 -10 -11 -21l-56 -55q-10 -10 -22.5 -21t-25.5 -11
q-3 0 -10 1.5t-24 18.5l-152 154l-155 -155q-7 -7 -15.5 -12.5t-19.5 -5.5t-22.5 11t-22.5 20l-55 53q-12 12 -11 30q1 5 4 9.5t7 7.5z" />
    <glyph glyph-name="Hbar" unicode="&#x126;" horiz-adv-x="1550" 
d="M458 1169h660v262q0 23 15 38.5t40 15.5h184q23 0 40.5 -14t17.5 -39v-1378q0 -26 -15 -40t-41 -14h-186q-26 0 -40.5 14t-14.5 40v461h-660v-461q0 -54 -59 -54h-185q-50 0 -52 51v1380q0 22 13.5 38t38.5 16h188q20 0 38 -15.5t18 -38.5v-262zM1118 920h-660v-146h660
v146z" />
    <glyph glyph-name="hbar" unicode="&#x127;" horiz-adv-x="1254" 
d="M425 46q0 -29 -20 -37.5t-42 -8.5h-149q-52 0 -52 47v1050h-116q-44 0 -44 49v106q0 44 44 44h116v140q0 21 12 34.5t37 13.5h161q21 0 37 -11.5t16 -36.5v-140h124q18 0 31 -11.5t13 -32.5v-106q0 -15 -12 -32t-32 -17h-124v-233q20 23 55.5 46.5t78.5 43t88.5 31.5
t86.5 12q91 0 162 -32.5t120.5 -89.5t76.5 -133.5t30 -164.5q1 -27 1 -54.5v-55.5v-416q0 -25 -14 -38t-35 -13h-166q-27 0 -37.5 12t-10.5 37v505q0 34 -14 62q-7 29 -24 53.5t-40.5 42t-52.5 27.5t-60 10q-36 0 -77.5 -14t-77.5 -39t-61.5 -59t-28.5 -74v-517v0z" />
    <glyph glyph-name="Itilde" unicode="&#x128;" horiz-adv-x="618" 
d="M162 1443q0 41 40 41h216q39 0 39 -41v-1402q0 -41 -39 -41h-216q-40 0 -40 41v1402zM48 1665q-6 -2 -10 -2q-3 0 -7 2q-5 3 -20.5 15t-32 27t-29.5 30t-13 24q0 4 4 10.5t9 13.5l20 26q39 51 89 76t108 25q34 -2 70 -14.5t68 -33.5l55 -36q27 -18 52 -18q42 0 70 29
q5 6 11.5 14.5t13.5 17t14.5 14.5t16.5 6q8 0 19 -8l74 -71q10 -11 10 -23q0 -5 -3.5 -12t-5.5 -9l-28 -35q-39 -45 -87 -68.5t-105 -23.5q-36 0 -71.5 12.5t-66.5 34.5q-13 9 -26.5 18.5t-28 17.5t-28.5 13.5t-28 5.5q-27 0 -42 -10.5t-26 -24t-21 -26.5t-25 -17z" />
    <glyph glyph-name="itilde" unicode="&#x129;" horiz-adv-x="576" 
d="M415 47q0 -47 -50 -47h-174q-47 0 -47 47v888q0 20 12 34t35 14h174q18 0 34 -13.5t16 -34.5v-888zM27 1161q-6 -2 -10 -2q-3 0 -7 2q-5 3 -20.5 15t-32 27t-29.5 30t-13 24q0 4 4 10.5t9 13.5l20 26q39 51 89 76t108 25q34 -2 70 -14.5t68 -33.5l55 -36q27 -18 52 -18
q42 0 70 29q5 6 11.5 14.5t13.5 17t14.5 14.5t16.5 6q8 0 19 -8l74 -71q10 -11 10 -23q0 -5 -3.5 -12t-5.5 -9l-28 -35q-39 -45 -87 -68.5t-105 -23.5q-36 0 -71.5 12.5t-66.5 34.5q-13 9 -26.5 18.5t-28 17.5t-28.5 13.5t-28 5.5q-27 0 -42 -10.5t-26 -24t-21 -26.5
t-25 -17z" />
    <glyph glyph-name="Imacron" unicode="&#x12a;" horiz-adv-x="618" 
d="M162 1443q0 41 40 41h216q39 0 39 -41v-1402q0 -41 -39 -41h-216q-40 0 -40 41v1402zM-88 1841q0 35 35 35h725q36 0 36 -35v-100q0 -12 -9 -26t-27 -14h-725q-35 0 -35 40v100z" />
    <glyph glyph-name="imacron" unicode="&#x12b;" horiz-adv-x="576" 
d="M415 47q0 -47 -50 -47h-174q-47 0 -47 47v888q0 20 12 34t35 14h174q18 0 34 -13.5t16 -34.5v-888zM-148 1337q0 35 35 35h725q36 0 36 -35v-100q0 -12 -9 -26t-27 -14h-725q-35 0 -35 40v100z" />
    <glyph glyph-name="Ibreve" unicode="&#x12c;" horiz-adv-x="618" 
d="M162 1443q0 41 40 41h216q39 0 39 -41v-1402q0 -41 -39 -41h-216q-40 0 -40 41v1402zM272 1713q-56 1 -103.5 21.5t-83 54t-55.5 76t-20 89.5q0 17 11.5 27.5t27.5 10.5h105q14 0 23 -9t9 -22q0 -29 22.5 -51.5t67.5 -22.5q39 0 62 21.5t23 48.5q0 13 6.5 24t23.5 11h102
q17 0 31 -9.5t14 -28.5q0 -47 -20.5 -90.5t-56.5 -76.5t-84.5 -53t-104.5 -21z" />
    <glyph glyph-name="ibreve" unicode="&#x12d;" horiz-adv-x="576" 
d="M415 47q0 -47 -50 -47h-174q-47 0 -47 47v888q0 20 12 34t35 14h174q18 0 34 -13.5t16 -34.5v-888zM251 1209q-56 1 -103.5 21.5t-83 54t-55.5 76t-20 89.5q0 17 11.5 27.5t27.5 10.5h105q14 0 23 -9t9 -22q0 -29 22.5 -51.5t67.5 -22.5q39 0 62 21.5t23 48.5
q0 13 6.5 24t23.5 11h102q17 0 31 -9.5t14 -28.5q0 -47 -20.5 -90.5t-56.5 -76.5t-84.5 -53t-104.5 -21z" />
    <glyph glyph-name="Iogonek" unicode="&#x12e;" horiz-adv-x="618" 
d="M162 1443q0 41 40 41h216q39 0 39 -41v-1402q0 -41 -39 -41h-216q-40 0 -40 41v1402zM298 -530q-93 28 -151.5 58t-91.5 62.5t-45.5 66t-12.5 69.5q0 37 16.5 65.5t41.5 51.5t54.5 42.5t54.5 39t41.5 41t16.5 47.5h168v-42q0 -30 -15.5 -53.5t-39 -43.5t-50.5 -37
t-50.5 -34t-39 -35.5t-15.5 -40.5q0 -15 9 -28.5t29.5 -26.5t54 -25.5t82.5 -25.5l10 -3q2 -1 4 -2.5t4 -3.5l2 -3q4 -5 4 -18q0 -10 -4.5 -28.5t-12.5 -37t-19.5 -34t-25.5 -18.5q-2 -2 -5 -2t-5 -1h-4h-5z" />
    <glyph glyph-name="iogonek" unicode="&#x12f;" horiz-adv-x="618" 
d="M415 47q0 -47 -50 -47h-174q-47 0 -47 47v888q0 20 12 34t35 14h174q18 0 34 -13.5t16 -34.5v-888zM119 1275q0 32 12 60t33 49t48.5 33t59.5 12q33 0 61 -12t49 -33t32.5 -49t11.5 -60t-11.5 -59.5t-32.5 -48.5t-49 -33t-61 -12q-32 0 -59.5 12t-48.5 33t-33 48.5
t-12 59.5zM268 -528q-93 28 -151.5 58t-91.5 62.5t-45.5 66t-12.5 69.5q0 37 16.5 65.5t41.5 51.5t54.5 42.5t54.5 39t41.5 41t16.5 47.5h168v-42q0 -30 -15.5 -53.5t-39 -43.5t-50.5 -37t-50.5 -34t-39 -35.5t-15.5 -40.5q0 -15 9 -28.5t29.5 -26.5t54 -25.5t82.5 -25.5
l10 -3q2 -1 4 -2.5t4 -3.5l2 -3q4 -5 4 -18q0 -10 -4.5 -28.5t-12.5 -37t-19.5 -34t-25.5 -18.5q-2 -2 -5 -2t-5 -1h-4h-5z" />
    <glyph glyph-name="Idotaccent" unicode="&#x130;" horiz-adv-x="618" 
d="M162 1443q0 41 40 41h216q39 0 39 -41v-1402q0 -41 -39 -41h-216q-40 0 -40 41v1402zM140 1815q0 34 13 63.5t34.5 51.5t51 34.5t62.5 12.5q34 0 64 -12.5t51.5 -34.5t34 -51.5t12.5 -63.5q0 -33 -12.5 -62.5t-34 -51t-51.5 -34.5t-64 -13q-33 0 -62.5 13t-51 34.5
t-34.5 51t-13 62.5z" />
    <glyph glyph-name="dotlessi" unicode="&#x131;" horiz-adv-x="576" 
d="M415 47q0 -47 -50 -47h-174q-47 0 -47 47v888q0 20 12 34t35 14h174q18 0 34 -13.5t16 -34.5v-888z" />
    <glyph glyph-name="IJ" unicode="&#x132;" horiz-adv-x="1198" 
d="M162 1443q0 41 40 41h212q39 0 39 -41v-1402q0 -41 -39 -41h-212q-40 0 -40 41v1402zM768 1446q0 12 4 20t10 12.5t12.5 6t11.5 1.5h208q26 0 35.5 -10.5t9.5 -36.5v-1352q0 -29 -1.5 -59t-4.5 -58q-12 -75 -51 -141.5t-97.5 -116t-132.5 -78t-156 -28.5q-42 0 -88 9
t-90 27t-83 45.5t-69 63.5q-4 6 -10.5 15t-10.5 20t-3.5 22t10.5 20l124 116q13 12 23.5 14t19.5 -1.5t17 -10.5t15 -13q23 -20 53.5 -36t75.5 -16q35 0 65.5 13t53.5 35t36 51t13 60v1406z" />
    <glyph glyph-name="ij" unicode="&#x133;" horiz-adv-x="1097" 
d="M556 -411q-26 0 -40 14t-14 38v132q0 23 13.5 36.5t35.5 13.5h5q25 1 47 12t38.5 29.5t26 43t9.5 51.5v972q0 25 15 38t38 13h158q24 0 38.5 -14t14.5 -37v-910q0 -23 -1 -46t-3 -45q-7 -75 -38.5 -137t-82 -107t-117 -70.5t-143.5 -26.5zM652 1275q0 32 12 60t33 49
t48.5 33t59.5 12q33 0 61 -12t49 -33t32.5 -49t11.5 -60t-11.5 -59.5t-32.5 -48.5t-49 -33t-61 -12q-32 0 -59.5 12t-48.5 33t-33 48.5t-12 59.5zM417 47q0 -47 -50 -47h-174q-47 0 -47 47v888q0 20 12 34t35 14h174q18 0 34 -13.5t16 -34.5v-888zM121 1275q0 32 12 60
t33 49t48.5 33t59.5 12q33 0 61 -12t49 -33t32.5 -49t11.5 -60t-11.5 -59.5t-32.5 -48.5t-49 -33t-61 -12q-32 0 -59.5 12t-48.5 33t-33 48.5t-12 59.5z" />
    <glyph glyph-name="Jcircumflex" unicode="&#x134;" horiz-adv-x="910" 
d="M343 -22q-99 0 -187.5 40.5t-157.5 114.5q-16 16 -11.5 29.5t12.5 21.5l117 130q21 23 35.5 22.5t23.5 -7.5q11 -8 24 -20t31.5 -23t43.5 -19t59 -8q28 0 53.5 11t44.5 29.5t30 43t11 52.5v1038q0 23 13 37.5t38 14.5h188q26 0 41.5 -15t15.5 -43v-989
q0 -117 -37.5 -203.5t-98 -143.5t-136.5 -85t-153 -28zM602 2059q11 9 22 9q9 0 21 -10q67 -67 134.5 -134t134.5 -135q4 -3 7.5 -9.5t3.5 -14.5q0 -10 -11 -21l-56 -55q-10 -10 -22.5 -21t-25.5 -11q-3 0 -10 1.5t-24 18.5l-152 154l-155 -155q-7 -7 -15.5 -12.5
t-19.5 -5.5t-22.5 11t-22.5 20l-55 53q-12 12 -11 30q1 5 4 9.5t7 7.5z" />
    <glyph glyph-name="jcircumflex" unicode="&#x135;" horiz-adv-x="565" 
d="M265 1549q11 9 22 9q9 0 21 -10q67 -67 134.5 -134t134.5 -135q4 -3 7.5 -9.5t3.5 -14.5q0 -10 -11 -21l-56 -55q-10 -10 -22.5 -21t-25.5 -11q-3 0 -10 1.5t-24 18.5l-152 154l-155 -155q-7 -7 -15.5 -12.5t-19.5 -5.5t-22.5 11t-22.5 20l-55 53q-12 12 -11 30
q1 5 4 9.5t7 7.5zM25 -407q-26 0 -40 14t-14 38v128q0 23 13.5 36.5t35.5 13.5h5q25 1 47 12t38.5 29.5t26 43t9.5 51.5v972q0 25 15 38t38 13h158q24 0 38.5 -14t14.5 -37v-910q0 -23 -1 -46t-3 -45q-7 -75 -38.5 -136.5t-82 -106t-117 -69t-143.5 -25.5z" />
    <glyph glyph-name="Kcommaaccent" unicode="&#x136;" horiz-adv-x="1504" 
d="M830 854l618 -808q14 -18 8.5 -32t-25.5 -14h-291q-17 0 -29 10t-25 26l-451 596l-181 -194v-397q0 -41 -38 -41h-215q-39 0 -39 41v1403q0 19 10.5 30t28.5 11h212q11 0 26 -10.5t15 -30.5v-618l555 630q18 20 31.5 24.5t30.5 4.5h258q22 0 24.5 -16t-9.5 -30zM594 -239
q0 33 12.5 62t34 50t50 33t60.5 12q34 0 63 -12t50 -34.5t33 -54t12 -69.5q0 -83 -16.5 -144.5t-39 -102t-47 -60.5t-39.5 -20q-10 0 -24 7t-27 18t-22 23.5t-9 24.5q0 10 7 22.5t15.5 26.5t15 27.5t6.5 24.5v9q-27 4 -51.5 18.5t-43 35.5t-29.5 47.5t-11 55.5z" />
    <glyph glyph-name="kcommaaccent" unicode="&#x137;" horiz-adv-x="1141" 
d="M148 1426q0 26 8 42.5t37 16.5h176q30 0 39.5 -15t9.5 -36v-787l277 308q19 22 48 22h236q20 0 31 -9t11 -24q-1 -8 -3 -14t-11 -15l-316 -334l398 -511h-2q10 -10 14.5 -20.5t4.5 -18.5q0 -18 -9.5 -24.5t-29.5 -6.5h-260q-13 0 -24.5 10t-25.5 30l-251 356l-86 -88
v-256q0 -6 -1.5 -15t-6 -17.5t-13.5 -14t-25 -5.5h-175q-29 0 -40 14t-11 37v1375zM427 -298q0 33 12.5 62t34 50t50 33t60.5 12q34 0 63 -12t50 -34.5t33 -54t12 -69.5q0 -83 -16.5 -144.5t-39 -102t-47 -60.5t-39.5 -20q-10 0 -24 7t-27 18t-22 23.5t-9 24.5q0 10 7 22.5
t15.5 26.5t15 27.5t6.5 24.5v9q-27 4 -51.5 18.5t-43 35.5t-29.5 47.5t-11 55.5z" />
    <glyph glyph-name="kgreenlandic" unicode="&#x138;" horiz-adv-x="1141" 
d="M148 923q0 13 1 24t6.5 18.5t17.5 12t35 4.5h167q15 0 24.5 -5t15 -13t7.5 -17t2 -16v-284l277 308q19 22 48 22h236q20 0 31 -9t11 -24q-1 -8 -3 -14t-11 -15l-316 -334l398 -511h-2q10 -10 14.5 -20.5t4.5 -18.5q0 -18 -9.5 -24.5t-29.5 -6.5h-260q-13 0 -24.5 10
t-25.5 30l-251 356l-86 -88v-249q0 -6 -2 -16t-7.5 -19.5t-15.5 -16.5t-26 -7h-176q-14 0 -24 7.5t-16 17t-8.5 17.5t-2.5 9v872z" />
    <glyph glyph-name="Lacute" unicode="&#x139;" horiz-adv-x="1148" 
d="M162 1443q0 18 12.5 31t33.5 13h204q41 0 44 -44v-1170h585q18 0 31 -12.5t13 -33.5v-183q0 -41 -44 -44h-835q-44 0 -44 44v1399zM409 1720q-19 -42 -53 -42h-143q-20 0 -26.5 6.5t-6.5 19.5q1 15 11 38l88 205q12 22 23.5 32t30.5 10h150q13 0 20.5 -4.5t7.5 -16.5
q0 -7 -2 -15.5t-9 -22.5z" />
    <glyph glyph-name="lacute" unicode="&#x13a;" horiz-adv-x="565" 
d="M152 1441q0 21 11.5 32.5t30.5 11.5h187q20 0 31.5 -12.5t11.5 -31.5v-1397q0 -20 -11 -32t-32 -12h-187q-42 0 -42 44v1397zM412 1649q-19 -42 -53 -42h-143q-20 0 -26.5 6.5t-6.5 19.5q1 15 11 38l88 205q12 22 23.5 32t30.5 10h150q13 0 20.5 -4.5t7.5 -16.5
q0 -7 -2 -15.5t-9 -22.5z" />
    <glyph glyph-name="Lcommaaccent" unicode="&#x13b;" horiz-adv-x="1148" 
d="M162 1443q0 18 12.5 31t33.5 13h204q41 0 44 -44v-1170h585q18 0 31 -12.5t13 -33.5v-183q0 -41 -44 -44h-835q-44 0 -44 44v1399zM484 -298q0 33 12.5 62t34 50t50 33t60.5 12q34 0 63 -12t50 -34.5t33 -54t12 -69.5q0 -83 -16.5 -144.5t-39 -102t-47 -60.5t-39.5 -20
q-10 0 -24 7t-27 18t-22 23.5t-9 24.5q0 10 7 22.5t15.5 26.5t15 27.5t6.5 24.5v9q-27 4 -51.5 18.5t-43 35.5t-29.5 47.5t-11 55.5z" />
    <glyph glyph-name="lcommaaccent" unicode="&#x13c;" horiz-adv-x="565" 
d="M150 1441q0 21 11.5 32.5t30.5 11.5h187q20 0 31.5 -12.5t11.5 -31.5v-1397q0 -20 -11 -32t-32 -12h-187q-42 0 -42 44v1397zM139 -298q0 33 12.5 62t34 50t50 33t60.5 12q34 0 63 -12t50 -34.5t33 -54t12 -69.5q0 -83 -16.5 -144.5t-39 -102t-47 -60.5t-39.5 -20
q-10 0 -24 7t-27 18t-22 23.5t-9 24.5q0 10 7 22.5t15.5 26.5t15 27.5t6.5 24.5v9q-27 4 -51.5 18.5t-43 35.5t-29.5 47.5t-11 55.5z" />
    <glyph glyph-name="Lcaron" unicode="&#x13d;" horiz-adv-x="1148" 
d="M162 1443q0 18 12.5 31t33.5 13h204q41 0 44 -44v-1170h585q18 0 31 -12.5t13 -33.5v-183q0 -41 -44 -44h-835q-44 0 -44 44v1399zM640 1426q0 35 13 65.5t35.5 52.5t52.5 34.5t64 12.5q36 0 66 -13t52.5 -36t35 -56t12.5 -73q0 -84 -17.5 -146.5t-42 -104t-50 -62
t-41.5 -20.5q-11 0 -18.5 3t-14.5 8l-49 37q-12 9 -12 27q0 16 11 27l13 19q7 8 14.5 24.5t7.5 37.5q-27 5 -51 20.5t-42 37.5t-28.5 49t-10.5 56z" />
    <glyph glyph-name="lcaron" unicode="&#x13e;" horiz-adv-x="604" 
d="M150 1441q0 21 11.5 32.5t30.5 11.5h187q20 0 31.5 -12.5t11.5 -31.5v-1397q0 -20 -11 -32t-32 -12h-187q-42 0 -42 44v1397zM437.725 1507.29q0 31.3926 11.6699 58.748t31.8691 47.0879q20.1982 19.7314 47.1289 30.9434q26.9316 11.2109 57.4531 11.2109
q32.3174 0 59.249 -11.6592q26.9307 -11.6602 47.1289 -32.2891t31.4199 -50.2275q11.2217 -29.5977 11.2217 -65.4746q0 -75.3398 -15.71 -131.397q-15.71 -56.0566 -37.7041 -93.2783q-21.9932 -37.2217 -44.8848 -55.6084t-37.2549 -18.3867q-9.875 0 -16.6074 2.69043
q-6.7334 2.69043 -13.0166 7.17578l-43.9883 33.1855q-10.7715 8.07227 -10.7715 24.2168q0 14.3506 9.87402 24.2158l11.6709 17.042q6.2832 7.1748 13.0166 21.9736q6.73242 14.7998 6.73242 33.6348q-24.2383 4.48438 -45.7832 18.3867t-37.7031 33.6338
q-16.1592 19.7324 -25.585 43.9492t-9.42578 50.2266z" />
    <glyph glyph-name="Ldot" unicode="&#x13f;" horiz-adv-x="1148" 
d="M162 1443q0 18 12.5 31t33.5 13h204q41 0 44 -44v-1170h585q18 0 31 -12.5t13 -33.5v-183q0 -41 -44 -44h-835q-44 0 -44 44v1399zM661 746q0 34 13 63.5t34.5 51.5t51 34.5t62.5 12.5q35 0 65 -12.5t51.5 -34.5t33.5 -51.5t12 -63.5q0 -33 -12 -62.5t-33.5 -51
t-51.5 -34.5t-65 -13q-33 0 -62.5 13t-51 34.5t-34.5 51t-13 62.5z" />
    <glyph glyph-name="ldot" unicode="&#x140;" horiz-adv-x="685" 
d="M145 1441q0 21 11.5 32.5t30.5 11.5h187q20 0 31.5 -12.5t11.5 -31.5v-1397q0 -20 -11 -32t-32 -12h-187q-42 0 -42 44v1397zM469 705q0 34 13 63.5t34.5 51.5t51 34.5t62.5 12.5q35 0 65 -12.5t51.5 -34.5t33.5 -51.5t12 -63.5q0 -33 -12 -62.5t-33.5 -51t-51.5 -34.5
t-65 -13q-33 0 -62.5 13t-51 34.5t-34.5 51t-13 62.5z" />
    <glyph glyph-name="Lslash" unicode="&#x141;" horiz-adv-x="1359" 
d="M1244 274q21 0 36.5 -14.5t15.5 -39.5v-165q0 -23 -14.5 -39t-37.5 -16h-829q-52 0 -52 54v550q-12 -4 -24.5 -8.5t-23.5 -9.5l-60 -22q-6 -3 -18 -3t-19 4t-12 11.5t-9 19t-11 26.5l-4 10q-8 17 -14 34t-6 31t8 24.5t22 15.5q44 17 85 32t86 31v633q0 23 14.5 38.5
t38.5 15.5h198q23 0 39 -14t16 -40v-527q40 14 79.5 28.5t80.5 28.5q1 0 2.5 0.5t2.5 0.5q9 -1 19.5 -8t16.5 -20l10 -23q9 -21 17.5 -44t8.5 -41q0 -11 -9.5 -22t-20.5 -17l-104 -39q-28 -11 -52.5 -21t-50.5 -18v-437h575z" />
    <glyph glyph-name="lslash" unicode="&#x142;" horiz-adv-x="565" 
d="M149 822v605q0 25 14.5 41t41.5 16h159q20 0 39 -15.5t19 -41.5v-509l120 42q6 2 10 2q16 0 19 -20l2 -113q0 -14 -8.5 -24.5t-21.5 -15.5l-121 -43v-691q0 -26 -16 -40.5t-42 -14.5h-159q-56 0 -56 55v594l-128 -45q-8 -3 -14 -3q-18 0 -18 23l-2 113q1 13 8.5 23.5
t24.5 16.5z" />
    <glyph glyph-name="Nacute" unicode="&#x143;" horiz-adv-x="1586" 
d="M162 1441q0 18 11 31t33 13h235q15 0 32.5 -8t25.5 -23l657 -946v946q7 18 20 24.5t24 6.5h202q15 0 32 -12t17 -32v-1397q0 -44 -49 -44h-197q-25 0 -35.5 9.5t-22.5 23.5l-695 1000v-989q3 -44 -44 -44h-202q-44 0 -44 44v1397zM956 1720q-19 -42 -53 -42h-143
q-20 0 -26.5 6.5t-6.5 19.5q1 15 11 38l88 205q12 22 23.5 32t30.5 10h150q13 0 20.5 -4.5t7.5 -16.5q0 -7 -2 -15.5t-9 -22.5z" />
    <glyph glyph-name="nacute" unicode="&#x144;" horiz-adv-x="1254" 
d="M331 982q30 0 45 -10t22.5 -27.5t11 -40.5t10.5 -49q23 26 54.5 51t70 44.5t83 31.5t93.5 12q93 0 165.5 -29.5t122 -82t75.5 -125t26 -158.5v-550q0 -28 -12 -38.5t-36 -10.5h-184q-16 0 -25 2t-13.5 7.5t-6 14.5t-1.5 23v506q0 40 -13.5 73.5t-38 56.5t-57.5 36t-72 13
q-32 0 -67 -13.5t-65 -37t-51.5 -55t-27.5 -67.5v-514q0 -26 -9.5 -35.5t-39.5 -9.5h-181q-29 0 -38.5 10.5t-9.5 34.5v877q0 29 15 44.5t46 15.5h108v0zM740 1212q-19 -42 -53 -42h-143q-20 0 -26.5 6.5t-6.5 19.5q1 15 11 38l88 205q12 22 23.5 32t30.5 10h150
q13 0 20.5 -4.5t7.5 -16.5q0 -7 -2 -15.5t-9 -22.5z" />
    <glyph glyph-name="Ncommaaccent" unicode="&#x145;" horiz-adv-x="1586" 
d="M162 1441q0 18 11 31t33 13h235q15 0 32.5 -8t25.5 -23l657 -946v946q7 18 20 24.5t24 6.5h202q15 0 32 -12t17 -32v-1397q0 -44 -49 -44h-197q-25 0 -35.5 9.5t-22.5 23.5l-695 1000v-989q3 -44 -44 -44h-202q-44 0 -44 44v1397zM659 -298q0 33 12.5 62t34 50t50 33
t60.5 12q34 0 63 -12t50 -34.5t33 -54t12 -69.5q0 -83 -16.5 -144.5t-39 -102t-47 -60.5t-39.5 -20q-10 0 -24 7t-27 18t-22 23.5t-9 24.5q0 10 7 22.5t15.5 26.5t15 27.5t6.5 24.5v9q-27 4 -51.5 18.5t-43 35.5t-29.5 47.5t-11 55.5z" />
    <glyph glyph-name="ncommaaccent" unicode="&#x146;" horiz-adv-x="1254" 
d="M331 982q30 0 45 -10t22.5 -27.5t11 -40.5t10.5 -49q23 26 54.5 51t70 44.5t83 31.5t93.5 12q93 0 165.5 -29.5t122 -82t75.5 -125t26 -158.5v-550q0 -28 -12 -38.5t-36 -10.5h-184q-16 0 -25 2t-13.5 7.5t-6 14.5t-1.5 23v506q0 40 -13.5 73.5t-38 56.5t-57.5 36t-72 13
q-32 0 -67 -13.5t-65 -37t-51.5 -55t-27.5 -67.5v-514q0 -26 -9.5 -35.5t-39.5 -9.5h-181q-29 0 -38.5 10.5t-9.5 34.5v877q0 29 15 44.5t46 15.5h108v0zM481 -298q0 33 12.5 62t34 50t50 33t60.5 12q34 0 63 -12t50 -34.5t33 -54t12 -69.5q0 -83 -16.5 -144.5t-39 -102
t-47 -60.5t-39.5 -20q-10 0 -24 7t-27 18t-22 23.5t-9 24.5q0 10 7 22.5t15.5 26.5t15 27.5t6.5 24.5v9q-27 4 -51.5 18.5t-43 35.5t-29.5 47.5t-11 55.5z" />
    <glyph glyph-name="Ncaron" unicode="&#x147;" horiz-adv-x="1586" 
d="M162 1441q0 18 11 31t33 13h235q15 0 32.5 -8t25.5 -23l657 -946v946q7 18 20 24.5t24 6.5h202q15 0 32 -12t17 -32v-1397q0 -44 -49 -44h-197q-25 0 -35.5 9.5t-22.5 23.5l-695 1000v-989q3 -44 -44 -44h-202q-44 0 -44 44v1397zM507 1919q-5 2 -8 10.5t-3 14.5
q0 10 6 16l27 27l62 58q7 7 17 7q5 0 8 -2t8 -4l19 -15l154 -155l153 155q8 8 18 13.5t17 5.5q11 0 23 -10.5t23 -21.5l56 -54q5 -5 8 -10t3 -12t-3 -13.5t-7 -10.5l-270 -269q-5 -4 -10.5 -7t-10.5 -3q-7 0 -12 3t-10 7z" />
    <glyph glyph-name="ncaron" unicode="&#x148;" horiz-adv-x="1254" 
d="M331 982q30 0 45 -10t22.5 -27.5t11 -40.5t10.5 -49q23 26 54.5 51t70 44.5t83 31.5t93.5 12q93 0 165.5 -29.5t122 -82t75.5 -125t26 -158.5v-550q0 -28 -12 -38.5t-36 -10.5h-184q-16 0 -25 2t-13.5 7.5t-6 14.5t-1.5 23v506q0 40 -13.5 73.5t-38 56.5t-57.5 36t-72 13
q-32 0 -67 -13.5t-65 -37t-51.5 -55t-27.5 -67.5v-514q0 -26 -9.5 -35.5t-39.5 -9.5h-181q-29 0 -38.5 10.5t-9.5 34.5v877q0 29 15 44.5t46 15.5h108v0zM365 1415q-5 2 -8 10.5t-3 14.5q0 10 6 16l27 27l62 58q7 7 17 7q5 0 8 -2t8 -4l19 -15l154 -155l153 155q8 8 18 13.5
t17 5.5q11 0 23 -10.5t23 -21.5l56 -54q5 -5 8 -10t3 -12t-3 -13.5t-7 -10.5l-270 -269q-5 -4 -10.5 -7t-10.5 -3q-7 0 -12 3t-10 7z" />
    <glyph glyph-name="napostrophe" unicode="&#x149;" horiz-adv-x="1184" 
d="M314 982q30 0 45 -10t22.5 -27.5t11 -40.5t10.5 -49q23 26 54.5 51t70 44.5t83 31.5t93.5 12q93 0 165.5 -29.5t122 -82t75.5 -125t26 -158.5v-550q0 -28 -12 -38.5t-36 -10.5h-184q-16 0 -25 2t-13.5 7.5t-6 14.5t-1.5 23v506q0 40 -13.5 73.5t-38 56.5t-57.5 36t-72 13
q-32 0 -67 -13.5t-65 -37t-51.5 -55t-27.5 -67.5v-514q0 -26 -9.5 -35.5t-39.5 -9.5h-181q-29 0 -38.5 10.5t-9.5 34.5v877q0 29 15 44.5t46 15.5h108v0zM-53 1332q0 33 12.5 62t34 50t50 33t60.5 12q34 0 63 -12t50 -34.5t33 -54t12 -69.5q0 -83 -16.5 -144.5t-39 -102
t-47 -60.5t-39.5 -20q-10 0 -24 7t-27 18t-22 23.5t-9 24.5q0 10 7 22.5t15.5 26.5t15 27.5t6.5 24.5v9q-27 4 -51.5 18.5t-43 35.5t-29.5 47.5t-11 55.5z" />
    <glyph glyph-name="Eng" unicode="&#x14a;" horiz-adv-x="1586" 
d="M162 1446q0 17 9.5 28t29.5 11h233q35 0 60 -37l671 -966v964q1 17 10.5 28t29.5 11h199q15 0 29 -10.5t14 -28.5v-1441q0 -87 -34.5 -166t-94.5 -139.5t-141 -96t-175 -35.5q-42 0 -86 8t-86.5 24.5t-82 43t-72.5 64.5q-5 6 -13 13t-13 16t-4 19.5t13 22.5l129 126
q12 14 22 16t18.5 -1.5t16 -11t14.5 -13.5q23 -20 53.5 -35.5t76.5 -15.5q34 0 64 13t52.5 34.5t35.5 50t14 59.5v13l-710 1038v-1012q0 -40 -43 -40h-200q-39 0 -39 40v1406z" />
    <glyph glyph-name="eng" unicode="&#x14b;" horiz-adv-x="1254" 
d="M331 982q30 0 45 -10t22.5 -27.5t11 -40.5t10.5 -49q23 26 53 51t66.5 44.5t79.5 31.5t92 12q93 0 165.5 -29.5t122 -82t75.5 -125t26 -158.5v-650q0 -81 -30 -145.5t-81.5 -109t-121.5 -68t-150 -23.5q-30 0 -46.5 17.5t-16.5 46.5v136q0 26 13.5 43t39.5 17
q52 0 83.5 26.5t31.5 84.5v579q0 40 -13.5 73.5t-38 56.5t-57.5 36t-72 13q-32 0 -65.5 -13.5t-61.5 -37t-48 -55t-26 -67.5v-504q0 -55 -59 -55h-161q-29 0 -43.5 15.5t-14.5 39.5v867q0 29 15 44.5t46 15.5h108v0z" />
    <glyph glyph-name="Omacron" unicode="&#x14c;" horiz-adv-x="1706" 
d="M1614 743q0 -106 -27.5 -203.5t-77 -182t-119.5 -154t-155 -119.5t-183 -77t-203 -27q-106 0 -203.5 27t-182 77t-153.5 119.5t-118.5 154t-76.5 182.5t-27 203q0 106 27 203.5t76.5 182.5t118.5 154.5t153.5 119t182 76.5t203.5 27q105 0 203 -27t183 -76.5t155 -119
t119.5 -154.5t77 -182.5t27.5 -203.5zM1321 743q0 101 -36 189t-99 153.5t-149.5 103t-187.5 37.5t-187 -37.5t-148.5 -103t-98 -153.5t-35.5 -189t35.5 -189t98 -153.5t148.5 -103t187 -37.5t187.5 37.5t149.5 103t99 153.5t36 189zM467 1822q0 35 35 35h725q36 0 36 -35
v-100q0 -12 -9 -26t-27 -14h-725q-35 0 -35 40v100z" />
    <glyph glyph-name="omacron" unicode="&#x14d;" horiz-adv-x="1156" 
d="M60 488q0 106 40.5 200t110.5 163.5t164.5 110t202.5 40.5q107 0 201.5 -40.5t165 -110t111 -163.5t40.5 -200q0 -107 -40.5 -199.5t-111 -161.5t-165 -108.5t-201.5 -39.5q-108 0 -202.5 39.5t-164.5 108.5t-110.5 161.5t-40.5 199.5zM327 487q0 -54 19.5 -101.5t53 -83
t79.5 -56t100 -20.5q53 0 99.5 20.5t80.5 56t53.5 83t19.5 101.5q0 53 -19.5 100.5t-53.5 83.5t-80.5 57t-99.5 21q-54 0 -100 -21t-79.5 -57t-53 -83.5t-19.5 -100.5zM179 1337q0 35 35 35h725q36 0 36 -35v-100q0 -12 -9 -26t-27 -14h-725q-35 0 -35 40v100z" />
    <glyph glyph-name="Obreve" unicode="&#x14e;" horiz-adv-x="1706" 
d="M1614 743q0 -106 -27.5 -203.5t-77 -182t-119.5 -154t-155 -119.5t-183 -77t-203 -27q-106 0 -203.5 27t-182 77t-153.5 119.5t-118.5 154t-76.5 182.5t-27 203q0 106 27 203.5t76.5 182.5t118.5 154.5t153.5 119t182 76.5t203.5 27q105 0 203 -27t183 -76.5t155 -119
t119.5 -154.5t77 -182.5t27.5 -203.5zM1321 743q0 101 -36 189t-99 153.5t-149.5 103t-187.5 37.5t-187 -37.5t-148.5 -103t-98 -153.5t-35.5 -189t35.5 -189t98 -153.5t148.5 -103t187 -37.5t187.5 37.5t149.5 103t99 153.5t36 189zM866 1713q-56 1 -103.5 21.5t-83 54
t-55.5 76t-20 89.5q0 17 11.5 27.5t27.5 10.5h105q14 0 23 -9t9 -22q0 -29 22.5 -51.5t67.5 -22.5q39 0 62 21.5t23 48.5q0 13 6.5 24t23.5 11h102q17 0 31 -9.5t14 -28.5q0 -47 -20.5 -90.5t-56.5 -76.5t-84.5 -53t-104.5 -21z" />
    <glyph glyph-name="obreve" unicode="&#x14f;" horiz-adv-x="1156" 
d="M60 488q0 106 40.5 200t110.5 163.5t164.5 110t202.5 40.5q107 0 201.5 -40.5t165 -110t111 -163.5t40.5 -200q0 -107 -40.5 -199.5t-111 -161.5t-165 -108.5t-201.5 -39.5q-108 0 -202.5 39.5t-164.5 108.5t-110.5 161.5t-40.5 199.5zM327 487q0 -54 19.5 -101.5t53 -83
t79.5 -56t100 -20.5q53 0 99.5 20.5t80.5 56t53.5 83t19.5 101.5q0 53 -19.5 100.5t-53.5 83.5t-80.5 57t-99.5 21q-54 0 -100 -21t-79.5 -57t-53 -83.5t-19.5 -100.5zM567 1209q-56 1 -103.5 21.5t-83 54t-55.5 76t-20 89.5q0 17 11.5 27.5t27.5 10.5h105q14 0 23 -9t9 -22
q0 -29 22.5 -51.5t67.5 -22.5q39 0 62 21.5t23 48.5q0 13 6.5 24t23.5 11h102q17 0 31 -9.5t14 -28.5q0 -47 -20.5 -90.5t-56.5 -76.5t-84.5 -53t-104.5 -21z" />
    <glyph glyph-name="Ohungarumlaut" unicode="&#x150;" horiz-adv-x="1706" 
d="M1614 743q0 -106 -27.5 -203.5t-77 -182t-119.5 -154t-155 -119.5t-183 -77t-203 -27q-106 0 -203.5 27t-182 77t-153.5 119.5t-118.5 154t-76.5 182.5t-27 203q0 106 27 203.5t76.5 182.5t118.5 154.5t153.5 119t182 76.5t203.5 27q105 0 203 -27t183 -76.5t155 -119
t119.5 -154.5t77 -182.5t27.5 -203.5zM1321 743q0 101 -36 189t-99 153.5t-149.5 103t-187.5 37.5t-187 -37.5t-148.5 -103t-98 -153.5t-35.5 -189t35.5 -189t98 -153.5t148.5 -103t187 -37.5t187.5 37.5t149.5 103t99 153.5t36 189zM1253 1720q-19 -42 -53 -42h-152
q-20 0 -26.5 7t-6.5 21q2 7 3 15.5t8 20.5l88 205q12 22 23.5 32t30.5 10h159q26 0 26 -22q0 -8 -1 -17t-8 -20zM850 1720q-19 -42 -53 -42h-152q-20 0 -26.5 7t-6.5 21q2 7 3 15.5t8 20.5l88 205q12 22 23.5 32t30.5 10h159q26 0 26 -22q0 -8 -1 -17t-8 -20z" />
    <glyph glyph-name="ohungarumlaut" unicode="&#x151;" horiz-adv-x="1156" 
d="M60 488q0 106 40.5 200t110.5 163.5t164.5 110t202.5 40.5q107 0 201.5 -40.5t165 -110t111 -163.5t40.5 -200q0 -107 -40.5 -199.5t-111 -161.5t-165 -108.5t-201.5 -39.5q-108 0 -202.5 39.5t-164.5 108.5t-110.5 161.5t-40.5 199.5zM327 487q0 -54 19.5 -101.5t53 -83
t79.5 -56t100 -20.5q53 0 99.5 20.5t80.5 56t53.5 83t19.5 101.5q0 53 -19.5 100.5t-53.5 83.5t-80.5 57t-99.5 21q-54 0 -100 -21t-79.5 -57t-53 -83.5t-19.5 -100.5zM905 1216q-19 -42 -53 -42h-152q-20 0 -26.5 7t-6.5 21q2 7 3 15.5t8 20.5l88 205q12 22 23.5 32
t30.5 10h159q26 0 26 -22q0 -8 -1 -17t-8 -20zM502 1216q-19 -42 -53 -42h-152q-20 0 -26.5 7t-6.5 21q2 7 3 15.5t8 20.5l88 205q12 22 23.5 32t30.5 10h159q26 0 26 -22q0 -8 -1 -17t-8 -20z" />
    <glyph glyph-name="OE" unicode="&#x152;" horiz-adv-x="2506" 
d="M1300 141q-98 -75 -216.5 -117t-251.5 -42q-106 0 -203.5 27t-182.5 77t-154.5 119.5t-119.5 154t-77 182t-27 203.5t27 203.5t77 183t119.5 155.5t154.5 119.5t182.5 77t203.5 27.5q133 0 251.5 -42.5t216.5 -118.5v84q0 48 44 48h964q26 0 37 -14.5t11 -36.5v-176
q0 -18 -12.5 -32t-37.5 -14h-711v-304h548q20 2 32 -8.5t12 -35.5v-181q0 -18 -10 -32t-32 -14h-550v-364h737q28 0 37 -12t9 -37v-182q0 -42 -44 -42h-990q-18 0 -31 10t-13 32v102zM365 745q0 -101 34.5 -189.5t96.5 -154.5t147 -104t187 -38q101 0 186.5 38t147.5 104
t97 154.5t35 189.5q0 102 -35 191t-97 155t-147.5 104.5t-186.5 38.5q-102 0 -187 -38.5t-147 -104.5t-96.5 -155t-34.5 -191z" />
    <glyph glyph-name="oe" unicode="&#x153;" horiz-adv-x="1858" 
d="M1507 594q-7 35 -26 66t-47 53.5t-63 35.5t-74 13q-35 0 -68.5 -11.5t-61.5 -33t-48 -52.5t-28 -71h416zM1306 215q43 0 90.5 15.5t90.5 47.5l24.5 14t23.5 6q11 0 21 -5t19 -18l74 -101q13 -17 13 -35q0 -16 -10 -30t-25 -25q-31 -24 -69 -43t-80 -32.5t-85 -20.5
t-85 -7q-105 0 -195 40.5t-158 112.5q-69 -71 -161.5 -111.5t-199.5 -40.5q-106 0 -198 39.5t-160.5 107.5t-108 160.5t-39.5 198.5t39.5 198.5t108 160t160.5 106.5t198 39t198 -39.5t161 -108.5q65 71 152.5 112t190.5 41q96 0 180.5 -36.5t148.5 -99.5t101 -149t37 -185
v-6q0 -38 -9 -62.5t-27.5 -38.5t-46 -19.5t-64.5 -5.5h-527l-2 -13q12 -39 34.5 -70t52 -52.5t63.5 -33t69 -11.5zM334 487q0 -54 19.5 -101.5t53 -83t79.5 -56t100 -20.5q53 0 99.5 20.5t80.5 56t53.5 83t19.5 101.5q0 53 -19.5 100.5t-53.5 83.5t-80.5 57t-99.5 21
q-54 0 -100 -21t-79.5 -57t-53 -83.5t-19.5 -100.5z" />
    <glyph glyph-name="Racute" unicode="&#x154;" horiz-adv-x="1342" 
d="M162 1445q0 16 9.5 27.5t29.5 11.5h635q103 0 189.5 -40.5t149 -108.5t97.5 -156t35 -182q0 -63 -18.5 -123t-52 -114t-80 -99t-102.5 -78l273 -540q7 -14 0 -28.5t-26 -14.5h-258q-17 0 -27 7.5t-20 27.5l-238 479h-304v-474q0 -40 -39 -40h-214q-39 0 -39 40v1405z
M454 1226v-447h312q52 0 96.5 16.5t76.5 46.5t50.5 71t18.5 89t-18.5 89t-50.5 71t-76.5 47t-96.5 17h-312zM754 1720q-19 -42 -53 -42h-143q-20 0 -26.5 6.5t-6.5 19.5q1 15 11 38l88 205q12 22 23.5 32t30.5 10h150q13 0 20.5 -4.5t7.5 -16.5q0 -7 -2 -15.5t-9 -22.5z" />
    <glyph glyph-name="racute" unicode="&#x155;" horiz-adv-x="949" 
d="M581 1216q-19 -42 -53 -42h-143q-20 0 -26.5 6.5t-6.5 19.5q1 15 11 38l88 205q12 22 23.5 32t30.5 10h150q13 0 20.5 -4.5t7.5 -16.5q0 -7 -2 -15.5t-9 -22.5zM378 926q1 -5 4 -16t6.5 -23t6.5 -23t4 -16q18 24 42.5 50t56 47.5t69.5 35.5t81 14q21 0 38 -3
q28 -3 64 -15t68 -29t54 -36t22 -36q0 -14 -9 -27l-81 -131q-17 -28 -41 -28q-8 0 -24 8l-34 17q-29 19 -50.5 27t-48.5 8q-44 0 -79 -17.5t-59 -45t-37 -62t-13 -68.5v-506q0 -51 -53 -51h-166q-53 0 -53 51v876q0 25 16.5 38t36.5 13h127q25 0 35.5 -16t16.5 -36z" />
    <glyph glyph-name="Rcommaaccent" unicode="&#x156;" horiz-adv-x="1374" 
d="M162 1445q0 16 9.5 27.5t29.5 11.5h635q103 0 189.5 -40.5t149 -108.5t97.5 -156t35 -182q0 -63 -18.5 -123t-52 -114t-80 -99t-102.5 -78l273 -540q7 -14 0 -28.5t-26 -14.5h-258q-17 0 -27 7.5t-20 27.5l-238 479h-304v-474q0 -40 -39 -40h-214q-39 0 -39 40v1405z
M454 1226v-447h312q52 0 96.5 16.5t76.5 46.5t50.5 71t18.5 89t-18.5 89t-50.5 71t-76.5 47t-96.5 17h-312zM541 -238q0 33 12.5 62t34 50t50 33t60.5 12q34 0 63 -12t50 -34.5t33 -54t12 -69.5q0 -83 -16.5 -144.5t-39 -102t-47 -60.5t-39.5 -20q-10 0 -24 7t-27 18
t-22 23.5t-9 24.5q0 10 7 22.5t15.5 26.5t15 27.5t6.5 24.5v9q-27 4 -51.5 18.5t-43 35.5t-29.5 47.5t-11 55.5z" />
    <glyph glyph-name="rcommaaccent" unicode="&#x157;" horiz-adv-x="949" 
d="M408 926q1 -5 4 -16t6.5 -23t6.5 -23t4 -16q18 24 42.5 50t56 47.5t69.5 35.5t81 14q21 0 38 -3q28 -3 64 -15t68 -29t54 -36t22 -36q0 -14 -9 -27l-81 -131q-17 -28 -41 -28q-8 0 -24 8l-34 17q-29 19 -50.5 27t-48.5 8q-44 0 -79 -17.5t-59 -45t-37 -62t-13 -68.5v-506
q0 -51 -53 -51h-166q-53 0 -53 51v876q0 25 16.5 38t36.5 13h127q25 0 35.5 -16t16.5 -36zM146 -298q0 33 12.5 62t34 50t50 33t60.5 12q34 0 63 -12t50 -34.5t33 -54t12 -69.5q0 -83 -16.5 -144.5t-39 -102t-47 -60.5t-39.5 -20q-10 0 -24 7t-27 18t-22 23.5t-9 24.5
q0 10 7 22.5t15.5 26.5t15 27.5t6.5 24.5v9q-27 4 -51.5 18.5t-43 35.5t-29.5 47.5t-11 55.5z" />
    <glyph glyph-name="Rcaron" unicode="&#x158;" horiz-adv-x="1342" 
d="M162 1445q0 16 9.5 27.5t29.5 11.5h635q103 0 189.5 -40.5t149 -108.5t97.5 -156t35 -182q0 -63 -18.5 -123t-52 -114t-80 -99t-102.5 -78l273 -540q7 -14 0 -28.5t-26 -14.5h-258q-17 0 -27 7.5t-20 27.5l-238 479h-304v-474q0 -40 -39 -40h-214q-39 0 -39 40v1405z
M454 1226v-447h312q52 0 96.5 16.5t76.5 46.5t50.5 71t18.5 89t-18.5 89t-50.5 71t-76.5 47t-96.5 17h-312zM366 1919q-5 2 -8 10.5t-3 14.5q0 10 6 16l27 27l62 58q7 7 17 7q5 0 8 -2t8 -4l19 -15l154 -155l153 155q8 8 18 13.5t17 5.5q11 0 23 -10.5t23 -21.5l56 -54
q5 -5 8 -10t3 -12t-3 -13.5t-7 -10.5l-270 -269q-5 -4 -10.5 -7t-10.5 -3q-7 0 -12 3t-10 7z" />
    <glyph glyph-name="rcaron" unicode="&#x159;" horiz-adv-x="949" 
d="M378 926q1 -5 4 -16t6.5 -23t6.5 -23t4 -16q18 24 42.5 50t56 47.5t69.5 35.5t81 14q21 0 38 -3q28 -3 64 -15t68 -29t54 -36t22 -36q0 -14 -9 -27l-81 -131q-17 -28 -41 -28q-8 0 -24 8l-34 17q-29 19 -50.5 27t-48.5 8q-44 0 -79 -17.5t-59 -45t-37 -62t-13 -68.5v-506
q0 -51 -53 -51h-166q-53 0 -53 51v876q0 25 16.5 38t36.5 13h127q25 0 35.5 -16t16.5 -36zM181 1415q-5 2 -8 10.5t-3 14.5q0 10 6 16l27 27l62 58q7 7 17 7q5 0 8 -2t8 -4l19 -15l154 -155l153 155q8 8 18 13.5t17 5.5q11 0 23 -10.5t23 -21.5l56 -54q5 -5 8 -10t3 -12
t-3 -13.5t-7 -10.5l-270 -269q-5 -4 -10.5 -7t-10.5 -3q-7 0 -12 3t-10 7z" />
    <glyph glyph-name="Sacute" unicode="&#x15a;" horiz-adv-x="1282" 
d="M130 227q-8 9 -14.5 18t-9 18.5t0.5 19t14 20.5l134 131q18 17 35 11.5t34 -21.5q31 -30 68 -61t80 -55.5t92.5 -40t106.5 -15.5q59 0 106 16.5t79.5 43.5t49.5 62t17 73q0 48 -29 81t-71.5 56t-91 37t-88.5 25q-122 36 -214.5 79.5t-155.5 98t-95 122t-32 152.5
q0 93 39 169t110.5 130.5t171 84.5t219.5 30q66 0 130 -16.5t123.5 -45.5t113 -68t97.5 -84q36 -37 -1 -77l-110 -119q-20 -18 -38 -10.5t-38 23.5q-24 20 -55.5 44t-68 44.5t-77.5 34.5t-85 14q-39 0 -79.5 -5.5t-74.5 -23t-55.5 -49t-21.5 -82.5q0 -38 21.5 -65.5t60 -49
t92 -39t117.5 -35.5q101 -30 191 -67t157.5 -90.5t107 -128t39.5 -179.5q0 -104 -46 -188.5t-123 -144t-177 -92t-209 -32.5q-78 0 -154 18t-146.5 50t-133.5 77.5t-113 100.5zM806 1720q-19 -42 -53 -42h-143q-20 0 -26.5 6.5t-6.5 19.5q1 15 11 38l88 205q12 22 23.5 32
t30.5 10h150q13 0 20.5 -4.5t7.5 -16.5q0 -7 -2 -15.5t-9 -22.5z" />
    <glyph glyph-name="sacute" unicode="&#x15b;" horiz-adv-x="892" 
d="M48 170q-4 8 -4 20q0 7 3 14.5t11 14.5l122 98q4 4 10.5 7t11.5 3q16 -2 32 -15q19 -16 40.5 -34.5t46 -34.5t52 -27t58.5 -11q34 0 56.5 8t36 21.5t19.5 30.5t6 36q0 21 -17.5 38.5t-41.5 31t-49.5 22t-41.5 13.5q-87 23 -149.5 52.5t-103 67t-59.5 84.5t-19 106
q0 57 26.5 108.5t75.5 91t118 62.5t154 23q100 0 180 -33t140 -88q36 -33 36 -59q0 -6 -10 -18t-26 -26.5t-34.5 -30t-36 -28t-31 -20.5t-18.5 -8q-14 0 -34 18q-14 12 -30.5 25t-36 23t-43.5 16.5t-52 6.5q-19 0 -37.5 -3.5t-33 -11t-23.5 -20t-9 -31.5q0 -18 10.5 -32
t30 -25.5t48 -21.5t64.5 -22q76 -25 139 -54t107 -67t68.5 -87t24.5 -115q0 -77 -33.5 -135t-89.5 -97.5t-128.5 -59.5t-151.5 -20q-105 0 -197 38.5t-156 107.5q-21 22 -31 47zM590 1215q-19 -42 -53 -42h-143q-20 0 -26.5 6.5t-6.5 19.5q1 15 11 38l88 205q12 22 23.5 32
t30.5 10h150q13 0 20.5 -4.5t7.5 -16.5q0 -7 -2 -15.5t-9 -22.5z" />
    <glyph glyph-name="Scircumflex" unicode="&#x15c;" horiz-adv-x="1282" 
d="M130 227q-8 9 -14.5 18t-9 18.5t0.5 19t14 20.5l134 131q18 17 35 11.5t34 -21.5q31 -30 68 -61t80 -55.5t92.5 -40t106.5 -15.5q59 0 106 16.5t79.5 43.5t49.5 62t17 73q0 48 -29 81t-71.5 56t-91 37t-88.5 25q-122 36 -214.5 79.5t-155.5 98t-95 122t-32 152.5
q0 93 39 169t110.5 130.5t171 84.5t219.5 30q66 0 130 -16.5t123.5 -45.5t113 -68t97.5 -84q36 -37 -1 -77l-110 -119q-20 -18 -38 -10.5t-38 23.5q-24 20 -55.5 44t-68 44.5t-77.5 34.5t-85 14q-39 0 -79.5 -5.5t-74.5 -23t-55.5 -49t-21.5 -82.5q0 -38 21.5 -65.5t60 -49
t92 -39t117.5 -35.5q101 -30 191 -67t157.5 -90.5t107 -128t39.5 -179.5q0 -104 -46 -188.5t-123 -144t-177 -92t-209 -32.5q-78 0 -154 18t-146.5 50t-133.5 77.5t-113 100.5zM622 2059q11 9 22 9q9 0 21 -10q67 -67 134.5 -134t134.5 -135q4 -3 7.5 -9.5t3.5 -14.5
q0 -10 -11 -21l-56 -55q-10 -10 -22.5 -21t-25.5 -11q-3 0 -10 1.5t-24 18.5l-152 154l-155 -155q-7 -7 -15.5 -12.5t-19.5 -5.5t-22.5 11t-22.5 20l-55 53q-12 12 -11 30q1 5 4 9.5t7 7.5z" />
    <glyph glyph-name="scircumflex" unicode="&#x15d;" horiz-adv-x="892" 
d="M48 170q-4 8 -4 20q0 7 3 14.5t11 14.5l122 98q4 4 10.5 7t11.5 3q16 -2 32 -15q19 -16 40.5 -34.5t46 -34.5t52 -27t58.5 -11q34 0 56.5 8t36 21.5t19.5 30.5t6 36q0 21 -17.5 38.5t-41.5 31t-49.5 22t-41.5 13.5q-87 23 -149.5 52.5t-103 67t-59.5 84.5t-19 106
q0 57 26.5 108.5t75.5 91t118 62.5t154 23q100 0 180 -33t140 -88q36 -33 36 -59q0 -6 -10 -18t-26 -26.5t-34.5 -30t-36 -28t-31 -20.5t-18.5 -8q-14 0 -34 18q-14 12 -30.5 25t-36 23t-43.5 16.5t-52 6.5q-19 0 -37.5 -3.5t-33 -11t-23.5 -20t-9 -31.5q0 -18 10.5 -32
t30 -25.5t48 -21.5t64.5 -22q76 -25 139 -54t107 -67t68.5 -87t24.5 -115q0 -77 -33.5 -135t-89.5 -97.5t-128.5 -59.5t-151.5 -20q-105 0 -197 38.5t-156 107.5q-21 22 -31 47zM426 1555q11 9 22 9q9 0 21 -10q67 -67 134.5 -134t134.5 -135q4 -3 7.5 -9.5t3.5 -14.5
q0 -10 -11 -21l-56 -55q-10 -10 -22.5 -21t-25.5 -11q-3 0 -10 1.5t-24 18.5l-152 154l-155 -155q-7 -7 -15.5 -12.5t-19.5 -5.5t-22.5 11t-22.5 20l-55 53q-12 12 -11 30q1 5 4 9.5t7 7.5z" />
    <glyph glyph-name="Scedilla" unicode="&#x15e;" horiz-adv-x="1282" 
d="M130 227q-8 9 -14.5 18t-9 18.5t0.5 19t14 20.5l134 131q18 17 35 11.5t34 -21.5q31 -30 68 -61t80 -55.5t92.5 -40t106.5 -15.5q59 0 106 16.5t79.5 43.5t49.5 62t17 73q0 48 -29 81t-71.5 56t-91 37t-88.5 25q-122 36 -214.5 79.5t-155.5 98t-95 122t-32 152.5
q0 93 39 169t110.5 130.5t171 84.5t219.5 30q66 0 130 -16.5t123.5 -45.5t113 -68t97.5 -84q36 -37 -1 -77l-110 -119q-20 -18 -38 -10.5t-38 23.5q-24 20 -55.5 44t-68 44.5t-77.5 34.5t-85 14q-39 0 -79.5 -5.5t-74.5 -23t-55.5 -49t-21.5 -82.5q0 -38 21.5 -65.5t60 -49
t92 -39t117.5 -35.5q101 -30 191 -67t157.5 -90.5t107 -128t39.5 -179.5q0 -104 -46 -188.5t-123 -144t-177 -92t-209 -32.5q-78 0 -154 18t-146.5 50t-133.5 77.5t-113 100.5zM648 -530h-4q-2 1 -5 1t-5 2q-14 3 -25.5 18.5t-19.5 34t-12.5 37t-4.5 28.5q0 13 4 18l2 3
q2 2 4 3.5t4 2.5l10 3q49 13 82.5 25.5t54 25.5t29.5 26.5t9 28.5q0 22 -15.5 40.5t-39 35.5t-50.5 34t-50.5 37t-39 43.5t-15.5 53.5v42h168q0 -25 16.5 -45.5t41.5 -40t54.5 -39.5t54.5 -43.5t41.5 -52.5t16.5 -66q0 -36 -12.5 -69.5t-45.5 -66t-91.5 -62.5t-151.5 -58h-5
z" />
    <glyph glyph-name="scedilla" unicode="&#x15f;" horiz-adv-x="892" 
d="M48 170q-4 8 -4 20q0 7 3 14.5t11 14.5l122 98q4 4 10.5 7t11.5 3q16 -2 32 -15q19 -16 40.5 -34.5t46 -34.5t52 -27t58.5 -11q34 0 56.5 8t36 21.5t19.5 30.5t6 36q0 21 -17.5 38.5t-41.5 31t-49.5 22t-41.5 13.5q-87 23 -149.5 52.5t-103 67t-59.5 84.5t-19 106
q0 57 26.5 108.5t75.5 91t118 62.5t154 23q100 0 180 -33t140 -88q36 -33 36 -59q0 -6 -10 -18t-26 -26.5t-34.5 -30t-36 -28t-31 -20.5t-18.5 -8q-14 0 -34 18q-14 12 -30.5 25t-36 23t-43.5 16.5t-52 6.5q-19 0 -37.5 -3.5t-33 -11t-23.5 -20t-9 -31.5q0 -18 10.5 -32
t30 -25.5t48 -21.5t64.5 -22q76 -25 139 -54t107 -67t68.5 -87t24.5 -115q0 -77 -33.5 -135t-89.5 -97.5t-128.5 -59.5t-151.5 -20q-105 0 -197 38.5t-156 107.5q-21 22 -31 47zM420 -530h-4q-2 1 -5 1t-5 2q-14 3 -25.5 18.5t-19.5 34t-12.5 37t-4.5 28.5q0 13 4 18l2 3
q2 2 4 3.5t4 2.5l10 3q49 13 82.5 25.5t54 25.5t29.5 26.5t9 28.5q0 22 -15.5 40.5t-39 35.5t-50.5 34t-50.5 37t-39 43.5t-15.5 53.5v42h168q0 -25 16.5 -45.5t41.5 -40t54.5 -39.5t54.5 -43.5t41.5 -52.5t16.5 -66q0 -36 -12.5 -69.5t-45.5 -66t-91.5 -62.5t-151.5 -58h-5
z" />
    <glyph glyph-name="Scaron" unicode="&#x160;" horiz-adv-x="1282" 
d="M130 227q-8 9 -14.5 18t-9 18.5t0.5 19t14 20.5l134 131q18 17 35 11.5t34 -21.5q31 -30 68 -61t80 -55.5t92.5 -40t106.5 -15.5q59 0 106 16.5t79.5 43.5t49.5 62t17 73q0 48 -29 81t-71.5 56t-91 37t-88.5 25q-122 36 -214.5 79.5t-155.5 98t-95 122t-32 152.5
q0 93 39 169t110.5 130.5t171 84.5t219.5 30q66 0 130 -16.5t123.5 -45.5t113 -68t97.5 -84q36 -37 -1 -77l-110 -119q-20 -18 -38 -10.5t-38 23.5q-24 20 -55.5 44t-68 44.5t-77.5 34.5t-85 14q-39 0 -79.5 -5.5t-74.5 -23t-55.5 -49t-21.5 -82.5q0 -38 21.5 -65.5t60 -49
t92 -39t117.5 -35.5q101 -30 191 -67t157.5 -90.5t107 -128t39.5 -179.5q0 -104 -46 -188.5t-123 -144t-177 -92t-209 -32.5q-78 0 -154 18t-146.5 50t-133.5 77.5t-113 100.5zM356 1919q-5 2 -8 10.5t-3 14.5q0 10 6 16l27 27l62 58q7 7 17 7q5 0 8 -2t8 -4l19 -15
l154 -155l153 155q8 8 18 13.5t17 5.5q11 0 23 -10.5t23 -21.5l56 -54q5 -5 8 -10t3 -12t-3 -13.5t-7 -10.5l-270 -269q-5 -4 -10.5 -7t-10.5 -3q-7 0 -12 3t-10 7z" />
    <glyph glyph-name="scaron" unicode="&#x161;" horiz-adv-x="892" 
d="M48 170q-4 8 -4 20q0 7 3 14.5t11 14.5l122 98q4 4 10.5 7t11.5 3q16 -2 32 -15q19 -16 40.5 -34.5t46 -34.5t52 -27t58.5 -11q34 0 56.5 8t36 21.5t19.5 30.5t6 36q0 21 -17.5 38.5t-41.5 31t-49.5 22t-41.5 13.5q-87 23 -149.5 52.5t-103 67t-59.5 84.5t-19 106
q0 57 26.5 108.5t75.5 91t118 62.5t154 23q100 0 180 -33t140 -88q36 -33 36 -59q0 -6 -10 -18t-26 -26.5t-34.5 -30t-36 -28t-31 -20.5t-18.5 -8q-14 0 -34 18q-14 12 -30.5 25t-36 23t-43.5 16.5t-52 6.5q-19 0 -37.5 -3.5t-33 -11t-23.5 -20t-9 -31.5q0 -18 10.5 -32
t30 -25.5t48 -21.5t64.5 -22q76 -25 139 -54t107 -67t68.5 -87t24.5 -115q0 -77 -33.5 -135t-89.5 -97.5t-128.5 -59.5t-151.5 -20q-105 0 -197 38.5t-156 107.5q-21 22 -31 47zM182 1415q-5 2 -8 10.5t-3 14.5q0 10 6 16l27 27l62 58q7 7 17 7q5 0 8 -2t8 -4l19 -15
l154 -155l153 155q8 8 18 13.5t17 5.5q11 0 23 -10.5t23 -21.5l56 -54q5 -5 8 -10t3 -12t-3 -13.5t-7 -10.5l-270 -269q-5 -4 -10.5 -7t-10.5 -3q-7 0 -12 3t-10 7z" />
    <glyph glyph-name="Tcommaaccent" unicode="&#x162;" horiz-adv-x="1222" 
d="M42 1446q0 39 39 39h1050q39 0 39 -39v-189q0 -40 -39 -40h-384v-1177q0 -40 -39 -40h-215q-39 0 -39 40v1177h-373q-39 0 -39 40v189zM421 -298q0 33 12.5 62t34 50t50 33t60.5 12q34 0 63 -12t50 -34.5t33 -54t12 -69.5q0 -83 -16.5 -144.5t-39 -102t-47 -60.5
t-39.5 -20q-10 0 -24 7t-27 18t-22 23.5t-9 24.5q0 10 7 22.5t15.5 26.5t15 27.5t6.5 24.5v9q-27 4 -51.5 18.5t-43 35.5t-29.5 47.5t-11 55.5z" />
    <glyph glyph-name="tcommaaccent" unicode="&#x163;" horiz-adv-x="656" 
d="M165 1252q0 24 15 39.5t46 19.5l148 22q4 1 7.5 1h6.5q29 0 38.5 -17t9.5 -43v-291h120q25 0 40 -15t15 -44v-110q0 -32 -15 -47t-40 -15h-120v-693q0 -29 -12 -44t-42 -15h-168q-29 0 -39 15t-10 44v693h-54q-59 0 -59 62v110q0 59 59 59h54v269zM145 -298q0 33 12.5 62
t34 50t50 33t60.5 12q34 0 63 -12t50 -34.5t33 -54t12 -69.5q0 -83 -16.5 -144.5t-39 -102t-47 -60.5t-39.5 -20q-10 0 -24 7t-27 18t-22 23.5t-9 24.5q0 10 7 22.5t15.5 26.5t15 27.5t6.5 24.5v9q-27 4 -51.5 18.5t-43 35.5t-29.5 47.5t-11 55.5z" />
    <glyph glyph-name="Tcaron" unicode="&#x164;" horiz-adv-x="1222" 
d="M42 1446q0 39 39 39h1050q39 0 39 -39v-189q0 -40 -39 -40h-384v-1177q0 -40 -39 -40h-215q-39 0 -39 40v1177h-373q-39 0 -39 40v189zM311 1919q-5 2 -8 10.5t-3 14.5q0 10 6 16l27 27l62 58q7 7 17 7q5 0 8 -2t8 -4l19 -15l154 -155l153 155q8 8 18 13.5t17 5.5
q11 0 23 -10.5t23 -21.5l56 -54q5 -5 8 -10t3 -12t-3 -13.5t-7 -10.5l-270 -269q-5 -4 -10.5 -7t-10.5 -3q-7 0 -12 3t-10 7z" />
    <glyph glyph-name="tcaron" unicode="&#x165;" horiz-adv-x="656" 
d="M165 1252q0 24 15 39.5t46 19.5l148 22q4 1 7.5 1h6.5q29 0 38.5 -17t9.5 -43v-291h120q25 0 40 -15t15 -44v-110q0 -32 -15 -47t-40 -15h-120v-693q0 -29 -12 -44t-42 -15h-168q-29 0 -39 15t-10 44v693h-54q-59 0 -59 62v110q0 59 59 59h54v269zM478 1426q0 35 13 65.5
t35.5 52.5t52.5 34.5t64 12.5q36 0 66 -13t52.5 -36t35 -56t12.5 -73q0 -84 -17.5 -146.5t-42 -104t-50 -62t-41.5 -20.5q-11 0 -18.5 3t-14.5 8l-49 37q-12 9 -12 27q0 16 11 27l13 19q7 8 14.5 24.5t7.5 37.5q-27 5 -51 20.5t-42 37.5t-28.5 49t-10.5 56z" />
    <glyph glyph-name="Tbar" unicode="&#x166;" horiz-adv-x="1222" 
d="M613 956h254q14 0 22.5 -8t8.5 -25v-172q0 -13 -8.5 -24t-22.5 -11h-254v240zM508 716h-151q-35 0 -35 35v172q0 33 35 33h151v-240zM42 1446q0 39 39 39h1050q39 0 39 -39v-189q0 -40 -39 -40h-384v-1177q0 -40 -39 -40h-215q-39 0 -39 40v1177h-373q-39 0 -39 40v189z
" />
    <glyph glyph-name="tbar" unicode="&#x167;" horiz-adv-x="656" 
d="M541 583q14 0 22.5 -8t8.5 -25v-137q0 -14 -8.5 -24.5t-22.5 -10.5h-442q-35 0 -35 35v137q0 33 35 33h442zM165 1252q0 24 15 39.5t46 19.5l148 22q4 1 7.5 1h6.5q29 0 38.5 -17t9.5 -43v-291h120q25 0 40 -15t15 -44v-110q0 -32 -15 -47t-40 -15h-120v-693
q0 -29 -12 -44t-42 -15h-168q-29 0 -39 15t-10 44v693h-54q-59 0 -59 62v110q0 59 59 59h54v269z" />
    <glyph glyph-name="Utilde" unicode="&#x168;" horiz-adv-x="1504" 
d="M435 587q0 -70 23 -132t65 -108.5t100.5 -73.5t128.5 -27t128 27t100 73.5t65 108.5t23 132v854q0 18 13.5 31t33.5 13h198q18 0 34 -12t16 -32v-854q0 -126 -48 -237t-131.5 -194.5t-194.5 -131.5t-237 -48q-84 0 -162 22t-146 62t-124 95.5t-96 123.5t-62 146t-22 162
v854q0 15 12 29.5t30 14.5h207q14 0 30 -13t16 -31v-854zM508 1665q-6 -2 -10 -2q-3 0 -7 2q-5 3 -20.5 15t-32 27t-29.5 30t-13 24q0 4 4 10.5t9 13.5l20 26q39 51 89 76t108 25q34 -2 70 -14.5t68 -33.5l55 -36q27 -18 52 -18q42 0 70 29q5 6 11.5 14.5t13.5 17t14.5 14.5
t16.5 6q8 0 19 -8l74 -71q10 -11 10 -23q0 -5 -3.5 -12t-5.5 -9l-28 -35q-39 -45 -87 -68.5t-105 -23.5q-36 0 -71.5 12.5t-66.5 34.5q-13 9 -26.5 18.5t-28 17.5t-28.5 13.5t-28 5.5q-27 0 -42 -10.5t-26 -24t-21 -26.5t-25 -17z" />
    <glyph glyph-name="utilde" unicode="&#x169;" horiz-adv-x="1136" 
d="M907 0q-30 0 -46 9t-24.5 25t-13 38t-11.5 48q-23 -26 -56.5 -50t-74 -42t-87 -29t-95.5 -11q-93 0 -164 29.5t-118.5 82t-72 125t-24.5 158.5v540q0 28 17 43.5t41 15.5h164q32 0 44 -14.5t12 -42.5v-496q0 -41 12 -74t34.5 -56t54.5 -36t71 -13q32 0 72 12.5t74.5 35.5
t58 55t23.5 70v504q0 55 59 55h161q29 0 43.5 -15.5t14.5 -39.5v-867q0 -29 -15 -44.5t-46 -15.5h-108v0zM359 1161q-6 -2 -10 -2q-3 0 -7 2q-5 3 -20.5 15t-32 27t-29.5 30t-13 24q0 4 4 10.5t9 13.5l20 26q39 51 89 76t108 25q34 -2 70 -14.5t68 -33.5l55 -36
q27 -18 52 -18q42 0 70 29q5 6 11.5 14.5t13.5 17t14.5 14.5t16.5 6q8 0 19 -8l74 -71q10 -11 10 -23q0 -5 -3.5 -12t-5.5 -9l-28 -35q-39 -45 -87 -68.5t-105 -23.5q-36 0 -71.5 12.5t-66.5 34.5q-13 9 -26.5 18.5t-28 17.5t-28.5 13.5t-28 5.5q-27 0 -42 -10.5t-26 -24
t-21 -26.5t-25 -17z" />
    <glyph glyph-name="Umacron" unicode="&#x16a;" horiz-adv-x="1504" 
d="M435 587q0 -70 23 -132t65 -108.5t100.5 -73.5t128.5 -27t128 27t100 73.5t65 108.5t23 132v854q0 18 13.5 31t33.5 13h198q18 0 34 -12t16 -32v-854q0 -126 -48 -237t-131.5 -194.5t-194.5 -131.5t-237 -48q-84 0 -162 22t-146 62t-124 95.5t-96 123.5t-62 146t-22 162
v854q0 15 12 29.5t30 14.5h207q14 0 30 -13t16 -31v-854zM357 1822q0 35 35 35h725q36 0 36 -35v-100q0 -12 -9 -26t-27 -14h-725q-35 0 -35 40v100z" />
    <glyph glyph-name="umacron" unicode="&#x16b;" horiz-adv-x="1136" 
d="M907 0q-30 0 -46 9t-24.5 25t-13 38t-11.5 48q-23 -26 -56.5 -50t-74 -42t-87 -29t-95.5 -11q-93 0 -164 29.5t-118.5 82t-72 125t-24.5 158.5v540q0 28 17 43.5t41 15.5h164q32 0 44 -14.5t12 -42.5v-496q0 -41 12 -74t34.5 -56t54.5 -36t71 -13q32 0 72 12.5t74.5 35.5
t58 55t23.5 70v504q0 55 59 55h161q29 0 43.5 -15.5t14.5 -39.5v-867q0 -29 -15 -44.5t-46 -15.5h-108v0zM184 1337q0 35 35 35h725q36 0 36 -35v-100q0 -12 -9 -26t-27 -14h-725q-35 0 -35 40v100z" />
    <glyph glyph-name="Ubreve" unicode="&#x16c;" horiz-adv-x="1504" 
d="M435 587q0 -70 23 -132t65 -108.5t100.5 -73.5t128.5 -27t128 27t100 73.5t65 108.5t23 132v854q0 18 13.5 31t33.5 13h198q18 0 34 -12t16 -32v-854q0 -126 -48 -237t-131.5 -194.5t-194.5 -131.5t-237 -48q-84 0 -162 22t-146 62t-124 95.5t-96 123.5t-62 146t-22 162
v854q0 15 12 29.5t30 14.5h207q14 0 30 -13t16 -31v-854zM756 1713q-56 1 -103.5 21.5t-83 54t-55.5 76t-20 89.5q0 17 11.5 27.5t27.5 10.5h105q14 0 23 -9t9 -22q0 -29 22.5 -51.5t67.5 -22.5q39 0 62 21.5t23 48.5q0 13 6.5 24t23.5 11h102q17 0 31 -9.5t14 -28.5
q0 -47 -20.5 -90.5t-56.5 -76.5t-84.5 -53t-104.5 -21z" />
    <glyph glyph-name="ubreve" unicode="&#x16d;" horiz-adv-x="1136" 
d="M907 0q-30 0 -46 9t-24.5 25t-13 38t-11.5 48q-23 -26 -56.5 -50t-74 -42t-87 -29t-95.5 -11q-93 0 -164 29.5t-118.5 82t-72 125t-24.5 158.5v540q0 28 17 43.5t41 15.5h164q32 0 44 -14.5t12 -42.5v-496q0 -41 12 -74t34.5 -56t54.5 -36t71 -13q32 0 72 12.5t74.5 35.5
t58 55t23.5 70v504q0 55 59 55h161q29 0 43.5 -15.5t14.5 -39.5v-867q0 -29 -15 -44.5t-46 -15.5h-108v0zM583 1209q-56 1 -103.5 21.5t-83 54t-55.5 76t-20 89.5q0 17 11.5 27.5t27.5 10.5h105q14 0 23 -9t9 -22q0 -29 22.5 -51.5t67.5 -22.5q39 0 62 21.5t23 48.5
q0 13 6.5 24t23.5 11h102q17 0 31 -9.5t14 -28.5q0 -47 -20.5 -90.5t-56.5 -76.5t-84.5 -53t-104.5 -21z" />
    <glyph glyph-name="Uring" unicode="&#x16e;" horiz-adv-x="1504" 
d="M435 587q0 -70 23 -132t65 -108.5t100.5 -73.5t128.5 -27t128 27t100 73.5t65 108.5t23 132v854q0 18 13.5 31t33.5 13h198q18 0 34 -12t16 -32v-854q0 -126 -48 -237t-131.5 -194.5t-194.5 -131.5t-237 -48q-84 0 -162 22t-146 62t-124 95.5t-96 123.5t-62 146t-22 162
v854q0 15 12 29.5t30 14.5h207q14 0 30 -13t16 -31v-854zM743 2056q43 0 81.5 -16.5t67.5 -45.5t45.5 -67.5t16.5 -81.5q0 -44 -16.5 -82t-45.5 -66.5t-67.5 -44.5t-81.5 -16q-44 0 -82 16t-66.5 44.5t-44.5 66.5t-16 82q0 43 16 81.5t44.5 67.5t66.5 45.5t82 16.5z
M744 1928q-35 0 -58 -24t-23 -59t23 -58t58 -23t58.5 23t23.5 58t-23.5 59t-58.5 24z" />
    <glyph glyph-name="uring" unicode="&#x16f;" horiz-adv-x="1136" 
d="M907 0q-30 0 -46 9t-24.5 25t-13 38t-11.5 48q-23 -26 -56.5 -50t-74 -42t-87 -29t-95.5 -11q-93 0 -164 29.5t-118.5 82t-72 125t-24.5 158.5v540q0 28 17 43.5t41 15.5h164q32 0 44 -14.5t12 -42.5v-496q0 -41 12 -74t34.5 -56t54.5 -36t71 -13q32 0 72 12.5t74.5 35.5
t58 55t23.5 70v504q0 55 59 55h161q29 0 43.5 -15.5t14.5 -39.5v-867q0 -29 -15 -44.5t-46 -15.5h-108v0zM593 1514q43 0 81.5 -16.5t67.5 -45.5t45.5 -67.5t16.5 -81.5q0 -44 -16.5 -82t-45.5 -66.5t-67.5 -44.5t-81.5 -16q-44 0 -82 16t-66.5 44.5t-44.5 66.5t-16 82
q0 43 16 81.5t44.5 67.5t66.5 45.5t82 16.5zM594 1386q-35 0 -58 -24t-23 -59t23 -58t58 -23t58.5 23t23.5 58t-23.5 59t-58.5 24z" />
    <glyph glyph-name="Uhungarumlaut" unicode="&#x170;" horiz-adv-x="1504" 
d="M435 587q0 -70 23 -132t65 -108.5t100.5 -73.5t128.5 -27t128 27t100 73.5t65 108.5t23 132v854q0 18 13.5 31t33.5 13h198q18 0 34 -12t16 -32v-854q0 -126 -48 -237t-131.5 -194.5t-194.5 -131.5t-237 -48q-84 0 -162 22t-146 62t-124 95.5t-96 123.5t-62 146t-22 162
v854q0 15 12 29.5t30 14.5h207q14 0 30 -13t16 -31v-854zM1066 1720q-19 -42 -53 -42h-152q-20 0 -26.5 7t-6.5 21q2 7 3 15.5t8 20.5l88 205q12 22 23.5 32t30.5 10h159q26 0 26 -22q0 -8 -1 -17t-8 -20zM663 1720q-19 -42 -53 -42h-152q-20 0 -26.5 7t-6.5 21q2 7 3 15.5
t8 20.5l88 205q12 22 23.5 32t30.5 10h159q26 0 26 -22q0 -8 -1 -17t-8 -20z" />
    <glyph glyph-name="uhungarumlaut" unicode="&#x171;" horiz-adv-x="1136" 
d="M907 0q-30 0 -46 9t-24.5 25t-13 38t-11.5 48q-23 -26 -56.5 -50t-74 -42t-87 -29t-95.5 -11q-93 0 -164 29.5t-118.5 82t-72 125t-24.5 158.5v540q0 28 17 43.5t41 15.5h164q32 0 44 -14.5t12 -42.5v-496q0 -41 12 -74t34.5 -56t54.5 -36t71 -13q32 0 72 12.5t74.5 35.5
t58 55t23.5 70v504q0 55 59 55h161q29 0 43.5 -15.5t14.5 -39.5v-867q0 -29 -15 -44.5t-46 -15.5h-108v0zM917 1216q-19 -42 -53 -42h-152q-20 0 -26.5 7t-6.5 21q2 7 3 15.5t8 20.5l88 205q12 22 23.5 32t30.5 10h159q26 0 26 -22q0 -8 -1 -17t-8 -20zM514 1216
q-19 -42 -53 -42h-152q-20 0 -26.5 7t-6.5 21q2 7 3 15.5t8 20.5l88 205q12 22 23.5 32t30.5 10h159q26 0 26 -22q0 -8 -1 -17t-8 -20z" />
    <glyph glyph-name="Uogonek" unicode="&#x172;" horiz-adv-x="1504" 
d="M435 587q0 -70 23 -132t65 -108.5t100.5 -73.5t128.5 -27t128 27t100 73.5t65 108.5t23 132v854q0 18 13.5 31t33.5 13h198q18 0 34 -12t16 -32v-854q0 -126 -48 -237t-131.5 -194.5t-194.5 -131.5t-237 -48q-84 0 -162 22t-146 62t-124 95.5t-96 123.5t-62 146t-22 162
v854q0 15 12 29.5t30 14.5h207q14 0 30 -13t16 -31v-854zM758 -530q-93 28 -151.5 58t-91.5 62.5t-45.5 66t-12.5 69.5q0 37 16.5 65.5t41.5 51.5t54.5 42.5t54.5 39t41.5 41t16.5 47.5h168v-42q0 -30 -15.5 -53.5t-39 -43.5t-50.5 -37t-50.5 -34t-39 -35.5t-15.5 -40.5
q0 -15 9 -28.5t29.5 -26.5t54 -25.5t82.5 -25.5l10 -3q2 -1 4 -2.5t4 -3.5l2 -3q4 -5 4 -18q0 -10 -4.5 -28.5t-12.5 -37t-19.5 -34t-25.5 -18.5q-2 -2 -5 -2t-5 -1h-4h-5z" />
    <glyph glyph-name="uogonek" unicode="&#x173;" horiz-adv-x="1132" 
d="M907 0q-30 0 -46 9t-24.5 25t-13 38t-11.5 48q-23 -26 -56.5 -50t-74 -42t-87 -29t-95.5 -11q-93 0 -164 29.5t-118.5 82t-72 125t-24.5 158.5v540q0 28 17 43.5t41 15.5h164q32 0 44 -14.5t12 -42.5v-496q0 -41 12 -74t34.5 -56t54.5 -36t71 -13q32 0 72 12.5t74.5 35.5
t58 55t23.5 70v504q0 55 59 55h161q29 0 43.5 -15.5t14.5 -39.5v-867q0 -29 -15 -44.5t-46 -15.5h-108v0zM941 -515q-93 28 -151.5 58t-91.5 62.5t-45.5 66t-12.5 69.5q0 37 16.5 65.5t41.5 51.5t54.5 42.5t54.5 39t41.5 41t16.5 47.5h168v-42q0 -30 -15.5 -53.5t-39 -43.5
t-50.5 -37t-50.5 -34t-39 -35.5t-15.5 -40.5q0 -15 9 -28.5t29.5 -26.5t54 -25.5t82.5 -25.5l10 -3q2 -1 4 -2.5t4 -3.5l2 -3q4 -5 4 -18q0 -10 -4.5 -28.5t-12.5 -37t-19.5 -34t-25.5 -18.5q-2 -2 -5 -2t-5 -1h-4h-5z" />
    <glyph glyph-name="Wcircumflex" unicode="&#x174;" horiz-adv-x="2130" 
d="M1078 542l-196 -505q-16 -37 -51 -37h-169q-17 0 -29.5 8.5t-20.5 28.5l-553 1404q-8 20 0.5 31.5t27.5 11.5h226q36 0 49 -37l382 -1033l382 1033q8 20 20 28.5t29 8.5h233q19 0 27 -12.5t1 -30.5l-213 -532l193 -493l393 1031q8 20 20.5 28.5t29.5 8.5h234
q19 0 27.5 -12t0.5 -31l-570 -1404q-8 -20 -21.5 -28.5t-29.5 -8.5h-159q-36 0 -52 37zM1037 2059q11 9 22 9q9 0 21 -10q67 -67 134.5 -134t134.5 -135q4 -3 7.5 -9.5t3.5 -14.5q0 -10 -11 -21l-56 -55q-10 -10 -22.5 -21t-25.5 -11q-3 0 -10 1.5t-24 18.5l-152 154
l-155 -155q-7 -7 -15.5 -12.5t-19.5 -5.5t-22.5 11t-22.5 20l-55 53q-12 12 -11 30q1 5 4 9.5t7 7.5z" />
    <glyph glyph-name="wcircumflex" unicode="&#x175;" horiz-adv-x="1600" 
d="M411 709q29 -85 55 -159.5t55 -149.5l189 529q9 25 24.5 39t46.5 14h159q29 0 43 -12.5t14 -35.5q0 -5 -1 -12t-2 -9l-62 -174q26 -75 58.5 -163.5t68.5 -177.5l55 155q33 94 66.5 188t65.5 189q9 27 28 39.5t41 12.5h182q25 0 39.5 -10.5t14.5 -31.5q0 -7 -2 -14t-4 -13
l-343 -854l-8 -16t-13 -19.5t-20 -16.5t-29 -7h-144q-24 0 -38 10.5t-22 24t-11.5 27.5t-6.5 20l-85 214q-9 23 -17 41t-18 43l-39 -95q-10 -29 -22 -56.5t-23 -56.5l-44 -109q-1 -1 -1 -4l-3 -6q-3 -8 -8 -17t-12.5 -17t-18 -13.5t-25.5 -5.5h-147q-19 0 -31.5 7t-21 18.5
t-14.5 25t-11 26.5q-79 196 -134.5 334t-92 230.5t-57 146t-31 81t-13.5 35.5t-4 10q-5 12 -5 25q0 43 52 43h182q25 0 41.5 -13t25.5 -34zM761 1555q11 9 22 9q9 0 21 -10q67 -67 134.5 -134t134.5 -135q4 -3 7.5 -9.5t3.5 -14.5q0 -10 -11 -21l-56 -55q-10 -10 -22.5 -21
t-25.5 -11q-3 0 -10 1.5t-24 18.5l-152 154l-155 -155q-7 -7 -15.5 -12.5t-19.5 -5.5t-22.5 11t-22.5 20l-55 53q-12 12 -11 30q1 5 4 9.5t7 7.5z" />
    <glyph glyph-name="Ycircumflex" unicode="&#x176;" horiz-adv-x="1318" 
d="M568 625l-477 816q-11 20 -2.5 32t28.5 12h245q17 0 28.5 -8t21.5 -28l302 -583l301 582q11 20 22 28t27 8h249q19 0 27.5 -11.5t-1.5 -32.5l-479 -814v-584q0 -42 -38 -42h-215q-39 0 -39 42v583zM599 2059q11 9 22 9q9 0 21 -10q67 -67 134.5 -134t134.5 -135
q4 -3 7.5 -9.5t3.5 -14.5q0 -10 -11 -21l-56 -55q-10 -10 -22.5 -21t-25.5 -11q-3 0 -10 1.5t-24 18.5l-152 154l-155 -155q-7 -7 -15.5 -12.5t-19.5 -5.5t-22.5 11t-22.5 20l-55 53q-12 12 -11 30q1 5 4 9.5t7 7.5z" />
    <glyph glyph-name="ycircumflex" unicode="&#x177;" horiz-adv-x="1118" 
d="M580 -351q-11 -23 -27.5 -34t-36.5 -11h-162q-23 0 -39 9t-16 33q0 15 4 27l125 337l-364 893h1q-6 11 -7.5 20t-1.5 14q0 44 54 44h175q26 0 42 -13.5t21 -33.5v1l219 -585l215 587q16 44 66 44h173q31 0 43.5 -13.5t12.5 -35.5q0 -5 -2 -13.5t-7 -22.5zM544 1555
q11 9 22 9q9 0 21 -10q67 -67 134.5 -134t134.5 -135q4 -3 7.5 -9.5t3.5 -14.5q0 -10 -11 -21l-56 -55q-10 -10 -22.5 -21t-25.5 -11q-3 0 -10 1.5t-24 18.5l-152 154l-155 -155q-7 -7 -15.5 -12.5t-19.5 -5.5t-22.5 11t-22.5 20l-55 53q-12 12 -11 30q1 5 4 9.5t7 7.5z" />
    <glyph glyph-name="Ydieresis" unicode="&#x178;" horiz-adv-x="1318" 
d="M568 625l-477 816q-11 20 -2.5 32t28.5 12h245q17 0 28.5 -8t21.5 -28l302 -583l301 582q11 20 22 28t27 8h249q19 0 27.5 -11.5t-1.5 -32.5l-479 -814v-584q0 -42 -38 -42h-215q-39 0 -39 42v583zM301 1751q0 30 11 55.5t30.5 45t45 30.5t54.5 11q30 0 56 -11t45 -30.5
t30 -45t11 -55.5q0 -29 -11 -54.5t-30 -45t-45 -30.5t-56 -11q-29 0 -54.5 11t-45 30.5t-30.5 45t-11 54.5zM707 1753q0 30 11 56t30 45.5t45 30.5t55 11q30 0 56 -11t45 -30.5t30 -45.5t11 -56q0 -29 -11 -54.5t-30 -44.5t-45 -30t-56 -11q-29 0 -55 11t-45 30t-30 44.5
t-11 54.5z" />
    <glyph glyph-name="Zacute" unicode="&#x179;" horiz-adv-x="1278" 
d="M1220 1485q36 0 36 -36v-167q0 -12 -4 -22t-8 -15l-776 -973h749q36 0 36 -36v-202q0 -34 -36 -34h-1117q-36 0 -36 34v172q0 8 2.5 16.5t10.5 19.5l778 968h-745q-38 0 -38 37v202q0 36 38 36h1110zM749 1720q-19 -42 -53 -42h-143q-20 0 -26.5 6.5t-6.5 19.5
q1 15 11 38l88 205q12 22 23.5 32t30.5 10h150q13 0 20.5 -4.5t7.5 -16.5q0 -7 -2 -15.5t-9 -22.5z" />
    <glyph glyph-name="zacute" unicode="&#x17a;" horiz-adv-x="1034" 
d="M122 921q0 27 16.5 43.5t45.5 16.5h710q25 0 43.5 -15t18.5 -45v-134q0 -7 -1 -16t-8 -19l-462 -503h418q28 0 44.5 -15t16.5 -47v-121q0 -12 -4.5 -23.5t-12.5 -21t-19 -15.5t-25 -6h-741q-25 0 -43.5 20.5t-18.5 45.5v106q0 11 2 21t11 21q52 57 114.5 123.5t127.5 135
t127.5 135t114.5 124.5h-413q-29 0 -45.5 15.5t-16.5 48.5v125zM636 1216q-19 -42 -53 -42h-143q-20 0 -26.5 6.5t-6.5 19.5q1 15 11 38l88 205q12 22 23.5 32t30.5 10h150q13 0 20.5 -4.5t7.5 -16.5q0 -7 -2 -15.5t-9 -22.5z" />
    <glyph glyph-name="Zdotaccent" unicode="&#x17b;" horiz-adv-x="1278" 
d="M1220 1485q36 0 36 -36v-167q0 -12 -4 -22t-8 -15l-776 -973h749q36 0 36 -36v-202q0 -34 -36 -34h-1117q-36 0 -36 34v172q0 8 2.5 16.5t10.5 19.5l778 968h-745q-38 0 -38 37v202q0 36 38 36h1110zM533 1815q0 34 13 63.5t34.5 51.5t51 34.5t62.5 12.5q34 0 64 -12.5
t51.5 -34.5t34 -51.5t12.5 -63.5q0 -33 -12.5 -62.5t-34 -51t-51.5 -34.5t-64 -13q-33 0 -62.5 13t-51 34.5t-34.5 51t-13 62.5z" />
    <glyph glyph-name="zdotaccent" unicode="&#x17c;" horiz-adv-x="1034" 
d="M122 921q0 27 16.5 43.5t45.5 16.5h710q25 0 43.5 -15t18.5 -45v-134q0 -7 -1 -16t-8 -19l-462 -503h418q28 0 44.5 -15t16.5 -47v-121q0 -12 -4.5 -23.5t-12.5 -21t-19 -15.5t-25 -6h-741q-25 0 -43.5 20.5t-18.5 45.5v106q0 11 2 21t11 21q52 57 114.5 123.5t127.5 135
t127.5 135t114.5 124.5h-413q-29 0 -45.5 15.5t-16.5 48.5v125zM418 1311q0 34 13 63.5t34.5 51.5t51 34.5t62.5 12.5q34 0 64 -12.5t51.5 -34.5t34 -51.5t12.5 -63.5q0 -33 -12.5 -62.5t-34 -51t-51.5 -34.5t-64 -13q-33 0 -62.5 13t-51 34.5t-34.5 51t-13 62.5z" />
    <glyph glyph-name="Zcaron" unicode="&#x17d;" horiz-adv-x="1278" 
d="M1220 1485q36 0 36 -36v-167q0 -12 -4 -22t-8 -15l-776 -973h749q36 0 36 -36v-202q0 -34 -36 -34h-1117q-36 0 -36 34v172q0 8 2.5 16.5t10.5 19.5l778 968h-745q-38 0 -38 37v202q0 36 38 36h1110zM396 1919q-5 2 -8 10.5t-3 14.5q0 10 6 16l27 27l62 58q7 7 17 7
q5 0 8 -2t8 -4l19 -15l154 -155l153 155q8 8 18 13.5t17 5.5q11 0 23 -10.5t23 -21.5l56 -54q5 -5 8 -10t3 -12t-3 -13.5t-7 -10.5l-270 -269q-5 -4 -10.5 -7t-10.5 -3q-7 0 -12 3t-10 7z" />
    <glyph glyph-name="zcaron" unicode="&#x17e;" horiz-adv-x="1034" 
d="M122 921q0 27 16.5 43.5t45.5 16.5h710q25 0 43.5 -15t18.5 -45v-134q0 -7 -1 -16t-8 -19l-462 -503h418q28 0 44.5 -15t16.5 -47v-121q0 -12 -4.5 -23.5t-12.5 -21t-19 -15.5t-25 -6h-741q-25 0 -43.5 20.5t-18.5 45.5v106q0 11 2 21t11 21q52 57 114.5 123.5t127.5 135
t127.5 135t114.5 124.5h-413q-29 0 -45.5 15.5t-16.5 48.5v125zM266 1417q-5 2 -8 10.5t-3 14.5q0 10 6 16l27 27l62 58q7 7 17 7q5 0 8 -2t8 -4l19 -15l154 -155l153 155q8 8 18 13.5t17 5.5q11 0 23 -10.5t23 -21.5l56 -54q5 -5 8 -10t3 -12t-3 -13.5t-7 -10.5l-270 -269
q-5 -4 -10.5 -7t-10.5 -3q-7 0 -12 3t-10 7z" />
    <glyph glyph-name="florin" unicode="&#x192;" horiz-adv-x="618" 
d="M47 -392q-21 0 -35 8.5t-22 22.5t-11 32.5t-3 38.5v108q0 22 13 34.5t32 12.5q28 0 54.5 10.5t47 29t32.5 43.5t12 54v766h-91q-52 0 -52 57v131q0 52 52 52h91v54q0 97 31 176.5t86 136.5t131.5 90.5t168.5 38.5q25 -1 39 -14.5t14 -37.5v-159q0 -23 -13.5 -37
t-33.5 -14q-31 0 -57 -10.5t-45.5 -29t-30.5 -43t-11 -52.5v-99h133q23 0 36.5 -13t13.5 -39v-131q0 -25 -13.5 -41t-36.5 -16h-133v-657q0 -33 -2 -64t-6 -60q-10 -78 -42 -144t-83 -115.5t-118 -81t-148 -38.5z" />
    <glyph glyph-name="AEacute" unicode="&#x1fc;" horiz-adv-x="2318" 
d="M369 42q-33 -42 -72 -42h-221q-20 0 -29.5 6t-9.5 22q0 9 5.5 19.5t9.5 16.5l-2 -2v1l44 58l1041 1322q11 14 30 28t45 14h942q55 0 55 -58v-162q0 -19 -14.5 -37t-42.5 -18h-707v-323h566q23 0 38.5 -13t15.5 -40v-147q0 -17 -14 -34t-40 -17h-569v-361h735q55 0 55 -55
v-165q0 -26 -15.5 -40.5t-40.5 -14.5h-978q-53 0 -53 49q0 60 0.5 114.5t1.5 114.5h-592zM756 540h398v506zM1471 1720q-19 -42 -53 -42h-143q-20 0 -26.5 6.5t-6.5 19.5q1 15 11 38l88 205q12 22 23.5 32t30.5 10h150q13 0 20.5 -4.5t7.5 -16.5q0 -7 -2 -15.5t-9 -22.5z
" />
    <glyph glyph-name="aeacute" unicode="&#x1fd;" horiz-adv-x="1934" 
d="M1114 1216q-19 -42 -53 -42h-143q-20 0 -26.5 6.5t-6.5 19.5q1 15 11 38l88 205q12 22 23.5 32t30.5 10h150q13 0 20.5 -4.5t7.5 -16.5q0 -7 -2 -15.5t-9 -22.5zM837 55q-2 19 -5 32.5t-6 32.5q-18 -27 -40 -52t-52 -44.5t-70.5 -31t-95.5 -11.5h-5q-107 0 -195.5 39
t-153 107t-100 161t-35.5 200q0 109 35.5 202t99 161t152.5 107t197 39q54 0 94 -11t71.5 -30.5t56.5 -45.5t49 -55l20 76q4 16 7.5 27t9.5 17t15 8.5t23 2.5l113 -4q23 0 40 -14.5t17 -39.5v-878q0 -24 -17 -37t-40 -13h-129q-30 0 -40.5 15t-15.5 40zM340 486
q0 -55 17 -103t48.5 -83.5t76 -56t98.5 -20.5q55 0 100 20t76.5 55t48.5 83t17 104q0 54 -16.5 102.5t-48 85t-76 58t-101.5 21.5q-55 0 -99.5 -21t-75.5 -57.5t-48 -85t-17 -102.5zM1364 214q43 -1 86 12.5t82 35.5q16 8 30 18.5t25 10.5q16 0 31 -18l74 -118q9 -15 9 -26
q0 -15 -10 -26.5t-22 -21.5q-63 -49 -138.5 -77t-160.5 -28q-105 0 -197.5 40t-162.5 109.5t-110.5 163t-40.5 200.5q0 103 40 196.5t108 163.5t158.5 111.5t192.5 41.5q96 0 182 -36t150 -98t101.5 -145t37.5 -177q0 -77 -13.5 -112.5t-56.5 -35.5h-622q4 -43 26.5 -77
t54.5 -58t70.5 -36.5t75.5 -12.5zM1568 590q-2 38 -19 71.5t-46 59t-67.5 40t-83.5 14.5q-37 0 -73.5 -14.5t-66 -39.5t-49.5 -58.5t-25 -72.5h430z" />
    <glyph glyph-name="Oslashacute" unicode="&#x1fe;" horiz-adv-x="1706" 
d="M1037 1720q-19 -42 -53 -42h-143q-20 0 -26.5 6.5t-6.5 19.5q1 15 11 38l88 205q12 22 23.5 32t30.5 10h150q13 0 20.5 -4.5t7.5 -16.5q0 -7 -2 -15.5t-9 -22.5zM88 743q0 106 27.5 203.5t77 182.5t119.5 154.5t155 119t182.5 76.5t203.5 27q43 0 85 -5t83 -14l53 120
q17 42 57 42h236q20 0 29.5 -12t-1.5 -35l-103 -235q73 -52 132.5 -120t101.5 -147.5t65 -169.5t23 -187q0 -105 -27 -203t-76.5 -182.5t-118.5 -154t-153.5 -119.5t-182 -77t-203.5 -27q-79 0 -158 17l-59 -132q-9 -22 -24 -31t-34 -9h-238q-21 0 -29 11.5t2 34.5l110 242
q-76 51 -138 119t-105.5 148.5t-67.5 172t-24 190.5zM381 743q0 -101 36 -189t99 -153.5t149.5 -103t187.5 -37.5t187 37.5t148.5 103t98 153.5t35.5 189t-35.5 189t-98 153.5t-148.5 103t-187 37.5t-187.5 -37.5t-149.5 -103t-99 -153.5t-36 -189z" />
    <glyph glyph-name="oslashacute" unicode="&#x1ff;" horiz-adv-x="1156" 
d="M715 1216q-19 -42 -53 -42h-143q-20 0 -26.5 6.5t-6.5 19.5q1 15 11 38l88 205q12 22 23.5 32t30.5 10h150q13 0 20.5 -4.5t7.5 -16.5q0 -7 -2 -15.5t-9 -22.5zM162 -103l84 196q-86 69 -136 171.5t-50 223.5q0 106 39.5 198.5t108 160t160.5 106.5t198 39q17 0 33 -1
t33 -3l44 102q9 20 24 31.5t40 11.5h156q22 0 34.5 -7.5t12.5 -25.5q0 -5 -1.5 -12.5t-2.5 -9.5l-78 -180q48 -34 86.5 -78.5t65.5 -96.5t42 -111.5t15 -123.5q0 -106 -39.5 -198.5t-108 -160.5t-160 -107.5t-196.5 -39.5q-50 0 -96 9q-12 -27 -23.5 -53t-22.5 -51
q-10 -20 -21 -29.5t-31 -9.5h-173q-40 0 -40 29q0 4 2 9l1 9v2zM307 487q0 -54 19.5 -101.5t53 -83t79.5 -56t100 -20.5q53 0 99.5 20.5t80.5 56t53.5 83t19.5 101.5q0 53 -19.5 100.5t-53.5 83.5t-80.5 57t-99.5 21q-54 0 -100 -21t-79.5 -57t-53 -83.5t-19.5 -100.5z" />
    <glyph glyph-name="Scommaaccent" unicode="&#x218;" horiz-adv-x="1282" 
d="M130 227q-8 9 -14.5 18t-9 18.5t0.5 19t14 20.5l134 131q18 17 35 11.5t34 -21.5q31 -30 68 -61t80 -55.5t92.5 -40t106.5 -15.5q59 0 106 16.5t79.5 43.5t49.5 62t17 73q0 48 -29 81t-71.5 56t-91 37t-88.5 25q-122 36 -214.5 79.5t-155.5 98t-95 122t-32 152.5
q0 93 39 169t110.5 130.5t171 84.5t219.5 30q66 0 130 -16.5t123.5 -45.5t113 -68t97.5 -84q36 -37 -1 -77l-110 -119q-20 -18 -38 -10.5t-38 23.5q-24 20 -55.5 44t-68 44.5t-77.5 34.5t-85 14q-39 0 -79.5 -5.5t-74.5 -23t-55.5 -49t-21.5 -82.5q0 -38 21.5 -65.5t60 -49
t92 -39t117.5 -35.5q101 -30 191 -67t157.5 -90.5t107 -128t39.5 -179.5q0 -104 -46 -188.5t-123 -144t-177 -92t-209 -32.5q-78 0 -154 18t-146.5 50t-133.5 77.5t-113 100.5zM523 -298q0 33 12.5 62t34 50t50 33t60.5 12q34 0 63 -12t50 -34.5t33 -54t12 -69.5
q0 -83 -16.5 -144.5t-39 -102t-47 -60.5t-39.5 -20q-10 0 -24 7t-27 18t-22 23.5t-9 24.5q0 10 7 22.5t15.5 26.5t15 27.5t6.5 24.5v9q-27 4 -51.5 18.5t-43 35.5t-29.5 47.5t-11 55.5z" />
    <glyph glyph-name="scommaaccent" unicode="&#x219;" horiz-adv-x="892" 
d="M48 170q-4 8 -4 20q0 7 3 14.5t11 14.5l122 98q4 4 10.5 7t11.5 3q16 -2 32 -15q19 -16 40.5 -34.5t46 -34.5t52 -27t58.5 -11q34 0 56.5 8t36 21.5t19.5 30.5t6 36q0 21 -17.5 38.5t-41.5 31t-49.5 22t-41.5 13.5q-87 23 -149.5 52.5t-103 67t-59.5 84.5t-19 106
q0 57 26.5 108.5t75.5 91t118 62.5t154 23q100 0 180 -33t140 -88q36 -33 36 -59q0 -6 -10 -18t-26 -26.5t-34.5 -30t-36 -28t-31 -20.5t-18.5 -8q-14 0 -34 18q-14 12 -30.5 25t-36 23t-43.5 16.5t-52 6.5q-19 0 -37.5 -3.5t-33 -11t-23.5 -20t-9 -31.5q0 -18 10.5 -32
t30 -25.5t48 -21.5t64.5 -22q76 -25 139 -54t107 -67t68.5 -87t24.5 -115q0 -77 -33.5 -135t-89.5 -97.5t-128.5 -59.5t-151.5 -20q-105 0 -197 38.5t-156 107.5q-21 22 -31 47zM281 -298q0 33 12.5 62t34 50t50 33t60.5 12q34 0 63 -12t50 -34.5t33 -54t12 -69.5
q0 -83 -16.5 -144.5t-39 -102t-47 -60.5t-39.5 -20q-10 0 -24 7t-27 18t-22 23.5t-9 24.5q0 10 7 22.5t15.5 26.5t15 27.5t6.5 24.5v9q-27 4 -51.5 18.5t-43 35.5t-29.5 47.5t-11 55.5z" />
    <glyph glyph-name="uni021A" unicode="&#x21a;" horiz-adv-x="1232" 
d="M52 1441q0 20 13 32t33 12h1053q18 0 32 -11t16 -33v-166q0 -19 -12.5 -34t-35.5 -15h-386v-1180q0 -19 -12 -32.5t-34 -13.5h-188q-18 0 -32 13t-14 33v1180h-387q-20 0 -33 12t-13 37v166zM465 -298q0 33 12.5 62t34 50t50 33t60.5 12q34 0 63 -12t50 -34.5t33 -54
t12 -69.5q0 -83 -16.5 -144.5t-39 -102t-47 -60.5t-39.5 -20q-10 0 -24 7t-27 18t-22 23.5t-9 24.5q0 10 7 22.5t15.5 26.5t15 27.5t6.5 24.5v9q-27 4 -51.5 18.5t-43 35.5t-29.5 47.5t-11 55.5z" />
    <glyph glyph-name="uni021B" unicode="&#x21b;" horiz-adv-x="656" 
d="M165 1252q0 24 15 39.5t46 19.5l148 22q4 1 7.5 1h6.5q29 0 38.5 -17t9.5 -43v-291h120q25 0 40 -15t15 -44v-110q0 -32 -15 -47t-40 -15h-120v-693q0 -29 -12 -44t-42 -15h-168q-29 0 -39 15t-10 44v693h-54q-59 0 -59 62v110q0 59 59 59h54v269zM138 -298
q0 -29 11 -55.5t29.5 -47.5t43 -35.5t51.5 -18.5v-9q0 -11 -6.5 -24.5t-15 -27.5t-15.5 -26.5t-7 -22.5q0 -12 9 -24.5t22 -23.5t27 -18t24 -7q15 0 39.5 20t47 60.5t39 102t16.5 144.5q0 38 -12 69.5t-33 54t-50 34.5t-63 12q-32 0 -60.5 -12t-50 -33t-34 -50t-12.5 -62z
" />
    <glyph glyph-name="dotlessj" unicode="&#x237;" horiz-adv-x="565" 
d="M29 -407q-26 0 -40 14t-14 38v128q0 23 13.5 36.5t35.5 13.5h5q25 1 47 12t38.5 29.5t26 43t9.5 51.5v972q0 25 15 38t38 13h158q24 0 38.5 -14t14.5 -37v-910q0 -23 -1 -46t-3 -45q-7 -75 -38.5 -136.5t-82 -106t-117 -69t-143.5 -25.5z" />
    <glyph glyph-name="circumflex" unicode="&#x2c6;" horiz-adv-x="748" 
d="M354 1555q11 9 22 9q9 0 21 -10q67 -67 134.5 -134t134.5 -135q4 -3 7.5 -9.5t3.5 -14.5q0 -10 -11 -21l-56 -55q-10 -10 -22.5 -21t-25.5 -11q-3 0 -10 1.5t-24 18.5l-152 154l-155 -155q-7 -7 -15.5 -12.5t-19.5 -5.5t-22.5 11t-22.5 20l-55 53q-12 12 -11 30
q1 5 4 9.5t7 7.5z" />
    <glyph glyph-name="caron" unicode="&#x2c7;" horiz-adv-x="736" 
d="M83 1415q-5 2 -8 10.5t-3 14.5q0 10 6 16l27 27l62 58q7 7 17 7q5 0 8 -2t8 -4l19 -15l154 -155l153 155q8 8 18 13.5t17 5.5q11 0 23 -10.5t23 -21.5l56 -54q5 -5 8 -10t3 -12t-3 -13.5t-7 -10.5l-270 -269q-5 -4 -10.5 -7t-10.5 -3q-7 0 -12 3t-10 7z" />
    <glyph glyph-name="uni02C9" unicode="&#x2c9;" horiz-adv-x="980" 
d="M102 1355q0 35 36 35h701q36 0 36 -35v-77q0 -11 -8.5 -25t-27.5 -14h-701q-36 0 -36 39v77z" />
    <glyph glyph-name="breve" unicode="&#x2d8;" horiz-adv-x="652" 
d="M338 1209q-56 1 -103.5 21.5t-83 54t-55.5 76t-20 89.5q0 17 11.5 27.5t27.5 10.5h105q14 0 23 -9t9 -22q0 -29 22.5 -51.5t67.5 -22.5q39 0 62 21.5t23 48.5q0 13 6.5 24t23.5 11h102q17 0 31 -9.5t14 -28.5q0 -47 -20.5 -90.5t-56.5 -76.5t-84.5 -53t-104.5 -21z" />
    <glyph glyph-name="dotaccent" unicode="&#x2d9;" horiz-adv-x="516" 
d="M126 1300q0 29 11 55t30.5 45.5t45 30.5t54.5 11q30 0 56 -11t45 -30.5t30 -45.5t11 -55t-11 -55t-30 -45t-45 -30t-56 -11q-29 0 -54.5 11t-45 30t-30.5 45t-11 55z" />
    <glyph glyph-name="ring" unicode="&#x2da;" horiz-adv-x="518" 
d="M257 1552q43 0 81.5 -16.5t67.5 -45.5t45.5 -67.5t16.5 -81.5q0 -44 -16.5 -82t-45.5 -66.5t-67.5 -44.5t-81.5 -16q-44 0 -82 16t-66.5 44.5t-44.5 66.5t-16 82q0 43 16 81.5t44.5 67.5t66.5 45.5t82 16.5zM258 1424q-35 0 -58 -24t-23 -59t23 -58t58 -23t58.5 23
t23.5 58t-23.5 59t-58.5 24z" />
    <glyph glyph-name="ogonek" unicode="&#x2db;" horiz-adv-x="554" 
d="M383 -530q-93 28 -151.5 58t-91.5 62.5t-45.5 66t-12.5 69.5q0 37 16.5 65.5t41.5 51.5t54.5 42.5t54.5 39t41.5 41t16.5 47.5h168v-42q0 -30 -15.5 -53.5t-39 -43.5t-50.5 -37t-50.5 -34t-39 -35.5t-15.5 -40.5q0 -15 9 -28.5t29.5 -26.5t54 -25.5t82.5 -25.5l10 -3
q2 -1 4 -2.5t4 -3.5l2 -3q4 -5 4 -18q0 -10 -4.5 -28.5t-12.5 -37t-19.5 -34t-25.5 -18.5q-2 -2 -5 -2t-5 -1h-4h-5z" />
    <glyph glyph-name="tilde" unicode="&#x2dc;" horiz-adv-x="706" 
d="M134 1161q-6 -2 -10 -2q-3 0 -7 2q-5 3 -20.5 15t-32 27t-29.5 30t-13 24q0 4 4 10.5t9 13.5l20 26q39 51 89 76t108 25q34 -2 70 -14.5t68 -33.5l55 -36q27 -18 52 -18q42 0 70 29q5 6 11.5 14.5t13.5 17t14.5 14.5t16.5 6q8 0 19 -8l74 -71q10 -11 10 -23
q0 -5 -3.5 -12t-5.5 -9l-28 -35q-39 -45 -87 -68.5t-105 -23.5q-36 0 -71.5 12.5t-66.5 34.5q-13 9 -26.5 18.5t-28 17.5t-28.5 13.5t-28 5.5q-27 0 -42 -10.5t-26 -24t-21 -26.5t-25 -17z" />
    <glyph glyph-name="hungarumlaut" unicode="&#x2dd;" horiz-adv-x="948" 
d="M833 1216q-19 -42 -53 -42h-152q-20 0 -26.5 7t-6.5 21q2 7 3 15.5t8 20.5l88 205q12 22 23.5 32t30.5 10h159q26 0 26 -22q0 -8 -1 -17t-8 -20zM430 1216q-19 -42 -53 -42h-152q-20 0 -26.5 7t-6.5 21q2 7 3 15.5t8 20.5l88 205q12 22 23.5 32t30.5 10h159q26 0 26 -22
q0 -8 -1 -17t-8 -20z" />
    <glyph glyph-name="uni037E" unicode="&#x37e;" horiz-adv-x="528" 
d="M119 916q0 33 13 62.5t34.5 51.5t51 35t62.5 13q34 0 64 -13t51.5 -35t34 -51.5t12.5 -62.5q0 -34 -12.5 -63.5t-34 -51t-51.5 -34t-64 -12.5q-33 0 -62.5 12.5t-51 34t-34.5 51t-13 63.5zM116 133q0 35 13 65.5t35.5 52.5t52.5 34.5t64 12.5q36 0 66 -13t52.5 -36
t35 -56t12.5 -73q0 -84 -17.5 -146.5t-42 -104t-50 -62t-41.5 -20.5q-11 0 -18.5 3t-14.5 8l-42 31q-7 8 -11.5 18.5t-4.5 20.5t3.5 16.5t8.5 14.5v-1l11 20q8 7 14 19t6 32v1q-27 5 -51 20.5t-42 37.5t-28.5 49t-10.5 56z" />
    <glyph glyph-name="tonos" unicode="&#x384;" horiz-adv-x="516" 
d="M221 1128q-16 2 -26.5 10.5t-10.5 25.5l-34 299q1 9 7.5 16.5t18.5 7.5h168q14 0 22 -8t5 -21l-31 -294q-2 -14 -11.5 -25t-22.5 -11h-85z" />
    <glyph glyph-name="dieresistonos" unicode="&#x385;" horiz-adv-x="860" 
d="M78 1312q0 50 19.5 67.5t63.5 17.5h44q36 0 60.5 -17.5t24.5 -67.5v-44q0 -45 -19.5 -64t-65.5 -19h-44q-45 0 -64 19t-19 64v44zM569 1312q0 50 18.5 67.5t64.5 17.5h44q17 0 32 -4t26.5 -13.5t18 -26t6.5 -41.5v-44q0 -45 -19 -64t-64 -19h-44q-46 0 -64.5 19t-18.5 64
v44zM399 1179q-23 2 -38.5 15.5t-17.5 36.5l-33 290q1 17 13 31.5t32 14.5h139q20 0 33.5 -16.5t13.5 -35.5l-31 -284q-2 -20 -17.5 -36t-36.5 -16h-57z" />
    <glyph glyph-name="Alphatonos" unicode="&#x386;" horiz-adv-x="1532" 
d="M595 1447q17 38 50 38h167q17 0 30 -9t21 -29l564 -1404q8 -20 0 -31.5t-28 -11.5h-219q-17 0 -29.5 8t-19.5 28l-97 240h-613l-95 -239q-8 -20 -20.5 -28.5t-29.5 -8.5h-219q-20 0 -28 11t1 32zM515 534h424l-210 567zM199 1130q-16 2 -26.5 10.5t-10.5 25.5l-34 299
q1 9 7.5 16.5t18.5 7.5h168q14 0 22 -8t5 -21l-31 -294q-2 -14 -11.5 -25t-22.5 -11h-85z" />
    <glyph glyph-name="anoteleia" unicode="&#x387;" horiz-adv-x="454" 
d="M110 561q0 34 13 63.5t34.5 51.5t51 34.5t62.5 12.5q35 0 65 -12.5t51.5 -34.5t33.5 -51.5t12 -63.5q0 -33 -12 -62.5t-33.5 -51t-51.5 -34.5t-65 -13q-33 0 -62.5 13t-51 34.5t-34.5 51t-13 62.5z" />
    <glyph glyph-name="Epsilontonos" unicode="&#x388;" horiz-adv-x="1284" 
d="M208 1445q0 39 39 39h977q41 0 41 -39v-194q0 -40 -41 -40h-724v-303h552q20 0 32.5 -9.5t12.5 -30.5v-190q0 -20 -12 -29.5t-33 -9.5h-552v-367h743q20 0 31 -10t11 -30v-192q0 -20 -11 -30t-31 -10h-996q-39 0 -39 40v1405zM19 1128q-16 2 -26.5 10.5t-10.5 25.5
l-34 299q1 9 7.5 16.5t18.5 7.5h168q14 0 22 -8t5 -21l-31 -294q-2 -14 -11.5 -25t-22.5 -11h-85z" />
    <glyph glyph-name="Etatonos" unicode="&#x389;" horiz-adv-x="1652" 
d="M1222 641h-666v-600q0 -20 -10 -30.5t-33 -10.5h-210q-39 0 -39 41v1402q0 17 9.5 29t29.5 12h216q12 0 24.5 -8t12.5 -31v-523h666v521q0 17 9 29t29 12h216q13 0 25 -8t12 -31v-1404q0 -20 -9.5 -30.5t-32.5 -10.5h-211q-38 0 -38 41v600zM23 1130q-16 2 -26.5 10.5
t-10.5 25.5l-34 299q1 9 7.5 16.5t18.5 7.5h168q14 0 22 -8t5 -21l-31 -294q-2 -14 -11.5 -25t-22.5 -11h-85z" />
    <glyph glyph-name="Iotatonos" unicode="&#x38a;" horiz-adv-x="618" 
d="M162 1443q0 41 40 41h216q39 0 39 -41v-1402q0 -41 -39 -41h-216q-40 0 -40 41v1402zM-3 1127q-16 2 -26.5 10.5t-10.5 25.5l-34 299q1 9 7.5 16.5t18.5 7.5h168q14 0 22 -8t5 -21l-31 -294q-2 -14 -11.5 -25t-22.5 -11h-85z" />
    <glyph glyph-name="Omicrontonos" unicode="&#x38c;" horiz-adv-x="1712" 
d="M1634 743q0 -106 -27.5 -203.5t-77 -182t-119.5 -154t-155 -119.5t-183 -77t-203 -27q-106 0 -203.5 27t-182 77t-153.5 119.5t-118.5 154t-76.5 182.5t-27 203q0 106 27 203.5t76.5 182.5t118.5 154.5t153.5 119t182 76.5t203.5 27q105 0 203 -27t183 -76.5t155 -119
t119.5 -154.5t77 -182.5t27.5 -203.5zM1341 743q0 101 -36 189t-99 153.5t-149.5 103t-187.5 37.5t-187 -37.5t-148.5 -103t-98 -153.5t-35.5 -189t35.5 -189t98 -153.5t148.5 -103t187 -37.5t187.5 37.5t149.5 103t99 153.5t36 189zM131 1129q13 0 22.5 11t11.5 25l31 294
q3 13 -5 21t-22 8h-168q-12 0 -18.5 -7.5t-7.5 -16.5l34 -299q0 -17 10.5 -25.5t26.5 -10.5h85z" />
    <glyph glyph-name="Upsilontonos" unicode="&#x38e;" horiz-adv-x="1374" 
d="M684 625l-477 816q-11 20 -2.5 32t28.5 12h245q17 0 28.5 -8t21.5 -28l302 -583l301 582q11 20 22 28t27 8h249q19 0 27.5 -11.5t-1.5 -32.5l-479 -814v-584q0 -42 -38 -42h-215q-39 0 -39 42v583zM-27 1128q-16 2 -26.5 10.5t-10.5 25.5l-34 299q1 9 7.5 16.5t18.5 7.5
h168q14 0 22 -8t5 -21l-31 -294q-2 -14 -11.5 -25t-22.5 -11h-85z" />
    <glyph glyph-name="Omegatonos" unicode="&#x38f;" horiz-adv-x="1560" 
d="M188 -2q-35 0 -35 33v174q0 35 35 35h231v80q-64 41 -115.5 97t-88 123.5t-56.5 144.5t-20 160q0 132 51 251.5t140 210.5t209 145t259 54q91 0 176 -23.5t158.5 -66.5t134 -103.5t103.5 -134t66.5 -158t23.5 -175.5q0 -83 -20 -159.5t-56.5 -144t-88 -123.5t-114.5 -97
v-81h226q33 0 33 -34v-174q0 -33 -33 -33l-465 -1q-35 0 -35 33v422q0 12 6.5 20t19.5 9q57 20 103.5 56t80 84t52 105t18.5 120q0 81 -31 153t-84 125t-124.5 84t-152.5 31t-152 -31t-124 -84t-83.5 -125t-30.5 -153q0 -63 18.5 -120t52 -104.5t80.5 -83.5t103 -57
q17 -5 22.5 -14t5.5 -16v-420q0 -33 -34 -33zM47 1130q-16 2 -26.5 10.5t-10.5 25.5l-34 299q1 9 7.5 16.5t18.5 7.5h168q14 0 22 -8t5 -21l-31 -294q-2 -14 -11.5 -25t-22.5 -11h-85z" />
    </font>
</defs>
</svg>
