<?xml version="1.0" encoding="utf-8"?>
<!-- Generator: Adobe Illustrator 15.1.0, SVG Export Plug-In . SVG Version: 6.00 Build 0)  -->
<!DOCTYPE svg PUBLIC "-//W3C//DTD SVG 1.1//EN" "http://www.w3.org/Graphics/SVG/1.1/DTD/svg11.dtd">
<svg version="1.1" id="Calque_1" xmlns="http://www.w3.org/2000/svg" xmlns:xlink="http://www.w3.org/1999/xlink" x="0px" y="0px"
	 width="225.587891px" height="99.455078px" viewBox="0 0 225.587891 99.455078" enable-background="new 0 0 225.587891 99.455078"
	 xml:space="preserve">
<g>
	<path fill="#FFFFFF" d="M119.783203,83.959961V66.572266c0-0.34668,0.165039-0.519531,0.496094-0.519531h2.679688
		c0.313477,0,0.47168,0.172852,0.47168,0.519531v17.387695c0,0.331055-0.158203,0.496094-0.47168,0.496094h-2.679688
		C119.948242,84.456055,119.783203,84.291016,119.783203,83.959961"/>
	<path fill="#FFFFFF" d="M144.519531,83.959961V66.572266c0-0.34668,0.165039-0.519531,0.496094-0.519531h2.678711
		c0.314453,0,0.47168,0.172852,0.47168,0.519531v17.387695c0,0.331055-0.157227,0.496094-0.47168,0.496094h-2.678711
		C144.68457,84.456055,144.519531,84.291016,144.519531,83.959961"/>
	<path fill="#FFFFFF" d="M115.561523,40.341797h-2.677734c-0.332031,0-0.49707,0.172852-0.49707,0.520508v17.386719
		c0,0.332031,0.165039,0.49707,0.49707,0.49707h2.677734c0.314453,0,0.472656-0.165039,0.472656-0.49707V40.862305
		C116.03418,40.514648,115.875977,40.341797,115.561523,40.341797"/>
	<path fill="#FFFFFF" d="M87.249023,35.669922l-1.03418,2.351562c-0.131836,0.34668-0.346191,0.521484-0.644043,0.521484
		l-1.786133,0.001953c-0.166016,0-0.272949-0.025391-0.322754-0.074219c-0.049316-0.048828-0.073242-0.131836-0.074219-0.24707
		c0-0.067383,0.013184-0.132812,0.037109-0.199219c0.024902-0.06543,0.053223-0.157227,0.085938-0.272461l0.983887-2.277344
		c0.182129-0.347656,0.405273-0.522461,0.67041-0.522461l1.859863-0.001953c0.230957,0,0.34668,0.082031,0.34668,0.24707
		C87.371582,35.330078,87.332031,35.487305,87.249023,35.669922"/>
	<path fill="#A9906C" d="M59.557129,91.77832h3.833008c0.10791,0,0.10791,0.098633,0.10791,0.098633v0.433594
		c0,0,0,0.097656-0.098145,0.097656H60.21875v2.833008h2.411133c0.10791,0,0.10791,0.098633,0.10791,0.098633v0.43457
		c0,0,0,0.097656-0.097656,0.097656H60.21875v2.876953h3.171387c0.10791,0,0.10791,0.097656,0.10791,0.097656v0.43457
		c0,0,0,0.09668-0.098145,0.09668h-3.842773V91.77832z"/>
	<path fill="#A9906C" d="M66.236816,99.270508c0,0.108398-0.097656,0.108398-0.097656,0.108398h-0.456055
		c0,0-0.10791,0-0.10791-0.108398v-7.384766c0-0.107422,0.097656-0.107422,0.097656-0.107422h0.455078
		c0,0,0.108887,0,0.108887,0.107422v3.237305h2.986328v-3.237305c0-0.107422,0.097656-0.107422,0.097656-0.107422h0.455078
		c0,0,0.108887,0,0.108887,0.107422v7.384766c0,0.108398-0.097656,0.108398-0.097656,0.108398h-0.456055
		c0,0-0.10791,0-0.10791-0.108398v-3.518555h-2.986328V99.270508z"/>
	<path fill="#A9906C" d="M72.841797,95.96875h1.041992c0.922852,0,1.520996-0.422852,1.520996-1.638672v-0.282227
		c0-1.21582-0.598145-1.639648-1.520996-1.639648h-1.041992V95.96875z M72.841797,99.270508
		c0,0.108398-0.098145,0.108398-0.098145,0.108398h-0.456055c0,0-0.10791,0-0.10791-0.108398V91.77832h1.704102
		c1.553223,0,2.183105,0.945312,2.183105,2.269531v0.282227c0,1.324219-0.629883,2.269531-2.183105,2.269531h-1.041992V99.270508z"
		/>
	<path fill="#A9906C" d="M78.783203,95.881836h2.062988l-0.911621-3.473633h-0.196289L78.783203,95.881836z M80.29248,91.77832
		c0,0,0.098145,0,0.130859,0.109375l2.062012,7.415039c0.021973,0.075195-0.064941,0.075195-0.064941,0.075195h-0.532227
		c-0.032715,0-0.075684-0.03125-0.097656-0.107422l-0.78125-2.748047h-2.388672l-0.803223,2.748047
		c-0.021973,0.076172-0.064941,0.107422-0.098145,0.107422H77.1875c0,0-0.086914,0-0.064941-0.075195l2.094727-7.415039
		c0.033203-0.109375,0.119141-0.109375,0.119141-0.109375H80.29248z"/>
	<path fill="#A9906C" d="M85.07373,92.408203v6.34082h1.421875c0.922852,0,1.477051-0.533203,1.477051-1.749023v-2.84375
		c0-1.21582-0.554199-1.748047-1.477051-1.748047H85.07373z M86.495605,91.77832c1.551758,0,2.13916,1.052734,2.13916,2.37793V97
		c0,1.325195-0.587402,2.37793-2.13916,2.37793h-2.084961V91.77832H86.495605z"/>
	<path fill="#A9906C" d="M99.998535,95.588867h0.96582c1.063965,0,1.661133-0.314453,1.661133-1.529297v-0.228516
		c0-0.999023-0.597168-1.422852-1.704102-1.422852h-0.922852V95.588867z M99.998535,99.270508
		c0,0.108398-0.098145,0.108398-0.098145,0.108398h-0.456055c0,0-0.10791,0-0.10791-0.108398V91.77832h1.530273
		c1.791992,0,2.421875,0.913086,2.421875,2.052734v0.228516c0,1.084961-0.424316,1.801758-1.412109,2.072266l0.966797,1.96582
		c0.238281,0.412109,0.477051,0.683594,0.791992,0.683594h0.108398c0.109863,0,0.109863,0.108398,0.109863,0.108398v0.369141
		c0,0,0,0.120117-0.109863,0.120117h-0.174316c-0.584961,0-0.921875-0.326172-1.37793-1.119141l-0.977051-2.040039h-1.21582
		V99.270508z"/>
	<path fill="#A9906C" d="M105.766602,91.77832h3.833008c0.108398,0,0.108398,0.098633,0.108398,0.098633v0.433594
		c0,0,0,0.097656-0.098145,0.097656h-3.181152v2.833008h2.410156c0.108887,0,0.108887,0.098633,0.108887,0.098633v0.43457
		c0,0,0,0.097656-0.097168,0.097656h-2.421875v2.876953h3.170898c0.108398,0,0.108398,0.097656,0.108398,0.097656v0.43457
		c0,0,0,0.09668-0.098145,0.09668h-3.843262V91.77832z"/>
	<path fill="#A9906C" d="M114.71582,95.730469c0.641602,0.336914,0.988281,0.96582,0.988281,1.671875
		c0,1.162109-0.782227,2.052734-2.170898,2.052734c-0.858398,0-2.140137-0.478516-2.140137-2.129883
		c0-0.107422,0.108887-0.107422,0.108887-0.107422h0.456055c0,0,0.097656,0,0.097656,0.107422c0,1.217773,0.814453,1.5,1.477539,1.5
		c1.095703,0,1.507812-0.793945,1.507812-1.422852c0-0.456055-0.195312-0.900391-0.834961-1.236328l-1.662109-0.848633
		c-0.955078-0.487305-1.062988-1.258789-1.062988-1.791016c0-1.172852,0.933105-1.822266,2.052246-1.822266
		c1.344727,0,1.942383,0.780273,2.083984,1.745117c0.010742,0.055664,0,0.120117-0.06543,0.142578l-0.422852,0.108398
		c-0.06543,0.022461-0.141602-0.010742-0.152344-0.076172c-0.087891-0.791992-0.564453-1.259766-1.443359-1.259766
		c-1.054688,0-1.390625,0.652344-1.390625,1.194336c0,0.478516,0.141602,0.890625,0.597656,1.129883L114.71582,95.730469z"/>
	<path fill="#A9906C" d="M118.280273,99.270508c0,0.108398-0.09668,0.108398-0.09668,0.108398h-0.457031
		c0,0-0.108398,0-0.108398-0.108398v-7.384766c0-0.107422,0.097656-0.107422,0.097656-0.107422h0.456055
		c0,0,0.108398,0,0.108398,0.107422V99.270508z"/>
	<path fill="#A9906C" d="M121.235352,92.408203v6.34082h1.421875c0.922852,0,1.476562-0.533203,1.476562-1.749023v-2.84375
		c0-1.21582-0.553711-1.748047-1.476562-1.748047H121.235352z M122.657227,91.77832c1.552734,0,2.138672,1.052734,2.138672,2.37793
		V97c0,1.325195-0.585938,2.37793-2.138672,2.37793h-2.083984V91.77832H122.657227z"/>
	<path fill="#A9906C" d="M126.982422,91.77832h3.833008c0.107422,0,0.107422,0.098633,0.107422,0.098633v0.433594
		c0,0,0,0.097656-0.09668,0.097656h-3.181641v2.833008h2.40918c0.109375,0,0.109375,0.098633,0.109375,0.098633v0.43457
		c0,0,0,0.097656-0.09668,0.097656h-2.421875v2.876953h3.170898c0.107422,0,0.107422,0.097656,0.107422,0.097656v0.43457
		c0,0,0,0.09668-0.09668,0.09668h-3.84375V91.77832z"/>
	<path fill="#A9906C" d="M136.744141,91.886719c0,0,0-0.109375,0.109375-0.109375h0.445312c0,0,0.108398,0,0.108398,0.109375
		v7.383789c0,0,0,0.108398-0.108398,0.108398h-0.695312c0,0-0.097656,0-0.152344-0.108398l-2.844727-6.698242l0.055664,6.698242
		c0,0,0,0.108398-0.109375,0.108398h-0.445312c0,0-0.108398,0-0.108398-0.108398v-7.383789c0,0,0-0.109375,0.108398-0.109375
		h0.695312c0,0,0.09668,0,0.150391,0.109375l2.845703,6.700195L136.744141,91.886719z"/>
	<path fill="#A9906C" d="M143.783203,93.602539l-0.422852,0.108398c-0.06543,0.033203-0.141602-0.010742-0.152344-0.076172
		c-0.085938-0.791992-0.56543-1.301758-1.444336-1.301758c-1.03125,0-1.509766,0.53125-1.509766,1.757812v2.986328
		c0,1.227539,0.478516,1.748047,1.509766,1.748047c0.922852,0,1.477539-0.532227,1.477539-1.748047
		c0-0.108398,0.09668-0.108398,0.09668-0.108398h0.456055c0,0,0.109375,0,0.109375,0.108398
		c0,1.325195-0.586914,2.37793-2.139648,2.37793c-1.432617,0-2.170898-0.988281-2.170898-2.37793V94.09082
		c0-1.389648,0.738281-2.387695,2.170898-2.387695c1.347656,0,1.944336,0.791992,2.083984,1.757812
		C143.859375,93.515625,143.847656,93.581055,143.783203,93.602539"/>
	<path fill="#A9906C" d="M145.925781,91.77832h3.833008c0.107422,0,0.107422,0.098633,0.107422,0.098633v0.433594
		c0,0,0,0.097656-0.09668,0.097656h-3.180664v2.833008h2.408203c0.109375,0,0.109375,0.098633,0.109375,0.098633v0.43457
		c0,0,0,0.097656-0.09668,0.097656h-2.420898v2.876953h3.169922c0.107422,0,0.107422,0.097656,0.107422,0.097656v0.43457
		c0,0,0,0.09668-0.09668,0.09668h-3.84375V91.77832z"/>
	<path fill="#A9906C" d="M157.709961,95.730469c0.640625,0.336914,0.987305,0.96582,0.987305,1.671875
		c0,1.162109-0.780273,2.052734-2.170898,2.052734c-0.856445,0-2.138672-0.478516-2.138672-2.129883
		c0-0.107422,0.109375-0.107422,0.109375-0.107422h0.456055c0,0,0.09668,0,0.09668,0.107422c0,1.217773,0.813477,1.5,1.476562,1.5
		c1.097656,0,1.510742-0.793945,1.510742-1.422852c0-0.456055-0.196289-0.900391-0.837891-1.236328l-1.660156-0.848633
		c-0.956055-0.487305-1.064453-1.258789-1.064453-1.791016c0-1.172852,0.933594-1.822266,2.051758-1.822266
		c1.347656,0,1.943359,0.780273,2.084961,1.745117c0.011719,0.055664,0,0.120117-0.064453,0.142578l-0.423828,0.108398
		c-0.066406,0.022461-0.141602-0.010742-0.152344-0.076172c-0.087891-0.791992-0.564453-1.259766-1.444336-1.259766
		c-1.052734,0-1.388672,0.652344-1.388672,1.194336c0,0.478516,0.139648,0.890625,0.595703,1.129883L157.709961,95.730469z"/>
	<path fill="#A9906C" d="M160.612305,91.77832h3.833008c0.108398,0,0.108398,0.098633,0.108398,0.098633v0.433594
		c0,0,0,0.097656-0.097656,0.097656h-3.180664v2.833008h2.40918c0.108398,0,0.108398,0.098633,0.108398,0.098633v0.43457
		c0,0,0,0.097656-0.09668,0.097656h-2.420898v2.876953h3.169922c0.108398,0,0.108398,0.097656,0.108398,0.097656v0.43457
		c0,0,0,0.09668-0.097656,0.09668h-3.84375V91.77832z"/>
	<path fill="#A9906C" d="M167.303711,95.588867h0.966797c1.0625,0,1.661133-0.314453,1.661133-1.529297v-0.228516
		c0-0.999023-0.598633-1.422852-1.705078-1.422852h-0.922852V95.588867z M167.303711,99.270508
		c0,0.108398-0.097656,0.108398-0.097656,0.108398H166.75c0,0-0.107422,0-0.107422-0.108398V91.77832h1.52832
		c1.791992,0,2.423828,0.913086,2.423828,2.052734v0.228516c0,1.084961-0.424805,1.801758-1.412109,2.072266l0.96582,1.96582
		c0.239258,0.412109,0.477539,0.683594,0.792969,0.683594h0.107422c0.109375,0,0.109375,0.108398,0.109375,0.108398v0.369141
		c0,0,0,0.120117-0.109375,0.120117h-0.172852c-0.585938,0-0.922852-0.326172-1.37793-1.119141l-0.978516-2.040039h-1.21582
		V99.270508z"/>
	<path fill="#A9906C" d="M176.329102,91.886719c0.032227-0.109375,0.085938-0.109375,0.120117-0.109375h0.532227
		c0,0,0.107422,0,0.074219,0.109375l-1.845703,7.383789c-0.032227,0.108398-0.128906,0.108398-0.128906,0.108398h-0.966797
		c0,0-0.098633,0-0.120117-0.108398l-1.857422-7.383789c-0.030273-0.109375,0.077148-0.109375,0.077148-0.109375h0.489258
		c0.032227,0,0.086914,0,0.118164,0.109375l1.738281,6.926758h0.108398L176.329102,91.886719z"/>
	<path fill="#A9906C" d="M179.588867,99.270508c0,0.108398-0.098633,0.108398-0.098633,0.108398h-0.455078
		c0,0-0.109375,0-0.109375-0.108398v-7.384766c0-0.107422,0.098633-0.107422,0.098633-0.107422h0.454102
		c0,0,0.110352,0,0.110352,0.107422V99.270508z"/>
	<path fill="#A9906C" d="M185.964844,93.602539l-0.423828,0.108398c-0.06543,0.033203-0.141602-0.010742-0.152344-0.076172
		c-0.086914-0.791992-0.56543-1.301758-1.445312-1.301758c-1.030273,0-1.508789,0.53125-1.508789,1.757812v2.986328
		c0,1.227539,0.478516,1.748047,1.508789,1.748047c0.923828,0,1.478516-0.532227,1.478516-1.748047
		c0-0.108398,0.09668-0.108398,0.09668-0.108398h0.456055c0,0,0.108398,0,0.108398,0.108398
		c0,1.325195-0.584961,2.37793-2.139648,2.37793c-1.431641,0-2.170898-0.988281-2.170898-2.37793V94.09082
		c0-1.389648,0.739258-2.387695,2.170898-2.387695c1.347656,0,1.945312,0.791992,2.084961,1.757812
		C186.040039,93.515625,186.02832,93.581055,185.964844,93.602539"/>
	<path fill="#A9906C" d="M188.106445,91.77832h3.833008c0.107422,0,0.107422,0.098633,0.107422,0.098633v0.433594
		c0,0,0,0.097656-0.09668,0.097656h-3.181641v2.833008h2.40918c0.109375,0,0.109375,0.098633,0.109375,0.098633v0.43457
		c0,0,0,0.097656-0.09668,0.097656h-2.421875v2.876953h3.170898c0.107422,0,0.107422,0.097656,0.107422,0.097656v0.43457
		c0,0,0,0.09668-0.09668,0.09668h-3.84375V91.77832z"/>
	<path fill="#A9906C" d="M197.053711,95.730469c0.641602,0.336914,0.988281,0.96582,0.988281,1.671875
		c0,1.162109-0.78125,2.052734-2.170898,2.052734c-0.857422,0-2.138672-0.478516-2.138672-2.129883
		c0-0.107422,0.108398-0.107422,0.108398-0.107422h0.456055c0,0,0.09668,0,0.09668,0.107422c0,1.217773,0.814453,1.5,1.477539,1.5
		c1.09668,0,1.509766-0.793945,1.509766-1.422852c0-0.456055-0.196289-0.900391-0.836914-1.236328l-1.661133-0.848633
		c-0.956055-0.487305-1.063477-1.258789-1.063477-1.791016c0-1.172852,0.933594-1.822266,2.051758-1.822266
		c1.34668,0,1.943359,0.780273,2.084961,1.745117c0.010742,0.055664,0,0.120117-0.06543,0.142578l-0.423828,0.108398
		c-0.06543,0.022461-0.140625-0.010742-0.151367-0.076172c-0.088867-0.791992-0.564453-1.259766-1.444336-1.259766
		c-1.052734,0-1.388672,0.652344-1.388672,1.194336c0,0.478516,0.139648,0.890625,0.59668,1.129883L197.053711,95.730469z"/>
	<path fill="#FFFFFF" d="M59.650879,15.154297c0-0.148438,0.048828-0.276367,0.148926-0.383789
		c0.099121-0.108398,0.23877-0.161133,0.421875-0.161133h2.528809c0.347168,0,0.529297,0.182617,0.546387,0.544922v14.509766
		h8.262695c0.148926,0,0.277344,0.050781,0.385254,0.148438c0.106934,0.099609,0.160645,0.241211,0.160645,0.421875v2.256836
		c0,0.347656-0.181641,0.530273-0.545898,0.545898H60.196777c-0.365234,0-0.545898-0.180664-0.545898-0.545898V15.154297z"/>
	<path fill="#FFFFFF" d="M152,66.585938c0-0.149414,0.048828-0.277344,0.149414-0.384766
		c0.098633-0.107422,0.238281-0.161133,0.421875-0.161133h2.52832c0.347656,0,0.529297,0.181641,0.546875,0.545898v14.508789
		h8.262695c0.148438,0,0.276367,0.050781,0.384766,0.149414c0.107422,0.099609,0.161133,0.240234,0.161133,0.421875v2.256836
		c0,0.34668-0.181641,0.530273-0.545898,0.545898h-11.363281c-0.365234,0-0.545898-0.180664-0.545898-0.545898V66.585938z"/>
	<path fill="#FFFFFF" d="M168.336914,66.585938c0-0.149414,0.048828-0.277344,0.149414-0.384766
		c0.098633-0.107422,0.238281-0.161133,0.421875-0.161133h2.52832c0.348633,0,0.529297,0.181641,0.546875,0.545898v14.508789
		h8.262695c0.148438,0,0.277344,0.050781,0.384766,0.149414c0.107422,0.099609,0.161133,0.240234,0.161133,0.421875v2.256836
		c0,0.34668-0.181641,0.530273-0.545898,0.545898h-11.363281c-0.365234,0-0.545898-0.180664-0.545898-0.545898V66.585938z"/>
	<path fill="#FFFFFF" d="M77.745605,32.541992V15.129883c0-0.332031,0.157715-0.496094,0.47168-0.496094H90.34668
		c0.32959,0,0.494629,0.164062,0.494629,0.496094v2.40625c0,0.330078-0.165039,0.495117-0.494629,0.495117h-8.979004v3.746094
		h6.844727c0.364258,0,0.545898,0.166016,0.545898,0.496094v2.355469c0,0.331055-0.181641,0.49707-0.545898,0.49707h-6.844727
		v4.538086h9.20166c0.347168,0,0.520996,0.166016,0.520996,0.496094v2.381836c0,0.330078-0.173828,0.495117-0.520996,0.495117
		H78.217285C77.90332,33.037109,77.745605,32.87207,77.745605,32.541992"/>
	<path fill="#FFFFFF" d="M95.071777,30.234375c-0.131836-0.147461-0.230957-0.296875-0.295898-0.446289
		c-0.066895-0.148438-0.008789-0.313477,0.17334-0.496094l1.659668-1.636719c0.146973-0.132812,0.291992-0.177734,0.433105-0.135742
		c0.140137,0.040039,0.28418,0.12793,0.433105,0.259766c0.24707,0.248047,0.523926,0.5,0.830078,0.755859
		c0.304688,0.256836,0.634766,0.488281,0.989746,0.695312s0.739258,0.37207,1.151855,0.496094
		c0.412109,0.123047,0.850098,0.186523,1.312988,0.186523c0.495117,0,0.932129-0.066406,1.312012-0.198242
		c0.380371-0.133789,0.707031-0.310547,0.978027-0.533203c0.274414-0.225586,0.479004-0.480469,0.620117-0.769531
		c0.13916-0.290039,0.210938-0.59082,0.210938-0.904297c0-0.398438-0.121094-0.733398-0.358887-1.005859
		c-0.239746-0.272461-0.533203-0.504883-0.879883-0.694336c-0.347168-0.189453-0.722168-0.34668-1.126953-0.47168
		c-0.405273-0.123047-0.771973-0.226562-1.102051-0.30957c-1.998047-0.595703-3.520996-1.328125-4.569336-2.195312
		c-1.049805-0.868164-1.57373-2.004883-1.57373-3.40918c0-0.762695,0.161133-1.455078,0.48291-2.083984
		c0.323242-0.62793,0.776855-1.169922,1.363281-1.625c0.585938-0.454102,1.291016-0.805664,2.117676-1.054688
		c0.825195-0.248047,1.73291-0.373047,2.724121-0.373047c1.089844,0,2.133789,0.258789,3.132812,0.769531
		c0.999023,0.513672,1.870117,1.140625,2.613281,1.884766c0.295898,0.316406,0.288086,0.636719-0.023926,0.96875l-1.364258,1.461914
		c-0.165039,0.149414-0.320801,0.194336-0.46875,0.137695c-0.148926-0.058594-0.307129-0.15332-0.472168-0.285156
		c-0.198242-0.165039-0.423828-0.34668-0.680176-0.545898c-0.256836-0.198242-0.537598-0.383789-0.842773-0.557617
		s-0.626953-0.319336-0.964844-0.435547c-0.339355-0.114258-0.69043-0.173828-1.054199-0.173828
		c-0.312988,0-0.63916,0.025391-0.978027,0.076172c-0.337891,0.048828-0.643066,0.144531-0.916016,0.283203
		c-0.271973,0.142578-0.5,0.341797-0.681152,0.597656c-0.181641,0.255859-0.271973,0.597656-0.271973,1.027344
		c0,0.314453,0.087402,0.588867,0.260254,0.819336c0.173828,0.233398,0.420898,0.433594,0.742676,0.608398
		c0.321289,0.173828,0.702148,0.333984,1.13916,0.482422c0.437012,0.149414,0.920898,0.298828,1.448242,0.447266
		c0.842773,0.248047,1.635742,0.525391,2.378906,0.831055s1.391113,0.681641,1.942871,1.12793
		c0.554199,0.447266,0.996094,0.975586,1.327148,1.587891c0.329102,0.611328,0.493652,1.347656,0.493652,2.207031
		c0,0.860352-0.188965,1.640625-0.569824,2.34375c-0.379883,0.702148-0.885742,1.302734-1.522949,1.797852
		c-0.635742,0.496094-1.370117,0.87793-2.204102,1.141602c-0.833984,0.264648-1.696777,0.396484-2.588867,0.396484
		c-1.287109,0-2.525879-0.279297-3.713867-0.842773C96.930176,31.880859,95.915039,31.144531,95.071777,30.234375"/>
	<path fill="#FFFFFF" d="M77.799316,58.25V40.837891c0-0.331055,0.157715-0.496094,0.47168-0.496094h12.129395
		c0.32959,0,0.494629,0.165039,0.494629,0.496094v2.40625c0,0.330078-0.165039,0.495117-0.494629,0.495117h-8.979004v3.746094
		h6.844727c0.364258,0,0.545898,0.166016,0.545898,0.496094v2.355469c0,0.331055-0.181641,0.496094-0.545898,0.496094h-6.844727
		v4.539062h9.20166c0.347168,0,0.520996,0.166016,0.520996,0.496094V58.25c0,0.330078-0.173828,0.495117-0.520996,0.495117
		H78.270996C77.957031,58.745117,77.799316,58.580078,77.799316,58.25"/>
	<path fill="#FFFFFF" d="M95.072754,55.942383c-0.133301-0.147461-0.230957-0.296875-0.297852-0.445312
		C94.708496,55.347656,94.766602,55.182617,94.94873,55l1.65918-1.635742c0.148926-0.133789,0.292969-0.178711,0.432617-0.136719
		c0.141113,0.040039,0.286133,0.12793,0.434082,0.259766c0.248047,0.248047,0.524902,0.5,0.830078,0.756836
		c0.305176,0.255859,0.63623,0.487305,0.990234,0.694336c0.355957,0.207031,0.739746,0.37207,1.152832,0.49707
		c0.412109,0.12207,0.850098,0.186523,1.312988,0.186523c0.494141,0,0.932129-0.067383,1.312012-0.199219
		c0.378906-0.132812,0.705078-0.310547,0.978027-0.533203c0.271973-0.224609,0.479004-0.479492,0.619141-0.768555
		c0.139648-0.289062,0.209961-0.591797,0.209961-0.905273c0-0.398438-0.119141-0.733398-0.359375-1.005859
		c-0.237793-0.273438-0.531738-0.503906-0.87793-0.694336c-0.34668-0.189453-0.724121-0.34668-1.126953-0.47168
		c-0.404785-0.123047-0.772949-0.226562-1.102051-0.30957c-1.998047-0.595703-3.522949-1.328125-4.570801-2.195312
		c-1.047852-0.868164-1.572266-2.004883-1.572266-3.40918c0-0.762695,0.161133-1.455078,0.482422-2.083984
		c0.322754-0.62793,0.776855-1.169922,1.36377-1.625c0.584961-0.454102,1.291016-0.805664,2.117188-1.054688
		c0.824707-0.248047,1.73291-0.373047,2.724609-0.373047c1.089355,0,2.133301,0.258789,3.132324,0.769531
		c0.999023,0.513672,1.870117,1.140625,2.612793,1.884766c0.296875,0.316406,0.289062,0.636719-0.024902,0.96875l-1.361816,1.461914
		c-0.165039,0.149414-0.322266,0.195312-0.471191,0.137695c-0.146973-0.058594-0.305176-0.15332-0.470215-0.285156
		c-0.197754-0.165039-0.425781-0.34668-0.681641-0.544922c-0.255371-0.199219-0.536133-0.384766-0.841309-0.558594
		c-0.305664-0.173828-0.62793-0.319336-0.964844-0.435547c-0.339844-0.114258-0.690918-0.172852-1.054199-0.172852
		c-0.312988,0-0.638672,0.024414-0.978027,0.075195c-0.338867,0.048828-0.643555,0.144531-0.916016,0.283203
		c-0.272949,0.142578-0.5,0.341797-0.681641,0.597656c-0.182129,0.255859-0.270996,0.597656-0.270996,1.027344
		c0,0.31543,0.084961,0.588867,0.258789,0.819336c0.172852,0.233398,0.420898,0.433594,0.743164,0.608398
		c0.321777,0.173828,0.700684,0.333984,1.13916,0.482422c0.437988,0.149414,0.919922,0.298828,1.44873,0.447266
		c0.841797,0.248047,1.635254,0.525391,2.37793,0.831055c0.744141,0.305664,1.391113,0.681641,1.944336,1.12793
		c0.552734,0.447266,0.993652,0.975586,1.324707,1.587891c0.330078,0.612305,0.496094,1.348633,0.496094,2.207031
		c0,0.860352-0.190918,1.641602-0.569824,2.344727c-0.380371,0.701172-0.888184,1.302734-1.523438,1.797852
		c-0.635742,0.49707-1.370605,0.876953-2.203613,1.140625c-0.833984,0.264648-1.697266,0.397461-2.589355,0.397461
		c-1.287598,0-2.526855-0.280273-3.714844-0.84375C96.929688,57.588867,95.914551,56.852539,95.072754,55.942383"/>
	<path fill="#FFFFFF" d="M131.862305,49.542969c0-0.808594-0.152344-1.570312-0.458008-2.28125
		c-0.307617-0.710938-0.723633-1.331055-1.253906-1.859375c-0.527344-0.529297-1.161133-0.947266-1.896484-1.25293
		c-0.735352-0.306641-1.525391-0.458984-2.369141-0.458984h-2.455078v11.707031h2.455078
		c0.84375,0,1.633789-0.15332,2.369141-0.458984s1.369141-0.723633,1.896484-1.25293
		c0.530273-0.52832,0.946289-1.148438,1.253906-1.860352C131.709961,51.114258,131.862305,50.354492,131.862305,49.542969
		 M119.783203,58.25V40.837891c0-0.331055,0.165039-0.496094,0.496094-0.496094h5.928711
		c1.173828,0,2.319336,0.235352,3.435547,0.707031c1.115234,0.469727,2.108398,1.119141,2.974609,1.946289
		c0.869141,0.828125,1.567383,1.802734,2.097656,2.926758c0.527344,1.125,0.792969,2.331055,0.792969,3.621094
		c0,1.241211-0.235352,2.410156-0.707031,3.510742c-0.469727,1.100586-1.125,2.0625-1.958984,2.889648
		c-0.834961,0.827148-1.811523,1.488281-2.926758,1.984375c-1.116211,0.495117-2.318359,0.768555-3.608398,0.817383h-6.02832
		C119.948242,58.745117,119.783203,58.580078,119.783203,58.25"/>
	<path fill="#FFFFFF" d="M155.65918,40.887695c0-0.149414,0.044922-0.277344,0.136719-0.385742
		c0.091797-0.106445,0.228516-0.160156,0.40918-0.160156h2.90332c0.130859,0,0.267578,0.029297,0.40918,0.087891
		c0.139648,0.057617,0.243164,0.151367,0.30957,0.28418l8.160156,11.732422V40.713867
		c0.048828-0.149414,0.12793-0.24707,0.235352-0.297852c0.107422-0.049805,0.211914-0.074219,0.310547-0.074219h2.503906
		c0.132812,0,0.265625,0.049805,0.398438,0.148438c0.131836,0.098633,0.199219,0.232422,0.199219,0.397461v17.311523
		c0,0.365234-0.199219,0.545898-0.597656,0.545898h-2.455078c-0.199219,0-0.342773-0.036133-0.433594-0.110352
		c-0.09082-0.075195-0.186523-0.169922-0.285156-0.286133l-8.607422-12.401367v12.251953
		c0.017578,0.365234-0.166016,0.545898-0.544922,0.545898h-2.505859c-0.364258,0-0.545898-0.180664-0.545898-0.545898V40.887695z"/>
	<path fill="#FFFFFF" d="M188.517578,54.454102c0.331055-0.248047,0.595703-0.248047,0.794922,0l1.239258,2.109375
		c0.131836,0.148438,0.181641,0.277344,0.148438,0.383789c-0.033203,0.108398-0.124023,0.220703-0.271484,0.333984
		c-0.711914,0.530273-1.505859,0.952148-2.381836,1.266602c-0.87793,0.313477-1.87793,0.47168-3.001953,0.47168
		c-1.306641,0-2.538086-0.249023-3.695312-0.744141c-1.157227-0.49707-2.168945-1.174805-3.038086-2.035156
		c-0.869141-0.859375-1.549805-1.869141-2.045898-3.024414c-0.49707-1.158203-0.744141-2.390625-0.744141-3.697266
		c0-1.323242,0.24707-2.555664,0.744141-3.695312c0.496094-1.140625,1.176758-2.141602,2.045898-3.001953
		c0.869141-0.859375,1.880859-1.532227,3.038086-2.020508c1.157227-0.487305,2.388672-0.731445,3.695312-0.731445
		c1.124023,0,2.124023,0.15332,3.001953,0.458008c0.875977,0.306641,1.678711,0.723633,2.405273,1.25293
		c0.132812,0.116211,0.199219,0.232422,0.199219,0.347656c0,0.116211-0.016602,0.206055-0.050781,0.272461l-1.314453,2.231445
		c-0.147461,0.199219-0.379883,0.207031-0.693359,0.025391c-0.579102-0.363281-1.146484-0.643555-1.699219-0.842773
		c-0.553711-0.198242-1.169922-0.297852-1.848633-0.297852c-0.84375,0-1.620117,0.152344-2.331055,0.459961
		c-0.711914,0.304688-1.327148,0.729492-1.847656,1.275391s-0.929688,1.183594-1.227539,1.911133
		s-0.446289,1.512695-0.446289,2.355469c0,0.84375,0.148438,1.633789,0.446289,2.370117
		c0.297852,0.734375,0.707031,1.378906,1.227539,1.933594s1.135742,0.991211,1.847656,1.314453
		c0.710938,0.323242,1.487305,0.484375,2.331055,0.484375c0.678711,0,1.319336-0.112305,1.922852-0.334961
		S188.086914,54.785156,188.517578,54.454102"/>
	<path fill="#FFFFFF" d="M194.726562,58.25V40.837891c0-0.331055,0.15625-0.496094,0.47168-0.496094h12.128906
		c0.330078,0,0.496094,0.165039,0.496094,0.496094v2.40625c0,0.330078-0.166016,0.495117-0.496094,0.495117h-8.979492v3.746094
		h6.84668c0.363281,0,0.545898,0.166016,0.545898,0.496094v2.355469c0,0.331055-0.182617,0.496094-0.545898,0.496094h-6.84668
		v4.539062h9.202148c0.34668,0,0.521484,0.166016,0.521484,0.496094V58.25c0,0.330078-0.174805,0.495117-0.521484,0.495117
		h-12.351562C194.882812,58.745117,194.726562,58.580078,194.726562,58.25"/>
	<path fill="#FFFFFF" d="M211.941406,55.942383c-0.131836-0.147461-0.231445-0.296875-0.295898-0.445312
		c-0.067383-0.149414-0.009766-0.314453,0.172852-0.49707l1.660156-1.635742c0.146484-0.133789,0.291992-0.178711,0.432617-0.136719
		c0.139648,0.040039,0.28418,0.12793,0.431641,0.259766c0.248047,0.248047,0.525391,0.5,0.831055,0.756836
		c0.305664,0.255859,0.635742,0.487305,0.990234,0.694336c0.355469,0.207031,0.739258,0.37207,1.152344,0.49707
		c0.412109,0.12207,0.849609,0.186523,1.3125,0.186523c0.495117,0,0.932617-0.067383,1.3125-0.199219
		c0.379883-0.132812,0.707031-0.310547,0.977539-0.533203c0.274414-0.224609,0.479492-0.479492,0.620117-0.768555
		c0.138672-0.289062,0.210938-0.591797,0.210938-0.905273c0-0.398438-0.121094-0.733398-0.359375-1.005859
		c-0.239258-0.273438-0.532227-0.503906-0.879883-0.694336c-0.34668-0.189453-0.72168-0.34668-1.126953-0.47168
		c-0.404297-0.123047-0.771484-0.226562-1.101562-0.30957c-1.998047-0.595703-3.522461-1.328125-4.569336-2.195312
		c-1.049805-0.868164-1.574219-2.004883-1.574219-3.40918c0-0.762695,0.161133-1.455078,0.483398-2.083984
		c0.323242-0.62793,0.777344-1.169922,1.363281-1.625c0.585938-0.454102,1.291016-0.805664,2.118164-1.054688
		c0.824219-0.248047,1.732422-0.373047,2.723633-0.373047c1.089844,0,2.133789,0.258789,3.132812,0.769531
		c0.999023,0.513672,1.870117,1.140625,2.613281,1.884766c0.295898,0.316406,0.288086,0.636719-0.024414,0.96875l-1.363281,1.461914
		c-0.165039,0.149414-0.321289,0.195312-0.470703,0.137695c-0.147461-0.058594-0.305664-0.15332-0.470703-0.285156
		c-0.198242-0.165039-0.423828-0.34668-0.679688-0.544922c-0.257812-0.199219-0.538086-0.384766-0.84375-0.558594
		c-0.304688-0.173828-0.626953-0.319336-0.964844-0.435547c-0.338867-0.114258-0.689453-0.172852-1.053711-0.172852
		c-0.313477,0-0.638672,0.024414-0.978516,0.075195c-0.337891,0.048828-0.642578,0.144531-0.916016,0.283203
		c-0.271484,0.142578-0.5,0.341797-0.680664,0.597656c-0.181641,0.255859-0.271484,0.597656-0.271484,1.027344
		c0,0.31543,0.086914,0.588867,0.259766,0.819336c0.173828,0.233398,0.420898,0.433594,0.743164,0.608398
		c0.320312,0.173828,0.702148,0.333984,1.138672,0.482422c0.4375,0.149414,0.920898,0.298828,1.448242,0.447266
		c0.842773,0.248047,1.634766,0.525391,2.37793,0.831055c0.744141,0.305664,1.391602,0.681641,1.944336,1.12793
		c0.553711,0.447266,0.994141,0.975586,1.326172,1.587891c0.329102,0.612305,0.494141,1.348633,0.494141,2.207031
		c0,0.860352-0.188477,1.641602-0.569336,2.344727c-0.380859,0.701172-0.886719,1.302734-1.523438,1.797852
		c-0.635742,0.49707-1.370117,0.876953-2.204102,1.140625c-0.833984,0.264648-1.697266,0.397461-2.588867,0.397461
		c-1.287109,0-2.526367-0.280273-3.713867-0.84375C213.798828,57.588867,212.78418,56.852539,211.941406,55.942383"/>
	<path fill="#FFFFFF" d="M72.118164,80.165039c0.331055-0.248047,0.596191-0.248047,0.794922,0l1.239258,2.107422
		c0.131836,0.149414,0.182129,0.277344,0.148926,0.384766c-0.033203,0.108398-0.124023,0.219727-0.271973,0.335938
		c-0.711914,0.529297-1.505859,0.951172-2.381836,1.264648c-0.876953,0.313477-1.876953,0.470703-3.000977,0.470703
		c-1.307129,0-2.539062-0.248047-3.696289-0.743164c-1.156738-0.496094-2.169922-1.175781-3.038086-2.035156
		c-0.868652-0.859375-1.549805-1.868164-2.045898-3.025391c-0.49707-1.157227-0.744141-2.388672-0.744141-3.696289
		c0-1.322266,0.24707-2.554688,0.744141-3.694336c0.496094-1.141602,1.177246-2.142578,2.045898-3.001953
		c0.868164-0.860352,1.881348-1.53418,3.038086-2.021484c1.157227-0.488281,2.38916-0.731445,3.696289-0.731445
		c1.124023,0,2.124023,0.151367,3.000977,0.459961c0.875977,0.304688,1.678711,0.722656,2.405762,1.250977
		c0.133301,0.115234,0.199219,0.231445,0.199219,0.34668c0,0.116211-0.01709,0.207031-0.05127,0.274414l-1.313965,2.231445
		c-0.147949,0.199219-0.379883,0.206055-0.693848,0.025391c-0.579102-0.363281-1.145996-0.645508-1.699219-0.844727
		c-0.553711-0.197266-1.169922-0.296875-1.847656-0.296875c-0.844238,0-1.621094,0.15332-2.332031,0.458984
		c-0.710938,0.306641-1.327148,0.732422-1.847168,1.277344c-0.520996,0.545898-0.930176,1.182617-1.228027,1.910156
		s-0.445801,1.512695-0.445801,2.355469c0,0.84375,0.147949,1.633789,0.445801,2.368164
		c0.297852,0.737305,0.707031,1.380859,1.228027,1.936523c0.52002,0.552734,1.13623,0.991211,1.847168,1.314453
		c0.710938,0.321289,1.487793,0.483398,2.332031,0.483398c0.677734,0,1.317871-0.113281,1.921875-0.335938
		S71.688477,80.496094,72.118164,80.165039"/>
	<path fill="#FFFFFF" d="M89.679688,83.959961v-7.442383H81.42041v7.442383c0,0.331055-0.183105,0.496094-0.545898,0.496094
		h-2.60498c-0.313965,0-0.470215-0.165039-0.470215-0.496094V66.572266c0-0.147461,0.037109-0.272461,0.112305-0.373047
		c0.07373-0.097656,0.192871-0.146484,0.35791-0.146484h2.680176c0.098633,0,0.20166,0.033203,0.308594,0.097656
		c0.108398,0.067383,0.162109,0.198242,0.162109,0.397461v6.473633h8.259277v-6.449219
		c0-0.147461,0.036621-0.272461,0.111816-0.373047c0.074219-0.097656,0.193848-0.146484,0.359863-0.146484h2.678223
		c0.100098,0,0.19873,0.033203,0.298828,0.097656c0.098145,0.067383,0.146973,0.198242,0.146973,0.397461v17.412109
		c0,0.331055-0.172852,0.496094-0.52002,0.496094h-2.604004C89.837402,84.456055,89.679688,84.291016,89.679688,83.959961"/>
	<path fill="#FFFFFF" d="M112.537109,75.253906c0-0.84375-0.147461-1.628906-0.447266-2.356445
		c-0.296875-0.727539-0.706543-1.360352-1.226562-1.897461c-0.520996-0.537109-1.137207-0.963867-1.848145-1.277344
		c-0.710938-0.314453-1.487793-0.47168-2.332031-0.47168c-0.827148,0-1.594727,0.157227-2.306152,0.47168
		c-0.710938,0.313477-1.32666,0.740234-1.847656,1.277344c-0.521973,0.537109-0.927246,1.169922-1.215332,1.897461
		c-0.288574,0.727539-0.43457,1.512695-0.43457,2.356445c0,0.827148,0.145996,1.604492,0.43457,2.331055
		c0.288086,0.728516,0.693359,1.360352,1.215332,1.897461c0.520996,0.539062,1.136719,0.963867,1.847656,1.277344
		c0.711426,0.314453,1.479004,0.47168,2.306152,0.47168c0.844238,0,1.621094-0.157227,2.332031-0.47168
		c0.710938-0.313477,1.327148-0.738281,1.848145-1.277344c0.52002-0.537109,0.929688-1.168945,1.226562-1.897461
		C112.389648,76.858398,112.537109,76.081055,112.537109,75.253906 M116.183594,75.253906
		c0,1.306641-0.248047,2.53418-0.744141,3.682617c-0.496094,1.149414-1.173828,2.149414-2.03418,3.000977
		c-0.860352,0.852539-1.869141,1.525391-3.025879,2.022461c-1.158203,0.496094-2.390137,0.744141-3.696289,0.744141
		s-2.533691-0.248047-3.682129-0.744141c-1.149902-0.49707-2.149902-1.169922-3.001953-2.022461
		c-0.852051-0.851562-1.520996-1.851562-2.008789-3.000977c-0.488281-1.148438-0.731934-2.375977-0.731934-3.682617
		c0-1.323242,0.243652-2.558594,0.731934-3.708984c0.487793-1.148438,1.156738-2.148438,2.008789-3.000977
		c0.852051-0.850586,1.852051-1.524414,3.001953-2.020508c1.148438-0.495117,2.375977-0.745117,3.682129-0.745117
		s2.538086,0.25,3.696289,0.745117c1.156738,0.496094,2.165527,1.169922,3.025879,2.020508
		c0.860352,0.852539,1.538086,1.852539,2.03418,3.000977C115.935547,72.695312,116.183594,73.930664,116.183594,75.253906"/>
	<path fill="#FFFFFF" d="M127.212891,81.65332c-0.132812-0.149414-0.230469-0.297852-0.297852-0.447266
		c-0.066406-0.147461-0.007812-0.3125,0.173828-0.496094l1.65918-1.636719c0.149414-0.131836,0.292969-0.176758,0.432617-0.136719
		c0.141602,0.041992,0.286133,0.12793,0.43457,0.261719c0.248047,0.24707,0.524414,0.5,0.830078,0.755859
		c0.304688,0.255859,0.635742,0.488281,0.989258,0.694336c0.356445,0.207031,0.740234,0.37207,1.15332,0.496094
		c0.412109,0.124023,0.849609,0.186523,1.313477,0.186523c0.493164,0,0.931641-0.06543,1.311523-0.199219
		c0.378906-0.131836,0.705078-0.30957,0.978516-0.532227c0.271484-0.224609,0.478516-0.480469,0.618164-0.770508
		c0.140625-0.289062,0.209961-0.59082,0.209961-0.905273c0-0.396484-0.118164-0.731445-0.358398-1.003906
		c-0.238281-0.273438-0.532227-0.503906-0.87793-0.694336c-0.347656-0.189453-0.724609-0.347656-1.126953-0.47168
		c-0.405273-0.124023-0.773438-0.226562-1.102539-0.30957c-1.998047-0.594727-3.522461-1.327148-4.570312-2.195312
		c-1.048828-0.868164-1.572266-2.004883-1.572266-3.410156c0-0.760742,0.161133-1.456055,0.481445-2.083984
		c0.323242-0.62793,0.777344-1.168945,1.364258-1.625c0.584961-0.455078,1.291016-0.805664,2.117188-1.052734
		c0.825195-0.249023,1.733398-0.373047,2.724609-0.373047c1.088867,0,2.133789,0.256836,3.132812,0.770508
		c0.999023,0.511719,1.869141,1.139648,2.612305,1.883789c0.296875,0.314453,0.289062,0.636719-0.024414,0.966797
		l-1.362305,1.463867c-0.165039,0.149414-0.322266,0.195312-0.470703,0.136719
		c-0.147461-0.057617-0.305664-0.152344-0.470703-0.285156c-0.197266-0.165039-0.425781-0.347656-0.681641-0.546875
		c-0.254883-0.197266-0.536133-0.383789-0.84082-0.557617c-0.306641-0.172852-0.62793-0.318359-0.964844-0.433594
		c-0.34082-0.115234-0.691406-0.173828-1.054688-0.173828c-0.3125,0-0.638672,0.024414-0.977539,0.074219
		s-0.644531,0.145508-0.916016,0.286133c-0.273438,0.139648-0.5,0.337891-0.681641,0.59375
		c-0.182617,0.257812-0.271484,0.600586-0.271484,1.030273c0,0.31543,0.084961,0.586914,0.258789,0.819336
		c0.172852,0.231445,0.420898,0.432617,0.743164,0.606445s0.701172,0.334961,1.138672,0.484375
		c0.438477,0.150391,0.919922,0.296875,1.449219,0.446289c0.841797,0.248047,1.634766,0.524414,2.378906,0.832031
		c0.743164,0.304688,1.390625,0.680664,1.943359,1.12793c0.552734,0.446289,0.994141,0.975586,1.325195,1.586914
		c0.330078,0.612305,0.496094,1.347656,0.496094,2.208008c0,0.859375-0.191406,1.640625-0.570312,2.342773
		c-0.379883,0.704102-0.887695,1.301758-1.523438,1.798828s-1.370117,0.875977-2.204102,1.141602
		c-0.833984,0.262695-1.696289,0.395508-2.588867,0.395508c-1.288086,0-2.526367-0.28125-3.714844-0.841797
		C129.071289,83.297852,128.054688,82.5625,127.212891,81.65332"/>
	<path fill="#FFFFFF" d="M197.498047,81.083008h-9.202148v-4.538086h6.844727c0.364258,0,0.545898-0.166016,0.545898-0.49707
		V73.69043c0-0.330078-0.181641-0.495117-0.545898-0.495117h-6.844727v-3.508789v-0.237305h4.555664h4.423828
		c0.330078,0,0.494141-0.165039,0.494141-0.496094v-2.405273c0-0.330078-0.164062-0.495117-0.494141-0.495117h-4.8125H186.375
		c-0.949219,0.063477-1.701172,0.844727-1.701172,1.810547v0.429688v0.897461v14.769531
		c0,0.331055,0.158203,0.496094,0.472656,0.496094h12.351562c0.34668,0,0.520508-0.165039,0.520508-0.496094v-2.382812
		C198.018555,81.248047,197.844727,81.083008,197.498047,81.083008"/>
	<path fill="#FFFFFF" d="M63.270996,49.09668v-5.555664h3.870117c0.414062,0,0.795898,0.068359,1.147949,0.199219
		c0.01416,0.004883,0.029297,0.005859,0.041992,0.011719c0.364258,0.141602,0.683105,0.334961,0.955078,0.582031
		c0.273926,0.249023,0.483887,0.542969,0.634277,0.880859c0.146973,0.338867,0.22168,0.708008,0.22168,1.104492
		c0,0.430664-0.085938,0.816406-0.248047,1.166016c-0.140625,0.307617-0.339844,0.586914-0.60791,0.831055
		c-0.569824,0.519531-1.285156,0.780273-2.14502,0.780273H63.270996z M74.086426,58.224609l-1.090332-2.164062l-0.312988-0.621094
		l-1.969727-3.911133c0.941895-0.545898,1.69873-1.277344,2.269043-2.196289c0.570801-0.916992,0.855957-1.896484,0.855957-2.938477
		c0-0.776367-0.14502-1.529297-0.434082-2.257812c-0.175293-0.436523-0.40332-0.834961-0.657227-1.212891
		c-0.168945-0.25-0.341797-0.498047-0.545898-0.720703c-0.512207-0.5625-1.12793-1.012695-1.848145-1.351562
		c-0.717773-0.338867-1.49707-0.507812-2.336914-0.508789H67.44043h-6.088379c-0.94873,0.064453-1.700684,0.84668-1.700684,1.811523
		v0.428711v0.898438v14.768555V58.25c0,0.165039,0.039062,0.289062,0.117676,0.371094
		c0.078125,0.083008,0.195312,0.124023,0.352051,0.124023h2.655273c0.331055,0,0.494629-0.165039,0.494629-0.495117v-5.878906
		h0.002441h3.768555l1.488281,3.001953l1.462891,2.951172c0.131836,0.28125,0.323242,0.420898,0.570801,0.420898h1.913086h1.286133
		c0.165039,0,0.277832-0.057617,0.335938-0.173828C74.157227,58.457031,74.151367,58.341797,74.086426,58.224609"/>
	<path fill="#A9906C" d="M92.986328,96.066406c-0.10791,0-0.10791-0.09668-0.10791-0.09668v-0.457031
		c0,0,0-0.109375,0.10791-0.109375h3.484375c0.10791,0,0.10791,0.098633,0.10791,0.098633v0.455078c0,0,0,0.109375-0.10791,0.109375
		H92.986328z"/>
	<path fill="#FFFFFF" d="M151.478516,55.37207h-4.633789h-4.567383v-0.272461v-4.265625h6.844727
		c0.364258,0,0.545898-0.166016,0.545898-0.49707v-2.355469c0-0.330078-0.181641-0.496094-0.545898-0.496094h-6.844727v-3.746094
		h8.978516c0.330078,0,0.495117-0.165039,0.495117-0.495117v-2.40625c0-0.331055-0.165039-0.496094-0.495117-0.496094h-12.128906
		c-0.31543,0-0.47168,0.165039-0.47168,0.496094v14.757812v0.897461v0.429688c0,1.006836,0.81543,1.822266,1.822266,1.822266
		h5.925781h5.075195C151.826172,58.745117,152,58.580078,152,58.25v-2.381836
		C152,55.538086,151.826172,55.37207,151.478516,55.37207"/>
	<path fill="#A9906C" d="M45.556152,25.616211c-0.003906,0.295898-0.028809,0.597656-0.075684,0.902344
		c-0.03125,0.203125-0.072266,0.407227-0.123047,0.612305c-0.078125,0.307617-0.178223,0.618164-0.302246,0.926758
		c-0.020996,0.054688-0.044922,0.108398-0.069824,0.163086c-0.05127,0.110352-0.108887,0.224609-0.173828,0.339844
		c-0.032227,0.058594-0.066406,0.117188-0.102051,0.176758c-0.172363,0.288086-0.381348,0.587891-0.618164,0.894531
		c-0.096191,0.123047-0.199219,0.24707-0.305176,0.37207c-0.106934,0.125-0.217773,0.250977-0.328613,0.375977
		c-0.055176,0.0625-0.100098,0.123047-0.157227,0.18457c-0.049805,0.055664-0.101074,0.110352-0.152832,0.165039
		c-0.157227,0.165039-0.321289,0.330078-0.485352,0.495117c-0.092773,0.09375-0.177734,0.188477-0.273926,0.282227
		c-0.169922,0.166016-0.345703,0.329102-0.521973,0.491211c-0.059082,0.053711-0.117676,0.108398-0.176758,0.163086
		c-0.047363,0.042969-0.094238,0.087891-0.14209,0.131836c-0.045898,0.044922-0.094238,0.089844-0.14209,0.131836
		l-0.000977,0.001953l-0.001953,0.001953l-0.000977,0.000977c-0.036133,0.032227-0.071289,0.064453-0.105957,0.095703
		c-0.035156,0.033203-0.070312,0.06543-0.105957,0.09668l-0.000977,0.000977L41.1875,32.624023
		c-0.141113,0.124023-0.28418,0.243164-0.42627,0.364258c-0.020996,0.016602-0.041016,0.03418-0.061035,0.051758
		c-0.131836,0.110352-0.262695,0.225586-0.393066,0.333008c-0.262695,0.21582-0.524902,0.424805-0.782715,0.624023
		c-0.013184,0.009766-0.027344,0.020508-0.040039,0.03125l-0.001953,0.001953
		c-0.010254,0.006836-0.02002,0.015625-0.030273,0.022461l-1.424805,1.109375l-0.024902,0.019531l-0.023926,0.019531
		c-0.02832,0.039062-0.05127,0.080078-0.068359,0.124023c-0.01709,0.044922-0.026855,0.092773-0.026855,0.143555
		c0,0.019531,0.001953,0.039062,0.003906,0.057617c0.004883,0.038086,0.015137,0.074219,0.029297,0.108398
		c0.034668,0.083984,0.094727,0.15625,0.169922,0.209961l1.633789,0.827148c0.148926,0.074219,0.292969,0.154297,0.430176,0.240234
		c0.091797,0.057617,0.180664,0.118164,0.26709,0.181641c0.043945,0.03125,0.085938,0.064453,0.12793,0.095703
		c0.125,0.100586,0.243652,0.205078,0.355957,0.31543c0.111816,0.110352,0.216797,0.226562,0.314941,0.34668
		c0.130859,0.162109,0.248047,0.333008,0.352051,0.511719c0.083008,0.142578,0.156738,0.291016,0.220703,0.441406
		c0.192383,0.452148,0.29834,0.9375,0.318359,1.43457c0.025879,0.661133-0.102051,1.34668-0.384277,2.008789
		c-0.07666,0.177734-0.161621,0.351562-0.25293,0.519531c-0.062012,0.112305-0.125977,0.22168-0.193848,0.328125
		c-0.066895,0.107422-0.138184,0.211914-0.210938,0.314453c-0.184082,0.255859-0.38623,0.49707-0.603027,0.724609
		c-0.086914,0.09082-0.17627,0.179688-0.268066,0.266602c-0.366211,0.349609-0.768066,0.665039-1.194824,0.954102
		c-0.106445,0.072266-0.215332,0.143555-0.324219,0.211914c-0.055176,0.035156-0.109863,0.069336-0.165039,0.103516
		c-0.111816,0.066406-0.224121,0.132812-0.336914,0.197266c-0.113281,0.063477-0.228027,0.12793-0.343262,0.188477
		c-0.172852,0.091797-0.347656,0.182617-0.523926,0.268555c-0.255859,0.125-0.513672,0.242188-0.774902,0.357422
		c-0.233887,0.102539-0.467773,0.202148-0.703125,0.298828c-0.233887,0.09668-0.467773,0.189453-0.700684,0.277344
		c-0.15918,0.05957-0.287109,0.111328-0.430176,0.166016c-1.244141,0.478516-1.920898,0.789062-2.426758,1.369141
		c-0.148438,0.168945-0.283203,0.363281-0.416992,0.59082c-0.037109,0.06543-0.075195,0.133789-0.114258,0.205078
		c-0.132812,0.25-0.268066,0.537109-0.415039,0.874023c-0.078125,0.179688-0.158691,0.354492-0.240723,0.526367
		c-0.083008,0.169922-0.166992,0.335938-0.253418,0.49707c-0.21582,0.400391-0.443848,0.773438-0.682617,1.118164
		c-0.096191,0.137695-0.194336,0.270508-0.293945,0.398438c-0.100098,0.128906-0.201172,0.25293-0.304199,0.37207
		c-0.15625,0.178711-0.315918,0.347656-0.47998,0.506836c-0.118164,0.113281-0.236816,0.22168-0.35791,0.325195
		c-0.182129,0.154297-0.370117,0.297852-0.562988,0.428711c-0.12793,0.089844-0.259277,0.170898-0.39209,0.249023
		c-0.332031,0.194336-0.680176,0.356445-1.042969,0.487305c-0.14502,0.051758-0.292969,0.098633-0.442871,0.140625
		c-0.037109,0.011719-0.077148,0.018555-0.115234,0.02832V35.379883l7.63916-7.638672
		c0.234863-0.234375,0.239746-0.461914,0.018066-0.68457l-1.894043-1.893555c-0.234375-0.235352-0.468262-0.235352-0.703125,0
		l-5.060059,5.05957V15.15332c0-0.345703-0.156738-0.519531-0.472168-0.519531h-2.677734
		c-0.332031,0-0.49707,0.173828-0.49707,0.519531v8.066406l-5.047852-5.048828c-0.235352-0.235352-0.468262-0.235352-0.702148,0
		l-1.894043,1.893555c-0.223145,0.222656-0.216797,0.450195,0.01709,0.685547l7.626953,7.626953v9.114258l-5.047852-5.048828
		c-0.235352-0.234375-0.468262-0.234375-0.702148,0l-1.894043,1.894531c-0.223145,0.22168-0.216797,0.450195,0.01709,0.683594
		l7.626953,7.62793v12.893555c-0.038086-0.009766-0.078125-0.016602-0.116211-0.02832
		c-0.149902-0.041992-0.296875-0.088867-0.441895-0.140625c-0.362793-0.130859-0.710938-0.292969-1.043945-0.487305
		c-0.131836-0.078125-0.263184-0.15918-0.39209-0.249023c-0.191895-0.130859-0.379883-0.274414-0.562012-0.428711
		c-0.12207-0.103516-0.240723-0.211914-0.35791-0.325195c-0.164062-0.15918-0.32373-0.328125-0.479004-0.506836
		c-0.104004-0.119141-0.206055-0.243164-0.306152-0.37207c-0.098633-0.12793-0.196777-0.260742-0.292969-0.398438
		c-0.239746-0.344727-0.466797-0.717773-0.682617-1.118164c-0.086426-0.161133-0.17041-0.327148-0.253418-0.49707
		c-0.083008-0.171875-0.162598-0.34668-0.240723-0.526367c-0.189941-0.432617-0.35791-0.785156-0.530273-1.079102
		c-0.132812-0.227539-0.267578-0.421875-0.416016-0.59082c-0.505859-0.580078-1.183594-0.890625-2.427734-1.369141
		c-0.035156-0.014648-0.069824-0.02832-0.10498-0.041016c-0.103027-0.040039-0.205078-0.080078-0.324219-0.125
		c-0.23291-0.087891-0.466797-0.180664-0.700684-0.277344c-0.235352-0.09668-0.470215-0.196289-0.704102-0.298828
		c-0.260254-0.115234-0.518066-0.232422-0.773926-0.357422c-0.177246-0.085938-0.351074-0.176758-0.523926-0.268555
		c-0.116211-0.060547-0.22998-0.125-0.343262-0.188477c-0.11377-0.064453-0.226074-0.130859-0.335938-0.197266
		c-0.056152-0.03418-0.11084-0.068359-0.166016-0.103516c-0.109863-0.068359-0.217773-0.139648-0.324219-0.211914
		c-0.426758-0.289062-0.82959-0.604492-1.194824-0.954102c-0.091797-0.086914-0.181152-0.175781-0.269043-0.266602
		c-0.21582-0.227539-0.417969-0.46875-0.602051-0.724609c-0.072754-0.102539-0.144043-0.207031-0.211914-0.314453
		c-0.066895-0.106445-0.131836-0.21582-0.192871-0.328125c-0.09082-0.167969-0.17627-0.341797-0.25293-0.519531
		c-0.495117-1.15918-0.51416-2.387695-0.065918-3.443359c0.063965-0.150391,0.136719-0.298828,0.219727-0.441406
		c0.104004-0.178711,0.222168-0.349609,0.353027-0.511719c0.130859-0.161133,0.273926-0.3125,0.429199-0.456055
		c0.077637-0.070312,0.158691-0.138672,0.241699-0.206055c0.041992-0.03125,0.084961-0.064453,0.126953-0.095703
		c0.087402-0.063477,0.17627-0.124023,0.26709-0.181641c0.138184-0.085938,0.282227-0.166016,0.430176-0.240234l1.633789-0.827148
		c0.076172-0.053711,0.13623-0.125977,0.170898-0.209961c0.01416-0.03418,0.024414-0.070312,0.029297-0.108398
		c0.00293-0.018555,0.003906-0.038086,0.003906-0.057617c0-0.050781-0.009766-0.098633-0.026855-0.143555
		c-0.01709-0.043945-0.040039-0.084961-0.066895-0.124023l-0.026367-0.019531l-0.024902-0.019531l-1.423828-1.109375
		c-0.010254-0.006836-0.02002-0.015625-0.030273-0.022461L9.179199,34.02832c-0.012695-0.010742-0.026855-0.021484-0.040039-0.03125
		c-0.257812-0.199219-0.52002-0.408203-0.782715-0.624023c-0.130371-0.107422-0.262207-0.222656-0.393066-0.333008
		c-0.02002-0.017578-0.040039-0.035156-0.061035-0.051758c-0.143066-0.121094-0.286133-0.240234-0.427246-0.364258v-0.000977
		L7.474121,32.62207c-0.070801-0.0625-0.140625-0.128906-0.211914-0.192383L7.26123,32.428711l-0.001953-0.001953
		l-0.000977-0.000977c-0.048828-0.042969-0.096191-0.087891-0.143066-0.132812
		c-0.046875-0.043945-0.092773-0.088867-0.141113-0.131836c-0.058594-0.054688-0.117676-0.109375-0.176758-0.163086
		c-0.177246-0.162109-0.353027-0.325195-0.521973-0.491211c-0.097168-0.09375-0.181152-0.188477-0.273926-0.282227
		c-0.164062-0.165039-0.328125-0.330078-0.485352-0.495117c-0.051758-0.054688-0.104004-0.109375-0.153809-0.165039
		c-0.057129-0.061523-0.101074-0.12207-0.15625-0.18457c-0.11084-0.125-0.22168-0.250977-0.328613-0.375977
		s-0.208984-0.249023-0.305176-0.37207c-0.118164-0.15332-0.22998-0.304688-0.333008-0.454102
		c-0.104004-0.148438-0.19873-0.296875-0.285156-0.44043c-0.125-0.207031-0.229004-0.407227-0.311035-0.598633
		c-0.011719-0.025391-0.023926-0.053711-0.034668-0.081055c-0.125-0.308594-0.224121-0.619141-0.302246-0.926758
		c-0.050781-0.205078-0.091797-0.40918-0.123047-0.612305c-0.046875-0.304688-0.071777-0.606445-0.074707-0.902344
		c-0.010254-0.6875,0.094727-1.347656,0.321777-1.953125c0.053223-0.140625,0.111328-0.277344,0.177246-0.411133
		c0.024902-0.049805,0.049805-0.098633,0.075684-0.149414c0.078125-0.146484,0.164062-0.291016,0.259277-0.429688
		c0.916992-1.357422,2.416016-2.101562,4.333008-2.157227l0.720703-0.019531l0.541016-0.018555l0.255371-0.022461
		c0.019043,0,0.037598-0.000977,0.055664-0.003906c0.004395,0,0.008301-0.000977,0.012207-0.001953
		c0.019043-0.00293,0.037109-0.007812,0.053711-0.012695h0.001465c0.016602-0.005859,0.033691-0.012695,0.050781-0.020508
		c0.00293-0.000977,0.004883-0.00293,0.007812-0.004883c0.01709-0.006836,0.033203-0.017578,0.04834-0.027344
		c0.147949-0.130859,0.171875-0.280273,0.157715-0.399414l-0.040039-0.129883l0.001953-0.00293
		c0,0-0.013672-0.033203-0.039551-0.09375c0,0-2.356445-3.804688-1.591309-7.553711
		c0.135254-0.983398,0.516113-1.874023,1.128906-2.606445c0.081055-0.09668,0.166016-0.189453,0.255371-0.277344
		c2.584961-2.902344,7.083984-0.888672,7.083984-0.888672c0.025879,0.016602,0.053711,0.030273,0.084961,0.040039
		c0.00293,0.000977,0.007812,0.001953,0.010742,0.00293c0.000977,0,0.00293,0.000977,0.00293,0.000977h0.000977
		c0.14209,0.041016,0.288086,0.000977,0.390137-0.092773c0.010254-0.008789,0.02002-0.017578,0.027832-0.02832
		c0.02002-0.021484,0.037109-0.045898,0.052246-0.071289c0.085938-0.123047,0.193848-0.273438,0.312012-0.4375
		c0,0,0.556152-1.038086,1.560059-2.140625c-0.057129,0.074219-0.155273,0.211914-0.158203,0.21582
		c0.00293-0.003906,0.004883-0.007812,0.008301-0.010742c0.000977-0.000977,0.001953-0.00293,0.001953-0.003906
		c0.049805-0.064453,0.101074-0.139648,0.149902-0.203125c0.003906-0.004883,0.007812-0.011719,0.011719-0.017578h0.001465
		c0.012695-0.016602,0.026855-0.03125,0.039551-0.046875c0.02002-0.022461,0.039062-0.044922,0.059082-0.066406
		c0.02002-0.022461,0.040039-0.043945,0.060059-0.068359l0.001953-0.001953c0.003906-0.003906,0.007324-0.007812,0.010254-0.011719
		c0.042969-0.050781,0.083984-0.092773,0.125977-0.140625c0.000977-0.000977,0.001953-0.001953,0.00293-0.00293
		c0.001953-0.001953,0.003906-0.003906,0.005859-0.005859c0.10791-0.125,0.216309-0.249023,0.325195-0.364258
		c0.015137-0.015625,0.029785-0.03125,0.044922-0.046875c0.001953-0.00293,0.003906-0.004883,0.006836-0.006836
		c0.103027-0.106445,0.207031-0.206055,0.312012-0.300781c0.050293-0.045898,0.100098-0.089844,0.151367-0.131836
		c0.012695-0.012695,0.026855-0.024414,0.041016-0.035156c0.000977-0.000977,0.001953-0.001953,0.001953-0.001953
		c0.064941-0.054688,0.129883-0.106445,0.195801-0.15625c0.03418-0.026367,0.068848-0.050781,0.104004-0.077148
		c0.030762-0.022461,0.062988-0.046875,0.095215-0.070312c0.047852-0.032227,0.095703-0.064453,0.143555-0.09668
		c0.019043-0.011719,0.038086-0.026367,0.057129-0.038086c0.057129-0.036133,0.114258-0.071289,0.171875-0.105469
		c0.010254-0.005859,0.020996-0.013672,0.032227-0.019531c0.062988-0.037109,0.126953-0.073242,0.190918-0.107422
		c0.004883-0.001953,0.010254-0.006836,0.015137-0.008789c0.067871-0.036133,0.136719-0.071289,0.206055-0.104492
		c0.000977-0.000977,0.00293-0.000977,0.00293-0.000977c0.071777-0.035156,0.14502-0.068359,0.216797-0.100586
		c0.041016-0.016602,0.082031-0.032227,0.124023-0.049805c0.033203-0.012695,0.064941-0.026367,0.098145-0.039062
		c0.066895-0.025391,0.134766-0.049805,0.203125-0.072266c0.011719-0.004883,0.023926-0.008789,0.035645-0.013672
		c0.081055-0.025391,0.163086-0.050781,0.245117-0.074219c0.000977,0,0.000977,0,0.001953-0.000977
		c0.080078-0.021484,0.161133-0.042969,0.242188-0.061523c0.004883-0.000977,0.008789-0.000977,0.012207-0.00293
		c0.077637-0.016602,0.155762-0.033203,0.23291-0.046875c0.008789-0.001953,0.01709-0.00293,0.024902-0.004883
		c0.07373-0.013672,0.147949-0.024414,0.223145-0.035156c0.011719-0.001953,0.024902-0.003906,0.037598-0.005859
		c0.070312-0.009766,0.140137-0.016602,0.211426-0.023438c0.017578-0.001953,0.033691-0.003906,0.051758-0.005859
		c0.067871-0.005859,0.137207-0.009766,0.207031-0.013672c0.019043,0,0.038086-0.001953,0.057129-0.00293
		c0.063965-0.00293,0.126953-0.00293,0.190918-0.004883c0.024902,0,0.049805,0.001953,0.074707,0.001953
		c0.025391,0,0.05127-0.001953,0.076172-0.001953c0.062988,0.001953,0.126953,0.001953,0.189941,0.004883
		c0.02002,0.000977,0.039062,0.00293,0.058105,0.00293c0.068848,0.003906,0.138184,0.007812,0.207031,0.013672
		c0.01709,0.001953,0.035156,0.003906,0.051758,0.005859c0.071289,0.006836,0.141113,0.013672,0.211426,0.023438
		c0.012695,0.001953,0.025879,0.003906,0.038574,0.005859C25.238281,3.176758,25.3125,3.1875,25.385254,3.201172
		c0.009277,0.001953,0.01709,0.00293,0.024902,0.004883c0.078125,0.013672,0.15625,0.030273,0.23291,0.046875
		c0.005371,0.001953,0.008301,0.001953,0.012207,0.00293c0.081055,0.018555,0.162109,0.040039,0.242188,0.061523
		c0.000977,0.000977,0.001953,0.000977,0.001953,0.000977c0.083008,0.023438,0.164062,0.048828,0.245117,0.074219
		c0.011719,0.004883,0.023926,0.008789,0.036621,0.013672c0.067383,0.022461,0.135254,0.046875,0.202148,0.072266
		c0.03418,0.012695,0.066895,0.026367,0.100098,0.039062c0.040039,0.017578,0.082031,0.033203,0.12207,0.049805
		c0.072754,0.032227,0.145996,0.06543,0.216797,0.099609c0.001953,0.000977,0.001953,0.000977,0.003906,0.001953
		c0.069336,0.03418,0.138184,0.068359,0.206055,0.104492c0.004883,0.001953,0.010254,0.006836,0.015137,0.008789
		c0.063965,0.03418,0.12793,0.069336,0.190918,0.107422c0.01123,0.005859,0.020996,0.013672,0.032227,0.019531
		c0.056641,0.03418,0.114746,0.069336,0.170898,0.105469c0.02002,0.011719,0.038086,0.026367,0.058105,0.038086
		c0.047852,0.032227,0.095703,0.064453,0.142578,0.09668c0.033203,0.023438,0.063965,0.047852,0.096191,0.070312
		c0.035156,0.026367,0.069824,0.050781,0.104004,0.077148c0.065918,0.049805,0.130859,0.101562,0.194824,0.15625
		c0.000977,0,0.001953,0.000977,0.001953,0.000977c0.015137,0.011719,0.02832,0.023438,0.041992,0.036133
		c0.04834,0.040039,0.095215,0.082031,0.143066,0.124023c0.106934,0.097656,0.214355,0.199219,0.320312,0.308594
		c0.001953,0.001953,0.004883,0.004883,0.007812,0.007812c0.01416,0.015625,0.028809,0.030273,0.043945,0.045898
		c0.109863,0.117188,0.221191,0.243164,0.331055,0.370117c0.042969,0.048828,0.085938,0.09082,0.12793,0.143555
		c0.00293,0.003906,0.007324,0.007812,0.01123,0.011719l0.001953,0.001953c0.040039,0.046875,0.079102,0.088867,0.119141,0.134766
		c0.012695,0.015625,0.026855,0.030273,0.040039,0.046875c0.003906,0.005859,0.009766,0.013672,0.013672,0.019531
		c1.004883,1.102539,1.561035,2.139648,1.561035,2.139648v0.000977c0.118164,0.164062,0.225098,0.314453,0.312988,0.4375
		c0.01416,0.025391,0.03125,0.049805,0.050293,0.071289c0.008789,0.010742,0.018555,0.019531,0.027832,0.02832
		c0.102051,0.09375,0.249023,0.133789,0.390137,0.092773h0.000977c0,0,0.001953-0.000977,0.00293-0.000977
		c0.003906-0.000977,0.007812-0.001953,0.011719-0.00293c0.03125-0.009766,0.059082-0.023438,0.084961-0.040039
		c0,0,4.498047-2.013672,7.083984,0.888672c0.089355,0.087891,0.174316,0.180664,0.255371,0.277344
		c0.612793,0.732422,0.993652,1.623047,1.128906,2.606445c0.76416,3.749023-1.59082,7.553711-1.59082,7.553711
		c-0.026367,0.060547-0.040039,0.09375-0.040039,0.09375l0.001953,0.00293l-0.041016,0.129883
		c-0.01416,0.119141,0.009766,0.268555,0.158691,0.399414c0.015137,0.009766,0.03125,0.020508,0.047363,0.027344
		c0.00293,0.001953,0.005859,0.003906,0.008789,0.004883c0.016113,0.007812,0.03418,0.014648,0.05127,0.020508
		c0.017578,0.004883,0.035645,0.009766,0.053711,0.012695c0.003906,0.000977,0.009277,0.001953,0.013184,0.001953
		c0.019043,0.00293,0.037109,0.003906,0.055664,0.003906l0.255371,0.022461l0.540039,0.018555l0.72168,0.019531
		c1.916992,0.055664,3.416016,0.799805,4.333008,2.157227c0.094238,0.138672,0.180176,0.283203,0.259277,0.429688
		c0.025879,0.050781,0.050781,0.099609,0.075684,0.149414c0.064941,0.133789,0.124023,0.270508,0.177246,0.411133
		C45.460449,24.268555,45.56543,24.928711,45.556152,25.616211 M48.663086,25.56543
		c0.000977-0.327148-0.014648-0.652344-0.048828-0.973633c-0.075195-0.72168-0.239746-1.423828-0.49707-2.091797
		c-0.028809-0.073242-0.059082-0.147461-0.088867-0.219727c-0.062012-0.147461-0.12793-0.291992-0.199219-0.43457
		c-0.07666-0.155273-0.158691-0.306641-0.246582-0.457031c-0.087402-0.149414-0.180176-0.296875-0.27832-0.441406
		c-0.774902-1.147461-1.812988-2.038086-3.047852-2.639648c-0.28125-0.136719-0.574219-0.255859-0.874023-0.361328
		c-0.180176-0.064453-0.362793-0.124023-0.549805-0.177734c-0.125-0.035156-0.25-0.067383-0.378418-0.097656
		c0.067383-0.230469,0.134277-0.46582,0.199219-0.705078c0.064941-0.240234,0.128906-0.483398,0.188965-0.728516
		c0.121094-0.490234,0.230957-0.989258,0.317871-1.483398c0.134277-0.75293,0.181152-1.495117,0.14209-2.216797
		c-0.007812-0.160156-0.020996-0.319336-0.038086-0.477539c-0.041992-0.394531-0.11084-0.783203-0.205078-1.162109
		c-0.018555-0.075195-0.038574-0.150391-0.058594-0.226562c-0.041992-0.150391-0.088379-0.297852-0.138184-0.445312
		c-0.324219-0.956055-0.818848-1.84375-1.479004-2.631836c-0.062012-0.074219-0.125977-0.146484-0.190918-0.21875
		c-0.162109-0.178711-0.332031-0.348633-0.507324-0.510742c-0.034668-0.032227-0.069824-0.06543-0.105957-0.097656
		c-0.02002-0.017578-0.040039-0.03418-0.061035-0.051758c-0.053711-0.047852-0.109863-0.09375-0.165527-0.139648
		c-0.024414-0.020508-0.049316-0.039062-0.073242-0.05957c-0.029785-0.023438-0.061035-0.047852-0.09082-0.070312
		c-0.03418-0.026367-0.066406-0.051758-0.100098-0.076172c-0.019043-0.015625-0.039062-0.029297-0.058105-0.042969
		c-0.041016-0.030273-0.082031-0.060547-0.124023-0.088867c-0.048828-0.036133-0.099121-0.071289-0.149902-0.105469
		c-0.058105-0.039062-0.115234-0.079102-0.173828-0.117188c-0.019043-0.012695-0.038086-0.025391-0.058105-0.038086
		c-0.025879-0.016602-0.052246-0.03125-0.078125-0.046875c-0.077148-0.046875-0.154785-0.092773-0.234863-0.136719
		c-0.053223-0.02832-0.105957-0.056641-0.160156-0.084961c-0.054199-0.029297-0.10791-0.056641-0.162109-0.083984
		c-0.240723-0.12207-0.48877-0.234375-0.743652-0.333008c-0.169434-0.067383-0.341309-0.12793-0.516113-0.18457
		c-0.262207-0.083984-0.53125-0.154297-0.806152-0.211914c-0.013184-0.00293-0.024902-0.005859-0.038086-0.008789
		c-0.075684-0.014648-0.151855-0.030273-0.229004-0.043945c-0.22998-0.041016-0.463867-0.073242-0.700684-0.09668
		c-0.158203-0.016602-0.317383-0.02832-0.478027-0.035156c-0.161133-0.007812-0.323242-0.011719-0.487305-0.011719
		c-0.09668,0-0.193848,0.000977-0.291016,0.003906c-0.584961,0.016602-1.171875,0.085938-1.759766,0.205078
		c-0.098145,0.019531-0.196289,0.041016-0.293945,0.0625c-0.000977-0.000977-0.001953-0.00293-0.00293-0.003906h-0.001953
		c-0.838379-1.254883-1.634277-2.170898-2.515137-2.90332h-0.000977c-0.092285-0.076172-0.185059-0.149414-0.27832-0.222656
		c-0.046875-0.036133-0.094727-0.070312-0.142578-0.106445c-0.041992-0.030273-0.086426-0.0625-0.129395-0.09375
		c-0.062988-0.045898-0.12793-0.089844-0.191895-0.132812c-0.022949-0.015625-0.045898-0.03125-0.068848-0.046875
		c-0.076172-0.049805-0.151855-0.100586-0.229004-0.148438c-0.250977-0.155273-0.508301-0.297852-0.768066-0.425781
		c-0.018066-0.008789-0.035156-0.016602-0.053223-0.026367c-0.07373-0.035156-0.149902-0.070312-0.225586-0.104492
		c-0.025391-0.010742-0.050293-0.023438-0.076172-0.03418c-0.074219-0.032227-0.149902-0.064453-0.225098-0.094727
		c-0.019043-0.007812-0.038086-0.013672-0.057129-0.022461c-0.152832-0.05957-0.306641-0.115234-0.462891-0.166992
		c-0.020996-0.006836-0.041992-0.014648-0.062988-0.021484c-0.064941-0.020508-0.129883-0.039062-0.194824-0.058594
		c-0.044922-0.012695-0.091309-0.027344-0.138184-0.040039c-0.059082-0.016602-0.120117-0.032227-0.181152-0.047852
		c-0.052734-0.012695-0.106934-0.025391-0.160645-0.038086c-0.056152-0.012695-0.111328-0.025391-0.167969-0.038086
		c-0.073242-0.015625-0.146973-0.029297-0.221191-0.042969c-0.054199-0.009766-0.10791-0.019531-0.162109-0.02832
		c-0.09375-0.015625-0.187988-0.030273-0.282715-0.041992c-0.042969-0.005859-0.085938-0.010742-0.128906-0.016602
		c-0.077148-0.007812-0.15332-0.015625-0.229004-0.023438c-0.04541-0.003906-0.089355-0.006836-0.134277-0.010742
		c-0.081055-0.006836-0.162109-0.011719-0.243164-0.015625c-0.038574-0.001953-0.07666-0.003906-0.115723-0.004883
		C24.573242,0.00293,24.453125,0,24.331055,0c-0.120605,0-0.240723,0.00293-0.36084,0.007812
		c-0.039062,0.000977-0.078125,0.00293-0.115723,0.004883c-0.082031,0.003906-0.163086,0.008789-0.244141,0.015625
		c-0.043945,0.003906-0.088867,0.006836-0.132812,0.010742c-0.076172,0.007812-0.15332,0.015625-0.229004,0.023438
		c-0.043457,0.005859-0.086426,0.010742-0.129395,0.016602c-0.094727,0.011719-0.189941,0.026367-0.282715,0.041992
		c-0.054199,0.008789-0.10791,0.018555-0.162109,0.02832c-0.074219,0.013672-0.147949,0.027344-0.222168,0.042969
		c-0.054688,0.012695-0.11084,0.025391-0.166992,0.038086c-0.053711,0.012695-0.10791,0.025391-0.161621,0.038086
		c-0.060059,0.015625-0.120117,0.03125-0.181152,0.047852c-0.045898,0.012695-0.091309,0.027344-0.137207,0.040039
		c-0.064941,0.019531-0.130859,0.038086-0.194824,0.058594c-0.020996,0.006836-0.041992,0.014648-0.063965,0.021484
		c-0.155273,0.051758-0.309082,0.107422-0.461914,0.166992c-0.019043,0.008789-0.038086,0.014648-0.058105,0.022461
		c-0.075195,0.030273-0.149902,0.0625-0.225098,0.094727c-0.024902,0.010742-0.049805,0.023438-0.075195,0.03418
		c-0.075684,0.03418-0.151855,0.069336-0.226562,0.104492c-0.01709,0.009766-0.035156,0.017578-0.052246,0.026367
		c-0.078125,0.038086-0.154785,0.078125-0.231934,0.119141c-0.02002,0.009766-0.039062,0.019531-0.058105,0.03125
		c-0.063965,0.03418-0.126953,0.069336-0.190918,0.105469c-0.013184,0.006836-0.025879,0.015625-0.039062,0.022461
		c-0.083008,0.047852-0.166016,0.09668-0.248047,0.147461c-0.07666,0.047852-0.152832,0.098633-0.229004,0.148438
		c-0.022949,0.015625-0.045898,0.03125-0.068848,0.046875c-0.020996,0.013672-0.041992,0.029297-0.062988,0.042969
		c-2.194824,1.457031-3.197266,3.416016-3.197266,3.416016c-0.000977,0.000977-0.001953,0.00293-0.00293,0.003906
		c-0.097656-0.021484-0.195801-0.042969-0.293945-0.0625c-0.07373-0.015625-0.146973-0.029297-0.220703-0.041992
		c-0.293457-0.054688-0.587402-0.094727-0.881348-0.12207c-0.072754-0.006836-0.145996-0.013672-0.21875-0.018555
		c-0.146973-0.010742-0.292969-0.018555-0.438965-0.022461c-0.097168-0.00293-0.194336-0.003906-0.291016-0.003906
		c-0.163086,0-0.326172,0.003906-0.487305,0.011719c-0.159668,0.006836-0.319824,0.018555-0.478027,0.035156
		c-0.236816,0.023438-0.470703,0.055664-0.700684,0.09668c-0.077148,0.013672-0.15332,0.029297-0.22998,0.043945
		c-0.012207,0.00293-0.024902,0.005859-0.037109,0.008789c-0.274902,0.057617-0.543945,0.12793-0.806152,0.211914
		c-0.175781,0.056641-0.34668,0.117188-0.51709,0.18457c-0.253906,0.098633-0.501953,0.210938-0.743652,0.333008
		C9.719238,5.651367,9.666504,5.678711,9.612305,5.708008C9.505371,5.763672,9.398438,5.821289,9.294434,5.882812
		C9.242188,5.913086,9.19043,5.943359,9.13916,5.976562c-0.02002,0.012695-0.039062,0.025391-0.059082,0.038086
		C9.022461,6.052734,8.964355,6.092773,8.90625,6.131836c-0.049805,0.03418-0.100098,0.069336-0.149902,0.105469
		C8.715332,6.265625,8.67334,6.295898,8.633301,6.326172c-0.02002,0.013672-0.039062,0.027344-0.058105,0.042969
		C8.54248,6.393555,8.508301,6.418945,8.475098,6.445312c-0.029785,0.022461-0.061035,0.046875-0.09082,0.070312
		c-0.024902,0.020508-0.048828,0.039062-0.072754,0.05957C8.255371,6.621094,8.199219,6.666992,8.145508,6.714844
		c-0.020996,0.017578-0.041992,0.03418-0.062012,0.051758c-0.036133,0.032227-0.070312,0.06543-0.10498,0.097656
		C7.802246,7.026367,7.633301,7.196289,7.471191,7.375C7.40625,7.447266,7.342285,7.519531,7.279297,7.59375
		c-0.65918,0.788086-1.153809,1.675781-1.479004,2.631836c-0.049805,0.147461-0.096191,0.294922-0.137207,0.445312
		C5.64209,10.74707,5.62207,10.822266,5.604492,10.897461c-0.094238,0.378906-0.163086,0.767578-0.205078,1.162109
		c-0.01709,0.158203-0.030273,0.317383-0.038086,0.477539c-0.039062,0.72168,0.007812,1.463867,0.14209,2.216797
		c0.108887,0.617188,0.25293,1.242188,0.409668,1.848633c0.032227,0.12207,0.064453,0.243164,0.097168,0.363281
		c0.064941,0.239258,0.131836,0.474609,0.199219,0.705078c-0.128418,0.030273-0.254395,0.0625-0.379395,0.097656
		c-0.185547,0.053711-0.368652,0.113281-0.548828,0.177734c-0.300781,0.105469-0.592773,0.224609-0.873047,0.361328
		c-1.23584,0.601562-2.273926,1.492188-3.049805,2.639648c-0.195312,0.290039-0.370117,0.588867-0.523926,0.898438
		c-0.071289,0.142578-0.137207,0.287109-0.199219,0.43457C0.604492,22.352539,0.574219,22.426758,0.546387,22.5
		c-0.257324,0.667969-0.421875,1.370117-0.498047,2.091797c-0.033203,0.321289-0.048828,0.646484-0.047852,0.973633
		c0,0.149414,0.003906,0.299805,0.011719,0.450195c0.015137,0.300781,0.044922,0.603516,0.090332,0.907227
		c0.032715,0.228516,0.074707,0.457031,0.125977,0.686523c0.083008,0.381836,0.190918,0.764648,0.32373,1.146484
		c0.053223,0.152344,0.109863,0.305664,0.170898,0.458008c0.025391,0.061523,0.05127,0.124023,0.078125,0.186523
		s0.056152,0.124023,0.084961,0.1875c0.060059,0.125,0.124023,0.25,0.191895,0.375
		c0.238281,0.44043,0.527344,0.880859,0.850098,1.316406c0.092285,0.124023,0.187012,0.249023,0.28418,0.371094
		c0.097656,0.123047,0.196777,0.246094,0.297852,0.367188c0.102051,0.12207,0.206055,0.242188,0.311035,0.362305
		c0.157227,0.178711,0.317871,0.356445,0.47998,0.530273c0.651855,0.695312,1.334961,1.34375,1.960938,1.901367
		c0.072266,0.064453,0.144043,0.12793,0.215332,0.192383c0.070801,0.061523,0.141602,0.125,0.209961,0.182617l0.000977,0.001953
		c-0.062988,0.05957-0.125,0.120117-0.186035,0.181641c-0.425293,0.431641-0.791992,0.913086-1.094238,1.435547
		c-0.072754,0.125-0.141113,0.251953-0.206055,0.379883c-0.256836,0.512695-0.44873,1.048828-0.575684,1.601562
		c-0.03125,0.137695-0.059082,0.275391-0.083008,0.416016c-0.058105,0.348633-0.091309,0.703125-0.098145,1.058594
		c-0.005859,0.285156,0.004883,0.572266,0.033203,0.859375c0.075684,0.788086,0.276855,1.579102,0.60498,2.347656
		c0.014648,0.035156,0.030762,0.069336,0.046875,0.104492c0.635742,1.438477,1.564941,2.580078,2.654785,3.507812
		c0.15918,0.135742,0.322266,0.266602,0.488281,0.393555c0.994629,0.762695,2.098633,1.369141,3.220703,1.881836
		c0.374023,0.171875,0.75,0.331055,1.125,0.483398c0.272949,0.111328,0.546387,0.222656,0.815918,0.326172
		c0.259277,0.09668,0.477051,0.179688,0.663086,0.253906c0.037109,0.013672,0.073242,0.02832,0.10791,0.041992
		c0.069336,0.02832,0.133301,0.054688,0.193359,0.080078c0.148926,0.063477,0.270996,0.12207,0.37207,0.180664
		c0.061035,0.035156,0.114746,0.070312,0.162598,0.106445c0.049316,0.036133,0.091309,0.072266,0.130371,0.113281
		c0.012695,0.013672,0.025879,0.026367,0.038086,0.040039c0.023926,0.02832,0.046875,0.057617,0.068848,0.088867
		c0.010742,0.015625,0.021973,0.03125,0.032715,0.047852c0.03125,0.048828,0.062012,0.102539,0.092285,0.162109
		c0.009766,0.018555,0.02002,0.039062,0.029785,0.05957c0.020996,0.041992,0.041016,0.086914,0.062988,0.133789
		c0.032227,0.071289,0.065918,0.149414,0.104004,0.235352c1.616211,3.700195,4.040039,5.975586,7.193359,6.80957
		c0.054688,0.014648,0.11084,0.029297,0.166016,0.044922c0.164551,0.047852,0.328613,0.095703,0.500977,0.12793
		c0.051758,0.009766,0.104004,0.010742,0.154785,0.018555v10.90918h-1.336914c-0.331055,0-0.496094,0.165039-0.496094,0.49707
		v2.677734c0,0.314453,0.165039,0.47168,0.496094,0.47168h1.336914v23.859375v0.429688
		c0,1.006836,0.816895,1.823242,1.824219,1.823242c1.006836,0,1.822754-0.816406,1.822754-1.823242v-0.429688v-7.205078h3.722168
		c0,1.006836,0.815918,1.823242,1.822754,1.823242h5.92627c0.344727,0,0.519043-0.158203,0.519043-0.47168V88.59375
		c0-0.332031-0.174316-0.49707-0.519043-0.49707h-4.733398v-1.835938h3.513184c0.346191,0,0.52002-0.15625,0.52002-0.47168
		v-2.677734c0-0.331055-0.173828-0.49707-0.52002-0.49707h-3.513184V80.77832h4.733398
		c0.344727,0,0.519043-0.165039,0.519043-0.496094v-2.677734c0-0.314453-0.174316-0.472656-0.519043-0.472656h-5.92627
		c-1.006836,0-1.822754,0.816406-1.822754,1.823242h-3.722168v-5.688477h1.312988c0.346191,0,0.52002-0.157227,0.52002-0.47168
		v-2.677734c0-0.332031-0.173828-0.49707-0.52002-0.49707h-1.312988v-10.90625
		c0.052246-0.005859,0.103027-0.011719,0.154785-0.021484c0.229004-0.042969,0.445312-0.114258,0.66748-0.172852
		c3.152832-0.833984,5.57666-3.109375,7.192871-6.80957c0.038086-0.085938,0.071777-0.164062,0.104004-0.235352
		c0.021973-0.046875,0.041992-0.091797,0.062012-0.133789c0.010742-0.020508,0.020996-0.041016,0.030762-0.05957
		c0.030273-0.05957,0.060059-0.113281,0.092285-0.162109c0.010742-0.016602,0.021973-0.032227,0.032715-0.047852
		c0.020996-0.03125,0.043945-0.060547,0.069336-0.088867c0.011719-0.013672,0.024902-0.026367,0.037598-0.040039
		c0.039062-0.041016,0.082031-0.077148,0.130371-0.113281c0.047852-0.036133,0.101562-0.071289,0.162598-0.106445
		c0.081055-0.046875,0.175293-0.092773,0.286133-0.142578c0.083008-0.037109,0.175293-0.076172,0.279297-0.118164
		c0.034668-0.013672,0.070801-0.02832,0.10791-0.041992c0.185059-0.074219,0.403809-0.157227,0.662109-0.253906
		c0.269531-0.103516,0.543945-0.214844,0.815918-0.326172c0.375977-0.152344,0.751953-0.311523,1.125-0.483398
		c1.123047-0.512695,2.227051-1.119141,3.22168-1.881836c0.166016-0.126953,0.329102-0.257812,0.488281-0.393555
		c1.089844-0.927734,2.019043-2.069336,2.654785-3.507812c0.015137-0.035156,0.032227-0.069336,0.046875-0.104492
		c0.328125-0.768555,0.529297-1.55957,0.60498-2.347656c0.027344-0.287109,0.038086-0.574219,0.033203-0.859375
		c-0.00293-0.141602-0.009766-0.28418-0.020996-0.425781c-0.01709-0.211914-0.042969-0.422852-0.078125-0.632812
		c-0.022949-0.140625-0.050781-0.27832-0.082031-0.416016c-0.126953-0.552734-0.318848-1.088867-0.57666-1.601562
		c-0.063965-0.12793-0.132324-0.254883-0.205078-0.379883c-0.302246-0.522461-0.669922-1.003906-1.095215-1.435547
		c-0.060059-0.061523-0.12207-0.12207-0.185059-0.181641l0.000977-0.001953c0.068359-0.057617,0.138184-0.121094,0.210449-0.182617
		c0.070801-0.064453,0.142578-0.12793,0.213867-0.192383c0.626953-0.557617,1.310059-1.206055,1.960938-1.901367
		c0.163086-0.173828,0.32373-0.351562,0.480957-0.530273c0.209961-0.239258,0.414062-0.483398,0.608887-0.729492
		c0.097168-0.12207,0.190918-0.24707,0.28418-0.371094c0.322754-0.435547,0.611816-0.875977,0.850098-1.316406
		c0.067871-0.125,0.131836-0.25,0.190918-0.375c0.029785-0.063477,0.058105-0.125,0.084961-0.1875
		c0.027832-0.0625,0.054199-0.125,0.079102-0.186523c0.061035-0.152344,0.117676-0.305664,0.170898-0.458008
		c0.080078-0.229492,0.149902-0.458984,0.211914-0.688477c0.041992-0.152344,0.079102-0.305664,0.111816-0.458008
		c0.01709-0.076172,0.033203-0.152344,0.04834-0.228516c0.029785-0.15332,0.055664-0.304688,0.078125-0.458008
		c0.044922-0.303711,0.07373-0.606445,0.088867-0.907227C48.658203,25.865234,48.662109,25.714844,48.663086,25.56543"/>
	<path fill="#A9906C" d="M108.397461,90.174805l-0.308594,0.703125c-0.039062,0.102539-0.103027,0.154297-0.192383,0.154297
		h-0.533691c-0.049316,0-0.081055-0.006836-0.096191-0.020508c-0.013672-0.015625-0.021973-0.040039-0.021973-0.074219
		c0-0.019531,0.00293-0.040039,0.01123-0.05957c0.006836-0.020508,0.015625-0.046875,0.024902-0.081055l0.294922-0.681641
		c0.054199-0.102539,0.120117-0.154297,0.200195-0.154297l0.554688-0.000977c0.069336,0,0.104004,0.024414,0.104004,0.073242
		C108.43457,90.073242,108.422852,90.120117,108.397461,90.174805"/>
</g>
</svg>
