<svg version="1.1" id="Calque_1" xmlns="http://www.w3.org/2000/svg" xmlns:xlink="http://www.w3.org/1999/xlink" x="0px" y="0px"
	 width="11px" height="15px" viewBox="0 0 11 15" enable-background="new 0 0 11 15" xml:space="preserve">
<path fill="#FFFFFF" d="M7.607422,0.145996C7.709961,0.048828,7.849609,0,8.027344,0s0.331055,0.058105,0.461914,0.172852
	l2.239258,2.117188c0.067383,0.062012,0.113281,0.128906,0.140625,0.19873c0.027344,0.071289,0.051758,0.141113,0.070312,0.211914
	c-0.018555,0.062012-0.040039,0.128418-0.063477,0.199219C10.852539,2.969727,10.8125,3.041016,10.757812,3.11084L6.179688,7.466797
	l4.578125,4.355469c0.121094,0.158203,0.181641,0.296875,0.181641,0.410156c0,0.168945-0.075195,0.323242-0.224609,0.464844
	l-2.294922,2.116211C8.306641,14.9375,8.175781,15,8.027344,15c-0.15918,0-0.303711-0.0625-0.433594-0.186523L0.271484,7.86377
	C0.130371,7.731934,0.060547,7.604004,0.060547,7.47998c0-0.141113,0.069824-0.27832,0.210938-0.410156L7.607422,0.145996z"/>
</svg>
