<?xml version="1.0" encoding="utf-8"?>
<!-- Generator: Adobe Illustrator 15.1.0, SVG Export Plug-In . SVG Version: 6.00 Build 0)  -->
<!DOCTYPE svg PUBLIC "-//W3C//DTD SVG 1.1//EN" "http://www.w3.org/Graphics/SVG/1.1/DTD/svg11.dtd">
<svg version="1.1" id="Calque_1" xmlns="http://www.w3.org/2000/svg" xmlns:xlink="http://www.w3.org/1999/xlink" x="0px" y="0px"
	 width="50px" height="50px" viewBox="0 0 50 50" enable-background="new 0 0 50 50" xml:space="preserve">
<g>
	<defs>
		<rect id="SVGID_1_" width="50" height="50"/>
	</defs>
	<clipPath id="SVGID_2_">
		<use xlink:href="#SVGID_1_"  overflow="visible"/>
	</clipPath>
	<path clip-path="url(#SVGID_2_)" fill="#205346" d="M9.580078,47.09668c-0.012207,0-0.022949,0-0.035156-0.000977
		c-2.147949-0.151367-3.831055-1.949219-3.831055-4.09375v-0.858398c0-2.938477-1.271973-5.875977-3.581055-8.267578
		C0.749023,32.449219-0.009277,30.530273,0,28.472656c0.001953-0.296875,0.018066-0.588867,0.050781-0.880859
		c0.384277-3.442383,3.14209-6.270996,6.559082-6.727051c0.481934-0.065918,0.954102-0.081055,1.449219-0.050293l-0.592285-8.983887
		c-0.47168-2.896973,0.37793-5.905762,2.337891-8.208008c1.956055-2.301758,4.810059-3.623047,7.832031-3.623047h14.833008
		c3.021484,0,5.875,1.321289,7.832031,3.624023c1.958984,2.30127,2.804688,5.333008,2.322266,8.318848l-0.680664,8.869141
		c0.492188-0.026855,0.962891-0.008789,1.416016,0.054199c3.413086,0.456055,6.172852,3.284668,6.557617,6.726074
		c0.258789,2.359375-0.500977,4.648438-2.083008,6.28418C45.522461,36.265625,44.25,39.202148,44.25,42.143555v0.654297
		c0,2.171875-1.630859,4.009766-3.794922,4.274414L9.581055,47.09668H9.580078z M7.584961,21.801758
		c-0.279297,0-0.560059,0.018066-0.84082,0.055664c-2.969238,0.396973-5.365234,2.854004-5.698242,5.844727
		c-0.028809,0.258789-0.043945,0.514648-0.044922,0.768555c-0.008301,1.799805,0.648926,3.469727,1.850098,4.708008
		c2.491699,2.582031,3.86377,5.763672,3.86377,8.964844v0.858398c0,1.614258,1.265137,2.970703,2.882812,3.09375l30.795898-0.021484
		c1.602539-0.199219,2.855469-1.609375,2.855469-3.276367v-0.654297c0-3.203125,1.373047-6.385742,3.866211-8.963867
		c1.375-1.419922,2.033203-3.416992,1.806641-5.478516c-0.333984-2.98877-2.731445-5.446777-5.697266-5.84375
		c-0.595703-0.082031-1.182617-0.069824-1.761719,0.005371c-0.151367,0.016602-0.298828-0.03125-0.40918-0.134277
		c-0.107422-0.104004-0.165039-0.251953-0.152344-0.401855l0.731445-9.50293c0.439453-2.736328-0.325195-5.473145-2.09375-7.55127
		c-1.766602-2.079102-4.341797-3.270996-7.069336-3.270996H17.636719c-2.728027,0-5.304688,1.191895-7.069824,3.27002
		c-1.769043,2.079102-2.537109,4.791992-2.105957,7.446289l0.634766,9.618652
		c0.010254,0.149414-0.047852,0.296387-0.156738,0.397949c-0.108887,0.103027-0.255859,0.151367-0.408203,0.131348
		C8.217773,21.824707,7.901855,21.801758,7.584961,21.801758"/>
	<path clip-path="url(#SVGID_2_)" fill="#205346" d="M9.61377,47.09668c-0.012207,0-0.022949,0-0.035156-0.000977
		c-2.147949-0.151367-3.831055-1.949219-3.831055-4.09375v-0.858398c0-2.938477-1.271973-5.875977-3.581055-8.267578
		c-1.383789-1.426758-2.141602-3.345703-2.132812-5.40332c0.001953-0.296875,0.018066-0.588867,0.050781-0.880859
		c0.384277-3.442383,3.14209-6.27002,6.559082-6.727051c0.480957-0.065918,0.955078-0.081055,1.449219-0.050293l-0.592285-8.983887
		c-0.47168-2.896973,0.378418-5.905762,2.338379-8.208008c1.956055-2.301758,4.810059-3.623047,7.832031-3.623047h14.833008
		c3.020508,0,5.875,1.321289,7.831055,3.624023c1.958984,2.300293,2.806641,5.332031,2.324219,8.317871l-0.682617,8.870117
		c0.488281-0.026855,0.959961-0.009766,1.416992,0.054199c3.414062,0.456055,6.171875,3.284668,6.555664,6.726074
		c0.260742,2.357422-0.49707,4.647461-2.080078,6.28418c-2.3125,2.390625-3.586914,5.327148-3.586914,8.267578v0.654297
		c0,2.171875-1.630859,4.009766-3.793945,4.274414L9.614746,47.09668H9.61377z M7.618652,21.801758
		c-0.278809,0-0.560059,0.018066-0.84082,0.055664c-2.969238,0.396973-5.365234,2.85498-5.698242,5.844727
		c-0.028809,0.258789-0.043945,0.514648-0.044922,0.768555c-0.007812,1.799805,0.648926,3.469727,1.850098,4.708008
		c2.491699,2.582031,3.86377,5.763672,3.86377,8.964844v0.858398c0,1.614258,1.265137,2.970703,2.883301,3.09375l30.795898-0.021484
		c1.601562-0.199219,2.853516-1.609375,2.853516-3.276367v-0.654297c0-3.202148,1.373047-6.384766,3.867188-8.963867
		c1.375-1.421875,2.03418-3.417969,1.806641-5.478516c-0.333008-2.98877-2.729492-5.446777-5.696289-5.84375
		c-0.597656-0.082031-1.185547-0.069824-1.762695,0.005371c-0.150391,0.016602-0.299805-0.03125-0.408203-0.134277
		c-0.109375-0.104004-0.166016-0.251953-0.154297-0.401855l0.733398-9.50293c0.439453-2.737305-0.325195-5.474121-2.094727-7.55127
		c-1.765625-2.079102-4.341797-3.270996-7.068359-3.270996H17.670898c-2.728027,0-5.305176,1.191895-7.070312,3.27002
		c-1.769043,2.079102-2.537109,4.791992-2.105957,7.446289l0.635254,9.618652c0.009766,0.149414-0.04834,0.296387-0.157227,0.397949
		c-0.108887,0.103027-0.255859,0.151367-0.407715,0.131348C8.251465,21.824707,7.935547,21.801758,7.618652,21.801758"/>
	<path clip-path="url(#SVGID_2_)" fill="#205346" d="M34.288086,12.126465c-0.128906,0-0.256836-0.048828-0.354492-0.146973
		l-1.563477-1.564941c-0.195312-0.196289-0.195312-0.513184,0-0.708984c0.195312-0.194824,0.512695-0.194824,0.707031,0
		l1.564453,1.565918c0.195312,0.195801,0.195312,0.513184,0,0.708008C34.543945,12.077637,34.416016,12.126465,34.288086,12.126465"
		/>
	<path clip-path="url(#SVGID_2_)" fill="#205346" d="M32.723633,12.126465c-0.12793,0-0.255859-0.048828-0.353516-0.146973
		c-0.195312-0.194824-0.195312-0.512207,0-0.708008l1.563477-1.565918c0.195312-0.194824,0.512695-0.194824,0.707031,0
		c0.196289,0.195801,0.196289,0.512695,0,0.708984l-1.5625,1.564941C32.980469,12.077637,32.851562,12.126465,32.723633,12.126465"
		/>
	<path clip-path="url(#SVGID_2_)" fill="#205346" d="M25.6875,12.126465c-0.12793,0-0.255859-0.048828-0.354492-0.146973
		l-1.5625-1.564941c-0.196289-0.196289-0.196289-0.513184,0-0.708984c0.194824-0.194824,0.511719-0.194824,0.707031,0
		l1.563477,1.565918c0.195312,0.195801,0.195312,0.513184,0,0.708008C25.943359,12.077637,25.81543,12.126465,25.6875,12.126465"/>
	<path clip-path="url(#SVGID_2_)" fill="#205346" d="M24.124023,12.126465c-0.128418,0-0.256348-0.048828-0.354004-0.146973
		c-0.195312-0.194824-0.195312-0.512207,0-0.708008l1.563965-1.565918c0.194336-0.194824,0.510742-0.194824,0.708008,0
		c0.193359,0.195801,0.193359,0.512695,0,0.708984l-1.563965,1.564941C24.379883,12.077637,24.251953,12.126465,24.124023,12.126465
		"/>
	<path clip-path="url(#SVGID_2_)" fill="#205346" d="M30.285156,18.137695c-0.12793,0-0.256836-0.048828-0.354492-0.146973
		l-1.5625-1.564941c-0.196289-0.195801-0.196289-0.512695,0-0.708984c0.194336-0.194824,0.511719-0.194824,0.707031,0
		l1.563477,1.565918c0.195312,0.196289,0.195312,0.513184,0,0.708008C30.541016,18.088867,30.413086,18.137695,30.285156,18.137695"
		/>
	<path clip-path="url(#SVGID_2_)" fill="#205346" d="M28.72168,18.137695c-0.128906,0-0.256836-0.048828-0.354492-0.146973
		c-0.195312-0.194824-0.195312-0.511719,0-0.708008l1.564453-1.565918c0.194336-0.194824,0.511719-0.194824,0.707031,0
		c0.195312,0.196289,0.195312,0.513184,0,0.708984l-1.563477,1.564941C28.977539,18.088867,28.849609,18.137695,28.72168,18.137695"
		/>
	<path clip-path="url(#SVGID_2_)" fill="#205346" d="M40.419922,47.09668L40.419922,47.09668l-30.81543-0.020508
		c-2.222656-0.269531-3.854004-2.106445-3.854004-4.27832v-0.654297c0-2.94043-1.272949-5.875977-3.585938-8.267578
		c-1.582031-1.635742-2.34082-3.925781-2.081055-6.28418c0.384277-3.441895,3.14209-6.270508,6.559082-6.726562
		c0.450195-0.062988,0.92334-0.081055,1.414062-0.053223l-0.687012-8.912109C6.891602,8.956055,7.739746,5.924316,9.69873,3.623047
		C11.653809,1.320312,14.508789,0,17.529785,0h14.833496c3.020508,0,5.875,1.320312,7.831055,3.623047
		c1.958984,2.30127,2.80957,5.310059,2.332031,8.254883l-0.585938,8.936035c0.490234-0.030762,0.964844-0.015625,1.450195,0.05127
		c3.416016,0.456055,6.174805,3.284668,6.557617,6.725586c0.032227,0.293945,0.050781,0.584961,0.051758,0.875
		c0.009766,2.063477-0.748047,3.983398-2.132812,5.411133c-2.30957,2.391602-3.581055,5.327148-3.581055,8.266602v0.857422
		c0,2.145508-1.683594,3.943359-3.831055,4.094727C40.442383,47.09668,40.431641,47.09668,40.419922,47.09668 M7.615723,21.80127
		c-0.277832,0-0.558105,0.018066-0.837891,0.055664c-2.970215,0.396973-5.366211,2.85498-5.699219,5.846191
		c-0.227051,2.058594,0.431152,4.054688,1.806152,5.475586c2.493164,2.579102,3.866699,5.763672,3.866699,8.964844v0.654297
		c0,1.666016,1.253418,3.077148,2.914062,3.280273l30.734863,0.016602c1.619141-0.12207,2.884766-1.477539,2.884766-3.09375
		v-0.857422c0-3.200195,1.371094-6.384766,3.862305-8.964844c1.202148-1.238281,1.859375-2.908203,1.851562-4.701172
		c-0.000977-0.262695-0.016602-0.518555-0.044922-0.775391c-0.332031-2.990234-2.728516-5.448242-5.697266-5.844238
		c-0.605469-0.083008-1.200195-0.069824-1.788086,0.008301c-0.148438,0.019043-0.297852-0.029297-0.408203-0.132324
		c-0.108398-0.101562-0.166992-0.247559-0.157227-0.397949l0.630859-9.570801c0.43457-2.702148-0.332031-5.415039-2.101562-7.493164
		c-1.765625-2.077637-4.341797-3.27002-7.069336-3.27002H17.529785c-2.727051,0-5.304199,1.192383-7.068848,3.27002
		c-1.769043,2.077148-2.53418,4.813965-2.098145,7.510254l0.736816,9.543945c0.012207,0.150879-0.044922,0.297852-0.153809,0.401855
		S8.6875,21.878906,8.537598,21.862305C8.23291,21.823242,7.924805,21.80127,7.615723,21.80127"/>
	<path clip-path="url(#SVGID_2_)" fill="#205346" d="M2.150391,33.887695c-1.386719-1.447266-2.149902-3.348633-2.149902-5.354492
		c0-4.263672,3.463867-7.73291,7.723145-7.73291c4.257812,0,7.722656,3.469238,7.722656,7.73291
		c0,0.525391-0.052734,1.048828-0.156738,1.558594l-0.97998-0.202148c0.089844-0.442383,0.135742-0.898438,0.135742-1.356445
		c0-3.711914-3.015625-6.730957-6.72168-6.730957c-3.707031,0-6.723145,3.019043-6.723145,6.730957
		c0,1.746094,0.665039,3.400391,1.87207,4.65918L2.150391,33.887695z"/>
	<path clip-path="url(#SVGID_2_)" fill="#205346" d="M37.439453,36.265625H12.59375
		c-0.783203,0-1.420898-0.635742-1.420898-1.418945v-2.477539c0-1.62793,1.321777-2.952148,2.947754-2.952148h21.79248
		c1.625977,0,2.947266,1.324219,2.947266,2.952148v2.477539C38.860352,35.629883,38.223633,36.265625,37.439453,36.265625
		 M14.120605,30.418945c-1.07373,0-1.946777,0.875-1.946777,1.950195v2.477539c0,0.230469,0.187988,0.416992,0.419922,0.416992
		h24.845703c0.232422,0,0.420898-0.186523,0.420898-0.416992v-2.477539c0-1.075195-0.874023-1.950195-1.947266-1.950195H14.120605z"
		/>
	<path clip-path="url(#SVGID_2_)" fill="#205346" d="M15.220215,50h-3.12207c-0.828125,0-1.500977-0.673828-1.500977-1.50293
		v-2.086914h1.000977v2.086914c0,0.276367,0.224121,0.500977,0.5,0.500977h3.12207c0.275879,0,0.5-0.224609,0.5-0.500977v-2.086914
		h1.000977v2.086914C16.721191,49.326172,16.04834,50,15.220215,50"/>
	<path clip-path="url(#SVGID_2_)" fill="#205346" d="M47.848633,33.887695l-0.720703-0.695312
		c1.207031-1.257812,1.871094-2.912109,1.871094-4.65918c0-3.711914-3.016602-6.730957-6.722656-6.730957
		c-3.707031,0-6.722656,3.019043-6.722656,6.730957c0,0.455078,0.045898,0.912109,0.136719,1.357422l-0.980469,0.200195
		c-0.104492-0.511719-0.15625-1.03418-0.15625-1.557617c0-4.263672,3.463867-7.73291,7.722656-7.73291
		c4.259766,0,7.723633,3.469238,7.723633,7.73291C50,30.539062,49.235352,32.44043,47.848633,33.887695"/>
	<path clip-path="url(#SVGID_2_)" fill="#205346" d="M37.867188,50h-3.121094c-0.828125,0-1.500977-0.673828-1.500977-1.50293
		v-2.086914h1v2.086914c0,0.276367,0.224609,0.500977,0.500977,0.500977h3.121094c0.276367,0,0.5-0.224609,0.5-0.500977v-2.086914
		h1.000977v2.086914C39.368164,49.326172,38.695312,50,37.867188,50"/>
	<path clip-path="url(#SVGID_2_)" fill="#205346" d="M15.711914,12.126465c-0.128418,0-0.256348-0.048828-0.354004-0.146973
		c-0.195312-0.194824-0.195312-0.512207,0-0.708008l1.563965-1.565918c0.194824-0.194824,0.511719-0.194824,0.707031,0
		c0.195801,0.195801,0.195801,0.512695,0,0.708984l-1.562988,1.564941C15.967773,12.077637,15.839844,12.126465,15.711914,12.126465
		"/>
	<path clip-path="url(#SVGID_2_)" fill="#205346" d="M17.275391,12.126465c-0.12793,0-0.255859-0.048828-0.354004-0.146973
		l-1.562988-1.564941c-0.196289-0.196289-0.196289-0.513184,0-0.708984c0.194824-0.194824,0.511719-0.194824,0.707031,0
		l1.563965,1.565918c0.194824,0.195801,0.194824,0.513184,0,0.708008C17.53125,12.077637,17.40332,12.126465,17.275391,12.126465"/>
	<path clip-path="url(#SVGID_2_)" fill="#205346" d="M19.714355,18.137695c-0.12793,0-0.255859-0.048828-0.354004-0.146973
		c-0.194824-0.194824-0.194824-0.511719,0-0.708008l1.563965-1.565918c0.195312-0.194824,0.512207-0.194824,0.707031,0
		c0.196289,0.196289,0.196289,0.513184,0,0.708984l-1.562988,1.564941C19.970703,18.088867,19.842285,18.137695,19.714355,18.137695
		"/>
	<path clip-path="url(#SVGID_2_)" fill="#205346" d="M21.277832,18.137695c-0.12793,0-0.255859-0.048828-0.354004-0.146973
		l-1.562988-1.564941c-0.195801-0.195801-0.195801-0.512695,0-0.708984c0.195312-0.194824,0.512207-0.194824,0.707031,0
		l1.563965,1.565918c0.195312,0.196289,0.195312,0.513184,0,0.708008C21.53418,18.088867,21.405762,18.137695,21.277832,18.137695"
		/>
</g>
</svg>
