<?xml version="1.0" encoding="utf-8"?>
<!-- Generator: Adobe Illustrator 15.1.0, SVG Export Plug-In . SVG Version: 6.00 Build 0)  -->
<!DOCTYPE svg PUBLIC "-//W3C//DTD SVG 1.1//EN" "http://www.w3.org/Graphics/SVG/1.1/DTD/svg11.dtd">
<svg version="1.1" id="Calque_1" xmlns="http://www.w3.org/2000/svg" xmlns:xlink="http://www.w3.org/1999/xlink" x="0px" y="0px"
	 width="50.212891px" height="51.031738px" viewBox="0 0 50.212891 51.031738" enable-background="new 0 0 50.212891 51.031738"
	 xml:space="preserve">
<g>
	<defs>
		<rect id="SVGID_1_" y="0.000977" width="50.212891" height="51.030762"/>
	</defs>
	<clipPath id="SVGID_2_">
		<use xlink:href="#SVGID_1_"  overflow="visible"/>
	</clipPath>
	<path clip-path="url(#SVGID_2_)" fill="#205346" d="M38.925781,18.328613c-2.241211,0-4.064453-1.898926-4.064453-4.231934
		c0-2.333984,1.823242-4.231934,4.064453-4.231934c2.242188,0,4.06543,1.897949,4.06543,4.231934
		C42.991211,16.429688,41.167969,18.328613,38.925781,18.328613 M38.925781,10.864746
		c-1.702148,0-3.086914,1.450195-3.086914,3.231934c0,1.782227,1.384766,3.231934,3.086914,3.231934
		s3.086914-1.449707,3.086914-3.231934C42.012695,12.314941,40.62793,10.864746,38.925781,10.864746"/>
	<path clip-path="url(#SVGID_2_)" fill="#205346" d="M28.394531,19.255859c-1.881836-0.400879-3.246094-2.14502-3.246094-4.145996
		c0-2.333008,1.822266-4.230957,4.064453-4.230957c0.223633,0,0.441406,0.019043,0.654297,0.053711l-0.158203,0.987305
		c-0.161133-0.026855-0.327148-0.041016-0.496094-0.041016c-1.702148,0-3.086914,1.44873-3.086914,3.230957
		c0,1.530762,1.038086,2.861816,2.467773,3.166992L28.394531,19.255859z"/>
	<path clip-path="url(#SVGID_2_)" fill="#205346" d="M33.492188,51.031738c-0.333008,0-0.584961-0.231445-0.584961-0.75v-4.431641
		l3-1.612305v-0.603516l-3-1.510742v-2.241211l0.875977-0.586914l-0.875977-0.585938v-1.522461l0.770508-0.435547l-0.770508-0.4375
		v-2.666992l3-1.512695v-0.518555l-3-1.814453v-3.384766c-3-2.119629-4.899414-5.648926-4.899414-9.494629
		c0-6.333008,4.90625-11.486328,10.989258-11.486328c6.09082,0,11.21582,5.15332,11.21582,11.486328
		c0,5.322754-3.305664,9.46582-7.305664,10.904785v19.253906l-4.665039,3.864258h-4.241211
		c-0.082031,0-0.133789,0.020508-0.225586,0.041016C33.671875,51.008301,33.606445,51.031738,33.492188,51.031738
		 M33.907227,46.447754v3.522461c0-0.014648-0.008789-0.025391,0.09375-0.025391h3.871094l4.035156-3.31543v-19.5625
		l0.180664-0.099121c4.455078-1.227051,7.023438-4.981934,7.023438-10.045898c0-5.782227-4.560547-10.486328-10.111328-10.486328
		c-5.542969,0-10.075195,4.704102-10.075195,10.486328c0,3.600098,1.800781,6.894043,4.675781,8.809082l0.306641,0.147949v3.358887
		l3,1.813477v1.699219l-3,1.511719v1.463867l1,0.554688v0.942383l-1,0.553711v0.391602l1,0.655273v0.944336l-1,0.655273v1.084961
		l3,1.511719v1.81543L33.907227,46.447754z"/>
	<polygon clip-path="url(#SVGID_2_)" fill="#205346" points="40.907227,43.944824 39.907227,43.944824 39.907227,26.944824 
		38.907227,26.944824 38.907227,31.944824 37.907227,31.944824 37.907227,25.944824 40.907227,25.944824 	"/>
	<polygon clip-path="url(#SVGID_2_)" fill="#205346" points="9.05957,40.114746 8.364746,39.411621 20.45459,26.942871 
		21.149902,27.645996 	"/>
	<path clip-path="url(#SVGID_2_)" fill="#205346" d="M30.962891,9.953613c-0.652344-0.258789-1.333008-0.447754-2.025391-0.561035
		l0.154297-0.986816c0.760742,0.124023,1.509766,0.331055,2.226562,0.615723L30.962891,9.953613z"/>
	<path clip-path="url(#SVGID_2_)" fill="#205346" d="M3.437012,43.51416l-3-3.166992
		c-0.532715-0.5625-0.583008-1.229492-0.126953-1.698242l3.003906-3.097656l2.729004,0.586914l0.435059-0.450195l-0.73584-2.641602
		l1.761719-1.816406l2.729004,0.585938l0.181152-0.186523l-0.529785-2.853516l1.748047-1.804688l2.660645,0.658203l0.39209-0.404297
		l-0.393066-2.996094l2.28418-2.355957c-0.670898-3.773926,0.462891-7.59668,3.061035-10.275879
		c2.47998-2.558105,6.015137-3.75,9.453613-3.191895L28.9375,9.39209c-3.12793-0.507812-6.346191,0.579102-8.605469,2.90918
		c-2.427734,2.50293-3.454102,6.105957-2.74707,9.636719l0.052246,0.262207l-2.311035,2.383789l0.393066,2.996582
		l-1.120117,1.152344l-2.660156-0.657227l-0.998047,1.030273l0.530273,2.853516l-0.917969,0.948242l-2.728027-0.587891
		l-0.984863,1.015625l0.73584,2.641602l-1.212891,1.250977l-2.729004-0.586914l-2.629395,2.710938
		c-0.029785,0.054688-0.005859,0.150391,0.135254,0.299805l2.703125,2.854492l4.916992-0.102539l13.353027-13.770508
		l0.327637,0.195312c3.356934,2.004883,7.253418,1.87207,10.422363-0.353516l0.553711,0.824219
		c-3.332031,2.341797-7.56543,2.553711-11.137695,0.583008L9.175293,43.395996L3.437012,43.51416z"/>
	<path clip-path="url(#SVGID_2_)" fill="#205346" d="M27.983398,17.651855c-1.063477-0.504883-2.004883-1.216797-2.801758-2.114258
		l0.724609-0.671875c0.708008,0.79834,1.545898,1.431152,2.490234,1.879883L27.983398,17.651855z"/>
	<path clip-path="url(#SVGID_2_)" fill="#205346" d="M31.619141,0c-4.833984,0-8.76709,3.945312-8.76709,8.945312
		c0.036133,0.566895,0.221191,0.666016,0.221191,0.666016h0.583984l0.172852-0.666016c0-4,3.494141-7.945312,7.789062-7.945312
		s7.789062,3.846191,7.789062,8.334473c0,2.709961-1.285156,5.233887-3.438477,6.750977l0.555664,0.822754
		c2.417969-1.704102,3.861328-4.632812,3.861328-7.671875C40.386719,4.197266,36.454102,0,31.619141,0"/>
</g>
</svg>
