<?xml version="1.0" encoding="utf-8"?>
<!-- Generator: Adobe Illustrator 15.1.0, SVG Export Plug-In . SVG Version: 6.00 Build 0)  -->
<!DOCTYPE svg PUBLIC "-//W3C//DTD SVG 1.1//EN" "http://www.w3.org/Graphics/SVG/1.1/DTD/svg11.dtd">
<svg version="1.1" id="Calque_1" xmlns="http://www.w3.org/2000/svg" xmlns:xlink="http://www.w3.org/1999/xlink" x="0px" y="0px"
	 width="50px" height="50px" viewBox="0 0 50 50" enable-background="new 0 0 50 50" xml:space="preserve">
<g>
	<defs>
		<rect id="SVGID_1_" width="50" height="50"/>
	</defs>
	<clipPath id="SVGID_2_">
		<use xlink:href="#SVGID_1_"  overflow="visible"/>
	</clipPath>
	<path clip-path="url(#SVGID_2_)" fill="#2F5347" d="M45.97168,30.333008l-0.985352-0.098633
		c0.032227-0.326172,0.054688-0.654297,0.072266-0.984375l0.985352,0.048828
		C46.02832,29.646484,46.00293,29.991211,45.97168,30.333008"/>
	<path clip-path="url(#SVGID_2_)" fill="#2F5347" d="M24.879883,50c-0.444336,0-0.878418-0.010742-1.313965-0.038086
		l0.057617-1.009766c0.416016,0.026367,0.859375,0.039062,1.254395,0.036133c0.229492,0,0.458008-0.004883,0.685547-0.013672
		l0.037109,1.011719C25.360352,49.995117,25.121094,50,24.879883,50 M27.62793,49.808594l-0.130859-1.001953
		c0.640625-0.088867,1.283203-0.209961,1.908203-0.359375l0.224609,0.986328
		C28.974609,49.589844,28.300781,49.71582,27.62793,49.808594 M21.541504,49.740234
		c-0.667969-0.108398-1.337891-0.248047-1.992676-0.419922l0.246094-0.981445
		c0.622559,0.164062,1.262695,0.299805,1.899902,0.401367L21.541504,49.740234z M31.585938,48.861328l-0.31543-0.958984
		c0.605469-0.208984,1.211914-0.453125,1.801758-0.725586l0.408203,0.922852
		C32.859375,48.385742,32.222656,48.642578,31.585938,48.861328 M17.604492,48.703125
		c-0.631836-0.234375-1.264648-0.504883-1.876953-0.804688l0.425293-0.913086
		c0.583984,0.285156,1.187012,0.542969,1.790039,0.766602L17.604492,48.703125z M35.294922,47.15332l-0.491211-0.879883
		c0.558594-0.326172,1.110352-0.683594,1.636719-1.064453l0.569336,0.826172
		C36.458008,46.435547,35.880859,46.810547,35.294922,47.15332 M13.932617,46.912109
		c-0.583984-0.357422-1.152832-0.74707-1.692871-1.155273l0.586914-0.814453c0.516113,0.389648,1.058105,0.759766,1.614258,1.101562
		L13.932617,46.912109z M38.615234,44.755859l-0.642578-0.768555c0.490234-0.430664,0.964844-0.888672,1.412109-1.363281
		l0.710938,0.704102C39.628906,43.823242,39.129883,44.305664,38.615234,44.755859 M10.663574,44.442383
		c-0.505859-0.463867-0.995117-0.955078-1.450684-1.461914l0.725586-0.686523
		c0.436035,0.483398,0.901367,0.951172,1.383301,1.393555L10.663574,44.442383z M41.438477,41.761719l-0.773438-0.630859
		c0.40332-0.520508,0.786133-1.0625,1.135742-1.610352l0.828125,0.552734
		C42.262695,40.648438,41.862305,41.214844,41.438477,41.761719 M7.903809,41.385742
		c-0.411133-0.552734-0.800293-1.129883-1.155273-1.716797l0.840332-0.533203c0.337891,0.55957,0.708984,1.109375,1.101074,1.634766
		L7.903809,41.385742z M43.660156,38.275391l-0.875977-0.467773c0.300781-0.589844,0.575195-1.197266,0.816406-1.803711
		l0.916016,0.382812C44.263672,37.021484,43.975586,37.657227,43.660156,38.275391 M5.757812,37.850586
		c-0.302246-0.623047-0.576172-1.265625-0.814941-1.907227l0.922852-0.360352
		c0.228027,0.612305,0.489746,1.224609,0.777832,1.819336L5.757812,37.850586z M45.191406,34.418945l-0.947266-0.287109
		c0.18457-0.637695,0.34082-1.287109,0.464844-1.930664l0.96875,0.195312C45.549805,33.069336,45.385742,33.75,45.191406,34.418945
		 M4.30957,33.962891c-0.179688-0.668945-0.327637-1.353516-0.442871-2.033203l0.975098-0.172852
		c0.10791,0.648438,0.25,1.301758,0.421875,1.9375L4.30957,33.962891z"/>
	<path clip-path="url(#SVGID_2_)" fill="#2F5347" d="M3.615723,29.825195c-0.023926-0.344727-0.041992-0.689453-0.049316-1.037109
		l0.988281-0.024414C4.5625,29.094727,4.578613,29.423828,4.602539,29.75L3.615723,29.825195z"/>
	<path clip-path="url(#SVGID_2_)" fill="#2F5347" d="M4.641113,19.76416l-0.985352-0.095215
		c0.032227-0.344727,0.073242-0.688965,0.121094-1.029785l0.979004,0.145996
		C4.709961,19.108887,4.670898,19.435059,4.641113,19.76416"/>
	<path clip-path="url(#SVGID_2_)" fill="#2F5347" d="M5.134277,16.79541l-0.959961-0.242676
		c0.165039-0.685059,0.366211-1.370117,0.597168-2.036133l0.932617,0.337891
		C5.482422,15.490723,5.291504,16.142578,5.134277,16.79541 M44.386719,16.370605
		c-0.167969-0.644043-0.373047-1.291992-0.608398-1.924805l0.924805-0.358398
		c0.246094,0.664062,0.460938,1.344238,0.637695,2.020996L44.386719,16.370605z M6.455078,12.981445l-0.893555-0.430664
		c0.291992-0.638184,0.618652-1.27002,0.972656-1.876953l0.849121,0.516602
		C7.046387,11.770508,6.735352,12.372559,6.455078,12.981445 M42.989258,12.589844
		c-0.290039-0.599121-0.614258-1.194336-0.963867-1.768066l0.837891-0.536133c0.368164,0.602051,0.708008,1.226074,1.011719,1.85498
		L42.989258,12.589844z M8.478516,9.502441L7.681152,8.902832C8.088379,8.336426,8.52832,7.781738,8.988281,7.254395
		l0.737793,0.675293C9.285156,8.431641,8.866211,8.961426,8.478516,9.502441 M40.898438,9.156738
		c-0.399414-0.533203-0.830078-1.053223-1.280273-1.545898l0.72168-0.691406c0.473633,0.51709,0.923828,1.062012,1.341797,1.621094
		L40.898438,9.156738z M11.117188,6.486816l-0.669922-0.744141c0.506836-0.477051,1.041992-0.935059,1.593262-1.362305
		l0.595703,0.808105C12.111328,5.594727,11.599121,6.031738,11.117188,6.486816 M38.198242,6.197754
		c-0.491211-0.446289-1.011719-0.87207-1.544922-1.266113l0.580078-0.820801c0.55957,0.414551,1.103516,0.861816,1.620117,1.328613
		L38.198242,6.197754z M14.270508,4.04541l-0.518066-0.861816c0.586914-0.369141,1.19873-0.712891,1.818848-1.021973
		l0.433105,0.910156C15.413086,3.366699,14.829102,3.694824,14.270508,4.04541 M34.995117,3.82373
		c-0.568359-0.341309-1.15918-0.657227-1.75293-0.937012l0.413086-0.919922c0.624023,0.294922,1.243164,0.625977,1.839844,0.98291
		L34.995117,3.82373z M17.823242,2.275391l-0.34375-0.94873c0.645996-0.245117,1.311035-0.459961,1.979004-0.63916
		l0.250977,0.979004C19.073242,1.837402,18.438477,2.04248,17.823242,2.275391 M31.405273,2.128418
		c-0.620117-0.219727-1.259766-0.410645-1.899414-0.567871l0.230469-0.983887
		c0.670898,0.164062,1.341797,0.364746,1.994141,0.595703L31.405273,2.128418z M21.645508,1.250488l-0.155273-0.999023
		c0.678223-0.11084,1.37207-0.187988,2.062988-0.22998l0.058105,1.010254C22.953125,1.071777,22.29248,1.145508,21.645508,1.250488
		 M27.561523,1.1875c-0.651367-0.09082-1.314453-0.150879-1.97168-0.175781l0.038086-1.012207
		c0.69043,0.026855,1.385742,0.088867,2.066406,0.185059L27.561523,1.1875z"/>
	<path clip-path="url(#SVGID_2_)" fill="#2F5347" d="M44.947266,19.358887c-0.038086-0.328125-0.081055-0.654297-0.134766-0.979004
		l0.975586-0.166016c0.054688,0.339844,0.101562,0.681641,0.141602,1.026855L44.947266,19.358887z"/>
	<path clip-path="url(#SVGID_2_)" fill="#2F5347" d="M25,37.615234c-3.780762,0-7.463379-0.648438-10.947754-1.926758
		l-0.176758-0.111328c-3.086914-3.063477-4.786133-7.166016-4.786133-11.552246c0-3.947266,1.423828-7.751953,4.010254-10.712891
		l0.078613-0.091309l0.111328-0.042969C16.983398,11.708008,20.92334,10.962891,25,10.962891
		c3.858398,0,7.605469,0.669922,11.136719,1.990723l0.110352,0.041992l0.081055,0.089355
		c2.71582,2.993652,4.210938,6.878906,4.210938,10.939941c0,4.499512-1.780273,8.678223-5.014648,11.765137l-0.179688,0.109375
		C32.030273,37.037109,28.550781,37.615234,25,37.615234 M14.486328,34.772461
		c6.487305,2.352539,13.868164,2.431641,20.441406,0.203125c2.981445-2.886719,4.624023-6.770508,4.624023-10.950684
		c0-3.76416-1.37207-7.368164-3.867188-10.163086C32.294922,12.609863,28.702148,11.974609,25,11.974609
		c-3.912598,0-7.694824,0.707031-11.241699,2.102051c-2.374023,2.762207-3.679688,6.290039-3.679688,9.948242
		C10.078613,28.097656,11.643555,31.911133,14.486328,34.772461"/>
	<path clip-path="url(#SVGID_2_)" fill="#2F5347" d="M25.000977,37.614258c-10.540527,0-20.05957-5.004883-24.844238-13.062988
		l-0.15625-0.262695l0.15625-0.263184c4.784668-8.057129,14.304688-13.062988,24.844238-13.062988
		c10.537109,0,20.057617,5.005859,24.842773,13.062988l0.157227,0.263184L49.84375,24.55127
		C45.058594,32.609375,35.539062,37.614258,25.000977,37.614258 M1.159668,24.288574
		c4.656738,7.603027,13.758789,12.313965,23.841309,12.313965c10.080078,0,19.182617-4.710938,23.839844-12.313965
		c-4.657227-7.603027-13.760742-12.313965-23.839844-12.313965C14.919434,11.974609,5.816406,16.685547,1.159668,24.288574"/>
	<path clip-path="url(#SVGID_2_)" fill="#2F5347" d="M24.814941,33.988281c-5.110352,0-9.268066-4.256836-9.268066-9.489258
		c0-1.818848,0.509766-3.591797,1.478027-5.128906l0.441895-0.702148l0.401855,0.727051
		c0.405273,0.729004,1.15625,1.182129,1.960938,1.182129c1.25,0,2.266113-1.041016,2.266113-2.318848
		c0-0.661133-0.287109-1.295898-0.787109-1.742188l-0.615723-0.549805l0.760742-0.303223
		c1.084961-0.433105,2.216309-0.651855,3.361328-0.651855c5.109863,0,9.268066,4.255859,9.268066,9.487793
		C34.083008,29.731445,29.924805,33.988281,24.814941,33.988281 M17.490723,20.557129
		c-0.62793,1.214844-0.956055,2.563965-0.956055,3.941895c0,4.673828,3.714355,8.477539,8.280273,8.477539
		c4.564941,0,8.278809-3.803711,8.278809-8.477539s-3.713867-8.475586-8.278809-8.475586
		c-0.783203,0-1.560059,0.114746-2.317383,0.34375c0.378418,0.553223,0.587402,1.210938,0.587402,1.891113
		c0,1.836914-1.459961,3.331055-3.255371,3.331055C18.939941,21.589355,18.09668,21.207031,17.490723,20.557129"/>
	<path clip-path="url(#SVGID_2_)" fill="#2F5347" d="M20.304199,27.536133c-0.988281,0-1.791992-0.824219-1.791992-1.835449
		c0-1.010742,0.803711-1.833984,1.791992-1.833984c0.987793,0,1.791992,0.823242,1.791992,1.833984
		C22.096191,26.711914,21.291992,27.536133,20.304199,27.536133 M20.304199,24.878906
		c-0.442871,0-0.803223,0.369141-0.803223,0.821777c0,0.45459,0.360352,0.822754,0.803223,0.822754
		s0.802734-0.368164,0.802734-0.822754C21.106934,25.248047,20.74707,24.878906,20.304199,24.878906"/>
</g>
</svg>
