<?xml version="1.0" standalone="no"?>
<!DOCTYPE svg PUBLIC "-//W3C//DTD SVG 1.1//EN" "http://www.w3.org/Graphics/SVG/1.1/DTD/svg11.dtd" >
<svg xmlns="http://www.w3.org/2000/svg" xmlns:xlink="http://www.w3.org/1999/xlink" version="1.1">
<metadata>
Created by FontForge 20170731 at Fri Mar 24 19:59:26 2017
 By ,,,
Copyright (c) 2014 by Studio Kmzero. All rights reserved.
</metadata>
<defs>
<font id="coco-gothic-heavy" horiz-adv-x="0" >
  <font-face
    font-family="Coco Gothic Heavy"
    font-weight="900"
    font-stretch="normal"
    units-per-em="2000"
    panose-1="2 0 5 3 2 0 0 2 0 3"
    ascent="1600"
    descent="-400"
    x-height="980"
    cap-height="1485"
    bbox="-940 -838 2664 2242"
    underline-thickness="100"
    underline-position="-300"
    unicode-range="U+0020-FB04"
  />
<missing-glyph horiz-adv-x="627"
d="M844 250q-57 -48 -129 -77t-153 -29t-152 29t-128 77h562zM248 282q-50 57 -77 129t-27 153q0 77 24.5 143.5t69.5 122.5h556zM280 876q57 51 129 79.5t153 28.5t152.5 -29t125.5 -79h-560zM980 564q0 -77 -24.5 -144.5t-69.5 -123.5h-558l546 550q106 -131 106 -282z
M698 76q-66 -18 -136 -18q-108 0 -200.5 41t-160.5 110t-106.5 161t-38.5 194q0 108 41 201t110 161t161 107t194 39q109 0 202 -42t160.5 -112.5t105.5 -162t38 -191.5q0 -92 -29 -170.5t-79 -141.5t-117.5 -108t-144.5 -68zM684 1012q-54 18 -122 18q-101 0 -186 -38
t-146.5 -102t-96.5 -148.5t-35 -177.5q0 -94 35.5 -178.5t98 -149t147.5 -102.5t183 -38q96 0 181 36.5t148 100t100 148.5t37 183q0 85 -27.5 158.5t-74 131.5t-109.5 98t-133 60z" />
    <glyph glyph-name="ff" unicode="ff" horiz-adv-x="1308"
d="M793 1158q0 64 19 114.5t52 89t77 65.5t93 44t100.5 24.5t100.5 7.5q30 0 46.5 -15.5t16.5 -42.5v-209q0 -24 -12.5 -37.5t-33.5 -13.5h-4q-48 0 -77.5 -17.5t-30.5 -62.5v-105h65q26 0 41.5 -14t15.5 -44v-156q0 -26 -15.5 -44t-41.5 -18h-65v-673q0 -23 -15.5 -37
t-37.5 -14h-239q-21 0 -38 14.5t-17 36.5v673h-53h-6h-233v-673q0 -23 -15.5 -37t-37.5 -14h-239q-21 0 -38 14.5t-17 36.5v673h-53q-28 0 -43.5 15.5t-15.5 46.5v156q0 30 15.5 44t43.5 14h53v158q0 64 19 114.5t52 89t77 65.5t93 44t100.5 24.5t100.5 7.5q30 0 46.5 -15.5
t16.5 -42.5v-209q0 -24 -12.5 -37.5t-33.5 -13.5h-4q-48 0 -77.5 -17.5t-30.5 -62.5v-105h233h6h53v158z" />
    <glyph glyph-name="fi" unicode="fi" horiz-adv-x="1278"
d="M778 724h-287v-673q0 -23 -15.5 -37t-37.5 -14h-239q-21 0 -38 14.5t-17 36.5v673h-53q-28 0 -43.5 15.5t-15.5 46.5v156q0 30 15.5 44t43.5 14h53v158q0 64 19 114.5t52 89t77 65.5t93 44t100.5 24.5t100.5 7.5q30 0 46.5 -15.5t16.5 -42.5v-209q0 -24 -12.5 -37.5
t-33.5 -13.5h-4q-47 0 -77.5 -18t-30.5 -62v-105h585q26 0 41.5 -14t15.5 -44v-891q0 -51 -55 -51h-250q-50 0 -50 51v673zM768 1292q0 37 14.5 70.5t39 58t57.5 39t70 14.5q39 0 72.5 -14.5t57.5 -39t38 -58t14 -70.5t-14 -70t-38 -57.5t-57.5 -39t-72.5 -14.5
q-37 0 -70 14.5t-57.5 39t-39 57.5t-14.5 70z" />
    <glyph glyph-name="ffi" unicode="ffi" horiz-adv-x="1918"
d="M1417 724h-277v-673q0 -23 -15.5 -37t-37.5 -14h-239q-21 0 -38 14.5t-17 36.5v673h-292v-673q0 -23 -15.5 -37t-37.5 -14h-239q-21 0 -38 14.5t-17 36.5v673h-53q-28 0 -43.5 15.5t-15.5 46.5v156q0 30 15.5 44t43.5 14h53v158q0 64 19 114.5t52 89t77 65.5t93 44
t100.5 24.5t100.5 7.5q30 0 46.5 -15.5t16.5 -42.5v-209q0 -24 -12.5 -37.5t-33.5 -13.5h-4q-47 0 -77.5 -18t-30.5 -62v-105h292v158q0 64 19 114.5t52 89t77 65.5t93 44t100.5 24.5t100.5 7.5q30 0 46.5 -15.5t16.5 -42.5v-209q0 -24 -12.5 -37.5t-33.5 -13.5h-4
q-47 0 -77.5 -18t-30.5 -62v-105h574q26 0 41.5 -14t15.5 -44v-7q0 -2 0.5 -4.5t0.5 -4.5v-875q0 -51 -55 -51h-250q-50 0 -50 51v673zM1407 1292q0 37 14.5 70.5t39 58t57.5 39t70 14.5q39 0 72.5 -14.5t57.5 -39t38 -58t14 -70.5t-14 -70t-38 -57.5t-57.5 -39t-72.5 -14.5
q-37 0 -70 14.5t-57.5 39t-39 57.5t-14.5 70z" />
    <glyph glyph-name=".notdef" horiz-adv-x="627"
d="M844 250q-57 -48 -129 -77t-153 -29t-152 29t-128 77h562zM248 282q-50 57 -77 129t-27 153q0 77 24.5 143.5t69.5 122.5h556zM280 876q57 51 129 79.5t153 28.5t152.5 -29t125.5 -79h-560zM980 564q0 -77 -24.5 -144.5t-69.5 -123.5h-558l546 550q106 -131 106 -282z
M698 76q-66 -18 -136 -18q-108 0 -200.5 41t-160.5 110t-106.5 161t-38.5 194q0 108 41 201t110 161t161 107t194 39q109 0 202 -42t160.5 -112.5t105.5 -162t38 -191.5q0 -92 -29 -170.5t-79 -141.5t-117.5 -108t-144.5 -68zM684 1012q-54 18 -122 18q-101 0 -186 -38
t-146.5 -102t-96.5 -148.5t-35 -177.5q0 -94 35.5 -178.5t98 -149t147.5 -102.5t183 -38q96 0 181 36.5t148 100t100 148.5t37 183q0 85 -27.5 158.5t-74 131.5t-109.5 98t-133 60z" />
    <glyph glyph-name=".null"
 />
    <glyph glyph-name="nonmarkingreturn" horiz-adv-x="666"
 />
    <glyph glyph-name="space" unicode=" " horiz-adv-x="626"
 />
    <glyph glyph-name="exclam" unicode="!" horiz-adv-x="662"
d="M167 1542q0 44 49 44h260q44 0 44 -44v-1018q0 -19 -11 -31.5t-33 -12.5h-260q-15 0 -32 12t-17 32v1018zM162 162q0 37 14.5 70.5t39 58t57.5 39t70 14.5q39 0 72.5 -14.5t57.5 -39t38 -58t14 -70.5t-14 -70t-38 -57.5t-57.5 -39t-72.5 -14.5q-37 0 -70 14.5t-57.5 39
t-39 57.5t-14.5 70z" />
    <glyph glyph-name="quotedbl" unicode="&#x22;" horiz-adv-x="1028"
d="M136 1441q0 44 44 44h196q44 0 44 -44v-337q0 -44 -44 -44h-196q-44 0 -44 44v337zM611 1441q0 44 44 44h196q44 0 44 -44v-337q0 -44 -44 -44h-196q-44 0 -44 44v337z" />
    <glyph glyph-name="numbersign" unicode="#" horiz-adv-x="1260"
d="M1146 1131q18 0 30 -11.5t10 -32.5l-15 -181q-2 -14 -15.5 -31t-33.5 -17h-143l-20 -233h143q18 0 30.5 -11.5t10.5 -32.5l-16 -181q-1 -14 -14.5 -31t-33.5 -17h-143l-26 -308q-5 -44 -52 -44h-181q-21 0 -31.5 11t-8.5 33l26 308h-145l-26 -308q-5 -44 -52 -44h-181
q-21 0 -31.5 11t-8.5 33l26 308h-123q-44 0 -40 48l16 181q3 44 47 44h123l20 233h-123q-43 0 -39 48l15 181q2 21 14.5 32.5t33.5 11.5h123l26 310q2 18 14.5 31t33.5 13h181q15 0 30 -12.5t14 -31.5l-26 -310h145l26 310q2 18 14.5 31t33.5 13h181q15 0 30 -12.5t14 -31.5
l-26 -310h143zM541 625h145l20 233h-145z" />
    <glyph glyph-name="dollar" unicode="$" horiz-adv-x="1286"
d="M337 479q17 -14 43.5 -37.5t60.5 -46.5q50 -34 100.5 -53t105.5 -19q51 0 85.5 11.5t54.5 30.5t28.5 44t8.5 53q0 31 -23.5 55.5t-57.5 43.5t-71 32.5t-64 22.5q-120 42 -210 90.5t-150 108t-90 131.5t-30 159q0 76 26 141.5t74.5 117t118 87t156.5 52.5v138q0 18 11 31
t33 13h188q15 0 31.5 -12t16.5 -32v-134q63 -11 130.5 -38.5t123.5 -61.5t92.5 -68.5t36.5 -59.5q0 -13 -6.5 -24t-19.5 -25l-153 -163q-17 -17 -34 -17q-14 0 -25.5 8t-25.5 20l-9 8q-20 17 -44.5 35t-52.5 32.5t-59 24t-63 9.5q-33 0 -62 -5.5t-51 -17.5t-35 -31.5
t-13 -47.5t14 -48.5t42 -38t69.5 -33t96.5 -33.5q106 -35 195.5 -73.5t154.5 -91t101.5 -125.5t36.5 -177q0 -93 -33 -172t-91.5 -139.5t-139 -101.5t-176.5 -58v-143q0 -44 -48 -44h-188q-44 0 -44 44v146q-59 13 -115.5 36.5t-108.5 54.5t-98 68t-83 78l-3 3
q-7 11 -13 17.5t-10 11t-6 8.5t-2 11q0 17 23 38l173 165q21 15 34 15q9 0 19 -6t24 -18z" />
    <glyph glyph-name="percent" unicode="%" horiz-adv-x="1982"
d="M94 1142q0 80 30 150t82 122.5t122.5 82.5t150.5 30t150 -30t122.5 -82.5t82.5 -122.5t30 -150t-30 -150.5t-82.5 -122.5t-122.5 -82t-150 -30t-150.5 30t-122.5 82t-82 122.5t-30 150.5zM1120 363q0 80 22.5 150t65 122.5t105 82.5t142.5 30t158 -30t139.5 -82.5
t99.5 -122.5t38 -150t-30 -150t-82 -122.5t-122.5 -82.5t-150.5 -30t-150 30t-122.5 82.5t-82.5 122.5t-30 150zM1134 1441q8 18 23.5 31t40.5 13h217q20 0 35.5 -8t15.5 -23q0 -11 -2 -13l-632 -1397q-11 -25 -21 -34.5t-32 -9.5h-239q-42 0 -42 26q1 1 2 4q2 5 3 14z
M1391 363q0 -24 9 -45t24 -36.5t36 -24.5t45 -9t45 9t36.5 24.5t24.5 36.5t9 45q0 27 -10 48.5t-26.5 36t-37 22t-41.5 7.5q-24 0 -45 -9t-36 -24.5t-24 -36t-9 -44.5zM362 1142q0 -25 9 -46.5t24.5 -37t37 -24.5t46.5 -9q24 0 45.5 9t37 24.5t24.5 37t9 46.5t-9 46
t-24.5 36.5t-37 24.5t-45.5 9q-51 0 -84 -33t-33 -83z" />
    <glyph glyph-name="ampersand" unicode="&#x26;" horiz-adv-x="1794"
d="M1303 719q4 -1 12 -1q22 0 40 9t32.5 24t24.5 33.5t15 38.5q3 12 9 20t23 8q6 0 9 -1q56 -11 111.5 -22t111.5 -22q7 0 13.5 -4.5t12 -11.5t8.5 -15.5t3 -15.5t-1 -11q-13 -78 -49 -141.5t-88 -108.5t-117 -70t-135 -25q-32 0 -65 6l-66 12q-7 -94 -33.5 -163t-68 -118
t-95 -79.5t-114 -47.5t-125.5 -23.5t-129 -6.5q-108 0 -205.5 35t-171 98t-116.5 149.5t-43 189.5q0 75 14.5 132.5t41.5 103.5t64.5 81.5t83.5 67.5q-46 48 -75.5 114t-29.5 144q0 86 35.5 160t94.5 128.5t136 85.5t160 31t160 -22t136 -71t94 -127.5t35 -192.5
q0 -23 -13.5 -35t-31.5 -12q-51 0 -102.5 -0.5t-102.5 -0.5q-43 0 -43 38q0 25 -5.5 45.5t-18.5 35.5t-34.5 23.5t-53.5 8.5q-36 0 -58.5 -12.5t-35 -31t-17 -40t-4.5 -39.5q0 -10 5.5 -31t18 -43.5t33.5 -41.5t52 -25q35 -8 35 -40q0 -7 -1 -11l-39 -188
q-2 -19 -13.5 -26.5t-24.5 -7.5q-8 0 -15 1t-14 1q-32 0 -52.5 -17t-32.5 -40t-16.5 -47.5t-4.5 -40.5q0 -30 8.5 -65.5t30.5 -66t60.5 -51t97.5 -20.5q39 0 75 11.5t64 34t45.5 55.5t19.5 77l-62 15q-14 3 -22.5 14.5t-8.5 25.5q0 7 1 10q10 55 22.5 108t23.5 109
q3 16 13.5 25t24.5 9q6 0 9 -1z" />
    <glyph glyph-name="quotesingle" unicode="'" horiz-adv-x="610"
d="M120 1441q0 44 44 44h196q44 0 44 -44v-367q0 -44 -44 -44h-196q-44 0 -44 44v367z" />
    <glyph glyph-name="parenleft" unicode="(" horiz-adv-x="804"
d="M406 -253q-137 217 -210.5 467.5t-73.5 524.5t73.5 524.5t210.5 467.5q10 17 26 20t31 -9l238 -148q16 -11 18 -27t-8 -29q-115 -182 -171 -382.5t-56 -416.5q0 -109 13.5 -213t41.5 -204q29 -100 72 -195t100 -186q10 -14 8 -30t-18 -27l-238 -148q-15 -11 -31 -8.5
t-26 19.5z" />
    <glyph glyph-name="parenright" unicode=")" horiz-adv-x="806"
d="M391 -253q-12 -20 -32 -20q-13 0 -25 9l-238 148q-10 6 -14 15t-4 18q0 11 8 24q115 184 171 381t56 417q0 216 -56 416.5t-171 382.5q-8 11 -8 23q0 8 4 17.5t14 15.5l238 148q12 9 25 9q19 2 32 -20q137 -218 210.5 -468t73.5 -524t-73.5 -524.5t-210.5 -467.5z" />
    <glyph glyph-name="asterisk" unicode="*" horiz-adv-x="982"
d="M198 831q-3 4 -5 11t-2 12q3 26 27 42l160 92q9 6 24 6q8 0 18 -6t18 -19l54 -141l54 141q8 23 37 23q5 0 10.5 -1t12.5 -3l159 -95q24 -12 24 -45q-3 -4 -3 -17l-109 -123l162 32q17 0 31 -12t14 -33v-184q0 -16 -12.5 -32.5t-32.5 -16.5l-162 31l109 -123
q2 -5 4.5 -11.5t2.5 -14.5q0 -11 -5.5 -20.5t-17.5 -16.5l-160 -92q-8 -7 -24 -7q-14 0 -24.5 5.5t-15.5 16.5l-54 140l-54 -140q-5 -11 -15.5 -16.5t-21.5 -5.5q-15 0 -28 7l-159 94q-24 13 -24 35q0 8 1.5 14.5t6.5 11.5l107 123l-160 -31q-45 0 -45 49v184q0 21 11 33
t34 12l160 -32z" />
    <glyph glyph-name="plus" unicode="+" horiz-adv-x="900"
d="M62 706q0 44 44 44h183v193q0 44 48 44h224q44 0 44 -44v-193h183q18 0 31 -11.5t13 -32.5v-203q0 -15 -12 -31.5t-32 -16.5h-183v-194q0 -18 -11 -31t-33 -13h-224q-15 0 -31.5 12t-16.5 32v194h-183q-44 0 -44 48v203z" />
    <glyph glyph-name="comma" unicode="," horiz-adv-x="610"
d="M120 159q0 39 14.5 72t39 57t57.5 38t70 14q39 0 72.5 -14t58 -39.5t38 -62t13.5 -80.5q0 -96 -19 -166.5t-45.5 -117.5t-54 -70t-45.5 -23q-11 0 -17.5 2.5t-14.5 8.5l-47 34q-18 18 -18 35q0 12 7 23.5t16 25.5q11 11 20.5 28t9.5 44v10q-31 5 -59 21.5t-49.5 41
t-34 55t-12.5 63.5z" />
    <glyph glyph-name="hyphen" unicode="-" horiz-adv-x="1100"
d="M166 686q0 44 44 44h682q18 0 31 -11.5t13 -32.5v-203q0 -15 -12 -31.5t-32 -16.5h-682q-44 0 -44 48v203z" />
    <glyph glyph-name="period" unicode="." horiz-adv-x="610"
d="M120 162q0 37 14.5 70.5t39 58t57.5 39t70 14.5q39 0 72.5 -14.5t57.5 -39t38 -58t14 -70.5t-14 -70t-38 -57.5t-57.5 -39t-72.5 -14.5q-37 0 -70 14.5t-57.5 39t-39 57.5t-14.5 70z" />
    <glyph glyph-name="slash" unicode="/" horiz-adv-x="1104"
d="M663 1441q8 18 23.5 31t40.5 13h277q20 0 35.5 -8t15.5 -23q0 -11 -2 -13l-632 -1397q-11 -25 -21 -34.5t-31 -9.5h-300q-41 0 -41 26q0 1 1 4q2 5 3 14z" />
    <glyph glyph-name="zero" unicode="0" horiz-adv-x="1684"
d="M464 742q0 -84 29.5 -156.5t81.5 -126.5t122.5 -85t153.5 -31q82 0 153.5 31t123.5 85t82 126.5t30 156.5q0 83 -30 156.5t-82 128t-123.5 86t-153.5 31.5q-83 0 -153.5 -31.5t-122.5 -86t-81.5 -128t-29.5 -156.5zM86 741q0 106 27 203.5t77 182.5t119.5 155
t154.5 119.5t182.5 77t203.5 27.5q105 0 203 -27.5t183 -77t154.5 -119.5t119 -155t77 -182.5t27.5 -203.5t-27.5 -203.5t-77 -182t-119 -154t-154.5 -119.5t-183 -77t-203 -27q-106 0 -203.5 27t-182.5 77t-154.5 119.5t-119.5 154t-77 182t-27 203.5z" />
    <glyph glyph-name="one" unicode="1" horiz-adv-x="751"
d="M65 1333q0 38 44 62l175 72q15 6 26 9t22.5 5t24.5 3t33 1h186q20 0 34 -12t14 -32v-1397q0 -44 -47 -44h-284q-25 0 -34.5 13.5t-9.5 28.5v1062l-127 -48q-12 -3 -21 -3q-20 0 -28 12.5t-8 32.5v235z" />
    <glyph glyph-name="two" unicode="2" horiz-adv-x="1291"
d="M422 1023q-8 -17 -18 -20t-20 -3q-15 0 -33 6.5t-38 14.5l-149 53q-20 8 -25.5 19.5t-6.5 22.5q0 9 2.5 17.5t6.5 16.5q27 72 70 137.5t109 116.5q69 53 146 78.5t158 25.5q93 0 182 -36.5t160 -101t116 -153t49 -193.5h2q0 -54 -7.5 -96.5t-27 -84.5t-53 -87.5t-87 -105
t-128 -137.5t-175.5 -184h450q20 0 33 -11t13 -34v-233q0 -19 -13.5 -35t-33.5 -16h-921q-19 0 -35 15.5t-16 35.5v149q0 14 7 27l609 663q18 20 27 42.5t9 42.5q0 39 -12.5 74.5t-36 62.5t-57 43t-75.5 16q-34 0 -63.5 -12t-52.5 -32t-39.5 -46.5t-23.5 -55.5z" />
    <glyph glyph-name="three" unicode="3" horiz-adv-x="1199"
d="M560 294q37 0 70.5 10.5t59 32t40.5 54t15 77.5q0 36 -13.5 67t-38 54.5t-60.5 37t-81 13.5h-4q-18 0 -30.5 8.5t-12.5 30.5q0 55 0.5 110t0.5 111q0 20 11.5 31.5t31.5 11.5q32 0 55 13t37.5 31.5t21.5 39t7 34.5q0 20 -6 42.5t-20 41t-37 31t-56 12.5q-44 0 -75 -19.5
t-53 -43.5t-37.5 -43.5t-28.5 -19.5q-18 0 -35.5 12t-39.5 26l-126 82q-14 9 -18.5 17t-4.5 16q0 11 4 22.5t12 19.5q34 50 79 94t98.5 76.5t114.5 51.5t129 19q26 0 50.5 -3t49.5 -8v-1q67 -16 125 -52.5t101 -89t68 -117.5t25 -138q0 -39 -9.5 -74t-25.5 -67t-37 -60
t-44 -52q46 -32 89 -66t75 -77.5t51.5 -99.5t19.5 -131q0 -103 -41 -191.5t-111.5 -153.5t-165.5 -102t-203 -37q-101 0 -187.5 25t-155 71t-117 111.5t-73.5 145.5q-4 8 -6.5 17t-2.5 18q0 11 6 22.5t26 18.5l164 54q20 6 37.5 14t32.5 8q11 0 19.5 -4.5t20.5 -22.5
q46 -85 97.5 -123.5t111.5 -38.5z" />
    <glyph glyph-name="four" unicode="4" horiz-adv-x="1277"
d="M89 224q-29 0 -42 17t-13 38q0 14 4.5 32t12.5 29l680 1119q10 17 22.5 21.5t43.5 4.5h221q15 -1 31 -13t16 -31v-874h120q20 0 33.5 -11t13.5 -35v-250q0 -17 -13.5 -31.5t-33.5 -14.5h-120v-181q0 -44 -48 -44h-251q-44 0 -44 44v180h-633zM737 564v344l-202 -344h202z
" />
    <glyph glyph-name="five" unicode="5" horiz-adv-x="1209"
d="M73 415q1 25 32 28l239 58q4 1 11 1q11 0 16 -3.5t9 -16.5q7 -26 25.5 -56.5t44 -56.5t57 -43.5t64.5 -17.5q35 0 68 10t59 31.5t42 56t16 83.5q0 40 -16.5 75.5t-45 62t-65.5 41.5t-79 15q-27 0 -47 -3.5t-41 -7.5t-47.5 -7.5t-66.5 -3.5h-174q-26 0 -41 11t-17 43
q18 182 36 361t35 360q0 51 48 51h666q2 0 4 -0.5t5 -0.5h80q23 0 35.5 -12t12.5 -38q0 -60 -0.5 -118.5t-0.5 -118.5q0 -20 -13 -35t-37 -15h-492l-15 -162q28 5 59 7.5t59 2.5q115 0 208.5 -42.5t160 -112t102.5 -159.5t36 -186q0 -110 -44 -204.5t-117 -164.5
t-169 -109.5t-199 -39.5v1q-94 0 -174.5 31.5t-144.5 85.5t-109 126t-68 153q-3 10 -5 20t-2 19z" />
    <glyph glyph-name="six" unicode="6" horiz-adv-x="1238"
d="M96 428q-2 17 -3 34.5t-1 34.5q0 131 64 244l394 700q11 21 26 32.5t40 11.5h284q39 0 39 -23q0 -4 -2 -13.5t-4 -11.5q-35 -62 -62 -108.5t-48 -84t-38.5 -68.5t-34 -60t-33.5 -59.5t-37 -66.5q96 -11 180 -53.5t146 -109.5t97.5 -153.5t35.5 -185.5q0 -106 -41 -198.5
t-112 -161t-166.5 -108t-204.5 -39.5q-101 0 -190.5 32.5t-159 91.5t-114.5 141.5t-55 181.5zM442 485q0 -40 12 -74t34 -59t53 -39t70 -14t70.5 14t53 39t33.5 59t12 74q0 39 -12 73t-33.5 59.5t-53 40.5t-70.5 15t-70 -15t-53 -40.5t-34 -59.5t-12 -73z" />
    <glyph glyph-name="seven" unicode="7" horiz-adv-x="1278"
d="M1201 1486q28 0 41.5 -17t13.5 -39q0 -25 -18 -51q-179 -339 -356 -673t-356 -672q-8 -16 -23 -25t-32 -9h-316q-17 0 -26.5 6.5t-9.5 19.5q0 9 4 18l567 1088h-541q-20 0 -33.5 11t-13.5 35v262q0 20 14 33t33 13h1052z" />
    <glyph glyph-name="eight" unicode="8" horiz-adv-x="1240"
d="M516 1077q0 -45 30.5 -75.5t75.5 -30.5q22 0 41.5 8t34 22.5t23 33.5t8.5 42q0 22 -8.5 41t-23 33.5t-34 23t-41.5 8.5q-23 0 -42 -8.5t-33.5 -23t-22.5 -33.5t-8 -41zM450 492q0 -36 12.5 -68t35.5 -56t54 -37.5t69 -13.5q36 0 66 13.5t52 37.5t34 56t12 69
q0 36 -11.5 68.5t-32.5 57t-51.5 39t-68.5 14.5q-39 0 -70.5 -14.5t-54 -39.5t-34.5 -57.5t-12 -68.5zM86 488q0 58 14 110.5t38.5 98t59 85t76.5 71.5q-34 49 -55 112.5t-21 125.5q0 84 33.5 158.5t91 131t134 89.5t163.5 33q85 0 162.5 -33t135.5 -89.5t92.5 -131
t34.5 -158.5q0 -63 -22 -126.5t-59 -111.5q87 -69 136.5 -162t49.5 -207q0 -106 -38.5 -198t-108.5 -159.5t-167.5 -106t-215.5 -38.5t-216.5 38t-169 105.5t-109.5 160t-39 202.5z" />
    <glyph glyph-name="nine" unicode="9" horiz-adv-x="1211"
d="M1106 1057q2 -17 3.5 -33t1.5 -32q-1 -66 -16.5 -129t-47.5 -119l-394 -700q-11 -21 -26 -32.5t-40 -11.5h-284q-39 0 -39 22q0 4 2 14t4 12q35 61 62 108t48 84.5t38.5 68.5t34 60t33 59t37.5 67q-97 10 -181 53t-146 110t-97.5 153.5t-35.5 185.5q0 106 41 198.5
t112 161t166.5 108t204.5 39.5q101 0 190.5 -32.5t159 -92t114 -141.5t55.5 -181zM756 1000q0 40 -12 74t-34 59t-53.5 39t-70.5 14t-70 -14t-53 -39t-34 -59t-12 -74q0 -39 12 -73t34 -59.5t53 -40.5t70 -15t70.5 15t53.5 40.5t34 59.5t12 73z" />
    <glyph glyph-name="colon" unicode=":" horiz-adv-x="610"
d="M120 813q0 37 14.5 70.5t39 58t57.5 39t70 14.5q39 0 72.5 -14.5t57.5 -39t38 -58t14 -70.5t-14 -70t-38 -57.5t-57.5 -39t-72.5 -14.5q-37 0 -70 14.5t-57.5 39t-39 57.5t-14.5 70zM120 162q0 37 14.5 70.5t39 58t57.5 39t70 14.5q39 0 72.5 -14.5t57.5 -39t38 -58
t14 -70.5t-14 -70t-38 -57.5t-57.5 -39t-72.5 -14.5q-37 0 -70 14.5t-57.5 39t-39 57.5t-14.5 70z" />
    <glyph glyph-name="semicolon" unicode=";" horiz-adv-x="610"
d="M114 159q0 39 14.5 72t39 57t57.5 38t70 14q39 0 72.5 -14t58 -39.5t38 -62t13.5 -80.5q0 -96 -19 -166.5t-45.5 -117.5t-54 -70t-45.5 -23q-11 0 -17.5 2.5t-14.5 8.5l-47 34q-18 18 -18 35q0 12 7 23.5t16 25.5q11 11 20.5 28t9.5 44v10q-31 5 -59 21.5t-49.5 41
t-34 55t-12.5 63.5zM120 812q0 37 14.5 70.5t39 58t57.5 39t70 14.5q39 0 72.5 -14.5t57.5 -39t38 -58t14 -70.5t-14 -70t-38 -57.5t-57.5 -39t-72.5 -14.5q-37 0 -70 14.5t-57.5 39t-39 57.5t-14.5 70z" />
    <glyph glyph-name="less" unicode="&#x3c;" horiz-adv-x="890"
d="M593 1128q11 11 30 11t33 -13l160 -160q7 -7 10 -15t5 -16q-2 -7 -4.5 -15t-8.5 -16l-327 -329l327 -329q13 -18 13 -31q0 -19 -16 -35l-164 -160q-12 -14 -28 -14q-17 0 -31 14l-523 525q-15 15 -15 29q0 16 15 31z" />
    <glyph glyph-name="equal" unicode="=" horiz-adv-x="1100"
d="M166 493q0 44 44 44h682q18 0 31 -11.5t13 -32.5v-203q0 -15 -12 -31.5t-32 -16.5h-682q-44 0 -44 48v203zM166 911q0 44 44 44h682q18 0 31 -11.5t13 -32.5v-203q0 -15 -12 -31.5t-32 -16.5h-682q-44 0 -44 48v203z" />
    <glyph glyph-name="greater" unicode="&#x3e;" horiz-adv-x="890"
d="M229 1107q11 11 23 21t32 10q14 0 26.5 -11t22.5 -21l502 -501q15 -15 15 -31q0 -14 -15 -29l-523 -525q-14 -14 -31 -14q-18 0 -28 14l-164 160q-17 17 -17 35q0 15 13 31l328 329l-328 329q-10 16 -12 31q2 18 15 31z" />
    <glyph glyph-name="question" unicode="?" horiz-adv-x="1136"
d="M384 593q0 61 26 106.5t65 83.5t85 71t85 68.5t65 76.5t26 94q0 32 -14 62t-37.5 53t-54.5 36.5t-66 13.5q-34 0 -65 -14t-55 -38t-38 -55t-14 -64v-18q0 -23 -13 -31t-33 -8h-248q-25 0 -32.5 13.5t-7.5 27.5v33q0 105 41.5 192.5t111 150.5t161 98t191.5 35
q103 0 194 -37t159.5 -102.5t108 -155t39.5 -194.5q0 -93 -23 -155t-57.5 -105t-75 -71.5t-76.5 -54t-62 -53t-31 -68.5v-81q0 -51 -55 -51h-250q-50 0 -50 51v90zM376 157q0 37 14.5 70.5t39 58t57.5 39t70 14.5q39 0 72.5 -14.5t57.5 -39t38 -58t14 -70.5t-14 -70
t-38 -57.5t-57.5 -39t-72.5 -14.5q-37 0 -70 14.5t-57.5 39t-39 57.5t-14.5 70z" />
    <glyph glyph-name="at" unicode="@" horiz-adv-x="1910"
d="M1361 -114q13 6 20 6q14 0 24 -15l94 -139q5 -7 5 -13q0 -11 -6 -18.5t-14 -12.5q-111 -66 -232.5 -102t-255.5 -36q-132 1 -254.5 36.5t-229.5 98t-194.5 150t-150 194t-97 228.5t-34.5 255q0 132 34.5 255t97 231t150.5 196.5t195.5 152.5t231 99t257.5 35
q109 -2 215 -28.5t202 -75.5t177 -118.5t140.5 -156.5t93 -190t33.5 -219q0 -149 -26.5 -268.5t-79 -203.5t-131 -129t-183.5 -45h-141q-23 0 -42 10.5t-41 30.5q-20 14 -39.5 31.5t-33.5 40.5q-21 -24 -44 -48t-50.5 -44t-62.5 -32.5t-80 -13.5h-2q-108 0 -197 39.5
t-152.5 107t-98.5 157t-35 190.5t35.5 189.5t98.5 154.5t149.5 105.5t188.5 42.5q51 0 90.5 -12t70.5 -33.5t55 -50.5t44 -63l31 100q4 15 7.5 24t8.5 14t13 7t21 2h129q20 0 34.5 -12t14.5 -33v-600q0 -26 4.5 -40t13 -21t21.5 -8.5t30 -1.5q42 0 73 34.5t51.5 91
t30.5 127.5t10 145q0 129 -50.5 235.5t-137.5 183t-203 118.5t-247 42q-107 0 -206.5 -27.5t-196.5 -84.5q-174 -107 -266 -266t-92 -357q0 -103 27 -199t76 -179.5t117 -152t150.5 -117.5t176 -76t193.5 -27q54 0 100.5 6.5t90.5 19.5t87.5 33.5t92.5 49.5zM748 519
q0 -40 14 -74t38 -59t57 -39.5t71 -14.5q39 0 72.5 14.5t58 39.5t38 59t13.5 74q0 39 -13.5 73t-38 59.5t-58 40.5t-72.5 15q-38 0 -71 -15t-57 -40.5t-38 -59.5t-14 -73z" />
    <glyph glyph-name="A" unicode="A" horiz-adv-x="1530"
d="M586 1441q18 44 62 44h245q43 0 60 -44l546 -1397q17 -44 -28 -44h-298q-44 0 -59 44l-70 196h-546l-68 -196q-15 -44 -60 -44h-298q-46 0 -28 44zM610 561h319l-161 455z" />
    <glyph glyph-name="B" unicode="B" horiz-adv-x="1410"
d="M158 1439q0 21 11.5 33.5t32.5 12.5h634q88 0 166 -33.5t136.5 -92t92.5 -137t34 -168.5q0 -75 -23.5 -139.5t-66.5 -115.5q71 -66 113.5 -157.5t42.5 -192.5q0 -91 -35 -172.5t-94.5 -143t-139 -97.5t-167.5 -36h-693q-20 0 -32 10.5t-12 32.5v1396zM934 464
q0 30 -11.5 60t-32 53.5t-49 38.5t-61.5 15h-234v-334h234q33 0 61 14t49 37.5t32.5 53.5t11.5 62zM881 1045q0 30 -11 56t-31 46t-48 31.5t-61 11.5h-184v-290h181q34 0 62.5 10.5t48.5 30t31.5 46t11.5 58.5z" />
    <glyph glyph-name="C" unicode="C" horiz-adv-x="1408"
d="M1079 419q21 15 39 17.5t32 -17.5l164 -241q16 -20 12.5 -34.5t-26.5 -29.5q-40 -28 -86.5 -53t-100.5 -43.5t-114.5 -29t-128.5 -10.5q-106 0 -204 27.5t-183.5 77.5t-155.5 120t-120 155.5t-77.5 183.5t-27.5 204t27.5 203.5t77.5 182.5t120 154t155.5 118.5
t183.5 76.5t204 27q68 0 129 -11t115 -29.5t101.5 -44t88.5 -54.5q16 -11 18.5 -26.5t-4.5 -26.5l-174 -249q-11 -16 -28.5 -15t-33.5 14q-49 39 -99 57t-113 18q-83 0 -154 -30.5t-123 -84t-81 -125.5t-29 -155t29 -156t81 -127t123 -85t154 -31q63 0 116 22t93 50z" />
    <glyph glyph-name="D" unicode="D" horiz-adv-x="1532"
d="M164 1441q0 44 43 44h519q94 0 185 -26.5t173.5 -74.5t152.5 -116t121 -150.5t80 -177.5t29 -198q0 -97 -26.5 -190t-74.5 -175.5t-115.5 -151.5t-150 -119t-177 -78t-197.5 -28h-519q-43 0 -43 44v1397zM1079 742q0 81 -29.5 151.5t-81.5 123.5t-123.5 83.5t-154.5 30.5
h-140v-777h140q83 0 154.5 30.5t123.5 83t81.5 123.5t29.5 151z" />
    <glyph glyph-name="E" unicode="E" horiz-adv-x="1350"
d="M160 1441q0 44 44 44h995q44 0 44 -44v-257q0 -43 -44 -43h-652v-247h495q23 0 36 -11.5t13 -34.5v-206q0 -44 -49 -44h-495v-255h671q44 0 44 -44v-255q0 -44 -44 -44h-1014q-44 0 -44 44v1397z" />
    <glyph glyph-name="F" unicode="F" horiz-adv-x="1252"
d="M168 1441q0 44 43 44h953q43 0 43 -44v-257q0 -43 -43 -43h-610v-309h447q44 0 44 -45v-242q0 -44 -44 -44h-447v-457q0 -44 -44 -44h-299q-43 0 -43 44v1397z" />
    <glyph glyph-name="G" unicode="G" horiz-adv-x="1474"
d="M857 348q32 1 71 5.5t70 14.5v264q0 44 44 44h269q13 0 28 -8t15 -36v-483q0 -14 -5 -26t-19 -21q-92 -58 -214.5 -90.5t-258.5 -32.5q-106 0 -204 27.5t-183.5 77.5t-156 120t-120.5 155.5t-77.5 183.5t-27.5 204q0 159 60 297.5t163.5 241.5t243 162t298.5 59
q135 0 239.5 -35.5t196.5 -102.5q33 -26 13 -57l-166 -237q-11 -17 -27 -18t-32 11q-46 32 -100 53t-120 21q-87 0 -157.5 -30.5t-120.5 -84t-77 -125.5t-27 -155t28.5 -156.5t79.5 -128t121 -85.5t153 -29z" />
    <glyph glyph-name="H" unicode="H" horiz-adv-x="1606"
d="M1051 612h-502v-568q0 -44 -48 -44h-294q-43 0 -43 44v1397q0 18 10.5 31t32.5 13h300q13 0 27.5 -7.5t14.5 -34.5v-477h502v475q0 18 11 31t33 13h300q12 0 26.5 -7.5t14.5 -34.5v-1399q0 -44 -47 -44h-294q-44 0 -44 44v568z" />
    <glyph glyph-name="I" unicode="I" horiz-adv-x="708"
d="M164 1441q0 44 43 44h299q44 0 44 -44v-1397q0 -44 -44 -44h-299q-43 0 -43 44v1397z" />
    <glyph glyph-name="J" unicode="J" horiz-adv-x="1032"
d="M480 1445q0 37 39 40h295q54 0 54 -52v-980q0 -99 -39.5 -185.5t-106.5 -151t-155.5 -101.5t-186.5 -37q-58 0 -114 13t-107 38.5t-94 63t-76 86.5q-3 2 -3 16q0 26 16 38l174 163q8 7 17 11.5t17 4.5q15 0 28.5 -11t30 -24.5t38.5 -24.5t53 -11q23 0 45 9t38.5 24
t26.5 35.5t10 43.5v992z" />
    <glyph glyph-name="K" unicode="K" horiz-adv-x="1528"
d="M943 846l530 -799q14 -21 10.5 -34t-24.5 -13h-379q-22 0 -35.5 12t-25.5 32l-328 509l-147 -178v-331q0 -44 -44 -44h-299q-43 0 -43 44v1397q0 20 11.5 32t31.5 12h295q5 0 13.5 -3t16 -8.5t13 -13.5t5.5 -19v-548l430 559q19 24 35 28.5t39 4.5h360q12 0 17.5 -4.5
t6.5 -11.5t-2.5 -15t-9.5 -15z" />
    <glyph glyph-name="L" unicode="L" horiz-adv-x="1204"
d="M160 1441q0 22 13 33t30 11h299q43 0 43 -44v-1087h555q43 0 43 -44v-266q0 -44 -43 -44h-897q-43 0 -43 44v1397z" />
    <glyph glyph-name="M" unicode="M" horiz-adv-x="1920"
d="M559 848l-84 -804q-2 -22 -12 -33t-32 -11h-284q-22 0 -34 11t-10 33l149 1397q2 22 12 33t32 11h350q22 0 29 -10.5t15 -33.5l273 -898l272 898q8 23 15 33.5t29 10.5h350q22 0 32 -11t12 -33l149 -1397q2 -22 -10 -33t-34 -11h-284q-22 0 -32 11t-12 33l-81 784
l-234 -782q-8 -28 -17 -37t-32 -9h-247q-23 0 -32.5 9t-16.5 37z" />
    <glyph glyph-name="N" unicode="N" horiz-adv-x="1645"
d="M535 909v-865q0 -44 -49 -44h-279q-43 0 -43 44v1397q0 18 10.5 31t32.5 13h324q43 0 71 -44l501 -811v811q0 18 11 31t34 13h278q16 0 32.5 -12t16.5 -32v-1397q0 -44 -49 -44h-293q-45 0 -72 44z" />
    <glyph glyph-name="O" unicode="O" horiz-adv-x="1704"
d="M478 742q0 -83 28 -155t78.5 -125.5t119.5 -84t152 -30.5t152.5 30.5t120 84t78.5 125.5t28 155q0 82 -28 154.5t-78.5 126.5t-120 85t-152.5 31t-152 -31t-119.5 -85t-78.5 -126.5t-28 -154.5zM92 741q0 106 27 203.5t77 183t119.5 155.5t154.5 119.5t182.5 77
t203.5 27.5q105 0 203 -27.5t183 -77t155 -119.5t119.5 -155.5t77 -183t27.5 -203.5t-27.5 -203.5t-77 -182t-119.5 -154t-155 -119.5t-183 -77t-203 -27q-106 0 -203.5 27t-182.5 77t-154.5 119.5t-119.5 154t-77 182t-27 203.5z" />
    <glyph glyph-name="P" unicode="P" horiz-adv-x="1360"
d="M162 1441q0 22 12 33t30 11h642q69 0 130 -19t112.5 -52.5t92.5 -80t69.5 -100.5t43.5 -113.5t15 -120.5q0 -90 -33 -176.5t-93 -154t-144 -108.5t-186 -41h-306v-475q0 -44 -46 -44h-297q-42 0 -42 44v1397zM547 1168v-334h216q36 0 64.5 14.5t48 37.5t30 53t10.5 62
q0 30 -10.5 60t-30 53.5t-48 38.5t-64.5 15h-216z" />
    <glyph glyph-name="Q" unicode="Q" horiz-adv-x="1704"
d="M96 741q0 106 27 203.5t77 183t119.5 155.5t154.5 119.5t182.5 77t203.5 27.5q105 0 203 -27.5t183 -77t155 -119.5t119.5 -155.5t77 -183t27.5 -203.5q0 -135 -43 -257t-119.5 -219.5t-182 -166t-230.5 -97.5v-271q0 -44 -48 -44h-295q-44 0 -44 44v273
q-124 30 -228 98.5t-179.5 165.5t-117.5 218t-42 256zM482 742q0 -83 28 -155t78.5 -125.5t119.5 -84t152 -30.5t152.5 30.5t120 84t78.5 125.5t28 155q0 82 -28 154.5t-78.5 126.5t-120 85t-152.5 31t-152 -31t-119.5 -85t-78.5 -126.5t-28 -154.5z" />
    <glyph glyph-name="R" unicode="R" horiz-adv-x="1406"
d="M162 1441q0 16 10.5 30t32.5 14h664q106 0 193 -42.5t149.5 -112.5t97 -160t34.5 -184q0 -60 -17.5 -118t-50 -111t-77.5 -99t-99 -81l286 -533q8 -14 2.5 -29t-27.5 -15h-360q-21 0 -31 8.5t-23 33.5l-237 452h-161v-450q0 -44 -44 -44h-299q-43 0 -43 44v1397z
M548 1176v-362h222q39 0 72 15.5t56.5 40.5t36.5 57.5t13 66.5q0 33 -13 65.5t-37 58.5t-56.5 42t-71.5 16h-222z" />
    <glyph glyph-name="S" unicode="S" horiz-adv-x="1312"
d="M347 479q17 -14 43.5 -37.5t60.5 -46.5q50 -34 100.5 -53t105.5 -19q51 0 85.5 11.5t54.5 30.5t28.5 44t8.5 53q0 31 -23.5 55.5t-57.5 43.5t-71 32.5t-64 22.5q-120 42 -210 90.5t-150 108t-90 131.5t-30 159q0 93 37.5 169t107 130t167.5 83.5t219 29.5
q90 0 174.5 -20.5t164.5 -65.5q34 -20 64.5 -41t53.5 -41.5t36.5 -38.5t13.5 -31t-6.5 -24t-19.5 -25l-153 -163q-17 -17 -34 -17q-14 0 -25.5 8t-25.5 20l-9 8q-20 17 -44.5 35t-52.5 32.5t-59 24t-63 9.5q-33 0 -62 -5.5t-51 -17.5t-35 -31.5t-13 -47.5t14 -48.5t42 -38
t69.5 -33t96.5 -33.5q106 -35 195.5 -73.5t154.5 -91t101.5 -125.5t36.5 -177q0 -110 -45 -199.5t-123.5 -152.5t-184.5 -97.5t-228 -34.5q-77 0 -153.5 19.5t-147 54t-133 80.5t-110.5 99l-3 3l-4 4l-4 4q-23 24 -23 40q0 17 23 38l173 165q21 15 34 15q9 0 19 -6t24 -18z
" />
    <glyph glyph-name="T" unicode="T" horiz-adv-x="1332"
d="M80 1441q0 44 44 44h1085q44 0 44 -44v-254q0 -44 -44 -44h-355v-1099q0 -44 -45 -44h-288q-44 0 -44 44v1099h-353q-44 0 -44 44v254z" />
    <glyph glyph-name="U" unicode="U" horiz-adv-x="1550"
d="M544 593q0 -74 20.5 -125.5t54 -84t78 -47.5t92.5 -15q50 0 94.5 17.5t78 52t53 85.5t19.5 117v848q0 18 12.5 31t33.5 13h292q23 0 36 -13.5t13 -30.5v-843q0 -175 -51.5 -294t-138.5 -191.5t-201.5 -104t-240.5 -31.5t-241 32.5t-202 106t-138.5 192t-51.5 290.5v843
q0 17 11.5 30.5t28.5 13.5h305q26 0 34.5 -12.5t8.5 -31.5v-848z" />
    <glyph glyph-name="V" unicode="V" horiz-adv-x="1470"
d="M911 44q-17 -44 -60 -44h-235q-43 0 -61 44l-536 1399q-18 44 28 44l319 -2q45 0 59 -44l307 -896l304 896q17 44 60 44h323q45 0 28 -44z" />
    <glyph glyph-name="W" unicode="W" horiz-adv-x="2156"
d="M1072 429l-141 -385q-15 -44 -60 -44h-249q-43 0 -61 44l-534 1397q-7 19 -0.5 31.5t28.5 12.5h323q43 0 60 -44l305 -901l278 901q7 23 22.5 33.5t37.5 10.5h331q22 0 28.5 -14t0.5 -30l-181 -493l143 -413l321 906q15 44 60 44h327q23 0 29.5 -13t-0.5 -31l-560 -1397
q-17 -44 -61 -44h-235q-44 0 -61 44z" />
    <glyph glyph-name="X" unicode="X" horiz-adv-x="1454"
d="M938 759l478 -715q13 -20 5.5 -32t-29.5 -12h-341q-22 0 -36 12t-27 32l-265 397l-267 -397q-18 -27 -29.5 -35.5t-33.5 -8.5h-338q-22 0 -29.5 12t5.5 32l478 715l-453 681q-12 19 -8 32t26 13h346q22 0 35 -10.5t28 -33.5l241 -361l241 361q14 20 27.5 32t35.5 12h342
q22 0 29 -14t-4 -30z" />
    <glyph glyph-name="Y" unicode="Y" horiz-adv-x="1410"
d="M507 605l-472 836q-11 20 -2.5 32t31.5 12h342q22 0 35.5 -10.5t24.5 -33.5l235 -501l233 501q11 23 24.5 33.5t35.5 10.5h347q22 0 30.5 -12t-2.5 -32l-475 -834v-563q0 -44 -44 -44h-299q-44 0 -44 44v561z" />
    <glyph glyph-name="Z" unicode="Z" horiz-adv-x="1432"
d="M88 1441q0 20 12.5 32t34.5 12h1161q19 0 32.5 -11t13.5 -33v-202q0 -8 -0.5 -15t-5.5 -18l-724 -863h687q19 0 32 -11t13 -34v-249q0 -17 -12.5 -33t-32.5 -16h-1161q-20 0 -33.5 13t-13.5 36v215q0 15 7 26l722 851h-685q-22 0 -34.5 11.5t-12.5 37.5v251z" />
    <glyph glyph-name="bracketleft" unicode="[" horiz-adv-x="838"
d="M160 1686q0 44 44 44h434q44 -3 44 -44v-238q0 -21 -13 -33.5t-31 -12.5h-121v-1327h121q18 0 31 -12.5t13 -33.5v-238q0 -41 -44 -44h-434q-44 0 -44 44v1895z" />
    <glyph glyph-name="backslash" unicode="\" horiz-adv-x="1086"
d="M39 1441q-20 44 25 44h297q43 0 64 -44l627 -1397q9 -19 3.5 -31.5t-27.5 -12.5h-301q-45 0 -63 44z" />
    <glyph glyph-name="bracketright" unicode="]" horiz-adv-x="838"
d="M681 -218q0 -44 -44 -44h-433q-44 3 -44 44v238q0 21 12.5 33.5t31.5 12.5h121v1327h-121q-19 0 -31.5 12.5t-12.5 33.5v238q0 41 44 44h433q44 0 44 -44v-1895z" />
    <glyph glyph-name="asciicircum" unicode="^" horiz-adv-x="976"
d="M836 1238q18 -18 19.5 -39.5t-19.5 -41.5l-106 -102q-20 -19 -41.5 -18t-38.5 18l-168 168l-165 -170q-17 -17 -38.5 -18.5t-41.5 18.5l-109 104q-21 20 -19.5 41.5t19.5 39.5l315 315q8 7 18 13t24 6q16 0 23.5 -4t18.5 -15z" />
    <glyph glyph-name="underscore" unicode="_" horiz-adv-x="906"
d="M-2 -122q0 44 44 44h821q18 0 31 -11.5t13 -32.5v-181q0 -7 -3 -15.5t-9 -15.5t-14 -12t-18 -5h-821q-44 0 -44 48v181z" />
    <glyph glyph-name="grave" unicode="`" horiz-adv-x="552"
d="M76 1431q-8 20 0.5 37t27.5 17h227q26 0 39.5 -10t22.5 -35l76 -222q8 -28 -5 -39t-27 -11h-202q-24 0 -36 7t-25 38z" />
    <glyph glyph-name="a" unicode="a" horiz-adv-x="1263"
d="M1133 57q0 -29 -18.5 -43t-41.5 -14h-195q-17 0 -26.5 4.5t-16 12t-10.5 18.5t-9 24l-22 58q-14 -21 -30.5 -44.5t-41 -44t-59 -33.5t-83.5 -13h-11q-108 0 -197.5 38.5t-154.5 106t-101 160.5t-36 201q0 111 35.5 204t100 160.5t154.5 105.5t199 38q51 0 92.5 -14.5
t73 -38t53.5 -53.5t35 -61l30 93q7 21 11.5 32.5t10.5 17.5t15 7.5t25 1.5h158q24 0 42 -15.5t18 -41.5v-867zM435 485q0 -40 12 -74t34 -59t53.5 -39t69.5 -14q39 0 72.5 14t57.5 39t37.5 59t13.5 74q0 39 -13.5 73t-37.5 59.5t-57.5 40.5t-72.5 15q-38 0 -69.5 -15
t-53.5 -40.5t-34 -59.5t-12 -73z" />
    <glyph glyph-name="b" unicode="b" horiz-adv-x="1229"
d="M443 115q-8 -21 -15 -41.5t-15.5 -37t-20 -26.5t-28.5 -10h-193q-41 7 -41 52v1382q0 12 5.5 21.5t13.5 16t17.5 10.5t18.5 4h249q26 0 38.5 -15t12.5 -37v-530q17 18 36 34t42 28t52 18.5t67 6.5q108 0 196.5 -39.5t151.5 -107.5t98 -160t35 -197q0 -104 -36 -196
t-99 -160.5t-149.5 -108.5t-187.5 -40q-46 0 -80.5 6.5t-63 22t-53.5 41t-51 63.5zM799 484q0 39 -12.5 73t-35 59.5t-54 40.5t-70.5 15t-71.5 -15t-56.5 -40.5t-37.5 -59.5t-13.5 -73v-6q1 -38 15 -71t38 -57t56 -38t70 -14q39 0 70.5 14t54 39t35 59t12.5 74z" />
    <glyph glyph-name="c" unicode="c" horiz-adv-x="995"
d="M741 344q8 4 14.5 5t11.5 1q10 -1 18 -7t15.5 -15.5t14.5 -21.5t15 -24l86 -133q10 -15 10 -26q-1 -18 -12.5 -29.5t-24.5 -19.5q-66 -40 -140 -66t-157 -26q-104 0 -197 39.5t-163 107.5t-111 160.5t-41 198.5t41 200t111 163.5t163 110t197 40.5q83 0 153 -26.5
t133 -64.5q17 -11 28 -24t11 -36q0 -6 -1.5 -12.5t-6.5 -11.5l-98 -179q-17 -30 -40 -30q-14 0 -32 11q-12 9 -29.5 17t-37 14t-40 9.5t-37.5 3.5q-38 0 -69 -15t-53 -41t-34.5 -60t-12.5 -72q0 -39 12.5 -73.5t34.5 -59.5t53 -39.5t69 -14.5q17 0 37 3.5t39.5 9.5t37 14.5
t30.5 18.5h2z" />
    <glyph glyph-name="d" unicode="d" horiz-adv-x="1243"
d="M800 115q-26 -38 -51 -63.5t-53.5 -41t-63 -22t-80.5 -6.5q-101 0 -187.5 40t-149.5 108.5t-99 160.5t-36 196q0 105 35 197t98 160t151.5 107.5t196.5 39.5q38 0 67 -6.5t52 -18.5t42 -28t36 -34v530q0 22 12.5 37t38.5 15h249q9 0 18.5 -4t17.5 -10.5t13.5 -16
t5.5 -21.5v-1382q0 -45 -41 -52h-193q-17 0 -28.5 10t-20 26.5t-15.5 37t-15 41.5zM444 484q0 -40 12.5 -74t35 -59t54 -39t70.5 -14q38 0 70 14t56 38t38 57t15 71v6q0 39 -13.5 73t-37.5 59.5t-56.5 40.5t-71.5 15t-70.5 -15t-54 -40.5t-35 -59.5t-12.5 -73z" />
    <glyph glyph-name="e" unicode="e" horiz-adv-x="1133"
d="M904 82q-66 -52 -146 -80t-168 -28q-105 0 -197.5 40t-162 110t-110 164t-40.5 201q0 101 36.5 194t102 164t154.5 113t194 42q98 0 186.5 -37t155 -101.5t105.5 -152t39 -187.5q0 -34 -7 -59t-24 -41t-46.5 -24t-74.5 -8h-495q10 -34 30.5 -59.5t46 -43t53 -26
t51.5 -8.5q40 0 80.5 11.5t66.5 27.5q22 10 32 19.5t24 9.5q8 0 15.5 -4.5t18.5 -16.5l101 -144q10 -14 10 -29q0 -14 -8.5 -26t-22.5 -21zM573 722q-27 0 -52 -9t-45.5 -24.5t-37 -35.5t-26.5 -42h335q-12 21 -28 41t-36.5 35.5t-47.5 25t-62 9.5z" />
    <glyph glyph-name="f" unicode="f" horiz-adv-x="662"
d="M144 1158q0 64 19 114.5t52 89t77 65.5t93 44t100.5 24.5t100.5 7.5q30 0 46.5 -15.5t16.5 -42.5v-209q0 -24 -12.5 -37.5t-33.5 -13.5h-4q-48 0 -77.5 -17.5t-30.5 -62.5v-105h65q26 0 41.5 -14t15.5 -44v-156q0 -26 -15.5 -44t-41.5 -18h-65v-673q0 -23 -15.5 -37
t-37.5 -14h-239q-21 0 -38 14.5t-17 36.5v673h-53q-28 0 -43.5 15.5t-15.5 46.5v156q0 30 15.5 44t43.5 14h53v158z" />
    <glyph glyph-name="g" unicode="g" horiz-adv-x="1263"
d="M1133 57q0 -112 -33.5 -204t-98 -158t-159 -102t-216.5 -36q-100 0 -188 20.5t-165 68.5q-17 9 -28.5 22t-11.5 31q0 13 9 33l77 168q16 25 36 25q13 0 38 -11q15 -11 39 -20t51 -15t53 -9.5t46 -3.5q33 0 69 9.5t66.5 27.5t52.5 44.5t28 59.5q3 18 5.5 44.5t2.5 52.5v7
q-16 -20 -37.5 -41.5t-49.5 -38.5t-63 -28t-77 -11h-11q-108 0 -197.5 37t-154 103t-100.5 157t-36 199q0 111 35.5 206t100 164t154.5 108.5t199 39.5q39 0 83.5 -15.5t83.5 -40t67.5 -54t36.5 -57.5l13 83q3 21 7 33t11 18t17.5 7t26.5 1h158q24 0 42 -15.5t18 -41.5v-867
zM435 485q0 -40 12 -74t34 -59t53.5 -39t69.5 -14q39 0 72.5 14t57.5 39t37.5 59t13.5 74q0 39 -13.5 73t-37.5 59.5t-57.5 40.5t-72.5 15q-38 0 -69.5 -15t-53.5 -40.5t-34 -59.5t-12 -73z" />
    <glyph glyph-name="h" unicode="h" horiz-adv-x="1251"
d="M484 49q0 -18 -8.5 -28t-20.5 -14.5t-26 -5.5t-25 -1h-217q-30 0 -43.5 13.5t-13.5 37.5v1381q0 23 13 37.5t40 14.5h244q26 0 41.5 -9.5t15.5 -41.5v-549q18 17 45.5 36.5t63.5 36t79.5 27t93.5 10.5q96 0 168.5 -32.5t122 -89.5t77 -134.5t34.5 -166.5q3 -42 3 -86
v-434q0 -24 -14.5 -37.5t-35.5 -13.5h-251q-27 0 -39 12t-12 37v477q0 31 -13.5 57t-35.5 45t-50 30t-58 11q-26 0 -56 -10t-56.5 -27.5t-44.5 -42t-21 -54.5v-486v-4v4v0z" />
    <glyph glyph-name="i" unicode="i" horiz-adv-x="625"
d="M129 931q0 21 12.5 36.5t37.5 15.5h250q8 0 17.5 -4t18 -10.5t14 -16t5.5 -21.5v-880q0 -51 -55 -51h-250q-50 0 -50 51v880zM119 1292q0 37 14.5 70.5t39 58t57.5 39t70 14.5q39 0 72.5 -14.5t57.5 -39t38 -58t14 -70.5t-14 -70t-38 -57.5t-57.5 -39t-72.5 -14.5
q-37 0 -70 14.5t-57.5 39t-39 57.5t-14.5 70z" />
    <glyph glyph-name="j" unicode="j" horiz-adv-x="606"
d="M128 930q0 24 15 38t38 14h249q21 0 37.5 -15t16.5 -37v-899q0 -104 -32.5 -187t-92.5 -141t-144 -88.5t-186 -30.5q-29 0 -44 15t-15 40v191q0 23 13.5 36t34.5 13h4q21 0 40 8t33.5 22t23.5 34.5t9 46.5v940zM117 1292q0 37 14.5 70.5t39 58t57.5 39t70 14.5
q39 0 72.5 -14.5t57.5 -39t38 -58t14 -70.5t-14 -70t-38 -57.5t-57.5 -39t-72.5 -14.5q-37 0 -70 14.5t-57.5 39t-39 57.5t-14.5 70z" />
    <glyph glyph-name="k" unicode="k" horiz-adv-x="1275"
d="M130 1432q0 23 9 37.5t43 14.5h253q23 0 36 -15.5t13 -32.5v-774q66 74 131.5 146.5t131.5 146.5q19 22 48 22h313q20 0 31 -9t11 -24q-1 -8 -3 -14t-11 -15l-316 -334l398 -511h-2q10 -10 14.5 -20.5t4.5 -18.5q0 -18 -9.5 -24.5t-29.5 -6.5h-326q-13 0 -31.5 9.5
t-29.5 30.5v-1l-251 357l-73 -75v-270q0 -17 -10.5 -34t-39.5 -17h-258q-12 0 -21 5t-15 12.5t-8.5 15.5t-2.5 14v1385z" />
    <glyph glyph-name="l" unicode="l" horiz-adv-x="614"
d="M130 1432q0 22 12 37t38 15h250q7 0 16.5 -4t18 -10.5t14 -16t5.5 -21.5v-1381q0 -26 -14 -38.5t-40 -12.5h-250q-50 0 -50 51v1381z" />
    <glyph glyph-name="m" unicode="m" horiz-adv-x="1824"
d="M180 0q-27 0 -38.5 14.5t-11.5 36.5v870q0 14 7 25.5t16.5 19t20 11.5t17.5 4h130q28 0 48 -11t34.5 -29t24 -42t15.5 -50q18 21 49 46.5t70 47t82.5 36.5t86.5 15q112 0 192.5 -38t114.5 -99q25 29 59 54t73 43.5t79.5 29t77.5 10.5q132 0 213.5 -39t126.5 -107.5
t61 -161t16 -200.5v-435q0 -24 -15 -37.5t-38 -13.5h-239q-54 0 -54 49v477q0 31 -8 57t-24 45t-38.5 30t-50.5 11q-27 0 -54 -10.5t-49 -28.5t-36 -43t-14 -54v-484q-2 -24 -15.5 -36.5t-34.5 -12.5h-257q-50 0 -50 49v495q-3 55 -37 90t-88 35q-26 0 -53.5 -10t-50 -28
t-37 -43t-14.5 -55v-489q0 -16 -12.5 -30t-29.5 -14h-265z" />
    <glyph glyph-name="n" unicode="n" horiz-adv-x="1251"
d="M130 923q0 31 14 45.5t47 14.5h130q28 0 47.5 -11.5t33 -30t23 -43t16.5 -50.5q18 21 50.5 46.5t74.5 48t90.5 37.5t97.5 15q114 0 190.5 -30.5t122.5 -91.5t65.5 -154t19.5 -217v-451q0 -24 -15 -37.5t-36 -13.5h-251q-27 0 -39 12t-12 37v478q0 69 -34 104t-111 35
q-23 0 -51 -9t-53.5 -26t-43.5 -42t-20 -56v-483q0 -25 -11.5 -37.5t-43.5 -12.5h-248q-27 0 -40 14.5t-13 36.5v872z" />
    <glyph glyph-name="o" unicode="o" horiz-adv-x="1206"
d="M80 488q0 106 41 200t111.5 163.5t166 110t205.5 40.5q108 0 203.5 -40.5t166 -110t111.5 -163.5t41 -200t-41 -198.5t-111.5 -160.5t-166 -107.5t-203.5 -39.5q-73 0 -140 18t-125.5 50.5t-106 78.5t-81.5 102t-52.5 121t-18.5 136zM436 485q0 -40 12 -74t34 -59
t53.5 -39t70.5 -14t70 14t53 39t34 59t12 74q0 39 -12 73t-34 59.5t-53 40.5t-70 15t-70.5 -15t-53.5 -40.5t-34 -59.5t-12 -73z" />
    <glyph glyph-name="p" unicode="p" horiz-adv-x="1223"
d="M443 868q26 38 51 63.5t53.5 41t63 22t80.5 6.5q101 0 187.5 -40t149.5 -108.5t99 -160.5t36 -196q0 -105 -35 -197t-98 -160t-151.5 -107.5t-196.5 -39.5q-38 0 -67 6.5t-52 18.5t-42 28t-36 34v-530q0 -22 -12.5 -37t-38.5 -15h-249q-9 0 -18.5 4t-17.5 10.5t-13.5 16
t-5.5 21.5v1382q0 45 41 52h193q17 0 28.5 -10t20 -26.5t15.5 -37t15 -41.5zM809 499q0 40 -12.5 74t-35 59t-54 39t-70.5 14q-38 0 -70 -14t-56 -38t-38 -57t-15 -71v-6q0 -39 13.5 -73t37.5 -59.5t56.5 -40.5t71.5 -15t70.5 15t54 40.5t35 59.5t12.5 73z" />
    <glyph glyph-name="q" unicode="q" horiz-adv-x="1243"
d="M800 868q8 21 15 41.5t15.5 37t20 26.5t28.5 10h193q41 -7 41 -52v-1382q0 -12 -5.5 -21.5t-13.5 -16t-17.5 -10.5t-18.5 -4h-249q-26 0 -38.5 15t-12.5 37v530q-17 -18 -36 -34t-42 -28t-52 -18.5t-67 -6.5q-108 0 -196.5 39.5t-151.5 107.5t-98 160t-35 197
q0 104 36 196t99 160.5t149.5 108.5t187.5 40q46 0 80.5 -6.5t63 -22t53.5 -41t51 -63.5zM434 499q0 -39 12.5 -73t35 -59.5t54 -40.5t70.5 -15t71.5 15t56.5 40.5t37.5 59.5t13.5 73v6q-1 38 -15 71t-38 57t-56 38t-70 14q-39 0 -70.5 -14t-54 -39t-35 -59t-12.5 -74z" />
    <glyph glyph-name="r" unicode="r" horiz-adv-x="980"
d="M129 926q0 30 20.5 43.5t41.5 13.5h166q14 0 22.5 -5.5t14.5 -14t10.5 -19t10.5 -21.5q1 -2 5.5 -14.5t10.5 -27.5t11 -28t6 -15q19 29 41.5 56.5t49.5 49.5t59 35t72 13q42 0 74.5 -6t62 -18t58 -30t62.5 -43q32 -17 32 -46q0 -20 -12 -39l-112 -170q-11 -16 -26 -25.5
t-30 -9.5q-17 0 -30 13q-17 16 -30.5 27t-27.5 18.5t-30 11t-37 3.5q-30 0 -55.5 -10.5t-44 -28t-29 -41t-10.5 -49.5v-490q0 -29 -14.5 -44t-47.5 -15h-234q-29 0 -44.5 15t-15.5 44v867z" />
    <glyph glyph-name="s" unicode="s" horiz-adv-x="980"
d="M287 340q48 -39 89.5 -58.5t74.5 -19.5q24 0 45 2.5t37 7.5t25.5 14t9.5 23q0 28 -37 43t-101 32q-99 26 -165.5 60t-107 75.5t-57.5 90t-17 104.5q0 64 30.5 116.5t84.5 89.5t127.5 57.5t159.5 20.5q51 0 99.5 -5t93.5 -18.5t87 -37.5t81 -62q11 -14 11 -26
q-1 -9 -5 -18.5t-15 -18.5q-9 -8 -27.5 -26.5t-39 -40t-38.5 -40.5t-26 -27q-7 -7 -14.5 -9.5t-14.5 -2.5q-12 0 -22.5 6t-21.5 17q-13 13 -31 22.5t-37.5 16t-38.5 10t-35 3.5t-32 -3.5t-28.5 -10.5t-20 -17.5t-7.5 -23.5q0 -19 15 -30.5t37 -18t46.5 -11t44.5 -10.5
q74 -23 139 -46.5t113.5 -58t76.5 -84.5t28 -125q0 -77 -35 -137t-95.5 -101t-141 -62.5t-170.5 -21.5q-104 0 -200.5 37t-170.5 118q-20 22 -20 42q0 17 16 33l133 139q7 7 14 9.5t13 3.5q9 0 18.5 -6t22.5 -16z" />
    <glyph glyph-name="t" unicode="t" horiz-adv-x="668"
d="M159 1255q0 20 13.5 35.5t39.5 20.5l248 39q20 0 32 -13.5t12 -35.5v-300h89q25 0 41.5 -14.5t16.5 -43.5v-156q0 -25 -16 -43t-42 -18h-89v-675q0 -51 -56 -51h-237q-52 0 -52 51v675h-56q-59 0 -59 61v156q0 58 59 58h56v254z" />
    <glyph glyph-name="u" unicode="u" horiz-adv-x="1232"
d="M1102 61q0 -31 -14 -45.5t-47 -14.5h-130q-28 0 -47.5 11t-33 30t-23 43.5t-16.5 50.5q-18 -21 -50.5 -46.5t-74.5 -48t-90.5 -37.5t-97.5 -15q-114 0 -190.5 30.5t-122.5 91.5t-65.5 153.5t-19.5 217.5v451q0 24 15 37.5t36 13.5h251q27 0 39 -12t12 -37v-478
q0 -69 34 -104t111 -35q23 0 51 9t53.5 26t43.5 41.5t20 56.5v483q0 25 11.5 37.5t43.5 12.5h248q27 0 40 -14.5t13 -36.5v-872z" />
    <glyph glyph-name="v" unicode="v" horiz-adv-x="1136"
d="M400 21q-8 13 -15.5 27.5t-12.5 29.5q-83 211 -170 421.5t-169 422.5q-2 1 -3.5 9t-1.5 16q0 35 44 35h286q23 0 38 -12t21 -33q17 -60 38.5 -131.5t42.5 -141.5t39 -131.5t29 -100.5l148 508q9 23 23 33t38 10h281q27 0 38 -10.5t11 -28.5q0 -4 -0.5 -7.5t-1.5 -8.5
l-346 -850q-4 -12 -10 -25.5t-14 -25.5t-19.5 -19.5t-27.5 -7.5h-240q-19 0 -29 5.5t-17 15.5z" />
    <glyph glyph-name="w" unicode="w" horiz-adv-x="1670"
d="M389 25q-8 13 -15 26.5t-12 27.5l-329 843q-2 2 -3.5 10.5t-1.5 15.5q0 34 44 34h288q20 0 35 -11.5t23 -31.5q18 -61 34.5 -119.5l33 -117t33.5 -117t37 -119.5l149 474q13 43 61 43h241q28 0 39 -11t11 -30q0 -9 -1 -14l-51 -165q6 -20 17.5 -53.5t26 -74.5t30 -85.5
t30.5 -85.5l138 476q9 23 22.5 33t36.5 10h288q44 0 44 -29q0 -9 -5 -26l-334 -853q-5 -12 -11 -25t-14.5 -24.5t-20 -18.5t-26.5 -7h-236q-25 0 -40.5 14t-17.5 25l-101 274l-88 -236q-4 -11 -10 -24.5t-14.5 -25t-19.5 -19.5t-26 -8h-237q-20 0 -31 7t-17 18z" />
    <glyph glyph-name="x" unicode="x" horiz-adv-x="1178"
d="M44 0q-24 0 -24 19q0 9 6 20l28 46l296 425q-75 103 -148.5 207.5t-147.5 207.5q-15 20 -15 35q0 9 7.5 15t24.5 6h325q20 0 33.5 -11.5t26.5 -29.5l117 -208q13 18 29.5 45.5t34 57.5t34 58.5t28.5 47.5q27 41 65 41h325q29 0 29 -24q0 -5 -3 -11t-8 -13l-314 -423
l306 -439q22 -31 22 -50q0 -22 -30 -22h-347q-20 0 -36 11.5t-24 30.5l-112 186l-113 -188q-8 -18 -24.5 -29t-33.5 -11h-357z" />
    <glyph glyph-name="y" unicode="y" horiz-adv-x="1160"
d="M43 921q-3 2 -4 9.5t-1 14.5q0 36 44 36h274q23 0 38 -11.5t20 -31.5q21 -60 43.5 -127.5t45 -135.5t45 -135.5t44.5 -127.5l172 526q8 23 23 33t39 10h269q27 0 37.5 -11t10.5 -29q0 -10 -1 -15q-37 -101 -80.5 -214.5t-88 -230.5t-89.5 -233t-85.5 -223t-75 -200.5
t-58.5 -165.5q-5 -19 -20.5 -31.5t-35.5 -12.5h-249q-17 0 -32.5 6.5t-15.5 28.5q0 8 5 25l104 306z" />
    <glyph glyph-name="z" unicode="z" horiz-adv-x="1096"
d="M115 928q0 24 13.5 38t39.5 14h785q22 0 37.5 -13t15.5 -39v-179q0 -8 -1 -15.5t-6 -18.5q-48 -51 -105.5 -103.5t-116.5 -105t-116 -104.5t-105 -103h396q23 0 38 -13.5t15 -39.5v-189q0 -19 -14.5 -38t-38.5 -19h-794q-29 0 -43.5 20t-16.5 46v150q0 24 11 43t30 39
q43 45 96.5 94t109 98.5t108 98t93.5 91.5h-378q-53 0 -53 57v191z" />
    <glyph glyph-name="braceleft" unicode="{" horiz-adv-x="840"
d="M210 1419q0 91 40.5 171.5t108 140t153.5 94t178 34.5h20q51 -5 51 -50v-302q0 -22 -13 -36.5t-31 -14.5h-18q-23 0 -43.5 -9t-35.5 -24t-24 -35.5t-9 -43.5v-468q0 -36 -16.5 -67.5t-39.5 -57.5q23 -27 39.5 -58.5t16.5 -69.5v-477q0 -23 9 -43.5t24 -35.5t35.5 -24
t43.5 -9h18q18 0 31 -14.5t13 -36.5v-310q0 -23 -13 -37t-38 -14h-20q-92 0 -178 34.5t-153.5 94t-108 139.5t-40.5 172v471q0 8 -8 16t-16 8h-86q-44 0 -44 48v291q0 44 44 44h81q29 0 29 28v451z" />
    <glyph glyph-name="bar" unicode="|" horiz-adv-x="614"
d="M162 1441q0 18 11 31t33 13h258q15 0 31.5 -12t16.5 -32v-1781q0 -44 -48 -44h-258q-44 0 -44 44v1781z" />
    <glyph glyph-name="braceright" unicode="}" horiz-adv-x="878"
d="M621 959q0 -28 29 -28h81q44 0 44 -44v-291q0 -48 -44 -48h-86q-8 0 -16 -8t-8 -16v-471q0 -92 -41 -172t-108 -139.5t-154 -94t-178 -34.5h-20q-50 3 -50 51v310q0 22 13 36.5t31 14.5h18q23 0 43.5 9t35.5 24t24 35.5t9 43.5v477q0 38 16.5 69.5t39.5 58.5
q-23 26 -39.5 57.5t-16.5 67.5v468q0 23 -9 43.5t-24 35.5t-35.5 24t-43.5 9h-18q-18 0 -31 14.5t-13 36.5v302q0 45 50 50h20q91 0 178 -34.5t154 -94t108 -140t41 -171.5v-451z" />
    <glyph glyph-name="asciitilde" unicode="~" horiz-adv-x="1318"
d="M161 601q58 81 138.5 123t173.5 42q57 0 113 -18.5t109 -52.5l82 -53q28 -19 64 -19q26 0 50.5 11t39.5 33l39 57q11 17 35 17q14 0 31 -11l150 -101q17 -14 17 -33q0 -13 -8 -28l-40 -55q-61 -85 -142 -125t-178 -40q-57 0 -110.5 18.5t-104.5 51.5l-81 53
q-31 20 -66 20q-58 0 -88 -44l-40 -58q-12 -16 -34 -16q-16 0 -32 10l-149 101q-18 11 -18 33q0 3 1 7.5t6 13.5t14.5 24t27.5 39z" />
    <glyph glyph-name="exclamdown" unicode="&#xa1;" horiz-adv-x="680"
d="M512 -562q0 -44 -49 -44h-260q-44 0 -44 44v1018q0 19 11 31.5t33 12.5h260q15 0 32 -12t17 -32v-1018zM517 818q0 -38 -14.5 -71t-39 -57.5t-57.5 -39t-70 -14.5q-39 0 -72.5 14.5t-57.5 39t-38 57.5t-14 71q0 37 14 70t38 57.5t57.5 39t72.5 14.5q37 0 70 -14.5
t57.5 -39t39 -57.5t14.5 -70z" />
    <glyph glyph-name="cent" unicode="&#xa2;" horiz-adv-x="994"
d="M725 344q8 4 14.5 5t11.5 1q10 -1 18 -7t15.5 -15.5t14.5 -21.5t15 -24l86 -133q10 -15 10 -26q-1 -21 -25.5 -41.5t-60.5 -38t-75.5 -31t-70.5 -19.5v-127q0 -15 -10 -27.5t-29 -12.5h-236q-38 0 -38 40v162q-65 30 -118.5 76.5t-91.5 106t-59.5 130t-21.5 147.5
q0 81 21.5 150t60.5 128t92.5 107t116.5 87v136q0 19 9.5 30.5t28.5 11.5h236q14 0 26.5 -13.5t12.5 -28.5v-113q31 -6 70 -18t73 -29t57 -38.5t23 -46.5q0 -6 -1.5 -12.5t-6.5 -11.5l-98 -179q-17 -30 -40 -30q-14 0 -32 11q-12 9 -27.5 17t-33.5 14t-37 9.5t-36 3.5
q-38 0 -69 -15t-53 -41t-34.5 -60t-12.5 -72q0 -39 12.5 -73.5t34.5 -59.5t53 -39.5t69 -14.5q34 0 71 13t63 33h2z" />
    <glyph glyph-name="sterling" unicode="&#xa3;" horiz-adv-x="1122"
d="M1081 1377q10 -5 17 -14.5t7 -21.5q0 -9 -5 -19l-151 -217q-11 -17 -25 -17q-11 0 -22 7q-19 14 -39 29.5t-44.5 28t-55.5 21t-73 8.5q-36 0 -69 -14t-58.5 -38.5t-40.5 -57.5t-15 -70v-147h277q17 0 31.5 -12t14.5 -32v-185q0 -18 -11.5 -32.5t-34.5 -14.5h-276v-225
h545q19 0 31.5 -11.5t12.5 -32.5v-262q0 -7 -3 -15.5t-9 -15.5t-14 -12t-18 -5h-875q-44 0 -44 43v955q0 106 42.5 200t114.5 163.5t167 110t200 40.5q75 0 136 -10t112 -28t93.5 -43t81.5 -54z" />
    <glyph glyph-name="currency" unicode="&#xa4;" horiz-adv-x="1078"
d="M435 500q0 -44 29.5 -73.5t73.5 -29.5t73.5 29.5t29.5 73.5t-29.5 73.5t-73.5 29.5t-73.5 -29.5t-29.5 -73.5zM256 931q18 18 36 18q19 0 37 -18l84 -85q35 10 66.5 15.5t56.5 5.5q26 0 56.5 -5.5t65.5 -14.5l85 85q8 8 17 11.5t17 4.5q24 0 39 -18l150 -150q8 -9 13 -18
t5 -22q0 -17 -17 -34l-84 -86q9 -33 15 -62.5t6 -53.5q0 -29 -5 -60.5t-15 -67.5l84 -85q18 -19 18 -35q0 -11 -4 -20.5t-15 -16.5q-35 -35 -69 -69.5t-70 -69.5q-9 -10 -20 -18t-28 -8q-15 0 -26.5 7.5t-21.5 17.5l-74 72q-71 -20 -122 -20q-26 0 -57 5.5t-66 14.5l-85 -84
q-16 -16 -35 -16q-11 0 -20.5 3.5t-17.5 14.5l-11 10q-35 34 -69 69.5t-70 69.5q-9 8 -13 16.5t-4 20.5q0 20 16 37l11 12q36 35 73 73q-9 34 -15 64t-6 58q0 24 6 55t15 66q-13 13 -29.5 29t-31.5 32t-26 31t-12 28q1 11 4.5 21.5t12.5 19.5z" />
    <glyph glyph-name="yen" unicode="&#xa5;" horiz-adv-x="1456"
d="M279 732q0 19 11.5 29t23.5 10h122l-382 670q-11 20 -2.5 32t31.5 12h346q23 0 36 -10.5t24 -33.5l234 -492l235 492q11 23 24 33.5t35 10.5h347q22 0 30.5 -12t-2.5 -32l-382 -670h135q34 0 34 -36v-129q0 -17 -10.5 -25.5t-27.5 -8.5h-224v-86h228q34 0 34 -35v-129
q0 -17 -10.5 -26t-27.5 -9h-224v-243q0 -44 -44 -44h-299q-44 0 -44 44v243h-216q-11 0 -23 9t-12 26v126q0 19 11.5 28.5t23.5 9.5h216v86h-216q-11 0 -23 8.5t-12 25.5v126z" />
    <glyph glyph-name="brokenbar" unicode="&#xa6;" horiz-adv-x="654"
d="M162 1476q0 18 11 31t33 13h261q18 0 33 -12t15 -32v-746q0 -44 -48 -44h-261q-44 0 -44 44v746zM162 372q0 18 11 31t33 13h261q18 0 33 -12t15 -32v-746q0 -44 -48 -44h-261q-44 0 -44 44v746z" />
    <glyph glyph-name="section" unicode="&#xa7;" horiz-adv-x="1088"
d="M816 1178q-29 36 -61.5 60t-65 38t-63 19.5t-55.5 5.5q-30 0 -61.5 -8.5t-57.5 -25t-42.5 -42t-16.5 -58.5q0 -26 18.5 -42.5t50.5 -29.5t74.5 -24t90.5 -26q89 -29 153 -60t105.5 -68.5t61 -82.5t19.5 -101q0 -138 -107 -221q68 -54 93 -129.5t2 -162.5
q-17 -62 -55 -112t-92 -85t-122.5 -54.5t-144.5 -19.5q-45 0 -99.5 10t-110.5 35.5t-109 69.5t-94 112q-13 21 -8.5 31.5t10.5 15.5l122 84q4 3 10 6.5t13 3.5t15.5 -5t17.5 -17q16 -22 40 -45t55 -41.5t67 -30.5t75 -12q30 0 62 8.5t58 25t43 41.5t17 58q0 21 -14.5 37
t-39.5 29t-60 24t-75 22q-100 29 -173 60.5t-120 70t-70 85.5t-23 106q0 71 24.5 124t78.5 95q-66 54 -90.5 131t-1.5 163q16 61 54.5 111t93 85.5t122.5 54.5t145 19q75 0 135 -15.5t108.5 -44t87.5 -69.5t72 -92q9 -14 13 -23.5t3 -15.5t-5.5 -11t-12.5 -10l-112 -78
q-22 -13 -48 21zM569 633q21 0 47 4.5t49 15.5t38.5 29.5t15.5 47.5q0 42 -35.5 63.5t-90.5 34.5q-24 6 -58.5 5.5t-66 -10.5t-53.5 -30.5t-22 -55.5q0 -9 4.5 -26t22 -34.5t52.5 -30.5t97 -13z" />
    <glyph glyph-name="dieresis" unicode="&#xa8;" horiz-adv-x="940"
d="M86 1268q0 33 12.5 61.5t34 50t50 34t60.5 12.5q34 0 63 -12.5t50 -34t33 -50t12 -61.5q0 -32 -12 -60.5t-33 -50t-50 -34t-63 -12.5q-32 0 -60.5 12.5t-50 34t-34 50t-12.5 60.5zM526 1270q0 33 12.5 62t33.5 50.5t49.5 34t60.5 12.5q34 0 63 -12.5t50.5 -34t33.5 -50.5
t12 -62q0 -32 -12 -60.5t-33.5 -49.5t-50.5 -33.5t-63 -12.5q-32 0 -60.5 12.5t-49.5 33.5t-33.5 49.5t-12.5 60.5z" />
    <glyph glyph-name="copyright" unicode="&#xa9;" horiz-adv-x="1932"
d="M1242 1143q20 -13 29 -26t-3 -33l-91 -161q-5 -10 -9 -16t-9 -8.5t-11.5 -1t-17.5 6.5q-49 25 -85.5 28t-64.5 3q-47 0 -85 -16.5t-64 -44.5t-40 -64.5t-14 -75.5q0 -50 17 -87t46 -62.5t67 -38t79 -12.5q29 0 62.5 4t77.5 28q20 10 30 5t18 -19l90 -149q14 -22 9 -36.5
t-24 -26.5q-62 -42 -136.5 -63t-151.5 -21q-100 0 -187 37.5t-152 102.5t-102.5 152.5t-37.5 188.5t38 189t103.5 153.5t153.5 103t187 37.5q75 0 146 -19t132 -58zM74 746q0 120 31 230.5t88 207.5t137 176.5t177.5 136.5t209.5 88.5t234 31.5q120 0 231 -31t208 -88
t176.5 -137t136.5 -177t88.5 -209.5t31.5 -233.5q0 -120 -31 -231t-88 -208t-137 -176.5t-177 -136.5t-209.5 -88.5t-233.5 -31.5q-120 0 -231 31t-208 88t-177 137t-137 177.5t-88.5 209.5t-31.5 234zM327 730q0 -86 23 -164.5t64.5 -146.5t99 -122.5t126 -93.5t145.5 -60
t158 -21q90 0 172 25t152 69t126.5 104t96.5 130.5t61.5 147.5t21.5 156q0 90 -24 170t-66.5 146.5t-100 119.5t-125 90t-142 56.5t-149.5 19.5q-94 0 -178 -25t-155 -68.5t-127.5 -103.5t-96.5 -129.5t-61 -146t-21 -153.5z" />
    <glyph glyph-name="ordfeminine" unicode="&#xaa;" horiz-adv-x="1022"
d="M884 772q-12 -6 -22 -6h-159q-31 0 -31 28v55q-31 -45 -78 -71t-120 -26q-78 0 -145.5 29t-118 79.5t-79.5 118t-29 145.5t29 145.5t79.5 118t118 79.5t145.5 29q80 0 130.5 -31t78.5 -86l18 77q0 29 31 29h130q11 0 22 -7q7 -6 7 -22v-662q0 -15 -7 -22zM327 1125
q0 -30 11 -56.5t30.5 -46t45.5 -31t57 -11.5q30 0 56.5 11.5t46 31t31 46t11.5 56.5v7q-2 29 -13.5 54t-31 44t-45.5 29.5t-55 10.5q-31 0 -57 -11t-45.5 -30.5t-30.5 -46t-11 -57.5z" />
    <glyph glyph-name="guillemotleft" unicode="&#xab;" horiz-adv-x="1468"
d="M561 1115q9 11 29 11q21 0 33 -13l144 -144q12 -14 14 -31q-1 -7 -3 -15t-9 -16l-344 -345l344 -346q12 -12 12 -30q0 -21 -15 -36l-147 -143q-6 -6 -13.5 -10t-15.5 -4q-18 0 -30 14l-523 525q-15 15 -15 29q0 16 15 31zM1205 1115q9 11 29 11q21 0 33 -13l144 -144
q12 -14 14 -31q-1 -7 -3 -15t-9 -16l-344 -345l344 -346q12 -12 12 -30q0 -21 -15 -36l-147 -143q-6 -6 -13.5 -10t-15.5 -4q-18 0 -30 14l-523 525q-15 15 -15 29q0 16 15 31z" />
    <glyph glyph-name="logicalnot" unicode="&#xac;" horiz-adv-x="1162"
d="M96 748q0 44 44 44h878q44 0 44 -44v-482q0 -18 -11.5 -31t-32.5 -13h-154q-15 0 -32 12t-17 32v280h-675q-44 0 -44 48v154z" />
    <glyph glyph-name="uni00AD" unicode="&#xad;" horiz-adv-x="1056"
d="M146 686q0 44 44 44h682q18 0 31 -11.5t13 -32.5v-203q0 -15 -12 -31.5t-32 -16.5h-682q-44 0 -44 48v203z" />
    <glyph glyph-name="registered" unicode="&#xae;" horiz-adv-x="1886"
d="M62 749q0 120 31 231.5t88 208.5t136.5 176.5t176.5 136.5t208 88t232 31t232.5 -31t208.5 -88t176.5 -136.5t136 -176.5t87.5 -208.5t31 -231.5t-31 -231.5t-87.5 -208.5t-136 -176.5t-176.5 -136.5t-208.5 -88t-232.5 -31t-232 31t-208 88t-176.5 136.5t-136.5 176.5
t-88 208t-31 232zM331 740q0 -127 43.5 -238t121 -193.5t184.5 -130t233 -47.5q84 0 162.5 21.5t146.5 61t124 95t96 123.5t62 145.5t22 162.5q0 141 -48.5 253.5t-131.5 190.5t-195 120t-238 42t-233 -47.5t-184.5 -129.5t-121 -192.5t-43.5 -236.5zM612 1147q0 9 5.5 17
t18.5 8h408q60 0 109.5 -24.5t85 -64t55 -90.5t19.5 -104q0 -37 -12 -73t-34 -68.5t-51.5 -59t-65.5 -45.5l155 -289q5 -8 1.5 -16.5t-14.5 -8.5h-205q-12 0 -17.5 5t-13.5 19l-134 256h-60v-255q0 -25 -25 -25h-201q-24 0 -24 25v793zM862 981v-160h119q35 0 57 24.5
t22 54.5q0 15 -6 29.5t-16.5 26t-25 18.5t-31.5 7h-119z" />
    <glyph glyph-name="macron" unicode="&#xaf;" horiz-adv-x="1014"
d="M78 1363q0 35 35 35h749q15 0 25 -8.5t10 -26.5v-124q0 -12 -9 -26t-26 -14h-749q-35 0 -35 40v124z" />
    <glyph glyph-name="degree" unicode="&#xb0;" horiz-adv-x="650"
d="M325 1435q45 0 84 -16.5t68 -46t46 -68.5t17 -84t-17 -84.5t-46.5 -68.5t-68.5 -45.5t-83 -16.5q-45 0 -84 16.5t-68 45.5t-46 68.5t-17 84.5t16.5 84t45.5 68.5t68.5 46t84.5 16.5zM325 1310q-39 0 -65 -26t-26 -64q0 -39 26 -65t65 -26q37 0 63.5 26t26.5 65
q0 38 -26.5 64t-63.5 26z" />
    <glyph glyph-name="plusminus" unicode="&#xb1;" horiz-adv-x="994"
d="M340 345q-14 0 -24 9t-10 23v208h-199q-8 0 -19 7.5t-11 24.5v226q0 14 9 23.5t23 9.5h197v210q0 15 8.5 23t22.5 8h249q15 0 23.5 -9.5t8.5 -23.5v-208h201q30 0 30 -31v-228q0 -15 -9.5 -23.5t-22.5 -8.5h-199v-210q0 -8 -7.5 -19t-24.5 -11h-246zM131 0
q-20 0 -32 10.5t-12 32.5v170q0 17 5 27t12.5 15t14.5 6t12 1h666q18 0 31 -11t13 -32v-172q0 -17 -10.5 -32t-33.5 -15h-666z" />
    <glyph glyph-name="twosuperior" unicode="&#xb2;" horiz-adv-x="710"
d="M195 1232q-5 -11 -12.5 -13.5t-13.5 -2.5q-7 0 -15.5 3t-14.5 5l-92 33q-14 5 -17 12.5t-3 15.5q0 12 6 21l-1 -1q15 43 42 79.5t62 62.5t76.5 41t87.5 15q52 0 101.5 -20t89 -56t64.5 -85.5t28 -107.5q0 -44 -9.5 -76.5t-37 -70.5t-77.5 -90.5l-130 -136.5h234
q13 0 21.5 -7.5t8.5 -22.5v-127q0 -13 -8.5 -23t-22.5 -10h-502q-13 0 -23 9.5t-10 23.5v81q0 8 3 17l333 364q19 21 19 42q0 20 -6.5 38.5t-18.5 33t-29 23t-39 8.5q-35 0 -60.5 -23.5t-33.5 -55.5v1z" />
    <glyph glyph-name="threesuperior" unicode="&#xb3;" horiz-adv-x="658"
d="M315 841q38 0 67 21.5t29 67.5q0 38 -26.5 64t-76.5 26q-12 0 -20 5.5t-8 19.5v122q0 14 8 21t21 7q16 0 28 6.5t19.5 16t11 20t3.5 17.5q0 10 -3 21.5t-10.5 21t-19 15.5t-28.5 6q-24 0 -40 -11t-28 -23.5t-20.5 -23.5t-17.5 -11q-8 0 -16 4.5t-17 10.5l-79 52
q-9 6 -12 11.5t-3 10.5q0 16 10 26v-1q19 28 43.5 52.5t54.5 42.5t64 28.5t71 10.5q44 0 86 -18t75 -48.5t53 -72t20 -89.5q0 -42 -18 -76.5t-42 -60.5q25 -18 47.5 -36.5t40 -42.5t27.5 -54.5t10 -72.5q0 -57 -22.5 -106.5t-62 -85.5t-92 -56.5t-112.5 -20.5
q-114 0 -190.5 53.5t-105.5 143.5l1 -1q-6 10 -6 21q0 8 4 15t16 12l105 36l12 4t13 2q6 -1 12 -2.5t11 -10.5q27 -47 53.5 -68.5t59.5 -21.5z" />
    <glyph glyph-name="acute" unicode="&#xb4;" horiz-adv-x="526"
d="M377 1220q-7 -15 -13 -24t-12.5 -13.5t-15.5 -6t-21 -1.5h-201q-14 0 -27 11t-5 39l76 222q9 25 22.5 35t39.5 10h227q19 0 27.5 -17t0.5 -37z" />
    <glyph glyph-name="mu" unicode="&#xb5;" horiz-adv-x="1342"
d="M477 952q5 -4 7 -10t2 -12v-485q3 -30 21 -54.5t44.5 -42t56.5 -27.5t56 -10q30 0 58 11t50 30t35.5 45t13.5 57v477q0 25 12 37t39 12h251q21 0 35.5 -13.5t14.5 -37.5v-434q0 -44 -3 -86q-7 -89 -45.5 -166.5t-101.5 -134.5t-146 -89.5t-179 -32.5q-37 0 -68 10.5
t-57.5 27t-47.5 36t-39 36.5v-439q0 -20 -10 -30t-24.5 -15t-30.5 -5.5t-28 -0.5h-208q-27 0 -40 14.5t-13 37.5v1271q0 24 13.5 37.5t43.5 13.5h206h25t26.5 -2.5t21 -8t9.5 -17.5z" />
    <glyph glyph-name="paragraph" unicode="&#xb6;" horiz-adv-x="1526"
d="M1342 1483q18 0 28.5 -7.5t15.5 -18t6.5 -22.5t1.5 -20v-97q0 -24 -4 -37.5t-11 -20.5t-17.5 -9t-22.5 -2h-140v-1177q0 -36 -6 -67q-15 -2 -31.5 -3.5t-34.5 -1.5h-101q-17 0 -33.5 1.5t-31.5 3.5q-3 16 -4 32.5t-1 34.5v1177h-216v-1177q0 -18 -1 -34.5t-4 -32.5
q-15 -2 -32 -3.5t-34 -1.5h-101q-17 0 -33.5 1.5t-31.5 3.5q-3 15 -4 31t-1 34v601q-86 0 -163 31.5t-134.5 86t-91 128.5t-33.5 158t32 158.5t87 130t128.5 87.5t157.5 32h861z" />
    <glyph glyph-name="periodcentered" unicode="&#xb7;" horiz-adv-x="596"
d="M102 565q0 37 14.5 70.5t39 58t57.5 39t70 14.5q39 0 72.5 -14.5t57.5 -39t38 -58t14 -70.5t-14 -70t-38 -57.5t-57.5 -39t-72.5 -14.5q-37 0 -70 14.5t-57.5 39t-39 57.5t-14.5 70z" />
    <glyph glyph-name="cedilla" unicode="&#xb8;" horiz-adv-x="556"
d="M344 0q-22 -15 -22 -35q0 -16 15.5 -30t38 -28t49.5 -30.5t49.5 -38t38 -49t15.5 -64.5q0 -36 -24.5 -77t-69 -81t-106.5 -74.5t-138 -57.5h-5q-15 0 -33 22t-34 50t-27 54.5t-11 35.5q0 16 11 22q171 43 171 106q0 22 -15 39t-37.5 32.5t-48.5 31t-48.5 33.5t-37.5 40
t-15 51q0 11 3 22.5t17 25.5h264z" />
    <glyph glyph-name="onesuperior" unicode="&#xb9;" horiz-adv-x="412"
d="M31 1403q0 22 33 42l90 37q16 5 26.5 6.5t33.5 2.5h102q13 0 21.5 -7.5t8.5 -20.5v-764q0 -29 -30 -29h-155q-17 0 -23 9t-6 19v573l-60 -23q-9 -3 -16 -3q-14 0 -19.5 8t-5.5 22v128z" />
    <glyph glyph-name="ordmasculine" unicode="&#xba;" horiz-adv-x="1022"
d="M102 1105q0 82 31 154.5t85 126.5t126 85.5t154 31.5t154.5 -31.5t126.5 -85.5t85 -126.5t31 -154.5t-31 -154t-85 -126t-126.5 -85t-154.5 -31t-154 31t-126 85t-85 126t-31 154zM352 1104q0 -30 11.5 -56.5t31 -46t45.5 -31t56 -11.5t56.5 11.5t46 31t31 46t11.5 56.5
t-11 56.5t-30.5 46t-46 31t-57.5 11.5q-30 0 -56 -11.5t-45.5 -31t-31 -46t-11.5 -56.5z" />
    <glyph glyph-name="guillemotright" unicode="&#xbb;" horiz-adv-x="1474"
d="M1410 582q15 -15 15 -31q0 -14 -15 -29l-523 -525q-12 -14 -30 -14q-15 0 -29 14l-147 143q-15 15 -15 36q0 18 12 30l344 346l-344 345q-7 8 -9 16t-3 15q2 17 14 31l144 144q12 13 33 13q20 0 29 -11zM766 582q15 -15 15 -31q0 -14 -15 -29l-523 -525q-12 -14 -30 -14
q-15 0 -29 14l-147 143q-15 15 -15 36q0 18 12 30l344 346l-344 345q-7 8 -9 16t-3 15q2 17 14 31l144 144q12 13 33 13q20 0 29 -11z" />
    <glyph glyph-name="onequarter" unicode="&#xbc;" horiz-adv-x="1484"
d="M756 134q-19 0 -27 10.5t-8 24.5q0 8 2.5 19t7.5 18q44 72 91 149.5t94.5 155.5t95 155.5t91.5 150.5v-1q6 11 13.5 14t25.5 3h121q10 -1 20.5 -9t10.5 -19v-473h61q13 0 22 -7.5t9 -22.5v-137q0 -12 -8.5 -21t-22.5 -9h-61v-94q0 -29 -32 -29h-137q-28 0 -28 29v93h-341
zM1104 330v166l-96 -166h96zM85 1403q0 22 33 42l90 37q16 5 26.5 6.5t33.5 2.5h102q13 0 21.5 -7.5t8.5 -20.5v-764q0 -29 -30 -29h-155q-17 0 -23 9t-6 19v573l-60 -23q-9 -3 -16 -3q-14 0 -19.5 8t-5.5 22v128zM960 1441q8 18 23.5 31t40.5 13h129q20 0 35 -8t15 -23
q0 -11 -2 -13l-763 -1397q-12 -25 -21.5 -34.5t-31.5 -9.5h-151q-42 0 -42 25q0 1 1 5t3 14z" />
    <glyph glyph-name="onehalf" unicode="&#xbd;" horiz-adv-x="1484"
d="M960 1441q8 18 23.5 31t40.5 13h129q20 0 35 -8t15 -23q0 -11 -2 -13l-763 -1397q-12 -25 -21.5 -34.5t-31.5 -9.5h-151q-42 0 -42 25q0 1 1 5t3 14zM85 1403q0 22 33 42l90 37q16 5 26.5 6.5t33.5 2.5h102q13 0 21.5 -7.5t8.5 -20.5v-764q0 -29 -30 -29h-155
q-17 0 -23 9t-6 19v573l-60 -23q-9 -3 -16 -3q-14 0 -19.5 8t-5.5 22v128zM1047 563q-5 -11 -12.5 -13.5t-13.5 -2.5q-7 0 -15.5 3t-14.5 5l-92 33q-14 5 -17 12.5t-3 15.5q0 12 6 21l-1 -1q15 43 42 79.5t62 62.5t76.5 41t87.5 15q52 0 101.5 -20t89 -56t64.5 -85.5
t28 -107.5q0 -44 -9.5 -76.5t-37 -70.5t-77.5 -90.5l-130 -136.5h234q13 0 21.5 -7.5t8.5 -22.5v-127q0 -13 -8.5 -23t-22.5 -10h-502q-13 0 -23 9.5t-10 23.5v81q0 8 3 17l333 364q19 21 19 42q0 20 -6.5 38.5t-18.5 33t-29 23t-39 8.5q-35 0 -60.5 -23.5t-33.5 -55.5v1z
" />
    <glyph glyph-name="threequarters" unicode="&#xbe;" horiz-adv-x="1532"
d="M1072 1441q8 18 23.5 31t40.5 13h129q20 0 35 -8t15 -23q0 -11 -2 -13l-763 -1397q-12 -25 -21.5 -34.5t-31.5 -9.5h-151q-42 0 -42 25q0 1 1 5t3 14zM299 863q38 0 67 21.5t29 67.5q0 38 -26.5 64t-76.5 26q-12 0 -20 5.5t-8 19.5v122q0 14 8 21t21 7q16 0 28 6.5
t19.5 16t11 20t3.5 17.5q0 10 -3 21.5t-10.5 21t-19 15.5t-28.5 6q-24 0 -40 -11t-28 -23.5t-20.5 -23.5t-17.5 -11q-8 0 -16 4.5t-17 10.5l-79 52q-9 6 -12 11.5t-3 10.5q0 16 10 26v-1q19 28 43.5 52.5t54.5 42.5t64 28.5t71 10.5q44 0 86 -18t75 -48.5t53 -72t20 -89.5
q0 -42 -18 -76.5t-42 -60.5q25 -18 47.5 -36.5t40 -42.5t27.5 -54.5t10 -72.5q0 -57 -22.5 -106.5t-62 -85.5t-92 -56.5t-112.5 -20.5q-114 0 -190.5 53.5t-105.5 143.5l1 -1q-6 10 -6 21q0 8 4 15t16 12l105 36l12 4t13 2q6 -1 12 -2.5t11 -10.5q27 -47 53.5 -68.5
t59.5 -21.5zM838 136q-19 0 -27 10.5t-8 24.5q0 8 2.5 19t7.5 18q44 72 91 149.5t94.5 155.5t95 155.5t91.5 150.5v-1q6 11 13.5 14t25.5 3h121q10 -1 20.5 -9t10.5 -19v-473h61q13 0 22 -7.5t9 -22.5v-137q0 -12 -8.5 -21t-22.5 -9h-61v-94q0 -29 -32 -29h-137
q-28 0 -28 29v93h-341zM1186 332v166l-96 -166h96z" />
    <glyph glyph-name="questiondown" unicode="&#xbf;" horiz-adv-x="1122"
d="M742 399q0 -61 -26 -106.5t-65 -83.5t-85 -71t-85 -68.5t-65 -76.5t-26 -94q0 -32 14 -62t37.5 -53t54.5 -36.5t66 -13.5q34 0 65 14t55 38t38 55t14 64v18q0 23 13 31t33 8h248q25 0 32.5 -13.5t7.5 -27.5v-33q0 -105 -41.5 -192.5t-111.5 -150.5t-161 -98t-191 -35
q-103 0 -194 37t-159.5 102.5t-108 155t-39.5 194.5q0 93 23 155t57.5 105t75 71.5t76.5 54t62 53t31 68.5v81q0 51 55 51h250q50 0 50 -51v-90zM750 835q0 -38 -14.5 -71t-39 -57.5t-57.5 -39t-70 -14.5q-39 0 -72.5 14.5t-57.5 39t-38 57.5t-14 71q0 37 14 70t38 57.5
t57.5 39t72.5 14.5q37 0 70 -14.5t57.5 -39t39 -57.5t14.5 -70z" />
    <glyph glyph-name="Agrave" unicode="&#xc0;" horiz-adv-x="1530"
d="M586 1441q18 44 62 44h245q43 0 60 -44l546 -1397q17 -44 -28 -44h-298q-44 0 -59 44l-70 196h-546l-68 -196q-15 -44 -60 -44h-298q-46 0 -28 44zM610 561h319l-161 455zM484 1935q-8 20 0.5 37t27.5 17h227q26 0 39.5 -10t22.5 -35l76 -222q8 -28 -5 -39t-27 -11h-202
q-24 0 -36 7t-25 38z" />
    <glyph glyph-name="Aacute" unicode="&#xc1;" horiz-adv-x="1530"
d="M586 1441q18 44 62 44h245q43 0 60 -44l546 -1397q17 -44 -28 -44h-298q-44 0 -59 44l-70 196h-546l-68 -196q-15 -44 -60 -44h-298q-46 0 -28 44zM610 561h319l-161 455zM957 1724q-7 -15 -13 -24t-12.5 -13.5t-15.5 -6t-21 -1.5h-201q-14 0 -27 11t-5 39l76 222
q9 25 22.5 35t39.5 10h227q19 0 27.5 -17t0.5 -37z" />
    <glyph glyph-name="Acircumflex" unicode="&#xc2;" horiz-adv-x="1530"
d="M586 1441q18 44 62 44h245q43 0 60 -44l546 -1397q17 -44 -28 -44h-298q-44 0 -59 44l-70 196h-546l-68 -196q-15 -44 -60 -44h-298q-46 0 -28 44zM610 561h319l-161 455zM1039 1829q14 -14 15.5 -30t-15.5 -32l-82 -78q-15 -15 -31 -14.5t-30 14.5l-129 128l-126 -130
q-14 -14 -30 -14.5t-32 14.5l-83 80q-17 16 -15.5 32t15.5 30l242 241q5 5 13 10t19 5q12 0 17.5 -3.5t13.5 -11.5z" />
    <glyph glyph-name="Atilde" unicode="&#xc3;" horiz-adv-x="1530"
d="M586 1441q18 44 62 44h245q43 0 60 -44l546 -1397q17 -44 -28 -44h-298q-44 0 -59 44l-70 196h-546l-68 -196q-15 -44 -60 -44h-298q-46 0 -28 44zM610 561h319l-161 455zM547 1693q-9 -11 -18.5 -11t-19 5.5t-18.5 13.5t-15 14l-63 62q-15 13 -21 21t-5.5 15.5t7.5 17
t19 26.5q41 60 99 94t124 34q38 -1 75 -17t70 -34.5t61.5 -34t48.5 -15.5q26 0 41.5 13.5t35.5 38.5q19 24 38 23t35 -18l91 -92q13 -13 12 -24.5t-6 -17.5q-45 -69 -107.5 -107.5t-137.5 -38.5q-40 0 -75 15.5t-66.5 34.5t-60 34.5t-53.5 15.5q-19 0 -32 -7t-23.5 -17
t-18.5 -22t-17 -22z" />
    <glyph glyph-name="Adieresis" unicode="&#xc4;" horiz-adv-x="1530"
d="M586 1441q18 44 62 44h245q43 0 60 -44l546 -1397q17 -44 -28 -44h-298q-44 0 -59 44l-70 196h-546l-68 -196q-15 -44 -60 -44h-298q-46 0 -28 44zM610 561h319l-161 455zM386 1772q0 33 12.5 61.5t34 50t50 34t60.5 12.5q34 0 63 -12.5t50 -34t33 -50t12 -61.5
q0 -32 -12 -60.5t-33 -50t-50 -34t-63 -12.5q-32 0 -60.5 12.5t-50 34t-34 50t-12.5 60.5zM826 1774q0 33 12.5 62t33.5 50.5t49.5 34t60.5 12.5q34 0 63 -12.5t50.5 -34t33.5 -50.5t12 -62q0 -32 -12 -60.5t-33.5 -49.5t-50.5 -33.5t-63 -12.5q-32 0 -60.5 12.5t-49.5 33.5
t-33.5 49.5t-12.5 60.5z" />
    <glyph glyph-name="Aring" unicode="&#xc5;" horiz-adv-x="1530"
d="M586 1441q18 44 62 44h245q43 0 60 -44l546 -1397q17 -44 -28 -44h-298q-44 0 -59 44l-70 196h-546l-68 -196q-15 -44 -60 -44h-298q-46 0 -28 44zM610 561h319l-161 455zM763 2026q43 0 81.5 -16.5t67.5 -45.5t45.5 -67.5t16.5 -81.5q0 -44 -16.5 -82t-45.5 -66.5
t-67.5 -44.5t-81.5 -16q-44 0 -82 16t-66.5 44.5t-44.5 66.5t-16 82q0 43 16 81.5t44.5 67.5t66.5 45.5t82 16.5zM764 1876q-26 0 -42 -17t-16 -43t16 -42t42 -16t43 16t17 42t-17 43t-43 17z" />
    <glyph glyph-name="AE" unicode="&#xc6;" horiz-adv-x="2229"
d="M1075 249h-461l-140 -205q-17 -26 -27.5 -35t-32.5 -9h-348q-23 0 -28.5 14.5t7.5 32.5l991 1394q17 24 28 33.5t31 10.5h977q44 0 44 -44v-257q0 -43 -44 -43h-610v-237h4h449q23 0 36 -11t13 -35v-206q0 -44 -49 -44h-449h-4v-265h629q45 0 45 -44v-255q0 -44 -45 -44
h-972q-44 0 -44 44v205zM1075 580v343l-234 -343h234z" />
    <glyph glyph-name="Ccedilla" unicode="&#xc7;" horiz-adv-x="1408"
d="M1079 419q21 15 39 17.5t32 -17.5l164 -241q16 -20 12.5 -34.5t-26.5 -29.5q-40 -28 -86.5 -53t-100.5 -43.5t-114.5 -29t-128.5 -10.5q-106 0 -204 27.5t-183.5 77.5t-155.5 120t-120 155.5t-77.5 183.5t-27.5 204t27.5 203.5t77.5 182.5t120 154t155.5 118.5
t183.5 76.5t204 27q68 0 129 -11t115 -29.5t101.5 -44t88.5 -54.5q16 -11 18.5 -26.5t-4.5 -26.5l-174 -249q-11 -16 -28.5 -15t-33.5 14q-49 39 -99 57t-113 18q-83 0 -154 -30.5t-123 -84t-81 -125.5t-29 -155t29 -156t81 -127t123 -85t154 -31q63 0 116 22t93 50zM976 0
q-22 -15 -22 -35q0 -16 15.5 -30t38 -28t49.5 -30.5t49.5 -38t38 -49t15.5 -64.5q0 -36 -24.5 -77t-69 -81t-106.5 -74.5t-138 -57.5h-5q-15 0 -33 22t-34 50t-27 54.5t-11 35.5q0 16 11 22q171 43 171 106q0 22 -15 39t-37.5 32.5t-48.5 31t-48.5 33.5t-37.5 40t-15 51
q0 11 3 22.5t17 25.5h264z" />
    <glyph glyph-name="Egrave" unicode="&#xc8;" horiz-adv-x="1350"
d="M160 1441q0 44 44 44h995q44 0 44 -44v-257q0 -43 -44 -43h-652v-247h495q23 0 36 -11.5t13 -34.5v-206q0 -44 -49 -44h-495v-255h671q44 0 44 -44v-255q0 -44 -44 -44h-1014q-44 0 -44 44v1397zM467 1935q-8 20 0.5 37t27.5 17h227q26 0 39.5 -10t22.5 -35l76 -222
q8 -28 -5 -39t-27 -11h-202q-24 0 -36 7t-25 38z" />
    <glyph glyph-name="Eacute" unicode="&#xc9;" horiz-adv-x="1350"
d="M160 1441q0 44 44 44h995q44 0 44 -44v-257q0 -43 -44 -43h-652v-247h495q23 0 36 -11.5t13 -34.5v-206q0 -44 -49 -44h-495v-255h671q44 0 44 -44v-255q0 -44 -44 -44h-1014q-44 0 -44 44v1397zM920 1724q-7 -15 -13 -24t-12.5 -13.5t-15.5 -6t-21 -1.5h-201
q-14 0 -27 11t-5 39l76 222q9 25 22.5 35t39.5 10h227q19 0 27.5 -17t0.5 -37z" />
    <glyph glyph-name="Ecircumflex" unicode="&#xca;" horiz-adv-x="1350"
d="M160 1441q0 44 44 44h995q44 0 44 -44v-257q0 -43 -44 -43h-652v-247h495q23 0 36 -11.5t13 -34.5v-206q0 -44 -49 -44h-495v-255h671q44 0 44 -44v-255q0 -44 -44 -44h-1014q-44 0 -44 44v1397zM965 1829q14 -14 15.5 -30t-15.5 -32l-82 -78q-15 -15 -31 -14.5t-30 14.5
l-129 128l-126 -130q-14 -14 -30 -14.5t-32 14.5l-83 80q-17 16 -15.5 32t15.5 30l242 241q5 5 13 10t19 5q12 0 17.5 -3.5t13.5 -11.5z" />
    <glyph glyph-name="Edieresis" unicode="&#xcb;" horiz-adv-x="1350"
d="M160 1441q0 44 44 44h995q44 0 44 -44v-257q0 -43 -44 -43h-652v-247h495q23 0 36 -11.5t13 -34.5v-206q0 -44 -49 -44h-495v-255h671q44 0 44 -44v-255q0 -44 -44 -44h-1014q-44 0 -44 44v1397zM310 1772q0 33 12.5 61.5t34 50t50 34t60.5 12.5q34 0 63 -12.5t50 -34
t33 -50t12 -61.5q0 -32 -12 -60.5t-33 -50t-50 -34t-63 -12.5q-32 0 -60.5 12.5t-50 34t-34 50t-12.5 60.5zM750 1774q0 33 12.5 62t33.5 50.5t49.5 34t60.5 12.5q34 0 63 -12.5t50.5 -34t33.5 -50.5t12 -62q0 -32 -12 -60.5t-33.5 -49.5t-50.5 -33.5t-63 -12.5
q-32 0 -60.5 12.5t-49.5 33.5t-33.5 49.5t-12.5 60.5z" />
    <glyph glyph-name="Igrave" unicode="&#xcc;" horiz-adv-x="708"
d="M169 1441q0 44 43 44h299q44 0 44 -44v-1397q0 -44 -44 -44h-299q-43 0 -43 44v1397zM110 1935q-8 20 0.5 37t27.5 17h227q26 0 39.5 -10t22.5 -35l76 -222q8 -28 -5 -39t-27 -11h-202q-24 0 -36 7t-25 38z" />
    <glyph glyph-name="Iacute" unicode="&#xcd;" horiz-adv-x="708"
d="M168 1441q0 44 43 44h299q44 0 44 -44v-1397q0 -44 -44 -44h-299q-43 0 -43 44v1397zM515 1724q-7 -15 -13 -24t-12.5 -13.5t-15.5 -6t-21 -1.5h-201q-14 0 -27 11t-5 39l76 222q9 25 22.5 35t39.5 10h227q19 0 27.5 -17t0.5 -37z" />
    <glyph glyph-name="Icircumflex" unicode="&#xce;" horiz-adv-x="708"
d="M167 1441q0 44 43 44h299q44 0 44 -44v-1397q0 -44 -44 -44h-299q-43 0 -43 44v1397zM627 1829q14 -14 15.5 -30t-15.5 -32l-82 -78q-15 -15 -31 -14.5t-30 14.5l-129 128l-126 -130q-14 -14 -30 -14.5t-32 14.5l-83 80q-17 16 -15.5 32t15.5 30l242 241q5 5 13 10t19 5
q12 0 17.5 -3.5t13.5 -11.5z" />
    <glyph glyph-name="Idieresis" unicode="&#xcf;" horiz-adv-x="712"
d="M169 1441q0 44 43 44h299q44 0 44 -44v-1397q0 -44 -44 -44h-299q-43 0 -43 44v1397zM-21 1773q0 33 12.5 61.5t34 50t50 34t60.5 12.5q34 0 63 -12.5t50 -34t33 -50t12 -61.5q0 -32 -12 -60.5t-33 -50t-50 -34t-63 -12.5q-32 0 -60.5 12.5t-50 34t-34 50t-12.5 60.5z
M419 1775q0 33 12.5 62t33.5 50.5t49.5 34t60.5 12.5q34 0 63 -12.5t50.5 -34t33.5 -50.5t12 -62q0 -32 -12 -60.5t-33.5 -49.5t-50.5 -33.5t-63 -12.5q-32 0 -60.5 12.5t-49.5 33.5t-33.5 49.5t-12.5 60.5z" />
    <glyph glyph-name="Eth" unicode="&#xd0;" horiz-adv-x="1546"
d="M163 1441q0 44 43 44h519q94 0 185 -26.5t173.5 -74.5t152.5 -116t121 -150.5t80 -177.5t29 -198q0 -97 -26.5 -190t-74.5 -175.5t-115.5 -151.5t-150 -119t-177 -78t-197.5 -28h-519q-43 0 -43 44v1397zM1078 742q0 81 -29.5 151.5t-81.5 123.5t-123.5 83.5t-154.5 30.5
h-140v-777h140q83 0 154.5 30.5t123.5 83t81.5 123.5t29.5 151zM32.4395 821.547q0 39.6738 38.2852 39.6738h593.42q15.6621 0 26.9736 -10.3691t11.3115 -29.3047v-183.039q0 -13.5254 -10.4414 -28.4023q-10.4414 -14.8779 -27.8438 -14.8779h-593.42
q-38.2852 0 -38.2852 43.2803v183.039z" />
    <glyph glyph-name="Ntilde" unicode="&#xd1;" horiz-adv-x="1645"
d="M535 909v-865q0 -44 -49 -44h-279q-43 0 -43 44v1397q0 18 10.5 31t32.5 13h324q43 0 71 -44l501 -811v811q0 18 11 31t34 13h278q16 0 32.5 -12t16.5 -32v-1397q0 -44 -49 -44h-293q-45 0 -72 44zM605 1693q-9 -11 -18.5 -11t-19 5.5t-18.5 13.5t-15 14l-63 62
q-15 13 -21 21t-5.5 15.5t7.5 17t19 26.5q41 60 99 94t124 34q38 -1 75 -17t70 -34.5t61.5 -34t48.5 -15.5q26 0 41.5 13.5t35.5 38.5q19 24 38 23t35 -18l91 -92q13 -13 12 -24.5t-6 -17.5q-45 -69 -107.5 -107.5t-137.5 -38.5q-40 0 -75 15.5t-66.5 34.5t-60 34.5
t-53.5 15.5q-19 0 -32 -7t-23.5 -17t-18.5 -22t-17 -22z" />
    <glyph glyph-name="Ograve" unicode="&#xd2;" horiz-adv-x="1704"
d="M478 742q0 -83 28 -155t78.5 -125.5t119.5 -84t152 -30.5t152.5 30.5t120 84t78.5 125.5t28 155q0 82 -28 154.5t-78.5 126.5t-120 85t-152.5 31t-152 -31t-119.5 -85t-78.5 -126.5t-28 -154.5zM92 741q0 106 27 203.5t77 183t119.5 155.5t154.5 119.5t182.5 77
t203.5 27.5q105 0 203 -27.5t183 -77t155 -119.5t119.5 -155.5t77 -183t27.5 -203.5t-27.5 -203.5t-77 -182t-119.5 -154t-155 -119.5t-183 -77t-203 -27q-106 0 -203.5 27t-182.5 77t-154.5 119.5t-119.5 154t-77 182t-27 203.5zM558 1935q-8 20 0.5 37t27.5 17h227
q26 0 39.5 -10t22.5 -35l76 -222q8 -28 -5 -39t-27 -11h-202q-24 0 -36 7t-25 38z" />
    <glyph glyph-name="Oacute" unicode="&#xd3;" horiz-adv-x="1704"
d="M478 742q0 -83 28 -155t78.5 -125.5t119.5 -84t152 -30.5t152.5 30.5t120 84t78.5 125.5t28 155q0 82 -28 154.5t-78.5 126.5t-120 85t-152.5 31t-152 -31t-119.5 -85t-78.5 -126.5t-28 -154.5zM92 741q0 106 27 203.5t77 183t119.5 155.5t154.5 119.5t182.5 77
t203.5 27.5q105 0 203 -27.5t183 -77t155 -119.5t119.5 -155.5t77 -183t27.5 -203.5t-27.5 -203.5t-77 -182t-119.5 -154t-155 -119.5t-183 -77t-203 -27q-106 0 -203.5 27t-182.5 77t-154.5 119.5t-119.5 154t-77 182t-27 203.5zM978 1724q-7 -15 -13 -24t-12.5 -13.5
t-15.5 -6t-21 -1.5h-201q-14 0 -27 11t-5 39l76 222q9 25 22.5 35t39.5 10h227q19 0 27.5 -17t0.5 -37z" />
    <glyph glyph-name="Ocircumflex" unicode="&#xd4;" horiz-adv-x="1704"
d="M478 742q0 -83 28 -155t78.5 -125.5t119.5 -84t152 -30.5t152.5 30.5t120 84t78.5 125.5t28 155q0 82 -28 154.5t-78.5 126.5t-120 85t-152.5 31t-152 -31t-119.5 -85t-78.5 -126.5t-28 -154.5zM92 741q0 106 27 203.5t77 183t119.5 155.5t154.5 119.5t182.5 77
t203.5 27.5q105 0 203 -27.5t183 -77t155 -119.5t119.5 -155.5t77 -183t27.5 -203.5t-27.5 -203.5t-77 -182t-119.5 -154t-155 -119.5t-183 -77t-203 -27q-106 0 -203.5 27t-182.5 77t-154.5 119.5t-119.5 154t-77 182t-27 203.5zM1151 1829q14 -14 15.5 -30t-15.5 -32
l-82 -78q-15 -15 -31 -14.5t-30 14.5l-129 128l-126 -130q-14 -14 -30 -14.5t-32 14.5l-83 80q-17 16 -15.5 32t15.5 30l242 241q5 5 13 10t19 5q12 0 17.5 -3.5t13.5 -11.5z" />
    <glyph glyph-name="Otilde" unicode="&#xd5;" horiz-adv-x="1704"
d="M478 742q0 -83 28 -155t78.5 -125.5t119.5 -84t152 -30.5t152.5 30.5t120 84t78.5 125.5t28 155q0 82 -28 154.5t-78.5 126.5t-120 85t-152.5 31t-152 -31t-119.5 -85t-78.5 -126.5t-28 -154.5zM92 741q0 106 27 203.5t77 183t119.5 155.5t154.5 119.5t182.5 77
t203.5 27.5q105 0 203 -27.5t183 -77t155 -119.5t119.5 -155.5t77 -183t27.5 -203.5t-27.5 -203.5t-77 -182t-119.5 -154t-155 -119.5t-183 -77t-203 -27q-106 0 -203.5 27t-182.5 77t-154.5 119.5t-119.5 154t-77 182t-27 203.5zM647 1693q-9 -11 -18.5 -11t-19 5.5
t-18.5 13.5t-15 14l-63 62q-15 13 -21 21t-5.5 15.5t7.5 17t19 26.5q41 60 99 94t124 34q38 -1 75 -17t70 -34.5t61.5 -34t48.5 -15.5q26 0 41.5 13.5t35.5 38.5q19 24 38 23t35 -18l91 -92q13 -13 12 -24.5t-6 -17.5q-45 -69 -107.5 -107.5t-137.5 -38.5q-40 0 -75 15.5
t-66.5 34.5t-60 34.5t-53.5 15.5q-19 0 -32 -7t-23.5 -17t-18.5 -22t-17 -22z" />
    <glyph glyph-name="Odieresis" unicode="&#xd6;" horiz-adv-x="1704"
d="M478 742q0 -83 28 -155t78.5 -125.5t119.5 -84t152 -30.5t152.5 30.5t120 84t78.5 125.5t28 155q0 82 -28 154.5t-78.5 126.5t-120 85t-152.5 31t-152 -31t-119.5 -85t-78.5 -126.5t-28 -154.5zM92 741q0 106 27 203.5t77 183t119.5 155.5t154.5 119.5t182.5 77
t203.5 27.5q105 0 203 -27.5t183 -77t155 -119.5t119.5 -155.5t77 -183t27.5 -203.5t-27.5 -203.5t-77 -182t-119.5 -154t-155 -119.5t-183 -77t-203 -27q-106 0 -203.5 27t-182.5 77t-154.5 119.5t-119.5 154t-77 182t-27 203.5zM473 1773q0 33 12.5 61.5t34 50t50 34
t60.5 12.5q34 0 63 -12.5t50 -34t33 -50t12 -61.5q0 -32 -12 -60.5t-33 -50t-50 -34t-63 -12.5q-32 0 -60.5 12.5t-50 34t-34 50t-12.5 60.5zM913 1775q0 33 12.5 62t33.5 50.5t49.5 34t60.5 12.5q34 0 63 -12.5t50.5 -34t33.5 -50.5t12 -62q0 -32 -12 -60.5t-33.5 -49.5
t-50.5 -33.5t-63 -12.5q-32 0 -60.5 12.5t-49.5 33.5t-33.5 49.5t-12.5 60.5z" />
    <glyph glyph-name="multiply" unicode="&#xd7;" horiz-adv-x="900"
d="M101 403q-31 31 0 63l130 129l-137 136q-30 32 3 65l158 159q31 30 63 0l136 -137l129 130q13 13 30.5 14t32.5 -14l143 -144q10 -11 13 -31t-10 -34l-129 -129l137 -137q13 -13 14 -30t-14 -33l-159 -158q-5 -5 -13.5 -9t-17.5 -4.5t-18 1.5t-16 9l-137 137l-129 -129
q-32 -32 -65 3z" />
    <glyph glyph-name="Oslash" unicode="&#xd8;" horiz-adv-x="1704"
d="M92 743q0 106 27.5 203.5t77 182.5t119 154.5t154.5 119.5t182.5 77t203.5 27q34 0 67.5 -3t65.5 -8l34 77q12 24 29 37t42 13h330q24 0 32 -13t-3 -37l-107 -243q63 -53 114 -118t86.5 -139.5t55 -158t19.5 -171.5q0 -105 -27.5 -203t-77 -183t-119.5 -154.5t-155 -119
t-182.5 -77t-203.5 -27.5q-29 0 -57 2t-56 6l-33 -76q-22 -47 -71 -47h-332q-48 0 -27 47l102 233q-66 52 -120 118t-91.5 142.5t-58 161.5t-20.5 177zM476 743q0 -83 28.5 -155t79 -126t120 -85t152.5 -31t152.5 31t120 85t79 126t28.5 155t-28.5 155.5t-79 126t-120 84.5
t-152.5 31t-152.5 -31t-120 -84.5t-79 -126t-28.5 -155.5z" />
    <glyph glyph-name="Ugrave" unicode="&#xd9;" horiz-adv-x="1550"
d="M544 593q0 -74 20.5 -125.5t54 -84t78 -47.5t92.5 -15q50 0 94.5 17.5t78 52t53 85.5t19.5 117v848q0 18 12.5 31t33.5 13h292q23 0 36 -13.5t13 -30.5v-843q0 -175 -51.5 -294t-138.5 -191.5t-201.5 -104t-240.5 -31.5t-241 32.5t-202 106t-138.5 192t-51.5 290.5v843
q0 17 11.5 30.5t28.5 13.5h305q26 0 34.5 -12.5t8.5 -31.5v-848zM576 1935q-8 20 0.5 37t27.5 17h227q26 0 39.5 -10t22.5 -35l76 -222q8 -28 -5 -39t-27 -11h-202q-24 0 -36 7t-25 38z" />
    <glyph glyph-name="Uacute" unicode="&#xda;" horiz-adv-x="1550"
d="M544 593q0 -74 20.5 -125.5t54 -84t78 -47.5t92.5 -15q50 0 94.5 17.5t78 52t53 85.5t19.5 117v848q0 18 12.5 31t33.5 13h292q23 0 36 -13.5t13 -30.5v-843q0 -175 -51.5 -294t-138.5 -191.5t-201.5 -104t-240.5 -31.5t-241 32.5t-202 106t-138.5 192t-51.5 290.5v843
q0 17 11.5 30.5t28.5 13.5h305q26 0 34.5 -12.5t8.5 -31.5v-848zM912 1724q-7 -15 -13 -24t-12.5 -13.5t-15.5 -6t-21 -1.5h-201q-14 0 -27 11t-5 39l76 222q9 25 22.5 35t39.5 10h227q19 0 27.5 -17t0.5 -37z" />
    <glyph glyph-name="Ucircumflex" unicode="&#xdb;" horiz-adv-x="1550"
d="M544 593q0 -74 20.5 -125.5t54 -84t78 -47.5t92.5 -15q50 0 94.5 17.5t78 52t53 85.5t19.5 117v848q0 18 12.5 31t33.5 13h292q23 0 36 -13.5t13 -30.5v-843q0 -175 -51.5 -294t-138.5 -191.5t-201.5 -104t-240.5 -31.5t-241 32.5t-202 106t-138.5 192t-51.5 290.5v843
q0 17 11.5 30.5t28.5 13.5h305q26 0 34.5 -12.5t8.5 -31.5v-848zM1061 1829q14 -14 15.5 -30t-15.5 -32l-82 -78q-15 -15 -31 -14.5t-30 14.5l-129 128l-126 -130q-14 -14 -30 -14.5t-32 14.5l-83 80q-17 16 -15.5 32t15.5 30l242 241q5 5 13 10t19 5q12 0 17.5 -3.5
t13.5 -11.5z" />
    <glyph glyph-name="Udieresis" unicode="&#xdc;" horiz-adv-x="1550"
d="M544 593q0 -74 20.5 -125.5t54 -84t78 -47.5t92.5 -15q50 0 94.5 17.5t78 52t53 85.5t19.5 117v848q0 18 12.5 31t33.5 13h292q23 0 36 -13.5t13 -30.5v-843q0 -175 -51.5 -294t-138.5 -191.5t-201.5 -104t-240.5 -31.5t-241 32.5t-202 106t-138.5 192t-51.5 290.5v843
q0 17 11.5 30.5t28.5 13.5h305q26 0 34.5 -12.5t8.5 -31.5v-848zM418 1772q0 33 12.5 61.5t34 50t50 34t60.5 12.5q34 0 63 -12.5t50 -34t33 -50t12 -61.5q0 -32 -12 -60.5t-33 -50t-50 -34t-63 -12.5q-32 0 -60.5 12.5t-50 34t-34 50t-12.5 60.5zM858 1774q0 33 12.5 62
t33.5 50.5t49.5 34t60.5 12.5q34 0 63 -12.5t50.5 -34t33.5 -50.5t12 -62q0 -32 -12 -60.5t-33.5 -49.5t-50.5 -33.5t-63 -12.5q-32 0 -60.5 12.5t-49.5 33.5t-33.5 49.5t-12.5 60.5z" />
    <glyph glyph-name="Yacute" unicode="&#xdd;" horiz-adv-x="1410"
d="M507 605l-472 836q-11 20 -2.5 32t31.5 12h342q22 0 35.5 -10.5t24.5 -33.5l235 -501l233 501q11 23 24.5 33.5t35.5 10.5h347q22 0 30.5 -12t-2.5 -32l-475 -834v-563q0 -44 -44 -44h-299q-44 0 -44 44v561zM815 1724q-7 -15 -13 -24t-12.5 -13.5t-15.5 -6t-21 -1.5
h-201q-14 0 -27 11t-5 39l76 222q9 25 22.5 35t39.5 10h227q19 0 27.5 -17t0.5 -37z" />
    <glyph glyph-name="Thorn" unicode="&#xde;" horiz-adv-x="1302"
d="M160 1441q0 17 10.5 30.5t33.5 13.5h294q15 0 32 -12t17 -32v-220h297q69 0 130 -19t112 -52.5t92 -80t69.5 -100.5t43.5 -113.5t15 -120.5q0 -90 -32.5 -176.5t-92.5 -154t-144 -108.5t-186 -41h-303v-211q0 -44 -50 -44h-294q-44 0 -44 44v1397zM914 737q0 30 -10.5 60
t-30.5 53.5t-48.5 38.5t-64.5 15h-212v-334h212q36 0 65 14.5t48.5 37.5t30 53t10.5 62z" />
    <glyph glyph-name="germandbls" unicode="&#xdf;" horiz-adv-x="1169"
d="M625 -19q-11 0 -22 2t-19.5 7.5t-14 15.5t-5.5 27v217q0 28 16 41.5t36 13.5q33 0 66.5 9t59.5 29.5t42.5 53t16.5 79.5t-17 78.5t-44 50.5t-59.5 27t-63.5 8q-26 0 -39.5 10.5t-13.5 34.5v207q0 25 12 38t46 13q26 0 46 11t34 29t21 41t7 47q0 20 -7 40t-21.5 36.5
t-37 27t-53.5 10.5q-38 0 -61.5 -14t-37 -37.5t-19 -55t-6.5 -66.5t0.5 -71.5t1.5 -69.5v-1205q0 -27 -13.5 -39.5t-34.5 -12.5h-269q-29 0 -39 14.5t-10 41.5l1 1341q0 133 33 227.5t94.5 154.5t150.5 87.5t201 27.5q107 0 192 -37.5t144.5 -97t91 -133.5t31.5 -146
q0 -85 -20.5 -148.5t-56.5 -111.5q58 -39 97.5 -81.5t63.5 -89t34.5 -99t10.5 -110.5q0 -97 -35.5 -183t-106.5 -150.5t-177 -102t-247 -37.5z" />
    <glyph glyph-name="agrave" unicode="&#xe0;" horiz-adv-x="1263"
d="M1133 57q0 -29 -18.5 -43t-41.5 -14h-195q-17 0 -26.5 4.5t-16 12t-10.5 18.5t-9 24l-22 58q-14 -21 -30.5 -44.5t-41 -44t-59 -33.5t-83.5 -13h-11q-108 0 -197.5 38.5t-154.5 106t-101 160.5t-36 201q0 111 35.5 204t100 160.5t154.5 105.5t199 38q51 0 92.5 -14.5
t73 -38t53.5 -53.5t35 -61l30 93q7 21 11.5 32.5t10.5 17.5t15 7.5t25 1.5h158q24 0 42 -15.5t18 -41.5v-867zM435 485q0 -40 12 -74t34 -59t53.5 -39t69.5 -14q39 0 72.5 14t57.5 39t37.5 59t13.5 74q0 39 -13.5 73t-37.5 59.5t-57.5 40.5t-72.5 15q-38 0 -69.5 -15
t-53.5 -40.5t-34 -59.5t-12 -73zM356 1431q-8 20 0.5 37t27.5 17h227q26 0 39.5 -10t22.5 -35l76 -222q8 -28 -5 -39t-27 -11h-202q-24 0 -36 7t-25 38z" />
    <glyph glyph-name="aacute" unicode="&#xe1;" horiz-adv-x="1263"
d="M1133 57q0 -29 -18.5 -43t-41.5 -14h-195q-17 0 -26.5 4.5t-16 12t-10.5 18.5t-9 24l-22 58q-14 -21 -30.5 -44.5t-41 -44t-59 -33.5t-83.5 -13h-11q-108 0 -197.5 38.5t-154.5 106t-101 160.5t-36 201q0 111 35.5 204t100 160.5t154.5 105.5t199 38q51 0 92.5 -14.5
t73 -38t53.5 -53.5t35 -61l30 93q7 21 11.5 32.5t10.5 17.5t15 7.5t25 1.5h158q24 0 42 -15.5t18 -41.5v-867zM435 485q0 -40 12 -74t34 -59t53.5 -39t69.5 -14q39 0 72.5 14t57.5 39t37.5 59t13.5 74q0 39 -13.5 73t-37.5 59.5t-57.5 40.5t-72.5 15q-38 0 -69.5 -15
t-53.5 -40.5t-34 -59.5t-12 -73zM754 1220q-7 -15 -13 -24t-12.5 -13.5t-15.5 -6t-21 -1.5h-201q-14 0 -27 11t-5 39l76 222q9 25 22.5 35t39.5 10h227q19 0 27.5 -17t0.5 -37z" />
    <glyph glyph-name="acircumflex" unicode="&#xe2;" horiz-adv-x="1263"
d="M1133 57q0 -29 -18.5 -43t-41.5 -14h-195q-17 0 -26.5 4.5t-16 12t-10.5 18.5t-9 24l-22 58q-14 -21 -30.5 -44.5t-41 -44t-59 -33.5t-83.5 -13h-11q-108 0 -197.5 38.5t-154.5 106t-101 160.5t-36 201q0 111 35.5 204t100 160.5t154.5 105.5t199 38q51 0 92.5 -14.5
t73 -38t53.5 -53.5t35 -61l30 93q7 21 11.5 32.5t10.5 17.5t15 7.5t25 1.5h158q24 0 42 -15.5t18 -41.5v-867zM435 485q0 -40 12 -74t34 -59t53.5 -39t69.5 -14q39 0 72.5 14t57.5 39t37.5 59t13.5 74q0 39 -13.5 73t-37.5 59.5t-57.5 40.5t-72.5 15q-38 0 -69.5 -15
t-53.5 -40.5t-34 -59.5t-12 -73zM874 1325q14 -14 15.5 -30t-15.5 -32l-82 -78q-15 -15 -31 -14.5t-30 14.5l-129 128l-126 -130q-14 -14 -30 -14.5t-32 14.5l-83 80q-17 16 -15.5 32t15.5 30l242 241q5 5 13 10t19 5q12 0 17.5 -3.5t13.5 -11.5z" />
    <glyph glyph-name="atilde" unicode="&#xe3;" horiz-adv-x="1263"
d="M1133 57q0 -29 -18.5 -43t-41.5 -14h-195q-17 0 -26.5 4.5t-16 12t-10.5 18.5t-9 24l-22 58q-14 -21 -30.5 -44.5t-41 -44t-59 -33.5t-83.5 -13h-11q-108 0 -197.5 38.5t-154.5 106t-101 160.5t-36 201q0 111 35.5 204t100 160.5t154.5 105.5t199 38q51 0 92.5 -14.5
t73 -38t53.5 -53.5t35 -61l30 93q7 21 11.5 32.5t10.5 17.5t15 7.5t25 1.5h158q24 0 42 -15.5t18 -41.5v-867zM435 485q0 -40 12 -74t34 -59t53.5 -39t69.5 -14q39 0 72.5 14t57.5 39t37.5 59t13.5 74q0 39 -13.5 73t-37.5 59.5t-57.5 40.5t-72.5 15q-38 0 -69.5 -15
t-53.5 -40.5t-34 -59.5t-12 -73zM401 1189q-9 -11 -18.5 -11t-19 5.5t-18.5 13.5t-15 14l-63 62q-15 13 -21 21t-5.5 15.5t7.5 17t19 26.5q41 60 99 94t124 34q38 -1 75 -17t70 -34.5t61.5 -34t48.5 -15.5q26 0 41.5 13.5t35.5 38.5q19 24 38 23t35 -18l91 -92
q13 -13 12 -24.5t-6 -17.5q-45 -69 -107.5 -107.5t-137.5 -38.5q-40 0 -75 15.5t-66.5 34.5t-60 34.5t-53.5 15.5q-19 0 -32 -7t-23.5 -17t-18.5 -22t-17 -22z" />
    <glyph glyph-name="adieresis" unicode="&#xe4;" horiz-adv-x="1263"
d="M1133 57q0 -29 -18.5 -43t-41.5 -14h-195q-17 0 -26.5 4.5t-16 12t-10.5 18.5t-9 24l-22 58q-14 -21 -30.5 -44.5t-41 -44t-59 -33.5t-83.5 -13h-11q-108 0 -197.5 38.5t-154.5 106t-101 160.5t-36 201q0 111 35.5 204t100 160.5t154.5 105.5t199 38q51 0 92.5 -14.5
t73 -38t53.5 -53.5t35 -61l30 93q7 21 11.5 32.5t10.5 17.5t15 7.5t25 1.5h158q24 0 42 -15.5t18 -41.5v-867zM435 485q0 -40 12 -74t34 -59t53.5 -39t69.5 -14q39 0 72.5 14t57.5 39t37.5 59t13.5 74q0 39 -13.5 73t-37.5 59.5t-57.5 40.5t-72.5 15q-38 0 -69.5 -15
t-53.5 -40.5t-34 -59.5t-12 -73zM220 1268q0 33 12.5 61.5t34 50t50 34t60.5 12.5q34 0 63 -12.5t50 -34t33 -50t12 -61.5q0 -32 -12 -60.5t-33 -50t-50 -34t-63 -12.5q-32 0 -60.5 12.5t-50 34t-34 50t-12.5 60.5zM660 1270q0 33 12.5 62t33.5 50.5t49.5 34t60.5 12.5
q34 0 63 -12.5t50.5 -34t33.5 -50.5t12 -62q0 -32 -12 -60.5t-33.5 -49.5t-50.5 -33.5t-63 -12.5q-32 0 -60.5 12.5t-49.5 33.5t-33.5 49.5t-12.5 60.5z" />
    <glyph glyph-name="aring" unicode="&#xe5;" horiz-adv-x="1263"
d="M1133 57q0 -29 -18.5 -43t-41.5 -14h-195q-17 0 -26.5 4.5t-16 12t-10.5 18.5t-9 24l-22 58q-14 -21 -30.5 -44.5t-41 -44t-59 -33.5t-83.5 -13h-11q-108 0 -197.5 38.5t-154.5 106t-101 160.5t-36 201q0 111 35.5 204t100 160.5t154.5 105.5t199 38q51 0 92.5 -14.5
t73 -38t53.5 -53.5t35 -61l30 93q7 21 11.5 32.5t10.5 17.5t15 7.5t25 1.5h158q24 0 42 -15.5t18 -41.5v-867zM435 485q0 -40 12 -74t34 -59t53.5 -39t69.5 -14q39 0 72.5 14t57.5 39t37.5 59t13.5 74q0 39 -13.5 73t-37.5 59.5t-57.5 40.5t-72.5 15q-38 0 -69.5 -15
t-53.5 -40.5t-34 -59.5t-12 -73zM594 1522q43 0 81.5 -16.5t67.5 -45.5t45.5 -67.5t16.5 -81.5q0 -44 -16.5 -82t-45.5 -66.5t-67.5 -44.5t-81.5 -16q-44 0 -82 16t-66.5 44.5t-44.5 66.5t-16 82q0 43 16 81.5t44.5 67.5t66.5 45.5t82 16.5zM595 1372q-26 0 -42 -17t-16 -43
t16 -42t42 -16t43 16t17 42t-17 43t-43 17z" />
    <glyph glyph-name="ae" unicode="&#xe6;" horiz-adv-x="1872"
d="M1646 92q-66 -52 -146 -80t-168 -28q-62 0 -119 13.5t-109 38.5q-7 -18 -23 -27t-34 -9h-195q-17 0 -26.5 4.5t-16 12t-10.5 18.5t-9 24l-22 58q-15 -24 -34.5 -48t-45.5 -43t-59 -31t-75 -13h-11q-108 0 -197.5 40.5t-154.5 109.5t-101 161t-36 195t36.5 194.5
t101.5 160.5t154.5 109t196.5 40h11q52 0 91.5 -14.5t68.5 -38t49 -52.5t34 -58l30 93q8 20 13 31.5t10.5 17.5t14 8t24.5 2h158q19 0 34 -9.5t22 -26.5q47 23 98 35t108 12q98 0 186.5 -35.5t155 -98.5t105.5 -148.5t39 -185.5q0 -34 -7 -59t-24 -41t-46.5 -24t-74.5 -8
h-495q10 -34 30.5 -59.5t46 -43t53 -26t51.5 -8.5q40 0 80.5 11.5t66.5 27.5q22 10 32 19.5t24 9.5q8 0 15.5 -4.5t18.5 -16.5l20 -28q11 -15 26.5 -34t30 -37.5t25 -35t10.5 -26.5q0 -17 -10 -29t-22 -20zM409 485q0 -40 12 -74t34 -59t53.5 -39t69.5 -14q39 0 72.5 14
t57.5 39t37.5 59t13.5 74q0 39 -13.5 73t-37.5 59.5t-57.5 40.5t-72.5 15q-38 0 -69.5 -15t-53.5 -40.5t-34 -59.5t-12 -73zM1315 722q-27 0 -52 -9t-45.5 -24.5t-37 -35.5t-26.5 -42h335q-12 21 -28 41t-36.5 35.5t-47.5 25t-62 9.5z" />
    <glyph glyph-name="ccedilla" unicode="&#xe7;" horiz-adv-x="995"
d="M741 344q8 4 14.5 5t11.5 1q10 -1 18 -7t15.5 -15.5t14.5 -21.5t15 -24l86 -133q10 -15 10 -26q-1 -18 -12.5 -29.5t-24.5 -19.5q-66 -40 -140 -66t-157 -26q-104 0 -197 39.5t-163 107.5t-111 160.5t-41 198.5t41 200t111 163.5t163 110t197 40.5q83 0 153 -26.5
t133 -64.5q17 -11 28 -24t11 -36q0 -6 -1.5 -12.5t-6.5 -11.5l-98 -179q-17 -30 -40 -30q-14 0 -32 11q-12 9 -29.5 17t-37 14t-40 9.5t-37.5 3.5q-38 0 -69 -15t-53 -41t-34.5 -60t-12.5 -72q0 -39 12.5 -73.5t34.5 -59.5t53 -39.5t69 -14.5q17 0 37 3.5t39.5 9.5t37 14.5
t30.5 18.5h2zM699 21q-22 -15 -22 -35q0 -16 15.5 -30t38 -28t49.5 -30.5t49.5 -38t38 -49t15.5 -64.5q0 -36 -24.5 -77t-69 -81t-106.5 -74.5t-138 -57.5h-5q-15 0 -33 22t-34 50t-27 54.5t-11 35.5q0 16 11 22q171 43 171 106q0 22 -15 39t-37.5 32.5t-48.5 31t-48.5 33.5
t-37.5 40t-15 51q0 11 3 22.5t17 25.5h264z" />
    <glyph glyph-name="egrave" unicode="&#xe8;" horiz-adv-x="1133"
d="M904 82q-66 -52 -146 -80t-168 -28q-105 0 -197.5 40t-162 110t-110 164t-40.5 201q0 101 36.5 194t102 164t154.5 113t194 42q98 0 186.5 -37t155 -101.5t105.5 -152t39 -187.5q0 -34 -7 -59t-24 -41t-46.5 -24t-74.5 -8h-495q10 -34 30.5 -59.5t46 -43t53 -26
t51.5 -8.5q40 0 80.5 11.5t66.5 27.5q22 10 32 19.5t24 9.5q8 0 15.5 -4.5t18.5 -16.5l101 -144q10 -14 10 -29q0 -14 -8.5 -26t-22.5 -21zM573 722q-27 0 -52 -9t-45.5 -24.5t-37 -35.5t-26.5 -42h335q-12 21 -28 41t-36.5 35.5t-47.5 25t-62 9.5zM301 1431q-8 20 0.5 37
t27.5 17h227q26 0 39.5 -10t22.5 -35l76 -222q8 -28 -5 -39t-27 -11h-202q-24 0 -36 7t-25 38z" />
    <glyph glyph-name="eacute" unicode="&#xe9;" horiz-adv-x="1133"
d="M904 82q-66 -52 -146 -80t-168 -28q-105 0 -197.5 40t-162 110t-110 164t-40.5 201q0 101 36.5 194t102 164t154.5 113t194 42q98 0 186.5 -37t155 -101.5t105.5 -152t39 -187.5q0 -34 -7 -59t-24 -41t-46.5 -24t-74.5 -8h-495q10 -34 30.5 -59.5t46 -43t53 -26
t51.5 -8.5q40 0 80.5 11.5t66.5 27.5q22 10 32 19.5t24 9.5q8 0 15.5 -4.5t18.5 -16.5l101 -144q10 -14 10 -29q0 -14 -8.5 -26t-22.5 -21zM573 722q-27 0 -52 -9t-45.5 -24.5t-37 -35.5t-26.5 -42h335q-12 21 -28 41t-36.5 35.5t-47.5 25t-62 9.5zM761 1220q-7 -15 -13 -24
t-12.5 -13.5t-15.5 -6t-21 -1.5h-201q-14 0 -27 11t-5 39l76 222q9 25 22.5 35t39.5 10h227q19 0 27.5 -17t0.5 -37z" />
    <glyph glyph-name="ecircumflex" unicode="&#xea;" horiz-adv-x="1133"
d="M904 82q-66 -52 -146 -80t-168 -28q-105 0 -197.5 40t-162 110t-110 164t-40.5 201q0 101 36.5 194t102 164t154.5 113t194 42q98 0 186.5 -37t155 -101.5t105.5 -152t39 -187.5q0 -34 -7 -59t-24 -41t-46.5 -24t-74.5 -8h-495q10 -34 30.5 -59.5t46 -43t53 -26
t51.5 -8.5q40 0 80.5 11.5t66.5 27.5q22 10 32 19.5t24 9.5q8 0 15.5 -4.5t18.5 -16.5l101 -144q10 -14 10 -29q0 -14 -8.5 -26t-22.5 -21zM573 722q-27 0 -52 -9t-45.5 -24.5t-37 -35.5t-26.5 -42h335q-12 21 -28 41t-36.5 35.5t-47.5 25t-62 9.5zM832 1325
q14 -14 15.5 -30t-15.5 -32l-82 -78q-15 -15 -31 -14.5t-30 14.5l-129 128l-126 -130q-14 -14 -30 -14.5t-32 14.5l-83 80q-17 16 -15.5 32t15.5 30l242 241q5 5 13 10t19 5q12 0 17.5 -3.5t13.5 -11.5z" />
    <glyph glyph-name="edieresis" unicode="&#xeb;" horiz-adv-x="1133"
d="M904 82q-66 -52 -146 -80t-168 -28q-105 0 -197.5 40t-162 110t-110 164t-40.5 201q0 101 36.5 194t102 164t154.5 113t194 42q98 0 186.5 -37t155 -101.5t105.5 -152t39 -187.5q0 -34 -7 -59t-24 -41t-46.5 -24t-74.5 -8h-495q10 -34 30.5 -59.5t46 -43t53 -26
t51.5 -8.5q40 0 80.5 11.5t66.5 27.5q22 10 32 19.5t24 9.5q8 0 15.5 -4.5t18.5 -16.5l101 -144q10 -14 10 -29q0 -14 -8.5 -26t-22.5 -21zM573 722q-27 0 -52 -9t-45.5 -24.5t-37 -35.5t-26.5 -42h335q-12 21 -28 41t-36.5 35.5t-47.5 25t-62 9.5zM183 1268q0 33 12.5 61.5
t34 50t50 34t60.5 12.5q34 0 63 -12.5t50 -34t33 -50t12 -61.5q0 -32 -12 -60.5t-33 -50t-50 -34t-63 -12.5q-32 0 -60.5 12.5t-50 34t-34 50t-12.5 60.5zM623 1270q0 33 12.5 62t33.5 50.5t49.5 34t60.5 12.5q34 0 63 -12.5t50.5 -34t33.5 -50.5t12 -62q0 -32 -12 -60.5
t-33.5 -49.5t-50.5 -33.5t-63 -12.5q-32 0 -60.5 12.5t-49.5 33.5t-33.5 49.5t-12.5 60.5z" />
    <glyph glyph-name="igrave" unicode="&#xec;" horiz-adv-x="625"
d="M128 931q0 21 12.5 36.5t37.5 15.5h250q8 0 17.5 -4t18 -10.5t14 -16t5.5 -21.5v-880q0 -51 -55 -51h-250q-50 0 -50 51v880zM43 1431q-8 20 0.5 37t27.5 17h227q26 0 39.5 -10t22.5 -35l76 -222q8 -28 -5 -39t-27 -11h-202q-24 0 -36 7t-25 38z" />
    <glyph glyph-name="iacute" unicode="&#xed;" horiz-adv-x="625"
d="M429 1220q-7 -15 -13 -24t-12.5 -13.5t-15.5 -6t-21 -1.5h-201q-14 0 -27 11t-5 39l76 222q9 25 22.5 35t39.5 10h227q19 0 27.5 -17t0.5 -37zM128 931q0 21 12.5 36.5t37.5 15.5h250q8 0 17.5 -4t18 -10.5t14 -16t5.5 -21.5v-880q0 -51 -55 -51h-250q-50 0 -50 51v880z
" />
    <glyph glyph-name="icircumflex" unicode="&#xee;" horiz-adv-x="625"
d="M573 1325q14 -14 15.5 -30t-15.5 -32l-82 -78q-15 -15 -31 -14.5t-30 14.5l-129 128l-126 -130q-14 -14 -30 -14.5t-32 14.5l-83 80q-17 16 -15.5 32t15.5 30l242 241q5 5 13 10t19 5q12 0 17.5 -3.5t13.5 -11.5zM128 931q0 21 12.5 36.5t37.5 15.5h250q8 0 17.5 -4
t18 -10.5t14 -16t5.5 -21.5v-880q0 -51 -55 -51h-250q-50 0 -50 51v880z" />
    <glyph glyph-name="idieresis" unicode="&#xef;" horiz-adv-x="625"
d="M-71 1268q0 33 12.5 61.5t34 50t50 34t60.5 12.5q34 0 63 -12.5t50 -34t33 -50t12 -61.5q0 -32 -12 -60.5t-33 -50t-50 -34t-63 -12.5q-32 0 -60.5 12.5t-50 34t-34 50t-12.5 60.5zM369 1270q0 33 12.5 62t33.5 50.5t49.5 34t60.5 12.5q34 0 63 -12.5t50.5 -34
t33.5 -50.5t12 -62q0 -32 -12 -60.5t-33.5 -49.5t-50.5 -33.5t-63 -12.5q-32 0 -60.5 12.5t-49.5 33.5t-33.5 49.5t-12.5 60.5zM128 931q0 21 12.5 36.5t37.5 15.5h250q8 0 17.5 -4t18 -10.5t14 -16t5.5 -21.5v-880q0 -51 -55 -51h-250q-50 0 -50 51v880z" />
    <glyph glyph-name="eth" unicode="&#xf0;" horiz-adv-x="1206"
d="M1115 428q-11 -99 -55.5 -181.5t-114 -141.5t-159.5 -91.5t-190 -32.5q-109 0 -204.5 39.5t-166.5 108t-112 161t-41 198.5q0 99 35.5 185.5t97.5 153.5t146 109.5t180 53.5q-11 18 -20.5 34.5t-17.5 32.5l-71 -40q-10 -5 -17 -5q-21 0 -31 21l-70 125q-7 9 -7 16
q0 6 4 14.5t16 15.5l70 41l-109 192q-2 2 -4 11.5t-2 13.5q0 23 39 23h284q26 0 40.5 -12t25.5 -32l14 -26l79 48q6 5 11.5 6.5t12.5 1.5t11.5 -2t8.5 -10l71 -127q2 -4 4 -9.5t3 -10.5q0 -22 -15 -32l-82 -49l276 -490q64 -113 64 -244q0 -17 -1 -34.5t-3 -34.5zM769 485
q0 39 -12 73t-34 59.5t-53 40.5t-70 15t-70.5 -15t-53 -40.5t-33.5 -59.5t-12 -73q0 -40 12 -74t33.5 -59t53 -39t70.5 -14t70 14t53 39t34 59t12 74z" />
    <glyph glyph-name="ntilde" unicode="&#xf1;" horiz-adv-x="1251"
d="M130 923q0 31 14 45.5t47 14.5h130q28 0 47.5 -11.5t33 -30t23 -43t16.5 -50.5q18 21 50.5 46.5t74.5 48t90.5 37.5t97.5 15q114 0 190.5 -30.5t122.5 -91.5t65.5 -154t19.5 -217v-451q0 -24 -15 -37.5t-36 -13.5h-251q-27 0 -39 12t-12 37v478q0 69 -34 104t-111 35
q-23 0 -51 -9t-53.5 -26t-43.5 -42t-20 -56v-483q0 -25 -11.5 -37.5t-43.5 -12.5h-248q-27 0 -40 14.5t-13 36.5v872zM462 1189q-9 -11 -18.5 -11t-19 5.5t-18.5 13.5t-15 14l-63 62q-15 13 -21 21t-5.5 15.5t7.5 17t19 26.5q41 60 99 94t124 34q38 -1 75 -17t70 -34.5
t61.5 -34t48.5 -15.5q26 0 41.5 13.5t35.5 38.5q19 24 38 23t35 -18l91 -92q13 -13 12 -24.5t-6 -17.5q-45 -69 -107.5 -107.5t-137.5 -38.5q-40 0 -75 15.5t-66.5 34.5t-60 34.5t-53.5 15.5q-19 0 -32 -7t-23.5 -17t-18.5 -22t-17 -22z" />
    <glyph glyph-name="ograve" unicode="&#xf2;" horiz-adv-x="1206"
d="M80 488q0 106 41 200t111.5 163.5t166 110t205.5 40.5q108 0 203.5 -40.5t166 -110t111.5 -163.5t41 -200t-41 -198.5t-111.5 -160.5t-166 -107.5t-203.5 -39.5q-73 0 -140 18t-125.5 50.5t-106 78.5t-81.5 102t-52.5 121t-18.5 136zM436 485q0 -40 12 -74t34 -59
t53.5 -39t70.5 -14t70 14t53 39t34 59t12 74q0 39 -12 73t-34 59.5t-53 40.5t-70 15t-70.5 -15t-53.5 -40.5t-34 -59.5t-12 -73zM321 1431q-8 20 0.5 37t27.5 17h227q26 0 39.5 -10t22.5 -35l76 -222q8 -28 -5 -39t-27 -11h-202q-24 0 -36 7t-25 38z" />
    <glyph glyph-name="oacute" unicode="&#xf3;" horiz-adv-x="1206"
d="M80 488q0 106 41 200t111.5 163.5t166 110t205.5 40.5q108 0 203.5 -40.5t166 -110t111.5 -163.5t41 -200t-41 -198.5t-111.5 -160.5t-166 -107.5t-203.5 -39.5q-73 0 -140 18t-125.5 50.5t-106 78.5t-81.5 102t-52.5 121t-18.5 136zM436 485q0 -40 12 -74t34 -59
t53.5 -39t70.5 -14t70 14t53 39t34 59t12 74q0 39 -12 73t-34 59.5t-53 40.5t-70 15t-70.5 -15t-53.5 -40.5t-34 -59.5t-12 -73zM749 1220q-7 -15 -13 -24t-12.5 -13.5t-15.5 -6t-21 -1.5h-201q-14 0 -27 11t-5 39l76 222q9 25 22.5 35t39.5 10h227q19 0 27.5 -17t0.5 -37z
" />
    <glyph glyph-name="ocircumflex" unicode="&#xf4;" horiz-adv-x="1206"
d="M80 488q0 106 41 200t111.5 163.5t166 110t205.5 40.5q108 0 203.5 -40.5t166 -110t111.5 -163.5t41 -200t-41 -198.5t-111.5 -160.5t-166 -107.5t-203.5 -39.5q-73 0 -140 18t-125.5 50.5t-106 78.5t-81.5 102t-52.5 121t-18.5 136zM436 485q0 -40 12 -74t34 -59
t53.5 -39t70.5 -14t70 14t53 39t34 59t12 74q0 39 -12 73t-34 59.5t-53 40.5t-70 15t-70.5 -15t-53.5 -40.5t-34 -59.5t-12 -73zM871 1325q14 -14 15.5 -30t-15.5 -32l-82 -78q-15 -15 -31 -14.5t-30 14.5l-129 128l-126 -130q-14 -14 -30 -14.5t-32 14.5l-83 80
q-17 16 -15.5 32t15.5 30l242 241q5 5 13 10t19 5q12 0 17.5 -3.5t13.5 -11.5z" />
    <glyph glyph-name="otilde" unicode="&#xf5;" horiz-adv-x="1206"
d="M80 488q0 106 41 200t111.5 163.5t166 110t205.5 40.5q108 0 203.5 -40.5t166 -110t111.5 -163.5t41 -200t-41 -198.5t-111.5 -160.5t-166 -107.5t-203.5 -39.5q-73 0 -140 18t-125.5 50.5t-106 78.5t-81.5 102t-52.5 121t-18.5 136zM436 485q0 -40 12 -74t34 -59
t53.5 -39t70.5 -14t70 14t53 39t34 59t12 74q0 39 -12 73t-34 59.5t-53 40.5t-70 15t-70.5 -15t-53.5 -40.5t-34 -59.5t-12 -73zM374 1189q-9 -11 -18.5 -11t-19 5.5t-18.5 13.5t-15 14l-63 62q-15 13 -21 21t-5.5 15.5t7.5 17t19 26.5q41 60 99 94t124 34q38 -1 75 -17
t70 -34.5t61.5 -34t48.5 -15.5q26 0 41.5 13.5t35.5 38.5q19 24 38 23t35 -18l91 -92q13 -13 12 -24.5t-6 -17.5q-45 -69 -107.5 -107.5t-137.5 -38.5q-40 0 -75 15.5t-66.5 34.5t-60 34.5t-53.5 15.5q-19 0 -32 -7t-23.5 -17t-18.5 -22t-17 -22z" />
    <glyph glyph-name="odieresis" unicode="&#xf6;" horiz-adv-x="1206"
d="M80 488q0 106 41 200t111.5 163.5t166 110t205.5 40.5q108 0 203.5 -40.5t166 -110t111.5 -163.5t41 -200t-41 -198.5t-111.5 -160.5t-166 -107.5t-203.5 -39.5q-73 0 -140 18t-125.5 50.5t-106 78.5t-81.5 102t-52.5 121t-18.5 136zM436 485q0 -40 12 -74t34 -59
t53.5 -39t70.5 -14t70 14t53 39t34 59t12 74q0 39 -12 73t-34 59.5t-53 40.5t-70 15t-70.5 -15t-53.5 -40.5t-34 -59.5t-12 -73zM218 1268q0 33 12.5 61.5t34 50t50 34t60.5 12.5q34 0 63 -12.5t50 -34t33 -50t12 -61.5q0 -32 -12 -60.5t-33 -50t-50 -34t-63 -12.5
q-32 0 -60.5 12.5t-50 34t-34 50t-12.5 60.5zM658 1270q0 33 12.5 62t33.5 50.5t49.5 34t60.5 12.5q34 0 63 -12.5t50.5 -34t33.5 -50.5t12 -62q0 -32 -12 -60.5t-33.5 -49.5t-50.5 -33.5t-63 -12.5q-32 0 -60.5 12.5t-49.5 33.5t-33.5 49.5t-12.5 60.5z" />
    <glyph glyph-name="divide" unicode="&#xf7;" horiz-adv-x="948"
d="M804 715q18 0 31 -11.5t13 -32.5v-234q0 -18 -12 -32t-32 -14h-649q-47 0 -47 46v234q0 44 47 44h649zM323 980q0 33 12.5 61.5t34 50t50 34t60.5 12.5q34 0 63 -12.5t50 -34t33 -50t12 -61.5q0 -32 -12 -60.5t-33 -50t-50 -34t-63 -12.5q-32 0 -60.5 12.5t-50 34t-34 50
t-12.5 60.5zM312 120q0 33 12.5 61.5t34 50t50 34t60.5 12.5q34 0 63 -12.5t50 -34t33 -50t12 -61.5q0 -32 -12 -60.5t-33 -50t-50 -34t-63 -12.5q-32 0 -60.5 12.5t-50 34t-34 50t-12.5 60.5z" />
    <glyph glyph-name="oslash" unicode="&#xf8;" horiz-adv-x="1206"
d="M435 485q0 -40 12 -74t34 -59t53.5 -39t70.5 -14t70 14t53 39t34 59t12 74q0 39 -12 73t-34 59.5t-53 40.5t-70 15t-70.5 -15t-53.5 -40.5t-34 -59.5t-12 -73zM79 488q0 106 41 198.5t111.5 160t166 106.5t205.5 39q20 0 38.5 -1.5t37.5 -3.5l44 102q6 13 17.5 22.5
t29.5 9.5h204q15 0 26 -6t11 -17q0 -8 -1 -9l-89 -200q46 -34 84 -77.5t64.5 -94.5t41 -109t14.5 -120q0 -106 -41 -198.5t-111.5 -160.5t-166 -107.5t-203.5 -39.5q-56 0 -105 10l-50 -96q-8 -18 -15 -25t-23 -7h-221q-30 0 -30 19q0 1 1 3t1 4t1 6l99 206
q-85 69 -133.5 168.5t-48.5 217.5z" />
    <glyph glyph-name="ugrave" unicode="&#xf9;" horiz-adv-x="1232"
d="M1102 61q0 -31 -14 -45.5t-47 -14.5h-130q-28 0 -47.5 11t-33 30t-23 43.5t-16.5 50.5q-18 -21 -50.5 -46.5t-74.5 -48t-90.5 -37.5t-97.5 -15q-114 0 -190.5 30.5t-122.5 91.5t-65.5 153.5t-19.5 217.5v451q0 24 15 37.5t36 13.5h251q27 0 39 -12t12 -37v-478
q0 -69 34 -104t111 -35q23 0 51 9t53.5 26t43.5 41.5t20 56.5v483q0 25 11.5 37.5t43.5 12.5h248q27 0 40 -14.5t13 -36.5v-872zM362 1431q-8 20 0.5 37t27.5 17h227q26 0 39.5 -10t22.5 -35l76 -222q8 -28 -5 -39t-27 -11h-202q-24 0 -36 7t-25 38z" />
    <glyph glyph-name="uacute" unicode="&#xfa;" horiz-adv-x="1232"
d="M1102 61q0 -31 -14 -45.5t-47 -14.5h-130q-28 0 -47.5 11t-33 30t-23 43.5t-16.5 50.5q-18 -21 -50.5 -46.5t-74.5 -48t-90.5 -37.5t-97.5 -15q-114 0 -190.5 30.5t-122.5 91.5t-65.5 153.5t-19.5 217.5v451q0 24 15 37.5t36 13.5h251q27 0 39 -12t12 -37v-478
q0 -69 34 -104t111 -35q23 0 51 9t53.5 26t43.5 41.5t20 56.5v483q0 25 11.5 37.5t43.5 12.5h248q27 0 40 -14.5t13 -36.5v-872zM756 1214q-7 -15 -13 -24t-12.5 -13.5t-15.5 -6t-21 -1.5h-201q-14 0 -27 11t-5 39l76 222q9 25 22.5 35t39.5 10h227q19 0 27.5 -17t0.5 -37z
" />
    <glyph glyph-name="ucircumflex" unicode="&#xfb;" horiz-adv-x="1232"
d="M1102 61q0 -31 -14 -45.5t-47 -14.5h-130q-28 0 -47.5 11t-33 30t-23 43.5t-16.5 50.5q-18 -21 -50.5 -46.5t-74.5 -48t-90.5 -37.5t-97.5 -15q-114 0 -190.5 30.5t-122.5 91.5t-65.5 153.5t-19.5 217.5v451q0 24 15 37.5t36 13.5h251q27 0 39 -12t12 -37v-478
q0 -69 34 -104t111 -35q23 0 51 9t53.5 26t43.5 41.5t20 56.5v483q0 25 11.5 37.5t43.5 12.5h248q27 0 40 -14.5t13 -36.5v-872zM862 1325q14 -14 15.5 -30t-15.5 -32l-82 -78q-15 -15 -31 -14.5t-30 14.5l-129 128l-126 -130q-14 -14 -30 -14.5t-32 14.5l-83 80
q-17 16 -15.5 32t15.5 30l242 241q5 5 13 10t19 5q12 0 17.5 -3.5t13.5 -11.5z" />
    <glyph glyph-name="udieresis" unicode="&#xfc;" horiz-adv-x="1232"
d="M1102 61q0 -31 -14 -45.5t-47 -14.5h-130q-28 0 -47.5 11t-33 30t-23 43.5t-16.5 50.5q-18 -21 -50.5 -46.5t-74.5 -48t-90.5 -37.5t-97.5 -15q-114 0 -190.5 30.5t-122.5 91.5t-65.5 153.5t-19.5 217.5v451q0 24 15 37.5t36 13.5h251q27 0 39 -12t12 -37v-478
q0 -69 34 -104t111 -35q23 0 51 9t53.5 26t43.5 41.5t20 56.5v483q0 25 11.5 37.5t43.5 12.5h248q27 0 40 -14.5t13 -36.5v-872zM219 1301q0 33 12.5 61.5t34 50t50 34t60.5 12.5q34 0 63 -12.5t50 -34t33 -50t12 -61.5q0 -32 -12 -60.5t-33 -50t-50 -34t-63 -12.5
q-32 0 -60.5 12.5t-50 34t-34 50t-12.5 60.5zM659 1303q0 33 12.5 62t33.5 50.5t49.5 34t60.5 12.5q34 0 63 -12.5t50.5 -34t33.5 -50.5t12 -62q0 -32 -12 -60.5t-33.5 -49.5t-50.5 -33.5t-63 -12.5q-32 0 -60.5 12.5t-49.5 33.5t-33.5 49.5t-12.5 60.5z" />
    <glyph glyph-name="yacute" unicode="&#xfd;" horiz-adv-x="1160"
d="M43 921q-3 2 -4 9.5t-1 14.5q0 36 44 36h274q23 0 38 -11.5t20 -31.5q21 -60 43.5 -127.5t45 -135.5t45 -135.5t44.5 -127.5l172 526q8 23 23 33t39 10h269q27 0 37.5 -11t10.5 -29q0 -10 -1 -15q-37 -101 -80.5 -214.5t-88 -230.5t-89.5 -233t-85.5 -223t-75 -200.5
t-58.5 -165.5q-5 -19 -20.5 -31.5t-35.5 -12.5h-249q-17 0 -32.5 6.5t-15.5 28.5q0 8 5 25l104 306zM760 1220q-7 -15 -13 -24t-12.5 -13.5t-15.5 -6t-21 -1.5h-201q-14 0 -27 11t-5 39l76 222q9 25 22.5 35t39.5 10h227q19 0 27.5 -17t0.5 -37z" />
    <glyph glyph-name="thorn" unicode="&#xfe;" horiz-adv-x="1266"
d="M811 499q0 40 -12.5 74t-35 59t-54 39t-70.5 14q-38 0 -70 -14t-56 -38t-38 -57t-15 -71v-6q0 -39 13.5 -73t37.5 -59.5t56.5 -40.5t71.5 -15t70.5 15t54 40.5t35 59.5t12.5 73zM187 -389q-9 0 -18.5 4t-17.5 10.5t-13.5 16t-5.5 21.5v1687q0 12 5.5 21.5t13.5 16
t17.5 10.5t18.5 4h249q26 0 38.5 -15t12.5 -37v-434q16 18 31 30q29 25 68 41t98 16q108 0 196.5 -39.5t151.5 -107.5t98 -160t35 -197v-5v-4q0 -105 -35 -197t-98 -160t-151.5 -107.5t-196.5 -39.5q-60 0 -98.5 15.5t-67.5 41.5q-8 6 -15.5 13.5l-15.5 15.5v-409
q0 -22 -12.5 -37t-38.5 -15h-249z" />
    <glyph glyph-name="ydieresis" unicode="&#xff;" horiz-adv-x="1160"
d="M43 921q-3 2 -4 9.5t-1 14.5q0 36 44 36h274q23 0 38 -11.5t20 -31.5q21 -60 43.5 -127.5t45 -135.5t45 -135.5t44.5 -127.5l172 526q8 23 23 33t39 10h269q27 0 37.5 -11t10.5 -29q0 -10 -1 -15q-37 -101 -80.5 -214.5t-88 -230.5t-89.5 -233t-85.5 -223t-75 -200.5
t-58.5 -165.5q-5 -19 -20.5 -31.5t-35.5 -12.5h-249q-17 0 -32.5 6.5t-15.5 28.5q0 8 5 25l104 306zM224 1268q0 33 12.5 61.5t34 50t50 34t60.5 12.5q34 0 63 -12.5t50 -34t33 -50t12 -61.5q0 -32 -12 -60.5t-33 -50t-50 -34t-63 -12.5q-32 0 -60.5 12.5t-50 34t-34 50
t-12.5 60.5zM664 1270q0 33 12.5 62t33.5 50.5t49.5 34t60.5 12.5q34 0 63 -12.5t50.5 -34t33.5 -50.5t12 -62q0 -32 -12 -60.5t-33.5 -49.5t-50.5 -33.5t-63 -12.5q-32 0 -60.5 12.5t-49.5 33.5t-33.5 49.5t-12.5 60.5z" />
    <glyph glyph-name="Amacron" unicode="&#x100;" horiz-adv-x="1530"
d="M586 1441q18 44 62 44h245q43 0 60 -44l546 -1397q17 -44 -28 -44h-298q-44 0 -59 44l-70 196h-546l-68 -196q-15 -44 -60 -44h-298q-46 0 -28 44zM610 561h319l-161 455zM336 1867q0 35 35 35h749q15 0 25 -8.5t10 -26.5v-124q0 -12 -9 -26t-26 -14h-749q-35 0 -35 40
v124z" />
    <glyph glyph-name="amacron" unicode="&#x101;" horiz-adv-x="1263"
d="M1133 57q0 -29 -18.5 -43t-41.5 -14h-195q-17 0 -26.5 4.5t-16 12t-10.5 18.5t-9 24l-22 58q-14 -21 -30.5 -44.5t-41 -44t-59 -33.5t-83.5 -13h-11q-108 0 -197.5 38.5t-154.5 106t-101 160.5t-36 201q0 111 35.5 204t100 160.5t154.5 105.5t199 38q51 0 92.5 -14.5
t73 -38t53.5 -53.5t35 -61l30 93q7 21 11.5 32.5t10.5 17.5t15 7.5t25 1.5h158q24 0 42 -15.5t18 -41.5v-867zM435 485q0 -40 12 -74t34 -59t53.5 -39t69.5 -14q39 0 72.5 14t57.5 39t37.5 59t13.5 74q0 39 -13.5 73t-37.5 59.5t-57.5 40.5t-72.5 15q-38 0 -69.5 -15
t-53.5 -40.5t-34 -59.5t-12 -73zM210 1363q0 35 35 35h749q15 0 25 -8.5t10 -26.5v-124q0 -12 -9 -26t-26 -14h-749q-35 0 -35 40v124z" />
    <glyph glyph-name="Abreve" unicode="&#x102;" horiz-adv-x="1530"
d="M586 1441q18 44 62 44h245q43 0 60 -44l546 -1397q17 -44 -28 -44h-298q-44 0 -59 44l-70 196h-546l-68 -196q-15 -44 -60 -44h-298q-46 0 -28 44zM610 561h319l-161 455zM737 1703q-59 1 -109 22.5t-87 56.5t-58 79.5t-21 92.5q0 17 11.5 27t26.5 10h144q11 0 17 -6.5
t6 -15.5q0 -23 18 -41.5t56 -18.5q34 0 52.5 19t18.5 41q0 9 5 15.5t16 6.5h146q15 0 26.5 -10t11.5 -27q0 -49 -21.5 -94t-59.5 -79.5t-89 -55.5t-110 -22z" />
    <glyph glyph-name="abreve" unicode="&#x103;" horiz-adv-x="1263"
d="M1133 57q0 -29 -18.5 -43t-41.5 -14h-195q-17 0 -26.5 4.5t-16 12t-10.5 18.5t-9 24l-22 58q-14 -21 -30.5 -44.5t-41 -44t-59 -33.5t-83.5 -13h-11q-108 0 -197.5 38.5t-154.5 106t-101 160.5t-36 201q0 111 35.5 204t100 160.5t154.5 105.5t199 38q51 0 92.5 -14.5
t73 -38t53.5 -53.5t35 -61l30 93q7 21 11.5 32.5t10.5 17.5t15 7.5t25 1.5h158q24 0 42 -15.5t18 -41.5v-867zM435 485q0 -40 12 -74t34 -59t53.5 -39t69.5 -14q39 0 72.5 14t57.5 39t37.5 59t13.5 74q0 39 -13.5 73t-37.5 59.5t-57.5 40.5t-72.5 15q-38 0 -69.5 -15
t-53.5 -40.5t-34 -59.5t-12 -73zM603 1199q-59 1 -109 22.5t-87 56.5t-58 79.5t-21 92.5q0 17 11.5 27t26.5 10h144q11 0 17 -6.5t6 -15.5q0 -23 18 -41.5t56 -18.5q34 0 52.5 19t18.5 41q0 9 5 15.5t16 6.5h146q15 0 26.5 -10t11.5 -27q0 -49 -21.5 -94t-59.5 -79.5
t-89 -55.5t-110 -22z" />
    <glyph glyph-name="Aogonek" unicode="&#x104;" horiz-adv-x="1530"
d="M586 1441q18 44 62 44h245q43 0 60 -44l546 -1397q17 -44 -28 -44h-298q-44 0 -59 44l-70 196h-546l-68 -196q-15 -44 -60 -44h-298q-46 0 -28 44zM610 561h319l-161 455zM1413 13q14 -14 17 -25.5t3 -22.5q0 -29 -15 -51t-37.5 -40t-48.5 -33.5t-48.5 -31t-37.5 -32.5
t-15 -39q0 -63 171 -106q11 -6 11 -22q0 -9 -11 -35.5t-27 -54.5t-34 -50t-33 -22h-5q-76 23 -138.5 57.5t-107 74.5t-69 81t-24.5 77q0 37 15.5 64.5t38.5 49t49.5 38t49.5 30.5t38.5 28t15.5 30q0 20 -22 35h264z" />
    <glyph glyph-name="aogonek" unicode="&#x105;" horiz-adv-x="1263"
d="M1133 57q0 -29 -18.5 -43t-41.5 -14h-195q-17 0 -26.5 4.5t-16 12t-10.5 18.5t-9 24l-22 58q-14 -21 -30.5 -44.5t-41 -44t-59 -33.5t-83.5 -13h-11q-108 0 -197.5 38.5t-154.5 106t-101 160.5t-36 201q0 111 35.5 204t100 160.5t154.5 105.5t199 38q51 0 92.5 -14.5
t73 -38t53.5 -53.5t35 -61l30 93q7 21 11.5 32.5t10.5 17.5t15 7.5t25 1.5h158q24 0 42 -15.5t18 -41.5v-867zM435 485q0 -40 12 -74t34 -59t53.5 -39t69.5 -14q39 0 72.5 14t57.5 39t37.5 59t13.5 74q0 39 -13.5 73t-37.5 59.5t-57.5 40.5t-72.5 15q-38 0 -69.5 -15
t-53.5 -40.5t-34 -59.5t-12 -73zM1114 102q14 -14 17 -25.5t3 -22.5q0 -29 -15 -51t-37.5 -40t-48.5 -33.5t-48.5 -31t-37.5 -32.5t-15 -39q0 -63 171 -106q11 -6 11 -22q0 -9 -11 -35.5t-27 -54.5t-34 -50t-33 -22h-5q-76 23 -138.5 57.5t-107 74.5t-69 81t-24.5 77
q0 37 15.5 64.5t38.5 49t49.5 38t49.5 30.5t38.5 28t15.5 30q0 20 -22 35h264z" />
    <glyph glyph-name="Cacute" unicode="&#x106;" horiz-adv-x="1408"
d="M1079 419q21 15 39 17.5t32 -17.5l164 -241q16 -20 12.5 -34.5t-26.5 -29.5q-40 -28 -86.5 -53t-100.5 -43.5t-114.5 -29t-128.5 -10.5q-106 0 -204 27.5t-183.5 77.5t-155.5 120t-120 155.5t-77.5 183.5t-27.5 204t27.5 203.5t77.5 182.5t120 154t155.5 118.5
t183.5 76.5t204 27q68 0 129 -11t115 -29.5t101.5 -44t88.5 -54.5q16 -11 18.5 -26.5t-4.5 -26.5l-174 -249q-11 -16 -28.5 -15t-33.5 14q-49 39 -99 57t-113 18q-83 0 -154 -30.5t-123 -84t-81 -125.5t-29 -155t29 -156t81 -127t123 -85t154 -31q63 0 116 22t93 50z
M1000 1722q-7 -15 -13 -24t-12.5 -13.5t-15.5 -6t-21 -1.5h-201q-14 0 -27 11t-5 39l76 222q9 25 22.5 35t39.5 10h227q19 0 27.5 -17t0.5 -37z" />
    <glyph glyph-name="cacute" unicode="&#x107;" horiz-adv-x="995"
d="M741 344q8 4 14.5 5t11.5 1q10 -1 18 -7t15.5 -15.5t14.5 -21.5t15 -24l86 -133q10 -15 10 -26q-1 -18 -12.5 -29.5t-24.5 -19.5q-66 -40 -140 -66t-157 -26q-104 0 -197 39.5t-163 107.5t-111 160.5t-41 198.5t41 200t111 163.5t163 110t197 40.5q83 0 153 -26.5
t133 -64.5q17 -11 28 -24t11 -36q0 -6 -1.5 -12.5t-6.5 -11.5l-98 -179q-17 -30 -40 -30q-14 0 -32 11q-12 9 -29.5 17t-37 14t-40 9.5t-37.5 3.5q-38 0 -69 -15t-53 -41t-34.5 -60t-12.5 -72q0 -39 12.5 -73.5t34.5 -59.5t53 -39.5t69 -14.5q17 0 37 3.5t39.5 9.5t37 14.5
t30.5 18.5h2zM672 1220q-7 -15 -13 -24t-12.5 -13.5t-15.5 -6t-21 -1.5h-201q-14 0 -27 11t-5 39l76 222q9 25 22.5 35t39.5 10h227q19 0 27.5 -17t0.5 -37z" />
    <glyph glyph-name="Ccircumflex" unicode="&#x108;" horiz-adv-x="1408"
d="M1079 419q21 15 39 17.5t32 -17.5l164 -241q16 -20 12.5 -34.5t-26.5 -29.5q-40 -28 -86.5 -53t-100.5 -43.5t-114.5 -29t-128.5 -10.5q-106 0 -204 27.5t-183.5 77.5t-155.5 120t-120 155.5t-77.5 183.5t-27.5 204t27.5 203.5t77.5 182.5t120 154t155.5 118.5
t183.5 76.5t204 27q68 0 129 -11t115 -29.5t101.5 -44t88.5 -54.5q16 -11 18.5 -26.5t-4.5 -26.5l-174 -249q-11 -16 -28.5 -15t-33.5 14q-49 39 -99 57t-113 18q-83 0 -154 -30.5t-123 -84t-81 -125.5t-29 -155t29 -156t81 -127t123 -85t154 -31q63 0 116 22t93 50z
M1098 1827q14 -14 15.5 -30t-15.5 -32l-82 -78q-15 -15 -31 -14.5t-30 14.5l-129 128l-126 -130q-14 -14 -30 -14.5t-32 14.5l-83 80q-17 16 -15.5 32t15.5 30l242 241q5 5 13 10t19 5q12 0 17.5 -3.5t13.5 -11.5z" />
    <glyph glyph-name="ccircumflex" unicode="&#x109;" horiz-adv-x="995"
d="M741 344q8 4 14.5 5t11.5 1q10 -1 18 -7t15.5 -15.5t14.5 -21.5t15 -24l86 -133q10 -15 10 -26q-1 -18 -12.5 -29.5t-24.5 -19.5q-66 -40 -140 -66t-157 -26q-104 0 -197 39.5t-163 107.5t-111 160.5t-41 198.5t41 200t111 163.5t163 110t197 40.5q83 0 153 -26.5
t133 -64.5q17 -11 28 -24t11 -36q0 -6 -1.5 -12.5t-6.5 -11.5l-98 -179q-17 -30 -40 -30q-14 0 -32 11q-12 9 -29.5 17t-37 14t-40 9.5t-37.5 3.5q-38 0 -69 -15t-53 -41t-34.5 -60t-12.5 -72q0 -39 12.5 -73.5t34.5 -59.5t53 -39.5t69 -14.5q17 0 37 3.5t39.5 9.5t37 14.5
t30.5 18.5h2zM818 1229q14 -14 15.5 -30t-15.5 -32l-82 -78q-15 -15 -31 -14.5t-30 14.5l-129 128l-126 -130q-14 -14 -30 -14.5t-32 14.5l-83 80q-17 16 -15.5 32t15.5 30l242 241q5 5 13 10t19 5q12 0 17.5 -3.5t13.5 -11.5z" />
    <glyph glyph-name="Cdotaccent" unicode="&#x10a;" horiz-adv-x="1408"
d="M1079 419q21 15 39 17.5t32 -17.5l164 -241q16 -20 12.5 -34.5t-26.5 -29.5q-40 -28 -86.5 -53t-100.5 -43.5t-114.5 -29t-128.5 -10.5q-106 0 -204 27.5t-183.5 77.5t-155.5 120t-120 155.5t-77.5 183.5t-27.5 204t27.5 203.5t77.5 182.5t120 154t155.5 118.5
t183.5 76.5t204 27q68 0 129 -11t115 -29.5t101.5 -44t88.5 -54.5q16 -11 18.5 -26.5t-4.5 -26.5l-174 -249q-11 -16 -28.5 -15t-33.5 14q-49 39 -99 57t-113 18q-83 0 -154 -30.5t-123 -84t-81 -125.5t-29 -155t29 -156t81 -127t123 -85t154 -31q63 0 116 22t93 50z
M669 1779q0 37 14.5 70.5t39 58t57.5 39t70 14.5q39 0 72.5 -14.5t57.5 -39t38 -58t14 -70.5t-14 -70t-38 -57.5t-57.5 -39t-72.5 -14.5q-37 0 -70 14.5t-57.5 39t-39 57.5t-14.5 70z" />
    <glyph glyph-name="cdotaccent" unicode="&#x10b;" horiz-adv-x="995"
d="M741 344q8 4 14.5 5t11.5 1q10 -1 18 -7t15.5 -15.5t14.5 -21.5t15 -24l86 -133q10 -15 10 -26q-1 -18 -12.5 -29.5t-24.5 -19.5q-66 -40 -140 -66t-157 -26q-104 0 -197 39.5t-163 107.5t-111 160.5t-41 198.5t41 200t111 163.5t163 110t197 40.5q83 0 153 -26.5
t133 -64.5q17 -11 28 -24t11 -36q0 -6 -1.5 -12.5t-6.5 -11.5l-98 -179q-17 -30 -40 -30q-14 0 -32 11q-12 9 -29.5 17t-37 14t-40 9.5t-37.5 3.5q-38 0 -69 -15t-53 -41t-34.5 -60t-12.5 -72q0 -39 12.5 -73.5t34.5 -59.5t53 -39.5t69 -14.5q17 0 37 3.5t39.5 9.5t37 14.5
t30.5 18.5h2zM376 1337q0 37 14.5 70.5t39 58t57.5 39t70 14.5q39 0 72.5 -14.5t57.5 -39t38 -58t14 -70.5t-14 -70t-38 -57.5t-57.5 -39t-72.5 -14.5q-37 0 -70 14.5t-57.5 39t-39 57.5t-14.5 70z" />
    <glyph glyph-name="Ccaron" unicode="&#x10c;" horiz-adv-x="1408"
d="M1079 419q21 15 39 17.5t32 -17.5l164 -241q16 -20 12.5 -34.5t-26.5 -29.5q-40 -28 -86.5 -53t-100.5 -43.5t-114.5 -29t-128.5 -10.5q-106 0 -204 27.5t-183.5 77.5t-155.5 120t-120 155.5t-77.5 183.5t-27.5 204t27.5 203.5t77.5 182.5t120 154t155.5 118.5
t183.5 76.5t204 27q68 0 129 -11t115 -29.5t101.5 -44t88.5 -54.5q16 -11 18.5 -26.5t-4.5 -26.5l-174 -249q-11 -16 -28.5 -15t-33.5 14q-49 39 -99 57t-113 18q-83 0 -154 -30.5t-123 -84t-81 -125.5t-29 -155t29 -156t81 -127t123 -85t154 -31q63 0 116 22t93 50z
M533 1911q-5 2 -7 8t-2 14q1 6 2.5 12t6.5 10l110 107q6 10 22 10q3 -1 9 -2.5t13 -4.5l142 -143l139 142q5 5 11 7t11 2q13 0 27 -11l108 -110q9 -11 9 -19q0 -17 -8 -23l-277 -276q-7 -5 -11 -7t-9 -2q-7 0 -11 2.5t-11 6.5z" />
    <glyph glyph-name="ccaron" unicode="&#x10d;" horiz-adv-x="995"
d="M741 344q8 4 14.5 5t11.5 1q10 -1 18 -7t15.5 -15.5t14.5 -21.5t15 -24l86 -133q10 -15 10 -26q-1 -18 -12.5 -29.5t-24.5 -19.5q-66 -40 -140 -66t-157 -26q-104 0 -197 39.5t-163 107.5t-111 160.5t-41 198.5t41 200t111 163.5t163 110t197 40.5q83 0 153 -26.5
t133 -64.5q17 -11 28 -24t11 -36q0 -6 -1.5 -12.5t-6.5 -11.5l-98 -179q-17 -30 -40 -30q-14 0 -32 11q-12 9 -29.5 17t-37 14t-40 9.5t-37.5 3.5q-38 0 -69 -15t-53 -41t-34.5 -60t-12.5 -72q0 -39 12.5 -73.5t34.5 -59.5t53 -39.5t69 -14.5q17 0 37 3.5t39.5 9.5t37 14.5
t30.5 18.5h2zM249 1409q-5 2 -7 8t-2 14q1 6 2.5 12t6.5 10l110 107q6 10 22 10q3 -1 9 -2.5t13 -4.5l142 -143l139 142q5 5 11 7t11 2q13 0 27 -11l108 -110q9 -11 9 -19q0 -17 -8 -23l-277 -276q-7 -5 -11 -7t-9 -2q-7 0 -11 2.5t-11 6.5z" />
    <glyph glyph-name="Dcaron" unicode="&#x10e;" horiz-adv-x="1532"
d="M164 1441q0 44 43 44h519q94 0 185 -26.5t173.5 -74.5t152.5 -116t121 -150.5t80 -177.5t29 -198q0 -97 -26.5 -190t-74.5 -175.5t-115.5 -151.5t-150 -119t-177 -78t-197.5 -28h-519q-43 0 -43 44v1397zM1079 742q0 81 -29.5 151.5t-81.5 123.5t-123.5 83.5t-154.5 30.5
h-140v-777h140q83 0 154.5 30.5t123.5 83t81.5 123.5t29.5 151zM391 1913q-5 2 -7 8t-2 14q1 6 2.5 12t6.5 10l110 107q6 10 22 10q3 -1 9 -2.5t13 -4.5l142 -143l139 142q5 5 11 7t11 2q13 0 27 -11l108 -110q9 -11 9 -19q0 -17 -8 -23l-277 -276q-7 -5 -11 -7t-9 -2
q-7 0 -11 2.5t-11 6.5z" />
    <glyph glyph-name="dcaron" unicode="&#x10f;" horiz-adv-x="1243"
d="M800 115q-26 -38 -51 -63.5t-53.5 -41t-63 -22t-80.5 -6.5q-101 0 -187.5 40t-149.5 108.5t-99 160.5t-36 196q0 105 35 197t98 160t151.5 107.5t196.5 39.5q38 0 67 -6.5t52 -18.5t42 -28t36 -34v530q0 22 12.5 37t38.5 15h249q9 0 18.5 -4t17.5 -10.5t13.5 -16
t5.5 -21.5v-1382q0 -45 -41 -52h-193q-17 0 -28.5 10t-20 26.5t-15.5 37t-15 41.5zM444 484q0 -40 12.5 -74t35 -59t54 -39t70.5 -14q38 0 70 14t56 38t38 57t15 71v6q0 39 -13.5 73t-37.5 59.5t-56.5 40.5t-71.5 15t-70.5 -15t-54 -40.5t-35 -59.5t-12.5 -73z
M1062.42 1651.76q0 35.0176 12.9795 64.6475q12.9795 29.6309 34.9102 51.1797q21.9316 21.5488 51.4707 34.1201q29.54 12.5703 62.6602 12.5703q34.9102 0 64.8975 -12.5703q29.9873 -12.5713 51.9189 -35.4668q21.9307 -22.8965 34.0146 -55.6689
q12.085 -32.7734 12.085 -72.2803q0 -86.1973 -17.0078 -149.498q-17.0078 -63.3018 -40.7285 -105.502q-23.7217 -42.2012 -48.3379 -62.8525t-40.7295 -20.6514q-9.84668 0 -15.665 2.24512q-5.81836 2.24414 -12.9795 7.63184l-42.0713 30.5283
q-16.1123 16.1621 -16.1123 31.4258q0 10.7744 6.26562 21.1006q6.2666 10.3252 14.3223 22.8955q9.84668 9.87695 18.3506 25.1416q8.50391 15.2637 8.50391 39.5068v8.97852q-27.75 4.49023 -52.8135 19.3047q-25.0635 14.8154 -44.3096 36.8135
q-19.2451 21.998 -30.4346 49.3838t-11.1895 57.0166z" />
    <glyph glyph-name="Dcroat" unicode="&#x110;" horiz-adv-x="1546"
d="M163 1441q0 44 43 44h519q94 0 185 -26.5t173.5 -74.5t152.5 -116t121 -150.5t80 -177.5t29 -198q0 -97 -26.5 -190t-74.5 -175.5t-115.5 -151.5t-150 -119t-177 -78t-197.5 -28h-519q-43 0 -43 44v1397zM1078 742q0 81 -29.5 151.5t-81.5 123.5t-123.5 83.5t-154.5 30.5
h-140v-777h140q83 0 154.5 30.5t123.5 83t81.5 123.5t29.5 151zM32.4395 821.547q0 39.6738 38.2852 39.6738h593.42q15.6621 0 26.9736 -10.3691t11.3115 -29.3047v-183.039q0 -13.5254 -10.4414 -28.4023q-10.4414 -14.8779 -27.8438 -14.8779h-593.42
q-38.2852 0 -38.2852 43.2803v183.039z" />
    <glyph glyph-name="dcroat" unicode="&#x111;" horiz-adv-x="1243"
d="M618 1283q0 44 38 44h554q16 0 27 -11.5t11 -32.5v-130q0 -15 -10 -31.5t-28 -16.5h-554q-38 0 -38 48v130zM800 115q-26 -38 -51 -63.5t-53.5 -41t-63 -22t-80.5 -6.5q-101 0 -187.5 40t-149.5 108.5t-99 160.5t-36 196q0 105 35 197t98 160t151.5 107.5t196.5 39.5
q38 0 67 -6.5t52 -18.5t42 -28t36 -34v530q0 22 12.5 37t38.5 15h249q9 0 18.5 -4t17.5 -10.5t13.5 -16t5.5 -21.5v-1382q0 -45 -41 -52h-193q-17 0 -28.5 10t-20 26.5t-15.5 37t-15 41.5zM444 484q0 -40 12.5 -74t35 -59t54 -39t70.5 -14q38 0 70 14t56 38t38 57t15 71v6
q0 39 -13.5 73t-37.5 59.5t-56.5 40.5t-71.5 15t-70.5 -15t-54 -40.5t-35 -59.5t-12.5 -73z" />
    <glyph glyph-name="Emacron" unicode="&#x112;" horiz-adv-x="1350"
d="M160 1441q0 44 44 44h995q44 0 44 -44v-257q0 -43 -44 -43h-652v-247h495q23 0 36 -11.5t13 -34.5v-206q0 -44 -49 -44h-495v-255h671q44 0 44 -44v-255q0 -44 -44 -44h-1014q-44 0 -44 44v1397zM285 1867q0 35 35 35h749q15 0 25 -8.5t10 -26.5v-124q0 -12 -9 -26
t-26 -14h-749q-35 0 -35 40v124z" />
    <glyph glyph-name="emacron" unicode="&#x113;" horiz-adv-x="1133"
d="M904 82q-66 -52 -146 -80t-168 -28q-105 0 -197.5 40t-162 110t-110 164t-40.5 201q0 101 36.5 194t102 164t154.5 113t194 42q98 0 186.5 -37t155 -101.5t105.5 -152t39 -187.5q0 -34 -7 -59t-24 -41t-46.5 -24t-74.5 -8h-495q10 -34 30.5 -59.5t46 -43t53 -26
t51.5 -8.5q40 0 80.5 11.5t66.5 27.5q22 10 32 19.5t24 9.5q8 0 15.5 -4.5t18.5 -16.5l101 -144q10 -14 10 -29q0 -14 -8.5 -26t-22.5 -21zM573 722q-27 0 -52 -9t-45.5 -24.5t-37 -35.5t-26.5 -42h335q-12 21 -28 41t-36.5 35.5t-47.5 25t-62 9.5zM147 1363q0 35 35 35h749
q15 0 25 -8.5t10 -26.5v-124q0 -12 -9 -26t-26 -14h-749q-35 0 -35 40v124z" />
    <glyph glyph-name="Ebreve" unicode="&#x114;" horiz-adv-x="1350"
d="M160 1441q0 44 44 44h995q44 0 44 -44v-257q0 -43 -44 -43h-652v-247h495q23 0 36 -11.5t13 -34.5v-206q0 -44 -49 -44h-495v-255h671q44 0 44 -44v-255q0 -44 -44 -44h-1014q-44 0 -44 44v1397zM697 1703q-59 1 -109 22.5t-87 56.5t-58 79.5t-21 92.5q0 17 11.5 27
t26.5 10h144q11 0 17 -6.5t6 -15.5q0 -23 18 -41.5t56 -18.5q34 0 52.5 19t18.5 41q0 9 5 15.5t16 6.5h146q15 0 26.5 -10t11.5 -27q0 -49 -21.5 -94t-59.5 -79.5t-89 -55.5t-110 -22z" />
    <glyph glyph-name="ebreve" unicode="&#x115;" horiz-adv-x="1133"
d="M904 82q-66 -52 -146 -80t-168 -28q-105 0 -197.5 40t-162 110t-110 164t-40.5 201q0 101 36.5 194t102 164t154.5 113t194 42q98 0 186.5 -37t155 -101.5t105.5 -152t39 -187.5q0 -34 -7 -59t-24 -41t-46.5 -24t-74.5 -8h-495q10 -34 30.5 -59.5t46 -43t53 -26
t51.5 -8.5q40 0 80.5 11.5t66.5 27.5q22 10 32 19.5t24 9.5q8 0 15.5 -4.5t18.5 -16.5l101 -144q10 -14 10 -29q0 -14 -8.5 -26t-22.5 -21zM573 722q-27 0 -52 -9t-45.5 -24.5t-37 -35.5t-26.5 -42h335q-12 21 -28 41t-36.5 35.5t-47.5 25t-62 9.5zM576 1199
q-59 1 -109 22.5t-87 56.5t-58 79.5t-21 92.5q0 17 11.5 27t26.5 10h144q11 0 17 -6.5t6 -15.5q0 -23 18 -41.5t56 -18.5q34 0 52.5 19t18.5 41q0 9 5 15.5t16 6.5h146q15 0 26.5 -10t11.5 -27q0 -49 -21.5 -94t-59.5 -79.5t-89 -55.5t-110 -22z" />
    <glyph glyph-name="Edotaccent" unicode="&#x116;" horiz-adv-x="1350"
d="M160 1441q0 44 44 44h995q44 0 44 -44v-257q0 -43 -44 -43h-652v-247h495q23 0 36 -11.5t13 -34.5v-206q0 -44 -49 -44h-495v-255h671q44 0 44 -44v-255q0 -44 -44 -44h-1014q-44 0 -44 44v1397zM544 1841q0 37 14.5 70.5t39 58t57.5 39t70 14.5q39 0 72.5 -14.5
t57.5 -39t38 -58t14 -70.5t-14 -70t-38 -57.5t-57.5 -39t-72.5 -14.5q-37 0 -70 14.5t-57.5 39t-39 57.5t-14.5 70z" />
    <glyph glyph-name="edotaccent" unicode="&#x117;" horiz-adv-x="1133"
d="M904 82q-66 -52 -146 -80t-168 -28q-105 0 -197.5 40t-162 110t-110 164t-40.5 201q0 101 36.5 194t102 164t154.5 113t194 42q98 0 186.5 -37t155 -101.5t105.5 -152t39 -187.5q0 -34 -7 -59t-24 -41t-46.5 -24t-74.5 -8h-495q10 -34 30.5 -59.5t46 -43t53 -26
t51.5 -8.5q40 0 80.5 11.5t66.5 27.5q22 10 32 19.5t24 9.5q8 0 15.5 -4.5t18.5 -16.5l101 -144q10 -14 10 -29q0 -14 -8.5 -26t-22.5 -21zM573 722q-27 0 -52 -9t-45.5 -24.5t-37 -35.5t-26.5 -42h335q-12 21 -28 41t-36.5 35.5t-47.5 25t-62 9.5zM382 1324q0 37 14.5 70.5
t39 58t57.5 39t70 14.5q39 0 72.5 -14.5t57.5 -39t38 -58t14 -70.5t-14 -70t-38 -57.5t-57.5 -39t-72.5 -14.5q-37 0 -70 14.5t-57.5 39t-39 57.5t-14.5 70z" />
    <glyph glyph-name="Eogonek" unicode="&#x118;" horiz-adv-x="1350"
d="M160 1441q0 44 44 44h995q44 0 44 -44v-257q0 -43 -44 -43h-652v-247h495q23 0 36 -11.5t13 -34.5v-206q0 -44 -49 -44h-495v-255h671q44 0 44 -44v-255q0 -44 -44 -44h-1014q-44 0 -44 44v1397zM1198 0q14 -14 17 -25.5t3 -22.5q0 -29 -15 -51t-37.5 -40t-48.5 -33.5
t-48.5 -31t-37.5 -32.5t-15 -39q0 -63 171 -106q11 -6 11 -22q0 -9 -11 -35.5t-27 -54.5t-34 -50t-33 -22h-5q-76 23 -138.5 57.5t-107 74.5t-69 81t-24.5 77q0 37 15.5 64.5t38.5 49t49.5 38t49.5 30.5t38.5 28t15.5 30q0 20 -22 35h264z" />
    <glyph glyph-name="eogonek" unicode="&#x119;" horiz-adv-x="1133"
d="M904 82q-66 -52 -146 -80t-168 -28q-105 0 -197.5 40t-162 110t-110 164t-40.5 201q0 101 36.5 194t102 164t154.5 113t194 42q98 0 186.5 -37t155 -101.5t105.5 -152t39 -187.5q0 -34 -7 -59t-24 -41t-46.5 -24t-74.5 -8h-495q10 -34 30.5 -59.5t46 -43t53 -26
t51.5 -8.5q40 0 80.5 11.5t66.5 27.5q22 10 32 19.5t24 9.5q8 0 15.5 -4.5t18.5 -16.5l101 -144q10 -14 10 -29q0 -14 -8.5 -26t-22.5 -21zM573 722q-27 0 -52 -9t-45.5 -24.5t-37 -35.5t-26.5 -42h335q-12 21 -28 41t-36.5 35.5t-47.5 25t-62 9.5zM917 164q14 -14 17 -25.5
t3 -22.5q0 -29 -15 -51t-37.5 -40t-48.5 -33.5t-48.5 -31t-37.5 -32.5t-15 -39q0 -63 171 -106q11 -6 11 -22q0 -9 -11 -35.5t-27 -54.5t-34 -50t-33 -22h-5q-76 23 -138.5 57.5t-107 74.5t-69 81t-24.5 77q0 37 15.5 64.5t38.5 49t49.5 38t49.5 30.5t38.5 28t15.5 30
q0 20 -22 35h264z" />
    <glyph glyph-name="Ecaron" unicode="&#x11a;" horiz-adv-x="1350"
d="M160 1441q0 44 44 44h995q44 0 44 -44v-257q0 -43 -44 -43h-652v-247h495q23 0 36 -11.5t13 -34.5v-206q0 -44 -49 -44h-495v-255h671q44 0 44 -44v-255q0 -44 -44 -44h-1014q-44 0 -44 44v1397zM419 1913q-5 2 -7 8t-2 14q1 6 2.5 12t6.5 10l110 107q6 10 22 10
q3 -1 9 -2.5t13 -4.5l142 -143l139 142q5 5 11 7t11 2q13 0 27 -11l108 -110q9 -11 9 -19q0 -17 -8 -23l-277 -276q-7 -5 -11 -7t-9 -2q-7 0 -11 2.5t-11 6.5z" />
    <glyph glyph-name="ecaron" unicode="&#x11b;" horiz-adv-x="1133"
d="M904 82q-66 -52 -146 -80t-168 -28q-105 0 -197.5 40t-162 110t-110 164t-40.5 201q0 101 36.5 194t102 164t154.5 113t194 42q98 0 186.5 -37t155 -101.5t105.5 -152t39 -187.5q0 -34 -7 -59t-24 -41t-46.5 -24t-74.5 -8h-495q10 -34 30.5 -59.5t46 -43t53 -26
t51.5 -8.5q40 0 80.5 11.5t66.5 27.5q22 10 32 19.5t24 9.5q8 0 15.5 -4.5t18.5 -16.5l101 -144q10 -14 10 -29q0 -14 -8.5 -26t-22.5 -21zM573 722q-27 0 -52 -9t-45.5 -24.5t-37 -35.5t-26.5 -42h335q-12 21 -28 41t-36.5 35.5t-47.5 25t-62 9.5zM285 1409q-5 2 -7 8
t-2 14q1 6 2.5 12t6.5 10l110 107q6 10 22 10q3 -1 9 -2.5t13 -4.5l142 -143l139 142q5 5 11 7t11 2q13 0 27 -11l108 -110q9 -11 9 -19q0 -17 -8 -23l-277 -276q-7 -5 -11 -7t-9 -2q-7 0 -11 2.5t-11 6.5z" />
    <glyph glyph-name="Gcircumflex" unicode="&#x11c;" horiz-adv-x="1474"
d="M857 348q32 1 71 5.5t70 14.5v264q0 44 44 44h269q13 0 28 -8t15 -36v-483q0 -14 -5 -26t-19 -21q-92 -58 -214.5 -90.5t-258.5 -32.5q-106 0 -204 27.5t-183.5 77.5t-156 120t-120.5 155.5t-77.5 183.5t-27.5 204q0 159 60 297.5t163.5 241.5t243 162t298.5 59
q135 0 239.5 -35.5t196.5 -102.5q33 -26 13 -57l-166 -237q-11 -17 -27 -18t-32 11q-46 32 -100 53t-120 21q-87 0 -157.5 -30.5t-120.5 -84t-77 -125.5t-27 -155t28.5 -156.5t79.5 -128t121 -85.5t153 -29zM1097 1829q14 -14 15.5 -30t-15.5 -32l-82 -78q-15 -15 -31 -14.5
t-30 14.5l-129 128l-126 -130q-14 -14 -30 -14.5t-32 14.5l-83 80q-17 16 -15.5 32t15.5 30l242 241q5 5 13 10t19 5q12 0 17.5 -3.5t13.5 -11.5z" />
    <glyph glyph-name="gcircumflex" unicode="&#x11d;" horiz-adv-x="1263"
d="M1133 57q0 -112 -33.5 -204t-98 -158t-159 -102t-216.5 -36q-100 0 -188 20.5t-165 68.5q-17 9 -28.5 22t-11.5 31q0 13 9 33l77 168q16 25 36 25q13 0 38 -11q15 -11 39 -20t51 -15t53 -9.5t46 -3.5q33 0 69 9.5t66.5 27.5t52.5 44.5t28 59.5q3 18 5.5 44.5t2.5 52.5v7
q-16 -20 -37.5 -41.5t-49.5 -38.5t-63 -28t-77 -11h-11q-108 0 -197.5 37t-154 103t-100.5 157t-36 199q0 111 35.5 206t100 164t154.5 108.5t199 39.5q39 0 83.5 -15.5t83.5 -40t67.5 -54t36.5 -57.5l13 83q3 21 7 33t11 18t17.5 7t26.5 1h158q24 0 42 -15.5t18 -41.5v-867
zM435 485q0 -40 12 -74t34 -59t53.5 -39t69.5 -14q39 0 72.5 14t57.5 39t37.5 59t13.5 74q0 39 -13.5 73t-37.5 59.5t-57.5 40.5t-72.5 15q-38 0 -69.5 -15t-53.5 -40.5t-34 -59.5t-12 -73zM835 1292q14 -14 15.5 -30t-15.5 -32l-82 -78q-15 -15 -31 -14.5t-30 14.5
l-129 128l-126 -130q-14 -14 -30 -14.5t-32 14.5l-83 80q-17 16 -15.5 32t15.5 30l242 241q5 5 13 10t19 5q12 0 17.5 -3.5t13.5 -11.5z" />
    <glyph glyph-name="Gbreve" unicode="&#x11e;" horiz-adv-x="1474"
d="M857 348q32 1 71 5.5t70 14.5v264q0 44 44 44h269q13 0 28 -8t15 -36v-483q0 -14 -5 -26t-19 -21q-92 -58 -214.5 -90.5t-258.5 -32.5q-106 0 -204 27.5t-183.5 77.5t-156 120t-120.5 155.5t-77.5 183.5t-27.5 204q0 159 60 297.5t163.5 241.5t243 162t298.5 59
q135 0 239.5 -35.5t196.5 -102.5q33 -26 13 -57l-166 -237q-11 -17 -27 -18t-32 11q-46 32 -100 53t-120 21q-87 0 -157.5 -30.5t-120.5 -84t-77 -125.5t-27 -155t28.5 -156.5t79.5 -128t121 -85.5t153 -29zM820 1703q-59 1 -109 22.5t-87 56.5t-58 79.5t-21 92.5
q0 17 11.5 27t26.5 10h144q11 0 17 -6.5t6 -15.5q0 -23 18 -41.5t56 -18.5q34 0 52.5 19t18.5 41q0 9 5 15.5t16 6.5h146q15 0 26.5 -10t11.5 -27q0 -49 -21.5 -94t-59.5 -79.5t-89 -55.5t-110 -22z" />
    <glyph glyph-name="gbreve" unicode="&#x11f;" horiz-adv-x="1263"
d="M1133 57q0 -112 -33.5 -204t-98 -158t-159 -102t-216.5 -36q-100 0 -188 20.5t-165 68.5q-17 9 -28.5 22t-11.5 31q0 13 9 33l77 168q16 25 36 25q13 0 38 -11q15 -11 39 -20t51 -15t53 -9.5t46 -3.5q33 0 69 9.5t66.5 27.5t52.5 44.5t28 59.5q3 18 5.5 44.5t2.5 52.5v7
q-16 -20 -37.5 -41.5t-49.5 -38.5t-63 -28t-77 -11h-11q-108 0 -197.5 37t-154 103t-100.5 157t-36 199q0 111 35.5 206t100 164t154.5 108.5t199 39.5q39 0 83.5 -15.5t83.5 -40t67.5 -54t36.5 -57.5l13 83q3 21 7 33t11 18t17.5 7t26.5 1h158q24 0 42 -15.5t18 -41.5v-867
zM435 485q0 -40 12 -74t34 -59t53.5 -39t69.5 -14q39 0 72.5 14t57.5 39t37.5 59t13.5 74q0 39 -13.5 73t-37.5 59.5t-57.5 40.5t-72.5 15q-38 0 -69.5 -15t-53.5 -40.5t-34 -59.5t-12 -73zM582 1203q-59 1 -109 22.5t-87 56.5t-58 79.5t-21 92.5q0 17 11.5 27t26.5 10h144
q11 0 17 -6.5t6 -15.5q0 -23 18 -41.5t56 -18.5q34 0 52.5 19t18.5 41q0 9 5 15.5t16 6.5h146q15 0 26.5 -10t11.5 -27q0 -49 -21.5 -94t-59.5 -79.5t-89 -55.5t-110 -22z" />
    <glyph glyph-name="Gdotaccent" unicode="&#x120;" horiz-adv-x="1474"
d="M857 348q32 1 71 5.5t70 14.5v264q0 44 44 44h269q13 0 28 -8t15 -36v-483q0 -14 -5 -26t-19 -21q-92 -58 -214.5 -90.5t-258.5 -32.5q-106 0 -204 27.5t-183.5 77.5t-156 120t-120.5 155.5t-77.5 183.5t-27.5 204q0 159 60 297.5t163.5 241.5t243 162t298.5 59
q135 0 239.5 -35.5t196.5 -102.5q33 -26 13 -57l-166 -237q-11 -17 -27 -18t-32 11q-46 32 -100 53t-120 21q-87 0 -157.5 -30.5t-120.5 -84t-77 -125.5t-27 -155t28.5 -156.5t79.5 -128t121 -85.5t153 -29zM660 1826q0 37 14.5 70.5t39 58t57.5 39t70 14.5q39 0 72.5 -14.5
t57.5 -39t38 -58t14 -70.5t-14 -70t-38 -57.5t-57.5 -39t-72.5 -14.5q-37 0 -70 14.5t-57.5 39t-39 57.5t-14.5 70z" />
    <glyph glyph-name="gdotaccent" unicode="&#x121;" horiz-adv-x="1263"
d="M1133 57q0 -112 -33.5 -204t-98 -158t-159 -102t-216.5 -36q-100 0 -188 20.5t-165 68.5q-17 9 -28.5 22t-11.5 31q0 13 9 33l77 168q16 25 36 25q13 0 38 -11q15 -11 39 -20t51 -15t53 -9.5t46 -3.5q33 0 69 9.5t66.5 27.5t52.5 44.5t28 59.5q3 18 5.5 44.5t2.5 52.5v7
q-16 -20 -37.5 -41.5t-49.5 -38.5t-63 -28t-77 -11h-11q-108 0 -197.5 37t-154 103t-100.5 157t-36 199q0 111 35.5 206t100 164t154.5 108.5t199 39.5q39 0 83.5 -15.5t83.5 -40t67.5 -54t36.5 -57.5l13 83q3 21 7 33t11 18t17.5 7t26.5 1h158q24 0 42 -15.5t18 -41.5v-867
zM435 485q0 -40 12 -74t34 -59t53.5 -39t69.5 -14q39 0 72.5 14t57.5 39t37.5 59t13.5 74q0 39 -13.5 73t-37.5 59.5t-57.5 40.5t-72.5 15q-38 0 -69.5 -15t-53.5 -40.5t-34 -59.5t-12 -73zM388 1337q0 37 14.5 70.5t39 58t57.5 39t70 14.5q39 0 72.5 -14.5t57.5 -39t38 -58
t14 -70.5t-14 -70t-38 -57.5t-57.5 -39t-72.5 -14.5q-37 0 -70 14.5t-57.5 39t-39 57.5t-14.5 70z" />
    <glyph glyph-name="Gcommaaccent" unicode="&#x122;" horiz-adv-x="1474"
d="M857 348q32 1 71 5.5t70 14.5v264q0 44 44 44h269q13 0 28 -8t15 -36v-483q0 -14 -5 -26t-19 -21q-92 -58 -214.5 -90.5t-258.5 -32.5q-106 0 -204 27.5t-183.5 77.5t-156 120t-120.5 155.5t-77.5 183.5t-27.5 204q0 159 60 297.5t163.5 241.5t243 162t298.5 59
q135 0 239.5 -35.5t196.5 -102.5q33 -26 13 -57l-166 -237q-11 -17 -27 -18t-32 11q-46 32 -100 53t-120 21q-87 0 -157.5 -30.5t-120.5 -84t-77 -125.5t-27 -155t28.5 -156.5t79.5 -128t121 -85.5t153 -29zM666 -296q0 39 14.5 72t39 57t57.5 38t70 14q39 0 72.5 -14
t58 -39.5t38 -62t13.5 -80.5q0 -96 -19 -166.5t-45.5 -117.5t-54 -70t-45.5 -23q-11 0 -17.5 2.5t-14.5 8.5l-42 32q-9 8 -14.5 20t-5.5 21q0 18 8 30.5t17 24.5t17 26t8 36v10q-31 5 -59 21.5t-49.5 41t-34 55t-12.5 63.5z" />
    <glyph glyph-name="gcommaaccent" unicode="&#x123;" horiz-adv-x="1263"
d="M1133 57q0 -112 -33.5 -204t-98 -158t-159 -102t-216.5 -36q-100 0 -188 20.5t-165 68.5q-17 9 -28.5 22t-11.5 31q0 13 9 33l77 168q16 25 36 25q13 0 38 -11q15 -11 39 -20t51 -15t53 -9.5t46 -3.5q33 0 69 9.5t66.5 27.5t52.5 44.5t28 59.5q3 18 5.5 44.5t2.5 52.5v7
q-16 -20 -37.5 -41.5t-49.5 -38.5t-63 -28t-77 -11h-11q-108 0 -197.5 37t-154 103t-100.5 157t-36 199q0 111 35.5 206t100 164t154.5 108.5t199 39.5q39 0 83.5 -15.5t83.5 -40t67.5 -54t36.5 -57.5l13 83q3 21 7 33t11 18t17.5 7t26.5 1h158q24 0 42 -15.5t18 -41.5v-867
zM435 485q0 -40 12 -74t34 -59t53.5 -39t69.5 -14q39 0 72.5 14t57.5 39t37.5 59t13.5 74q0 39 -13.5 73t-37.5 59.5t-57.5 40.5t-72.5 15q-38 0 -69.5 -15t-53.5 -40.5t-34 -59.5t-12 -73zM751.805 1265.35q0 -38.5195 -14.3389 -71.1123
q-14.3379 -32.5928 -38.5645 -56.2969q-24.2256 -23.7041 -56.8574 -37.5322q-32.6318 -13.8271 -69.2178 -13.8271q-38.5645 0 -71.6904 13.8271q-33.126 13.8281 -57.3525 39.0137t-37.5752 61.2354q-13.3496 36.0498 -13.3496 79.5078q0 94.8164 18.7881 164.447
t44.9922 116.051q26.2031 46.4209 53.3965 69.1367q27.1924 22.7168 44.9922 22.7168q10.877 0 17.3037 -2.46875q6.42773 -2.46973 14.3389 -8.39551l41.5303 -31.6055q8.89941 -7.90137 14.3379 -19.7539q5.43848 -11.8516 5.43848 -20.7412q0 -17.7773 -7.91016 -30.123
q-7.91113 -12.3467 -16.8105 -24.1982q-8.89941 -11.8525 -16.8096 -25.6797q-7.91113 -13.8271 -7.91113 -35.5557v-9.87695q30.6543 -4.93848 58.3418 -21.2354q27.6865 -16.2959 48.9463 -40.4941t33.6201 -54.3223q12.3613 -30.124 12.3613 -62.7168z" />
    <glyph glyph-name="Hcircumflex" unicode="&#x124;" horiz-adv-x="1645"
d="M1051 612h-502v-568q0 -44 -48 -44h-294q-43 0 -43 44v1397q0 18 10.5 31t32.5 13h300q13 0 27.5 -7.5t14.5 -34.5v-477h502v475q0 18 11 31t33 13h300q12 0 26.5 -7.5t14.5 -34.5v-1399q0 -44 -47 -44h-294q-44 0 -44 44v568zM1045 1829q14 -14 15.5 -30t-15.5 -32
l-82 -78q-15 -15 -31 -14.5t-30 14.5l-129 128l-126 -130q-14 -14 -30 -14.5t-32 14.5l-83 80q-17 16 -15.5 32t15.5 30l242 241q5 5 13 10t19 5q12 0 17.5 -3.5t13.5 -11.5z" />
    <glyph glyph-name="hcircumflex" unicode="&#x125;" horiz-adv-x="1251"
d="M484 49q0 -18 -8.5 -28t-20.5 -14.5t-26 -5.5t-25 -1h-217q-30 0 -43.5 13.5t-13.5 37.5v1381q0 23 13 37.5t40 14.5h244q26 0 41.5 -9.5t15.5 -41.5v-549q18 17 45.5 36.5t63.5 36t79.5 27t93.5 10.5q96 0 168.5 -32.5t122 -89.5t77 -134.5t34.5 -166.5q3 -42 3 -86
v-434q0 -24 -14.5 -37.5t-35.5 -13.5h-251q-27 0 -39 12t-12 37v477q0 31 -13.5 57t-35.5 45t-50 30t-58 11q-26 0 -56 -10t-56.5 -27.5t-44.5 -42t-21 -54.5v-486v-4v4v0zM606 1697q14 -14 15.5 -30t-15.5 -32l-82 -78q-15 -15 -31 -14.5t-30 14.5l-129 128l-126 -130
q-14 -14 -30 -14.5t-32 14.5l-83 80q-17 16 -15.5 32t15.5 30l242 241q5 5 13 10t19 5q12 0 17.5 -3.5t13.5 -11.5z" />
    <glyph glyph-name="Hbar" unicode="&#x126;" horiz-adv-x="1606"
d="M164 1441q0 17 12 30.5t31 13.5h297q15 0 31 -12.5t16 -31.5v-191h497v191q0 18 12.5 31t32.5 13h293q20 0 35 -10t15 -32v-1399q0 -22 -13 -33t-34 -11h-296q-20 0 -32.5 11t-12.5 33v428h-497v-428q0 -21 -13.5 -32.5t-36.5 -11.5h-294q-41 0 -43 39v1402zM1048 787
v167h-497v-167h497z" />
    <glyph glyph-name="hbar" unicode="&#x127;" horiz-adv-x="1271"
d="M486 49q0 -18 -8.5 -28t-20.5 -14.5t-26 -5.5t-25 -1h-217q-30 0 -43.5 13.5t-13.5 37.5v1043h-86q-44 0 -44 49v126q0 44 44 44h86v119q0 23 13 37.5t40 14.5h240q23 0 42 -11t19 -40v-120h88q18 0 31 -11.5t13 -32.5v-126q0 -15 -12 -32t-32 -17h-88v-210
q18 17 50 36.5t71.5 36t81.5 27t79 10.5q96 0 168.5 -32.5t122 -89.5t77 -134.5t34.5 -166.5q3 -42 3 -86v-434q0 -24 -14.5 -37.5t-35.5 -13.5h-251q-27 0 -39 12t-12 37v477q0 31 -13.5 57t-35.5 45t-50 30t-58 11q-26 0 -56 -10t-56.5 -27.5t-44.5 -42t-21 -54.5v-486v0z
" />
    <glyph glyph-name="Itilde" unicode="&#x128;" horiz-adv-x="708"
d="M164 1441q0 44 43 44h299q44 0 44 -44v-1397q0 -44 -44 -44h-299q-43 0 -43 44v1397zM134 1693q-9 -11 -18.5 -11t-19 5.5t-18.5 13.5t-15 14l-63 62q-15 13 -21 21t-5.5 15.5t7.5 17t19 26.5q41 60 99 94t124 34q38 -1 75 -17t70 -34.5t61.5 -34t48.5 -15.5
q26 0 41.5 13.5t35.5 38.5q19 24 38 23t35 -18l91 -92q13 -13 12 -24.5t-6 -17.5q-45 -69 -107.5 -107.5t-137.5 -38.5q-40 0 -75 15.5t-66.5 34.5t-60 34.5t-53.5 15.5q-19 0 -32 -7t-23.5 -17t-18.5 -22t-17 -22z" />
    <glyph glyph-name="itilde" unicode="&#x129;" horiz-adv-x="625"
d="M129 931q0 21 12.5 36.5t37.5 15.5h250q8 0 17.5 -4t18 -10.5t14 -16t5.5 -21.5v-880q0 -51 -55 -51h-250q-50 0 -50 51v880zM112 1189q-9 -11 -18.5 -11t-19 5.5t-18.5 13.5t-15 14l-63 62q-15 13 -21 21t-5.5 15.5t7.5 17t19 26.5q41 60 99 94t124 34q38 -1 75 -17
t70 -34.5t61.5 -34t48.5 -15.5q26 0 41.5 13.5t35.5 38.5q19 24 38 23t35 -18l91 -92q13 -13 12 -24.5t-6 -17.5q-45 -69 -107.5 -107.5t-137.5 -38.5q-40 0 -75 15.5t-66.5 34.5t-60 34.5t-53.5 15.5q-19 0 -32 -7t-23.5 -17t-18.5 -22t-17 -22z" />
    <glyph glyph-name="Imacron" unicode="&#x12a;" horiz-adv-x="708"
d="M164 1441q0 44 43 44h299q44 0 44 -44v-1397q0 -44 -44 -44h-299q-43 0 -43 44v1397zM-71 1867q0 35 35 35h749q15 0 25 -8.5t10 -26.5v-124q0 -12 -9 -26t-26 -14h-749q-35 0 -35 40v124z" />
    <glyph glyph-name="imacron" unicode="&#x12b;" horiz-adv-x="625"
d="M129 931q0 21 12.5 36.5t37.5 15.5h250q8 0 17.5 -4t18 -10.5t14 -16t5.5 -21.5v-880q0 -51 -55 -51h-250q-50 0 -50 51v880zM-77 1363q0 35 35 35h749q15 0 25 -8.5t10 -26.5v-124q0 -12 -9 -26t-26 -14h-749q-35 0 -35 40v124z" />
    <glyph glyph-name="Ibreve" unicode="&#x12c;" horiz-adv-x="708"
d="M164 1441q0 44 43 44h299q44 0 44 -44v-1397q0 -44 -44 -44h-299q-43 0 -43 44v1397zM345 1703q-59 1 -109 22.5t-87 56.5t-58 79.5t-21 92.5q0 17 11.5 27t26.5 10h144q11 0 17 -6.5t6 -15.5q0 -23 18 -41.5t56 -18.5q34 0 52.5 19t18.5 41q0 9 5 15.5t16 6.5h146
q15 0 26.5 -10t11.5 -27q0 -49 -21.5 -94t-59.5 -79.5t-89 -55.5t-110 -22z" />
    <glyph glyph-name="ibreve" unicode="&#x12d;" horiz-adv-x="625"
d="M292 1199q-59 1 -109 22.5t-87 56.5t-58 79.5t-21 92.5q0 17 11.5 27t26.5 10h144q11 0 17 -6.5t6 -15.5q0 -23 18 -41.5t56 -18.5q34 0 52.5 19t18.5 41q0 9 5 15.5t16 6.5h146q15 0 26.5 -10t11.5 -27q0 -49 -21.5 -94t-59.5 -79.5t-89 -55.5t-110 -22zM128 931
q0 21 12.5 36.5t37.5 15.5h250q8 0 17.5 -4t18 -10.5t14 -16t5.5 -21.5v-880q0 -51 -55 -51h-250q-50 0 -50 51v880z" />
    <glyph glyph-name="Iogonek" unicode="&#x12e;" horiz-adv-x="708"
d="M164 1441q0 44 43 44h299q44 0 44 -44v-1397q0 -44 -44 -44h-299q-43 0 -43 44v1397zM485 7q14 -14 17 -25.5t3 -22.5q0 -29 -15 -51t-37.5 -40t-48.5 -33.5t-48.5 -31t-37.5 -32.5t-15 -39q0 -63 171 -106q11 -6 11 -22q0 -9 -11 -35.5t-27 -54.5t-34 -50t-33 -22h-5
q-76 23 -138.5 57.5t-107 74.5t-69 81t-24.5 77q0 37 15.5 64.5t38.5 49t49.5 38t49.5 30.5t38.5 28t15.5 30q0 20 -22 35h264z" />
    <glyph glyph-name="iogonek" unicode="&#x12f;" horiz-adv-x="650"
d="M129 931q0 21 12.5 36.5t37.5 15.5h250q8 0 17.5 -4t18 -10.5t14 -16t5.5 -21.5v-880q0 -51 -55 -51h-250q-50 0 -50 51v880zM119 1292q0 37 14.5 70.5t39 58t57.5 39t70 14.5q39 0 72.5 -14.5t57.5 -39t38 -58t14 -70.5t-14 -70t-38 -57.5t-57.5 -39t-72.5 -14.5
q-37 0 -70 14.5t-57.5 39t-39 57.5t-14.5 70zM436 30q14 -14 17 -25.5t3 -22.5q0 -29 -15 -51t-37.5 -40t-48.5 -33.5t-48.5 -31t-37.5 -32.5t-15 -39q0 -63 171 -106q11 -6 11 -22q0 -9 -11 -35.5t-27 -54.5t-34 -50t-33 -22h-5q-76 23 -138.5 57.5t-107 74.5t-69 81
t-24.5 77q0 37 15.5 64.5t38.5 49t49.5 38t49.5 30.5t38.5 28t15.5 30q0 20 -22 35h264z" />
    <glyph glyph-name="Idotaccent" unicode="&#x130;" horiz-adv-x="708"
d="M164 1441q0 44 43 44h299q44 0 44 -44v-1397q0 -44 -44 -44h-299q-43 0 -43 44v1397zM167 1841q0 37 14.5 70.5t39 58t57.5 39t70 14.5q39 0 72.5 -14.5t57.5 -39t38 -58t14 -70.5t-14 -70t-38 -57.5t-57.5 -39t-72.5 -14.5q-37 0 -70 14.5t-57.5 39t-39 57.5t-14.5 70z
" />
    <glyph glyph-name="dotlessi" unicode="&#x131;" horiz-adv-x="625"
d="M128 931q0 21 12.5 36.5t37.5 15.5h250q8 0 17.5 -4t18 -10.5t14 -16t5.5 -21.5v-880q0 -51 -55 -51h-250q-50 0 -50 51v880z" />
    <glyph glyph-name="IJ" unicode="&#x132;" horiz-adv-x="1420"
d="M160 1441q0 18 11 31t33 13h294q15 0 32 -12t17 -32v-1397q0 -44 -49 -44h-294q-44 0 -44 44v1397zM871 1445q0 37 39 40h295q54 0 54 -52v-1394q0 -99 -39.5 -185.5t-106.5 -151t-155.5 -101.5t-186.5 -37q-58 0 -114 13t-107 38.5t-94 63t-76 86.5q-3 2 -3 16
q0 26 16 38l174 163q8 7 17 11.5t17 4.5q15 0 28.5 -11t30 -24.5t38.5 -24.5t53 -11q23 0 45 9t38.5 24t26.5 35.5t10 43.5v1406z" />
    <glyph glyph-name="ij" unicode="&#x133;" horiz-adv-x="1229"
d="M128 931q0 21 12.5 36.5t37.5 15.5h250q8 0 17.5 -4t18 -10.5t14 -16t5.5 -21.5v-880q0 -51 -55 -51h-250q-50 0 -50 51v880zM118 1292q0 37 14.5 70.5t39 58t57.5 39t70 14.5q39 0 72.5 -14.5t57.5 -39t38 -58t14 -70.5t-14 -70t-38 -57.5t-57.5 -39t-72.5 -14.5
q-37 0 -70 14.5t-57.5 39t-39 57.5t-14.5 70zM759 930q0 24 15 38t38 14h249q21 0 37.5 -15t16.5 -37v-899q0 -104 -32.5 -187t-92.5 -141t-144 -88.5t-186 -30.5q-29 0 -44 15t-15 40v191q0 23 13.5 36t34.5 13h4q21 0 40 8t33.5 22t23.5 34.5t9 46.5v940zM748 1292
q0 37 14.5 70.5t39 58t57.5 39t70 14.5q39 0 72.5 -14.5t57.5 -39t38 -58t14 -70.5t-14 -70t-38 -57.5t-57.5 -39t-72.5 -14.5q-37 0 -70 14.5t-57.5 39t-39 57.5t-14.5 70z" />
    <glyph glyph-name="Jcircumflex" unicode="&#x134;" horiz-adv-x="1032"
d="M480 1445q0 37 39 40h295q54 0 54 -52v-980q0 -99 -39.5 -185.5t-106.5 -151t-155.5 -101.5t-186.5 -37q-58 0 -114 13t-107 38.5t-94 63t-76 86.5q-3 2 -3 16q0 26 16 38l174 163q8 7 17 11.5t17 4.5q15 0 28.5 -11t30 -24.5t38.5 -24.5t53 -11q23 0 45 9t38.5 24
t26.5 35.5t10 43.5v992zM946 1827q14 -14 15.5 -30t-15.5 -32l-82 -78q-15 -15 -31 -14.5t-30 14.5l-129 128l-126 -130q-14 -14 -30 -14.5t-32 14.5l-83 80q-17 16 -15.5 32t15.5 30l242 241q5 5 13 10t19 5q12 0 17.5 -3.5t13.5 -11.5z" />
    <glyph glyph-name="jcircumflex" unicode="&#x135;" horiz-adv-x="606"
d="M128 930q0 24 15 38t38 14h249q21 0 37.5 -15t16.5 -37v-899q0 -104 -32.5 -187t-92.5 -141t-144 -88.5t-186 -30.5q-29 0 -44 15t-15 40v191q0 23 13.5 36t34.5 13h4q21 0 40 8t33.5 22t23.5 34.5t9 46.5v940zM571 1325q14 -14 15.5 -30t-15.5 -32l-82 -78
q-15 -15 -31 -14.5t-30 14.5l-129 128l-126 -130q-14 -14 -30 -14.5t-32 14.5l-83 80q-17 16 -15.5 32t15.5 30l242 241q5 5 13 10t19 5q12 0 17.5 -3.5t13.5 -11.5z" />
    <glyph glyph-name="Kcommaaccent" unicode="&#x136;" horiz-adv-x="1504"
d="M943 846l530 -799q14 -21 10.5 -34t-24.5 -13h-379q-22 0 -35.5 12t-25.5 32l-328 509l-147 -178v-331q0 -44 -44 -44h-299q-43 0 -43 44v1397q0 20 11.5 32t31.5 12h295q5 0 13.5 -3t16 -8.5t13 -13.5t5.5 -19v-548l430 559q19 24 35 28.5t39 4.5h360q12 0 17.5 -4.5
t6.5 -11.5t-2.5 -15t-9.5 -15zM512 -296q0 39 14.5 72t39 57t57.5 38t70 14q39 0 72.5 -14t58 -39.5t38 -62t13.5 -80.5q0 -96 -19 -166.5t-45.5 -117.5t-54 -70t-45.5 -23q-11 0 -17.5 2.5t-14.5 8.5l-42 32q-9 8 -14.5 20t-5.5 21q0 18 8 30.5t17 24.5t17 26t8 36v10
q-31 5 -59 21.5t-49.5 41t-34 55t-12.5 63.5z" />
    <glyph glyph-name="kcommaaccent" unicode="&#x137;" horiz-adv-x="1275"
d="M130 1432q0 23 9 37.5t43 14.5h253q23 0 36 -15.5t13 -32.5v-774q66 74 131.5 146.5t131.5 146.5q19 22 48 22h313q20 0 31 -9t11 -24q-1 -8 -3 -14t-11 -15l-316 -334l398 -511h-2q10 -10 14.5 -20.5t4.5 -18.5q0 -18 -9.5 -24.5t-29.5 -6.5h-326q-13 0 -31.5 9.5
t-29.5 30.5v-1l-251 357l-73 -75v-270q0 -17 -10.5 -34t-39.5 -17h-258q-12 0 -21 5t-15 12.5t-8.5 15.5t-2.5 14v1385zM343 -296q0 39 14.5 72t39 57t57.5 38t70 14q39 0 72.5 -14t58 -39.5t38 -62t13.5 -80.5q0 -96 -19 -166.5t-45.5 -117.5t-54 -70t-45.5 -23
q-11 0 -17.5 2.5t-14.5 8.5l-42 32q-9 8 -14.5 20t-5.5 21q0 18 8 30.5t17 24.5t17 26t8 36v10q-31 5 -59 21.5t-49.5 41t-34 55t-12.5 63.5z" />
    <glyph glyph-name="kgreenlandic" unicode="&#x138;" horiz-adv-x="1275"
d="M130 932q0 23 9 37.5t43 14.5h253q23 0 36 -15.5t13 -32.5v-274q66 74 131.5 146.5t131.5 146.5q19 22 48 22h313q20 0 31 -9t11 -24q-1 -8 -3 -14t-11 -15l-316 -334l398 -511h-2q10 -10 14.5 -20.5t4.5 -18.5q0 -18 -9.5 -24.5t-29.5 -6.5h-326q-13 0 -31.5 9.5
t-29.5 30.5v-1l-251 357l-73 -75v-270q0 -17 -10.5 -34t-39.5 -17h-258q-12 0 -21 5t-15 12.5t-8.5 15.5t-2.5 14v885zM810 38l-1 1z" />
    <glyph glyph-name="Lacute" unicode="&#x139;" horiz-adv-x="1204"
d="M160 1441q0 22 13 33t30 11h299q43 0 43 -44v-1087h555q43 0 43 -44v-266q0 -44 -43 -44h-897q-43 0 -43 44v1397zM525 1724q-7 -15 -13 -24t-12.5 -13.5t-15.5 -6t-21 -1.5h-201q-14 0 -27 11t-5 39l76 222q9 25 22.5 35t39.5 10h227q19 0 27.5 -17t0.5 -37z" />
    <glyph glyph-name="lacute" unicode="&#x13a;" horiz-adv-x="614"
d="M128 1432q0 22 12 37t38 15h250q7 0 16.5 -4t18 -10.5t14 -16t5.5 -21.5v-1381q0 -26 -14 -38.5t-40 -12.5h-250q-50 0 -50 51v1381zM453 1722q-7 -15 -13 -24t-12.5 -13.5t-15.5 -6t-21 -1.5h-201q-14 0 -27 11t-5 39l76 222q9 25 22.5 35t39.5 10h227q19 0 27.5 -17
t0.5 -37z" />
    <glyph glyph-name="Lcommaaccent" unicode="&#x13b;" horiz-adv-x="1204"
d="M160 1441q0 22 13 33t30 11h299q43 0 43 -44v-1087h555q43 0 43 -44v-266q0 -44 -43 -44h-897q-43 0 -43 44v1397zM428 -296q0 39 14.5 72t39 57t57.5 38t70 14q39 0 72.5 -14t58 -39.5t38 -62t13.5 -80.5q0 -96 -19 -166.5t-45.5 -117.5t-54 -70t-45.5 -23
q-11 0 -17.5 2.5t-14.5 8.5l-42 32q-9 8 -14.5 20t-5.5 21q0 18 8 30.5t17 24.5t17 26t8 36v10q-31 5 -59 21.5t-49.5 41t-34 55t-12.5 63.5z" />
    <glyph glyph-name="lcommaaccent" unicode="&#x13c;" horiz-adv-x="614"
d="M131 1432q0 22 12 37t38 15h250q7 0 16.5 -4t18 -10.5t14 -16t5.5 -21.5v-1381q0 -26 -14 -38.5t-40 -12.5h-250q-50 0 -50 51v1381zM112 -296q0 39 14.5 72t39 57t57.5 38t70 14q39 0 72.5 -14t58 -39.5t38 -62t13.5 -80.5q0 -96 -19 -166.5t-45.5 -117.5t-54 -70
t-45.5 -23q-11 0 -17.5 2.5t-14.5 8.5l-42 32q-9 8 -14.5 20t-5.5 21q0 18 8 30.5t17 24.5t17 26t8 36v10q-31 5 -59 21.5t-49.5 41t-34 55t-12.5 63.5z" />
    <glyph glyph-name="Lcaron" unicode="&#x13d;" horiz-adv-x="1204"
d="M160 1441q0 22 13 33t30 11h299q43 0 43 -44v-1087h555q43 0 43 -44v-266q0 -44 -43 -44h-897q-43 0 -43 44v1397zM696 1452q0 39 14.5 72t39 57t57.5 38t70 14q39 0 72.5 -14t58 -39.5t38 -62t13.5 -80.5q0 -96 -19 -166.5t-45.5 -117.5t-54 -70t-45.5 -23
q-11 0 -17.5 2.5t-14.5 8.5l-47 34q-18 18 -18 35q0 12 7 23.5t16 25.5q11 11 20.5 28t9.5 44v10q-31 5 -59 21.5t-49.5 41t-34 55t-12.5 63.5z" />
    <glyph glyph-name="lcaron" unicode="&#x13e;" horiz-adv-x="696"
d="M131 1432q0 22 12 37t38 15h250q7 0 16.5 -4t18 -10.5t14 -16t5.5 -21.5v-1381q0 -26 -14 -38.5t-40 -12.5h-250q-50 0 -50 51v1381zM543.725 1480.61q0 34.9795 13.0166 64.5771q13.0166 29.5986 35.0107 51.124t51.6182 34.083q29.624 12.5566 62.8389 12.5566
q35.0107 0 65.084 -12.5566q30.0732 -12.5576 52.0664 -35.4287q21.9941 -22.8711 34.1133 -55.6084t12.1191 -72.2012q0 -86.1035 -17.0566 -149.336t-40.8457 -105.387q-23.7891 -42.1553 -48.4756 -62.7842q-24.6875 -20.6289 -40.8457 -20.6289q-9.875 0 -15.71 2.24219
t-13.0166 7.62402l-42.1924 30.4951q-16.1582 16.1445 -16.1582 31.3916q0 10.7627 6.2832 21.0771q6.28418 10.3145 14.3633 22.8711q9.875 9.86621 18.4033 25.1143q8.52832 15.2471 8.52832 39.4639v8.96875q-27.8291 4.48535 -52.9648 19.2842t-44.4365 36.7734
q-19.3008 21.9736 -30.5215 49.3301q-11.2217 27.3555 -11.2217 56.9541z" />
    <glyph glyph-name="Ldot" unicode="&#x13f;" horiz-adv-x="1204"
d="M160 1441q0 22 13 33t30 11h299q43 0 43 -44v-1087h555q43 0 43 -44v-266q0 -44 -43 -44h-897q-43 0 -43 44v1397zM802 737q0 33 12.5 61.5t34 50t50 34t60.5 12.5q34 0 63 -12.5t50 -34t33 -50t12 -61.5q0 -32 -12 -60.5t-33 -50t-50 -34t-63 -12.5q-32 0 -60.5 12.5
t-50 34t-34 50t-12.5 60.5z" />
    <glyph glyph-name="ldot" unicode="&#x140;" horiz-adv-x="744"
d="M126 1432q0 22 12 37t38 15h250q7 0 16.5 -4t18 -10.5t14 -16t5.5 -21.5v-1381q0 -26 -14 -38.5t-40 -12.5h-250q-50 0 -50 51v1381zM581 638q0 33 12.5 61.5t34 50t50 34t60.5 12.5q34 0 63 -12.5t50 -34t33 -50t12 -61.5q0 -32 -12 -60.5t-33 -50t-50 -34t-63 -12.5
q-32 0 -60.5 12.5t-50 34t-34 50t-12.5 60.5z" />
    <glyph glyph-name="Lslash" unicode="&#x141;" horiz-adv-x="1204"
d="M680 995q4 1 6.5 1.5t5.5 0.5q19 0 20 -22v-133q0 -6 -2 -14q-10 -23 -32 -30l-643 -229q-9 -3 -16 -3q-20 2 -19 25v133q0 10 2 14q5 10 13.5 17.5t23.5 12.5zM160 1441q0 22 13 33t30 11h299q43 0 43 -44v-1087h555q43 0 43 -44v-266q0 -44 -43 -44h-897q-43 0 -43 44
v1397z" />
    <glyph glyph-name="lslash" unicode="&#x142;" horiz-adv-x="650"
d="M612 960q8 2 12 2q18 0 21 -22l2 -126q0 -14 -9.5 -26.5t-23.5 -17.5l-581 -206q-9 -3 -16 -3q-20 0 -20 25l-2 126q1 14 9.5 26t27.5 18zM132 1432q0 22 12 37t38 15h250q7 0 16.5 -4t18 -10.5t14 -16t5.5 -21.5v-1381q0 -26 -14 -38.5t-40 -12.5h-250q-50 0 -50 51
v1381z" />
    <glyph glyph-name="Nacute" unicode="&#x143;" horiz-adv-x="1645"
d="M535 909v-865q0 -44 -49 -44h-279q-43 0 -43 44v1397q0 18 10.5 31t32.5 13h324q43 0 71 -44l501 -811v811q0 18 11 31t34 13h278q16 0 32.5 -12t16.5 -32v-1397q0 -44 -49 -44h-293q-45 0 -72 44zM940 1724q-7 -15 -13 -24t-12.5 -13.5t-15.5 -6t-21 -1.5h-201
q-14 0 -27 11t-5 39l76 222q9 25 22.5 35t39.5 10h227q19 0 27.5 -17t0.5 -37z" />
    <glyph glyph-name="nacute" unicode="&#x144;" horiz-adv-x="1251"
d="M130 923q0 31 14 45.5t47 14.5h130q28 0 47.5 -11.5t33 -30t23 -43t16.5 -50.5q18 21 50.5 46.5t74.5 48t90.5 37.5t97.5 15q114 0 190.5 -30.5t122.5 -91.5t65.5 -154t19.5 -217v-451q0 -24 -15 -37.5t-36 -13.5h-251q-27 0 -39 12t-12 37v478q0 69 -34 104t-111 35
q-23 0 -51 -9t-53.5 -26t-43.5 -42t-20 -56v-483q0 -25 -11.5 -37.5t-43.5 -12.5h-248q-27 0 -40 14.5t-13 36.5v872zM712 1216q-7 -15 -13 -24t-12.5 -13.5t-15.5 -6t-21 -1.5h-201q-14 0 -27 11t-5 39l76 222q9 25 22.5 35t39.5 10h227q19 0 27.5 -17t0.5 -37z" />
    <glyph glyph-name="Ncommaaccent" unicode="&#x145;" horiz-adv-x="1645"
d="M535 909v-865q0 -44 -49 -44h-279q-43 0 -43 44v1397q0 18 10.5 31t32.5 13h324q43 0 71 -44l501 -811v811q0 18 11 31t34 13h278q16 0 32.5 -12t16.5 -32v-1397q0 -44 -49 -44h-293q-45 0 -72 44zM601 -296q0 39 14.5 72t39 57t57.5 38t70 14q39 0 72.5 -14t58 -39.5
t38 -62t13.5 -80.5q0 -96 -19 -166.5t-45.5 -117.5t-54 -70t-45.5 -23q-11 0 -17.5 2.5t-14.5 8.5l-42 32q-9 8 -14.5 20t-5.5 21q0 18 8 30.5t17 24.5t17 26t8 36v10q-31 5 -59 21.5t-49.5 41t-34 55t-12.5 63.5z" />
    <glyph glyph-name="ncommaaccent" unicode="&#x146;" horiz-adv-x="1251"
d="M130 923q0 31 14 45.5t47 14.5h130q28 0 47.5 -11.5t33 -30t23 -43t16.5 -50.5q18 21 50.5 46.5t74.5 48t90.5 37.5t97.5 15q114 0 190.5 -30.5t122.5 -91.5t65.5 -154t19.5 -217v-451q0 -24 -15 -37.5t-36 -13.5h-251q-27 0 -39 12t-12 37v478q0 69 -34 104t-111 35
q-23 0 -51 -9t-53.5 -26t-43.5 -42t-20 -56v-483q0 -25 -11.5 -37.5t-43.5 -12.5h-248q-27 0 -40 14.5t-13 36.5v872zM438 -321q0 39 14.5 72t39 57t57.5 38t70 14q39 0 72.5 -14t58 -39.5t38 -62t13.5 -80.5q0 -96 -19 -166.5t-45.5 -117.5t-54 -70t-45.5 -23
q-11 0 -17.5 2.5t-14.5 8.5l-42 32q-9 8 -14.5 20t-5.5 21q0 18 8 30.5t17 24.5t17 26t8 36v10q-31 5 -59 21.5t-49.5 41t-34 55t-12.5 63.5z" />
    <glyph glyph-name="Ncaron" unicode="&#x147;" horiz-adv-x="1645"
d="M535 909v-865q0 -44 -49 -44h-279q-43 0 -43 44v1397q0 18 10.5 31t32.5 13h324q43 0 71 -44l501 -811v811q0 18 11 31t34 13h278q16 0 32.5 -12t16.5 -32v-1397q0 -44 -49 -44h-293q-45 0 -72 44zM499 1913q-5 2 -7 8t-2 14q1 6 2.5 12t6.5 10l110 107q6 10 22 10
q3 -1 9 -2.5t13 -4.5l142 -143l139 142q5 5 11 7t11 2q13 0 27 -11l108 -110q9 -11 9 -19q0 -17 -8 -23l-277 -276q-7 -5 -11 -7t-9 -2q-7 0 -11 2.5t-11 6.5z" />
    <glyph glyph-name="ncaron" unicode="&#x148;" horiz-adv-x="1251"
d="M130 923q0 31 14 45.5t47 14.5h130q28 0 47.5 -11.5t33 -30t23 -43t16.5 -50.5q18 21 50.5 46.5t74.5 48t90.5 37.5t97.5 15q114 0 190.5 -30.5t122.5 -91.5t65.5 -154t19.5 -217v-451q0 -24 -15 -37.5t-36 -13.5h-251q-27 0 -39 12t-12 37v478q0 69 -34 104t-111 35
q-23 0 -51 -9t-53.5 -26t-43.5 -42t-20 -56v-483q0 -25 -11.5 -37.5t-43.5 -12.5h-248q-27 0 -40 14.5t-13 36.5v872zM284 1409q-5 2 -7 8t-2 14q1 6 2.5 12t6.5 10l110 107q6 10 22 10q3 -1 9 -2.5t13 -4.5l142 -143l139 142q5 5 11 7t11 2q13 0 27 -11l108 -110
q9 -11 9 -19q0 -17 -8 -23l-277 -276q-7 -5 -11 -7t-9 -2q-7 0 -11 2.5t-11 6.5z" />
    <glyph glyph-name="napostrophe" unicode="&#x149;" horiz-adv-x="1306"
d="M156 923q0 31 14 45.5t47 14.5h130q28 0 47.5 -11.5t33 -30t23 -43t16.5 -50.5q18 21 50.5 46.5t74.5 48t90.5 37.5t97.5 15q114 0 190.5 -30.5t122.5 -91.5t65.5 -154t19.5 -217v-451q0 -24 -15 -37.5t-36 -13.5h-251q-27 0 -39 12t-12 37v478q0 69 -34 104t-111 35
q-23 0 -51 -9t-53.5 -26t-43.5 -42t-20 -56v-483q0 -25 -11.5 -37.5t-43.5 -12.5h-248q-27 0 -40 14.5t-13 36.5v872zM-155 1271q0 39 14.5 72t39 57t57.5 38t70 14q39 0 72.5 -14t58 -39.5t38 -62t13.5 -80.5q0 -96 -19 -166.5t-45.5 -117.5t-54 -70t-45.5 -23
q-11 0 -17.5 2.5t-14.5 8.5l-42 32q-9 8 -14.5 20t-5.5 21q0 18 8 30.5t17 24.5t17 26t8 36v10q-31 5 -59 21.5t-49.5 41t-34 55t-12.5 63.5z" />
    <glyph glyph-name="Eng" unicode="&#x14a;" horiz-adv-x="1645"
d="M1473 39q0 -93 -40.5 -175.5t-108 -143.5t-156 -96.5t-183.5 -35.5q-58 0 -114 13t-106.5 38.5t-94 63t-76.5 86.5q-3 1 -3 16q0 26 16 38l174 163q8 8 17 11.5t17 4.5q15 0 28.5 -11t30 -24.5t38.5 -24.5t53 -11q35 0 65.5 19.5t44.5 49.5q-6 5 -10 13
q-133 220 -263 435t-264 435v-859q0 -22 -10 -33t-36 -11h-284q-23 0 -33.5 12.5t-10.5 30.5v1398q0 18 11 31t33 13h327q14 0 29 -7t26 -24q124 -201 247 -396t248 -396v783q0 37 39 40h302q20 -1 33.5 -12.5t13.5 -31.5v-1402v0z" />
    <glyph glyph-name="eng" unicode="&#x14b;" horiz-adv-x="1251"
d="M799 527q0 30 -11 55.5t-30.5 44t-46 29t-57.5 10.5q-23 0 -51 -9t-53.5 -26t-43.5 -42t-20 -56v-483q0 -17 -4 -27t-11.5 -15t-19 -6.5t-27.5 -1.5h-241q-27 0 -40 14.5t-13 36.5v870q0 16 9.5 33t26.5 17h4q5 5 10.5 6t10.5 1h130q23 0 39 -9.5t28 -20.5
q23 -11 32.5 -36.5t20.5 -63.5q6 8 10 12q18 21 39.5 44.5t50 43.5t64 33t81.5 13q225 0 345.5 -127.5t120.5 -374.5v-563q0 -87 -36.5 -163.5t-97.5 -133.5t-140.5 -90t-166.5 -33q-51 0 -101 11.5t-94.5 34t-83 55.5t-66.5 77q-3 2 -3 14q0 23 14 33l154 144q7 6 14.5 10
t15.5 4q13 0 25 -9.5t26.5 -21.5t34 -21.5t46.5 -9.5q21 0 40 7.5t33.5 21t23.5 31.5t9 39v598z" />
    <glyph glyph-name="Omacron" unicode="&#x14c;" horiz-adv-x="1706"
d="M478 742q0 -83 28 -155t78.5 -125.5t119.5 -84t152 -30.5t152.5 30.5t120 84t78.5 125.5t28 155q0 82 -28 154.5t-78.5 126.5t-120 85t-152.5 31t-152 -31t-119.5 -85t-78.5 -126.5t-28 -154.5zM92 741q0 106 27 203.5t77 183t119.5 155.5t154.5 119.5t182.5 77
t203.5 27.5q105 0 203 -27.5t183 -77t155 -119.5t119.5 -155.5t77 -183t27.5 -203.5t-27.5 -203.5t-77 -182t-119.5 -154t-155 -119.5t-183 -77t-203 -27q-106 0 -203.5 27t-182.5 77t-154.5 119.5t-119.5 154t-77 182t-27 203.5zM445 1848q0 35 35 35h749q15 0 25 -8.5
t10 -26.5v-124q0 -12 -9 -26t-26 -14h-749q-35 0 -35 40v124z" />
    <glyph glyph-name="omacron" unicode="&#x14d;" horiz-adv-x="1206"
d="M80 488q0 106 41 200t111.5 163.5t166 110t205.5 40.5q108 0 203.5 -40.5t166 -110t111.5 -163.5t41 -200t-41 -198.5t-111.5 -160.5t-166 -107.5t-203.5 -39.5q-73 0 -140 18t-125.5 50.5t-106 78.5t-81.5 102t-52.5 121t-18.5 136zM436 485q0 -40 12 -74t34 -59
t53.5 -39t70.5 -14t70 14t53 39t34 59t12 74q0 39 -12 73t-34 59.5t-53 40.5t-70 15t-70.5 -15t-53.5 -40.5t-34 -59.5t-12 -73zM185 1363q0 35 35 35h749q15 0 25 -8.5t10 -26.5v-124q0 -12 -9 -26t-26 -14h-749q-35 0 -35 40v124z" />
    <glyph glyph-name="Obreve" unicode="&#x14e;" horiz-adv-x="1704"
d="M478 742q0 -83 28 -155t78.5 -125.5t119.5 -84t152 -30.5t152.5 30.5t120 84t78.5 125.5t28 155q0 82 -28 154.5t-78.5 126.5t-120 85t-152.5 31t-152 -31t-119.5 -85t-78.5 -126.5t-28 -154.5zM92 741q0 106 27 203.5t77 183t119.5 155.5t154.5 119.5t182.5 77
t203.5 27.5q105 0 203 -27.5t183 -77t155 -119.5t119.5 -155.5t77 -183t27.5 -203.5t-27.5 -203.5t-77 -182t-119.5 -154t-155 -119.5t-183 -77t-203 -27q-106 0 -203.5 27t-182.5 77t-154.5 119.5t-119.5 154t-77 182t-27 203.5zM851 1703q-59 1 -109 22.5t-87 56.5
t-58 79.5t-21 92.5q0 17 11.5 27t26.5 10h144q11 0 17 -6.5t6 -15.5q0 -23 18 -41.5t56 -18.5q34 0 52.5 19t18.5 41q0 9 5 15.5t16 6.5h146q15 0 26.5 -10t11.5 -27q0 -49 -21.5 -94t-59.5 -79.5t-89 -55.5t-110 -22z" />
    <glyph glyph-name="obreve" unicode="&#x14f;" horiz-adv-x="1206"
d="M80 488q0 106 41 200t111.5 163.5t166 110t205.5 40.5q108 0 203.5 -40.5t166 -110t111.5 -163.5t41 -200t-41 -198.5t-111.5 -160.5t-166 -107.5t-203.5 -39.5q-73 0 -140 18t-125.5 50.5t-106 78.5t-81.5 102t-52.5 121t-18.5 136zM436 485q0 -40 12 -74t34 -59
t53.5 -39t70.5 -14t70 14t53 39t34 59t12 74q0 39 -12 73t-34 59.5t-53 40.5t-70 15t-70.5 -15t-53.5 -40.5t-34 -59.5t-12 -73zM592 1199q-59 1 -109 22.5t-87 56.5t-58 79.5t-21 92.5q0 17 11.5 27t26.5 10h144q11 0 17 -6.5t6 -15.5q0 -23 18 -41.5t56 -18.5
q34 0 52.5 19t18.5 41q0 9 5 15.5t16 6.5h146q15 0 26.5 -10t11.5 -27q0 -49 -21.5 -94t-59.5 -79.5t-89 -55.5t-110 -22z" />
    <glyph glyph-name="Ohungarumlaut" unicode="&#x150;" horiz-adv-x="1704"
d="M478 742q0 -83 28 -155t78.5 -125.5t119.5 -84t152 -30.5t152.5 30.5t120 84t78.5 125.5t28 155q0 82 -28 154.5t-78.5 126.5t-120 85t-152.5 31t-152 -31t-119.5 -85t-78.5 -126.5t-28 -154.5zM92 741q0 106 27 203.5t77 183t119.5 155.5t154.5 119.5t182.5 77
t203.5 27.5q105 0 203 -27.5t183 -77t155 -119.5t119.5 -155.5t77 -183t27.5 -203.5t-27.5 -203.5t-77 -182t-119.5 -154t-155 -119.5t-183 -77t-203 -27q-106 0 -203.5 27t-182.5 77t-154.5 119.5t-119.5 154t-77 182t-27 203.5zM616 1947q19 42 53 42h212q19 0 26 -7
t7 -18q0 -8 -3 -18.5t-8 -20.5l-88 -205q-12 -22 -23.5 -32t-30.5 -10h-219q-26 0 -26 22q0 8 1 17t8 20zM1068 1947q19 42 53 42h212q19 0 26 -7t7 -18q0 -8 -3 -18.5t-8 -20.5l-88 -205q-12 -22 -23.5 -32t-30.5 -10h-219q-26 0 -26 22q0 8 1 17t8 20z" />
    <glyph glyph-name="ohungarumlaut" unicode="&#x151;" horiz-adv-x="1206"
d="M80 488q0 106 41 200t111.5 163.5t166 110t205.5 40.5q108 0 203.5 -40.5t166 -110t111.5 -163.5t41 -200t-41 -198.5t-111.5 -160.5t-166 -107.5t-203.5 -39.5q-73 0 -140 18t-125.5 50.5t-106 78.5t-81.5 102t-52.5 121t-18.5 136zM436 485q0 -40 12 -74t34 -59
t53.5 -39t70.5 -14t70 14t53 39t34 59t12 74q0 39 -12 73t-34 59.5t-53 40.5t-70 15t-70.5 -15t-53.5 -40.5t-34 -59.5t-12 -73zM320 1443q19 42 53 42h212q19 0 26 -7t7 -18q0 -8 -3 -18.5t-8 -20.5l-88 -205q-12 -22 -23.5 -32t-30.5 -10h-219q-26 0 -26 22q0 8 1 17t8 20
zM772 1443q19 42 53 42h212q19 0 26 -7t7 -18q0 -8 -3 -18.5t-8 -20.5l-88 -205q-12 -22 -23.5 -32t-30.5 -10h-219q-26 0 -26 22q0 8 1 17t8 20z" />
    <glyph glyph-name="OE" unicode="&#x152;" horiz-adv-x="2428"
d="M82 745q0 106 27 203.5t77 183t119.5 155.5t154.5 119.5t182.5 77t203.5 27.5q104 0 200 -26.5t181 -75.5v34q0 21 11.5 33.5t32.5 12.5h993q22 0 34 -13t12 -35v-248q0 -17 -12 -32.5t-35 -15.5h-648v-247h500q19 0 31.5 -9t12.5 -30v-216q0 -14 -11 -27t-32 -13h-501
v-255h672q45 0 45 -46v-252q0 -10 -8 -18q-4 -28 -41 -28h-1012q-20 0 -32 10.5t-12 32.5v36q-85 -49 -181 -75t-200 -26q-106 0 -203.5 27t-182.5 77t-154.5 119.5t-119.5 154t-77 182t-27 203.5zM468 746q0 -83 28 -155t78.5 -125.5t119.5 -84t152 -30.5t152.5 30.5
t120 84t78.5 125.5t28 155q0 82 -28 154.5t-78.5 126.5t-120 85t-152.5 31t-152 -31t-119.5 -85t-78.5 -126.5t-28 -154.5z" />
    <glyph glyph-name="oe" unicode="&#x153;" horiz-adv-x="1868"
d="M88 488q0 106 41 198.5t111.5 160t166 106.5t205.5 39q102 0 191.5 -34t158.5 -95q64 60 147 94.5t180 34.5q96 0 179.5 -34t148 -93.5t106 -141t52.5 -177.5q-1 -40 -6.5 -69t-22 -48t-46 -28t-77.5 -9h-495q10 -34 30.5 -59.5t46 -43t53 -26t51.5 -8.5q40 0 80.5 11.5
t66.5 27.5q22 10 32 19.5t24 9.5q8 0 15.5 -4.5t18.5 -16.5l20 -28q19 -27 39 -52.5t41 -51.5v1q7 -8 9.5 -16t2.5 -14q0 -17 -10.5 -28.5t-21.5 -20.5q-66 -52 -145.5 -80t-168.5 -28q-100 0 -188 34.5t-157 96.5q-70 -63 -161 -98t-194 -35q-73 0 -140 18t-125.5 50.5
t-106 78.5t-81.5 102t-52.5 121t-18.5 136zM444 485q0 -40 12 -74t34 -59t53.5 -39t70.5 -14t70 14t53 39t34 59t12 74q0 39 -12 73t-34 59.5t-53 40.5t-70 15t-70.5 -15t-53.5 -40.5t-34 -59.5t-12 -73zM1295 722q-27 0 -52 -9t-45.5 -24.5t-37 -35.5t-26.5 -42h335
q-12 21 -28 41t-36.5 35.5t-47.5 25t-62 9.5z" />
    <glyph glyph-name="Racute" unicode="&#x154;" horiz-adv-x="1406"
d="M162 1441q0 16 10.5 30t32.5 14h664q106 0 193 -42.5t149.5 -112.5t97 -160t34.5 -184q0 -60 -17.5 -118t-50 -111t-77.5 -99t-99 -81l286 -533q8 -14 2.5 -29t-27.5 -15h-360q-21 0 -31 8.5t-23 33.5l-237 452h-161v-450q0 -44 -44 -44h-299q-43 0 -43 44v1397z
M548 1176v-362h222q39 0 72 15.5t56.5 40.5t36.5 57.5t13 66.5q0 33 -13 65.5t-37 58.5t-56.5 42t-71.5 16h-222zM740 1724q-7 -15 -13 -24t-12.5 -13.5t-15.5 -6t-21 -1.5h-201q-14 0 -27 11t-5 39l76 222q9 25 22.5 35t39.5 10h227q19 0 27.5 -17t0.5 -37z" />
    <glyph glyph-name="racute" unicode="&#x155;" horiz-adv-x="980"
d="M666 1220q-7 -15 -13 -24t-12.5 -13.5t-15.5 -6t-21 -1.5h-201q-14 0 -27 11t-5 39l76 222q9 25 22.5 35t39.5 10h227q19 0 27.5 -17t0.5 -37zM129 926q0 30 20.5 43.5t41.5 13.5h166q14 0 22.5 -5.5t14.5 -14t10.5 -19t10.5 -21.5q1 -2 5.5 -14.5t10.5 -27.5t11 -28
t6 -15q19 29 41.5 56.5t49.5 49.5t59 35t72 13q42 0 74.5 -6t62 -18t58 -30t62.5 -43q32 -17 32 -46q0 -20 -12 -39l-112 -170q-11 -16 -26 -25.5t-30 -9.5q-17 0 -30 13q-17 16 -30.5 27t-27.5 18.5t-30 11t-37 3.5q-30 0 -55.5 -10.5t-44 -28t-29 -41t-10.5 -49.5v-490
q0 -29 -14.5 -44t-47.5 -15h-234q-29 0 -44.5 15t-15.5 44v867z" />
    <glyph glyph-name="Rcommaaccent" unicode="&#x156;" horiz-adv-x="1418"
d="M162 1441q0 16 10.5 30t32.5 14h664q106 0 193 -42.5t149.5 -112.5t97 -160t34.5 -184q0 -60 -17.5 -118t-50 -111t-77.5 -99t-99 -81l286 -533q8 -14 2.5 -29t-27.5 -15h-360q-21 0 -31 8.5t-23 33.5l-237 452h-161v-450q0 -44 -44 -44h-299q-43 0 -43 44v1397z
M548 1176v-362h222q39 0 72 15.5t56.5 40.5t36.5 57.5t13 66.5q0 33 -13 65.5t-37 58.5t-56.5 42t-71.5 16h-222zM500 -296q0 39 14.5 72t39 57t57.5 38t70 14q39 0 72.5 -14t58 -39.5t38 -62t13.5 -80.5q0 -96 -19 -166.5t-45.5 -117.5t-54 -70t-45.5 -23q-11 0 -17.5 2.5
t-14.5 8.5l-42 32q-9 8 -14.5 20t-5.5 21q0 18 8 30.5t17 24.5t17 26t8 36v10q-31 5 -59 21.5t-49.5 41t-34 55t-12.5 63.5z" />
    <glyph glyph-name="rcommaaccent" unicode="&#x157;" horiz-adv-x="980"
d="M129 926q0 30 20.5 43.5t41.5 13.5h166q14 0 22.5 -5.5t14.5 -14t10.5 -19t10.5 -21.5q1 -2 5.5 -14.5t10.5 -27.5t11 -28t6 -15q19 29 41.5 56.5t49.5 49.5t59 35t72 13q42 0 74.5 -6t62 -18t58 -30t62.5 -43q32 -17 32 -46q0 -20 -12 -39l-112 -170q-11 -16 -26 -25.5
t-30 -9.5q-17 0 -30 13q-17 16 -30.5 27t-27.5 18.5t-30 11t-37 3.5q-30 0 -55.5 -10.5t-44 -28t-29 -41t-10.5 -49.5v-490q0 -29 -14.5 -44t-47.5 -15h-234q-29 0 -44.5 15t-15.5 44v867zM134 -296q0 39 14.5 72t39 57t57.5 38t70 14q39 0 72.5 -14t58 -39.5t38 -62
t13.5 -80.5q0 -96 -19 -166.5t-45.5 -117.5t-54 -70t-45.5 -23q-11 0 -17.5 2.5t-14.5 8.5l-42 32q-9 8 -14.5 20t-5.5 21q0 18 8 30.5t17 24.5t17 26t8 36v10q-31 5 -59 21.5t-49.5 41t-34 55t-12.5 63.5z" />
    <glyph glyph-name="Rcaron" unicode="&#x158;" horiz-adv-x="1406"
d="M162 1441q0 16 10.5 30t32.5 14h664q106 0 193 -42.5t149.5 -112.5t97 -160t34.5 -184q0 -60 -17.5 -118t-50 -111t-77.5 -99t-99 -81l286 -533q8 -14 2.5 -29t-27.5 -15h-360q-21 0 -31 8.5t-23 33.5l-237 452h-161v-450q0 -44 -44 -44h-299q-43 0 -43 44v1397z
M548 1176v-362h222q39 0 72 15.5t56.5 40.5t36.5 57.5t13 66.5q0 33 -13 65.5t-37 58.5t-56.5 42t-71.5 16h-222zM360 1913q-5 2 -7 8t-2 14q1 6 2.5 12t6.5 10l110 107q6 10 22 10q3 -1 9 -2.5t13 -4.5l142 -143l139 142q5 5 11 7t11 2q13 0 27 -11l108 -110q9 -11 9 -19
q0 -17 -8 -23l-277 -276q-7 -5 -11 -7t-9 -2q-7 0 -11 2.5t-11 6.5z" />
    <glyph glyph-name="rcaron" unicode="&#x159;" horiz-adv-x="980"
d="M129 926q0 30 20.5 43.5t41.5 13.5h166q14 0 22.5 -5.5t14.5 -14t10.5 -19t10.5 -21.5q1 -2 5.5 -14.5t10.5 -27.5t11 -28t6 -15q19 29 41.5 56.5t49.5 49.5t59 35t72 13q42 0 74.5 -6t62 -18t58 -30t62.5 -43q32 -17 32 -46q0 -20 -12 -39l-112 -170q-11 -16 -26 -25.5
t-30 -9.5q-17 0 -30 13q-17 16 -30.5 27t-27.5 18.5t-30 11t-37 3.5q-30 0 -55.5 -10.5t-44 -28t-29 -41t-10.5 -49.5v-490q0 -29 -14.5 -44t-47.5 -15h-234q-29 0 -44.5 15t-15.5 44v867zM137 1409q-5 2 -7 8t-2 14q1 6 2.5 12t6.5 10l110 107q6 10 22 10q3 -1 9 -2.5
t13 -4.5l142 -143l139 142q5 5 11 7t11 2q13 0 27 -11l108 -110q9 -11 9 -19q0 -17 -8 -23l-277 -276q-7 -5 -11 -7t-9 -2q-7 0 -11 2.5t-11 6.5z" />
    <glyph glyph-name="Sacute" unicode="&#x15a;" horiz-adv-x="1312"
d="M347 479q17 -14 43.5 -37.5t60.5 -46.5q50 -34 100.5 -53t105.5 -19q51 0 85.5 11.5t54.5 30.5t28.5 44t8.5 53q0 31 -23.5 55.5t-57.5 43.5t-71 32.5t-64 22.5q-120 42 -210 90.5t-150 108t-90 131.5t-30 159q0 93 37.5 169t107 130t167.5 83.5t219 29.5
q90 0 174.5 -20.5t164.5 -65.5q34 -20 64.5 -41t53.5 -41.5t36.5 -38.5t13.5 -31t-6.5 -24t-19.5 -25l-153 -163q-17 -17 -34 -17q-14 0 -25.5 8t-25.5 20l-9 8q-20 17 -44.5 35t-52.5 32.5t-59 24t-63 9.5q-33 0 -62 -5.5t-51 -17.5t-35 -31.5t-13 -47.5t14 -48.5t42 -38
t69.5 -33t96.5 -33.5q106 -35 195.5 -73.5t154.5 -91t101.5 -125.5t36.5 -177q0 -110 -45 -199.5t-123.5 -152.5t-184.5 -97.5t-228 -34.5q-77 0 -153.5 19.5t-147 54t-133 80.5t-110.5 99l-3 3l-4 4l-4 4q-23 24 -23 40q0 17 23 38l173 165q21 15 34 15q9 0 19 -6t24 -18z
M792 1724q-7 -15 -13 -24t-12.5 -13.5t-15.5 -6t-21 -1.5h-201q-14 0 -27 11t-5 39l76 222q9 25 22.5 35t39.5 10h227q19 0 27.5 -17t0.5 -37z" />
    <glyph glyph-name="sacute" unicode="&#x15b;" horiz-adv-x="980"
d="M287 340q48 -39 89.5 -58.5t74.5 -19.5q24 0 45 2.5t37 7.5t25.5 14t9.5 23q0 28 -37 43t-101 32q-99 26 -165.5 60t-107 75.5t-57.5 90t-17 104.5q0 64 30.5 116.5t84.5 89.5t127.5 57.5t159.5 20.5q51 0 99.5 -5t93.5 -18.5t87 -37.5t81 -62q11 -14 11 -26
q-1 -9 -5 -18.5t-15 -18.5q-9 -8 -27.5 -26.5t-39 -40t-38.5 -40.5t-26 -27q-7 -7 -14.5 -9.5t-14.5 -2.5q-12 0 -22.5 6t-21.5 17q-13 13 -31 22.5t-37.5 16t-38.5 10t-35 3.5t-32 -3.5t-28.5 -10.5t-20 -17.5t-7.5 -23.5q0 -19 15 -30.5t37 -18t46.5 -11t44.5 -10.5
q74 -23 139 -46.5t113.5 -58t76.5 -84.5t28 -125q0 -77 -35 -137t-95.5 -101t-141 -62.5t-170.5 -21.5q-104 0 -200.5 37t-170.5 118q-20 22 -20 42q0 17 16 33l133 139q7 7 14 9.5t13 3.5q9 0 18.5 -6t22.5 -16zM576 1219q-7 -15 -13 -24t-12.5 -13.5t-15.5 -6t-21 -1.5
h-201q-14 0 -27 11t-5 39l76 222q9 25 22.5 35t39.5 10h227q19 0 27.5 -17t0.5 -37z" />
    <glyph glyph-name="Scircumflex" unicode="&#x15c;" horiz-adv-x="1312"
d="M347 479q17 -14 43.5 -37.5t60.5 -46.5q50 -34 100.5 -53t105.5 -19q51 0 85.5 11.5t54.5 30.5t28.5 44t8.5 53q0 31 -23.5 55.5t-57.5 43.5t-71 32.5t-64 22.5q-120 42 -210 90.5t-150 108t-90 131.5t-30 159q0 93 37.5 169t107 130t167.5 83.5t219 29.5
q90 0 174.5 -20.5t164.5 -65.5q34 -20 64.5 -41t53.5 -41.5t36.5 -38.5t13.5 -31t-6.5 -24t-19.5 -25l-153 -163q-17 -17 -34 -17q-14 0 -25.5 8t-25.5 20l-9 8q-20 17 -44.5 35t-52.5 32.5t-59 24t-63 9.5q-33 0 -62 -5.5t-51 -17.5t-35 -31.5t-13 -47.5t14 -48.5t42 -38
t69.5 -33t96.5 -33.5q106 -35 195.5 -73.5t154.5 -91t101.5 -125.5t36.5 -177q0 -110 -45 -199.5t-123.5 -152.5t-184.5 -97.5t-228 -34.5q-77 0 -153.5 19.5t-147 54t-133 80.5t-110.5 99l-3 3l-4 4l-4 4q-23 24 -23 40q0 17 23 38l173 165q21 15 34 15q9 0 19 -6t24 -18z
M914 1829q14 -14 15.5 -30t-15.5 -32l-82 -78q-15 -15 -31 -14.5t-30 14.5l-129 128l-126 -130q-14 -14 -30 -14.5t-32 14.5l-83 80q-17 16 -15.5 32t15.5 30l242 241q5 5 13 10t19 5q12 0 17.5 -3.5t13.5 -11.5z" />
    <glyph glyph-name="scircumflex" unicode="&#x15d;" horiz-adv-x="980"
d="M287 340q48 -39 89.5 -58.5t74.5 -19.5q24 0 45 2.5t37 7.5t25.5 14t9.5 23q0 28 -37 43t-101 32q-99 26 -165.5 60t-107 75.5t-57.5 90t-17 104.5q0 64 30.5 116.5t84.5 89.5t127.5 57.5t159.5 20.5q51 0 99.5 -5t93.5 -18.5t87 -37.5t81 -62q11 -14 11 -26
q-1 -9 -5 -18.5t-15 -18.5q-9 -8 -27.5 -26.5t-39 -40t-38.5 -40.5t-26 -27q-7 -7 -14.5 -9.5t-14.5 -2.5q-12 0 -22.5 6t-21.5 17q-13 13 -31 22.5t-37.5 16t-38.5 10t-35 3.5t-32 -3.5t-28.5 -10.5t-20 -17.5t-7.5 -23.5q0 -19 15 -30.5t37 -18t46.5 -11t44.5 -10.5
q74 -23 139 -46.5t113.5 -58t76.5 -84.5t28 -125q0 -77 -35 -137t-95.5 -101t-141 -62.5t-170.5 -21.5q-104 0 -200.5 37t-170.5 118q-20 22 -20 42q0 17 16 33l133 139q7 7 14 9.5t13 3.5q9 0 18.5 -6t22.5 -16zM757 1325q14 -14 15.5 -30t-15.5 -32l-82 -78
q-15 -15 -31 -14.5t-30 14.5l-129 128l-126 -130q-14 -14 -30 -14.5t-32 14.5l-83 80q-17 16 -15.5 32t15.5 30l242 241q5 5 13 10t19 5q12 0 17.5 -3.5t13.5 -11.5z" />
    <glyph glyph-name="Scedilla" unicode="&#x15e;" horiz-adv-x="1312"
d="M347 479q17 -14 43.5 -37.5t60.5 -46.5q50 -34 100.5 -53t105.5 -19q51 0 85.5 11.5t54.5 30.5t28.5 44t8.5 53q0 31 -23.5 55.5t-57.5 43.5t-71 32.5t-64 22.5q-120 42 -210 90.5t-150 108t-90 131.5t-30 159q0 93 37.5 169t107 130t167.5 83.5t219 29.5
q90 0 174.5 -20.5t164.5 -65.5q34 -20 64.5 -41t53.5 -41.5t36.5 -38.5t13.5 -31t-6.5 -24t-19.5 -25l-153 -163q-17 -17 -34 -17q-14 0 -25.5 8t-25.5 20l-9 8q-20 17 -44.5 35t-52.5 32.5t-59 24t-63 9.5q-33 0 -62 -5.5t-51 -17.5t-35 -31.5t-13 -47.5t14 -48.5t42 -38
t69.5 -33t96.5 -33.5q106 -35 195.5 -73.5t154.5 -91t101.5 -125.5t36.5 -177q0 -110 -45 -199.5t-123.5 -152.5t-184.5 -97.5t-228 -34.5q-77 0 -153.5 19.5t-147 54t-133 80.5t-110.5 99l-3 3l-4 4l-4 4q-23 24 -23 40q0 17 23 38l173 165q21 15 34 15q9 0 19 -6t24 -18z
M759 0q-22 -15 -22 -35q0 -16 15.5 -30t38 -28t49.5 -30.5t49.5 -38t38 -49t15.5 -64.5q0 -36 -24.5 -77t-69 -81t-106.5 -74.5t-138 -57.5h-5q-15 0 -33 22t-34 50t-27 54.5t-11 35.5q0 16 11 22q171 43 171 106q0 22 -15 39t-37.5 32.5t-48.5 31t-48.5 33.5t-37.5 40
t-15 51q0 11 3 22.5t17 25.5h264z" />
    <glyph glyph-name="scedilla" unicode="&#x15f;" horiz-adv-x="980"
d="M287 340q48 -39 89.5 -58.5t74.5 -19.5q24 0 45 2.5t37 7.5t25.5 14t9.5 23q0 28 -37 43t-101 32q-99 26 -165.5 60t-107 75.5t-57.5 90t-17 104.5q0 64 30.5 116.5t84.5 89.5t127.5 57.5t159.5 20.5q51 0 99.5 -5t93.5 -18.5t87 -37.5t81 -62q11 -14 11 -26
q-1 -9 -5 -18.5t-15 -18.5q-9 -8 -27.5 -26.5t-39 -40t-38.5 -40.5t-26 -27q-7 -7 -14.5 -9.5t-14.5 -2.5q-12 0 -22.5 6t-21.5 17q-13 13 -31 22.5t-37.5 16t-38.5 10t-35 3.5t-32 -3.5t-28.5 -10.5t-20 -17.5t-7.5 -23.5q0 -19 15 -30.5t37 -18t46.5 -11t44.5 -10.5
q74 -23 139 -46.5t113.5 -58t76.5 -84.5t28 -125q0 -77 -35 -137t-95.5 -101t-141 -62.5t-170.5 -21.5q-104 0 -200.5 37t-170.5 118q-20 22 -20 42q0 17 16 33l133 139q7 7 14 9.5t13 3.5q9 0 18.5 -6t22.5 -16zM621 0q-22 -15 -22 -35q0 -16 15.5 -30t38 -28t49.5 -30.5
t49.5 -38t38 -49t15.5 -64.5q0 -36 -24.5 -77t-69 -81t-106.5 -74.5t-138 -57.5h-5q-15 0 -33 22t-34 50t-27 54.5t-11 35.5q0 16 11 22q171 43 171 106q0 22 -15 39t-37.5 32.5t-48.5 31t-48.5 33.5t-37.5 40t-15 51q0 11 3 22.5t17 25.5h264z" />
    <glyph glyph-name="Scaron" unicode="&#x160;" horiz-adv-x="1312"
d="M347 479q17 -14 43.5 -37.5t60.5 -46.5q50 -34 100.5 -53t105.5 -19q51 0 85.5 11.5t54.5 30.5t28.5 44t8.5 53q0 31 -23.5 55.5t-57.5 43.5t-71 32.5t-64 22.5q-120 42 -210 90.5t-150 108t-90 131.5t-30 159q0 93 37.5 169t107 130t167.5 83.5t219 29.5
q90 0 174.5 -20.5t164.5 -65.5q34 -20 64.5 -41t53.5 -41.5t36.5 -38.5t13.5 -31t-6.5 -24t-19.5 -25l-153 -163q-17 -17 -34 -17q-14 0 -25.5 8t-25.5 20l-9 8q-20 17 -44.5 35t-52.5 32.5t-59 24t-63 9.5q-33 0 -62 -5.5t-51 -17.5t-35 -31.5t-13 -47.5t14 -48.5t42 -38
t69.5 -33t96.5 -33.5q106 -35 195.5 -73.5t154.5 -91t101.5 -125.5t36.5 -177q0 -110 -45 -199.5t-123.5 -152.5t-184.5 -97.5t-228 -34.5q-77 0 -153.5 19.5t-147 54t-133 80.5t-110.5 99l-3 3l-4 4l-4 4q-23 24 -23 40q0 17 23 38l173 165q21 15 34 15q9 0 19 -6t24 -18z
M350 1913q-5 2 -7 8t-2 14q1 6 2.5 12t6.5 10l110 107q6 10 22 10q3 -1 9 -2.5t13 -4.5l142 -143l139 142q5 5 11 7t11 2q13 0 27 -11l108 -110q9 -11 9 -19q0 -17 -8 -23l-277 -276q-7 -5 -11 -7t-9 -2q-7 0 -11 2.5t-11 6.5z" />
    <glyph glyph-name="scaron" unicode="&#x161;" horiz-adv-x="980"
d="M287 340q48 -39 89.5 -58.5t74.5 -19.5q24 0 45 2.5t37 7.5t25.5 14t9.5 23q0 28 -37 43t-101 32q-99 26 -165.5 60t-107 75.5t-57.5 90t-17 104.5q0 64 30.5 116.5t84.5 89.5t127.5 57.5t159.5 20.5q51 0 99.5 -5t93.5 -18.5t87 -37.5t81 -62q11 -14 11 -26
q-1 -9 -5 -18.5t-15 -18.5q-9 -8 -27.5 -26.5t-39 -40t-38.5 -40.5t-26 -27q-7 -7 -14.5 -9.5t-14.5 -2.5q-12 0 -22.5 6t-21.5 17q-13 13 -31 22.5t-37.5 16t-38.5 10t-35 3.5t-32 -3.5t-28.5 -10.5t-20 -17.5t-7.5 -23.5q0 -19 15 -30.5t37 -18t46.5 -11t44.5 -10.5
q74 -23 139 -46.5t113.5 -58t76.5 -84.5t28 -125q0 -77 -35 -137t-95.5 -101t-141 -62.5t-170.5 -21.5q-104 0 -200.5 37t-170.5 118q-20 22 -20 42q0 17 16 33l133 139q7 7 14 9.5t13 3.5q9 0 18.5 -6t22.5 -16zM159 1409q-5 2 -7 8t-2 14q1 6 2.5 12t6.5 10l110 107
q6 10 22 10q3 -1 9 -2.5t13 -4.5l142 -143l139 142q5 5 11 7t11 2q13 0 27 -11l108 -110q9 -11 9 -19q0 -17 -8 -23l-277 -276q-7 -5 -11 -7t-9 -2q-7 0 -11 2.5t-11 6.5z" />
    <glyph glyph-name="Tcommaaccent" unicode="&#x162;" horiz-adv-x="1332"
d="M80 1441q0 44 44 44h1085q44 0 44 -44v-254q0 -44 -44 -44h-355v-1099q0 -44 -45 -44h-288q-44 0 -44 44v1099h-353q-44 0 -44 44v254zM443 -296q0 39 14.5 72t39 57t57.5 38t70 14q39 0 72.5 -14t58 -39.5t38 -62t13.5 -80.5q0 -96 -19 -166.5t-45.5 -117.5t-54 -70
t-45.5 -23q-11 0 -17.5 2.5t-14.5 8.5l-42 32q-9 8 -14.5 20t-5.5 21q0 18 8 30.5t17 24.5t17 26t8 36v10q-31 5 -59 21.5t-49.5 41t-34 55t-12.5 63.5z" />
    <glyph glyph-name="tcommaaccent" unicode="&#x163;" horiz-adv-x="668"
d="M159 1255q0 20 13.5 35.5t39.5 20.5l248 39q20 0 32 -13.5t12 -35.5v-300h89q25 0 41.5 -14.5t16.5 -43.5v-156q0 -25 -16 -43t-42 -18h-89v-675q0 -51 -56 -51h-237q-52 0 -52 51v675h-56q-59 0 -59 61v156q0 58 59 58h56v254zM135 -296q0 39 14.5 72t39 57t57.5 38
t70 14q39 0 72.5 -14t58 -39.5t38 -62t13.5 -80.5q0 -96 -19 -166.5t-45.5 -117.5t-54 -70t-45.5 -23q-11 0 -17.5 2.5t-14.5 8.5l-42 32q-9 8 -14.5 20t-5.5 21q0 18 8 30.5t17 24.5t17 26t8 36v10q-31 5 -59 21.5t-49.5 41t-34 55t-12.5 63.5z" />
    <glyph glyph-name="Tcaron" unicode="&#x164;" horiz-adv-x="1332"
d="M80 1441q0 44 44 44h1085q44 0 44 -44v-254q0 -44 -44 -44h-355v-1099q0 -44 -45 -44h-288q-44 0 -44 44v1099h-353q-44 0 -44 44v254zM341 1913q-5 2 -7 8t-2 14q1 6 2.5 12t6.5 10l110 107q6 10 22 10q3 -1 9 -2.5t13 -4.5l142 -143l139 142q5 5 11 7t11 2q13 0 27 -11
l108 -110q9 -11 9 -19q0 -17 -8 -23l-277 -276q-7 -5 -11 -7t-9 -2q-7 0 -11 2.5t-11 6.5z" />
    <glyph glyph-name="tcaron" unicode="&#x165;" horiz-adv-x="668"
d="M159 1255q0 20 13.5 35.5t39.5 20.5l248 39q20 0 32 -13.5t12 -35.5v-300h89q25 0 41.5 -14.5t16.5 -43.5v-156q0 -25 -16 -43t-42 -18h-89v-675q0 -51 -56 -51h-237q-52 0 -52 51v675h-56q-59 0 -59 61v156q0 58 59 58h56v254zM584 1423q0 39 14.5 72t39 57t57.5 38
t70 14q39 0 72.5 -14t58 -39.5t38 -62t13.5 -80.5q0 -96 -19 -166.5t-45.5 -117.5t-54 -70t-45.5 -23q-11 0 -17.5 2.5t-14.5 8.5l-47 34q-18 18 -18 35q0 12 7 23.5t16 25.5q11 11 20.5 28t9.5 44v10q-31 5 -59 21.5t-49.5 41t-34 55t-12.5 63.5z" />
    <glyph glyph-name="Tbar" unicode="&#x166;" horiz-adv-x="1332"
d="M293 849q0 28 17 42.5t36 14.5h631q27 0 35.5 -11.5t8.5 -31.5v-191q0 -20 -13.5 -33.5t-38.5 -13.5h-623q-18 0 -35.5 13.5t-17.5 39.5v171zM80 1441q0 44 44 44h1085q44 0 44 -44v-254q0 -44 -44 -44h-355v-1099q0 -44 -45 -44h-288q-44 0 -44 44v1099h-353
q-44 0 -44 44v254z" />
    <glyph glyph-name="tbar" unicode="&#x167;" horiz-adv-x="668"
d="M563 627q14 0 22.5 -8t8.5 -25v-177q0 -14 -8.5 -24.5t-22.5 -10.5h-452q-35 0 -35 35v177q0 33 35 33h452zM159 1255q0 20 13.5 35.5t39.5 20.5l248 39q20 0 32 -13.5t12 -35.5v-300h89q25 0 41.5 -14.5t16.5 -43.5v-156q0 -25 -16 -43t-42 -18h-89v-675q0 -51 -56 -51
h-237q-52 0 -52 51v675h-56q-59 0 -59 61v156q0 58 59 58h56v254z" />
    <glyph glyph-name="Utilde" unicode="&#x168;" horiz-adv-x="1550"
d="M544 593q0 -74 20.5 -125.5t54 -84t78 -47.5t92.5 -15q50 0 94.5 17.5t78 52t53 85.5t19.5 117v848q0 18 12.5 31t33.5 13h292q23 0 36 -13.5t13 -30.5v-843q0 -175 -51.5 -294t-138.5 -191.5t-201.5 -104t-240.5 -31.5t-241 32.5t-202 106t-138.5 192t-51.5 290.5v843
q0 17 11.5 30.5t28.5 13.5h305q26 0 34.5 -12.5t8.5 -31.5v-848zM587 1693q-9 -11 -18.5 -11t-19 5.5t-18.5 13.5t-15 14l-63 62q-15 13 -21 21t-5.5 15.5t7.5 17t19 26.5q41 60 99 94t124 34q38 -1 75 -17t70 -34.5t61.5 -34t48.5 -15.5q26 0 41.5 13.5t35.5 38.5
q19 24 38 23t35 -18l91 -92q13 -13 12 -24.5t-6 -17.5q-45 -69 -107.5 -107.5t-137.5 -38.5q-40 0 -75 15.5t-66.5 34.5t-60 34.5t-53.5 15.5q-19 0 -32 -7t-23.5 -17t-18.5 -22t-17 -22z" />
    <glyph glyph-name="utilde" unicode="&#x169;" horiz-adv-x="1232"
d="M1102 61q0 -31 -14 -45.5t-47 -14.5h-130q-28 0 -47.5 11t-33 30t-23 43.5t-16.5 50.5q-18 -21 -50.5 -46.5t-74.5 -48t-90.5 -37.5t-97.5 -15q-114 0 -190.5 30.5t-122.5 91.5t-65.5 153.5t-19.5 217.5v451q0 24 15 37.5t36 13.5h251q27 0 39 -12t12 -37v-478
q0 -69 34 -104t111 -35q23 0 51 9t53.5 26t43.5 41.5t20 56.5v483q0 25 11.5 37.5t43.5 12.5h248q27 0 40 -14.5t13 -36.5v-872zM408 1189q-9 -11 -18.5 -11t-19 5.5t-18.5 13.5t-15 14l-63 62q-15 13 -21 21t-5.5 15.5t7.5 17t19 26.5q41 60 99 94t124 34q38 -1 75 -17
t70 -34.5t61.5 -34t48.5 -15.5q26 0 41.5 13.5t35.5 38.5q19 24 38 23t35 -18l91 -92q13 -13 12 -24.5t-6 -17.5q-45 -69 -107.5 -107.5t-137.5 -38.5q-40 0 -75 15.5t-66.5 34.5t-60 34.5t-53.5 15.5q-19 0 -32 -7t-23.5 -17t-18.5 -22t-17 -22z" />
    <glyph glyph-name="Umacron" unicode="&#x16a;" horiz-adv-x="1552"
d="M544 593q0 -74 20.5 -125.5t54 -84t78 -47.5t92.5 -15q50 0 94.5 17.5t78 52t53 85.5t19.5 117v848q0 18 12.5 31t33.5 13h292q23 0 36 -13.5t13 -30.5v-843q0 -175 -51.5 -294t-138.5 -191.5t-201.5 -104t-240.5 -31.5t-241 32.5t-202 106t-138.5 192t-51.5 290.5v843
q0 17 11.5 30.5t28.5 13.5h305q26 0 34.5 -12.5t8.5 -31.5v-848zM381 1846q0 35 35 35h749q15 0 25 -8.5t10 -26.5v-124q0 -12 -9 -26t-26 -14h-749q-35 0 -35 40v124z" />
    <glyph glyph-name="umacron" unicode="&#x16b;" horiz-adv-x="1232"
d="M1102 61q0 -31 -14 -45.5t-47 -14.5h-130q-28 0 -47.5 11t-33 30t-23 43.5t-16.5 50.5q-18 -21 -50.5 -46.5t-74.5 -48t-90.5 -37.5t-97.5 -15q-114 0 -190.5 30.5t-122.5 91.5t-65.5 153.5t-19.5 217.5v451q0 24 15 37.5t36 13.5h251q27 0 39 -12t12 -37v-478
q0 -69 34 -104t111 -35q23 0 51 9t53.5 26t43.5 41.5t20 56.5v483q0 25 11.5 37.5t43.5 12.5h248q27 0 40 -14.5t13 -36.5v-872zM196 1363q0 35 35 35h749q15 0 25 -8.5t10 -26.5v-124q0 -12 -9 -26t-26 -14h-749q-35 0 -35 40v124z" />
    <glyph glyph-name="Ubreve" unicode="&#x16c;" horiz-adv-x="1550"
d="M544 593q0 -74 20.5 -125.5t54 -84t78 -47.5t92.5 -15q50 0 94.5 17.5t78 52t53 85.5t19.5 117v848q0 18 12.5 31t33.5 13h292q23 0 36 -13.5t13 -30.5v-843q0 -175 -51.5 -294t-138.5 -191.5t-201.5 -104t-240.5 -31.5t-241 32.5t-202 106t-138.5 192t-51.5 290.5v843
q0 17 11.5 30.5t28.5 13.5h305q26 0 34.5 -12.5t8.5 -31.5v-848zM749 1703q-59 1 -109 22.5t-87 56.5t-58 79.5t-21 92.5q0 17 11.5 27t26.5 10h144q11 0 17 -6.5t6 -15.5q0 -23 18 -41.5t56 -18.5q34 0 52.5 19t18.5 41q0 9 5 15.5t16 6.5h146q15 0 26.5 -10t11.5 -27
q0 -49 -21.5 -94t-59.5 -79.5t-89 -55.5t-110 -22z" />
    <glyph glyph-name="ubreve" unicode="&#x16d;" horiz-adv-x="1232"
d="M1102 61q0 -31 -14 -45.5t-47 -14.5h-130q-28 0 -47.5 11t-33 30t-23 43.5t-16.5 50.5q-18 -21 -50.5 -46.5t-74.5 -48t-90.5 -37.5t-97.5 -15q-114 0 -190.5 30.5t-122.5 91.5t-65.5 153.5t-19.5 217.5v451q0 24 15 37.5t36 13.5h251q27 0 39 -12t12 -37v-478
q0 -69 34 -104t111 -35q23 0 51 9t53.5 26t43.5 41.5t20 56.5v483q0 25 11.5 37.5t43.5 12.5h248q27 0 40 -14.5t13 -36.5v-872zM530 1199q-59 1 -109 22.5t-87 56.5t-58 79.5t-21 92.5q0 17 11.5 27t26.5 10h144q11 0 17 -6.5t6 -15.5q0 -23 18 -41.5t56 -18.5
q34 0 52.5 19t18.5 41q0 9 5 15.5t16 6.5h146q15 0 26.5 -10t11.5 -27q0 -49 -21.5 -94t-59.5 -79.5t-89 -55.5t-110 -22z" />
    <glyph glyph-name="Uring" unicode="&#x16e;" horiz-adv-x="1550"
d="M544 593q0 -74 20.5 -125.5t54 -84t78 -47.5t92.5 -15q50 0 94.5 17.5t78 52t53 85.5t19.5 117v848q0 18 12.5 31t33.5 13h292q23 0 36 -13.5t13 -30.5v-843q0 -175 -51.5 -294t-138.5 -191.5t-201.5 -104t-240.5 -31.5t-241 32.5t-202 106t-138.5 192t-51.5 290.5v843
q0 17 11.5 30.5t28.5 13.5h305q26 0 34.5 -12.5t8.5 -31.5v-848zM784 2036q43 0 81.5 -16.5t67.5 -45.5t45.5 -67.5t16.5 -81.5q0 -44 -16.5 -82t-45.5 -66.5t-67.5 -44.5t-81.5 -16q-44 0 -82 16t-66.5 44.5t-44.5 66.5t-16 82q0 43 16 81.5t44.5 67.5t66.5 45.5t82 16.5z
M785 1886q-26 0 -42 -17t-16 -43t16 -42t42 -16t43 16t17 42t-17 43t-43 17z" />
    <glyph glyph-name="uring" unicode="&#x16f;" horiz-adv-x="1232"
d="M1102 61q0 -31 -14 -45.5t-47 -14.5h-130q-28 0 -47.5 11t-33 30t-23 43.5t-16.5 50.5q-18 -21 -50.5 -46.5t-74.5 -48t-90.5 -37.5t-97.5 -15q-114 0 -190.5 30.5t-122.5 91.5t-65.5 153.5t-19.5 217.5v451q0 24 15 37.5t36 13.5h251q27 0 39 -12t12 -37v-478
q0 -69 34 -104t111 -35q23 0 51 9t53.5 26t43.5 41.5t20 56.5v483q0 25 11.5 37.5t43.5 12.5h248q27 0 40 -14.5t13 -36.5v-872zM591 1522q43 0 81.5 -16.5t67.5 -45.5t45.5 -67.5t16.5 -81.5q0 -44 -16.5 -82t-45.5 -66.5t-67.5 -44.5t-81.5 -16q-44 0 -82 16t-66.5 44.5
t-44.5 66.5t-16 82q0 43 16 81.5t44.5 67.5t66.5 45.5t82 16.5zM592 1372q-26 0 -42 -17t-16 -43t16 -42t42 -16t43 16t17 42t-17 43t-43 17z" />
    <glyph glyph-name="Uhungarumlaut" unicode="&#x170;" horiz-adv-x="1550"
d="M544 593q0 -74 20.5 -125.5t54 -84t78 -47.5t92.5 -15q50 0 94.5 17.5t78 52t53 85.5t19.5 117v848q0 18 12.5 31t33.5 13h292q23 0 36 -13.5t13 -30.5v-843q0 -175 -51.5 -294t-138.5 -191.5t-201.5 -104t-240.5 -31.5t-241 32.5t-202 106t-138.5 192t-51.5 290.5v843
q0 17 11.5 30.5t28.5 13.5h305q26 0 34.5 -12.5t8.5 -31.5v-848zM491 1947q19 42 53 42h212q19 0 26 -7t7 -18q0 -8 -3 -18.5t-8 -20.5l-88 -205q-12 -22 -23.5 -32t-30.5 -10h-219q-26 0 -26 22q0 8 1 17t8 20zM943 1947q19 42 53 42h212q19 0 26 -7t7 -18q0 -8 -3 -18.5
t-8 -20.5l-88 -205q-12 -22 -23.5 -32t-30.5 -10h-219q-26 0 -26 22q0 8 1 17t8 20z" />
    <glyph glyph-name="uhungarumlaut" unicode="&#x171;" horiz-adv-x="1232"
d="M1102 61q0 -31 -14 -45.5t-47 -14.5h-130q-28 0 -47.5 11t-33 30t-23 43.5t-16.5 50.5q-18 -21 -50.5 -46.5t-74.5 -48t-90.5 -37.5t-97.5 -15q-114 0 -190.5 30.5t-122.5 91.5t-65.5 153.5t-19.5 217.5v451q0 24 15 37.5t36 13.5h251q27 0 39 -12t12 -37v-478
q0 -69 34 -104t111 -35q23 0 51 9t53.5 26t43.5 41.5t20 56.5v483q0 25 11.5 37.5t43.5 12.5h248q27 0 40 -14.5t13 -36.5v-872zM329 1443q19 42 53 42h212q19 0 26 -7t7 -18q0 -8 -3 -18.5t-8 -20.5l-88 -205q-12 -22 -23.5 -32t-30.5 -10h-219q-26 0 -26 22q0 8 1 17t8 20
zM781 1443q19 42 53 42h212q19 0 26 -7t7 -18q0 -8 -3 -18.5t-8 -20.5l-88 -205q-12 -22 -23.5 -32t-30.5 -10h-219q-26 0 -26 22q0 8 1 17t8 20z" />
    <glyph glyph-name="Uogonek" unicode="&#x172;" horiz-adv-x="1548"
d="M544 593q0 -74 20.5 -125.5t54 -84t78 -47.5t92.5 -15q50 0 94.5 17.5t78 52t53 85.5t19.5 117v848q0 18 12.5 31t33.5 13h292q23 0 36 -13.5t13 -30.5v-843q0 -175 -51.5 -294t-138.5 -191.5t-201.5 -104t-240.5 -31.5t-241 32.5t-202 106t-138.5 192t-51.5 290.5v843
q0 17 11.5 30.5t28.5 13.5h305q26 0 34.5 -12.5t8.5 -31.5v-848zM898 0q14 -14 17 -25.5t3 -22.5q0 -29 -15 -51t-37.5 -40t-48.5 -33.5t-48.5 -31t-37.5 -32.5t-15 -39q0 -63 171 -106q11 -6 11 -22q0 -9 -11 -35.5t-27 -54.5t-34 -50t-33 -22h-5q-76 23 -138.5 57.5
t-107 74.5t-69 81t-24.5 77q0 37 15.5 64.5t38.5 49t49.5 38t49.5 30.5t38.5 28t15.5 30q0 20 -22 35h264z" />
    <glyph glyph-name="uogonek" unicode="&#x173;" horiz-adv-x="1262"
d="M1101 61q0 -31 -14 -45.5t-47 -14.5h-130q-28 0 -47.5 11t-33 30t-23 43.5t-16.5 50.5q-18 -21 -50.5 -46.5t-74.5 -48t-90.5 -37.5t-97.5 -15q-114 0 -190.5 30.5t-122.5 91.5t-65.5 153.5t-19.5 217.5v451q0 24 15 37.5t36 13.5h251q27 0 39 -12t12 -37v-478
q0 -69 34 -104t111 -35q23 0 51 9t53.5 26t43.5 41.5t20 56.5v483q0 25 11.5 37.5t43.5 12.5h248q27 0 40 -14.5t13 -36.5v-872zM1080 91q14 -14 17 -25.5t3 -22.5q0 -29 -15 -51t-37.5 -40t-48.5 -33.5t-48.5 -31t-37.5 -32.5t-15 -39q0 -63 171 -106q11 -6 11 -22
q0 -9 -11 -35.5t-27 -54.5t-34 -50t-33 -22h-5q-76 23 -138.5 57.5t-107 74.5t-69 81t-24.5 77q0 37 15.5 64.5t38.5 49t49.5 38t49.5 30.5t38.5 28t15.5 30q0 20 -22 35h264z" />
    <glyph glyph-name="Wcircumflex" unicode="&#x174;" horiz-adv-x="2156"
d="M1072 429l-141 -385q-15 -44 -60 -44h-249q-43 0 -61 44l-534 1397q-7 19 -0.5 31.5t28.5 12.5h323q43 0 60 -44l305 -901l278 901q7 23 22.5 33.5t37.5 10.5h331q22 0 28.5 -14t0.5 -30l-181 -493l143 -413l321 906q15 44 60 44h327q23 0 29.5 -13t-0.5 -31l-560 -1397
q-17 -44 -61 -44h-235q-44 0 -61 44zM1329 1829q14 -14 15.5 -30t-15.5 -32l-82 -78q-15 -15 -31 -14.5t-30 14.5l-129 128l-126 -130q-14 -14 -30 -14.5t-32 14.5l-83 80q-17 16 -15.5 32t15.5 30l242 241q5 5 13 10t19 5q12 0 17.5 -3.5t13.5 -11.5z" />
    <glyph glyph-name="wcircumflex" unicode="&#x175;" horiz-adv-x="1670"
d="M389 25q-8 13 -15 26.5t-12 27.5l-329 843q-2 2 -3.5 10.5t-1.5 15.5q0 34 44 34h288q20 0 35 -11.5t23 -31.5q18 -61 34.5 -119.5l33 -117t33.5 -117t37 -119.5l149 474q13 43 61 43h241q28 0 39 -11t11 -30q0 -9 -1 -14l-51 -165q6 -20 17.5 -53.5t26 -74.5t30 -85.5
t30.5 -85.5l138 476q9 23 22.5 33t36.5 10h288q44 0 44 -29q0 -9 -5 -26l-334 -853q-5 -12 -11 -25t-14.5 -24.5t-20 -18.5t-26.5 -7h-236q-25 0 -40.5 14t-17.5 25l-101 274l-88 -236q-4 -11 -10 -24.5t-14.5 -25t-19.5 -19.5t-26 -8h-237q-20 0 -31 7t-17 18zM1113 1325
q14 -14 15.5 -30t-15.5 -32l-82 -78q-15 -15 -31 -14.5t-30 14.5l-129 128l-126 -130q-14 -14 -30 -14.5t-32 14.5l-83 80q-17 16 -15.5 32t15.5 30l242 241q5 5 13 10t19 5q12 0 17.5 -3.5t13.5 -11.5z" />
    <glyph glyph-name="Ycircumflex" unicode="&#x176;" horiz-adv-x="1410"
d="M507 605l-472 836q-11 20 -2.5 32t31.5 12h342q22 0 35.5 -10.5t24.5 -33.5l235 -501l233 501q11 23 24.5 33.5t35.5 10.5h347q22 0 30.5 -12t-2.5 -32l-475 -834v-563q0 -44 -44 -44h-299q-44 0 -44 44v561zM975 1829q14 -14 15.5 -30t-15.5 -32l-82 -78
q-15 -15 -31 -14.5t-30 14.5l-129 128l-126 -130q-14 -14 -30 -14.5t-32 14.5l-83 80q-17 16 -15.5 32t15.5 30l242 241q5 5 13 10t19 5q12 0 17.5 -3.5t13.5 -11.5z" />
    <glyph glyph-name="ycircumflex" unicode="&#x177;" horiz-adv-x="1160"
d="M43 921q-3 2 -4 9.5t-1 14.5q0 36 44 36h274q23 0 38 -11.5t20 -31.5q21 -60 43.5 -127.5t45 -135.5t45 -135.5t44.5 -127.5l172 526q8 23 23 33t39 10h269q27 0 37.5 -11t10.5 -29q0 -10 -1 -15q-37 -101 -80.5 -214.5t-88 -230.5t-89.5 -233t-85.5 -223t-75 -200.5
t-58.5 -165.5q-5 -19 -20.5 -31.5t-35.5 -12.5h-249q-17 0 -32.5 6.5t-15.5 28.5q0 8 5 25l104 306zM875 1325q14 -14 15.5 -30t-15.5 -32l-82 -78q-15 -15 -31 -14.5t-30 14.5l-129 128l-126 -130q-14 -14 -30 -14.5t-32 14.5l-83 80q-17 16 -15.5 32t15.5 30l242 241
q5 5 13 10t19 5q12 0 17.5 -3.5t13.5 -11.5z" />
    <glyph glyph-name="Ydieresis" unicode="&#x178;" horiz-adv-x="1410"
d="M507 605l-472 836q-11 20 -2.5 32t31.5 12h342q22 0 35.5 -10.5t24.5 -33.5l235 -501l233 501q11 23 24.5 33.5t35.5 10.5h347q22 0 30.5 -12t-2.5 -32l-475 -834v-563q0 -44 -44 -44h-299q-44 0 -44 44v561zM328 1752q0 33 12.5 61.5t34 50t50 34t60.5 12.5
q34 0 63 -12.5t50 -34t33 -50t12 -61.5q0 -32 -12 -60.5t-33 -50t-50 -34t-63 -12.5q-32 0 -60.5 12.5t-50 34t-34 50t-12.5 60.5zM768 1754q0 33 12.5 62t33.5 50.5t49.5 34t60.5 12.5q34 0 63 -12.5t50.5 -34t33.5 -50.5t12 -62q0 -32 -12 -60.5t-33.5 -49.5t-50.5 -33.5
t-63 -12.5q-32 0 -60.5 12.5t-49.5 33.5t-33.5 49.5t-12.5 60.5z" />
    <glyph glyph-name="Zacute" unicode="&#x179;" horiz-adv-x="1432"
d="M88 1441q0 20 12.5 32t34.5 12h1161q19 0 32.5 -11t13.5 -33v-202q0 -8 -0.5 -15t-5.5 -18l-724 -863h687q19 0 32 -11t13 -34v-249q0 -17 -12.5 -33t-32.5 -16h-1161q-20 0 -33.5 13t-13.5 36v215q0 15 7 26l722 851h-685q-22 0 -34.5 11.5t-12.5 37.5v251zM882 1724
q-7 -15 -13 -24t-12.5 -13.5t-15.5 -6t-21 -1.5h-201q-14 0 -27 11t-5 39l76 222q9 25 22.5 35t39.5 10h227q19 0 27.5 -17t0.5 -37z" />
    <glyph glyph-name="zacute" unicode="&#x17a;" horiz-adv-x="1096"
d="M115 928q0 24 13.5 38t39.5 14h785q22 0 37.5 -13t15.5 -39v-179q0 -8 -1 -15.5t-6 -18.5q-48 -51 -105.5 -103.5t-116.5 -105t-116 -104.5t-105 -103h396q23 0 38 -13.5t15 -39.5v-189q0 -19 -14.5 -38t-38.5 -19h-794q-29 0 -43.5 20t-16.5 46v150q0 24 11 43t30 39
q43 45 96.5 94t109 98.5t108 98t93.5 91.5h-378q-53 0 -53 57v191zM716 1220q-7 -15 -13 -24t-12.5 -13.5t-15.5 -6t-21 -1.5h-201q-14 0 -27 11t-5 39l76 222q9 25 22.5 35t39.5 10h227q19 0 27.5 -17t0.5 -37z" />
    <glyph glyph-name="Zdotaccent" unicode="&#x17b;" horiz-adv-x="1432"
d="M88 1441q0 20 12.5 32t34.5 12h1161q19 0 32.5 -11t13.5 -33v-202q0 -8 -0.5 -15t-5.5 -18l-724 -863h687q19 0 32 -11t13 -34v-249q0 -17 -12.5 -33t-32.5 -16h-1161q-20 0 -33.5 13t-13.5 36v215q0 15 7 26l722 851h-685q-22 0 -34.5 11.5t-12.5 37.5v251zM533 1841
q0 37 14.5 70.5t39 58t57.5 39t70 14.5q39 0 72.5 -14.5t57.5 -39t38 -58t14 -70.5t-14 -70t-38 -57.5t-57.5 -39t-72.5 -14.5q-37 0 -70 14.5t-57.5 39t-39 57.5t-14.5 70z" />
    <glyph glyph-name="zdotaccent" unicode="&#x17c;" horiz-adv-x="1096"
d="M115 928q0 24 13.5 38t39.5 14h785q22 0 37.5 -13t15.5 -39v-179q0 -8 -1 -15.5t-6 -18.5q-48 -51 -105.5 -103.5t-116.5 -105t-116 -104.5t-105 -103h396q23 0 38 -13.5t15 -39.5v-189q0 -19 -14.5 -38t-38.5 -19h-794q-29 0 -43.5 20t-16.5 46v150q0 24 11 43t30 39
q43 45 96.5 94t109 98.5t108 98t93.5 91.5h-378q-53 0 -53 57v191zM404 1337q0 37 14.5 70.5t39 58t57.5 39t70 14.5q39 0 72.5 -14.5t57.5 -39t38 -58t14 -70.5t-14 -70t-38 -57.5t-57.5 -39t-72.5 -14.5q-37 0 -70 14.5t-57.5 39t-39 57.5t-14.5 70z" />
    <glyph glyph-name="Zcaron" unicode="&#x17d;" horiz-adv-x="1432"
d="M88 1441q0 20 12.5 32t34.5 12h1161q19 0 32.5 -11t13.5 -33v-202q0 -8 -0.5 -15t-5.5 -18l-724 -863h687q19 0 32 -11t13 -34v-249q0 -17 -12.5 -33t-32.5 -16h-1161q-20 0 -33.5 13t-13.5 36v215q0 15 7 26l722 851h-685q-22 0 -34.5 11.5t-12.5 37.5v251zM390 1913
q-5 2 -7 8t-2 14q1 6 2.5 12t6.5 10l110 107q6 10 22 10q3 -1 9 -2.5t13 -4.5l142 -143l139 142q5 5 11 7t11 2q13 0 27 -11l108 -110q9 -11 9 -19q0 -17 -8 -23l-277 -276q-7 -5 -11 -7t-9 -2q-7 0 -11 2.5t-11 6.5z" />
    <glyph glyph-name="zcaron" unicode="&#x17e;" horiz-adv-x="1096"
d="M115 928q0 24 13.5 38t39.5 14h785q22 0 37.5 -13t15.5 -39v-179q0 -8 -1 -15.5t-6 -18.5q-48 -51 -105.5 -103.5t-116.5 -105t-116 -104.5t-105 -103h396q23 0 38 -13.5t15 -39.5v-189q0 -19 -14.5 -38t-38.5 -19h-794q-29 0 -43.5 20t-16.5 46v150q0 24 11 43t30 39
q43 45 96.5 94t109 98.5t108 98t93.5 91.5h-378q-53 0 -53 57v191zM278 1409q-5 2 -7 8t-2 14q1 6 2.5 12t6.5 10l110 107q6 10 22 10q3 -1 9 -2.5t13 -4.5l142 -143l139 142q5 5 11 7t11 2q13 0 27 -11l108 -110q9 -11 9 -19q0 -17 -8 -23l-277 -276q-7 -5 -11 -7t-9 -2
q-7 0 -11 2.5t-11 6.5z" />
    <glyph glyph-name="florin" unicode="&#x192;" horiz-adv-x="732"
d="M48 944q0 50 52 50h63v88q0 49 13.5 96.5t37.5 91t56.5 81.5t70.5 68q63 46 136 67t155 21q28 0 42.5 -14t14.5 -37v-224q0 -21 -11 -32.5t-29 -11.5h-5q-27 0 -50 -7.5t-40 -21t-27 -34t-10 -45.5v-86h105q23 0 37.5 -12t14.5 -38v-179q0 -21 -14 -38t-38 -17h-105v-667
q0 -112 -44 -205t-130 -162q-63 -45 -142 -65t-158 -20q-53 0 -53 49v225q0 20 11.5 32t29.5 12h4q24 0 47 7t41 20.5t29 33.5t11 46v694h-63q-52 0 -52 55v179z" />
    <glyph glyph-name="AEacute" unicode="&#x1fc;" horiz-adv-x="2294"
d="M1074 249h-461l-140 -205q-17 -26 -27.5 -35t-32.5 -9h-348q-23 0 -28.5 14.5t7.5 32.5l991 1394q17 24 28 33.5t31 10.5h977q44 0 44 -44v-257q0 -43 -44 -43h-610v-237h4h449q23 0 36 -11t13 -35v-206q0 -44 -49 -44h-449h-4v-265h629q45 0 45 -44v-255q0 -44 -45 -44
h-972q-44 0 -44 44v205zM1074 580v343l-234 -343h234zM1457 1724q-7 -15 -13 -24t-12.5 -13.5t-15.5 -6t-21 -1.5h-201q-14 0 -27 11t-5 39l76 222q9 25 22.5 35t39.5 10h227q19 0 27.5 -17t0.5 -37z" />
    <glyph glyph-name="aeacute" unicode="&#x1fd;" horiz-adv-x="1872"
d="M1073 1220q-7 -15 -13 -24t-12.5 -13.5t-15.5 -6t-21 -1.5h-201q-14 0 -27 11t-5 39l76 222q9 25 22.5 35t39.5 10h227q19 0 27.5 -17t0.5 -37zM1109 57q0 -29 -18.5 -43t-41.5 -14h-195q-17 0 -26.5 4.5t-16 12t-10.5 18.5t-9 24l-22 58q-14 -21 -30.5 -44.5t-41 -44
t-59 -33.5t-83.5 -13h-11q-108 0 -197.5 38.5t-154.5 106t-101 160.5t-36 201q0 111 35.5 204t100 160.5t154.5 105.5t199 38q51 0 92.5 -14.5t73 -38t53.5 -53.5t35 -61l30 93q7 21 11.5 32.5t10.5 17.5t15 7.5t25 1.5h158q24 0 42 -15.5t18 -41.5v-867zM411 485
q0 -40 12 -74t34 -59t53.5 -39t69.5 -14q39 0 72.5 14t57.5 39t37.5 59t13.5 74q0 39 -13.5 73t-37.5 59.5t-57.5 40.5t-72.5 15q-38 0 -69.5 -15t-53.5 -40.5t-34 -59.5t-12 -73zM1646 82q-66 -52 -146 -80t-168 -28q-105 0 -197.5 40t-162 110t-110 164t-40.5 201
q0 101 36.5 194t102 164t154.5 113t194 42q98 0 186.5 -37t155 -101.5t105.5 -152t39 -187.5q0 -34 -7 -59t-24 -41t-46.5 -24t-74.5 -8h-495q10 -34 30.5 -59.5t46 -43t53 -26t51.5 -8.5q40 0 80.5 11.5t66.5 27.5q22 10 32 19.5t24 9.5q8 0 15.5 -4.5t18.5 -16.5l101 -144
q10 -14 10 -29q0 -14 -8.5 -26t-22.5 -21zM1315 722q-27 0 -52 -9t-45.5 -24.5t-37 -35.5t-26.5 -42h335q-12 21 -28 41t-36.5 35.5t-47.5 25t-62 9.5z" />
    <glyph glyph-name="Oslashacute" unicode="&#x1fe;" horiz-adv-x="1714"
d="M1010 1724q-7 -15 -13 -24t-12.5 -13.5t-15.5 -6t-21 -1.5h-201q-14 0 -27 11t-5 39l76 222q9 25 22.5 35t39.5 10h227q19 0 27.5 -17t0.5 -37zM92 743q0 106 27.5 203.5t77 182.5t119 154.5t154.5 119.5t182.5 77t203.5 27q34 0 67.5 -3t65.5 -8l34 77q12 24 29 37
t42 13h330q24 0 32 -13t-3 -37l-107 -243q63 -53 114 -118t86.5 -139.5t55 -158t19.5 -171.5q0 -105 -27.5 -203t-77 -183t-119.5 -154.5t-155 -119t-182.5 -77t-203.5 -27.5q-29 0 -57 2t-56 6l-33 -76q-22 -47 -71 -47h-332q-48 0 -27 47l102 233q-66 52 -120 118
t-91.5 142.5t-58 161.5t-20.5 177zM476 743q0 -83 28.5 -155t79 -126t120 -85t152.5 -31t152.5 31t120 85t79 126t28.5 155t-28.5 155.5t-79 126t-120 84.5t-152.5 31t-152.5 -31t-120 -84.5t-79 -126t-28.5 -155.5z" />
    <glyph glyph-name="oslashacute" unicode="&#x1ff;" horiz-adv-x="1208"
d="M80 488q0 106 41 198.5t111.5 160t166 106.5t205.5 39q20 0 38.5 -1.5t37.5 -3.5l44 102q6 13 17.5 22.5t29.5 9.5h204q15 0 26 -6t11 -17q0 -8 -1 -9l-89 -200q46 -34 84 -77.5t64.5 -94.5t41 -109t14.5 -120q0 -106 -41 -198.5t-111.5 -160.5t-166 -107.5t-203.5 -39.5
q-56 0 -105 10l-50 -96q-8 -18 -15 -25t-23 -7h-221q-30 0 -30 19q0 1 1 3t1 4t1 6l99 206q-85 69 -133.5 168.5t-48.5 217.5zM436 485q0 -40 12 -74t34 -59t53.5 -39t70.5 -14t70 14t53 39t34 59t12 74q0 39 -12 73t-34 59.5t-53 40.5t-70 15t-70.5 -15t-53.5 -40.5
t-34 -59.5t-12 -73zM732 1220q-7 -15 -13 -24t-12.5 -13.5t-15.5 -6t-21 -1.5h-201q-14 0 -27 11t-5 39l76 222q9 25 22.5 35t39.5 10h227q19 0 27.5 -17t0.5 -37z" />
    <glyph glyph-name="Scommaaccent" unicode="&#x218;" horiz-adv-x="1312"
d="M347 479q17 -14 43.5 -37.5t60.5 -46.5q50 -34 100.5 -53t105.5 -19q51 0 85.5 11.5t54.5 30.5t28.5 44t8.5 53q0 31 -23.5 55.5t-57.5 43.5t-71 32.5t-64 22.5q-120 42 -210 90.5t-150 108t-90 131.5t-30 159q0 93 37.5 169t107 130t167.5 83.5t219 29.5
q90 0 174.5 -20.5t164.5 -65.5q34 -20 64.5 -41t53.5 -41.5t36.5 -38.5t13.5 -31t-6.5 -24t-19.5 -25l-153 -163q-17 -17 -34 -17q-14 0 -25.5 8t-25.5 20l-9 8q-20 17 -44.5 35t-52.5 32.5t-59 24t-63 9.5q-33 0 -62 -5.5t-51 -17.5t-35 -31.5t-13 -47.5t14 -48.5t42 -38
t69.5 -33t96.5 -33.5q106 -35 195.5 -73.5t154.5 -91t101.5 -125.5t36.5 -177q0 -110 -45 -199.5t-123.5 -152.5t-184.5 -97.5t-228 -34.5q-77 0 -153.5 19.5t-147 54t-133 80.5t-110.5 99l-3 3l-4 4l-4 4q-23 24 -23 40q0 17 23 38l173 165q21 15 34 15q9 0 19 -6t24 -18z
M467 -296q0 39 14.5 72t39 57t57.5 38t70 14q39 0 72.5 -14t58 -39.5t38 -62t13.5 -80.5q0 -96 -19 -166.5t-45.5 -117.5t-54 -70t-45.5 -23q-11 0 -17.5 2.5t-14.5 8.5l-42 32q-9 8 -14.5 20t-5.5 21q0 18 8 30.5t17 24.5t17 26t8 36v10q-31 5 -59 21.5t-49.5 41t-34 55
t-12.5 63.5z" />
    <glyph glyph-name="scommaaccent" unicode="&#x219;" horiz-adv-x="980"
d="M287 340q48 -39 89.5 -58.5t74.5 -19.5q24 0 45 2.5t37 7.5t25.5 14t9.5 23q0 28 -37 43t-101 32q-99 26 -165.5 60t-107 75.5t-57.5 90t-17 104.5q0 64 30.5 116.5t84.5 89.5t127.5 57.5t159.5 20.5q51 0 99.5 -5t93.5 -18.5t87 -37.5t81 -62q11 -14 11 -26
q-1 -9 -5 -18.5t-15 -18.5q-9 -8 -27.5 -26.5t-39 -40t-38.5 -40.5t-26 -27q-7 -7 -14.5 -9.5t-14.5 -2.5q-12 0 -22.5 6t-21.5 17q-13 13 -31 22.5t-37.5 16t-38.5 10t-35 3.5t-32 -3.5t-28.5 -10.5t-20 -17.5t-7.5 -23.5q0 -19 15 -30.5t37 -18t46.5 -11t44.5 -10.5
q74 -23 139 -46.5t113.5 -58t76.5 -84.5t28 -125q0 -77 -35 -137t-95.5 -101t-141 -62.5t-170.5 -21.5q-104 0 -200.5 37t-170.5 118q-20 22 -20 42q0 17 16 33l133 139q7 7 14 9.5t13 3.5q9 0 18.5 -6t22.5 -16zM283 -296q0 39 14.5 72t39 57t57.5 38t70 14q39 0 72.5 -14
t58 -39.5t38 -62t13.5 -80.5q0 -96 -19 -166.5t-45.5 -117.5t-54 -70t-45.5 -23q-11 0 -17.5 2.5t-14.5 8.5l-42 32q-9 8 -14.5 20t-5.5 21q0 18 8 30.5t17 24.5t17 26t8 36v10q-31 5 -59 21.5t-49.5 41t-34 55t-12.5 63.5z" />
    <glyph glyph-name="uni021A" unicode="&#x21a;" horiz-adv-x="1266"
d="M80 1441q0 44 44 44h1085q44 0 44 -44v-254q0 -44 -44 -44h-355v-1099q0 -44 -45 -44h-288q-44 0 -44 44v1099h-353q-44 0 -44 44v254zM461 -317q0 39 14.5 72t39 57t57.5 38t70 14q39 0 72.5 -14t58 -39.5t38 -62t13.5 -80.5q0 -96 -19 -166.5t-45.5 -117.5t-54 -70
t-45.5 -23q-11 0 -17.5 2.5t-14.5 8.5l-42 32q-9 8 -14.5 20t-5.5 21q0 18 8 30.5t17 24.5t17 26t8 36v10q-31 5 -59 21.5t-49.5 41t-34 55t-12.5 63.5z" />
    <glyph glyph-name="uni021B" unicode="&#x21b;" horiz-adv-x="668"
d="M159 1255q0 20 13.5 35.5t39.5 20.5l248 39q20 0 32 -13.5t12 -35.5v-300h89q25 0 41.5 -14.5t16.5 -43.5v-156q0 -25 -16 -43t-42 -18h-89v-675q0 -51 -56 -51h-237q-52 0 -52 51v675h-56q-59 0 -59 61v156q0 58 59 58h56v254zM146 -296q0 39 14.5 72t39 57t57.5 38
t70 14q39 0 72.5 -14t58 -39.5t38 -62t13.5 -80.5q0 -96 -19 -166.5t-45.5 -117.5t-54 -70t-45.5 -23q-11 0 -17.5 2.5t-14.5 8.5l-42 32q-9 8 -14.5 20t-5.5 21q0 18 8 30.5t17 24.5t17 26t8 36v10q-31 5 -59 21.5t-49.5 41t-34 55t-12.5 63.5z" />
    <glyph glyph-name="dotlessj" unicode="&#x237;" horiz-adv-x="650"
d="M128 930q0 24 15 38t38 14h249q21 0 37.5 -15t16.5 -37v-899q0 -104 -32.5 -187t-92.5 -141t-144 -88.5t-186 -30.5q-29 0 -44 15t-15 40v191q0 23 13.5 36t34.5 13h4q21 0 40 8t33.5 22t23.5 34.5t9 46.5v940z" />
    <glyph glyph-name="circumflex" unicode="&#x2c6;" horiz-adv-x="748"
d="M646 1325q14 -14 15.5 -30t-15.5 -32l-82 -78q-15 -15 -31 -14.5t-30 14.5l-129 128l-126 -130q-14 -14 -30 -14.5t-32 14.5l-83 80q-17 16 -15.5 32t15.5 30l242 241q5 5 13 10t19 5q12 0 17.5 -3.5t13.5 -11.5z" />
    <glyph glyph-name="caron" unicode="&#x2c7;" horiz-adv-x="740"
d="M77 1409q-5 2 -7 8t-2 14q1 6 2.5 12t6.5 10l110 107q6 10 22 10q3 -1 9 -2.5t13 -4.5l142 -143l139 142q5 5 11 7t11 2q13 0 27 -11l108 -110q9 -11 9 -19q0 -17 -8 -23l-277 -276q-7 -5 -11 -7t-9 -2q-7 0 -11 2.5t-11 6.5z" />
    <glyph glyph-name="uni02C9" unicode="&#x2c9;" horiz-adv-x="980"
d="M102 1355q0 35 36 35h701q36 0 36 -35v-77q0 -11 -8.5 -25t-27.5 -14h-701q-36 0 -36 39v77z" />
    <glyph glyph-name="breve" unicode="&#x2d8;" horiz-adv-x="652"
d="M323 1199q-59 1 -109 22.5t-87 56.5t-58 79.5t-21 92.5q0 17 11.5 27t26.5 10h144q11 0 17 -6.5t6 -15.5q0 -23 18 -41.5t56 -18.5q34 0 52.5 19t18.5 41q0 9 5 15.5t16 6.5h146q15 0 26.5 -10t11.5 -27q0 -49 -21.5 -94t-59.5 -79.5t-89 -55.5t-110 -22z" />
    <glyph glyph-name="dotaccent" unicode="&#x2d9;" horiz-adv-x="542"
d="M90 1293q0 33 12.5 61.5t34 50t50 34t60.5 12.5q34 0 63 -12.5t50 -34t33 -50t12 -61.5q0 -32 -12 -60.5t-33 -50t-50 -34t-63 -12.5q-32 0 -60.5 12.5t-50 34t-34 50t-12.5 60.5z" />
    <glyph glyph-name="ring" unicode="&#x2da;" horiz-adv-x="766"
d="M373 1522q43 0 81.5 -16.5t67.5 -45.5t45.5 -67.5t16.5 -81.5q0 -44 -16.5 -82t-45.5 -66.5t-67.5 -44.5t-81.5 -16q-44 0 -82 16t-66.5 44.5t-44.5 66.5t-16 82q0 43 16 81.5t44.5 67.5t66.5 45.5t82 16.5zM374 1372q-26 0 -42 -17t-16 -43t16 -42t42 -16t43 16t17 42
t-17 43t-43 17z" />
    <glyph glyph-name="ogonek" unicode="&#x2db;" horiz-adv-x="516"
d="M475 0q14 -14 17 -25.5t3 -22.5q0 -29 -15 -51t-37.5 -40t-48.5 -33.5t-48.5 -31t-37.5 -32.5t-15 -39q0 -63 171 -106q11 -6 11 -22q0 -9 -11 -35.5t-27 -54.5t-34 -50t-33 -22h-5q-76 23 -138.5 57.5t-107 74.5t-69 81t-24.5 77q0 37 15.5 64.5t38.5 49t49.5 38
t49.5 30.5t38.5 28t15.5 30q0 20 -22 35h264z" />
    <glyph glyph-name="tilde" unicode="&#x2dc;" horiz-adv-x="880"
d="M221 1189q-9 -11 -18.5 -11t-19 5.5t-18.5 13.5t-15 14l-63 62q-15 13 -21 21t-5.5 15.5t7.5 17t19 26.5q41 60 99 94t124 34q38 -1 75 -17t70 -34.5t61.5 -34t48.5 -15.5q26 0 41.5 13.5t35.5 38.5q19 24 38 23t35 -18l91 -92q13 -13 12 -24.5t-6 -17.5
q-45 -69 -107.5 -107.5t-137.5 -38.5q-40 0 -75 15.5t-66.5 34.5t-60 34.5t-53.5 15.5q-19 0 -32 -7t-23.5 -17t-18.5 -22t-17 -22z" />
    <glyph glyph-name="hungarumlaut" unicode="&#x2dd;" horiz-adv-x="1030"
d="M196 1443q19 42 53 42h212q19 0 26 -7t7 -18q0 -8 -3 -18.5t-8 -20.5l-88 -205q-12 -22 -23.5 -32t-30.5 -10h-219q-26 0 -26 22q0 8 1 17t8 20zM648 1443q19 42 53 42h212q19 0 26 -7t7 -18q0 -8 -3 -18.5t-8 -20.5l-88 -205q-12 -22 -23.5 -32t-30.5 -10h-219
q-26 0 -26 22q0 8 1 17t8 20z" />
    <glyph glyph-name="uni037E" unicode="&#x37e;" horiz-adv-x="528"
d="M119 952q0 37 14.5 70.5t39 58t57.5 39t70 14.5q39 0 72.5 -14.5t57.5 -39t38 -58t14 -70.5t-14 -70t-38 -57.5t-57.5 -39t-72.5 -14.5q-37 0 -70 14.5t-57.5 39t-39 57.5t-14.5 70zM116 159q0 39 14.5 72t39 57t57.5 38t70 14q39 0 72.5 -14t58 -39.5t38 -62t13.5 -80.5
q0 -96 -19 -166.5t-45.5 -117.5t-54 -70t-45.5 -23q-11 0 -17.5 2.5t-14.5 8.5l-47 34q-18 18 -18 35q0 12 7 23.5t16 25.5q11 11 20.5 28t9.5 44v10q-31 5 -59 21.5t-49.5 41t-34 55t-12.5 63.5z" />
    <glyph glyph-name="tonos" unicode="&#x384;" horiz-adv-x="516"
d="M171 1128q-16 2 -26.5 10.5t-10.5 25.5l-34 299q1 9 7.5 16.5t18.5 7.5h193q14 0 22 -8t5 -21l-31 -294q-2 -14 -11.5 -25t-22.5 -11h-110z" />
    <glyph glyph-name="dieresistonos" unicode="&#x385;" horiz-adv-x="860"
d="M78 1320q0 44 17.5 59.5t57.5 15.5h44q16 0 29.5 -3.5t23.5 -12t16 -23t6 -36.5v-44q0 -40 -17.5 -57.5t-57.5 -17.5h-44q-40 0 -57.5 17.5t-17.5 57.5v44zM575 1320q0 44 17.5 59.5t57.5 15.5h44q16 0 29.5 -3.5t23.5 -12t16 -23t6 -36.5v-44q0 -40 -17.5 -57.5
t-57.5 -17.5h-44q-40 0 -57.5 17.5t-17.5 57.5v44zM393 1195q-20 2 -33 12t-13 32l-33 294q-2 15 8 25.5t27 10.5h141q18 0 29 -12t8 -30l-31 -288q-2 -17 -14.5 -30.5t-29.5 -13.5h-59z" />
    <glyph glyph-name="Alphatonos" unicode="&#x386;" horiz-adv-x="1532"
d="M149 1130q-16 2 -26.5 10.5t-10.5 25.5l-34 299q1 9 7.5 16.5t18.5 7.5h193q14 0 22 -8t5 -21l-31 -294q-2 -14 -11.5 -25t-22.5 -11h-110zM586 1441q18 44 62 44h245q43 0 60 -44l546 -1397q17 -44 -28 -44h-298q-44 0 -59 44l-70 196h-546l-68 -196q-15 -44 -60 -44
h-298q-46 0 -28 44zM610 561h319l-161 455z" />
    <glyph glyph-name="anoteleia" unicode="&#x387;" horiz-adv-x="454"
 />
    <glyph glyph-name="Epsilontonos" unicode="&#x388;" horiz-adv-x="1382"
d="M-37 1128q-16 2 -26.5 10.5t-10.5 25.5l-34 299q1 9 7.5 16.5t18.5 7.5h193q14 0 22 -8t5 -21l-31 -294q-2 -14 -11.5 -25t-22.5 -11h-110zM208 1441q0 44 44 44h995q44 0 44 -44v-257q0 -43 -44 -43h-652v-247h495q23 0 36 -11.5t13 -34.5v-206q0 -44 -49 -44h-495v-255
h671q44 0 44 -44v-255q0 -44 -44 -44h-1014q-44 0 -44 44v1397z" />
    <glyph glyph-name="Etatonos" unicode="&#x389;" horiz-adv-x="1652"
d="M-31 1130q-16 2 -26.5 10.5t-10.5 25.5l-34 299q1 9 7.5 16.5t18.5 7.5h193q14 0 22 -8t5 -21l-31 -294q-2 -14 -11.5 -25t-22.5 -11h-110zM1126 612h-502v-568q0 -44 -48 -44h-294q-43 0 -43 44v1397q0 18 10.5 31t32.5 13h300q13 0 27.5 -7.5t14.5 -34.5v-477h502v475
q0 18 11 31t33 13h300q12 0 26.5 -7.5t14.5 -34.5v-1399q0 -44 -47 -44h-294q-44 0 -44 44v568z" />
    <glyph glyph-name="Iotatonos" unicode="&#x38a;" horiz-adv-x="708"
d="M13 1127q-16 2 -26.5 10.5t-10.5 25.5l-34 299q1 9 7.5 16.5t18.5 7.5h193q14 0 22 -8t5 -21l-31 -294q-2 -14 -11.5 -25t-22.5 -11h-110zM257 1441q0 44 43 44h299q44 0 44 -44v-1397q0 -44 -44 -44h-299q-43 0 -43 44v1397z" />
    <glyph glyph-name="Omicrontonos" unicode="&#x38c;" horiz-adv-x="1760"
d="M475 742q0 -83 28 -155t78.5 -125.5t119.5 -84t152 -30.5t152.5 30.5t120 84t78.5 125.5t28 155q0 82 -28 154.5t-78.5 126.5t-120 85t-152.5 31t-152 -31t-119.5 -85t-78.5 -126.5t-28 -154.5zM89 741q0 106 27 203.5t77 183t119.5 155.5t154.5 119.5t182.5 77
t203.5 27.5q105 0 203 -27.5t183 -77t155 -119.5t119.5 -155.5t77 -183t27.5 -203.5t-27.5 -203.5t-77 -182t-119.5 -154t-155 -119.5t-183 -77t-203 -27q-106 0 -203.5 27t-182.5 77t-154.5 119.5t-119.5 154t-77 182t-27 203.5zM-25 1128q-16 2 -26.5 10.5t-10.5 25.5
l-34 299q1 9 7.5 16.5t18.5 7.5h193q14 0 22 -8t5 -21l-31 -294q-2 -14 -11.5 -25t-22.5 -11h-110z" />
    <glyph glyph-name="Upsilontonos" unicode="&#x38e;" horiz-adv-x="1626"
d="M43 1128q-16 2 -26.5 10.5t-10.5 25.5l-34 299q1 9 7.5 16.5t18.5 7.5h193q14 0 22 -8t5 -21l-31 -294q-2 -14 -11.5 -25t-22.5 -11h-110zM725 605l-472 836q-11 20 -2.5 32t31.5 12h342q22 0 35.5 -10.5t24.5 -33.5l235 -501l233 501q11 23 24.5 33.5t35.5 10.5h347
q22 0 30.5 -12t-2.5 -32l-475 -834v-563q0 -44 -44 -44h-299q-44 0 -44 44v561z" />
    <glyph glyph-name="Omegatonos" unicode="&#x38f;" horiz-adv-x="1560"
d="M-3 1130q-16 2 -26.5 10.5t-10.5 25.5l-34 299q1 9 7.5 16.5t18.5 7.5h193q14 0 22 -8t5 -21l-31 -294q-2 -14 -11.5 -25t-22.5 -11h-110zM181 -1q-37 0 -37 35v243q0 37 37 37l166 -2v41q-98 91 -154 216t-56 271q0 88 23.5 171.5t66 157.5t102.5 136t134 106.5
t159.5 69t178.5 24.5q138 0 259.5 -52t211.5 -142t142 -211.5t52 -259.5q0 -146 -55.5 -270t-152.5 -215v-41h158q36 0 36 -37v-243q0 -35 -36 -35h-482q-37 0 -37 35v484q0 12 6.5 24t22.5 19q40 18 73.5 47t57.5 65.5t37.5 79.5t13.5 90q0 64 -24.5 121t-67 99.5t-99.5 67
t-121 24.5q-65 0 -121.5 -24.5t-98.5 -67t-66 -99.5t-24 -121q0 -47 13 -90.5t37 -80t57 -65t74 -46.5q18 -8 24.5 -18t6.5 -24v-485q0 -35 -35 -35h-482z" />
    <glyph glyph-name="iotadieresistonos" unicode="&#x390;" horiz-adv-x="494"
d="M-142 1237q0 33 12.5 61.5t34 50t50 34t60.5 12.5q34 0 63 -12.5t50 -34t33 -50t12 -61.5q0 -32 -12 -60.5t-33 -50t-50 -34t-63 -12.5q-32 0 -60.5 12.5t-50 34t-34 50t-12.5 60.5zM418 1239q0 33 12.5 62t33.5 50.5t49.5 34t60.5 12.5q34 0 63 -12.5t50.5 -34
t33.5 -50.5t12 -62q0 -32 -12 -60.5t-33.5 -49.5t-50.5 -33.5t-63 -12.5q-32 0 -60.5 12.5t-49.5 33.5t-33.5 49.5t-12.5 60.5zM239 1336q-16 2 -26.5 10.5t-10.5 25.5l-34 299q1 9 7.5 16.5t18.5 7.5h193q14 0 22 -8t5 -21l-31 -294q-2 -14 -11.5 -25t-22.5 -11h-110z
M110 931q0 21 12.5 36.5t37.5 15.5h250q8 0 17.5 -4t18 -10.5t14 -16t5.5 -21.5v-880q0 -51 -55 -51h-250q-50 0 -50 51v880z" />
    <glyph glyph-name="Alpha" unicode="&#x391;" horiz-adv-x="1530"
d="M586 1441q18 44 62 44h245q43 0 60 -44l546 -1397q17 -44 -28 -44h-298q-44 0 -59 44l-70 196h-546l-68 -196q-15 -44 -60 -44h-298q-46 0 -28 44zM610 561h319l-161 455z" />
    <glyph glyph-name="Beta" unicode="&#x392;" horiz-adv-x="1410"
d="M158 1439q0 21 11.5 33.5t32.5 12.5h634q88 0 166 -33.5t136.5 -92t92.5 -137t34 -168.5q0 -75 -23.5 -139.5t-66.5 -115.5q71 -66 113.5 -157.5t42.5 -192.5q0 -91 -35 -172.5t-94.5 -143t-139 -97.5t-167.5 -36h-693q-20 0 -32 10.5t-12 32.5v1396zM934 464
q0 30 -11.5 60t-32 53.5t-49 38.5t-61.5 15h-234v-334h234q33 0 61 14t49 37.5t32.5 53.5t11.5 62zM881 1045q0 30 -11 56t-31 46t-48 31.5t-61 11.5h-184v-290h181q34 0 62.5 10.5t48.5 30t31.5 46t11.5 58.5z" />
    <glyph glyph-name="Gamma" unicode="&#x393;" horiz-adv-x="1210"
d="M162 1442q0 44 44 44h893q21 0 32.5 -14.5t11.5 -31.5v-263q0 -21 -13 -33t-31 -12h-550v-1088q0 -20 -14.5 -32t-31.5 -12h-296q-21 0 -33 13t-12 31v1398z" />
    <glyph glyph-name="Delta" unicode="&#x394;" horiz-adv-x="1530"
d="M566 1441q17 44 61 44h256q43 0 60 -44l529 -1397q18 -44 -28 -44h-1379q-46 0 -28 44zM512 310h486l-243 731z" />
    <glyph glyph-name="Epsilon" unicode="&#x395;" horiz-adv-x="1350"
d="M160 1441q0 44 44 44h995q44 0 44 -44v-257q0 -43 -44 -43h-652v-247h495q23 0 36 -11.5t13 -34.5v-206q0 -44 -49 -44h-495v-255h671q44 0 44 -44v-255q0 -44 -44 -44h-1014q-44 0 -44 44v1397z" />
    <glyph glyph-name="Zeta" unicode="&#x396;" horiz-adv-x="1364"
d="M88 1441q0 20 12.5 32t34.5 12h1161q19 0 32.5 -11t13.5 -33v-202q0 -8 -0.5 -15t-5.5 -18l-724 -863h687q19 0 32 -11t13 -34v-249q0 -17 -12.5 -33t-32.5 -16h-1161q-20 0 -33.5 13t-13.5 36v215q0 15 7 26l722 851h-685q-22 0 -34.5 11.5t-12.5 37.5v251z" />
    <glyph glyph-name="Eta" unicode="&#x397;" horiz-adv-x="1606"
d="M1051 612h-502v-568q0 -44 -48 -44h-294q-43 0 -43 44v1397q0 18 10.5 31t32.5 13h300q13 0 27.5 -7.5t14.5 -34.5v-477h502v475q0 18 11 31t33 13h300q12 0 26.5 -7.5t14.5 -34.5v-1399q0 -44 -47 -44h-294q-44 0 -44 44v568z" />
    <glyph glyph-name="Theta" unicode="&#x398;" horiz-adv-x="1704"
d="M92 741q0 106 27 203.5t77 183t119.5 155.5t154.5 119.5t182.5 77t203.5 27.5q105 0 203 -27.5t183 -77t155 -119.5t119.5 -155.5t77 -183t27.5 -203.5t-27.5 -203.5t-77 -182t-119.5 -154t-155 -119.5t-183 -77t-203 -27q-106 0 -203.5 27t-182.5 77t-154.5 119.5
t-119.5 154t-77 182t-27 203.5zM856 347q64 0 120.5 18.5t102 52t79.5 80.5t54 103h-711q19 -56 53 -103t79.5 -80.5t102 -52t120.5 -18.5zM856 1139q-62 0 -117 -18t-100 -50t-79 -76.5t-55 -98.5h702q-20 54 -54 98.5t-79.5 76.5t-100.5 50t-117 18z" />
    <glyph glyph-name="Iota" unicode="&#x399;" horiz-adv-x="708"
d="M164 1441q0 44 43 44h299q44 0 44 -44v-1397q0 -44 -44 -44h-299q-43 0 -43 44v1397z" />
    <glyph glyph-name="Kappa" unicode="&#x39a;" horiz-adv-x="1528"
d="M936 852l537 -805q14 -21 10.5 -34t-24.5 -13h-379q-22 0 -35.5 12t-25.5 32l-328 509l-147 -178v-331q0 -44 -44 -44h-299q-43 0 -43 44v1397q0 20 11.5 32t31.5 12h295q5 0 13.5 -3t16 -8.5t13 -13.5t5.5 -19v-548l430 559q19 24 35 28.5t39 4.5h360q12 0 17.5 -4.5
t6.5 -11.5t-2.5 -15t-9.5 -15z" />
    <glyph glyph-name="Lambda" unicode="&#x39b;" horiz-adv-x="1436"
d="M536 1441q17 44 60 44h235q43 0 61 -44l536 -1399q18 -44 -28 -44l-319 2q-45 0 -59 44l-307 896l-304 -896q-17 -44 -60 -44h-323q-45 0 -28 44z" />
    <glyph glyph-name="Mu" unicode="&#x39c;" horiz-adv-x="1920"
d="M559 848l-84 -804q-2 -22 -12 -33t-32 -11h-284q-22 0 -34 11t-10 33l149 1397q2 22 12 33t32 11h350q22 0 29 -10.5t15 -33.5l273 -898l272 898q8 23 15 33.5t29 10.5h350q22 0 32 -11t12 -33l149 -1397q2 -22 -10 -33t-34 -11h-284q-22 0 -32 11t-12 33l-81 784
l-234 -782q-8 -28 -17 -37t-32 -9h-247q-23 0 -32.5 9t-16.5 37z" />
    <glyph glyph-name="Nu" unicode="&#x39d;" horiz-adv-x="1645"
d="M535 909v-865q0 -44 -49 -44h-279q-43 0 -43 44v1397q0 18 10.5 31t32.5 13h324q43 0 71 -44l501 -811v811q0 18 11 31t34 13h278q16 0 32.5 -12t16.5 -32v-1397q0 -44 -49 -44h-293q-45 0 -72 44z" />
    <glyph glyph-name="Xi" unicode="&#x39e;" horiz-adv-x="1390"
d="M94 296q0 44 44 44h1105q18 0 31 -11.5t13 -32.5v-247q0 -15 -12 -31.5t-32 -16.5h-1105q-44 0 -44 48v247zM251 851q0 44 44 44h802q18 0 31 -11.5t13 -32.5v-203q0 -15 -12 -31.5t-32 -16.5h-802q-44 0 -44 48v203zM94 1441q0 44 44 44h1105q18 0 31 -11.5t13 -32.5
v-253q0 -15 -12 -31.5t-32 -16.5h-1105q-44 0 -44 48v253z" />
    </font>
</defs>
</svg>
