<?xml version="1.0" encoding="utf-8"?>
<!-- Generator: Adobe Illustrator 15.1.0, SVG Export Plug-In . SVG Version: 6.00 Build 0)  -->
<!DOCTYPE svg PUBLIC "-//W3C//DTD SVG 1.1//EN" "http://www.w3.org/Graphics/SVG/1.1/DTD/svg11.dtd">
<svg version="1.1" id="Calque_1" xmlns="http://www.w3.org/2000/svg" xmlns:xlink="http://www.w3.org/1999/xlink" x="0px" y="0px"
	 width="205px" height="40px" viewBox="0 0 205 40" enable-background="new 0 0 205 40" xml:space="preserve">
<g>
	<defs>
		<rect id="SVGID_1_" width="205" height="40"/>
	</defs>
	<clipPath id="SVGID_2_">
		<use xlink:href="#SVGID_1_"  overflow="visible"/>
	</clipPath>
	<path clip-path="url(#SVGID_2_)" fill="#0A2828" d="M24.404785,4.763184c0-0.120117,0.040039-0.223145,0.120117-0.309082
		c0.079102-0.085938,0.191895-0.128906,0.337891-0.128906h2.032227c0.278809,0,0.424805,0.145996,0.437988,0.437988v11.654785
		h6.637695c0.120117,0,0.223145,0.040039,0.309082,0.120117s0.128906,0.192871,0.128906,0.337891v1.812988
		c0,0.278809-0.145996,0.42627-0.437988,0.437988h-9.12793c-0.292969,0-0.437988-0.14502-0.437988-0.437988V4.763184z"/>
	<path clip-path="url(#SVGID_2_)" fill="#0A2828" d="M38.939453,18.729492V4.743652c0-0.26709,0.126953-0.398926,0.378906-0.398926
		h9.743164c0.265137,0,0.397949,0.131836,0.397949,0.398926v1.932129c0,0.266113-0.132812,0.397949-0.397949,0.397949h-7.211914
		v3.008789h5.498047c0.291992,0,0.437988,0.133301,0.437988,0.397949v1.893066c0,0.266113-0.145996,0.397949-0.437988,0.397949
		h-5.498047v3.645996h7.391113c0.278809,0,0.418945,0.134277,0.418945,0.399414v1.912598
		c0,0.265137-0.140137,0.398438-0.418945,0.398438h-9.922363C39.066406,19.12793,38.939453,18.994629,38.939453,18.729492"/>
	<path clip-path="url(#SVGID_2_)" fill="#0A2828" d="M52.841309,16.875977c-0.105957-0.118652-0.186035-0.237793-0.237793-0.35791
		c-0.054199-0.120117-0.006836-0.25293,0.13916-0.398926l1.334961-1.313965c0.118652-0.106934,0.23584-0.144043,0.347656-0.109863
		c0.113281,0.032715,0.229004,0.103027,0.349121,0.208984c0.199219,0.199707,0.420898,0.400879,0.667969,0.606934
		c0.245117,0.206055,0.510254,0.39209,0.795898,0.558105c0.285156,0.166992,0.594238,0.298828,0.927246,0.398926
		c0.331055,0.098633,0.684082,0.149902,1.056152,0.149902c0.397949,0,0.75-0.054199,1.055664-0.160156
		c0.305176-0.106934,0.568359-0.249023,0.786133-0.427734c0.220215-0.180176,0.385254-0.385254,0.499023-0.618164
		c0.111816-0.231934,0.168945-0.475098,0.168945-0.727051c0-0.318848-0.097168-0.587891-0.289062-0.808105
		c-0.192871-0.217773-0.427734-0.403809-0.707031-0.556641c-0.278809-0.152344-0.581055-0.279297-0.906738-0.379395
		c-0.325195-0.098633-0.620117-0.181641-0.88623-0.248047c-1.60791-0.479004-2.833008-1.066895-3.675781-1.763672
		c-0.844238-0.697266-1.266113-1.609863-1.266113-2.739258c0-0.611816,0.129883-1.168945,0.38916-1.672852
		c0.259766-0.504883,0.625-0.940918,1.095703-1.306152c0.472168-0.364746,1.039062-0.646973,1.704102-0.84668
		c0.664062-0.199219,1.394043-0.299316,2.190918-0.299316c0.876953,0,1.717285,0.207031,2.520996,0.618164
		c0.803223,0.412109,1.503906,0.916016,2.101074,1.51416c0.239258,0.25293,0.231934,0.511719-0.019043,0.777832l-1.09668,1.173828
		c-0.132324,0.120117-0.258301,0.157227-0.378418,0.110352c-0.119629-0.046387-0.245605-0.12207-0.378906-0.228027
		c-0.158691-0.133301-0.34082-0.279297-0.546875-0.438965c-0.207031-0.15918-0.433105-0.308105-0.678223-0.448242
		c-0.244629-0.140137-0.504883-0.255859-0.776855-0.349121c-0.271973-0.091797-0.553711-0.139648-0.847168-0.139648
		c-0.251953,0-0.514648,0.020996-0.786621,0.060059c-0.271973,0.039551-0.51709,0.116699-0.737305,0.229004
		c-0.21875,0.11377-0.401855,0.272949-0.546875,0.479004c-0.146973,0.205566-0.220215,0.480957-0.220215,0.825684
		c0,0.25293,0.070312,0.472168,0.210449,0.658203c0.138672,0.187012,0.337891,0.348633,0.597656,0.487793
		c0.258301,0.140137,0.563965,0.269043,0.916016,0.388184c0.351074,0.120117,0.740234,0.239746,1.165039,0.359863
		c0.678223,0.198242,1.314941,0.420898,1.913086,0.666992c0.597168,0.246094,1.119141,0.547852,1.562988,0.90625
		c0.445801,0.35791,0.800781,0.783691,1.066895,1.275879c0.265137,0.490723,0.397949,1.082031,0.397949,1.771973
		c0,0.690918-0.151855,1.317871-0.458008,1.882812c-0.305664,0.563965-0.713867,1.045898-1.224609,1.444336
		c-0.512207,0.398926-1.103027,0.70459-1.774414,0.916992c-0.670898,0.211914-1.364746,0.318848-2.082031,0.318848
		c-1.034668,0-2.031738-0.225098-2.987793-0.678223C54.335449,18.198242,53.519531,17.606934,52.841309,16.875977"/>
	<path clip-path="url(#SVGID_2_)" fill="#0A2828" d="M116.620117,4.393555h-2.150391
		c-0.267578,0-0.399414,0.139648-0.399414,0.418945v13.964844c0,0.266113,0.131836,0.398926,0.399414,0.398926h2.150391
		c0.251953,0,0.378906-0.132812,0.378906-0.398926V4.8125C116.999023,4.533203,116.87207,4.393555,116.620117,4.393555"/>
	<path clip-path="url(#SVGID_2_)" fill="#0A2828" d="M93.877441,0.640625l-0.830078,1.890137
		C92.94043,2.808594,92.768555,2.94873,92.529297,2.94873l-1.433594,0.000977c-0.134277,0-0.220215-0.019043-0.259277-0.059082
		c-0.040039-0.039062-0.060059-0.105957-0.060059-0.199219c0-0.052734,0.010254-0.106934,0.029297-0.158691
		c0.02002-0.054199,0.042969-0.126953,0.069824-0.220215l0.790039-1.829102c0.145996-0.278809,0.325195-0.418945,0.538086-0.418945
		L93.697266,0.0625c0.185059,0,0.27832,0.065918,0.279297,0.199219C93.976562,0.368652,93.943359,0.493652,93.877441,0.640625"/>
	<path clip-path="url(#SVGID_2_)" fill="#0A2828" d="M86.287109,18.778809V4.79248c0-0.26709,0.126953-0.398926,0.378906-0.398926
		h9.743164c0.264648,0,0.397949,0.131836,0.397949,0.398926v1.932129c0,0.266113-0.133301,0.397949-0.397949,0.397949h-7.212402
		v3.009277h5.498047c0.291992,0,0.437988,0.132812,0.437988,0.397949v1.892578c0,0.266113-0.145996,0.398438-0.437988,0.398438
		h-5.498047v3.645996h7.391113c0.279297,0,0.418945,0.133789,0.418945,0.398926v1.913086
		c0,0.264648-0.139648,0.397949-0.418945,0.397949h-9.921875C86.414062,19.176758,86.287109,19.043457,86.287109,18.778809"/>
	<path clip-path="url(#SVGID_2_)" fill="#0A2828" d="M100.146484,16.925293c-0.107422-0.119141-0.186035-0.238281-0.239258-0.358398
		c-0.053711-0.119629-0.006836-0.25293,0.13916-0.398926l1.334961-1.313965c0.120117-0.106934,0.23584-0.144043,0.348145-0.109863
		c0.112793,0.033203,0.22998,0.103027,0.349609,0.208984c0.199219,0.200195,0.420898,0.400879,0.666992,0.606934
		c0.245117,0.206055,0.510742,0.39209,0.795898,0.558105c0.286133,0.166992,0.595703,0.298828,0.928711,0.398926
		c0.331055,0.099121,0.683594,0.149902,1.055664,0.149902c0.396484,0,0.75-0.053711,1.055664-0.159668
		c0.304688-0.106445,0.567383-0.249023,0.786133-0.428223c0.21875-0.180176,0.384766-0.384766,0.498047-0.618164
		c0.113281-0.231934,0.168945-0.474609,0.168945-0.727051c0-0.318848-0.095703-0.587891-0.289062-0.807617
		c-0.191406-0.218262-0.427734-0.404297-0.706055-0.557129c-0.27832-0.151855-0.582031-0.278809-0.907227-0.378906
		c-0.324219-0.099121-0.620117-0.182129-0.885742-0.248047c-1.607422-0.479004-2.833984-1.066895-3.676758-1.76416
		c-0.842773-0.696777-1.265137-1.609863-1.265137-2.73877c0-0.612305,0.129883-1.168945,0.388184-1.67334
		c0.259766-0.504883,0.625-0.940918,1.097168-1.305664c0.471191-0.365234,1.038574-0.646973,1.702637-0.847168
		c0.664062-0.199219,1.394531-0.298828,2.192383-0.298828c0.875977,0,1.71582,0.207031,2.519531,0.617676
		c0.802734,0.412109,1.503906,0.916016,2.102539,1.51416c0.238281,0.25293,0.231445,0.512207-0.020508,0.777832l-1.095703,1.174316
		c-0.131836,0.119629-0.258789,0.156738-0.378906,0.109863c-0.119141-0.045898-0.245117-0.12207-0.37793-0.228027
		c-0.15918-0.132812-0.341797-0.278809-0.547852-0.438965c-0.206055-0.15918-0.432617-0.308105-0.677734-0.448242
		c-0.246094-0.139648-0.505859-0.255859-0.776367-0.348633c-0.273438-0.092285-0.555664-0.140137-0.847656-0.140137
		c-0.251953,0-0.514648,0.020996-0.787109,0.060059c-0.272461,0.040039-0.517578,0.116699-0.736328,0.229004
		c-0.220703,0.11377-0.402344,0.272949-0.547852,0.479004c-0.147461,0.206055-0.219727,0.480957-0.219727,0.826172
		c0,0.25293,0.069336,0.47168,0.208984,0.657715c0.139648,0.187012,0.337891,0.349121,0.598633,0.488281
		c0.258789,0.139648,0.563477,0.268555,0.916016,0.387695c0.351562,0.120117,0.739258,0.240234,1.166016,0.359863
		c0.676758,0.198242,1.314453,0.421387,1.913086,0.666992c0.59668,0.246094,1.117188,0.54834,1.5625,0.90625
		s0.799805,0.78418,1.066406,1.275879c0.264648,0.491211,0.398438,1.082031,0.398438,1.771973
		c0,0.690918-0.152344,1.317871-0.458008,1.883301c-0.305664,0.563965-0.714844,1.045898-1.224609,1.443848
		c-0.511719,0.398926-1.104492,0.705078-1.774414,0.916992c-0.670898,0.211914-1.364258,0.318848-2.082031,0.318848
		c-1.036133,0-2.032227-0.225098-2.988281-0.677734C101.640137,18.24707,100.823242,17.65625,100.146484,16.925293"/>
	<path clip-path="url(#SVGID_2_)" fill="#0A2828" d="M120.011719,18.778809V4.791992
		c0-0.266113,0.131836-0.398926,0.399414-0.398926h4.760742c0.942383,0,1.863281,0.188965,2.759766,0.568848
		c0.895508,0.37793,1.693359,0.898926,2.389648,1.562988c0.697266,0.665039,1.258789,1.448242,1.68457,2.351074
		c0.424805,0.903809,0.636719,1.873047,0.636719,2.908691c0,0.99707-0.188477,1.936035-0.568359,2.819336
		c-0.37793,0.883789-0.902344,1.656738-1.572266,2.320801c-0.670898,0.665039-1.455078,1.196289-2.352539,1.594238
		c-0.895508,0.398926-1.861328,0.617676-2.897461,0.657715h-4.84082
		C120.143555,19.176758,120.011719,19.043945,120.011719,18.778809 M129.713867,11.784668
		c0-0.649902-0.123047-1.261719-0.368164-1.833008c-0.24707-0.570801-0.581055-1.068848-1.006836-1.493652
		c-0.423828-0.425293-0.933594-0.760254-1.524414-1.007324c-0.589844-0.244629-1.224609-0.367676-1.902344-0.367676h-1.972656
		v9.403809h1.972656c0.677734,0,1.3125-0.123047,1.902344-0.367676c0.59082-0.246094,1.100586-0.581055,1.524414-1.007324
		c0.425781-0.423828,0.759766-0.921875,1.006836-1.494141C129.59082,13.046875,129.713867,12.436035,129.713867,11.784668"/>
	<path clip-path="url(#SVGID_2_)" fill="#0A2828" d="M148.829102,4.832031c0-0.120117,0.037109-0.223145,0.110352-0.309082
		c0.072266-0.085938,0.182617-0.129395,0.327148-0.129395h2.332031c0.106445,0,0.216797,0.023438,0.329102,0.070312
		c0.112305,0.045898,0.195312,0.123047,0.249023,0.228027l6.554688,9.424805V4.691895
		c0.039062-0.119141,0.102539-0.198242,0.188477-0.238281c0.086914-0.041016,0.169922-0.060059,0.25-0.060059h2.011719
		c0.106445,0,0.211914,0.039062,0.319336,0.119141c0.106445,0.080078,0.160156,0.186035,0.160156,0.319336v13.905762
		c0,0.292969-0.160156,0.438965-0.479492,0.438965h-1.972656c-0.15918,0-0.275391-0.029785-0.347656-0.088867
		c-0.073242-0.061035-0.150391-0.137207-0.229492-0.22998l-6.913086-9.961914v9.841797
		c0.013672,0.292969-0.133789,0.438965-0.438477,0.438965h-2.013672c-0.291992,0-0.4375-0.145996-0.4375-0.438965V4.832031z"/>
	<path clip-path="url(#SVGID_2_)" fill="#0A2828" d="M175.222656,15.729492c0.265625-0.19873,0.478516-0.19873,0.637695,0
		l0.996094,1.694336c0.106445,0.118652,0.146484,0.222656,0.120117,0.308594c-0.027344,0.085938-0.099609,0.17627-0.21875,0.268066
		c-0.572266,0.42627-1.208984,0.76416-1.913086,1.01709c-0.705078,0.251953-1.507812,0.378906-2.411133,0.378906
		c-1.049805,0-2.039062-0.199707-2.96875-0.597656c-0.929688-0.399414-1.742188-0.943359-2.44043-1.634277
		s-1.245117-1.500977-1.643555-2.431152c-0.399414-0.929688-0.598633-1.918945-0.598633-2.967773
		c0-1.062988,0.199219-2.053223,0.598633-2.969238c0.398438-0.916992,0.945312-1.719727,1.643555-2.410645
		c0.698242-0.689941,1.510742-1.230957,2.44043-1.623047s1.918945-0.587891,2.96875-0.587891
		c0.90332,0,1.706055,0.122559,2.411133,0.367676c0.704102,0.24707,1.347656,0.581055,1.932617,1.007324
		c0.106445,0.092773,0.15918,0.186035,0.15918,0.278809s-0.013672,0.166016-0.041016,0.217773L175.84082,7.84082
		c-0.119141,0.158691-0.305664,0.166016-0.558594,0.018555c-0.464844-0.291016-0.919922-0.516602-1.363281-0.675781
		c-0.446289-0.160156-0.94043-0.240234-1.485352-0.240234c-0.677734,0-1.301758,0.123047-1.873047,0.369141
		s-1.066406,0.586914-1.484375,1.024902c-0.417969,0.438965-0.746094,0.951172-0.985352,1.535156
		c-0.240234,0.583984-0.358398,1.21582-0.358398,1.893066c0,0.676758,0.118164,1.312012,0.358398,1.902832
		c0.239258,0.590332,0.567383,1.10791,0.985352,1.553223c0.417969,0.445801,0.913086,0.796875,1.484375,1.056152
		c0.571289,0.259766,1.195312,0.388672,1.873047,0.388672c0.544922,0,1.058594-0.089844,1.543945-0.269043
		C174.462891,16.21875,174.87793,15.995605,175.222656,15.729492"/>
	<path clip-path="url(#SVGID_2_)" fill="#0A2828" d="M180.209961,18.778809V4.79248c0-0.26709,0.125977-0.398926,0.378906-0.398926
		h9.742188c0.265625,0,0.399414,0.131836,0.399414,0.398926v1.932129c0,0.266113-0.133789,0.397949-0.399414,0.397949h-7.211914
		v3.009277h5.499023c0.291992,0,0.438477,0.132812,0.438477,0.397949v1.892578c0,0.266113-0.146484,0.398438-0.438477,0.398438
		h-5.499023v3.645996h7.391602c0.27832,0,0.418945,0.133789,0.418945,0.398926v1.913086
		c0,0.264648-0.140625,0.397949-0.418945,0.397949h-9.921875C180.335938,19.176758,180.209961,19.043457,180.209961,18.778809"/>
	<path clip-path="url(#SVGID_2_)" fill="#0A2828" d="M194.022461,16.925293c-0.106445-0.119141-0.186523-0.238281-0.239258-0.358398
		c-0.052734-0.119629-0.005859-0.25293,0.139648-0.398926l1.334961-1.313965c0.119141-0.106934,0.236328-0.144043,0.348633-0.109863
		c0.112305,0.033203,0.228516,0.103027,0.348633,0.208984c0.199219,0.200195,0.420898,0.400879,0.667969,0.606934
		c0.245117,0.206055,0.509766,0.39209,0.795898,0.558105c0.285156,0.166992,0.59375,0.298828,0.926758,0.398926
		c0.331055,0.099121,0.68457,0.149902,1.056641,0.149902c0.397461,0,0.75-0.053711,1.055664-0.159668
		c0.304688-0.106445,0.568359-0.249023,0.786133-0.428223c0.219727-0.180176,0.384766-0.384766,0.499023-0.618164
		c0.112305-0.231934,0.168945-0.474609,0.168945-0.727051c0-0.318848-0.09668-0.587891-0.289062-0.807617
		c-0.193359-0.218262-0.427734-0.404297-0.707031-0.557129c-0.279297-0.151855-0.581055-0.278809-0.907227-0.378906
		c-0.325195-0.099121-0.620117-0.182129-0.885742-0.248047c-1.608398-0.479004-2.833008-1.066895-3.675781-1.76416
		c-0.84375-0.696777-1.266602-1.609863-1.266602-2.73877c0-0.612305,0.130859-1.168945,0.389648-1.67334
		c0.259766-0.504883,0.625-0.940918,1.095703-1.305664c0.47168-0.365234,1.039062-0.646973,1.704102-0.847168
		c0.664062-0.199219,1.393555-0.298828,2.191406-0.298828c0.876953,0,1.716797,0.207031,2.520508,0.617676
		c0.802734,0.412109,1.503906,0.916016,2.100586,1.51416c0.239258,0.25293,0.232422,0.512207-0.018555,0.777832l-1.09668,1.174316
		c-0.131836,0.119629-0.258789,0.156738-0.37793,0.109863c-0.120117-0.045898-0.246094-0.12207-0.378906-0.228027
		c-0.15918-0.132812-0.341797-0.278809-0.547852-0.438965c-0.207031-0.15918-0.432617-0.308105-0.677734-0.448242
		c-0.245117-0.139648-0.504883-0.255859-0.777344-0.348633c-0.271484-0.092285-0.553711-0.140137-0.84668-0.140137
		c-0.251953,0-0.514648,0.020996-0.787109,0.060059c-0.271484,0.040039-0.516602,0.116699-0.736328,0.229004
		c-0.219727,0.11377-0.402344,0.272949-0.547852,0.479004c-0.146484,0.206055-0.219727,0.480957-0.219727,0.826172
		c0,0.25293,0.070312,0.47168,0.209961,0.657715c0.139648,0.187012,0.337891,0.349121,0.598633,0.488281
		c0.257812,0.139648,0.563477,0.268555,0.916016,0.387695c0.350586,0.120117,0.739258,0.240234,1.164062,0.359863
		c0.678711,0.198242,1.31543,0.421387,1.913086,0.666992c0.597656,0.246094,1.119141,0.54834,1.563477,0.90625
		c0.446289,0.35791,0.800781,0.78418,1.067383,1.275879C204.867188,13.532227,205,14.123047,205,14.812988
		c0,0.690918-0.152344,1.317871-0.458008,1.883301c-0.305664,0.563965-0.713867,1.045898-1.224609,1.443848
		c-0.512695,0.398926-1.103516,0.705078-1.774414,0.916992s-1.365234,0.318848-2.082031,0.318848
		c-1.035156,0-2.032227-0.225098-2.988281-0.677734C195.515625,18.24707,194.700195,17.65625,194.022461,16.925293"/>
	<path clip-path="url(#SVGID_2_)" fill="#0A2828" d="M72.495117,39.382812V25.415039
		c0-0.277344,0.133301-0.416992,0.399414-0.416992h2.150879c0.25293,0,0.378906,0.139648,0.378906,0.416992v13.967773
		c0,0.265625-0.125977,0.398438-0.378906,0.398438h-2.150879C72.628418,39.78125,72.495117,39.648438,72.495117,39.382812"/>
	<path clip-path="url(#SVGID_2_)" fill="#0A2828" d="M92.364746,39.382812V25.415039
		c0-0.277344,0.132812-0.416992,0.398926-0.416992h2.150879c0.25293,0,0.378906,0.139648,0.378906,0.416992v13.967773
		c0,0.265625-0.125977,0.398438-0.378906,0.398438h-2.150879C92.497559,39.78125,92.364746,39.648438,92.364746,39.382812"/>
	<path clip-path="url(#SVGID_2_)" fill="#0A2828" d="M98.373535,25.426758c0-0.120117,0.040039-0.222656,0.120117-0.308594
		c0.078613-0.086914,0.191895-0.129883,0.337891-0.129883h2.031738c0.279297,0,0.425293,0.146484,0.437988,0.438477v11.655273
		h6.638184c0.120117,0,0.222656,0.040039,0.308594,0.120117c0.086914,0.079102,0.129883,0.192383,0.129883,0.337891v1.8125
		c0,0.279297-0.146484,0.425781-0.438477,0.438477h-9.12793c-0.292969,0-0.437988-0.145508-0.437988-0.438477V25.426758z"/>
	<path clip-path="url(#SVGID_2_)" fill="#0A2828" d="M111.496094,25.426758c0-0.120117,0.040039-0.222656,0.120117-0.308594
		c0.079102-0.086914,0.192383-0.129883,0.337891-0.129883h2.032227c0.279297,0,0.424805,0.146484,0.438477,0.438477v11.655273
		h6.637695c0.120117,0,0.222656,0.040039,0.308594,0.120117C121.457031,37.28125,121.5,37.394531,121.5,37.540039v1.8125
		c0,0.279297-0.145508,0.425781-0.4375,0.438477h-9.12793c-0.292969,0-0.438477-0.145508-0.438477-0.438477V25.426758z"/>
	<path clip-path="url(#SVGID_2_)" fill="#0A2828" d="M34.20752,36.333984c0.266113-0.198242,0.479004-0.198242,0.638184,0
		l0.996094,1.693359c0.105957,0.120117,0.145996,0.222656,0.120117,0.308594
		c-0.027344,0.087891-0.100098,0.176758-0.219238,0.269531c-0.571777,0.425781-1.208984,0.763672-1.913086,1.016602
		C33.124512,39.873047,32.321777,40,31.418457,40c-1.049805,0-2.038574-0.198242-2.96875-0.597656
		c-0.929199-0.397461-1.742188-0.943359-2.439941-1.633789c-0.698242-0.69043-1.245117-1.5-1.644043-2.431641
		c-0.398926-0.928711-0.598145-1.917969-0.598145-2.966797c0-1.0625,0.199219-2.052734,0.598145-2.96875
		c0.398926-0.916992,0.945801-1.719727,1.644043-2.411133c0.697754-0.69043,1.510742-1.231445,2.439941-1.624023
		c0.930176-0.391602,1.918945-0.587891,2.96875-0.587891c0.90332,0,1.706055,0.123047,2.411133,0.369141
		c0.704102,0.246094,1.348145,0.581055,1.933105,1.005859c0.105957,0.092773,0.15918,0.186523,0.15918,0.279297
		s-0.01416,0.166016-0.041016,0.21875l-1.055176,1.793945c-0.119141,0.15918-0.305176,0.165039-0.558105,0.019531
		c-0.464844-0.291016-0.919922-0.518555-1.36377-0.677734c-0.446289-0.160156-0.939941-0.238281-1.485352-0.238281
		c-0.677734,0-1.301758,0.123047-1.872559,0.367188c-0.571289,0.24707-1.066406,0.588867-1.484375,1.026367
		c-0.417969,0.439453-0.74707,0.951172-0.98584,1.53418c-0.239746,0.584961-0.35791,1.21582-0.35791,1.893555
		c0,0.676758,0.118164,1.311523,0.35791,1.902344c0.23877,0.59082,0.567871,1.109375,0.98584,1.553711
		c0.417969,0.445312,0.913086,0.796875,1.484375,1.056641c0.570801,0.258789,1.194824,0.387695,1.872559,0.387695
		c0.54541,0,1.059082-0.089844,1.544434-0.269531C33.447754,36.822266,33.862793,36.600586,34.20752,36.333984"/>
	<path clip-path="url(#SVGID_2_)" fill="#0A2828" d="M48.313965,39.382812v-5.977539h-6.634277v5.977539
		c0,0.265625-0.146973,0.398438-0.438965,0.398438h-2.091797c-0.251953,0-0.37793-0.132812-0.37793-0.398438V25.415039
		c0-0.117188,0.029785-0.217773,0.089844-0.297852c0.059082-0.080078,0.155273-0.119141,0.288086-0.119141h2.152832
		c0.079102,0,0.162109,0.026367,0.248047,0.079102c0.086914,0.053711,0.129883,0.15918,0.129883,0.319336v5.200195h6.634277
		v-5.181641c0-0.117188,0.029785-0.217773,0.089844-0.297852c0.059082-0.080078,0.155273-0.119141,0.289062-0.119141h2.150879
		c0.081055,0,0.160156,0.026367,0.240234,0.079102c0.079102,0.053711,0.119141,0.15918,0.119141,0.319336v13.986328
		c0,0.265625-0.13916,0.398438-0.418457,0.398438h-2.091797C48.440918,39.78125,48.313965,39.648438,48.313965,39.382812"/>
	<path clip-path="url(#SVGID_2_)" fill="#0A2828" d="M69.603027,32.389648c0,1.048828-0.199219,2.036133-0.597168,2.958008
		c-0.398926,0.922852-0.943848,1.727539-1.633789,2.411133c-0.690918,0.68457-1.501953,1.224609-2.431152,1.624023
		c-0.929688,0.399414-1.919922,0.59668-2.96875,0.59668c-1.049316,0-2.035156-0.197266-2.958008-0.59668
		c-0.92334-0.399414-1.727051-0.939453-2.410156-1.624023c-0.685059-0.683594-1.223145-1.488281-1.615234-2.411133
		c-0.390625-0.921875-0.586914-1.90918-0.586914-2.958008c0-1.0625,0.196289-2.054688,0.586914-2.978516
		c0.39209-0.922852,0.930176-1.727539,1.615234-2.411133c0.683105-0.683594,1.486816-1.225586,2.410156-1.623047
		c0.922852-0.398438,1.908691-0.598633,2.958008-0.598633c1.048828,0,2.039062,0.200195,2.96875,0.598633
		C65.870117,25.774414,66.681152,26.316406,67.37207,27c0.689941,0.683594,1.234863,1.488281,1.633789,2.411133
		C69.403809,30.334961,69.603027,31.327148,69.603027,32.389648 M66.674805,32.389648
		c0-0.677734-0.119629-1.307617-0.358887-1.892578c-0.23877-0.583984-0.567871-1.09375-0.98584-1.524414
		c-0.418945-0.431641-0.913086-0.773438-1.483887-1.025391c-0.571289-0.253906-1.196289-0.378906-1.874023-0.378906
		c-0.664062,0-1.28125,0.125-1.852051,0.378906c-0.571289,0.251953-1.065918,0.59375-1.485352,1.025391
		c-0.417969,0.430664-0.743652,0.94043-0.975586,1.524414c-0.232422,0.584961-0.349121,1.214844-0.349121,1.892578
		c0,0.664062,0.116699,1.288086,0.349121,1.87207c0.231934,0.584961,0.557617,1.092773,0.975586,1.524414
		c0.419434,0.432617,0.914062,0.773438,1.485352,1.026367c0.570801,0.251953,1.187988,0.378906,1.852051,0.378906
		c0.677734,0,1.302734-0.126953,1.874023-0.378906c0.570801-0.25293,1.064941-0.59375,1.483887-1.026367
		c0.417969-0.431641,0.74707-0.939453,0.98584-1.524414C66.555176,33.677734,66.674805,33.053711,66.674805,32.389648"/>
	<path clip-path="url(#SVGID_2_)" fill="#0A2828" d="M78.447266,37.530273c-0.106934-0.120117-0.186035-0.239258-0.23877-0.359375
		c-0.054199-0.119141-0.007324-0.251953,0.138672-0.398438l1.334961-1.314453
		c0.120117-0.106445,0.236328-0.143555,0.348145-0.110352c0.112793,0.03418,0.22998,0.103516,0.350098,0.209961
		c0.19873,0.199219,0.420898,0.401367,0.666992,0.607422c0.245117,0.206055,0.510742,0.391602,0.795898,0.556641
		c0.286133,0.166992,0.595215,0.298828,0.928223,0.399414c0.331055,0.099609,0.683594,0.149414,1.055664,0.149414
		c0.396973,0,0.75-0.052734,1.056152-0.15918c0.304199-0.106445,0.566895-0.249023,0.786133-0.428711
		c0.21875-0.178711,0.384766-0.384766,0.498047-0.618164c0.112793-0.231445,0.168945-0.474609,0.168945-0.726562
		c0-0.319336-0.096191-0.587891-0.289062-0.806641c-0.191895-0.219727-0.428223-0.404297-0.706055-0.558594
		c-0.278809-0.151367-0.582031-0.27832-0.907227-0.37793c-0.324707-0.099609-0.620605-0.182617-0.885742-0.249023
		c-1.60791-0.477539-2.833984-1.06543-3.677246-1.763672c-0.842773-0.696289-1.264648-1.610352-1.264648-2.739258
		c0-0.611328,0.129883-1.168945,0.387695-1.672852c0.260254-0.504883,0.625-0.94043,1.097168-1.305664
		c0.471191-0.365234,1.039062-0.647461,1.703125-0.84668s1.394043-0.298828,2.191895-0.298828
		c0.875977,0,1.71582,0.206055,2.52002,0.618164c0.802734,0.411133,1.503906,0.916016,2.102051,1.513672
		c0.23877,0.251953,0.231934,0.512695-0.02002,0.777344l-1.096191,1.174805c-0.131836,0.120117-0.258789,0.157227-0.378906,0.110352
		c-0.119141-0.045898-0.245117-0.12207-0.37793-0.229492c-0.15918-0.132812-0.342285-0.27832-0.547852-0.438477
		c-0.206055-0.15918-0.432129-0.308594-0.677246-0.448242c-0.246094-0.139648-0.505859-0.254883-0.776855-0.347656
		c-0.272949-0.09375-0.555176-0.140625-0.847168-0.140625c-0.251953,0-0.515137,0.020508-0.787109,0.060547
		c-0.272949,0.040039-0.518066,0.116211-0.736816,0.228516c-0.220215,0.113281-0.401855,0.272461-0.547852,0.478516
		c-0.146973,0.206055-0.219238,0.481445-0.219238,0.827148c0,0.25293,0.068848,0.470703,0.208984,0.657227
		c0.13916,0.186523,0.337891,0.348633,0.598145,0.487305c0.258789,0.139648,0.563965,0.270508,0.916016,0.388672
		c0.352051,0.120117,0.739746,0.239258,1.166016,0.359375c0.676758,0.198242,1.314941,0.420898,1.913086,0.667969
		c0.59668,0.245117,1.117676,0.546875,1.562988,0.90625c0.444824,0.357422,0.799805,0.78418,1.065918,1.274414
		c0.265137,0.492188,0.398926,1.082031,0.398926,1.773438s-0.152832,1.318359-0.458008,1.881836
		c-0.306152,0.56543-0.714844,1.045898-1.225098,1.445312c-0.511719,0.398438-1.104004,0.704102-1.773926,0.916992
		c-0.670898,0.210938-1.364746,0.317383-2.082031,0.317383c-1.036133,0-2.032715-0.224609-2.98877-0.676758
		S79.124512,38.259766,78.447266,37.530273"/>
	<path clip-path="url(#SVGID_2_)" fill="#0A2828" d="M134.919922,37.071289h-7.391602v-3.645508h5.499023
		c0.291992,0,0.4375-0.131836,0.4375-0.399414v-1.892578c0-0.264648-0.145508-0.398438-0.4375-0.398438h-5.499023v-2.817383
		v-0.19043h3.660156h3.552734c0.264648,0,0.398438-0.132812,0.398438-0.398438v-1.933594
		c0-0.264648-0.133789-0.396484-0.398438-0.396484h-3.865234h-4.890625c-0.761719,0.050781-1.366211,0.678711-1.366211,1.454102
		v0.344727v0.720703v11.864258c0,0.265625,0.126953,0.398438,0.378906,0.398438h9.921875
		c0.279297,0,0.418945-0.132812,0.418945-0.398438v-1.913086C135.338867,37.205078,135.199219,37.071289,134.919922,37.071289"/>
	<path clip-path="url(#SVGID_2_)" fill="#0A2828" d="M83.304688,18.757812l-0.875977-1.738281l-0.250977-0.499023
		l-1.583008-3.140625c0.756836-0.438965,1.364746-1.027344,1.822754-1.76416s0.687988-1.523926,0.687988-2.36084
		c0-0.624023-0.116699-1.228027-0.348633-1.812988c-0.140137-0.351074-0.323242-0.671387-0.52832-0.974121
		c-0.134766-0.202148-0.273926-0.399902-0.437988-0.580078c-0.412109-0.451172-0.906738-0.812988-1.484863-1.085938
		c-0.576172-0.270996-1.202148-0.407227-1.876953-0.408203H77.96582h-4.890137
		c-0.762207,0.052246-1.367188,0.680176-1.367188,1.455078v0.345215v0.720703v11.863281v0.000977
		c0,0.132812,0.032227,0.231934,0.095215,0.297852c0.062988,0.066895,0.157715,0.100098,0.283691,0.100098h2.132324
		c0.264648,0,0.397949-0.132812,0.397949-0.397949v-4.723145h0.000977h3.026855l1.196289,2.412109l1.174805,2.370117
		c0.105957,0.225586,0.259766,0.338867,0.458984,0.338867h1.536133h1.033691c0.132324,0,0.222168-0.046875,0.269043-0.140137
		C83.360352,18.944824,83.356445,18.851562,83.304688,18.757812 M74.617676,11.426758V6.963867h3.10791
		c0.333008,0,0.63916,0.054688,0.922852,0.159668c0.010254,0.004395,0.022949,0.005371,0.033203,0.009277
		c0.291992,0.11377,0.548828,0.269043,0.76709,0.467773c0.219727,0.200195,0.388672,0.436035,0.508789,0.708008
		c0.119141,0.271973,0.179199,0.567871,0.179199,0.88623c0,0.345703-0.069336,0.656738-0.199219,0.937012
		c-0.11377,0.24707-0.273926,0.470703-0.48877,0.667969c-0.458008,0.416992-1.032227,0.626953-1.723145,0.626953H74.617676z"/>
	<path clip-path="url(#SVGID_2_)" fill="#0A2828" d="M145.470703,16.466797h-3.72168h-3.669922V16.24707v-3.42627h5.499023
		c0.291992,0,0.4375-0.131836,0.4375-0.398926v-1.89209c0-0.264648-0.145508-0.398926-0.4375-0.398926h-5.499023V7.123047h7.212891
		c0.264648,0,0.398438-0.133301,0.398438-0.397949V4.791992c0-0.266113-0.133789-0.397949-0.398438-0.397949h-9.743164
		c-0.251953,0-0.378906,0.131836-0.378906,0.397949v11.854004v0.720703v0.345215c0,0.809082,0.65625,1.464844,1.464844,1.464844
		h4.758789h4.077148c0.279297,0,0.418945-0.132812,0.418945-0.397949v-1.913086
		C145.889648,16.601074,145.75,16.466797,145.470703,16.466797"/>
	<path clip-path="url(#SVGID_2_)" fill="#AF9664" d="M19.460449,9.84375c-0.030273-0.289062-0.096191-0.569824-0.199219-0.836914
		c-0.011719-0.030273-0.022949-0.059082-0.036133-0.087891c-0.023926-0.059082-0.050781-0.117188-0.078613-0.174316
		c-0.03125-0.062012-0.063965-0.123047-0.099121-0.182617c-0.035156-0.060059-0.072266-0.119141-0.11084-0.177246
		c-0.311035-0.458984-0.726074-0.815918-1.221191-1.056152c-0.111816-0.054688-0.229004-0.103027-0.350098-0.14502
		c-0.071777-0.025879-0.14502-0.049805-0.219727-0.070801c-0.049316-0.01416-0.100098-0.026855-0.151367-0.039062
		c0.027344-0.091797,0.054199-0.187012,0.080078-0.282715C17.100098,6.695801,17.125488,6.597656,17.149414,6.5
		c0.048828-0.197266,0.092773-0.395996,0.12793-0.594238c0.052734-0.300781,0.071777-0.598145,0.057129-0.886719
		c-0.004395-0.064453-0.009277-0.128418-0.016113-0.191406c-0.01709-0.157715-0.043945-0.313965-0.082031-0.46582
		c-0.006836-0.029785-0.015137-0.060059-0.023926-0.089844c-0.016113-0.060059-0.035156-0.120117-0.054199-0.179199
		c-0.129883-0.381836-0.329102-0.736816-0.592773-1.052734c-0.024902-0.030273-0.050293-0.059082-0.076172-0.087402
		c-0.064941-0.071777-0.132812-0.139648-0.203125-0.20459c-0.013672-0.013184-0.027832-0.026367-0.041992-0.039062
		c-0.007812-0.007324-0.016602-0.01416-0.024902-0.020996c-0.021973-0.019043-0.043945-0.038086-0.065918-0.056152
		c-0.010254-0.007812-0.02002-0.016113-0.029785-0.022949c-0.012207-0.010254-0.024414-0.02002-0.036133-0.029297
		c-0.013184-0.009766-0.027344-0.02002-0.040039-0.029785c-0.008301-0.005859-0.016113-0.012207-0.022949-0.01709
		c-0.01709-0.012695-0.033203-0.024902-0.050293-0.036133c-0.02002-0.013672-0.040039-0.028809-0.060059-0.041992
		c-0.022949-0.015625-0.045898-0.031738-0.068848-0.046875c-0.007812-0.004883-0.016113-0.009766-0.023926-0.015137
		c-0.009766-0.006836-0.020996-0.012695-0.030762-0.018555c-0.03125-0.019043-0.062012-0.037109-0.094238-0.055176
		c-0.020996-0.01123-0.042969-0.022949-0.063965-0.03418c-0.021973-0.010742-0.042969-0.022949-0.064941-0.033691
		c-0.097168-0.04834-0.196289-0.093262-0.297852-0.133301c-0.067383-0.026855-0.13623-0.050781-0.206055-0.07373
		c-0.10498-0.033203-0.213379-0.062012-0.323242-0.084961c-0.004883-0.000977-0.009766-0.001953-0.015137-0.003418
		c-0.030762-0.005859-0.061035-0.011719-0.091797-0.017578c-0.091797-0.016113-0.186035-0.029297-0.280762-0.038086
		c-0.063477-0.007324-0.127441-0.01123-0.191406-0.015137c-0.063965-0.00293-0.128906-0.003906-0.194824-0.003906
		c-0.039062,0-0.078125,0-0.116211,0.000977c-0.233887,0.006836-0.469727,0.035156-0.70459,0.082031
		c-0.039062,0.007812-0.078125,0.01709-0.117188,0.025879c-0.000977-0.000977-0.000977-0.000977-0.001953-0.001953
		c-0.335938-0.50293-0.655273-0.869141-1.006836-1.162109h-0.001465c-0.035645-0.030762-0.07373-0.060059-0.11084-0.088867
		c-0.019043-0.015137-0.038086-0.027832-0.057129-0.042969c-0.016602-0.012207-0.033691-0.024902-0.051758-0.037109
		c-0.024902-0.019043-0.05127-0.036133-0.077148-0.053711c-0.008789-0.006348-0.018066-0.012207-0.026855-0.018066
		c-0.03125-0.020996-0.061035-0.040039-0.091797-0.060059c-0.101074-0.062012-0.203125-0.119141-0.308105-0.169922
		c-0.007324-0.004395-0.013184-0.007324-0.02002-0.01123c-0.030273-0.01416-0.061035-0.027832-0.091309-0.041992
		c-0.009766-0.003906-0.02002-0.008789-0.029785-0.013184c-0.029785-0.012695-0.060059-0.025879-0.09082-0.037598
		c-0.007324-0.00293-0.015137-0.006348-0.021973-0.009277c-0.062012-0.023926-0.123047-0.045898-0.186035-0.066895
		c-0.008301-0.00293-0.01709-0.005859-0.025391-0.008789c-0.025879-0.008301-0.051758-0.015137-0.077637-0.023438
		c-0.018066-0.004883-0.037109-0.010742-0.055176-0.015625c-0.023926-0.007324-0.047852-0.013184-0.071777-0.019043
		c-0.021973-0.004883-0.044434-0.01123-0.06543-0.016113c-0.022949-0.004883-0.044922-0.009766-0.066895-0.015137
		c-0.029785-0.005859-0.059082-0.011719-0.088867-0.01709c-0.021973-0.003906-0.042969-0.007812-0.064941-0.010742
		c-0.037109-0.006836-0.075195-0.012207-0.113281-0.01709c-0.016602-0.00293-0.034668-0.003906-0.051758-0.005859
		c-0.030273-0.003906-0.061035-0.006836-0.091797-0.010254c-0.01709-0.001953-0.035156-0.00293-0.053223-0.003906
		c-0.032227-0.00293-0.064941-0.004883-0.097168-0.006836c-0.015625,0-0.030762-0.000977-0.046875-0.001953
		C9.836426,0.000977,9.788086,0,9.740234,0c-0.048828,0-0.097168,0.000977-0.14502,0.00293
		C9.579102,0.003906,9.564453,0.004883,9.54834,0.004883C9.516113,0.006836,9.483398,0.008789,9.451172,0.011719
		C9.433105,0.012695,9.415527,0.013672,9.398438,0.015625c-0.03125,0.003418-0.062012,0.006348-0.092285,0.010254
		c-0.01709,0.001953-0.034668,0.00293-0.051758,0.005859c-0.038086,0.004883-0.076172,0.010254-0.113281,0.01709
		C9.119141,0.051758,9.098145,0.055664,9.076172,0.05957C9.047363,0.064941,9.01709,0.070801,8.987305,0.07666
		C8.965332,0.082031,8.943359,0.086914,8.92041,0.091797C8.899414,0.09668,8.877441,0.103027,8.856445,0.10791
		C8.831543,0.11377,8.807129,0.119629,8.783203,0.126953C8.765137,0.131836,8.746094,0.137695,8.728516,0.142578
		C8.702148,0.150879,8.67627,0.157715,8.650391,0.166016c-0.008301,0.00293-0.01709,0.005859-0.024902,0.008789
		C8.5625,0.195801,8.501465,0.217773,8.44043,0.241699C8.432129,0.244629,8.424316,0.248047,8.41748,0.250977
		C8.387207,0.262695,8.356445,0.275879,8.327148,0.288574C8.316406,0.292969,8.306152,0.297852,8.296387,0.301758
		C8.266113,0.315918,8.236328,0.32959,8.206543,0.34375c-0.007324,0.003906-0.01416,0.006836-0.021484,0.01123
		C8.154297,0.369629,8.123535,0.385742,8.092285,0.401855C8.084473,0.405762,8.076172,0.410645,8.069336,0.415039
		c-0.025879,0.013672-0.05127,0.027832-0.077148,0.041992C7.987305,0.459961,7.982422,0.462891,7.976074,0.46582
		C7.943359,0.484863,7.910156,0.504883,7.877441,0.524902c-0.030273,0.02002-0.061035,0.039062-0.091309,0.060059
		C7.776367,0.59082,7.76709,0.59668,7.758301,0.603027c-0.008789,0.005859-0.01709,0.011719-0.024902,0.017578
		C6.854492,1.203613,6.453125,1.987793,6.453125,1.987793c0,0.000977-0.000977,0.000977-0.000977,0.001953
		C6.412109,1.980957,6.373535,1.97168,6.334473,1.963867c-0.029297-0.005859-0.059082-0.01123-0.088379-0.01709
		C6.128418,1.925781,6.01123,1.909668,5.893066,1.898926c-0.028809-0.00293-0.057617-0.006348-0.087891-0.008301
		C5.74707,1.886719,5.688477,1.883789,5.630371,1.881836C5.591309,1.880859,5.552246,1.880859,5.513184,1.880859
		c-0.064941,0-0.129883,0.000977-0.194824,0.003906C5.254395,1.888672,5.19043,1.892578,5.127441,1.899902
		c-0.095215,0.008789-0.188965,0.021973-0.28125,0.038086C4.81543,1.943848,4.785156,1.949707,4.754395,1.955566
		C4.749512,1.957031,4.744141,1.958008,4.739258,1.958984C4.629395,1.981934,4.522461,2.010742,4.41748,2.043945
		C4.347168,2.066895,4.27832,2.09082,4.210449,2.117676c-0.102051,0.040039-0.201172,0.084961-0.29834,0.133301
		C3.890137,2.261719,3.869141,2.273926,3.847168,2.284668C3.804199,2.306641,3.762207,2.330566,3.720215,2.35498
		C3.699219,2.366699,3.679199,2.379883,3.658203,2.392578C3.650391,2.397949,3.64209,2.402832,3.635254,2.407715
		C3.611328,2.422852,3.588379,2.438965,3.56543,2.45459C3.54541,2.467773,3.525391,2.48291,3.505371,2.496582
		c-0.01709,0.01123-0.033203,0.024414-0.050293,0.036133c-0.006836,0.004883-0.014648,0.01123-0.022949,0.01709
		C3.419434,2.55957,3.40625,2.569824,3.39209,2.57959C3.380371,2.588867,3.368164,2.598633,3.356445,2.608887
		c-0.010254,0.006836-0.02002,0.015137-0.029297,0.022949C3.304199,2.649902,3.282227,2.668945,3.260254,2.687988
		C3.252441,2.694824,3.243164,2.70166,3.235352,2.708984C3.221191,2.72168,3.20752,2.734863,3.193359,2.748047
		c-0.069824,0.064941-0.138184,0.132812-0.203125,0.20459c-0.025879,0.02832-0.050781,0.057129-0.076172,0.087402
		C2.650391,3.355957,2.451172,3.710938,2.322266,4.092773C2.302246,4.151855,2.283203,4.211914,2.26709,4.271973
		C2.258301,4.301758,2.250488,4.332031,2.243164,4.361816c-0.038086,0.151855-0.064941,0.308105-0.082031,0.46582
		C2.154297,4.890625,2.149414,4.95459,2.146484,5.019043C2.130371,5.307617,2.149414,5.60498,2.203125,5.905762
		c0.042969,0.24707,0.101074,0.49707,0.164062,0.741211C2.380371,6.694824,2.39209,6.742676,2.405273,6.791016
		C2.432129,6.886719,2.458496,6.981934,2.485352,7.07373c-0.05127,0.012207-0.101074,0.024902-0.150879,0.039062
		C2.259277,7.133789,2.186523,7.157715,2.114258,7.183594C1.993164,7.225586,1.876465,7.273926,1.76416,7.328613
		C1.269531,7.568848,0.854492,7.925781,0.544434,8.384766c-0.079102,0.116211-0.148926,0.23584-0.209961,0.359863
		C0.305176,8.801758,0.279297,8.859863,0.254395,8.918945C0.242188,8.947754,0.230469,8.976562,0.218262,9.006836
		c-0.103027,0.26709-0.168945,0.547852-0.19873,0.836914c-0.013184,0.128906-0.02002,0.259277-0.019043,0.390137
		c0,0.060059,0.001953,0.120117,0.004883,0.179688c0.005859,0.121094,0.018066,0.242188,0.036133,0.364258
		c0.012695,0.09082,0.029785,0.182129,0.049805,0.273926c0.033203,0.152832,0.077148,0.306152,0.129883,0.458984
		c0.020996,0.061035,0.043945,0.12207,0.067871,0.183105c0.010254,0.024902,0.020996,0.049805,0.03125,0.075195
		c0.01123,0.024902,0.022949,0.049805,0.035156,0.074707c0.022949,0.050293,0.048828,0.100098,0.075684,0.150879
		c0.096191,0.175293,0.210938,0.352051,0.340332,0.526367c0.036621,0.049805,0.074707,0.099609,0.11377,0.148926
		c0.039062,0.048828,0.079102,0.097656,0.120117,0.146973c0.040039,0.048828,0.082031,0.09668,0.124023,0.14502
		c0.062988,0.071777,0.126953,0.143066,0.191895,0.211914c0.26123,0.278809,0.53418,0.538086,0.785156,0.760742
		c0.028809,0.026367,0.057617,0.052246,0.085938,0.077148c0.028809,0.024902,0.057129,0.050293,0.083984,0.074219h0.000977
		c-0.025879,0.023926-0.049805,0.047852-0.075195,0.072754c-0.169922,0.17334-0.316895,0.365234-0.437988,0.574219
		c-0.028809,0.049805-0.055664,0.101074-0.082031,0.151855c-0.103027,0.206055-0.179688,0.420898-0.230957,0.641113
		c-0.011719,0.056152-0.022949,0.11084-0.032715,0.166992c-0.022949,0.140137-0.036133,0.280762-0.039062,0.423828
		c-0.001953,0.114258,0.001953,0.229004,0.012695,0.344238c0.030273,0.314941,0.111328,0.631836,0.242188,0.939941
		c0.005859,0.01416,0.013184,0.026855,0.019043,0.041992c0.254883,0.576172,0.625977,1.031738,1.062988,1.403809
		c0.062988,0.054199,0.128906,0.105957,0.194824,0.157227c0.397949,0.304688,0.840332,0.547852,1.290039,0.753906
		c0.148926,0.067871,0.300293,0.131836,0.450195,0.192871c0.108887,0.043945,0.217773,0.089355,0.327148,0.129883
		c0.103027,0.040039,0.190918,0.073242,0.264648,0.102051c0.015137,0.006348,0.029297,0.012207,0.042969,0.01709
		c0.02832,0.01123,0.053223,0.021973,0.077148,0.032227c0.060059,0.025879,0.108887,0.048828,0.148926,0.071777
		c0.024902,0.01416,0.045898,0.02832,0.065918,0.042969c0.019043,0.01416,0.036133,0.029297,0.052246,0.044922
		c0.004883,0.006348,0.009766,0.01123,0.015137,0.01709c0.009766,0.01123,0.018555,0.022949,0.027832,0.035156
		c0.003906,0.005859,0.007812,0.013184,0.011719,0.019043c0.013184,0.02002,0.025391,0.041016,0.037109,0.064941
		c0.003906,0.006836,0.008301,0.016113,0.013184,0.023926c0.007812,0.01709,0.016113,0.03418,0.024902,0.053223
		c0.012207,0.028809,0.025879,0.060059,0.041016,0.094727c0.646973,1.480957,1.618164,2.391113,2.879883,2.725098
		c0.021973,0.005859,0.043945,0.011719,0.065918,0.017578c0.066406,0.019531,0.132324,0.038086,0.201172,0.052734
		c0.055176,0.009766,0.109863,0.016602,0.165039,0.018555c0.018066,0.000977,0.036133,0.001953,0.054199,0.001953
		c0.007812,0,0.014648-0.000977,0.021973-0.000977c0.007812-0.000977,0.014648-0.001953,0.021973-0.001953
		c0.019043-0.000977,0.038086-0.001953,0.055664-0.00293c0.056152-0.003906,0.111328-0.012695,0.164062-0.024414
		c0.025391-0.005859,0.050293-0.010742,0.074219-0.017578c0.077148-0.022461,0.152832-0.049805,0.223145-0.085938
		c0.003906-0.001953,0.007812-0.00293,0.010742-0.004883v0.000977l0.000977-0.000977
		c0.003906,0.001953,0.006836,0.00293,0.01123,0.004883c0.070801,0.036133,0.145996,0.063477,0.222656,0.085938
		c0.025391,0.006836,0.049316,0.011719,0.074219,0.017578c0.036133,0.007812,0.071777,0.014648,0.10791,0.018555
		c0.019043,0.00293,0.037109,0.003906,0.056152,0.005859c0.018066,0.000977,0.037109,0.001953,0.055664,0.00293
		c0.015137,0,0.029297,0.00293,0.044434,0.00293c0.017578,0,0.035645-0.000977,0.054688-0.001953
		c0.018066-0.000977,0.036133-0.001953,0.054199-0.003906c0.037109-0.00293,0.072754-0.007812,0.109863-0.014648
		c0.092285-0.018555,0.179199-0.045898,0.268066-0.070312c1.262207-0.333984,2.231934-1.244141,2.878906-2.725098
		c0.015137-0.034668,0.029297-0.065918,0.041992-0.094727c0.008301-0.019043,0.016113-0.036133,0.024902-0.053223
		c0.004395-0.007812,0.008301-0.01709,0.012207-0.023926c0.012207-0.023926,0.023926-0.044922,0.037109-0.064941
		c0.003906-0.005859,0.007812-0.013184,0.012695-0.019043c0.008301-0.012207,0.018066-0.023926,0.027344-0.035156
		c0.004883-0.005859,0.009766-0.010742,0.015625-0.01709c0.015137-0.015625,0.032227-0.030762,0.052246-0.044922
		c0.019043-0.014648,0.040039-0.028809,0.064941-0.042969c0.032227-0.018066,0.069824-0.037109,0.114258-0.057129
		c0.033691-0.014648,0.070801-0.029785,0.111816-0.046875c0.01416-0.004883,0.027832-0.010742,0.042969-0.01709
		c0.075195-0.028809,0.162109-0.062012,0.266113-0.102051c0.10791-0.040527,0.216797-0.085938,0.325684-0.129883
		c0.150391-0.061035,0.30127-0.125,0.451172-0.192871c0.449219-0.206055,0.891113-0.449219,1.289062-0.753906
		c0.066895-0.05127,0.131836-0.103027,0.195801-0.157227c0.436035-0.37207,0.807129-0.827637,1.062012-1.403809
		c0.006348-0.015137,0.013184-0.027832,0.019043-0.041992c0.130859-0.308105,0.211914-0.625,0.242188-0.939941
		c0.010742-0.115234,0.016113-0.22998,0.012695-0.344238c-0.000977-0.057129-0.003906-0.11377-0.007812-0.170898
		c-0.006836-0.083984-0.01709-0.168945-0.030762-0.25293c-0.009277-0.056152-0.02002-0.11084-0.033203-0.166992
		c-0.050781-0.220215-0.12793-0.435059-0.230957-0.641113c-0.025879-0.050781-0.053223-0.102051-0.082031-0.151855
		c-0.121094-0.208984-0.268066-0.400879-0.437988-0.574219c-0.023926-0.024902-0.048828-0.048828-0.074219-0.072754
		c0.027344-0.023926,0.055176-0.049316,0.083984-0.074219c0.02832-0.024902,0.057129-0.050781,0.086426-0.077148
		c0.250977-0.222656,0.523926-0.481934,0.784668-0.760742c0.064941-0.068848,0.128906-0.140137,0.191895-0.211914
		c0.083984-0.096191,0.166016-0.192871,0.244141-0.291992c0.039062-0.049316,0.077148-0.099121,0.114258-0.148926
		c0.128906-0.174316,0.244629-0.351074,0.339844-0.526367c0.026855-0.050781,0.052734-0.100586,0.077148-0.150879
		c0.010742-0.024902,0.022949-0.049805,0.033691-0.074707c0.01123-0.025391,0.020996-0.050293,0.03125-0.075195
		c0.023926-0.061035,0.046875-0.12207,0.068848-0.183105c0.03125-0.091797,0.060059-0.184082,0.083984-0.274902
		c0.01709-0.062012,0.032227-0.123047,0.044922-0.184082c0.007324-0.029785,0.013184-0.061035,0.019043-0.09082
		c0.012207-0.062012,0.022949-0.123047,0.032227-0.183105c0.016602-0.12207,0.028809-0.243164,0.035645-0.364258
		c0.003418-0.05957,0.004395-0.119629,0.004395-0.179688C19.480469,10.103027,19.473145,9.972656,19.460449,9.84375
		 M9.148438,22.265625L9.148438,22.265625H9.147461c-0.062988-0.011719-0.124023-0.026367-0.184082-0.043945
		c-0.060059-0.016602-0.119141-0.035156-0.177246-0.055664c-0.14502-0.051758-0.283691-0.117188-0.416992-0.195312
		c-0.053711-0.03125-0.105957-0.063477-0.156738-0.099609c-0.078125-0.052734-0.15332-0.110352-0.226074-0.171875
		c-0.047852-0.041016-0.096191-0.083984-0.143066-0.130859c-0.065918-0.0625-0.129883-0.130859-0.191895-0.202148
		c-0.041016-0.047852-0.082031-0.097656-0.12207-0.148438c-0.040039-0.051758-0.079102-0.104492-0.117188-0.160156
		c-0.095703-0.137695-0.187012-0.286621-0.273926-0.447754c-0.033691-0.063965-0.067871-0.130859-0.101074-0.199219
		c-0.032715-0.067871-0.064941-0.137695-0.09668-0.209961c-0.075195-0.173828-0.143066-0.313965-0.211914-0.431641
		c-0.053223-0.091309-0.107422-0.169434-0.166016-0.237305c-0.203125-0.231934-0.474121-0.355957-0.972168-0.547852
		c-0.01416-0.004883-0.027832-0.01123-0.041992-0.016113c-0.041016-0.016113-0.082031-0.031738-0.129883-0.049805
		c-0.093262-0.035156-0.187012-0.073242-0.28125-0.111328c-0.092773-0.039062-0.187012-0.078613-0.280762-0.119629
		c-0.104004-0.046387-0.208008-0.093262-0.310059-0.143066c-0.071289-0.035156-0.141113-0.070312-0.209961-0.106934
		c-0.045898-0.025391-0.092285-0.050293-0.137207-0.076172c-0.045898-0.025879-0.089844-0.052246-0.134766-0.079102
		c-0.021973-0.01416-0.043945-0.026855-0.065918-0.041016c-0.044434-0.027832-0.087402-0.056152-0.130371-0.084961
		c-0.170898-0.115723-0.332031-0.242188-0.478027-0.381836c-0.036621-0.03418-0.072754-0.070312-0.106934-0.106934
		c-0.086914-0.091309-0.167969-0.187988-0.241699-0.290039c-0.029297-0.041016-0.057129-0.083008-0.083984-0.125977
		c-0.027344-0.041992-0.053223-0.085938-0.078125-0.131348c-0.037109-0.066895-0.070312-0.136719-0.101074-0.208008
		c-0.198242-0.463867-0.206055-0.956055-0.026855-1.37793c0.025879-0.061035,0.054688-0.120117,0.088867-0.176758
		c0.041016-0.072266,0.087891-0.140137,0.141113-0.205078c0.051758-0.063965,0.108887-0.125,0.171875-0.182129
		c0.030762-0.028809,0.062988-0.056152,0.096191-0.083008c0.016602-0.012695,0.033691-0.025879,0.050781-0.038086
		c0.035156-0.025879,0.070801-0.049805,0.106934-0.072754c0.055176-0.035156,0.113281-0.066895,0.171875-0.096191l0.655273-0.331055
		c0.029785-0.021973,0.053711-0.049805,0.067871-0.083984c0.004883-0.013672,0.009277-0.027832,0.01123-0.043945
		c0.000977-0.006836,0.001953-0.015137,0.001953-0.022949c0-0.02002-0.003906-0.039062-0.01123-0.057129
		c-0.005859-0.018066-0.016113-0.034668-0.026855-0.049805L4.26709,14.083008l-0.009766-0.008301L3.6875,13.631836
		c-0.004395-0.00293-0.008301-0.006836-0.012207-0.010254l-0.000977-0.000977
		c-0.004883-0.003906-0.01123-0.007812-0.016113-0.011719c-0.103027-0.080078-0.208008-0.163086-0.312988-0.25
		c-0.051758-0.041992-0.10498-0.088867-0.157715-0.133301c-0.008301-0.006836-0.016113-0.013672-0.024414-0.020996
		c-0.056641-0.047852-0.11377-0.095703-0.170898-0.145996c-0.028809-0.024902-0.057129-0.051758-0.084961-0.07666L2.90625,12.980957
		H2.905273V12.97998c-0.019043-0.01709-0.038086-0.035156-0.057129-0.053223s-0.038086-0.035156-0.056641-0.052734
		c-0.023438-0.022461-0.047363-0.043457-0.070312-0.06543c-0.070801-0.064941-0.14209-0.129883-0.209961-0.196777
		c-0.038086-0.037109-0.071777-0.075195-0.108887-0.112793c-0.065918-0.066406-0.130859-0.132324-0.193848-0.198242
		c-0.020996-0.021973-0.041992-0.043945-0.062012-0.065918c-0.021973-0.024902-0.040039-0.048828-0.062012-0.074219
		c-0.04541-0.049805-0.089355-0.099609-0.132324-0.149902c-0.042969-0.049805-0.083984-0.100098-0.12207-0.148926
		c-0.046875-0.062012-0.091797-0.12207-0.132812-0.182129c-0.041992-0.060059-0.080078-0.118652-0.11377-0.175781
		c-0.05127-0.083984-0.092285-0.164062-0.125-0.240234c-0.005371-0.010742-0.010254-0.021973-0.01416-0.031738
		c-0.049805-0.124023-0.089844-0.248047-0.121094-0.371094c-0.02002-0.082031-0.037109-0.164062-0.048828-0.245117
		c-0.019043-0.12207-0.029297-0.243164-0.030273-0.361816C1.240234,9.979004,1.282227,9.714844,1.373535,9.47168
		C1.394531,9.416016,1.41748,9.361816,1.444336,9.307617c0.008789-0.02002,0.02002-0.040039,0.029785-0.060059
		c0.03125-0.058594,0.066406-0.115723,0.104004-0.171875C1.945312,8.532715,2.54541,8.234863,3.3125,8.212891L3.601074,8.20459
		l0.216309-0.006836l0.102051-0.009766c0.007812,0,0.014648,0,0.022949-0.000977
		c0.001953-0.000977,0.00293-0.000977,0.004883-0.000977c0.006836-0.001465,0.01416-0.003418,0.020996-0.005371h0.000977
		c0.006836-0.001953,0.013184-0.004883,0.02002-0.007812c0.000977-0.000977,0.001953-0.000977,0.00293-0.001953
		c0.007324-0.00293,0.01416-0.007324,0.02002-0.01123C4.071289,8.106934,4.081543,8.047852,4.075195,8L4.059082,7.947754
		l0.000977-0.000977c0,0-0.005859-0.013184-0.015625-0.038086c0,0-0.943359-1.522949-0.637207-3.023926
		c0.054199-0.393066,0.206055-0.75,0.452148-1.042969c0.031738-0.039062,0.065918-0.076172,0.102051-0.11084
		c1.034668-1.162109,2.834961-0.35498,2.834961-0.35498c0.010742,0.005859,0.021973,0.010742,0.033691,0.014648
		C6.83252,3.391602,6.833496,3.391602,6.835449,3.392578h0.000977h0.000977c0.055664,0.016113,0.114746,0.001465,0.155762-0.036621
		c0.00293-0.004395,0.007324-0.007324,0.01123-0.01123c0.007812-0.008789,0.015137-0.019043,0.02002-0.028809
		c0.034668-0.049316,0.078125-0.110352,0.125-0.175293c0,0,0.222656-0.416016,0.625-0.856934
		C7.751465,2.312988,7.712402,2.367676,7.711426,2.369629c0.000977-0.000977,0.001953-0.00293,0.00293-0.003906
		c0,0,0.000977-0.000977,0.000977-0.001953c0.02002-0.025879,0.040039-0.055176,0.060059-0.081055
		c0.000977-0.001953,0.00293-0.003906,0.004883-0.006836c0.004883-0.005859,0.01123-0.013184,0.016113-0.019043
		C7.804199,2.248047,7.8125,2.23877,7.820312,2.230957c0.007812-0.009277,0.016113-0.018066,0.023926-0.02832
		c0.001953-0.001953,0.00293-0.003906,0.004883-0.004883c0.016113-0.02002,0.033203-0.037109,0.050293-0.056152l0.000977-0.000977
		c0.000977-0.000977,0.001953-0.001953,0.001953-0.00293c0.043945-0.049805,0.086914-0.100098,0.130859-0.145996
		c0.005859-0.005859,0.01123-0.011719,0.01709-0.018066c0,0,0.001953-0.001953,0.00293-0.00293
		c0.041992-0.042969,0.083008-0.083008,0.125-0.121094c0.02002-0.017578,0.040039-0.035645,0.061035-0.052734
		c0.004883-0.003906,0.010254-0.009277,0.016113-0.01416h0.000977c0.025879-0.021973,0.051758-0.042969,0.078125-0.062988
		c0.013672-0.009766,0.027832-0.02002,0.041992-0.030762C8.38916,1.679688,8.401367,1.670898,8.414062,1.661621
		c0.019043-0.013672,0.038086-0.026855,0.058105-0.038574c0.007324-0.005371,0.015137-0.01123,0.022949-0.016113
		c0.021973-0.01416,0.04541-0.02832,0.068359-0.041992c0.003906-0.00293,0.008789-0.005371,0.012695-0.008301
		c0.024902-0.014648,0.05127-0.028809,0.077148-0.042969c0.001953-0.000977,0.003906-0.001953,0.005859-0.00293
		C8.686523,1.495605,8.713379,1.481934,8.741211,1.46875l0.000977-0.000977c0.029297-0.01416,0.058105-0.026855,0.086914-0.039062
		c0.01709-0.006836,0.033203-0.013672,0.050293-0.020996C8.89209,1.402832,8.905273,1.397949,8.918457,1.392578
		C8.945312,1.381836,8.972168,1.373047,8.999512,1.36377C9.004395,1.361816,9.009277,1.359863,9.01416,1.358887
		c0.032227-0.01123,0.064941-0.020996,0.098145-0.030273l0.000977-0.000977c0.032227-0.008789,0.063965-0.016602,0.097168-0.023926
		c0.000977-0.000977,0.00293-0.000977,0.003906-0.000977c0.030762-0.006836,0.062012-0.01416,0.09375-0.02002
		c0.003418,0,0.006348-0.000977,0.010254-0.001953c0.028809-0.004883,0.059082-0.008789,0.087891-0.01416
		c0.005859,0,0.01123-0.000977,0.016113-0.001953c0.027832-0.003906,0.056152-0.006836,0.083984-0.008789
		c0.006836-0.000977,0.01416-0.001953,0.020996-0.001953C9.555176,1.250977,9.58252,1.25,9.610352,1.248047
		c0.007812,0,0.015137-0.001465,0.022949-0.001465c0.024902-0.000977,0.050781-0.001953,0.077148-0.001953
		c0.009766,0,0.02002,0,0.029785,0.000977c0.010254-0.000977,0.02002-0.000977,0.030273-0.000977
		c0.024902,0,0.050781,0.000977,0.075684,0.001953c0.008301,0,0.015137,0.001465,0.022949,0.001465
		C9.897461,1.25,9.924316,1.250977,9.952148,1.253906c0.007324,0,0.01416,0.000977,0.020996,0.001953
		c0.02832,0.001953,0.056152,0.004883,0.083984,0.008789c0.005371,0.000977,0.010254,0.001953,0.016113,0.001953
		c0.029297,0.005371,0.059082,0.009277,0.087891,0.01416c0.004395,0.000977,0.007324,0.001953,0.010254,0.001953
		c0.031738,0.005859,0.062988,0.013184,0.09375,0.02002c0.000977,0,0.00293,0,0.005371,0.000977
		c0.031738,0.007324,0.063965,0.015137,0.095703,0.023926l0.000977,0.000977c0.033203,0.009277,0.065918,0.019043,0.098145,0.030273
		c0.004883,0.000977,0.009766,0.00293,0.015137,0.004883c0.026855,0.009277,0.053711,0.018066,0.081055,0.028809
		c0.012695,0.005371,0.025879,0.010254,0.039551,0.016113c0.016113,0.006348,0.033203,0.013184,0.049316,0.02002
		c0.028809,0.012207,0.058105,0.024902,0.086914,0.039062l0.000977,0.000977c0.027832,0.013184,0.055176,0.026855,0.082031,0.041992
		c0.00293,0.000977,0.004883,0.001953,0.006836,0.00293c0.025391,0.01416,0.05127,0.02832,0.076172,0.042969
		c0.003906,0.00293,0.008789,0.005371,0.013184,0.008301c0.022949,0.013672,0.045898,0.027832,0.068848,0.041992
		c0.006836,0.004883,0.015137,0.010742,0.021973,0.016113c0.02002,0.011719,0.039062,0.024902,0.058105,0.038574
		c0.012695,0.009277,0.024902,0.018066,0.038086,0.027344c0.013672,0.010742,0.027832,0.020996,0.041992,0.030762
		c0.025879,0.02002,0.051758,0.041016,0.077637,0.062012l0.000977,0.000977c0.006348,0.004883,0.01123,0.010254,0.01709,0.01416
		c0.019043,0.01709,0.038086,0.032715,0.057129,0.049805c0.042969,0.039062,0.084961,0.080078,0.12793,0.124023
		c0.000977,0.000977,0.001953,0.001953,0.00293,0.00293c0.005859,0.006348,0.012207,0.012207,0.018066,0.018066
		c0.043945,0.046875,0.087891,0.098145,0.131836,0.147949c0.01709,0.02002,0.03418,0.037109,0.052246,0.058105
		c0.000977,0.000977,0.001953,0.00293,0.003906,0.004883h0.000977c0.015137,0.019043,0.03125,0.036133,0.046875,0.054199
		c0.006348,0.005859,0.01123,0.013184,0.016113,0.019043c0.001953,0.00293,0.003906,0.004883,0.005859,0.007812
		c0.402344,0.440918,0.625,0.856934,0.625,0.856934c0.047363,0.064941,0.090332,0.125977,0.125,0.175293
		c0.006348,0.009766,0.012207,0.02002,0.02002,0.028809c0.004395,0.003906,0.008301,0.006836,0.012207,0.01123
		c0.040039,0.038086,0.099121,0.052734,0.155762,0.036621h0.001465c0.001953-0.000977,0.00293-0.000977,0.004883-0.001953
		c0.011719-0.003906,0.022949-0.008789,0.033691-0.014648c0,0,1.800293-0.807129,2.834961,0.35498
		c0.036133,0.034668,0.070312,0.071777,0.103027,0.11084c0.245117,0.292969,0.396973,0.649902,0.452148,1.042969
		c0.305176,1.500977-0.636719,3.023926-0.636719,3.023926c-0.01123,0.024902-0.016113,0.038086-0.016113,0.038086v0.000977
		L15.404297,8c-0.004883,0.047852,0.003906,0.106934,0.063965,0.159668c0.005859,0.003906,0.012207,0.008301,0.019043,0.01123
		c0.000977,0.000977,0.001953,0.000977,0.00293,0.001953c0.006836,0.00293,0.01416,0.005859,0.020996,0.007812
		s0.01416,0.003906,0.020996,0.005371c0.001953,0,0.003906,0,0.004883,0.000977
		c0.008301,0.000977,0.015137,0.000977,0.022949,0.000977l0.102051,0.009766l0.216309,0.006836l0.289062,0.008301
		c0.766602,0.021973,1.366699,0.319824,1.734863,0.862793c0.037109,0.056152,0.071777,0.113281,0.103027,0.171875
		c0.010742,0.02002,0.020996,0.040039,0.029785,0.060059c0.027344,0.054199,0.050293,0.108398,0.071289,0.164062
		c0.09082,0.243164,0.132812,0.507324,0.129883,0.782227c-0.001953,0.118652-0.012207,0.239746-0.03125,0.361816
		c-0.011719,0.081055-0.028809,0.163086-0.048828,0.245117c-0.030762,0.123047-0.070801,0.24707-0.121094,0.371094
		c-0.007812,0.020996-0.018066,0.042969-0.027832,0.064941c-0.02002,0.043945-0.042969,0.089844-0.068848,0.135742
		c-0.013184,0.022949-0.027344,0.047363-0.041016,0.071289c-0.069336,0.114746-0.15332,0.234863-0.248047,0.35791
		c-0.038086,0.048828-0.079102,0.099121-0.12207,0.148926c-0.042969,0.050293-0.086914,0.100098-0.131836,0.149902
		c-0.021973,0.025391-0.039062,0.049316-0.062012,0.074219c-0.02002,0.021973-0.041016,0.043945-0.062012,0.065918
		c-0.062012,0.065918-0.128418,0.131836-0.194336,0.198242c-0.036621,0.037598-0.070801,0.075684-0.108887,0.112793
		c-0.067871,0.066895-0.13916,0.131836-0.208984,0.196777c-0.023926,0.021973-0.047852,0.042969-0.070801,0.06543
		c-0.019043,0.017578-0.038086,0.034668-0.057129,0.052734s-0.037109,0.036133-0.057129,0.053223v0.000977h-0.000977v0.000977
		c-0.015137,0.011719-0.028809,0.024902-0.042969,0.038086c-0.01416,0.012695-0.027832,0.025879-0.041992,0.038574h-0.000977
		c-0.056152,0.050293-0.11377,0.098145-0.170898,0.145996c-0.008301,0.007324-0.016113,0.01416-0.023926,0.020996
		c-0.053223,0.044434-0.105957,0.091309-0.158203,0.133301c-0.10498,0.086914-0.209961,0.169922-0.312988,0.25
		c-0.004883,0.003906-0.01123,0.007812-0.016113,0.011719l-0.000977,0.000977
		c-0.003906,0.003418-0.007812,0.007324-0.011719,0.010254l-0.570312,0.442871l-0.009766,0.008301l-0.010254,0.007812
		c-0.010742,0.015137-0.02002,0.031738-0.026855,0.049805s-0.01123,0.037109-0.01123,0.057129
		c0,0.007812,0.001465,0.016113,0.002441,0.022949c0.001953,0.016113,0.005859,0.030273,0.010742,0.043945
		c0.01416,0.03418,0.039062,0.062012,0.068848,0.083984l0.654297,0.331055c0.059082,0.029297,0.116699,0.061035,0.171875,0.096191
		c0.037109,0.022949,0.072266,0.046875,0.106934,0.072754c0.01709,0.012207,0.03418,0.025391,0.05127,0.038086
		c0.049805,0.040039,0.09668,0.082031,0.141602,0.125977c0.04541,0.043945,0.087402,0.091309,0.126465,0.13916
		c0.052734,0.064941,0.099609,0.132812,0.141602,0.205078c0.033203,0.056641,0.062012,0.115723,0.088379,0.176758
		c0.07666,0.181152,0.118652,0.375,0.126953,0.574219c0.009766,0.264648-0.041016,0.539062-0.154297,0.803711
		c-0.029785,0.071289-0.063965,0.141113-0.101074,0.208008c-0.024902,0.04541-0.049805,0.089355-0.07666,0.131348
		c-0.027344,0.042969-0.056152,0.084961-0.084961,0.125977c-0.074219,0.102051-0.154297,0.19873-0.241211,0.290039
		c-0.035156,0.036621-0.070801,0.072754-0.106934,0.106934c-0.146973,0.139648-0.308105,0.266113-0.479004,0.381836
		c-0.042969,0.028809-0.085938,0.057129-0.129883,0.084961c-0.021973,0.01416-0.043945,0.026855-0.065918,0.041016
		c-0.044434,0.026855-0.089355,0.053223-0.135254,0.079102c-0.044922,0.025879-0.09082,0.050781-0.137207,0.076172
		c-0.068848,0.036621-0.138672,0.071777-0.209961,0.106934c-0.101562,0.049805-0.205566,0.09668-0.30957,0.143066
		c-0.093262,0.041016-0.187012,0.080566-0.28125,0.119629c-0.09375,0.038086-0.187988,0.076172-0.280762,0.111328
		c-0.064453,0.023926-0.115234,0.043945-0.172363,0.065918c-0.498047,0.191895-0.769043,0.315918-0.97168,0.547852
		c-0.059082,0.067871-0.113281,0.145996-0.166016,0.237305c-0.016113,0.025879-0.03125,0.052734-0.046387,0.081543
		c-0.052734,0.100098-0.106934,0.215332-0.166016,0.350098c-0.031738,0.072266-0.063965,0.14209-0.09668,0.209961
		c-0.033203,0.068359-0.066895,0.135254-0.101074,0.199219c-0.085938,0.161133-0.178223,0.310059-0.273926,0.447754
		c-0.038086,0.055664-0.077148,0.108398-0.117188,0.160156c-0.040039,0.050781-0.081055,0.100586-0.12207,0.148438
		c-0.062012,0.071289-0.125977,0.139648-0.191895,0.202148c-0.046875,0.046875-0.094727,0.089844-0.143066,0.130859
		c-0.072754,0.061523-0.147949,0.119141-0.225098,0.171875c-0.051758,0.036133-0.104004,0.068359-0.156738,0.099609
		c-0.133789,0.078125-0.272949,0.143555-0.417969,0.195312c-0.058105,0.020508-0.117188,0.039062-0.177246,0.055664
		c-0.05957,0.017578-0.120605,0.032227-0.182617,0.043945H10.33252h-0.000977H9.148438z"/>
	<path clip-path="url(#SVGID_2_)" fill="#AF9664" d="M11.203613,29.139648v-1.072266
		c0-0.132812-0.069824-0.199219-0.208008-0.199219H8.474609c-0.131836,0-0.198242,0.066406-0.198242,0.199219v1.072266
		c0,0.125977,0.066406,0.188477,0.198242,0.188477h2.520996C11.133789,29.328125,11.203613,29.265625,11.203613,29.139648"/>
	<path clip-path="url(#SVGID_2_)" fill="#AF9664" d="M9.940918,14.424316l-0.757812-0.757812
		c-0.094238-0.094238-0.091309-0.189941,0.006836-0.288086l3.306152-3.306152c0.09375-0.09375,0.187012-0.09375,0.280762,0
		l0.757812,0.758301c0.089355,0.088867,0.087402,0.180176-0.006836,0.273926l-3.306152,3.306152
		C10.124023,14.508301,10.029785,14.513672,9.940918,14.424316"/>
	<path clip-path="url(#SVGID_2_)" fill="#AF9664" d="M9.543945,11.625977l0.757812-0.758301
		c0.094238-0.09375,0.091309-0.189941-0.006836-0.288086L6.98877,7.273926c-0.09375-0.094238-0.187012-0.094238-0.280762,0
		L5.949707,8.031738C5.86084,8.120605,5.862793,8.211914,5.957031,8.305664l3.305664,3.306152
		C9.36084,11.709961,9.455078,11.714844,9.543945,11.625977"/>
	<path clip-path="url(#SVGID_2_)" fill="#AF9664" d="M9.543945,17.338867l0.757812-0.758301
		c0.094238-0.09375,0.091309-0.189941-0.006836-0.287598L6.98877,12.986816c-0.09375-0.094238-0.187012-0.094238-0.280762,0
		l-0.758301,0.757812c-0.088867,0.089355-0.086914,0.180176,0.007324,0.274414l3.305664,3.305664
		C9.36084,17.422852,9.455078,17.427734,9.543945,17.338867"/>
	<path clip-path="url(#SVGID_2_)" fill="#AF9664" d="M14.78125,34.341797v-1.072266c0-0.132812-0.069824-0.199219-0.208008-0.199219
		h-1.893066c-0.132812,0-0.19873,0.066406-0.19873,0.199219v1.072266c0,0.125977,0.065918,0.188477,0.19873,0.188477h1.893066
		C14.711426,34.530273,14.78125,34.467773,14.78125,34.341797"/>
	<path clip-path="url(#SVGID_2_)" fill="#AF9664" d="M15.061523,35.265625h-2.902832
		c-0.133301,0-0.199219,0.06543-0.199219,0.198242v0.359375v0.171875c0,0.40332,0.327148,0.730469,0.72998,0.730469h2.37207
		c0.13916,0,0.208008-0.063477,0.208008-0.189453v-1.072266C15.269531,35.331055,15.200684,35.265625,15.061523,35.265625"/>
	<path clip-path="url(#SVGID_2_)" fill="#AF9664" d="M15.061523,32.335938h-2.902832
		c-0.133301,0-0.199219-0.066406-0.199219-0.199219v-0.359375v-0.171875c0-0.40332,0.327148-0.729492,0.72998-0.729492h2.37207
		c0.13916,0,0.208008,0.0625,0.208008,0.188477v1.072266C15.269531,32.269531,15.200684,32.335938,15.061523,32.335938"/>
	<path clip-path="url(#SVGID_2_)" fill="#AF9664" d="M12.958496,31.605469h-2.902832c-0.132812,0-0.19873,0.066406-0.19873,0.199219
		v4.001953c0,0.125,0.065918,0.1875,0.19873,0.1875h2.902832c0.13916,0,0.208008-0.0625,0.208008-0.1875v-4.001953
		C13.166504,31.671875,13.097656,31.605469,12.958496,31.605469"/>
	<path clip-path="url(#SVGID_2_)" fill="#AF9664" d="M9.010254,39.051758v-0.172852l-0.005859-2.810547l-0.001953,2.810547v0.172852
		c0,0.402344,0.32666,0.729492,0.72998,0.729492c0.001953,0,0.00293-0.000977,0.003906-0.000977
		C9.334961,39.77832,9.010254,39.453125,9.010254,39.051758"/>
	<path clip-path="url(#SVGID_2_)" fill="#AF9664" d="M10.462402,39.051758c0,0.401367-0.325195,0.726562-0.726074,0.728516
		c0.000977,0,0.001953,0.000977,0.003906,0.000977c0.402832,0,0.72998-0.327148,0.72998-0.729492v-0.172852l-0.001953-2.810547
		l-0.005859,2.810547V39.051758z"/>
	<path clip-path="url(#SVGID_2_)" fill="#AF9664" d="M10.204102,4.394043H9.269043c-0.125977,0-0.250977,0.069824-0.250977,0.208008
		l-0.01416,31.467285l0.005859,2.810547v0.170898c0,0.402344,0.325195,0.727539,0.726074,0.729492
		c0.400879-0.001953,0.726074-0.327148,0.726074-0.729492v-0.170898l0.006836-2.810547L10.454102,4.602051
		C10.454102,4.463867,10.330078,4.394043,10.204102,4.394043"/>
</g>
</svg>
