<?xml version="1.0" standalone="no"?>
<!DOCTYPE svg PUBLIC "-//W3C//DTD SVG 1.1//EN" "http://www.w3.org/Graphics/SVG/1.1/DTD/svg11.dtd" >
<svg xmlns="http://www.w3.org/2000/svg" xmlns:xlink="http://www.w3.org/1999/xlink" version="1.1">
<metadata>
Created by FontForge 20170731 at Tue Jun 20 22:53:52 2017
 By ,,,
Copyright (c) 2015 by Studio Kmzero. All rights reserved.
</metadata>
<defs>
<font id="coco-gothic-regular" horiz-adv-x="248" >
  <font-face
    font-family="Coco Gothic"
    font-weight="400"
    font-stretch="normal"
    units-per-em="1000"
    panose-1="2 0 5 3 2 0 0 2 0 3"
    ascent="800"
    descent="-200"
    x-height="491"
    cap-height="742"
    bbox="-470 -351 1316 1121"
    underline-thickness="50"
    underline-position="-200"
    unicode-range="U+0020-FB04"
  />
<missing-glyph horiz-adv-x="313"
d="M141 125h281q-63 -53 -141 -53q-77 0 -140 53zM397 415l-273 -274q-52 60 -52 141q0 75 47 133h278zM420 438h-280q60 54 141 54q80 0 139 -54zM490 282q0 -76 -47 -134h-279l273 275q53 -67 53 -141zM349 38q-33 -9 -68 -9q-107 0 -180 75t-73 178q0 107 75 180.5
t178 73.5q107 0 180 -76t73 -178q0 -89 -52.5 -154.5t-132.5 -89.5zM342 506q-27 9 -61 9q-99 0 -165.5 -69t-66.5 -164t67.5 -164.5t164.5 -69.5q96 0 164.5 68.5t68.5 165.5q0 82 -49 143t-123 81z" />
    <glyph glyph-name="ff" unicode="ff" horiz-adv-x="618"
d="M274 746q24 0 24 -26v-34q0 -10 -6.5 -17.5t-15.5 -7.5q-75 -3 -75 -85v-77h214v78q0 75 39 121.5t121 47.5q24 0 24 -26v-34q0 -10 -6.5 -17.5t-15.5 -7.5q-75 -3 -75 -85v-77h73q24 0 24 -26v-26q0 -28 -24 -28h-73v-394q0 -11 -8 -18t-18 -7h-37q-24 0 -24 25v394
h-214v-394q0 -11 -8 -18t-18 -7h-37q-24 0 -24 25v394h-52q-25 0 -25 28v26q0 26 25 26h52v78q0 75 39 121.5t121 47.5z" />
    <glyph glyph-name="fi" unicode="fi" horiz-adv-x="573"
d="M492 469v-447q0 -22 -23 -22h-41q-23 0 -23 22v390h-209v-387q0 -11 -8 -18t-18 -7h-38q-24 0 -24 25v387h-52q-11 0 -18 7.5t-7 20.5v26q0 25 25 25h52v86q0 75 39.5 121.5t120.5 47.5q24 0 24 -26v-34q0 -10 -6 -17.5t-16 -7.5q-74 -3 -74 -85v-85h273q23 0 23 -22z
M386 629q0 26 18 44.5t44 18.5q27 0 45 -18.5t18 -44.5t-18 -44t-45 -18q-26 0 -44 18.5t-18 43.5z" />
    <glyph glyph-name="ffi" unicode="ffi" horiz-adv-x="897"
d="M816 22q0 -22 -22 -22h-42q-22 0 -22 22v397h-210v-394q0 -11 -8 -18t-18 -7h-37q-24 0 -24 25v394h-227v-394q0 -11 -8 -18t-18 -7h-38q-24 0 -24 25v394h-52q-11 0 -18 7.5t-7 20.5v26q0 26 25 26h52v78q0 75 39.5 121.5t120.5 47.5q24 0 24 -26v-34q0 -10 -6 -17.5
t-16 -7.5q-74 -3 -74 -85v-77h227v78q0 75 39 121.5t121 47.5q24 0 24 -26v-34q0 -10 -6.5 -17.5t-15.5 -7.5q-75 -3 -75 -85v-77h272q24 0 24 -26v-451zM710 629q0 26 18.5 44.5t44.5 18.5q27 0 45 -18.5t18 -44.5t-18 -44t-45 -18q-26 0 -44.5 18t-18.5 44z" />
    <glyph glyph-name=".notdef" horiz-adv-x="313"
d="M141 125h281q-63 -53 -141 -53q-77 0 -140 53zM397 415l-273 -274q-52 60 -52 141q0 75 47 133h278zM420 438h-280q60 54 141 54q80 0 139 -54zM490 282q0 -76 -47 -134h-279l273 275q53 -67 53 -141zM349 38q-33 -9 -68 -9q-107 0 -180 75t-73 178q0 107 75 180.5
t178 73.5q107 0 180 -76t73 -178q0 -89 -52.5 -154.5t-132.5 -89.5zM342 506q-27 9 -61 9q-99 0 -165.5 -69t-66.5 -164t67.5 -164.5t164.5 -69.5q96 0 164.5 68.5t68.5 165.5q0 82 -49 143t-123 81z" />
    <glyph glyph-name=".null" horiz-adv-x="0"
 />
    <glyph glyph-name="nonmarkingreturn" horiz-adv-x="333"
 />
    <glyph glyph-name="space" unicode=" " horiz-adv-x="313"
 />
    <glyph glyph-name="exclam" unicode="!"
d="M167 720v-495q0 -22 -22 -22h-42q-22 0 -22 22v495q0 22 22 22h42q22 0 22 -22zM60 47q0 26 18 44.5t44 18.5q27 0 45 -18.5t18 -44.5t-18 -44.5t-45 -18.5q-26 0 -44 18.5t-18 44.5z" />
    <glyph glyph-name="quotedbl" unicode="&#x22;" horiz-adv-x="416"
d="M81 553v168q0 22 22 22h42q22 0 22 -22v-168q0 -23 -23 -23h-41q-22 0 -22 23zM243 553v168q0 22 22 22h42q22 0 22 -22v-168q0 -23 -23 -23h-41q-22 0 -22 23z" />
    <glyph glyph-name="numbersign" unicode="#" horiz-adv-x="517"
d="M217 456l-22 -171h104l21 171h-103zM331 543l21 177q4 22 25 22h42q9 0 15 -6.5t5 -15.5l-22 -177h60q22 0 19 -22l-5 -42q-4 -23 -25 -23h-59l-22 -171h60q22 0 19 -22l-5 -41q-1 -9 -8 -16.5t-17 -7.5h-59l-22 -176q-3 -22 -26 -22h-41q-22 0 -19 22l21 176h-103
l-22 -176q-3 -22 -26 -22h-41q-22 0 -19 22l21 176h-55q-23 0 -20 24l5 41q3 22 26 22h55l21 171h-55q-23 0 -20 23l5 42q3 22 26 22h55l21 177q4 22 25 22h41q9 0 15.5 -6.5t5.5 -15.5l-22 -177h104z" />
    <glyph glyph-name="dollar" unicode="$" horiz-adv-x="641"
d="M501 588q-89 81 -181 81q-79 0 -120 -35.5t-41 -84.5q0 -24 14.5 -43.5t43.5 -33.5t54.5 -22.5t65.5 -19.5q124 -34 170 -60q93 -53 94 -148q0 -95 -66.5 -156.5t-170.5 -73.5v-72q0 -23 -24 -23h-41q-22 0 -22 23v73q-140 16 -223 123q-8 11 -8 18q0 8 9 16l32 27
q7 5 15 5q7 0 22 -15q41 -42 100.5 -67.5t99.5 -25.5q71 0 131 37.5t60 104.5q0 20 -6.5 36t-23.5 29t-31 21.5t-43.5 18.5t-45 14t-52.5 14q-127 33 -186.5 78t-59.5 119q0 82 57 137.5t153 66.5v68q0 22 22 22h41q24 0 24 -22v-68q109 -17 187 -92q19 -21 19 -28
q0 -8 -8 -16l-30 -29q-7 -7 -13 -7q-8 0 -18 10z" />
    <glyph glyph-name="percent" unicode="%" horiz-adv-x="928"
d="M48 563q0 80 56 136t136 56t136.5 -56t56.5 -136t-56.5 -136.5t-136.5 -56.5t-136 56.5t-56 136.5zM500 182q0 80 56 136t136 56t136.5 -56t56.5 -136t-56.5 -136.5t-136.5 -56.5t-136 56.5t-56 136.5zM577 182q0 -49 33.5 -82.5t81.5 -33.5q49 0 82 33.5t33 82.5
q0 51 -34 83t-81 32q-48 0 -81.5 -33.5t-33.5 -81.5zM125 563q0 -49 33 -82.5t82 -33.5q48 0 81.5 33.5t33.5 82.5q0 48 -33.5 81.5t-81.5 33.5q-49 0 -82 -33.5t-33 -81.5zM243 21l336 699q10 22 31 22h45q20 0 20 -12q0 -1 -1 -5.5t-1 -6.5q0 -1 1 -1
q-67 -137 -190.5 -392.5t-148.5 -307.5q-9 -17 -25 -17h-53q-16 0 -16 10q0 6 2 11z" />
    <glyph glyph-name="ampersand" unicode="&#x26;" horiz-adv-x="838"
d="M821 297q-14 -53 -58.5 -86.5t-99.5 -33.5q-17 0 -39 5l-59 15q-10 -101 -80 -154.5t-169 -53.5q-104 0 -177.5 65.5t-73.5 164.5q0 138 118 201q-67 51 -67 139q0 80 58.5 133t139.5 53q84 0 140 -49t56 -137q0 -22 -21 -22h-41q-25 0 -25 22q0 49 -28.5 77.5
t-79.5 28.5q-53 0 -82.5 -31t-29.5 -76q0 -42 29 -71t77 -34q23 -3 23 -19v-2q-1 -1 -1 -2l-8 -36q-3 -20 -21 -20q-73 0 -111.5 -39.5t-38.5 -114.5q0 -65 48 -106t116 -41q64 0 110.5 38.5t51.5 106.5l-89 22q-19 5 -19 23q0 6 1 9l8 33q5 21 24 21q1 0 3.5 -0.5t3.5 -0.5
l235 -59q14 -2 20 -2q25 0 46 13.5t28 35.5l1 3q5 19 23 19q1 0 4 -0.5t5 -0.5l31 -8q19 -5 19 -22q0 -1 -0.5 -3.5t-0.5 -3.5z" />
    <glyph glyph-name="quotesingle" unicode="'" horiz-adv-x="264"
d="M81 553v168q0 22 22 22h42q22 0 22 -22v-168q0 -23 -23 -23h-41q-22 0 -22 23z" />
    <glyph glyph-name="parenleft" unicode="("
d="M173 -127q-142 227 -142 496t142 496q6 10 16 10q8 0 13 -4l35 -25q10 -7 10 -19q0 -8 -4 -13q-126 -200 -126 -445q0 -242 126 -446q4 -5 4 -14q0 -13 -10 -18l-35 -23q-7 -5 -13 -5q-9 0 -16 10z" />
    <glyph glyph-name="parenright" unicode=")"
d="M75 -127q-7 -10 -16 -10q-5 0 -12 5l-36 23q-10 6 -10 18q0 7 5 14q125 205 125 446q0 247 -125 445q-5 7 -5 13q0 12 10 19l36 25q5 4 12 4q10 0 16 -10q142 -225 142 -496t-142 -496z" />
    <glyph glyph-name="asterisk" unicode="*" horiz-adv-x="491"
d="M363 437l-57 -82l100 9q22 0 22 -27v-32q0 -11 -6 -19.5t-16 -8.5q-65 6 -100 8l57 -82q3 -6 3 -11q0 -12 -15 -21l-28 -17q-8 -5 -17 -5q-12 0 -18 11l-43 90l-42 -90q-7 -11 -18 -11q-9 0 -16 5l-29 16q-14 8 -16 23q0 5 3 10q27 36 57 82l-91 -8q-16 0 -23 5t-7 19v36
q0 27 22 27l99 -9l-53 76q-7 12 -7 19q0 11 13 18l32 18q9 6 17 6q9 0 18 -14t23.5 -48t17.5 -40l39 84q11 18 22 18q6 0 14 -4l31 -19q16 -10 16 -20q0 -7 -4 -12z" />
    <glyph glyph-name="plus" unicode="+" horiz-adv-x="450"
d="M268 275v-117q0 -22 -22 -22h-42q-9 0 -16 6.5t-7 15.5v117h-117q-22 0 -22 23v42q0 22 22 22h117v116q0 24 23 24h42q22 0 22 -24v-116h117q22 0 22 -22v-42q0 -9 -6.5 -16t-15.5 -7h-117z" />
    <glyph glyph-name="comma" unicode="," horiz-adv-x="264"
d="M60 45q0 28 19.5 47.5t46.5 19.5q29 0 48 -20t19 -52q0 -43 -12 -77t-25 -48t-23 -14q-7 0 -12 4l-15 12q-8 6 -8 15q0 4 9.5 16t9.5 27v4q-23 4 -40 23t-17 43z" />
    <glyph glyph-name="hyphen" unicode="-" horiz-adv-x="517"
d="M104 319h318q22 0 22 -22v-42q0 -9 -6.5 -16t-15.5 -7h-318q-24 0 -24 23v42q0 22 24 22z" />
    <glyph glyph-name="period" unicode="." horiz-adv-x="264"
d="M60 47q0 26 18 44.5t44 18.5q27 0 45 -18.5t18 -44.5t-18 -44.5t-45 -18.5q-26 0 -44 18.5t-18 44.5z" />
    <glyph glyph-name="slash" unicode="/" horiz-adv-x="497"
d="M57 21l287 699q9 22 31 22h45q22 0 22 -12q0 -6 -4 -14q-39 -90 -146 -352t-143 -347q-8 -17 -25 -17h-52q-17 0 -17 11q0 2 2 10z" />
    <glyph glyph-name="zero" unicode="0" horiz-adv-x="853"
d="M426 752q158 0 270 -112t112 -271q0 -158 -112 -269t-271 -111q-158 0 -269.5 111.5t-111.5 269.5t112 270t270 112zM131 371q0 -123 86 -209.5t209 -86.5q122 0 208 86.5t86 209.5q0 121 -86 207.5t-208 86.5q-123 0 -209 -86t-86 -208z" />
    <glyph glyph-name="one" unicode="1" horiz-adv-x="341"
d="M185 742h40q23 0 23 -22v-698q0 -22 -23 -22h-41q-22 0 -22 22v623q-61 -29 -73 -29q-13 0 -13 14v50q0 14 17 23q19 8 79 36l5 1q5 2 8 2z" />
    <glyph glyph-name="two" unicode="2" horiz-adv-x="616"
d="M533 0h-447q-10 0 -17 7t-7 17v39q0 5 3 13l341 333q56 56 56 114q0 61 -46.5 101t-112.5 40h-6q-42 -2 -79 -21.5t-60 -54.5q-8 -12 -20 -12q-5 0 -8 3l-38 31q-5 7 -5 10q0 8 9 23q84 104 207 104q105 0 176.5 -61t71.5 -161q0 -94 -67 -159q-23 -23 -292 -281h341
q23 0 23 -22v-39q0 -9 -7 -16.5t-16 -7.5z" />
    <glyph glyph-name="three" unicode="3" horiz-adv-x="533"
d="M219 656q-37 -18 -52 -52q-6 -15 -16 -15q-5 0 -12 3l-40 19q-12 6 -12 15q0 6 4 13q24 52 69.5 81t102.5 29q79 0 134.5 -54.5t55.5 -133.5q0 -85 -64 -139q52 -32 82 -83.5t30 -113.5q0 -98 -70 -167t-168 -69q-54 0 -97 17.5t-63.5 36.5t-46.5 50q-2 4 -8.5 13.5
t-8.5 13t-4 10t-2 12.5q0 7 6 12l35 22q7 4 14 4t11.5 -4.5t10 -14t6.5 -11.5q51 -77 139 -77q68 0 115 43.5t47 109.5q0 62 -45.5 105.5t-108.5 43.5q-22 0 -22 22v39q0 22 24 22q44 0 74.5 29.5t30.5 73.5q0 45 -31 74.5t-76 29.5q-25 0 -44 -9z" />
    <glyph glyph-name="four" unicode="4" horiz-adv-x="621"
d="M403 127h-327q-26 0 -26 23q0 18 26 58q32 50 98 155t117.5 186t100.5 154q19 29 29.5 34.5t40.5 5.5q28 0 28 -32q0 -2 -1 -497h58q27 0 27 -27v-34q0 -26 -27 -26h-58v-101q0 -26 -26 -26h-34q-26 0 -26 26v101zM173 214h230v356q-37 -56 -112.5 -175t-117.5 -181z" />
    <glyph glyph-name="five" unicode="5" horiz-adv-x="572"
d="M531 241q0 -103 -73.5 -177.5t-175.5 -74.5q-54 0 -97 17t-64 36.5t-46 50.5q-23 35 -23 49q0 6 6 11l35 22q6 5 14 5q7 0 11.5 -4t10.5 -15t6 -12q50 -76 144 -76q70 0 119 49.5t49 118.5q0 70 -49 118.5t-119 48.5q-69 0 -116 -45q-14 -16 -34 -16h-59q-15 0 -17 20
l33 355q0 21 21 21h338q22 0 22 -22v-45q0 -20 -23 -20h-277l-18 -199q68 38 128 38q106 0 180 -74.5t74 -179.5z" />
    <glyph glyph-name="six" unicode="6" horiz-adv-x="599"
d="M44 245q0 67 36 131l198 345q12 22 33 22h52q18 0 18 -9q0 -10 -4 -17q-51 -88 -87 -151l-44 -77q25 10 52 10q106 0 180.5 -74t74.5 -180t-74.5 -180.5t-180.5 -74.5t-180 74.5t-74 180.5zM131 245q0 -71 48.5 -121t118.5 -50t118 49.5t48 121.5q0 70 -48 120.5
t-118 50.5t-118.5 -50.5t-48.5 -120.5z" />
    <glyph glyph-name="seven" unicode="7" horiz-adv-x="574"
d="M66 742h433q13 0 20 -7.5t7 -17.5q0 -12 -8 -28l-346 -668q-9 -21 -29 -21h-54q-19 0 -19 10q0 12 8 24l321 621h-333q-27 0 -27 27v35q0 25 27 25z" />
    <glyph glyph-name="eight" unicode="8" horiz-adv-x="554"
d="M86 561q0 78 55.5 134t134.5 56t134.5 -56t55.5 -134q0 -82 -60 -139q49 -32 77.5 -84t28.5 -113q0 -98 -69 -166.5t-167 -68.5t-167 69t-69 166q0 61 28.5 113t76.5 84q-59 57 -59 139zM124 226q0 -62 45 -106.5t107 -44.5t107 45t45 106q0 62 -45 107.5t-107 45.5
t-107 -45.5t-45 -107.5zM174 560q0 -44 29.5 -74t72.5 -30q44 0 74 30t30 74t-30 74t-74 30q-43 0 -72.5 -30t-29.5 -74z" />
    <glyph glyph-name="nine" unicode="9" horiz-adv-x="598"
d="M553 496q0 -69 -36 -131l-197 -344q-12 -22 -34 -22h-52q-18 0 -18 8q0 10 4 17q71 122 131 228q-27 -11 -53 -11q-105 0 -179.5 74.5t-74.5 180.5t74.5 180.5t179.5 74.5q106 0 180.5 -74.5t74.5 -180.5zM466 496q0 72 -48.5 121.5t-119.5 49.5q-70 0 -117.5 -50
t-47.5 -121t48 -121t117 -50q71 0 119.5 50t48.5 121z" />
    <glyph glyph-name="colon" unicode=":"
d="M60 47q0 26 18 44.5t44 18.5q27 0 45 -18.5t18 -44.5t-18 -44.5t-45 -18.5q-26 0 -44 18.5t-18 44.5zM60 437q0 26 18 44.5t44 18.5q27 0 45 -18.5t18 -44.5t-18 -44.5t-45 -18.5q-26 0 -44 18.5t-18 44.5z" />
    <glyph glyph-name="semicolon" unicode=";"
d="M58 45q0 28 19.5 47t46.5 19q30 0 48.5 -19.5t18.5 -52.5q0 -43 -12 -76.5t-25 -47.5t-23 -14q-7 0 -12 4l-15 12q-8 6 -8 15q0 8 9.5 20t9.5 23v3q-23 4 -40 23.5t-17 43.5zM60 437q0 26 18 44.5t44 18.5q27 0 45 -18.5t18 -44.5t-18 -44.5t-45 -18.5q-26 0 -44 18.5
t-18 44.5z" />
    <glyph glyph-name="less" unicode="&#x3c;" horiz-adv-x="438"
d="M61 289l234 234q9 9 16 9q6 0 15 -9l29 -30q9 -9 9 -16q0 -8 -7 -15l-187 -187l187 -186q7 -7 7 -15q0 -7 -9 -16l-29 -30q-9 -9 -15 -9q-7 0 -16 9l-234 234q-7 5 -7 14q0 6 7 13z" />
    <glyph glyph-name="equal" unicode="=" horiz-adv-x="517"
d="M97 389h320q22 0 22 -22v-42q0 -9 -6.5 -16t-15.5 -7h-320q-24 0 -24 23v42q0 22 24 22zM97 243h320q22 0 22 -22v-41q0 -9 -6.5 -16t-15.5 -7h-320q-24 0 -24 23v41q0 22 24 22z" />
    <glyph glyph-name="greater" unicode="&#x3e;" horiz-adv-x="419"
d="M145 523l234 -234q7 -11 7 -13q0 -7 -7 -14l-234 -234q-9 -9 -16 -9q-5 0 -16 9l-28 30q-10 10 -10 16q0 7 8 15l187 186l-187 187q-8 8 -8 15q0 6 10 16l28 30q11 9 16 9q7 0 16 -9z" />
    <glyph glyph-name="question" unicode="?" horiz-adv-x="574"
d="M318 262v-73q0 -8 -5 -13t-11 -5h-54q-17 0 -17 18v82q0 33 17 61.5t33.5 42.5t50.5 39q27 20 40 30t31.5 29.5t26.5 41t8 47.5q0 64 -46 105.5t-114 41.5q-59 0 -108.5 -39t-49.5 -110v-12q0 -17 -16 -17h-53q-17 0 -17 17v7q0 107 72 170.5t173 63.5q103 0 173.5 -61.5
t70.5 -156.5q0 -51 -22 -95t-45.5 -66t-58.5 -47q-27 -19 -40.5 -30.5t-26 -30.5t-12.5 -40zM215 47q0 26 18 44.5t44 18.5q27 0 45 -18.5t18 -44.5t-18 -44.5t-45 -18.5q-26 0 -44 18.5t-18 44.5z" />
    <glyph glyph-name="at" unicode="@" horiz-adv-x="948"
d="M696 -74q1 0 3.5 0.5t4.5 0.5q4 -1 22.5 -26t18.5 -34t-9 -14q-109 -64 -230 -64q-122 0 -226 60.5t-164 164.5t-60 227q0 187 133 323t320 136q103 0 193 -46t148 -138t58 -210q0 -132 -45.5 -203.5t-151.5 -71.5q-14 0 -30 3t-37.5 16t-29.5 35q-56 -71 -138 -71
q-94 0 -159 66.5t-65 162.5t65 162.5t159 66.5q93 0 134 -80q1 9 5.5 27t6.5 28t5.5 13.5t14.5 3.5h23q18 0 18 -16v-294q0 -26 9 -33.5t27 -7.5q62 0 85.5 50.5t23.5 140.5q0 130 -90.5 222t-221.5 92q-161 0 -271 -110.5t-110 -273.5q0 -146 112.5 -255t258.5 -109
q90 0 185 54q4 2 5 2zM326 243q0 -60 42.5 -101.5t102.5 -41.5t101.5 41t41.5 102q0 60 -41.5 102t-101.5 42q-59 0 -102 -42.5t-43 -101.5z" />
    <glyph glyph-name="A" unicode="A" horiz-adv-x="716"
d="M172 162l-56 -142q-9 -20 -28 -20h-43q-21 0 -21 16l2 13q204 489 282 676l8 19q8 18 25 18h29q17 0 25 -18l288 -696q3 -8 3 -12q0 -16 -22 -16h-43q-20 0 -27 19l-58 143h-364zM355 613l-147 -366h293z" />
    <glyph glyph-name="B" unicode="B" horiz-adv-x="678"
d="M600 548q0 -91 -68 -151q48 -26 77.5 -76t29.5 -107q0 -87 -59.5 -150.5t-146.5 -63.5h-329q-23 0 -23 22v696q0 24 23 24h295q85 0 143 -55.5t58 -138.5zM432 342h-265v-257h265q49 0 84.5 38.5t35.5 90.5q0 51 -35 89.5t-85 38.5zM512 548q0 49 -31.5 79t-82.5 30h-231
v-230h231q48 0 81 35t33 86z" />
    <glyph glyph-name="C" unicode="C" horiz-adv-x="705"
d="M653 677q13 -8 13 -17q0 -8 -7 -17l-21 -33q-9 -12 -17 -12q-9 2 -18 8q-81 58 -174 58q-128 0 -213 -87t-85 -208q0 -122 89 -208t207 -86q80 0 157 47q5 2 18.5 12t18.5 10q9 0 17 -12l23 -38q3 -7 3 -14q0 -11 -11 -17q-101 -74 -228 -74q-158 0 -269.5 111.5
t-111.5 269.5t112 270t270 112q125 0 227 -75z" />
    <glyph glyph-name="D" unicode="D" horiz-adv-x="745"
d="M81 21v697q0 24 23 24h229q157 0 264.5 -108t107.5 -264q0 -153 -109 -261.5t-263 -108.5h-229q-23 0 -23 21zM167 85h172q120 0 200.5 87t80.5 204q0 124 -84 202.5t-203 78.5h-166v-572z" />
    <glyph glyph-name="E" unicode="E" horiz-adv-x="642"
d="M103 742h481q22 0 22 -23v-41q0 -23 -23 -23h-416v-221h331q22 0 22 -23v-41q0 -9 -6 -16t-16 -7h-331v-260h420q23 0 23 -24v-41q0 -22 -22 -22h-485q-22 0 -22 21v698q0 23 22 23z" />
    <glyph glyph-name="F" unicode="F" horiz-adv-x="627"
d="M81 21v698q0 23 22 23h475q23 0 23 -23v-41q0 -9 -6.5 -16t-16.5 -7h-411v-258q39 0 163 -0.5t164 -0.5q22 0 22 -23v-41q0 -9 -6 -16t-16 -7h-327v-288q0 -21 -23 -21h-41q-22 0 -22 21z" />
    <glyph glyph-name="G" unicode="G" horiz-adv-x="726"
d="M582 121v185q0 22 22 22h42q9 0 16 -6t7 -16v-222q0 -12 -14 -21l-2 -2q-97 -72 -228 -72q-158 0 -269.5 111.5t-111.5 269.5t112 270t270 112q71 0 137 -26q102 -39 102 -69q0 -7 -3 -11l-22 -36q-8 -12 -17 -12q-10 0 -19 8q-81 58 -177 58q-127 0 -211.5 -88
t-84.5 -207q0 -122 87.5 -207.5t207.5 -85.5q94 0 156 45z" />
    <glyph glyph-name="H" unicode="H" horiz-adv-x="773"
d="M609 432v288q0 22 22 22h41q9 0 16 -6.5t7 -15.5v-698q0 -22 -23 -22h-41q-22 0 -22 22v325h-442v-325q0 -22 -24 -22h-40q-22 0 -22 22v698q0 22 22 22h41q9 0 16 -6.5t7 -15.5v-288h442z" />
    <glyph glyph-name="I" unicode="I"
d="M167 720v-698q0 -22 -22 -22h-42q-22 0 -22 22v698q0 22 22 22h42q22 0 22 -22z" />
    <glyph glyph-name="J" unicode="J" horiz-adv-x="400"
d="M7 45q-5 5 -5 12q0 8 8 15l29 32q6 7 14 7q7 0 11 -4q37 -34 81 -34q38 0 64.5 27t26.5 65v556q0 21 22 21h42q22 0 22 -22v-555q0 -75 -51.5 -126t-125.5 -51q-83 0 -138 57z" />
    <glyph glyph-name="K" unicode="K" horiz-adv-x="734"
d="M167 227v-205q0 -22 -23 -22h-41q-22 0 -22 22v698q0 22 22 22h42q9 0 15.5 -6t6.5 -16v-372l358 379q12 15 24 15h86q13 0 13 -6q0 -5 -9 -14l-280 -295q38 -45 109.5 -127.5t128.5 -150t106 -129.5q7 -9 7 -11q0 -9 -10 -9h-86q-12 0 -31 26q-47 56 -141.5 169.5
t-141.5 169.5z" />
    <glyph glyph-name="L" unicode="L" horiz-adv-x="574"
d="M167 85h361q22 0 22 -23v-40q0 -9 -6 -15.5t-16 -6.5h-425q-22 0 -22 22v698q0 22 23 22h41q22 0 22 -22v-635z" />
    <glyph glyph-name="M" unicode="M" horiz-adv-x="926"
d="M483 32h-39q-12 0 -20 18l-230 541l-55 -569q0 -22 -23 -22h-42q-22 0 -22 22q12 117 36 349t36 349q0 10 7 16t17 6h62q16 0 22 -19l232 -558q39 93 116 279t116 279q5 19 21 19h65q10 0 16 -6.5t6 -15.5l73 -698q0 -22 -23 -22h-42q-22 0 -22 22l-56 569l-230 -541
q-8 -18 -21 -18z" />
    <glyph glyph-name="N" unicode="N" horiz-adv-x="791"
d="M689 0h-47q-12 0 -19 9l-456 599v-586q0 -22 -23 -22h-41q-22 0 -22 22v697q0 10 6 16.5t16 6.5h55q12 0 19 -10l449 -584v575q3 19 22 19h41q9 0 16.5 -6.5t7.5 -15.5v-698q0 -22 -24 -22z" />
    <glyph glyph-name="O" unicode="O" horiz-adv-x="853"
d="M426 752q158 0 270 -112t112 -271q0 -158 -112 -269t-271 -111q-158 0 -269.5 111.5t-111.5 269.5t112 270t270 112zM131 371q0 -123 86 -209.5t209 -86.5q122 0 208 86.5t86 209.5q0 121 -86 207.5t-208 86.5q-123 0 -209 -86t-86 -208z" />
    <glyph glyph-name="P" unicode="P" horiz-adv-x="629"
d="M81 22v696q0 24 23 24h248q97 0 164 -68.5t67 -163.5q0 -93 -66 -161.5t-162 -68.5h-188v-258q0 -22 -22 -22h-42q-22 0 -22 22zM497 511q0 59 -42.5 102.5t-102.5 43.5h-185v-292h185q59 0 102 43.5t43 102.5z" />
    <glyph glyph-name="Q" unicode="Q" horiz-adv-x="853"
d="M131 371q0 -123 86 -209.5t209 -86.5q122 0 208 86.5t86 209.5q0 121 -86 207.5t-208 86.5q-123 0 -209 -86t-86 -208zM426 752q158 0 270 -112t112 -271q0 -146 -97 -253.5t-241 -124.5v-129q-2 -22 -24 -22h-41q-22 0 -22 23v128q-144 16 -241.5 124.5t-97.5 254.5
q0 158 112 270t270 112z" />
    <glyph glyph-name="R" unicode="R" horiz-adv-x="671"
d="M541 507q0 60 -43.5 105t-105.5 45h-225v-300h226q62 0 105 44.5t43 105.5zM81 22v696q0 24 22 24h289q98 0 166.5 -69t68.5 -167q0 -70 -37.5 -127.5t-99.5 -85.5l132 -271q2 -8 2 -9q0 -13 -18 -13h-55q-17 0 -26 19l-121 254q-7 -1 -62 -1h-175v-250q0 -22 -22 -22
h-42q-22 0 -22 22z" />
    <glyph glyph-name="S" unicode="S" horiz-adv-x="641"
d="M501 588q-89 81 -181 81q-79 0 -120 -35.5t-41 -84.5q0 -24 14.5 -43.5t43.5 -33.5t54.5 -22.5t65.5 -19.5q124 -34 170 -60q93 -53 94 -148q0 -105 -80 -168.5t-200 -63.5q-79 0 -149.5 32.5t-117.5 93.5q-8 11 -8 18q0 8 9 16l32 27q7 5 15 5q7 0 22 -15
q41 -42 100.5 -67.5t99.5 -25.5q71 0 131 37.5t60 104.5q0 20 -6.5 36t-23.5 29t-31 21.5t-43.5 18.5t-45 14t-52.5 14q-127 33 -186.5 78t-59.5 119q0 92 70.5 149.5t186.5 57.5q59 0 121 -26.5t106 -68.5q19 -21 19 -28q0 -8 -8 -16l-30 -29q-7 -7 -13 -7q-8 0 -18 10z
" />
    <glyph glyph-name="T" unicode="T" horiz-adv-x="611"
d="M44 742h514q23 0 24 -22v-41q0 -24 -24 -24h-213v-633q0 -22 -23 -22h-41q-10 0 -16.5 6t-6.5 16v633h-214q-23 0 -23 24v41q0 22 23 22z" />
    <glyph glyph-name="U" unicode="U" horiz-adv-x="752"
d="M158 720v-417q0 -99 60 -165t158 -66q102 0 160.5 65.5t58.5 165.5v417q0 9 6.5 15.5t16.5 6.5h38q10 0 18 -6.5t8 -15.5v-427q0 -135 -88.5 -220t-217.5 -85q-126 0 -216 89.5t-90 215.5v427q0 8 6 15t15 7h44q8 0 15.5 -6.5t7.5 -15.5z" />
    <glyph glyph-name="V" unicode="V" horiz-adv-x="718"
d="M118 722q57 -147 238 -585q105 254 237 586q9 19 28 19h43q22 0 22 -17q0 -2 -1 -7l-1 -5l-287 -693q-9 -20 -26 -20h-29q-19 0 -26 19l-284 682q-6 12 -7 25q0 16 22 16h44q20 0 27 -20z" />
    <glyph glyph-name="W" unicode="W" horiz-adv-x="1065"
d="M357 130l240 598q5 14 18 14h55q18 0 18 -15l-2 -8l-114 -275q86 -210 129 -314q139 337 242 593q8 19 27 19h42q22 0 22 -15q0 -4 -2 -6l-291 -699q0 -4 -2 -4q0 -1 -2 -5t-7.5 -8.5t-13.5 -4.5h-30q-22 0 -25 19l-134 320l-132 -317q-10 -22 -28 -22h-27q-18 0 -24 19
l-291 700l-1 3v5q0 15 18 15h49q17 0 26 -22z" />
    <glyph glyph-name="X" unicode="X" horiz-adv-x="667"
d="M385 370l237 -348q6 -7 6 -14q0 -8 -15 -8h-60q-18 0 -30 18l-189 279l-188 -279q-14 -18 -30 -18h-61q-14 0 -14 8q0 5 6 14l237 348q-119 178 -236 347q-7 10 -7 16q0 9 20 9h54q16 0 33 -22l186 -276l188 276q17 22 37 22h49q20 0 20 -8q0 -7 -7 -17z" />
    <glyph glyph-name="Y" unicode="Y" horiz-adv-x="659"
d="M286 324l-242 393q-6 9 -6 15q0 10 15 10h65q10 -1 13.5 -4t12.5 -17l185 -308l189 312q10 16 23 17h68q12 0 12 -9q0 -7 -5 -13q-41 -66 -121.5 -196.5t-121.5 -196.5v-304q0 -23 -23 -23h-43q-21 0 -21 23v301z" />
    <glyph glyph-name="Z" unicode="Z" horiz-adv-x="639"
d="M574 0h-518q-10 0 -17 6.5t-7 16.5v45q0 11 7 18l439 569h-411q-24 0 -24 23v42q0 22 24 22h505q10 0 17 -6.5t7 -16.5v-46q0 -10 -5 -16l-437 -570h420q23 0 23 -24v-40q0 -9 -6.5 -16t-16.5 -7z" />
    <glyph glyph-name="bracketleft" unicode="["
d="M69 -96v935q0 22 22 22h134q23 0 23 -22v-42q0 -23 -23 -23h-69v-805h69q10 0 16.5 -6.5t6.5 -16.5v-42q0 -22 -23 -22h-134q-22 0 -22 22z" />
    <glyph glyph-name="backslash" unicode="\" horiz-adv-x="465"
d="M138 720l286 -699q3 -8 3 -11q0 -10 -17 -10h-52q-19 0 -25 17l-290 700q-2 5 -2 11q0 14 20 14h46q22 0 31 -22z" />
    <glyph glyph-name="bracketright" unicode="]"
d="M179 835v-934q0 -22 -22 -22h-134q-21 0 -23 22v42q0 10 7 16.5t16 6.5h69v804h-69q-23 0 -23 23v42q0 22 23 22h134q22 0 22 -22z" />
    <glyph glyph-name="asciicircum" unicode="^" horiz-adv-x="488"
d="M257 831l159 -159q9 -9 9 -16q0 -6 -9 -15l-25 -24q-9 -9 -16 -9q-8 0 -15 7l-117 117l-116 -117q-7 -7 -15 -7q-7 0 -16 9l-25 24q-9 9 -9 15q0 7 9 16l159 159q5 7 14 7q6 0 13 -7z" />
    <glyph glyph-name="underscore" unicode="_" horiz-adv-x="451"
d="M23 -61h406q22 0 22 -22v-42q0 -9 -6.5 -16t-15.5 -7h-406q-23 0 -23 23v42q0 22 23 22z" />
    <glyph glyph-name="grave" unicode="`" horiz-adv-x="258"
d="M118 608l-45 105q-7 15 -7 20q0 9 15 9h40q16 0 27 -21l44 -102q4 -10 6 -18q0 -14 -17 -14h-36q-17 0 -27 21z" />
    <glyph glyph-name="a" unicode="a" horiz-adv-x="594"
d="M430 25v47q-26 -39 -60.5 -60.5t-90.5 -21.5q-104 0 -171.5 73t-67.5 181t67.5 181.5t171.5 73.5q56 0 90 -22t61 -61l4 50q2 25 24 25h29q11 0 18.5 -6.5t7.5 -18.5v-444q0 -10 -7.5 -16t-18.5 -6h-32q-25 0 -25 25zM123 244q0 -72 43.5 -121.5t112.5 -49.5
q70 0 110.5 47.5t40.5 121.5t-40 123.5t-111 49.5q-70 0 -113 -49.5t-43 -121.5z" />
    <glyph glyph-name="b" unicode="b" horiz-adv-x="593"
d="M81 25v693q0 24 29 24h29q28 0 28 -24v-298q54 79 151 79t163.5 -74t66.5 -181t-66.5 -180.5t-163.5 -73.5q-95 0 -151 76v-41q0 -25 -28 -25h-30q-28 0 -28 25zM159 243q0 -69 45.5 -120t105.5 -51t105.5 51t45.5 120q0 70 -45.5 121t-105.5 51t-105.5 -51t-45.5 -121z
" />
    <glyph glyph-name="c" unicode="c" horiz-adv-x="511"
d="M295 68q63 0 115 45q9 7 18 7q8 0 11 -6l29 -41q3 -5 3 -9q0 -9 -17 -20q-79 -56 -159 -56q-107 0 -181.5 75t-74.5 181q0 107 75 182t181 75q81 0 154 -52q16 -11 16 -20q0 -8 -3 -11l-27 -43v1q-5 -6 -13 -6q-6 0 -16 8q-56 43 -111 43q-72 0 -124 -52.5t-52 -124.5
t52 -124t124 -52z" />
    <glyph glyph-name="d" unicode="d" horiz-adv-x="579"
d="M505 718v-693q0 -25 -28 -25h-30q-28 0 -28 25v41q-56 -76 -151 -76q-103 0 -166.5 72.5t-63.5 181.5t63.5 182t166.5 73q97 0 151 -79v298q0 24 28 24h29q29 0 29 -24zM427 243q0 72 -42 122t-109 50q-72 0 -111.5 -49t-39.5 -123t39.5 -122.5t111.5 -48.5
q66 0 108.5 50t42.5 121z" />
    <glyph glyph-name="e" unicode="e" horiz-adv-x="532"
d="M280 -12q-98 0 -167 74.5t-69 181.5t69 182t167 75q92 0 158 -69.5t66 -166.5v-12q0 -27 -16.5 -36.5t-48.5 -9.5h-307q9 -60 50.5 -97.5t97.5 -37.5q65 0 115 42q7 7 18 7q6 0 11 -6l28 -42q4 -4 4 -9q-1 -9 -17 -20q-84 -56 -159 -56zM136 281h283q-10 57 -50.5 96.5
t-90.5 39.5t-89.5 -39t-52.5 -97z" />
    <glyph glyph-name="f" unicode="f" horiz-adv-x="324"
d="M268 746q24 0 24 -26v-34q0 -10 -6 -17.5t-16 -7.5q-39 -2 -56.5 -17t-17.5 -58v-95h72q24 0 24 -25v-26q0 -28 -24 -28h-72v-387q0 -11 -8 -18t-18 -7h-38q-24 0 -24 25v387h-52q-11 0 -18 7.5t-7 20.5v26q0 25 25 25h52v96q0 73 39 115.5t121 43.5z" />
    <glyph glyph-name="g" unicode="g" horiz-adv-x="596"
d="M422 14v60q-26 -35 -66.5 -60t-82.5 -25q-101 0 -167 74t-66 181t68 181.5t165 74.5q94 0 149 -77v41q0 25 27 25h32q12 0 20.5 -7t8.5 -18v-417q0 -122 -67 -187t-175 -65q-79 0 -138 38q-12 7 -12 13t5 11l28 48q5 6 14 6q5 0 11 -4q43 -29 91 -29q60 0 107.5 38
t47.5 98zM125 244q0 -71 43.5 -121t104.5 -50q59 0 104 49.5t45 118.5q0 70 -44 122t-105 52t-104.5 -50.5t-43.5 -120.5z" />
    <glyph glyph-name="h" unicode="h" horiz-adv-x="591"
d="M167 720v-298q24 30 74.5 54t93.5 24q84 0 136 -60t52 -149v-266q0 -12 -7 -18.5t-17 -6.5h-41q-22 0 -22 24v267q0 54 -29 88.5t-89 34.5q-51 0 -99 -35.5t-52 -82.5v-274q0 -22 -22 -22h-41q-23 0 -23 22v698q0 22 22 22h41q10 0 16.5 -6t6.5 -16z" />
    <glyph glyph-name="i" unicode="i"
d="M167 469v-447q0 -22 -22 -22h-42q-22 0 -22 22v447q0 22 22 22h42q22 0 22 -22zM61 629q0 26 18.5 44.5t44.5 18.5q27 0 45 -18.5t18 -44.5t-18 -44t-45 -18q-26 0 -44.5 18t-18.5 44z" />
    <glyph glyph-name="j" unicode="j"
d="M9 -200q-25 0 -25 25v32q0 26 25 26h3q29 2 48.5 26.5t19.5 53.5v503q0 25 27 25h34q26 0 26 -25v-503q0 -66 -47 -113.5t-111 -49.5zM61 629q0 26 18.5 44.5t44.5 18.5q27 0 45 -18.5t18 -44.5t-18 -44t-45 -18q-26 0 -44.5 18t-18.5 44z" />
    <glyph glyph-name="k" unicode="k" horiz-adv-x="523"
d="M81 22v698q0 22 22 22h41q9 0 16 -6.5t7 -15.5v-424l173 181q14 14 27 14h70q15 0 15 -11q0 -6 -8 -17l-153 -156l230 -280q9 -9 9 -16q0 -11 -17 -11h-69q-16 0 -28 16l-185 230l-64 -66v-158q0 -22 -23 -22h-41q-22 0 -22 22z" />
    <glyph glyph-name="l" unicode="l"
d="M167 720v-698q0 -22 -22 -22h-42q-22 0 -22 22v698q0 22 22 22h42q22 0 22 -22z" />
    <glyph glyph-name="m" unicode="m" horiz-adv-x="873"
d="M164 467l3 -44q22 32 59.5 53.5t80.5 21.5q98 0 150 -102q24 47 67 75.5t96 28.5q82 0 130.5 -60t48.5 -147v-268q0 -25 -25 -25h-36q-26 0 -26 24v270q0 54 -26 87t-79 33q-47 0 -85.5 -35.5t-38.5 -85.5v-268q0 -25 -24 -25h-40q-22 0 -22 24v270q0 53 -27 86.5
t-79 33.5q-49 0 -86.5 -35t-37.5 -84v-273q0 -22 -22 -22h-41q-23 0 -23 22v445q0 22 22 22h38q21 0 23 -22z" />
    <glyph glyph-name="n" unicode="n" horiz-adv-x="591"
d="M164 467l3 -45q24 30 74.5 54t93.5 24q84 0 136 -60t52 -149v-266q0 -12 -7 -18.5t-17 -6.5h-41q-22 0 -22 24v267q0 52 -34 87.5t-89 35.5q-51 0 -98.5 -33t-47.5 -73v-286q0 -22 -22 -22h-41q-23 0 -23 22v445q0 22 22 22h38q21 0 23 -22z" />
    <glyph glyph-name="o" unicode="o" horiz-adv-x="610"
d="M44 244q0 107 75 182t181 75t181.5 -75.5t75.5 -181.5t-75 -181t-182 -75q-106 0 -181 75t-75 181zM125 244q0 -72 51.5 -124t123.5 -52t124 52t52 124t-52 124.5t-124 52.5t-123.5 -52.5t-51.5 -124.5z" />
    <glyph glyph-name="p" unicode="p" horiz-adv-x="591"
d="M81 -168v634q0 25 27 25h26q27 0 29 -25l4 -44q25 35 64 57t85 22q97 0 163.5 -74t66.5 -181t-66.5 -180.5t-163.5 -73.5t-148 76v-236q0 -25 -29 -25h-29q-13 0 -21 7t-8 18zM167 244q0 -71 42 -120.5t103 -49.5t102.5 49.5t41.5 120.5t-42 121.5t-102 50.5t-102 -50
t-43 -120v-2z" />
    <glyph glyph-name="q" unicode="q" horiz-adv-x="585"
d="M509 466v-634q0 -11 -8 -18t-21 -7h-29q-29 0 -29 25v236q-51 -76 -148 -76t-163.5 73.5t-66.5 180.5t66.5 181t163.5 74q46 0 85 -22t64 -57l4 44q2 25 29 25h26q27 0 27 -25zM423 244v2q-1 70 -43 120t-102 50t-102 -50.5t-42 -121.5t41.5 -120.5t102.5 -49.5t103 49.5
t42 120.5z" />
    <glyph glyph-name="r" unicode="r" horiz-adv-x="381"
d="M162 469l5 -37q37 67 113 67q30 0 62 -16t32 -26q0 -2 -2 -8l-25 -47q-6 -10 -13 -10q-2 0 -12 5q-23 14 -54 16q-43 0 -72 -41t-29 -90v-260q0 -22 -22 -22h-41q-23 0 -23 22v447q0 10 6.5 16t15.5 6h36q21 0 23 -22z" />
    <glyph glyph-name="s" unicode="s" horiz-adv-x="425"
d="M39 100q-3 4 -2 11t7 9l50 20q16 7 23 -15q10 -28 38.5 -41.5t53.5 -13.5q36 0 65 18t29 47q0 30 -27 47.5t-76 30.5q-69 18 -107.5 55.5t-38.5 93.5q0 62 44.5 101.5t115.5 39.5q96 0 151 -97q7 -11 -1 -17l-41 -29q-11 -6 -24 13l-3 3q-36 49 -81 49q-35 0 -58 -19
t-23 -44q0 -46 82 -68q171 -44 171 -159q0 -66 -49.5 -105t-128.5 -39q-58 0 -107 29t-63 80z" />
    <glyph glyph-name="t" unicode="t" horiz-adv-x="328"
d="M251 -8q-2 0 -7.5 -0.5t-8.5 -0.5q-28 0 -47 4t-38 15.5t-29 37t-10 63.5v300h-60q-25 0 -25 22v37q0 21 25 21h60v141q0 16 17 20l51 7q19 0 19 -26v-142h74q22 0 22 -23v-33q0 -24 -22 -24h-74v-268q0 -48 10 -58.5t43 -11.5q25 0 25 -25v-32q0 -22 -25 -24z" />
    <glyph glyph-name="u" unicode="u" horiz-adv-x="568"
d="M409 22l-9 45q-60 -78 -135 -78q-85 0 -145 61t-60 147v274q0 20 20 20h44q23 0 23 -25v-270q0 -49 38.5 -85t88.5 -36q49 0 86.5 35t39.5 85v274q0 22 23 22h41q23 0 23 -22v-447q0 -22 -22 -22h-33q-23 0 -23 22z" />
    <glyph glyph-name="v" unicode="v" horiz-adv-x="491"
d="M111 473l137 -353l137 354q8 17 27 17h42q21 0 21 -16q0 -11 -4 -15l-182 -441q-8 -19 -27 -19h-29q-13 0 -17.5 4t-8.5 15l-181 435q-5 15 -5 21q0 16 21 16h43q18 0 26 -18z" />
    <glyph glyph-name="w" unicode="w" horiz-adv-x="773"
d="M118 471q116 -295 133 -336q83 207 89 223l45 114q7 19 27 19h42q23 0 23 -17q0 -9 -3 -12q-17 -43 -41 -98q19 -49 57 -144l35 -85q17 41 40 98.5t51 129.5t43 109q8 19 27 19h42q24 0 24 -17q0 -2 -2 -7l-1 -5l-183 -443q0 -4 -9 -12q-7 -7 -17 -7h-29q-17 0 -26 19
l-97 234l-96 -234l-2 -3l-3.5 -7t-6.5 -5.5t-11 -2.5l-2 -1h-30q-21 0 -26 19l-183 443l-2 11v2q0 16 22 16h42q19 0 28 -20z" />
    <glyph glyph-name="x" unicode="x" horiz-adv-x="471"
d="M285 258l161 -236q7 -12 7 -14q0 -8 -16 -8h-60q-16 0 -30 17l-112 175l-112 -173q-13 -19 -31 -19h-58q-17 0 -17 8q0 3 8 17l160 233l-148 217q-2 3 -2.5 6.5t2.5 6.5t9 3h62q18 0 34 -21l93 -146l93 147q12 20 33 20h61q9 0 11 -6t-2 -12z" />
    <glyph glyph-name="y" unicode="y" horiz-adv-x="501"
d="M478 446q-46 -109 -131 -318t-125 -304q-8 -17 -27 -17h-40q-23 0 -23 17q0 2 2 10l72 176l-184 446q-4 9 -4 19q0 16 21 16h43q19 0 26 -18q64 -168 143 -362l143 364q8 16 27 16h41q24 0 24 -20q0 -7 -8 -25z" />
    <glyph glyph-name="z" unicode="z" horiz-adv-x="517"
d="M437 0h-361q-10 0 -18 8t-8 18v30q0 11 4 16q33 38 147.5 168t147.5 168h-268q-26 0 -26 28v29q0 26 26 26h352q27 0 27 -22v-36q0 -17 -14 -34l-278 -318h269q25 0 25 -25v-30q0 -10 -7.5 -18t-17.5 -8z" />
    <glyph glyph-name="braceleft" unicode="{" horiz-adv-x="300"
d="M291 855l13 2q25 -2 25 -21v-42q0 -10 -6 -16.5t-16 -6.5q-33 0 -61 -29t-28 -66v-235q0 -40 -36 -70q36 -29 36 -70v-238q0 -6 4 -14q2 -29 19.5 -47t36.5 -23.5t35 -14t16 -20.5v-42q0 -20 -22 -22q-175 21 -175 221v167q0 22 -13.5 40.5t-33.5 18.5h-19q-22 0 -22 23
v42q0 22 22 22h17q49 0 49 61v160q0 91 40 150t119 70z" />
    <glyph glyph-name="bar" unicode="|" horiz-adv-x="251"
d="M81 -192v934q0 22 22 22h41q9 0 16 -6t7 -16v-934q0 -22 -23 -22h-41q-22 0 -22 22z" />
    <glyph glyph-name="braceright" unicode="}" horiz-adv-x="300"
d="M22 858q86 -10 131 -68.5t45 -154.5v-160q0 -61 48 -61h17q22 0 22 -22v-42q0 -23 -22 -23h-19q-20 0 -33 -18.5t-13 -40.5v-167q0 -200 -176 -221q-22 2 -22 22v42q0 16 26 25q17 5 29.5 11t26.5 16.5t21.5 27.5t7.5 39v238q0 41 36 70q-36 30 -36 70v235q0 37 -27 65
t-60 30q-24 0 -24 23v42q0 20 22 22z" />
    <glyph glyph-name="asciitilde" unicode="~" horiz-adv-x="659"
d="M135 209q-6 -6 -12 -6q-5 0 -15 6q-12 9 -36 30q-7 7 -7 15q0 9 11 20q61 83 158 83q47 0 99 -35l44 -28q26 -17 55 -17q34 0 58 22q5 5 16.5 19t16.5 19q6 6 12 6q5 0 15 -6q12 -9 36 -30q7 -7 7 -15q0 -9 -11 -20q-61 -83 -158 -83q-46 0 -99 34l-44 29q-26 17 -55 17
q-34 0 -58 -22q-5 -5 -16.5 -19t-16.5 -19z" />
    <glyph glyph-name="exclamdown" unicode="&#xa1;"
d="M81 -240v496q0 22 22 22h42q22 0 22 -22v-496q0 -22 -22 -22h-42q-22 0 -22 22zM188 434q0 -26 -18 -44.5t-44 -18.5q-27 0 -45 18.5t-18 44.5t18 44t45 18q26 0 44 -18t18 -44z" />
    <glyph glyph-name="cent" unicode="&#xa2;" horiz-adv-x="488"
d="M295 68q63 0 115 45q9 7 18 7q8 0 11 -6l29 -41q3 -5 3 -9q-1 -17 -47.5 -41t-84.5 -31v-70q0 -22 -22 -22h-41q-23 0 -23 22v69q-92 15 -153 86.5t-61 166.5t61 166.5t153 87.5v64q0 10 6.5 16t15.5 6h41q10 0 16.5 -6.5t6.5 -15.5v-64h-2q58 -11 112 -49q16 -11 16 -20
q0 -8 -3 -11l-27 -43v1q-5 -6 -13 -6q-6 0 -16 8q-56 43 -111 43q-72 0 -124 -52.5t-52 -124.5t52 -124t124 -52z" />
    <glyph glyph-name="sterling" unicode="&#xa3;" horiz-adv-x="600"
d="M167 385h130q16 0 16 -17v-51q0 -17 -16 -17h-130v-214h371q16 0 16 -16v-53q0 -17 -16 -17h-441q-16 0 -16 15v285h-20q-16 0 -16 17v51q0 17 16 17h20v110q0 115 82.5 187.5t203.5 72.5q101 0 175 -60q13 -10 13 -16q0 -2 -4 -8l-2 -5v1l-24 -43q-4 -7 -11 -7
q-2 0 -8 2h1l-22 16q-55 39 -118 39q-86 0 -143 -49.5t-57 -131.5v-108z" />
    <glyph glyph-name="currency" unicode="&#xa4;" horiz-adv-x="539"
d="M185 276q0 -35 24.5 -60t59.5 -25q36 0 60.5 25t24.5 60t-24.5 60t-60.5 25q-35 0 -59.5 -25t-24.5 -60zM69 413l64 64q7 8 14 8q9 0 17 -8l52 -53q32 9 53 9t52 -9l54 53q6 7 14 7q10 0 18 -8l64 -64q7 -7 7 -15t-7 -16l-53 -53q9 -38 9 -52q0 -15 -9 -53l53 -53
q7 -7 7 -15q0 -9 -7 -16l-64 -63q-7 -7 -18 -7q-9 0 -14 6l-54 52q-34 -8 -52 -8q-19 0 -53 8l-52 -52q-8 -8 -16 -8q-10 0 -15 8l-64 63q-7 7 -7 18q0 8 6 14l53 53q-9 32 -9 53q0 20 9 52l-53 53q-7 9 -7 15q0 9 8 17z" />
    <glyph glyph-name="yen" unicode="&#xa5;" horiz-adv-x="650"
d="M363 231h136q16 0 16 -16v-35q0 -17 -16 -17h-136v-140q0 -23 -22 -23h-43q-21 0 -21 23v140h-118q-16 0 -16 17v35q0 16 16 16h118v64h-118q-16 0 -16 18v34q0 16 16 16h94l-218 354q-7 11 -7 15q0 10 15 10h65q10 -1 14 -4t12 -17l186 -305l188 309q10 16 23 17h69
q12 0 12 -9q0 -5 -6 -13q-12 -20 -94 -153.5t-126 -203.5h113q16 0 16 -16v-34q0 -18 -16 -18h-136v-64z" />
    <glyph glyph-name="brokenbar" unicode="&#xa6;"
d="M81 365v373q0 22 22 22h40q9 0 16.5 -6.5t7.5 -15.5v-373q0 -22 -24 -22h-40q-22 0 -22 22zM81 -187v373q0 22 22 22h40q9 0 16.5 -6.5t7.5 -15.5v-373q0 -22 -24 -22h-40q-22 0 -22 22z" />
    <glyph glyph-name="section" unicode="&#xa7;" horiz-adv-x="538"
d="M429 628l-1 3q-28 31 -70 48.5t-71 17.5q-49 0 -90 -27t-41 -73q0 -9 2 -17t7.5 -14.5t11 -11.5t16 -10.5t18 -8.5t22 -8t23 -7.5t26.5 -7t27 -7.5q87 -26 125.5 -61t38.5 -87q0 -83 -78 -123q78 -40 78 -113q0 -75 -58.5 -123.5t-145.5 -48.5q-84 0 -150 51
q-21 17 -35.5 34t-14.5 23q0 8 10 13l29 20q6 3 9 3q5 0 13 -6l1 -4q27 -31 69 -48.5t71 -17.5q50 0 91 27t41 73q0 23 -20 40.5t-39.5 25t-69.5 21.5q-15 5 -23 7q-87 27 -126 60.5t-39 85.5q0 82 75 121q-75 38 -75 115q0 75 58.5 123t144.5 48t151 -49q21 -16 34.5 -33.5
t13.5 -23.5q0 -7 -8 -14l-29 -19q-8 -5 -10 -5q-5 0 -12 8zM269 439q-54 0 -83.5 -24t-29.5 -56q0 -71 126 -83h7q54 0 82.5 23.5t28.5 55.5q0 14 -6 34q-16 19 -51 34.5t-74 15.5z" />
    <glyph glyph-name="dieresis" unicode="&#xa8;" horiz-adv-x="442"
d="M69 633q0 26 18 44.5t44 18.5q27 0 45 -18.5t18 -44.5t-18 -44t-45 -18q-25 0 -43.5 18.5t-18.5 43.5zM255 634q0 26 18 44.5t44 18.5q27 0 45 -18.5t18 -44.5t-18 -44t-45 -18q-25 0 -43.5 18t-18.5 44z" />
    <glyph glyph-name="copyright" unicode="&#xa9;" horiz-adv-x="865"
d="M440 752q157 0 268.5 -112t111.5 -271q0 -157 -112 -268.5t-270 -111.5q-157 0 -269 112t-112 271q0 156 112 268t271 112zM286 634q-75 -44 -116.5 -116t-41.5 -153q0 -127 92 -215.5t216 -88.5q132 0 223.5 97t91.5 219q0 130 -92.5 215.5t-211.5 85.5q-86 0 -161 -44z
M571 561q8 -6 8 -14q0 -2 -2 -6l-29 -50q-4 -6 -11 -6q-5 0 -9 3q-38 28 -86 28q-61 0 -103.5 -43t-42.5 -104t42.5 -103t103.5 -42q50 0 87 28q5 3 9 3q5 0 11 -7l29 -49q2 -6 2 -7q0 -6 -8 -12q-58 -39 -130 -39q-95 0 -162 66.5t-67 161.5t68.5 162.5t163.5 67.5
q67 0 126 -38z" />
    <glyph glyph-name="ordfeminine" unicode="&#xaa;" horiz-adv-x="469"
d="M412 397q0 -5 -1 -6q-6 -2 -7 -2h-59q-10 0 -10 8v47q-44 -62 -107 -62q-76 0 -129.5 53.5t-53.5 129.5t53.5 129.5t129.5 53.5q72 0 108 -71l14 55q0 10 9 10h45q4 0 8 -2v-6v-337zM411 391q1 0 2 1l-2 -2v1zM118 565q0 -46 31.5 -77.5t77.5 -31.5q47 0 78 31t31 78v4
q-2 44 -33.5 74.5t-75.5 30.5q-46 0 -77.5 -31.5t-31.5 -77.5z" />
    <glyph glyph-name="guillemotleft" unicode="&#xab;" horiz-adv-x="689"
d="M71 264q-5 5 -5 15q0 7 6 13l261 260q5 5 16 5q9 0 16 -6l26 -28q7 -6 7 -14q0 -12 -6 -16l-214 -216l214 -215q6 -5 6 -16q0 -9 -7 -15l-28 -29q-8 -6 -14 -6q-11 0 -33 22q-81 80 -245 246zM299 264q-5 5 -5 15q0 7 6 13l261 260q5 5 16 5q9 0 16 -6l26 -28q7 -6 7 -14
q0 -12 -6 -16l-214 -216l214 -215q6 -5 6 -16q0 -9 -7 -15l-28 -29q-8 -6 -14 -6q-11 0 -33 22q-81 80 -245 246z" />
    <glyph glyph-name="logicalnot" unicode="&#xac;" horiz-adv-x="581"
d="M484 382v-196q0 -6 -5 -11t-12 -5h-44q-8 0 -13.5 4.5t-5.5 11.5v133h-316q-17 0 -17 17v46q0 16 17 16h379q17 0 17 -16z" />
    <glyph glyph-name="uni00AD" unicode="&#xad;" horiz-adv-x="528"
d="M109 319h318q22 0 22 -22v-42q0 -9 -6.5 -16t-15.5 -7h-318q-24 0 -24 23v42q0 22 24 22z" />
    <glyph glyph-name="registered" unicode="&#xae;" horiz-adv-x="878"
d="M440 752q157 0 268.5 -112t111.5 -271q0 -157 -112 -268.5t-270 -111.5q-157 0 -269 112t-112 271q0 156 112 268t271 112zM286 634q-75 -44 -116.5 -116t-41.5 -153q0 -127 92 -215.5t216 -88.5q132 0 223.5 97t91.5 219q0 130 -92.5 215.5t-211.5 85.5q-86 0 -161 -44z
M279 172v395q0 15 13 15h174q57 -3 95.5 -42.5t38.5 -95.5q0 -78 -67 -120l72 -150q0 -1 1 -2v-2q0 -10 -13 -10h-62q-7 0 -11 9l-63 138h-99v-135q0 -12 -13 -12h-53q-13 0 -13 12zM522 445q0 24 -16.5 42t-41.5 18h-106v-120h106q25 0 41.5 17t16.5 43z" />
    <glyph glyph-name="macron" unicode="&#xaf;" horiz-adv-x="487"
d="M50 617v39q0 17 18 17h350q18 0 18 -17v-39q0 -7 -4.5 -13t-13.5 -6h-350q-18 0 -18 19z" />
    <glyph glyph-name="degree" unicode="&#xb0;" horiz-adv-x="325"
d="M163 630q46 0 78 -32t32 -78q0 -47 -32 -78.5t-78 -31.5t-78 31.5t-32 78.5q0 46 31.5 78t78.5 32zM163 582q-27 0 -44.5 -18t-17.5 -44t17.5 -44t44.5 -18q26 0 43.5 18t17.5 44t-18 44t-43 18z" />
    <glyph glyph-name="plusminus" unicode="&#xb1;" horiz-adv-x="497"
d="M291 275v-117q0 -22 -22 -22h-41q-10 0 -17 6t-7 16v117h-116q-23 0 -23 23v42q0 22 23 22h116v117q0 23 24 23h41q22 0 22 -23v-117h117q22 0 22 -22v-42q0 -9 -6.5 -16t-15.5 -7h-117zM88 87h320q22 0 22 -22v-42q0 -9 -6.5 -16t-15.5 -7h-320q-23 0 -23 23v42
q0 22 23 22z" />
    <glyph glyph-name="twosuperior" unicode="&#xb2;" horiz-adv-x="368"
d="M189 677q-38 0 -56 -31l-12 -20q-3 -6 -10 -6q-4 0 -7 2l-43 25q-6 4 -6 10q0 5 1 7l12 19q18 31 50 48t67 17q61 0 103.5 -34t42.5 -93q0 -55 -42 -93l-123 -125h152q13 0 13 -13v-46q0 -13 -13 -13h-253q-15 0 -15 13v42l1 2l2 4l179 184q20 21 20 43q0 23 -19 40.5
t-44 17.5z" />
    <glyph glyph-name="threesuperior" unicode="&#xb3;" horiz-adv-x="333"
d="M153 400q26 0 45 17.5t19 44.5q0 26 -19 44t-47 18q-13 0 -13 12v44q0 13 14 13q18 0 30 13.5t12 28.5q0 17 -11.5 30t-30.5 13q-36 0 -49 -42q-1 -7 -9 -7q-3 0 -5 1l-38 18q-8 4 -8 10q0 2 2 10q12 35 42 57.5t67 22.5q44 0 77.5 -32.5t33.5 -76.5q0 -41 -31 -72
q60 -42 60 -106q0 -55 -40 -93.5t-97 -38.5q-54 0 -92 32t-47 82q-1 2 -1 6q0 9 10 12l39 9q1 0 4 0.5t4 0.5q3 0 5 -0.5t3 -2t1.5 -3t1.5 -5.5l2 -8q21 -52 66 -52z" />
    <glyph glyph-name="acute" unicode="&#xb4;"
d="M206 713l-45 -105q-10 -21 -27 -21h-36q-26 0 -11 32l44 102q8 21 27 21h40q22 0 8 -29z" />
    <glyph glyph-name="mu" unicode="&#xb5;" horiz-adv-x="584"
d="M290 76h4q49 0 88 35.5t42 84.5v274q0 22 22 22h41q24 0 24 -22v-446q0 -10 -6.5 -16t-16.5 -6h-37q-21 0 -23 22l-4 45q-61 -74 -134 -74q-69 0 -123 63v-229q0 -10 -6.5 -16t-16.5 -6h-41q-22 0 -22 22v640q0 22 22 22h42q22 0 22 -22v-274q3 -49 39 -83.5t84 -35.5z
" />
    <glyph glyph-name="paragraph" unicode="&#xb6;" horiz-adv-x="668"
d="M533 741h92q16 0 16 -16v-53q0 -17 -16 -17h-82v-639q0 -16 -18 -16h-52q-17 0 -17 16v639h-120v-639q0 -16 -17 -16h-53q-17 0 -17 16v325q-88 0 -151 58.5t-63 140.5q0 83 58.5 142t141.5 59h229l2 1h2h5h52q4 0 8 -1z" />
    <glyph glyph-name="periodcentered" unicode="&#xb7;" horiz-adv-x="227"
d="M55 276q0 26 18 44.5t44 18.5q27 0 45 -18.5t18 -44.5t-18 -44t-45 -18q-25 0 -43.5 18t-18.5 44z" />
    <glyph glyph-name="cedilla" unicode="&#xb8;" horiz-adv-x="278"
d="M145 -3q0 -25 23 -42l4 -3q20 -12 32 -21.5t22.5 -28.5t10.5 -43q-5 -68 -120 -101q-2 -1 -7 -1q-13 0 -21 15.5t-8 30.5q0 11 10 14q33 7 53 20.5t20 28.5q0 16 -10.5 25.5t-32.5 21.5q-48 25 -48 72v17q0 9 3 11t12 2h43q14 0 14 -18z" />
    <glyph glyph-name="onesuperior" unicode="&#xb9;" horiz-adv-x="203"
d="M28 658v44q0 10 12 17l44 22q4 2 9 2h50q13 0 13 -12v-384q0 -12 -12 -12h-51q-12 0 -12 11v319l-37 -18q-1 -2 -4 -2q-1 0 -1 -1q-11 0 -11 14z" />
    <glyph glyph-name="ordmasculine" unicode="&#xba;" horiz-adv-x="487"
d="M59 568q0 76 53.5 129.5t129.5 53.5t129.5 -53.5t53.5 -129.5t-53.5 -129.5t-129.5 -53.5t-129.5 53.5t-53.5 129.5zM132 568q0 -45 32 -77t77 -32t76.5 32t31.5 77q0 46 -31 77.5t-77 31.5q-45 0 -77 -31.5t-32 -77.5z" />
    <glyph glyph-name="guillemotright" unicode="&#xbb;" horiz-adv-x="691"
d="M625 264q-46 -47 -129 -130l-116 -116q-24 -22 -33 -22q-7 0 -13 6l-29 29q-6 6 -6 15q0 11 5 16l215 215l-215 216q-5 4 -5 16q0 8 6 14l27 28q6 6 15 6q11 0 16 -5l261 -260q7 -6 7 -13q0 -11 -6 -15zM397 264q-46 -47 -129 -130l-116 -116q-24 -22 -33 -22q-7 0 -13 6
l-29 29q-6 6 -6 15q0 11 5 16l215 215l-215 216q-5 4 -5 16q0 8 6 14l27 28q6 6 15 6q11 0 16 -5l261 -260q7 -6 7 -13q0 -11 -6 -15z" />
    <glyph glyph-name="onequarter" unicode="&#xbc;" horiz-adv-x="742"
d="M550 60h-173q-16 0 -16 17q0 5 5 13l185 317q6 8 11 8h52q11 0 11 -13v-265h41q15 0 15 -12v-52q0 -5 -4.5 -9t-10.5 -4h-41v-49q0 -12 -13 -12h-50q-12 0 -12 12v49zM472 137h78v135zM55 658v44q0 10 12 17l44 22q4 2 9 2h50q13 0 13 -12v-384q0 -12 -12 -12h-51
q-12 0 -12 11v319l-37 -18q-1 -2 -4 -2q-1 0 -1 -1q-11 0 -11 14zM98 22l382 698q9 22 32 22h24q25 0 25 -15q0 -6 -1 -7l-382 -698q-6 -13 -11 -17.5t-15 -4.5h-35q-21 0 -21 13z" />
    <glyph glyph-name="onehalf" unicode="&#xbd;" horiz-adv-x="742"
d="M98 22l382 698q9 22 32 22h24q25 0 25 -15q0 -6 -1 -7l-382 -698q-6 -13 -11 -17.5t-15 -4.5h-35q-21 0 -21 13zM55 658v44q0 10 12 17l44 22q4 2 9 2h50q13 0 13 -12v-384q0 -12 -12 -12h-51q-12 0 -12 11v319l-37 -18q-1 -2 -4 -2q-1 0 -1 -1q-11 0 -11 14zM558 346
q-38 0 -57 -32l-11 -19q-4 -7 -10 -7q-3 0 -7 2l-44 26q-6 3 -6 9q0 3 2 7l11 20q18 31 50.5 48t67.5 17q60 0 102.5 -34.5t42.5 -92.5q0 -57 -41 -94l-124 -124h152q13 0 13 -13v-46q0 -14 -13 -14h-253q-5 0 -9.5 4t-4.5 10v41q0 1 2 7l179 184q20 20 20 43t-18.5 40.5
t-43.5 17.5z" />
    <glyph glyph-name="threequarters" unicode="&#xbe;" horiz-adv-x="766"
d="M169 22l382 698q9 22 32 22h24q25 0 25 -15q0 -6 -1 -7l-382 -698q-6 -13 -11 -17.5t-15 -4.5h-35q-21 0 -21 13zM148 411q27 0 45.5 17.5t18.5 44.5q0 26 -18.5 44t-46.5 18q-13 0 -13 12v44q0 13 13 13q18 0 30.5 13.5t12.5 28.5q0 17 -12 30t-31 13q-35 0 -48 -42
q-3 -7 -10 -7q-3 0 -4 1l-38 18q-9 4 -9 10q0 2 1 6l2 4q11 35 41 57.5t68 22.5q44 0 77 -32t33 -77q0 -41 -31 -72q60 -42 60 -106q0 -55 -40 -93.5t-97 -38.5q-54 0 -91.5 32t-47.5 82v6q0 9 9 12l39 9q1 0 4 0.5t5 0.5q3 0 4.5 -0.5t3 -2t1.5 -3t1 -6t2 -7.5
q23 -52 66 -52zM578 61h-173q-16 0 -16 17q0 5 5 13l185 317q6 8 11 8h52q11 0 11 -13v-265h41q15 0 15 -12v-52q0 -5 -4.5 -9t-10.5 -4h-41v-49q0 -12 -13 -12h-50q-12 0 -12 12v49zM500 138h78v135z" />
    <glyph glyph-name="questiondown" unicode="&#xbf;" horiz-adv-x="512"
d="M245 227v72q0 8 5 13t11 5h54q17 0 17 -18v-82q0 -33 -16.5 -61t-34 -42.5t-50.5 -38.5q-27 -20 -40 -30t-31.5 -29.5t-26.5 -41t-8 -47.5q0 -64 46 -105.5t114 -41.5q59 0 108.5 38.5t49.5 109.5v12q0 17 16 17h53q8 0 12.5 -5t4.5 -11v-8q0 -106 -72 -170t-173 -64
q-103 0 -173.5 61.5t-70.5 156.5q0 74 35 122t91 87q26 18 40 29.5t26.5 31t12.5 40.5zM348 442q0 -26 -18 -44.5t-44 -18.5q-27 0 -45 18.5t-18 44.5t18 44t45 18q26 0 44 -18t18 -44z" />
    <glyph glyph-name="Agrave" unicode="&#xc0;" horiz-adv-x="716"
d="M172 162l-56 -142q-9 -20 -28 -20h-43q-21 0 -21 16l2 13q204 489 282 676l8 19q8 18 25 18h29q17 0 25 -18l288 -696q3 -8 3 -12q0 -16 -22 -16h-43q-20 0 -27 19l-58 143h-364zM355 613l-147 -366h293zM304 824l-45 105q-7 15 -7 20q0 9 15 9h40q16 0 27 -21l44 -102
q4 -10 6 -18q0 -14 -17 -14h-36q-17 0 -27 21z" />
    <glyph glyph-name="Aacute" unicode="&#xc1;" horiz-adv-x="716"
d="M172 162l-56 -142q-9 -20 -28 -20h-43q-21 0 -21 16l2 13q204 489 282 676l8 19q8 18 25 18h29q17 0 25 -18l288 -696q3 -8 3 -12q0 -16 -22 -16h-43q-20 0 -27 19l-58 143h-364zM355 613l-147 -366h293zM451 929l-45 -105q-10 -21 -27 -21h-36q-26 0 -11 32l44 102
q8 21 27 21h40q22 0 8 -29z" />
    <glyph glyph-name="Acircumflex" unicode="&#xc2;" horiz-adv-x="716"
d="M172 162l-56 -142q-9 -20 -28 -20h-43q-21 0 -21 16l2 13q204 489 282 676l8 19q8 18 25 18h29q17 0 25 -18l288 -696q3 -8 3 -12q0 -16 -22 -16h-43q-20 0 -27 19l-58 143h-364zM355 613l-147 -366h293zM364 967l131 -131q7 -7 7 -13q0 -5 -7 -12l-23 -21q-7 -7 -12 -7
q-7 0 -12 5l-95 96l-95 -96q-5 -5 -12 -5q-3 0 -12 7l-23 21q-7 7 -7 12q0 2 7 13l131 131q5 5 11 5t11 -5z" />
    <glyph glyph-name="Atilde" unicode="&#xc3;" horiz-adv-x="716"
d="M172 162l-56 -142q-9 -20 -28 -20h-43q-21 0 -21 16l2 13q204 489 282 676l8 19q8 18 25 18h29q17 0 25 -18l288 -696q3 -8 3 -12q0 -16 -22 -16h-43q-20 0 -27 19l-58 143h-364zM355 613l-147 -366h293zM238 814q-4 -4 -7 -4q-2 0 -10 4q-14 12 -22 20q-4 4 -4 9
q0 6 7 13q39 54 98 54q28 0 60 -22l27 -19q17 -11 34 -11q20 0 36 14q3 3 10 12.5t10 12.5q4 4 8 4q1 0 9 -4q2 -2 10.5 -9.5t11.5 -9.5q4 -5 4 -10q0 -3 -3 -8t-4 -5q-37 -54 -97 -54q-29 0 -61 22l-27 19q-16 11 -34 11q-20 0 -36 -14q-3 -3 -9.5 -12.5t-10.5 -12.5z" />
    <glyph glyph-name="Adieresis" unicode="&#xc4;" horiz-adv-x="716"
d="M172 162l-56 -142q-9 -20 -28 -20h-43q-21 0 -21 16l2 13q204 489 282 676l8 19q8 18 25 18h29q17 0 25 -18l288 -696q3 -8 3 -12q0 -16 -22 -16h-43q-20 0 -27 19l-58 143h-364zM355 613l-147 -366h293zM197 856q0 26 18 44.5t44 18.5q27 0 45 -18.5t18 -44.5t-18 -44
t-45 -18q-25 0 -43.5 18t-18.5 44zM383 857q0 26 18 44.5t44 18.5q27 0 45 -18.5t18 -44.5t-18 -44t-45 -18q-25 0 -43.5 18.5t-18.5 43.5z" />
    <glyph glyph-name="Aring" unicode="&#xc5;" horiz-adv-x="716"
d="M172 162l-56 -142q-9 -20 -28 -20h-43q-21 0 -21 16l2 13q204 489 282 676l8 19q8 18 25 18h29q17 0 25 -18l288 -696q3 -8 3 -12q0 -16 -22 -16h-43q-20 0 -27 19l-58 143h-364zM355 613l-147 -366h293zM357 911q43 0 74.5 -31.5t31.5 -74.5t-31 -73.5t-75 -30.5
q-43 0 -73.5 30.5t-30.5 73.5q0 44 30.5 75t73.5 31zM357 858q-22 0 -37 -15t-15 -38t14.5 -37.5t37.5 -14.5t38 15t15 37q0 23 -15 38t-38 15z" />
    <glyph glyph-name="AE" unicode="&#xc6;" horiz-adv-x="1151"
d="M248 162l-113 -142q-16 -20 -33 -20h-66q-17 0 -17 9q0 4 2 8.5t5 8.5l2 3l565 695q15 18 32 18h476q23 0 23 -23v-41q0 -23 -24 -23h-410v-221h325q22 0 22 -23v-41q0 -23 -22 -23h-325v-260h415q22 0 22 -24v-41q0 -22 -22 -22h-480q-22 0 -22 21v141h-355zM603 600
l-285 -353h285v353z" />
    <glyph glyph-name="Ccedilla" unicode="&#xc7;" horiz-adv-x="705"
d="M653 677q13 -8 13 -17q0 -8 -7 -17l-21 -33q-9 -12 -17 -12q-9 2 -18 8q-81 58 -174 58q-128 0 -213 -87t-85 -208q0 -122 89 -208t207 -86q80 0 157 47q5 2 18.5 12t18.5 10q9 0 17 -12l23 -38q3 -7 3 -14q0 -11 -11 -17q-101 -74 -228 -74q-158 0 -269.5 111.5
t-111.5 269.5t112 270t270 112q125 0 227 -75zM448 -3q0 -25 23 -42l4 -3q20 -12 32 -21.5t22.5 -28.5t10.5 -43q-5 -68 -120 -101q-2 -1 -7 -1q-13 0 -21 15.5t-8 30.5q0 11 10 14q33 7 53 20.5t20 28.5q0 16 -10.5 25.5t-32.5 21.5q-48 25 -48 72v17q0 9 3 11t12 2h43
q14 0 14 -18z" />
    <glyph glyph-name="Egrave" unicode="&#xc8;" horiz-adv-x="642"
d="M103 742h481q22 0 22 -23v-41q0 -23 -23 -23h-416v-221h331q22 0 22 -23v-41q0 -9 -6 -16t-16 -7h-331v-260h420q23 0 23 -24v-41q0 -22 -22 -22h-485q-22 0 -22 21v698q0 23 22 23zM313 825l-45 105q-7 15 -7 20q0 9 15 9h40q16 0 27 -21l44 -102q4 -10 6 -18
q0 -14 -17 -14h-36q-17 0 -27 21z" />
    <glyph glyph-name="Eacute" unicode="&#xc9;" horiz-adv-x="642"
d="M103 742h481q22 0 22 -23v-41q0 -23 -23 -23h-416v-221h331q22 0 22 -23v-41q0 -9 -6 -16t-16 -7h-331v-260h420q23 0 23 -24v-41q0 -22 -22 -22h-485q-22 0 -22 21v698q0 23 22 23zM427 929l-45 -105q-10 -21 -27 -21h-36q-26 0 -11 32l44 102q8 21 27 21h40q22 0 8 -29
z" />
    <glyph glyph-name="Ecircumflex" unicode="&#xca;" horiz-adv-x="642"
d="M103 742h481q22 0 22 -23v-41q0 -23 -23 -23h-416v-221h331q22 0 22 -23v-41q0 -9 -6 -16t-16 -7h-331v-260h420q23 0 23 -24v-41q0 -22 -22 -22h-485q-22 0 -22 21v698q0 23 22 23zM361 977l131 -131q7 -7 7 -13q0 -5 -7 -12l-23 -21q-7 -7 -12 -7q-7 0 -12 5l-95 96
l-95 -96q-5 -5 -12 -5q-3 0 -12 7l-23 21q-7 7 -7 12q0 3 7 13l131 131q5 5 11 5t11 -5z" />
    <glyph glyph-name="Edieresis" unicode="&#xcb;" horiz-adv-x="642"
d="M103 742h481q22 0 22 -23v-41q0 -23 -23 -23h-416v-221h331q22 0 22 -23v-41q0 -9 -6 -16t-16 -7h-331v-260h420q23 0 23 -24v-41q0 -22 -22 -22h-485q-22 0 -22 21v698q0 23 22 23zM218 869q0 26 18 44.5t44 18.5q27 0 45 -18.5t18 -44.5t-18 -44t-45 -18
q-26 0 -44 18.5t-18 43.5zM404 870q0 26 18 44.5t44 18.5q27 0 45 -18.5t18 -44.5t-18 -44t-45 -18q-26 0 -44 18t-18 44z" />
    <glyph glyph-name="Igrave" unicode="&#xcc;"
d="M167 720v-698q0 -22 -22 -22h-42q-22 0 -22 22v698q0 22 22 22h42q22 0 22 -22zM79 824l-45 105q-7 15 -7 20q0 9 15 9h40q16 0 27 -21l44 -102q4 -10 6 -18q0 -14 -17 -14h-36q-17 0 -27 21z" />
    <glyph glyph-name="Iacute" unicode="&#xcd;"
d="M167 720v-698q0 -22 -22 -22h-42q-22 0 -22 22v698q0 22 22 22h42q22 0 22 -22zM203 930l-45 -105q-10 -21 -27 -21h-36q-26 0 -11 32l44 102q8 21 27 21h40q22 0 8 -29z" />
    <glyph glyph-name="Icircumflex" unicode="&#xce;"
d="M167 720v-698q0 -22 -22 -22h-42q-22 0 -22 22v698q0 22 22 22h42q22 0 22 -22zM133 964l131 -131q7 -7 7 -13q0 -5 -7 -12l-23 -21q-7 -7 -12 -7q-7 0 -12 5l-95 96l-95 -96q-5 -5 -12 -5q-3 0 -12 7l-23 21q-7 7 -7 12q0 2 7 13l131 131q5 5 11 5t11 -5z" />
    <glyph glyph-name="Idieresis" unicode="&#xcf;" horiz-adv-x="258"
d="M167 720v-698q0 -22 -22 -22h-42q-22 0 -22 22v698q0 22 22 22h42q22 0 22 -22zM-34 873q0 26 18 44.5t44 18.5q27 0 45 -18.5t18 -44.5t-18 -44t-45 -18q-26 0 -44 18.5t-18 43.5zM152 874q0 26 18 44.5t44 18.5q27 0 45 -18.5t18 -44.5t-18 -44t-45 -18q-26 0 -44 18
t-18 44z" />
    <glyph glyph-name="Eth" unicode="&#xd0;" horiz-adv-x="740"
d="M81 410v308q0 24 23 24h233q159 0 266.5 -107.5t107.5 -264.5q0 -154 -109 -262t-265 -108h-233q-23 0 -23 21v302h-55q-15 0 -15 16v58q0 13 15 13h55zM176 95h159q120 0 200 82t80 199q0 120 -80.5 195.5t-197.5 75.5h-161v-552z" />
    <glyph glyph-name="Ntilde" unicode="&#xd1;" horiz-adv-x="791"
d="M689 0h-47q-12 0 -19 9l-456 599v-586q0 -22 -23 -22h-41q-22 0 -22 22v697q0 10 6 16.5t16 6.5h55q12 0 19 -10l449 -584v575q3 19 22 19h41q9 0 16.5 -6.5t7.5 -15.5v-698q0 -22 -24 -22zM269 820q-4 -4 -7 -4q-2 0 -10 4q-14 12 -22 20q-4 4 -4 9q0 6 7 13
q39 54 98 54q28 0 60 -22l27 -19q17 -11 34 -11q20 0 36 14q3 3 10 12.5t10 12.5q4 4 8 4q1 0 9 -4q2 -2 10.5 -9.5t11.5 -9.5q4 -5 4 -10q0 -3 -3 -8t-4 -5q-37 -54 -97 -54q-29 0 -61 22l-27 19q-16 11 -34 11q-20 0 -36 -14q-3 -3 -9.5 -12.5t-10.5 -12.5z" />
    <glyph glyph-name="Ograve" unicode="&#xd2;" horiz-adv-x="853"
d="M426 752q158 0 270 -112t112 -271q0 -158 -112 -269t-271 -111q-158 0 -269.5 111.5t-111.5 269.5t112 270t270 112zM131 371q0 -123 86 -209.5t209 -86.5q122 0 208 86.5t86 209.5q0 121 -86 207.5t-208 86.5q-123 0 -209 -86t-86 -208zM385 824l-45 105q-7 15 -7 20
q0 9 15 9h40q16 0 27 -21l44 -102q4 -10 6 -18q0 -14 -17 -14h-36q-17 0 -27 21z" />
    <glyph glyph-name="Oacute" unicode="&#xd3;" horiz-adv-x="853"
d="M426 752q158 0 270 -112t112 -271q0 -158 -112 -269t-271 -111q-158 0 -269.5 111.5t-111.5 269.5t112 270t270 112zM131 371q0 -123 86 -209.5t209 -86.5q122 0 208 86.5t86 209.5q0 121 -86 207.5t-208 86.5q-123 0 -209 -86t-86 -208zM517 930l-45 -105
q-10 -21 -27 -21h-36q-26 0 -11 32l44 102q8 21 27 21h40q22 0 8 -29z" />
    <glyph glyph-name="Ocircumflex" unicode="&#xd4;" horiz-adv-x="853"
d="M426 752q158 0 270 -112t112 -271q0 -158 -112 -269t-271 -111q-158 0 -269.5 111.5t-111.5 269.5t112 270t270 112zM131 371q0 -123 86 -209.5t209 -86.5q122 0 208 86.5t86 209.5q0 121 -86 207.5t-208 86.5q-123 0 -209 -86t-86 -208zM442 972l131 -131q7 -7 7 -13
q0 -5 -7 -12l-23 -21q-7 -7 -12 -7q-7 0 -12 5l-95 96l-95 -96q-5 -5 -12 -5q-3 0 -12 7l-23 21q-7 7 -7 12q0 2 7 13l131 131q5 5 11 5t11 -5z" />
    <glyph glyph-name="Otilde" unicode="&#xd5;" horiz-adv-x="853"
d="M426 752q158 0 270 -112t112 -271q0 -158 -112 -269t-271 -111q-158 0 -269.5 111.5t-111.5 269.5t112 270t270 112zM131 371q0 -123 86 -209.5t209 -86.5q122 0 208 86.5t86 209.5q0 121 -86 207.5t-208 86.5q-123 0 -209 -86t-86 -208zM303 824q-4 -4 -7 -4q-2 0 -10 4
q-14 12 -22 20q-4 4 -4 9q0 6 7 13q39 54 98 54q28 0 60 -22l27 -19q17 -11 34 -11q20 0 36 14q3 3 10 12.5t10 12.5q4 4 8 4q1 0 9 -4q2 -2 10.5 -9.5t11.5 -9.5q4 -5 4 -10q0 -3 -3 -8t-4 -5q-37 -54 -97 -54q-29 0 -61 22l-27 19q-16 11 -34 11q-20 0 -36 -14
q-3 -3 -9.5 -12.5t-10.5 -12.5z" />
    <glyph glyph-name="Odieresis" unicode="&#xd6;" horiz-adv-x="853"
d="M426 752q158 0 270 -112t112 -271q0 -158 -112 -269t-271 -111q-158 0 -269.5 111.5t-111.5 269.5t112 270t270 112zM131 371q0 -123 86 -209.5t209 -86.5q122 0 208 86.5t86 209.5q0 121 -86 207.5t-208 86.5q-123 0 -209 -86t-86 -208zM271 875q0 26 18 44.5t44 18.5
q27 0 45 -18.5t18 -44.5t-18 -44t-45 -18q-25 0 -43.5 18.5t-18.5 43.5zM457 876q0 26 18 44.5t44 18.5q27 0 45 -18.5t18 -44.5t-18 -44t-45 -18q-25 0 -43.5 18t-18.5 44z" />
    <glyph glyph-name="multiply" unicode="&#xd7;" horiz-adv-x="446"
d="M378 404l-85 -85l85 -86q7 -6 7 -15t-7 -16l-29 -28q-8 -8 -17 -8t-15 6l-86 85l-84 -84q-8 -8 -16 -8q-7 0 -15 8l-29 29q-9 9 -9 17q0 7 8 15l84 85l-84 84q-8 8 -8 16t9 17l29 29q7 7 15 7q9 0 16 -7l84 -85l86 85q6 6 15 6q8 0 17 -7l29 -29q7 -7 7 -15q0 -9 -7 -16z
" />
    <glyph glyph-name="Oslash" unicode="&#xd8;" horiz-adv-x="851"
d="M426 752q57 0 108 -15l45 103q10 22 31 22h45q22 0 22 -12q0 -6 -4 -14q-3 -6 -27 -61t-31 -73q88 -50 140.5 -138.5t52.5 -194.5q0 -158 -112 -269t-271 -111q-52 0 -103 14l-50 -103q-8 -17 -25 -17h-52q-17 0 -17 11q0 2 2 10l61 132q-90 50 -143.5 139t-53.5 195
q0 158 112 270t270 112zM131 371q0 -123 86 -209.5t209 -86.5q122 0 208 86.5t86 209.5q0 121 -86 207.5t-208 86.5q-123 0 -209 -86t-86 -208z" />
    <glyph glyph-name="Ugrave" unicode="&#xd9;" horiz-adv-x="752"
d="M158 720v-417q0 -99 60 -165t158 -66q102 0 160.5 65.5t58.5 165.5v417q0 9 6.5 15.5t16.5 6.5h38q10 0 18 -6.5t8 -15.5v-427q0 -135 -88.5 -220t-217.5 -85q-126 0 -216 89.5t-90 215.5v427q0 8 6 15t15 7h44q8 0 15.5 -6.5t7.5 -15.5zM347 823l-45 105q-7 15 -7 20
q0 9 15 9h40q16 0 27 -21l44 -102q4 -10 6 -18q0 -14 -17 -14h-36q-17 0 -27 21z" />
    <glyph glyph-name="Uacute" unicode="&#xda;" horiz-adv-x="752"
d="M158 720v-417q0 -99 60 -165t158 -66q102 0 160.5 65.5t58.5 165.5v417q0 9 6.5 15.5t16.5 6.5h38q10 0 18 -6.5t8 -15.5v-427q0 -135 -88.5 -220t-217.5 -85q-126 0 -216 89.5t-90 215.5v427q0 8 6 15t15 7h44q8 0 15.5 -6.5t7.5 -15.5zM456 930l-45 -105
q-10 -21 -27 -21h-36q-26 0 -11 32l44 102q8 21 27 21h40q22 0 8 -29z" />
    <glyph glyph-name="Ucircumflex" unicode="&#xdb;" horiz-adv-x="752"
d="M158 720v-417q0 -99 60 -165t158 -66q102 0 160.5 65.5t58.5 165.5v417q0 9 6.5 15.5t16.5 6.5h38q10 0 18 -6.5t8 -15.5v-427q0 -135 -88.5 -220t-217.5 -85q-126 0 -216 89.5t-90 215.5v427q0 8 6 15t15 7h44q8 0 15.5 -6.5t7.5 -15.5zM386 991l131 -131q7 -7 7 -13
q0 -5 -7 -12l-23 -21q-7 -7 -12 -7q-7 0 -12 5l-95 96l-95 -96q-5 -5 -12 -5q-3 0 -12 7l-23 21q-7 7 -7 12q0 2 7 13l131 131q5 5 11 5t11 -5z" />
    <glyph glyph-name="Udieresis" unicode="&#xdc;" horiz-adv-x="752"
d="M158 720v-417q0 -99 60 -165t158 -66q102 0 160.5 65.5t58.5 165.5v417q0 9 6.5 15.5t16.5 6.5h38q10 0 18 -6.5t8 -15.5v-427q0 -135 -88.5 -220t-217.5 -85q-126 0 -216 89.5t-90 215.5v427q0 8 6 15t15 7h44q8 0 15.5 -6.5t7.5 -15.5zM221 875q0 26 18 44.5t44 18.5
q27 0 45 -18.5t18 -44.5t-18 -44t-45 -18q-25 0 -43.5 18.5t-18.5 43.5zM407 876q0 26 18 44.5t44 18.5q27 0 45 -18.5t18 -44.5t-18 -44t-45 -18q-25 0 -43.5 18t-18.5 44z" />
    <glyph glyph-name="Yacute" unicode="&#xdd;" horiz-adv-x="659"
d="M286 324l-242 393q-6 9 -6 15q0 10 15 10h65q10 -1 13.5 -4t12.5 -17l185 -308l189 312q10 16 23 17h68q12 0 12 -9q0 -7 -5 -13q-41 -66 -121.5 -196.5t-121.5 -196.5v-304q0 -23 -23 -23h-43q-21 0 -21 23v301zM420 929l-45 -105q-10 -21 -27 -21h-36q-26 0 -11 32
l44 102q8 21 27 21h40q22 0 8 -29z" />
    <glyph glyph-name="Thorn" unicode="&#xde;" horiz-adv-x="627"
d="M167 721v-114h185q97 0 164 -68.5t67 -163.5q0 -93 -66 -161.5t-162 -68.5h-188v-123q0 -22 -22 -22h-42q-22 0 -22 22v699q0 22 22 22h42q22 0 22 -22zM497 376q0 59 -42.5 102.5t-102.5 43.5h-185v-292h185q59 0 102 43.5t43 102.5z" />
    <glyph glyph-name="germandbls" unicode="&#xdf;" horiz-adv-x="576"
d="M281 72q68 2 110.5 41.5t42.5 106.5q0 73 -44 111.5t-120 38.5q-17 0 -17 15v53q0 16 16 16q49 0 81 30.5t32 74.5q0 48 -27.5 80t-82.5 32q-47 0 -76 -27t-29 -70v-745q0 -22 -23 -22h-41q-23 0 -23 22v742q0 83 57.5 131t137.5 48t136.5 -54t56.5 -134q0 -87 -69 -140
q122 -67 122 -203q0 -101 -68.5 -166.5t-172.5 -66.5h-2q-10 0 -15 14v50q0 22 18 22z" />
    <glyph glyph-name="agrave" unicode="&#xe0;" horiz-adv-x="594"
d="M430 25v47q-26 -39 -60.5 -60.5t-90.5 -21.5q-104 0 -171.5 73t-67.5 181t67.5 181.5t171.5 73.5q56 0 90 -22t61 -61l4 50q2 25 24 25h29q11 0 18.5 -6.5t7.5 -18.5v-444q0 -10 -7.5 -16t-18.5 -6h-32q-25 0 -25 25zM123 244q0 -72 43.5 -121.5t112.5 -49.5
q70 0 110.5 47.5t40.5 121.5t-40 123.5t-111 49.5q-70 0 -113 -49.5t-43 -121.5zM250 608l-45 105q-7 15 -7 20q0 9 15 9h40q16 0 27 -21l44 -102q4 -10 6 -18q0 -14 -17 -14h-36q-17 0 -27 21z" />
    <glyph glyph-name="aacute" unicode="&#xe1;" horiz-adv-x="594"
d="M430 25v47q-26 -39 -60.5 -60.5t-90.5 -21.5q-104 0 -171.5 73t-67.5 181t67.5 181.5t171.5 73.5q56 0 90 -22t61 -61l4 50q2 25 24 25h29q11 0 18.5 -6.5t7.5 -18.5v-444q0 -10 -7.5 -16t-18.5 -6h-32q-25 0 -25 25zM123 244q0 -72 43.5 -121.5t112.5 -49.5
q70 0 110.5 47.5t40.5 121.5t-40 123.5t-111 49.5q-70 0 -113 -49.5t-43 -121.5zM359 713l-45 -105q-10 -21 -27 -21h-36q-26 0 -11 32l44 102q8 21 27 21h40q22 0 8 -29z" />
    <glyph glyph-name="acircumflex" unicode="&#xe2;" horiz-adv-x="594"
d="M430 25v47q-26 -39 -60.5 -60.5t-90.5 -21.5q-104 0 -171.5 73t-67.5 181t67.5 181.5t171.5 73.5q56 0 90 -22t61 -61l4 50q2 25 24 25h29q11 0 18.5 -6.5t7.5 -18.5v-444q0 -10 -7.5 -16t-18.5 -6h-32q-25 0 -25 25zM123 244q0 -72 43.5 -121.5t112.5 -49.5
q70 0 110.5 47.5t40.5 121.5t-40 123.5t-111 49.5q-70 0 -113 -49.5t-43 -121.5zM292 760l131 -131q7 -7 7 -13q0 -5 -7 -12l-23 -21q-7 -7 -12 -7q-7 0 -12 5l-95 96l-95 -96q-5 -5 -12 -5q-3 0 -12 7l-23 21q-7 7 -7 12q0 2 7 13l131 131q5 5 11 5t11 -5z" />
    <glyph glyph-name="atilde" unicode="&#xe3;" horiz-adv-x="594"
d="M430 25v47q-26 -39 -60.5 -60.5t-90.5 -21.5q-104 0 -171.5 73t-67.5 181t67.5 181.5t171.5 73.5q56 0 90 -22t61 -61l4 50q2 25 24 25h29q11 0 18.5 -6.5t7.5 -18.5v-444q0 -10 -7.5 -16t-18.5 -6h-32q-25 0 -25 25zM123 244q0 -72 43.5 -121.5t112.5 -49.5
q70 0 110.5 47.5t40.5 121.5t-40 123.5t-111 49.5q-70 0 -113 -49.5t-43 -121.5zM163 580q-4 -4 -7 -4q-2 0 -10 4q-14 12 -22 20q-4 4 -4 9q0 6 7 13q39 54 98 54q28 0 60 -22l27 -19q17 -11 34 -11q20 0 36 14q3 3 10 12.5t10 12.5q4 4 8 4q1 0 9 -4q2 -2 10.5 -9.5
t11.5 -9.5q4 -5 4 -10q0 -3 -3 -8t-4 -5q-37 -54 -97 -54q-29 0 -61 22l-27 19q-16 11 -34 11q-20 0 -36 -14q-3 -3 -9.5 -12.5t-10.5 -12.5z" />
    <glyph glyph-name="adieresis" unicode="&#xe4;" horiz-adv-x="594"
d="M430 25v47q-26 -39 -60.5 -60.5t-90.5 -21.5q-104 0 -171.5 73t-67.5 181t67.5 181.5t171.5 73.5q56 0 90 -22t61 -61l4 50q2 25 24 25h29q11 0 18.5 -6.5t7.5 -18.5v-444q0 -10 -7.5 -16t-18.5 -6h-32q-25 0 -25 25zM123 244q0 -72 43.5 -121.5t112.5 -49.5
q70 0 110.5 47.5t40.5 121.5t-40 123.5t-111 49.5q-70 0 -113 -49.5t-43 -121.5zM122 633q0 26 18 44.5t44 18.5q27 0 45 -18.5t18 -44.5t-18 -44t-45 -18q-26 0 -44 18.5t-18 43.5zM308 634q0 26 18 44.5t44 18.5q27 0 45 -18.5t18 -44.5t-18 -44t-45 -18q-26 0 -44 18
t-18 44z" />
    <glyph glyph-name="aring" unicode="&#xe5;" horiz-adv-x="594"
d="M430 25v47q-26 -39 -60.5 -60.5t-90.5 -21.5q-104 0 -171.5 73t-67.5 181t67.5 181.5t171.5 73.5q56 0 90 -22t61 -61l4 50q2 25 24 25h29q11 0 18.5 -6.5t7.5 -18.5v-444q0 -10 -7.5 -16t-18.5 -6h-32q-25 0 -25 25zM123 244q0 -72 43.5 -121.5t112.5 -49.5
q70 0 110.5 47.5t40.5 121.5t-40 123.5t-111 49.5q-70 0 -113 -49.5t-43 -121.5zM287 772q43 0 74.5 -31t31.5 -75q0 -43 -31 -73.5t-75 -30.5q-43 0 -73.5 30t-30.5 74t30.5 75t73.5 31zM287 719q-22 0 -37 -15t-15 -38q0 -22 14.5 -37t37.5 -15t38 15t15 37t-15 37.5
t-38 15.5z" />
    <glyph glyph-name="ae" unicode="&#xe6;" horiz-adv-x="967"
d="M122 244q0 -72 43.5 -121.5t112.5 -49.5q70 0 110.5 47.5t40.5 121.5t-40 123.5t-111 49.5q-70 0 -113 -49.5t-43 -121.5zM532 275h311q-14 66 -59 105.5t-102 39.5q-51 0 -94 -41t-56 -104zM429 25v47q-26 -39 -60.5 -60.5t-90.5 -21.5q-104 0 -171.5 73t-67.5 181
t67.5 181.5t171.5 73.5q56 0 90 -22t61 -61l4 50q2 25 24 25h29q11 0 18.5 -6.5t7.5 -18.5v-51q67 80 174 80q91 0 158 -65.5t73 -170.5v-9q0 -26 -14.5 -32.5t-46.5 -6.5h-321q12 -65 56.5 -105t98.5 -40q61 0 113 43q19 14 22 14q5 0 10 -6l22 -29q7 -8 7 -14t-12 -15
q-81 -68 -158 -68q-111 0 -182 87v-56q0 -10 -7.5 -16t-18.5 -6h-32q-25 0 -25 25z" />
    <glyph glyph-name="ccedilla" unicode="&#xe7;" horiz-adv-x="511"
d="M295 68q63 0 115 45q9 7 18 7q8 0 11 -6l29 -41q3 -5 3 -9q0 -9 -17 -20q-79 -56 -159 -56q-107 0 -181.5 75t-74.5 181q0 107 75 182t181 75q81 0 154 -52q16 -11 16 -20q0 -8 -3 -11l-27 -43v1q-5 -6 -13 -6q-6 0 -16 8q-56 43 -111 43q-72 0 -124 -52.5t-52 -124.5
t52 -124t124 -52zM316 -3q0 -25 23 -42l4 -3q20 -12 32 -21.5t22.5 -28.5t10.5 -43q-5 -68 -120 -101q-2 -1 -7 -1q-13 0 -21 15.5t-8 30.5q0 11 10 14q33 7 53 20.5t20 28.5q0 16 -10.5 25.5t-32.5 21.5q-48 25 -48 72v17q0 9 3 11t12 2h43q14 0 14 -18z" />
    <glyph glyph-name="egrave" unicode="&#xe8;" horiz-adv-x="532"
d="M280 -12q-98 0 -167 74.5t-69 181.5t69 182t167 75q92 0 158 -69.5t66 -166.5v-12q0 -27 -16.5 -36.5t-48.5 -9.5h-307q9 -60 50.5 -97.5t97.5 -37.5q65 0 115 42q7 7 18 7q6 0 11 -6l28 -42q4 -4 4 -9q-1 -9 -17 -20q-84 -56 -159 -56zM136 281h283q-10 57 -50.5 96.5
t-90.5 39.5t-89.5 -39t-52.5 -97zM240 608l-45 105q-7 15 -7 20q0 9 15 9h40q16 0 27 -21l44 -102q4 -10 6 -18q0 -14 -17 -14h-36q-17 0 -27 21z" />
    <glyph glyph-name="eacute" unicode="&#xe9;" horiz-adv-x="532"
d="M280 -12q-98 0 -167 74.5t-69 181.5t69 182t167 75q92 0 158 -69.5t66 -166.5v-12q0 -27 -16.5 -36.5t-48.5 -9.5h-307q9 -60 50.5 -97.5t97.5 -37.5q65 0 115 42q7 7 18 7q6 0 11 -6l28 -42q4 -4 4 -9q-1 -9 -17 -20q-84 -56 -159 -56zM136 281h283q-10 57 -50.5 96.5
t-90.5 39.5t-89.5 -39t-52.5 -97zM374 713l-45 -105q-10 -21 -27 -21h-36q-26 0 -11 32l44 102q8 21 27 21h40q22 0 8 -29z" />
    <glyph glyph-name="ecircumflex" unicode="&#xea;" horiz-adv-x="532"
d="M280 -12q-98 0 -167 74.5t-69 181.5t69 182t167 75q92 0 158 -69.5t66 -166.5v-12q0 -27 -16.5 -36.5t-48.5 -9.5h-307q9 -60 50.5 -97.5t97.5 -37.5q65 0 115 42q7 7 18 7q6 0 11 -6l28 -42q4 -4 4 -9q-1 -9 -17 -20q-84 -56 -159 -56zM136 281h283q-10 57 -50.5 96.5
t-90.5 39.5t-89.5 -39t-52.5 -97zM298 760l131 -131q7 -7 7 -13q0 -5 -7 -12l-23 -21q-7 -7 -12 -7q-7 0 -12 5l-95 96l-95 -96q-5 -5 -12 -5q-3 0 -12 7l-23 21q-7 7 -7 12q0 2 7 13l131 131q5 5 11 5t11 -5z" />
    <glyph glyph-name="edieresis" unicode="&#xeb;" horiz-adv-x="532"
d="M280 -12q-98 0 -167 74.5t-69 181.5t69 182t167 75q92 0 158 -69.5t66 -166.5v-12q0 -27 -16.5 -36.5t-48.5 -9.5h-307q9 -60 50.5 -97.5t97.5 -37.5q65 0 115 42q7 7 18 7q6 0 11 -6l28 -42q4 -4 4 -9q-1 -9 -17 -20q-84 -56 -159 -56zM136 281h283q-10 57 -50.5 96.5
t-90.5 39.5t-89.5 -39t-52.5 -97zM127 633q0 26 18 44.5t44 18.5q27 0 45 -18.5t18 -44.5t-18 -44t-45 -18q-25 0 -43.5 18.5t-18.5 43.5zM313 634q0 26 18 44.5t44 18.5q27 0 45 -18.5t18 -44.5t-18 -44t-45 -18q-25 0 -43.5 18t-18.5 44z" />
    <glyph glyph-name="igrave" unicode="&#xec;"
d="M167 469v-447q0 -22 -22 -22h-41q-23 0 -23 22v447q0 10 6.5 16t15.5 6h41q10 0 16.5 -6.5t6.5 -15.5zM83 608l-45 105q-7 15 -7 20q0 9 15 9h40q16 0 27 -21l44 -102q4 -10 6 -18q0 -14 -17 -14h-36q-17 0 -27 21z" />
    <glyph glyph-name="iacute" unicode="&#xed;"
d="M167 469v-447q0 -22 -22 -22h-41q-23 0 -23 22v447q0 10 6.5 16t15.5 6h41q10 0 16.5 -6.5t6.5 -15.5zM209 713l-45 -105q-10 -21 -27 -21h-36q-26 0 -11 32l44 102q8 21 27 21h40q22 0 8 -29z" />
    <glyph glyph-name="icircumflex" unicode="&#xee;"
d="M167 469v-447q0 -22 -22 -22h-41q-23 0 -23 22v447q0 10 6.5 16t15.5 6h41q10 0 16.5 -6.5t6.5 -15.5zM139 760l131 -131q7 -7 7 -13q0 -5 -7 -12l-23 -21q-7 -7 -12 -7q-7 0 -12 5l-95 96l-95 -96q-5 -5 -12 -5q-3 0 -12 7l-23 21q-7 7 -7 12q0 2 7 13l131 131q5 5 11 5
t11 -5z" />
    <glyph glyph-name="idieresis" unicode="&#xef;"
d="M167 469v-447q0 -22 -22 -22h-41q-23 0 -23 22v447q0 10 6.5 16t15.5 6h41q10 0 16.5 -6.5t6.5 -15.5zM-20 633q0 26 18 44.5t44 18.5q27 0 45 -18.5t18 -44.5t-18 -44t-45 -18q-26 0 -44 18.5t-18 43.5zM166 634q0 26 18 44.5t44 18.5q27 0 45 -18.5t18 -44.5t-18 -44
t-45 -18q-26 0 -44 18t-18 44z" />
    <glyph glyph-name="eth" unicode="&#xf0;" horiz-adv-x="574"
d="M553 245q0 -106 -74.5 -180.5t-180.5 -74.5t-180 74.5t-74 180.5t74 180t180 74q28 0 53 -10q-6 10 -55 96l-46 -27q-6 -3 -9 -3q-9 0 -16 11l-12 23q-4 5 -4 11q0 8 9 13l46 28q-20 33 -44 76q-5 9 -5 17q0 9 19 9h52q21 0 33 -22l20 -36l50 30q4 2 7 2q8 0 15 -10
l12 -23q4 -6 4 -11q0 -8 -7 -13l-50 -30l147 -254q36 -64 36 -131zM465 245q0 70 -48.5 120.5t-118.5 50.5q-69 0 -117 -50.5t-48 -120.5q0 -71 47.5 -121t117.5 -50t118.5 50t48.5 121z" />
    <glyph glyph-name="ntilde" unicode="&#xf1;" horiz-adv-x="591"
d="M164 467l3 -45q24 30 74.5 54t93.5 24q84 0 136 -60t52 -149v-266q0 -12 -7 -18.5t-17 -6.5h-41q-22 0 -22 24v267q0 52 -34 87.5t-89 35.5q-51 0 -98.5 -33t-47.5 -73v-286q0 -22 -22 -22h-41q-23 0 -23 22v445q0 22 22 22h38q21 0 23 -22zM169 588q-4 -4 -7 -4
q-2 0 -10 4q-14 12 -22 20q-4 4 -4 9q0 6 7 13q39 54 98 54q28 0 60 -22l27 -19q17 -11 34 -11q20 0 36 14q3 3 10 12.5t10 12.5q4 4 8 4q1 0 9 -4q2 -1 10.5 -9t11.5 -10q4 -5 4 -10q0 -3 -3 -8t-4 -5q-37 -54 -97 -54q-29 0 -61 22l-27 19q-16 11 -34 11q-20 0 -36 -14
q-3 -3 -9.5 -12.5t-10.5 -12.5z" />
    <glyph glyph-name="ograve" unicode="&#xf2;" horiz-adv-x="610"
d="M44 244q0 107 75 182t181 75t181.5 -75.5t75.5 -181.5t-75 -181t-182 -75q-106 0 -181 75t-75 181zM125 244q0 -72 51.5 -124t123.5 -52t124 52t52 124t-52 124.5t-124 52.5t-123.5 -52.5t-51.5 -124.5zM248 608l-45 105q-7 15 -7 20q0 9 15 9h40q16 0 27 -21l44 -102
q4 -10 6 -18q0 -14 -17 -14h-36q-17 0 -27 21z" />
    <glyph glyph-name="oacute" unicode="&#xf3;" horiz-adv-x="610"
d="M44 244q0 107 75 182t181 75t181.5 -75.5t75.5 -181.5t-75 -181t-182 -75q-106 0 -181 75t-75 181zM125 244q0 -72 51.5 -124t123.5 -52t124 52t52 124t-52 124.5t-124 52.5t-123.5 -52.5t-51.5 -124.5zM373 713l-45 -105q-10 -21 -27 -21h-36q-26 0 -11 32l44 102
q8 21 27 21h40q22 0 8 -29z" />
    <glyph glyph-name="ocircumflex" unicode="&#xf4;" horiz-adv-x="610"
d="M44 244q0 107 75 182t181 75t181.5 -75.5t75.5 -181.5t-75 -181t-182 -75q-106 0 -181 75t-75 181zM125 244q0 -72 51.5 -124t123.5 -52t124 52t52 124t-52 124.5t-124 52.5t-123.5 -52.5t-51.5 -124.5zM308 760l131 -131q7 -7 7 -13q0 -5 -7 -12l-23 -21q-7 -7 -12 -7
q-7 0 -12 5l-95 96l-95 -96q-5 -5 -12 -5q-3 0 -12 7l-23 21q-7 7 -7 12q0 2 7 13l131 131q5 5 11 5t11 -5z" />
    <glyph glyph-name="otilde" unicode="&#xf5;" horiz-adv-x="610"
d="M44 244q0 107 75 182t181 75t181.5 -75.5t75.5 -181.5t-75 -181t-182 -75q-106 0 -181 75t-75 181zM125 244q0 -72 51.5 -124t123.5 -52t124 52t52 124t-52 124.5t-124 52.5t-123.5 -52.5t-51.5 -124.5zM181 590q-4 -4 -7 -4q-2 0 -10 4q-14 12 -22 20q-4 4 -4 9
q0 6 7 13q39 54 98 54q28 0 60 -22l27 -19q17 -11 34 -11q20 0 36 14q3 3 10 12.5t10 12.5q4 4 8 4q1 0 9 -4q2 -1 10.5 -9t11.5 -10q4 -5 4 -10q0 -3 -3 -8t-4 -5q-37 -54 -97 -54q-29 0 -61 22l-27 19q-16 11 -34 11q-20 0 -36 -14q-3 -3 -9.5 -12.5t-10.5 -12.5z" />
    <glyph glyph-name="odieresis" unicode="&#xf6;" horiz-adv-x="610"
d="M44 244q0 107 75 182t181 75t181.5 -75.5t75.5 -181.5t-75 -181t-182 -75q-106 0 -181 75t-75 181zM125 244q0 -72 51.5 -124t123.5 -52t124 52t52 124t-52 124.5t-124 52.5t-123.5 -52.5t-51.5 -124.5zM140 633q0 26 18 44.5t44 18.5q27 0 45 -18.5t18 -44.5t-18 -44
t-45 -18q-26 0 -44 18.5t-18 43.5zM326 634q0 26 18 44.5t44 18.5q27 0 45 -18.5t18 -44.5t-18 -44t-45 -18q-26 0 -44 18t-18 44z" />
    <glyph glyph-name="divide" unicode="&#xf7;" horiz-adv-x="451"
d="M167 440q0 26 18 44.5t44 18.5q27 0 45 -18.5t18 -44.5t-18 -44.5t-45 -18.5q-26 0 -44 18.5t-18 44.5zM167 50q0 26 18 44.5t44 18.5q27 0 45 -18.5t18 -44.5t-18 -44.5t-45 -18.5q-26 0 -44 18.5t-18 44.5zM386 201h-318q-24 0 -24 22v42q0 23 24 23h318q9 0 15.5 -7
t6.5 -16v-42q0 -22 -22 -22z" />
    <glyph glyph-name="oslash" unicode="&#xf8;" horiz-adv-x="610"
d="M44 244q0 107 75 182t181 75q27 0 48 -4l21 50q8 19 27 19h38q19 0 19 -10q0 -4 -3 -12l-30 -73q62 -33 99.5 -93.5t37.5 -133.5q0 -106 -75 -181t-182 -75q-37 0 -75 11l-25 -60q-6 -15 -21 -15h-46q-14 0 -14 10q0 5 2 8l36 89q-52 34 -82.5 90.5t-30.5 122.5zM125 244
q0 -72 51.5 -124t123.5 -52t124 52t52 124t-52 124.5t-124 52.5t-123.5 -52.5t-51.5 -124.5z" />
    <glyph glyph-name="ugrave" unicode="&#xf9;" horiz-adv-x="568"
d="M409 22l-9 45q-60 -78 -135 -78q-85 0 -145 61t-60 147v274q0 20 20 20h44q23 0 23 -25v-270q0 -49 38.5 -85t88.5 -36q49 0 86.5 35t39.5 85v274q0 22 23 22h41q23 0 23 -22v-447q0 -22 -22 -22h-33q-23 0 -23 22zM232 608l-45 105q-7 15 -7 20q0 9 15 9h40q16 0 27 -21
l44 -102q4 -10 6 -18q0 -14 -17 -14h-36q-17 0 -27 21z" />
    <glyph glyph-name="uacute" unicode="&#xfa;" horiz-adv-x="568"
d="M409 22l-9 45q-60 -78 -135 -78q-85 0 -145 61t-60 147v274q0 20 20 20h44q23 0 23 -25v-270q0 -49 38.5 -85t88.5 -36q49 0 86.5 35t39.5 85v274q0 22 23 22h41q23 0 23 -22v-447q0 -22 -22 -22h-33q-23 0 -23 22zM353 713l-45 -105q-10 -21 -27 -21h-36q-26 0 -11 32
l44 102q8 21 27 21h40q22 0 8 -29z" />
    <glyph glyph-name="ucircumflex" unicode="&#xfb;" horiz-adv-x="568"
d="M409 22l-9 45q-60 -78 -135 -78q-85 0 -145 61t-60 147v274q0 20 20 20h44q23 0 23 -25v-270q0 -49 38.5 -85t88.5 -36q49 0 86.5 35t39.5 85v274q0 22 23 22h41q23 0 23 -22v-447q0 -22 -22 -22h-33q-23 0 -23 22zM295 760l131 -131q7 -7 7 -13q0 -5 -7 -12l-23 -21
q-7 -7 -12 -7q-7 0 -12 5l-95 96l-95 -96q-5 -5 -12 -5q-3 0 -12 7l-23 21q-7 7 -7 12q0 2 7 13l131 131q5 5 11 5t11 -5z" />
    <glyph glyph-name="udieresis" unicode="&#xfc;" horiz-adv-x="568"
d="M409 22l-9 45q-60 -78 -135 -78q-85 0 -145 61t-60 147v274q0 20 20 20h44q23 0 23 -25v-270q0 -49 38.5 -85t88.5 -36q49 0 86.5 35t39.5 85v274q0 22 23 22h41q23 0 23 -22v-447q0 -22 -22 -22h-33q-23 0 -23 22zM123 633q0 26 18 44.5t44 18.5q27 0 45 -18.5t18 -44.5
t-18 -44t-45 -18q-25 0 -43.5 18.5t-18.5 43.5zM309 634q0 26 18 44.5t44 18.5q27 0 45 -18.5t18 -44.5t-18 -44t-45 -18q-25 0 -43.5 18t-18.5 44z" />
    <glyph glyph-name="yacute" unicode="&#xfd;" horiz-adv-x="501"
d="M478 446q-46 -109 -131 -318t-125 -304q-8 -17 -27 -17h-40q-23 0 -23 17q0 2 2 10l72 176l-184 446q-4 9 -4 19q0 16 21 16h43q19 0 26 -18q64 -168 143 -362l143 364q8 16 27 16h41q24 0 24 -20q0 -7 -8 -25zM348 713l-45 -105q-10 -21 -27 -21h-36q-26 0 -11 32
l44 102q8 21 27 21h40q22 0 8 -29z" />
    <glyph glyph-name="thorn" unicode="&#xfe;" horiz-adv-x="591"
d="M167 720v-298q56 79 149 79q97 0 163.5 -74t66.5 -181t-66.5 -180.5t-163.5 -73.5t-148 76v-236q0 -25 -29 -25h-29q-13 0 -21 7t-8 18v888q0 22 22 22h42q22 0 22 -22zM312 416q-57 0 -98.5 -45.5t-46.5 -110.5v-30q5 -66 46 -111t99 -45q61 0 102.5 49.5t41.5 120.5
t-42 121.5t-102 50.5z" />
    <glyph glyph-name="ydieresis" unicode="&#xff;" horiz-adv-x="501"
d="M478 446q-46 -109 -131 -318t-125 -304q-8 -17 -27 -17h-40q-23 0 -23 17q0 2 2 10l72 176l-184 446q-4 9 -4 19q0 16 21 16h43q19 0 26 -18q64 -168 143 -362l143 364q8 16 27 16h41q24 0 24 -20q0 -7 -8 -25zM111 633q0 26 18 44.5t44 18.5q27 0 45 -18.5t18 -44.5
t-18 -44t-45 -18q-25 0 -43.5 18.5t-18.5 43.5zM297 634q0 26 18 44.5t44 18.5q27 0 45 -18.5t18 -44.5t-18 -44t-45 -18q-25 0 -43.5 18t-18.5 44z" />
    <glyph glyph-name="Amacron" unicode="&#x100;" horiz-adv-x="716"
d="M172 162l-56 -142q-9 -20 -28 -20h-43q-21 0 -21 16l2 13q204 489 282 676l8 19q8 18 25 18h29q17 0 25 -18l288 -696q3 -8 3 -12q0 -16 -22 -16h-43q-20 0 -27 19l-58 143h-364zM355 613l-147 -366h293zM158 824v39q0 17 18 17h350q18 0 18 -17v-39q0 -7 -4.5 -13
t-13.5 -6h-350q-18 0 -18 19z" />
    <glyph glyph-name="amacron" unicode="&#x101;" horiz-adv-x="594"
d="M430 25v47q-26 -39 -60.5 -60.5t-90.5 -21.5q-104 0 -171.5 73t-67.5 181t67.5 181.5t171.5 73.5q56 0 90 -22t61 -61l4 50q2 25 24 25h29q11 0 18.5 -6.5t7.5 -18.5v-444q0 -10 -7.5 -16t-18.5 -6h-32q-25 0 -25 25zM123 244q0 -72 43.5 -121.5t112.5 -49.5
q70 0 110.5 47.5t40.5 121.5t-40 123.5t-111 49.5q-70 0 -113 -49.5t-43 -121.5zM118 617v39q0 17 18 17h350q18 0 18 -17v-39q0 -7 -4.5 -13t-13.5 -6h-350q-18 0 -18 19z" />
    <glyph glyph-name="Abreve" unicode="&#x102;" horiz-adv-x="716"
d="M172 162l-56 -142q-9 -20 -28 -20h-43q-21 0 -21 16l2 13q204 489 282 676l8 19q8 18 25 18h29q17 0 25 -18l288 -696q3 -8 3 -12q0 -16 -22 -16h-43q-20 0 -27 19l-58 143h-364zM355 613l-147 -366h293zM347 800q-52 0 -88 34.5t-36 80.5q0 8 6 13.5t14 5.5h33
q9 0 14.5 -5.5t5.5 -13.5q0 -19 14 -32t39 -13q22 0 36 12t14 28q0 24 20 24h29q25 0 25 -19q0 -47 -37 -81.5t-89 -33.5z" />
    <glyph glyph-name="abreve" unicode="&#x103;" horiz-adv-x="594"
d="M430 25v47q-26 -39 -60.5 -60.5t-90.5 -21.5q-104 0 -171.5 73t-67.5 181t67.5 181.5t171.5 73.5q56 0 90 -22t61 -61l4 50q2 25 24 25h29q11 0 18.5 -6.5t7.5 -18.5v-444q0 -10 -7.5 -16t-18.5 -6h-32q-25 0 -25 25zM123 244q0 -72 43.5 -121.5t112.5 -49.5
q70 0 110.5 47.5t40.5 121.5t-40 123.5t-111 49.5q-70 0 -113 -49.5t-43 -121.5zM274 608q-52 0 -88 34.5t-36 80.5q0 8 6 13.5t14 5.5h33q9 0 14.5 -5.5t5.5 -13.5q0 -19 14 -32t39 -13q22 0 36 12t14 28q0 24 20 24h29q25 0 25 -19q0 -47 -37 -81.5t-89 -33.5z" />
    <glyph glyph-name="Aogonek" unicode="&#x104;" horiz-adv-x="716"
d="M172 162l-56 -142q-9 -20 -28 -20h-43q-21 0 -21 16l2 13q204 489 282 676l8 19q8 18 25 18h29q17 0 25 -18l288 -696q3 -8 3 -12q0 -16 -22 -16h-43q-20 0 -27 19l-58 143h-364zM355 613l-147 -366h293zM607 -6q0 19 13 19h43q16 0 16 -14v-13q0 -23 -14 -43t-35 -29
q-2 -2 -9 -6t-9.5 -5.5t-7.5 -5.5t-7 -6.5t-5 -6t-4 -7.5t-1 -9q0 -34 74 -50q10 -3 10 -14q0 -14 -8.5 -30t-20.5 -16q-1 0 -3.5 0.5t-3.5 0.5q-115 34 -121 102q0 25 12 44.5t22 27t35 23.5q24 16 24 38z" />
    <glyph glyph-name="aogonek" unicode="&#x105;" horiz-adv-x="594"
d="M430 25v47q-26 -39 -60.5 -60.5t-90.5 -21.5q-104 0 -171.5 73t-67.5 181t67.5 181.5t171.5 73.5q56 0 90 -22t61 -61l4 50q2 25 24 25h29q11 0 18.5 -6.5t7.5 -18.5v-444q0 -10 -7.5 -16t-18.5 -6h-32q-25 0 -25 25zM123 244q0 -72 43.5 -121.5t112.5 -49.5
q70 0 110.5 47.5t40.5 121.5t-40 123.5t-111 49.5q-70 0 -113 -49.5t-43 -121.5zM435 3q0 19 13 19h43q16 0 16 -14v-13q0 -23 -14 -43t-35 -29q-2 -2 -9 -6t-9.5 -5.5t-7.5 -5.5t-7 -6.5t-5 -6t-4 -7.5t-1 -9q0 -34 74 -50q10 -3 10 -14q0 -14 -8.5 -30t-20.5 -16
q-1 0 -3.5 0.5t-3.5 0.5q-115 34 -121 102q0 25 12 44.5t22 27t35 23.5q24 16 24 38z" />
    <glyph glyph-name="Cacute" unicode="&#x106;" horiz-adv-x="705"
d="M653 677q13 -8 13 -17q0 -8 -7 -17l-21 -33q-9 -12 -17 -12q-9 2 -18 8q-81 58 -174 58q-128 0 -213 -87t-85 -208q0 -122 89 -208t207 -86q80 0 157 47q5 2 18.5 12t18.5 10q9 0 17 -12l23 -38q3 -7 3 -14q0 -11 -11 -17q-101 -74 -228 -74q-158 0 -269.5 111.5
t-111.5 269.5t112 270t270 112q125 0 227 -75zM517 929l-45 -105q-10 -21 -27 -21h-36q-26 0 -11 32l44 102q8 21 27 21h40q22 0 8 -29z" />
    <glyph glyph-name="cacute" unicode="&#x107;" horiz-adv-x="511"
d="M295 68q63 0 115 45q9 7 18 7q8 0 11 -6l29 -41q3 -5 3 -9q0 -9 -17 -20q-79 -56 -159 -56q-107 0 -181.5 75t-74.5 181q0 107 75 182t181 75q81 0 154 -52q16 -11 16 -20q0 -8 -3 -11l-27 -43v1q-5 -6 -13 -6q-6 0 -16 8q-56 43 -111 43q-72 0 -124 -52.5t-52 -124.5
t52 -124t124 -52zM366 713l-45 -105q-10 -21 -27 -21h-36q-26 0 -11 32l44 102q8 21 27 21h40q22 0 8 -29z" />
    <glyph glyph-name="Ccircumflex" unicode="&#x108;" horiz-adv-x="705"
d="M653 677q13 -8 13 -17q0 -8 -7 -17l-21 -33q-9 -12 -17 -12q-9 2 -18 8q-81 58 -174 58q-128 0 -213 -87t-85 -208q0 -122 89 -208t207 -86q80 0 157 47q5 2 18.5 12t18.5 10q9 0 17 -12l23 -38q3 -7 3 -14q0 -11 -11 -17q-101 -74 -228 -74q-158 0 -269.5 111.5
t-111.5 269.5t112 270t270 112q125 0 227 -75zM430 964l131 -131q7 -7 7 -13q0 -5 -7 -12l-23 -21q-7 -7 -12 -7q-7 0 -12 5l-95 96l-95 -96q-5 -5 -12 -5q-3 0 -12 7l-23 21q-7 7 -7 12q0 2 7 13l131 131q5 5 11 5t11 -5z" />
    <glyph glyph-name="ccircumflex" unicode="&#x109;" horiz-adv-x="511"
d="M295 68q63 0 115 45q9 7 18 7q8 0 11 -6l29 -41q3 -5 3 -9q0 -9 -17 -20q-79 -56 -159 -56q-107 0 -181.5 75t-74.5 181q0 107 75 182t181 75q81 0 154 -52q16 -11 16 -20q0 -8 -3 -11l-27 -43v1q-5 -6 -13 -6q-6 0 -16 8q-56 43 -111 43q-72 0 -124 -52.5t-52 -124.5
t52 -124t124 -52zM302 760l131 -131q7 -7 7 -13q0 -5 -7 -12l-23 -21q-7 -7 -12 -7q-7 0 -12 5l-95 96l-95 -96q-5 -5 -12 -5q-3 0 -12 7l-23 21q-7 7 -7 12q0 2 7 13l131 131q5 5 11 5t11 -5z" />
    <glyph glyph-name="Cdotaccent" unicode="&#x10a;" horiz-adv-x="705"
d="M653 677q13 -8 13 -17q0 -8 -7 -17l-21 -33q-9 -12 -17 -12q-9 2 -18 8q-81 58 -174 58q-128 0 -213 -87t-85 -208q0 -122 89 -208t207 -86q80 0 157 47q5 2 18.5 12t18.5 10q9 0 17 -12l23 -38q3 -7 3 -14q0 -11 -11 -17q-101 -74 -228 -74q-158 0 -269.5 111.5
t-111.5 269.5t112 270t270 112q125 0 227 -75zM363 885q0 26 18 44.5t44 18.5q27 0 45 -18.5t18 -44.5t-18 -44.5t-45 -18.5q-26 0 -44 18.5t-18 44.5z" />
    <glyph glyph-name="cdotaccent" unicode="&#x10b;" horiz-adv-x="511"
d="M295 68q63 0 115 45q9 7 18 7q8 0 11 -6l29 -41q3 -5 3 -9q0 -9 -17 -20q-79 -56 -159 -56q-107 0 -181.5 75t-74.5 181q0 107 75 182t181 75q81 0 154 -52q16 -11 16 -20q0 -8 -3 -11l-27 -43v1q-5 -6 -13 -6q-6 0 -16 8q-56 43 -111 43q-72 0 -124 -52.5t-52 -124.5
t52 -124t124 -52zM237 634q0 26 18 44.5t44 18.5q27 0 45 -18.5t18 -44.5t-18 -44.5t-45 -18.5q-26 0 -44 18.5t-18 44.5z" />
    <glyph glyph-name="Ccaron" unicode="&#x10c;" horiz-adv-x="705"
d="M653 677q13 -8 13 -17q0 -8 -7 -17l-21 -33q-9 -12 -17 -12q-9 2 -18 8q-81 58 -174 58q-128 0 -213 -87t-85 -208q0 -122 89 -208t207 -86q80 0 157 47q5 2 18.5 12t18.5 10q9 0 17 -12l23 -38q3 -7 3 -14q0 -11 -11 -17q-101 -74 -228 -74q-158 0 -269.5 111.5
t-111.5 269.5t112 270t270 112q125 0 227 -75zM559 928l-131 -131q-8 -5 -11 -5q-6 0 -11 5l-131 131q-7 7 -7 13q0 7 7 12l22 21q9 7 13 7q7 0 11 -5l96 -96l95 96q4 5 11 5q5 0 12 -7l24 -21q6 -6 6 -12q0 -4 -6 -13z" />
    <glyph glyph-name="ccaron" unicode="&#x10d;" horiz-adv-x="511"
d="M295 68q63 0 115 45q9 7 18 7q8 0 11 -6l29 -41q3 -5 3 -9q0 -9 -17 -20q-79 -56 -159 -56q-107 0 -181.5 75t-74.5 181q0 107 75 182t181 75q81 0 154 -52q16 -11 16 -20q0 -8 -3 -11l-27 -43v1q-5 -6 -13 -6q-6 0 -16 8q-56 43 -111 43q-72 0 -124 -52.5t-52 -124.5
t52 -124t124 -52zM438 710l-131 -131q-8 -5 -11 -5q-6 0 -11 5l-131 131q-7 7 -7 13q0 7 7 12l22 21q9 7 13 7q7 0 11 -5l96 -96l95 96q4 5 11 5q5 0 12 -7l24 -21q6 -6 6 -12q0 -4 -6 -13z" />
    <glyph glyph-name="Dcaron" unicode="&#x10e;" horiz-adv-x="745"
d="M81 21v697q0 24 23 24h229q157 0 264.5 -108t107.5 -264q0 -153 -109 -261.5t-263 -108.5h-229q-23 0 -23 21zM167 85h172q120 0 200.5 87t80.5 204q0 124 -84 202.5t-203 78.5h-166v-572zM468 924l-131 -131q-8 -5 -11 -5q-6 0 -11 5l-131 131q-7 7 -7 13q0 7 7 12
l22 21q9 7 13 7q7 0 11 -5l96 -96l95 96q4 5 11 5q5 0 12 -7l24 -21q6 -6 6 -12q0 -4 -6 -13z" />
    <glyph glyph-name="dcaron" unicode="&#x10f;" horiz-adv-x="579"
d="M505 718v-693q0 -25 -28 -25h-30q-28 0 -28 25v41q-56 -76 -151 -76q-103 0 -166.5 72.5t-63.5 181.5t63.5 182t166.5 73q97 0 151 -79v298q0 24 28 24h29q29 0 29 -24zM427 243q0 72 -42 122t-109 50q-72 0 -111.5 -49t-39.5 -123t39.5 -122.5t111.5 -48.5
q66 0 108.5 50t42.5 121zM526 714q0 25 17.5 42t42.5 17q26 0 43 -17.5t17 -46.5q0 -39 -10.5 -69t-22.5 -43t-21 -13q-6 0 -10 4l-14 11q-7 5 -7 13q0 4 7 13q9 9 9 26v3q-20 3 -35.5 20.5t-15.5 39.5z" />
    <glyph glyph-name="Dcroat" unicode="&#x110;" horiz-adv-x="740"
d="M35 324q-23 0 -23 23v40q0 22 23 22h46v309q0 24 23 24h224q157 0 264.5 -108t107.5 -264q0 -153 -109 -261.5t-263 -108.5h-224q-23 0 -23 21v303h-46zM167 85h167q120 0 200.5 87t80.5 204q0 124 -84 202.5t-203 78.5h-161v-248h46q24 0 24 -22v-40q0 -23 -24 -23h-46
v-239z" />
    <glyph glyph-name="dcroat" unicode="&#x111;" horiz-adv-x="579"
d="M349 638h70v80q0 24 28 24h29q29 0 29 -24v-80h76q19 0 19 -22v-41q0 -23 -19 -23h-76v-527q0 -25 -28 -25h-30q-28 0 -28 25v41q-56 -76 -151 -76q-103 0 -166.5 72.5t-63.5 181.5t63.5 182t166.5 73q97 0 151 -79v132h-70q-20 0 -20 23v41q0 22 20 22zM427 243
q0 72 -42 122t-109 50q-72 0 -111.5 -49t-39.5 -123t39.5 -122.5t111.5 -48.5q66 0 108.5 50t42.5 121z" />
    <glyph glyph-name="Emacron" unicode="&#x112;" horiz-adv-x="642"
d="M103 742h481q22 0 22 -23v-41q0 -23 -23 -23h-416v-221h331q22 0 22 -23v-41q0 -9 -6 -16t-16 -7h-331v-260h420q23 0 23 -24v-41q0 -22 -22 -22h-485q-22 0 -22 21v698q0 23 22 23zM153 866v39q0 17 18 17h350q18 0 18 -17v-39q0 -7 -4.5 -13t-13.5 -6h-350
q-18 0 -18 19z" />
    <glyph glyph-name="emacron" unicode="&#x113;" horiz-adv-x="532"
d="M280 -12q-98 0 -167 74.5t-69 181.5t69 182t167 75q92 0 158 -69.5t66 -166.5v-12q0 -27 -16.5 -36.5t-48.5 -9.5h-307q9 -60 50.5 -97.5t97.5 -37.5q65 0 115 42q7 7 18 7q6 0 11 -6l28 -42q4 -4 4 -9q-1 -9 -17 -20q-84 -56 -159 -56zM136 281h283q-10 57 -50.5 96.5
t-90.5 39.5t-89.5 -39t-52.5 -97zM104 617v39q0 17 18 17h350q18 0 18 -17v-39q0 -7 -4.5 -13t-13.5 -6h-350q-18 0 -18 19z" />
    <glyph glyph-name="Ebreve" unicode="&#x114;" horiz-adv-x="642"
d="M103 742h481q22 0 22 -23v-41q0 -23 -23 -23h-416v-221h331q22 0 22 -23v-41q0 -9 -6 -16t-16 -7h-331v-260h420q23 0 23 -24v-41q0 -22 -22 -22h-485q-22 0 -22 21v698q0 23 22 23zM348 823q-52 0 -88 34.5t-36 80.5q0 8 6 13.5t14 5.5h33q9 0 14.5 -5.5t5.5 -13.5
q0 -19 14 -32t39 -13q22 0 36 12t14 28q0 24 20 24h29q25 0 25 -19q0 -47 -37 -81.5t-89 -33.5z" />
    <glyph glyph-name="ebreve" unicode="&#x115;" horiz-adv-x="532"
d="M280 -12q-98 0 -167 74.5t-69 181.5t69 182t167 75q92 0 158 -69.5t66 -166.5v-12q0 -27 -16.5 -36.5t-48.5 -9.5h-307q9 -60 50.5 -97.5t97.5 -37.5q65 0 115 42q7 7 18 7q6 0 11 -6l28 -42q4 -4 4 -9q-1 -9 -17 -20q-84 -56 -159 -56zM136 281h283q-10 57 -50.5 96.5
t-90.5 39.5t-89.5 -39t-52.5 -97zM287 608q-52 0 -88 34.5t-36 80.5q0 8 6 13.5t14 5.5h33q9 0 14.5 -5.5t5.5 -13.5q0 -19 14 -32t39 -13q22 0 36 12t14 28q0 24 20 24h29q25 0 25 -19q0 -47 -37 -81.5t-89 -33.5z" />
    <glyph glyph-name="Edotaccent" unicode="&#x116;" horiz-adv-x="642"
d="M103 742h481q22 0 22 -23v-41q0 -23 -23 -23h-416v-221h331q22 0 22 -23v-41q0 -9 -6 -16t-16 -7h-331v-260h420q23 0 23 -24v-41q0 -22 -22 -22h-485q-22 0 -22 21v698q0 23 22 23zM292 867q0 26 18 44.5t44 18.5q27 0 45 -18.5t18 -44.5t-18 -44.5t-45 -18.5
q-26 0 -44 18.5t-18 44.5z" />
    <glyph glyph-name="edotaccent" unicode="&#x117;" horiz-adv-x="532"
d="M280 -12q-98 0 -167 74.5t-69 181.5t69 182t167 75q92 0 158 -69.5t66 -166.5v-12q0 -27 -16.5 -36.5t-48.5 -9.5h-307q9 -60 50.5 -97.5t97.5 -37.5q65 0 115 42q7 7 18 7q6 0 11 -6l28 -42q4 -4 4 -9q-1 -9 -17 -20q-84 -56 -159 -56zM136 281h283q-10 57 -50.5 96.5
t-90.5 39.5t-89.5 -39t-52.5 -97zM216 634q0 26 18 44.5t44 18.5q27 0 45 -18.5t18 -44.5t-18 -44.5t-45 -18.5q-26 0 -44 18.5t-18 44.5z" />
    <glyph glyph-name="Eogonek" unicode="&#x118;" horiz-adv-x="642"
d="M103 742h481q22 0 22 -23v-41q0 -23 -23 -23h-416v-221h331q22 0 22 -23v-41q0 -9 -6 -16t-16 -7h-331v-260h420q23 0 23 -24v-41q0 -22 -22 -22h-485q-22 0 -22 21v698q0 23 22 23zM527 -6q0 19 13 19h43q16 0 16 -14v-13q0 -23 -14 -43t-35 -29q-2 -2 -9 -6t-9.5 -5.5
t-7.5 -5.5t-7 -6.5t-5 -6t-4 -7.5t-1 -9q0 -34 74 -50q10 -3 10 -14q0 -14 -8.5 -30t-20.5 -16q-1 0 -3.5 0.5t-3.5 0.5q-115 34 -121 102q0 25 12 44.5t22 27t35 23.5q24 16 24 38z" />
    <glyph glyph-name="eogonek" unicode="&#x119;" horiz-adv-x="532"
d="M280 -12q-98 0 -167 74.5t-69 181.5t69 182t167 75q92 0 158 -69.5t66 -166.5v-12q0 -27 -16.5 -36.5t-48.5 -9.5h-307q9 -60 50.5 -97.5t97.5 -37.5q65 0 115 42q7 7 18 7q6 0 11 -6l28 -42q4 -4 4 -9q-1 -9 -17 -20q-84 -56 -159 -56zM136 281h283q-10 57 -50.5 96.5
t-90.5 39.5t-89.5 -39t-52.5 -97zM254 -6q0 19 13 19h43q16 0 16 -14v-13q0 -23 -14 -43t-35 -29q-2 -2 -9 -6t-9.5 -5.5t-7.5 -5.5t-7 -6.5t-5 -6t-4 -7.5t-1 -9q0 -34 74 -50q10 -3 10 -14q0 -14 -8.5 -30t-20.5 -16q-1 0 -3.5 0.5t-3.5 0.5q-115 34 -121 102
q0 25 12 44.5t22 27t35 23.5q24 16 24 38z" />
    <glyph glyph-name="Ecaron" unicode="&#x11a;" horiz-adv-x="642"
d="M103 742h481q22 0 22 -23v-41q0 -23 -23 -23h-416v-221h331q22 0 22 -23v-41q0 -9 -6 -16t-16 -7h-331v-260h420q23 0 23 -24v-41q0 -22 -22 -22h-485q-22 0 -22 21v698q0 23 22 23zM488 914l-131 -131q-7 -5 -11 -5q-6 0 -11 5l-131 131q-7 7 -7 13q0 7 7 12l22 21
q9 7 13 7q7 0 11 -5l96 -96l95 96q4 5 11 5q5 0 12 -7l24 -21q6 -6 6 -12q0 -4 -6 -13z" />
    <glyph glyph-name="ecaron" unicode="&#x11b;" horiz-adv-x="532"
d="M280 -12q-98 0 -167 74.5t-69 181.5t69 182t167 75q92 0 158 -69.5t66 -166.5v-12q0 -27 -16.5 -36.5t-48.5 -9.5h-307q9 -60 50.5 -97.5t97.5 -37.5q65 0 115 42q7 7 18 7q6 0 11 -6l28 -42q4 -4 4 -9q-1 -9 -17 -20q-84 -56 -159 -56zM136 281h283q-10 57 -50.5 96.5
t-90.5 39.5t-89.5 -39t-52.5 -97zM430 710l-131 -131q-7 -5 -11 -5q-6 0 -11 5l-131 131q-7 7 -7 13q0 7 7 12l22 21q9 7 13 7q7 0 11 -5l96 -96l95 96q4 5 11 5q5 0 12 -7l24 -21q6 -6 6 -12q0 -4 -6 -13z" />
    <glyph glyph-name="Gcircumflex" unicode="&#x11c;" horiz-adv-x="726"
d="M582 121v185q0 22 22 22h42q9 0 16 -6t7 -16v-222q0 -12 -14 -21l-2 -2q-97 -72 -228 -72q-158 0 -269.5 111.5t-111.5 269.5t112 270t270 112q71 0 137 -26q102 -39 102 -69q0 -7 -3 -11l-22 -36q-8 -12 -17 -12q-10 0 -19 8q-81 58 -177 58q-127 0 -211.5 -88
t-84.5 -207q0 -122 87.5 -207.5t207.5 -85.5q94 0 156 45zM440 968l131 -131q7 -7 7 -13q0 -5 -7 -12l-23 -21q-7 -7 -12 -7q-7 0 -12 5l-95 96l-95 -96q-5 -5 -12 -5q-3 0 -12 7l-23 21q-7 7 -7 12q0 2 7 13l131 131q5 5 11 5t11 -5z" />
    <glyph glyph-name="gcircumflex" unicode="&#x11d;" horiz-adv-x="596"
d="M422 14v60q-26 -35 -66.5 -60t-82.5 -25q-101 0 -167 74t-66 181t68 181.5t165 74.5q94 0 149 -77v41q0 25 27 25h32q12 0 20.5 -7t8.5 -18v-417q0 -122 -67 -187t-175 -65q-79 0 -138 38q-12 7 -12 13t5 11l28 48q5 6 14 6q5 0 11 -4q43 -29 91 -29q60 0 107.5 38
t47.5 98zM125 244q0 -71 43.5 -121t104.5 -50q59 0 104 49.5t45 118.5q0 70 -44 122t-105 52t-104.5 -50.5t-43.5 -120.5zM299 763l131 -131q7 -7 7 -13q0 -5 -7 -12l-23 -21q-7 -7 -12 -7q-7 0 -12 5l-95 96l-95 -96q-5 -5 -12 -5q-3 0 -12 7l-23 21q-7 7 -7 12q0 3 7 13
l131 131q5 5 11 5t11 -5z" />
    <glyph glyph-name="Gbreve" unicode="&#x11e;" horiz-adv-x="726"
d="M582 121v185q0 22 22 22h42q9 0 16 -6t7 -16v-222q0 -12 -14 -21l-2 -2q-97 -72 -228 -72q-158 0 -269.5 111.5t-111.5 269.5t112 270t270 112q71 0 137 -26q102 -39 102 -69q0 -7 -3 -11l-22 -36q-8 -12 -17 -12q-10 0 -19 8q-81 58 -177 58q-127 0 -211.5 -88
t-84.5 -207q0 -122 87.5 -207.5t207.5 -85.5q94 0 156 45zM415 788q-52 0 -88 34.5t-36 80.5q0 8 6 13.5t14 5.5h33q9 0 14.5 -5.5t5.5 -13.5q0 -19 14 -32t39 -13q22 0 36 12t14 28q0 24 20 24h29q25 0 25 -19q0 -47 -37 -81.5t-89 -33.5z" />
    <glyph glyph-name="gbreve" unicode="&#x11f;" horiz-adv-x="596"
d="M422 14v60q-26 -35 -66.5 -60t-82.5 -25q-101 0 -167 74t-66 181t68 181.5t165 74.5q94 0 149 -77v41q0 25 27 25h32q12 0 20.5 -7t8.5 -18v-417q0 -122 -67 -187t-175 -65q-79 0 -138 38q-12 7 -12 13t5 11l28 48q5 6 14 6q5 0 11 -4q43 -29 91 -29q60 0 107.5 38
t47.5 98zM125 244q0 -71 43.5 -121t104.5 -50q59 0 104 49.5t45 118.5q0 70 -44 122t-105 52t-104.5 -50.5t-43.5 -120.5zM284 608q-52 0 -88 34.5t-36 80.5q0 8 6 13.5t14 5.5h33q9 0 14.5 -5.5t5.5 -13.5q0 -19 14 -32t39 -13q22 0 36 12t14 28q0 24 20 24h29q25 0 25 -19
q0 -47 -37 -81.5t-89 -33.5z" />
    <glyph glyph-name="Gdotaccent" unicode="&#x120;" horiz-adv-x="726"
d="M582 121v185q0 22 22 22h42q9 0 16 -6t7 -16v-222q0 -12 -14 -21l-2 -2q-97 -72 -228 -72q-158 0 -269.5 111.5t-111.5 269.5t112 270t270 112q71 0 137 -26q102 -39 102 -69q0 -7 -3 -11l-22 -36q-8 -12 -17 -12q-10 0 -19 8q-81 58 -177 58q-127 0 -211.5 -88
t-84.5 -207q0 -122 87.5 -207.5t207.5 -85.5q94 0 156 45zM354 887q0 26 18 44.5t44 18.5q27 0 45 -18.5t18 -44.5t-18 -44.5t-45 -18.5q-26 0 -44 18.5t-18 44.5z" />
    <glyph glyph-name="gdotaccent" unicode="&#x121;" horiz-adv-x="596"
d="M422 14v60q-26 -35 -66.5 -60t-82.5 -25q-101 0 -167 74t-66 181t68 181.5t165 74.5q94 0 149 -77v41q0 25 27 25h32q12 0 20.5 -7t8.5 -18v-417q0 -122 -67 -187t-175 -65q-79 0 -138 38q-12 7 -12 13t5 11l28 48q5 6 14 6q5 0 11 -4q43 -29 91 -29q60 0 107.5 38
t47.5 98zM125 244q0 -71 43.5 -121t104.5 -50q59 0 104 49.5t45 118.5q0 70 -44 122t-105 52t-104.5 -50.5t-43.5 -120.5zM213 634q0 26 18 44.5t44 18.5q27 0 45 -18.5t18 -44.5t-18 -44.5t-45 -18.5q-26 0 -44 18.5t-18 44.5z" />
    <glyph glyph-name="Gcommaaccent" unicode="&#x122;" horiz-adv-x="726"
d="M582 121v185q0 22 22 22h42q9 0 16 -6t7 -16v-222q0 -12 -14 -21l-2 -2q-97 -72 -228 -72q-158 0 -269.5 111.5t-111.5 269.5t112 270t270 112q71 0 137 -26q102 -39 102 -69q0 -7 -3 -11l-22 -36q-8 -12 -17 -12q-10 0 -19 8q-81 58 -177 58q-127 0 -211.5 -88
t-84.5 -207q0 -122 87.5 -207.5t207.5 -85.5q94 0 156 45zM361 -151q0 28 19.5 47.5t47.5 19.5q29 0 48 -20t19 -52q0 -43 -12 -77t-25.5 -48t-23.5 -14q-6 0 -11 4l-16 12q-7 7 -7 15q0 6 9 18t9 25v4q-23 4 -40 23t-17 43z" />
    <glyph glyph-name="gcommaaccent" unicode="&#x123;" horiz-adv-x="596"
d="M422 14v60q-26 -35 -66.5 -60t-82.5 -25q-101 0 -167 74t-66 181t68 181.5t165 74.5q94 0 149 -77v41q0 25 27 25h32q12 0 20.5 -7t8.5 -18v-417q0 -122 -67 -187t-175 -65q-79 0 -138 38q-12 7 -12 13t5 11l28 48q5 6 14 6q5 0 11 -4q43 -29 91 -29q60 0 107.5 38
t47.5 98zM125 244q0 -71 43.5 -121t104.5 -50q59 0 104 49.5t45 118.5q0 70 -44 122t-105 52t-104.5 -50.5t-43.5 -120.5zM349 639q0 -28 -19.5 -47.5t-47.5 -19.5q-29 0 -48 20t-19 52q0 43 12 77t25.5 48t23.5 14q6 0 11 -4l16 -12q7 -7 7 -15q0 -6 -9 -18t-9 -25v-4
q23 -4 40 -23t17 -43z" />
    <glyph glyph-name="Hcircumflex" unicode="&#x124;" horiz-adv-x="791"
d="M609 432v288q0 22 22 22h41q9 0 16 -6.5t7 -15.5v-698q0 -22 -23 -22h-41q-22 0 -22 22v325h-442v-325q0 -22 -24 -22h-40q-22 0 -22 22v698q0 22 22 22h41q9 0 16 -6.5t7 -15.5v-288h442zM415 964l131 -131q7 -7 7 -13q0 -5 -7 -12l-23 -21q-7 -7 -12 -7q-7 0 -12 5
l-95 96l-95 -96q-5 -5 -12 -5q-3 0 -12 7l-23 21q-7 7 -7 12q0 2 7 13l131 131q5 5 11 5t11 -5z" />
    <glyph glyph-name="hcircumflex" unicode="&#x125;" horiz-adv-x="591"
d="M167 720v-298q24 30 74.5 54t93.5 24q84 0 136 -60t52 -149v-266q0 -12 -7 -18.5t-17 -6.5h-41q-22 0 -22 24v267q0 51 -32 87t-81 36q-51 0 -101.5 -35.5t-54.5 -82.5v-274q0 -22 -22 -22h-41q-23 0 -23 22v698q0 22 22 22h41q10 0 16.5 -6t6.5 -16zM352 802l131 -131
q7 -5 7 -12q0 -5 -7 -12l-23 -22q-7 -7 -12 -7q-7 0 -12 6l-95 95l-95 -95q-5 -6 -12 -6q-3 0 -12 7l-23 22q-7 7 -7 12t7 12l131 132q5 5 11 5q7 0 11 -6z" />
    <glyph glyph-name="Hbar" unicode="&#x126;" horiz-adv-x="773"
d="M167 720v-175h442v175q0 22 22 22h41q9 0 16 -6.5t7 -15.5v-698q0 -22 -23 -22h-41q-22 0 -22 22v270h-442v-270q0 -22 -24 -22h-40q-22 0 -22 22v698q0 22 22 22h41q9 0 16 -6.5t7 -15.5zM609 377v85h-442v-85h442z" />
    <glyph glyph-name="hbar" unicode="&#x127;" horiz-adv-x="582"
d="M167 720v-81h80q22 0 22 -22v-43q0 -8 -6.5 -16t-15.5 -8h-80v-128q24 30 74.5 54t93.5 24q84 0 136 -60t52 -149v-266q0 -12 -7 -18.5t-17 -6.5h-41q-22 0 -22 24v267q0 51 -32 87t-81 36q-51 0 -101.5 -35.5t-54.5 -82.5v-274q0 -22 -22 -22h-41q-23 0 -23 22v528h-73
q-22 0 -22 24v43q0 22 22 22h73v81q0 22 22 22h41q10 0 16.5 -6t6.5 -16z" />
    <glyph glyph-name="Itilde" unicode="&#x128;"
d="M167 720v-698q0 -22 -22 -22h-42q-22 0 -22 22v698q0 22 22 22h42q22 0 22 -22zM10 820q-4 -4 -7 -4q-2 0 -10 4q-14 12 -22 20q-4 4 -4 9q0 6 7 13q39 54 98 54q28 0 60 -22l27 -19q17 -11 34 -11q20 0 36 14q3 3 10 12.5t10 12.5q4 4 8 4q1 0 9 -4q2 -2 10.5 -9.5
t11.5 -9.5q4 -5 4 -10q0 -3 -3 -8t-4 -5q-37 -54 -97 -54q-29 0 -61 22l-27 19q-16 11 -34 11q-20 0 -36 -14q-3 -3 -9.5 -12.5t-10.5 -12.5z" />
    <glyph glyph-name="itilde" unicode="&#x129;"
d="M167 469v-447q0 -22 -22 -22h-41q-23 0 -23 22v447q0 10 6.5 16t15.5 6h41q10 0 16.5 -6.5t6.5 -15.5zM10 592q-4 -4 -7 -4q-2 0 -10 4q-14 12 -22 20q-4 4 -4 9q0 6 7 13q39 54 98 54q28 0 60 -22l27 -19q17 -11 34 -11q20 0 36 14q3 3 10 12.5t10 12.5q4 4 8 4
q1 0 9 -4q2 -2 10.5 -9.5t11.5 -9.5q4 -5 4 -10q0 -3 -3 -8t-4 -5q-37 -54 -97 -54q-29 0 -61 22l-27 19q-16 11 -34 11q-20 0 -36 -14q-3 -3 -9.5 -12.5t-10.5 -12.5z" />
    <glyph glyph-name="Imacron" unicode="&#x12a;"
d="M7 838v39q0 17 18 17h195q18 0 18 -17v-39q0 -7 -4.5 -13t-13.5 -6h-195q-18 0 -18 19zM167 720v-698q0 -22 -22 -22h-42q-22 0 -22 22v698q0 22 22 22h42q22 0 22 -22z" />
    <glyph glyph-name="imacron" unicode="&#x12b;"
d="M11 617v39q0 17 18 17h190q18 0 18 -17v-39q0 -7 -4.5 -13t-13.5 -6h-190q-18 0 -18 19zM167 469v-447q0 -22 -22 -22h-41q-23 0 -23 22v447q0 10 6.5 16t15.5 6h41q10 0 16.5 -6.5t6.5 -15.5z" />
    <glyph glyph-name="Ibreve" unicode="&#x12c;"
d="M167 720v-698q0 -22 -22 -22h-42q-22 0 -22 22v698q0 22 22 22h42q22 0 22 -22zM118 822q-52 0 -88 34.5t-36 80.5q0 8 6 13.5t14 5.5h33q9 0 14.5 -5.5t5.5 -13.5q0 -19 14 -32t39 -13q22 0 36 12t14 28q0 24 20 24h29q25 0 25 -19q0 -47 -37 -81.5t-89 -33.5z" />
    <glyph glyph-name="ibreve" unicode="&#x12d;"
d="M167 469v-447q0 -22 -22 -22h-41q-23 0 -23 22v447q0 10 6.5 16t15.5 6h41q10 0 16.5 -6.5t6.5 -15.5zM128 608q-52 0 -88 34.5t-36 80.5q0 8 6 13.5t14 5.5h33q9 0 14.5 -5.5t5.5 -13.5q0 -19 14 -32t39 -13q22 0 36 12t14 28q0 24 20 24h29q25 0 25 -19
q0 -47 -37 -81.5t-89 -33.5z" />
    <glyph glyph-name="Iogonek" unicode="&#x12e;"
d="M167 720v-698q0 -22 -22 -22h-42q-22 0 -22 22v698q0 22 22 22h42q22 0 22 -22zM87 -3q0 19 13 19h43q16 0 16 -14v-13q0 -23 -14 -43t-35 -29q-2 -2 -9 -6t-9.5 -5.5t-7.5 -5.5t-7 -6.5t-5 -6t-4 -7.5t-1 -9q0 -34 74 -50q10 -3 10 -14q0 -14 -8.5 -30t-20.5 -16
q-1 0 -3.5 0.5t-3.5 0.5q-115 34 -121 102q0 25 12 44.5t22 27t35 23.5q24 16 24 38z" />
    <glyph glyph-name="iogonek" unicode="&#x12f;"
d="M167 469v-447q0 -22 -22 -22h-42q-22 0 -22 22v447q0 22 22 22h42q22 0 22 -22zM61 629q0 26 18.5 44.5t44.5 18.5q27 0 45 -18.5t18 -44.5t-18 -44t-45 -18q-26 0 -44.5 18t-18.5 44zM87 -6q0 19 13 19h43q16 0 16 -14v-13q0 -23 -14 -43t-35 -29q-2 -2 -9 -6t-9.5 -5.5
t-7.5 -5.5t-7 -6.5t-5 -6t-4 -7.5t-1 -9q0 -34 74 -50q10 -3 10 -14q0 -14 -8.5 -30t-20.5 -16q-1 0 -3.5 0.5t-3.5 0.5q-115 34 -121 102q0 25 12 44.5t22 27t35 23.5q24 16 24 38z" />
    <glyph glyph-name="Idotaccent" unicode="&#x130;"
d="M167 720v-698q0 -22 -22 -22h-42q-22 0 -22 22v698q0 22 22 22h42q22 0 22 -22zM60 886q0 26 18 44.5t44 18.5q27 0 45 -18.5t18 -44.5t-18 -44.5t-45 -18.5q-26 0 -44 18.5t-18 44.5z" />
    <glyph glyph-name="dotlessi" unicode="&#x131;"
d="M167 469v-447q0 -22 -22 -22h-41q-23 0 -23 22v447q0 10 6.5 16t15.5 6h41q10 0 16.5 -6.5t6.5 -15.5z" />
    <glyph glyph-name="IJ" unicode="&#x132;" horiz-adv-x="495"
d="M100 -125q-5 5 -5 12q0 8 8 15l29 32q6 7 14 7q7 0 11 -4q37 -34 81 -34q38 0 64.5 27t26.5 65v726q0 21 22 21h42q22 0 22 -22v-725q0 -75 -51.5 -126t-125.5 -51q-83 0 -138 57zM167 720v-698q0 -22 -22 -22h-42q-22 0 -22 22v698q0 22 22 22h42q22 0 22 -22z" />
    <glyph glyph-name="ij" unicode="&#x133;" horiz-adv-x="475"
d="M237 -200q-25 0 -25 25v32q0 26 25 26h3q29 2 48.5 26.5t19.5 53.5v503q0 25 27 25h34q26 0 26 -25v-503q0 -66 -47 -113.5t-111 -49.5zM289 629q0 26 18.5 44.5t44.5 18.5q27 0 45 -18.5t18 -44.5t-18 -44t-45 -18q-26 0 -44.5 18t-18.5 44zM168 469v-447q0 -22 -22 -22
h-42q-22 0 -22 22v447q0 22 22 22h42q22 0 22 -22zM62 629q0 26 18.5 44.5t44.5 18.5q27 0 45 -18.5t18 -44.5t-18 -44t-45 -18q-26 0 -44.5 18t-18.5 44z" />
    <glyph glyph-name="Jcircumflex" unicode="&#x134;" horiz-adv-x="400"
d="M7 45q-5 5 -5 12q0 8 8 15l29 32q6 7 14 7q7 0 11 -4q37 -34 81 -34q38 0 64.5 27t26.5 65v556q0 21 22 21h42q22 0 22 -22v-555q0 -75 -51.5 -126t-125.5 -51q-83 0 -138 57zM288 961l131 -131q7 -7 7 -13q0 -5 -7 -12l-23 -21q-7 -7 -12 -7q-7 0 -12 5l-95 96l-95 -96
q-5 -5 -12 -5q-3 0 -12 7l-23 21q-7 7 -7 12q0 2 7 13l131 131q5 5 11 5t11 -5z" />
    <glyph glyph-name="jcircumflex" unicode="&#x135;"
d="M9 -200q-25 0 -25 25v32q0 26 25 26h3q29 2 48.5 26.5t19.5 53.5v503q0 25 27 25h34q26 0 26 -25v-503q0 -66 -47 -113.5t-111 -49.5zM136 756l131 -131q7 -7 7 -13q0 -5 -7 -12l-23 -21q-7 -7 -12 -7q-7 0 -12 5l-95 96l-95 -96q-5 -5 -12 -5q-3 0 -12 7l-23 21
q-7 7 -7 12q0 2 7 13l131 131q5 5 11 5t11 -5z" />
    <glyph glyph-name="Kcommaaccent" unicode="&#x136;" horiz-adv-x="733"
d="M167 227v-205q0 -22 -23 -22h-41q-22 0 -22 22v698q0 22 22 22h42q9 0 15.5 -6t6.5 -16v-372l358 379q12 15 24 15h86q13 0 13 -6q0 -5 -9 -14l-280 -295q38 -45 109.5 -127.5t128.5 -150t106 -129.5q7 -9 7 -11q0 -9 -10 -9h-86q-12 0 -31 26q-47 56 -141.5 169.5
t-141.5 169.5zM284 -151q0 28 19.5 47.5t47.5 19.5q29 0 48 -20t19 -52q0 -43 -12 -77t-25.5 -48t-23.5 -14q-6 0 -11 4l-16 12q-7 7 -7 15q0 6 9 18t9 25v4q-23 4 -40 23t-17 43z" />
    <glyph glyph-name="kcommaaccent" unicode="&#x137;" horiz-adv-x="523"
d="M81 22v698q0 22 22 22h41q9 0 16 -6.5t7 -15.5v-424l173 181q14 14 27 14h70q15 0 15 -11q0 -6 -8 -17l-153 -156l230 -280q9 -9 9 -16q0 -11 -17 -11h-69q-16 0 -28 16l-185 230l-64 -66v-158q0 -22 -23 -22h-41q-22 0 -22 22zM214 -151q0 28 19.5 47.5t46.5 19.5
q29 0 48 -20t19 -52q0 -43 -12 -77t-25 -48t-23 -14q-7 0 -12 4l-15 12q-8 6 -8 15q0 5 8 17v1v-1q11 11 11 26v4q-23 4 -40 23t-17 43z" />
    <glyph glyph-name="kgreenlandic" unicode="&#x138;" horiz-adv-x="523"
d="M81 22v447q0 22 22 22h41q9 0 16 -6.5t7 -15.5v-173l173 181q14 14 27 14h70q15 0 15 -11q0 -6 -8 -17l-153 -156l230 -280q9 -9 9 -16q0 -11 -17 -11h-69q-16 0 -28 16l-185 230l-64 -66v-158q0 -22 -23 -22h-41q-22 0 -22 22z" />
    <glyph glyph-name="Lacute" unicode="&#x139;" horiz-adv-x="574"
d="M167 85h361q22 0 22 -23v-40q0 -9 -6 -15.5t-16 -6.5h-425q-22 0 -22 22v698q0 22 23 22h41q22 0 22 -22v-635zM215 928l-45 -105q-10 -21 -27 -21h-36q-26 0 -11 32l44 102q8 21 27 21h40q22 0 8 -29z" />
    <glyph glyph-name="lacute" unicode="&#x13a;"
d="M168 720v-698q0 -22 -22 -22h-42q-22 0 -22 22v698q0 22 22 22h42q22 0 22 -22zM215 929l-46 -105q-9 -21 -26 -21h-37q-16 0 -16 14q2 11 5 18l44 103q12 21 27 21h40q15 0 15 -10q0 -6 -6 -20z" />
    <glyph glyph-name="Lcommaaccent" unicode="&#x13b;" horiz-adv-x="574"
d="M167 85h361q22 0 22 -23v-40q0 -9 -6 -15.5t-16 -6.5h-425q-22 0 -22 22v698q0 22 23 22h41q22 0 22 -22v-635zM242 -151q0 28 19.5 47.5t47.5 19.5q29 0 48 -20t19 -52q0 -43 -12 -77t-25.5 -48t-23.5 -14q-6 0 -11 4l-16 12q-7 7 -7 15q0 6 9 18t9 25v4q-23 4 -40 23
t-17 43z" />
    <glyph glyph-name="lcommaaccent" unicode="&#x13c;"
d="M167 720v-698q0 -22 -22 -22h-42q-22 0 -22 22v698q0 22 22 22h42q22 0 22 -22zM64 -151q0 28 19.5 47.5t47.5 19.5q29 0 48 -20t19 -52q0 -43 -12 -77t-25.5 -48t-23.5 -14q-6 0 -11 4l-16 12q-7 7 -7 15q0 6 7 17l1 1v-1q10 10 10 26v4q-23 4 -40 23t-17 43z" />
    <glyph glyph-name="Lcaron" unicode="&#x13d;" horiz-adv-x="574"
d="M167 85h361q22 0 22 -23v-40q0 -9 -6 -15.5t-16 -6.5h-425q-22 0 -22 22v698q0 22 23 22h41q22 0 22 -22v-635zM320 691q0 28 19.5 47.5t46.5 19.5q29 0 48 -20t19 -52q0 -43 -12 -77t-25 -48t-23 -14q-7 0 -12 4l-15 12q-8 6 -8 15q0 4 9.5 16t9.5 27v4q-23 4 -40 23
t-17 43z" />
    <glyph glyph-name="lcaron" unicode="&#x13e;"
d="M167 720v-698q0 -22 -22 -22h-42q-22 0 -22 22v698q0 22 22 22h42q22 0 22 -22zM187 702q0 25 17.5 42.5t42.5 17.5q26 0 43 -18t17 -47q0 -39 -10.5 -69t-22.5 -42.5t-21 -12.5q-5 0 -11 3l-14 11q-6 6 -6 14q0 4 6 12q10 10 10 26v3q-21 4 -36 21.5t-15 38.5z" />
    <glyph glyph-name="Ldot" unicode="&#x13f;" horiz-adv-x="574"
d="M167 85h361q22 0 22 -23v-40q0 -9 -6 -15.5t-16 -6.5h-425q-22 0 -22 22v698q0 22 23 22h41q22 0 22 -22v-635zM330 368q0 26 18 44.5t44 18.5q27 0 45 -18.5t18 -44.5t-18 -44t-45 -18q-26 0 -44 18t-18 44z" />
    <glyph glyph-name="ldot" unicode="&#x140;" horiz-adv-x="292"
d="M167 720v-698q0 -22 -22 -22h-42q-22 0 -22 22v698q0 22 22 22h42q22 0 22 -22zM213 321q0 26 18.5 44.5t44.5 18.5q27 0 45 -18.5t18 -44.5t-18 -44t-45 -18q-26 0 -44.5 18t-18.5 44z" />
    <glyph glyph-name="Lslash" unicode="&#x141;" horiz-adv-x="579"
d="M164 83h373q9 0 15.5 -6.5t6.5 -16.5v-38q0 -9 -6 -15.5t-16 -6.5h-437q-22 0 -22 22v301l-72 -30q-3 -2 -8 -2q-10 0 -11 15l1 38q0 19 17 26l73 31v319q0 9 6.5 15.5t16.5 6.5h40q9 0 16 -6t7 -16v-285l145 62q4 2 6 2q10 0 10 -14l1 -38q0 -19 -16 -26l-146 -64v-274z
" />
    <glyph glyph-name="lslash" unicode="&#x142;"
d="M167 720v-264l102 37q1 0 3 0.5t3 0.5q9 0 14 -11l12 -33q1 -3 1 -7q0 -12 -10 -15l-125 -46v-360q0 -22 -22 -22h-42q-22 0 -22 22v328l-101 -37q-3 -1 -8 -1q-10 0 -14 12l-12 33q-1 3 -1 7q0 11 12 15l124 45v296q0 22 22 22h42q22 0 22 -22z" />
    <glyph glyph-name="Nacute" unicode="&#x143;" horiz-adv-x="791"
d="M689 0h-47q-12 0 -19 9l-456 599v-586q0 -22 -23 -22h-41q-22 0 -22 22v697q0 10 6 16.5t16 6.5h55q12 0 19 -10l449 -584v575q3 19 22 19h41q9 0 16.5 -6.5t7.5 -15.5v-698q0 -22 -24 -22zM487 929l-45 -105q-10 -21 -27 -21h-36q-26 0 -11 32l44 102q8 21 27 21h40
q22 0 8 -29z" />
    <glyph glyph-name="nacute" unicode="&#x144;" horiz-adv-x="591"
d="M164 467l3 -45q24 30 74.5 54t93.5 24q84 0 136 -60t52 -149v-266q0 -12 -7 -18.5t-17 -6.5h-41q-22 0 -22 24v267q0 52 -34 87.5t-89 35.5q-51 0 -98.5 -33t-47.5 -73v-286q0 -22 -22 -22h-41q-23 0 -23 22v445q0 22 22 22h38q21 0 23 -22zM402 713l-45 -105
q-10 -21 -27 -21h-36q-26 0 -11 32l44 102q8 21 27 21h40q22 0 8 -29z" />
    <glyph glyph-name="Ncommaaccent" unicode="&#x145;" horiz-adv-x="791"
d="M689 0h-47q-12 0 -19 9l-456 599v-586q0 -22 -23 -22h-41q-22 0 -22 22v697q0 10 6 16.5t16 6.5h55q12 0 19 -10l449 -584v575q3 19 22 19h41q9 0 16.5 -6.5t7.5 -15.5v-698q0 -22 -24 -22zM328 -151q0 28 19.5 47.5t47.5 19.5q29 0 48 -20t19 -52q0 -43 -12 -77
t-25.5 -48t-23.5 -14q-6 0 -11 4l-16 12q-7 7 -7 15q0 6 9 18t9 25v4q-23 4 -40 23t-17 43z" />
    <glyph glyph-name="ncommaaccent" unicode="&#x146;" horiz-adv-x="591"
d="M164 467l3 -45q24 30 74.5 54t93.5 24q84 0 136 -60t52 -149v-266q0 -12 -7 -18.5t-17 -6.5h-41q-22 0 -22 24v267q0 52 -34 87.5t-89 35.5q-51 0 -98.5 -33t-47.5 -73v-286q0 -22 -22 -22h-41q-23 0 -23 22v445q0 22 22 22h38q21 0 23 -22zM222 -151q0 28 19.5 47.5
t47.5 19.5q29 0 48 -20t19 -52q0 -43 -12 -77t-25.5 -48t-23.5 -14q-6 0 -11 4l-16 12q-7 7 -7 15q0 6 9 18t9 25v4q-23 4 -40 23t-17 43z" />
    <glyph glyph-name="Ncaron" unicode="&#x147;" horiz-adv-x="791"
d="M689 0h-47q-12 0 -19 9l-456 599v-586q0 -22 -23 -22h-41q-22 0 -22 22v697q0 10 6 16.5t16 6.5h55q12 0 19 -10l449 -584v575q3 19 22 19h41q9 0 16.5 -6.5t7.5 -15.5v-698q0 -22 -24 -22zM555 911l-131 -131q-8 -5 -11 -5q-6 0 -11 5l-131 131q-7 7 -7 13q0 7 7 12
l22 21q9 7 13 7q7 0 11 -5l96 -96l95 96q4 5 11 5q5 0 12 -7l24 -21q6 -6 6 -12q0 -4 -6 -13z" />
    <glyph glyph-name="ncaron" unicode="&#x148;" horiz-adv-x="591"
d="M164 467l3 -45q24 30 74.5 54t93.5 24q84 0 136 -60t52 -149v-266q0 -12 -7 -18.5t-17 -6.5h-41q-22 0 -22 24v267q0 52 -34 87.5t-89 35.5q-51 0 -98.5 -33t-47.5 -73v-286q0 -22 -22 -22h-41q-23 0 -23 22v445q0 22 22 22h38q21 0 23 -22zM446 710l-131 -131
q-7 -5 -11 -5q-6 0 -11 5l-131 131q-7 7 -7 13q0 7 7 12l22 21q9 7 13 7q7 0 11 -5l96 -96l95 96q4 5 11 5q5 0 12 -7l24 -21q6 -6 6 -12q0 -4 -6 -13z" />
    <glyph glyph-name="napostrophe" unicode="&#x149;" horiz-adv-x="592"
d="M164 467l3 -45q24 30 74.5 54t93.5 24q84 0 136 -60t52 -149v-266q0 -12 -7 -18.5t-17 -6.5h-41q-22 0 -22 24v267q0 52 -34 87.5t-89 35.5q-51 0 -98.5 -33t-47.5 -73v-286q0 -22 -22 -22h-41q-23 0 -23 22v445q0 22 22 22h38q21 0 23 -22zM-37 638q0 28 19.5 47.5
t47.5 19.5q29 0 48 -20t19 -52q0 -43 -12 -77t-25.5 -48t-23.5 -14q-6 0 -11 4l-16 12q-7 7 -7 15q0 6 9 18t9 25v4q-23 4 -40 23t-17 43z" />
    <glyph glyph-name="Eng" unicode="&#x14a;" horiz-adv-x="791"
d="M396 -221l-2 2q-2 2 -2 5q0 6 7 15l33 33l6 4q6 2 8 2q5 0 15.5 -9.5t29.5 -19t43 -9.5q38 0 64.5 27t26.5 65v108l-459 616v-602q0 -16 -18 -16h-51q-16 0 -16 16v709q0 17 16 17h68q11 0 16 -8l444 -590v586q3 12 16 12h52q18 0 18 -16v-832q0 -74 -51.5 -125
t-125.5 -51q-93 0 -138 61z" />
    <glyph glyph-name="eng" unicode="&#x14b;" horiz-adv-x="581"
d="M164 467l3 -45q24 30 74.5 54t93.5 24q84 0 136 -60t52 -149v-363q0 -67 -47 -115t-112 -48q-20 0 -20 20v34q0 21 21 21h4q28 1 47.5 29.5t19.5 58.5v363q0 51 -32 87t-81 36q-51 0 -101.5 -35.5t-54.5 -82.5v-274q0 -22 -22 -22h-41q-23 0 -23 22v445q0 22 22 22h38
q21 0 23 -22z" />
    <glyph glyph-name="Omacron" unicode="&#x14c;" horiz-adv-x="853"
d="M426 752q158 0 270 -112t112 -271q0 -158 -112 -269t-271 -111q-158 0 -269.5 111.5t-111.5 269.5t112 270t270 112zM131 371q0 -123 86 -209.5t209 -86.5q122 0 208 86.5t86 209.5q0 121 -86 207.5t-208 86.5q-123 0 -209 -86t-86 -208zM233 821v39q0 17 18 17h350
q18 0 18 -17v-39q0 -7 -4.5 -13t-13.5 -6h-350q-18 0 -18 19z" />
    <glyph glyph-name="omacron" unicode="&#x14d;" horiz-adv-x="610"
d="M44 244q0 107 75 182t181 75t181.5 -75.5t75.5 -181.5t-75 -181t-182 -75q-106 0 -181 75t-75 181zM125 244q0 -72 51.5 -124t123.5 -52t124 52t52 124t-52 124.5t-124 52.5t-123.5 -52.5t-51.5 -124.5zM103 617v39q0 17 18 17h350q18 0 18 -17v-39q0 -7 -4.5 -13
t-13.5 -6h-350q-18 0 -18 19z" />
    <glyph glyph-name="Obreve" unicode="&#x14e;" horiz-adv-x="853"
d="M426 752q158 0 270 -112t112 -271q0 -158 -112 -269t-271 -111q-158 0 -269.5 111.5t-111.5 269.5t112 270t270 112zM131 371q0 -123 86 -209.5t209 -86.5q122 0 208 86.5t86 209.5q0 121 -86 207.5t-208 86.5q-123 0 -209 -86t-86 -208zM420 794q-52 0 -88 34.5
t-36 80.5q0 8 6 13.5t14 5.5h33q9 0 14.5 -5.5t5.5 -13.5q0 -19 14 -32t39 -13q22 0 36 12t14 28q0 24 20 24h29q25 0 25 -19q0 -47 -37 -81.5t-89 -33.5z" />
    <glyph glyph-name="obreve" unicode="&#x14f;" horiz-adv-x="610"
d="M44 244q0 107 75 182t181 75t181.5 -75.5t75.5 -181.5t-75 -181t-182 -75q-106 0 -181 75t-75 181zM125 244q0 -72 51.5 -124t123.5 -52t124 52t52 124t-52 124.5t-124 52.5t-123.5 -52.5t-51.5 -124.5zM296 608q-52 0 -88 34.5t-36 80.5q0 8 6 13.5t14 5.5h33
q9 0 14.5 -5.5t5.5 -13.5q0 -19 14 -32t39 -13q22 0 36 12t14 28q0 24 20 24h29q25 0 25 -19q0 -47 -37 -81.5t-89 -33.5z" />
    <glyph glyph-name="Ohungarumlaut" unicode="&#x150;" horiz-adv-x="853"
d="M426 752q158 0 270 -112t112 -271q0 -158 -112 -269t-271 -111q-158 0 -269.5 111.5t-111.5 269.5t112 270t270 112zM131 371q0 -123 86 -209.5t209 -86.5q122 0 208 86.5t86 209.5q0 121 -86 207.5t-208 86.5q-123 0 -209 -86t-86 -208zM431 930l-45 -105
q-10 -21 -27 -21h-36q-17 0 -17 14q2 8 6 18l44 102q11 21 27 21h40q15 0 15 -9q0 -5 -7 -20zM596 930l-45 -105q-10 -21 -27 -21h-36q-17 0 -17 14q2 8 6 18l44 102q11 21 27 21h40q15 0 15 -9q0 -5 -7 -20z" />
    <glyph glyph-name="ohungarumlaut" unicode="&#x151;" horiz-adv-x="610"
d="M44 244q0 107 75 182t181 75t181.5 -75.5t75.5 -181.5t-75 -181t-182 -75q-106 0 -181 75t-75 181zM125 244q0 -72 51.5 -124t123.5 -52t124 52t52 124t-52 124.5t-124 52.5t-123.5 -52.5t-51.5 -124.5zM312 713l-45 -105q-10 -21 -27 -21h-36q-17 0 -17 14q2 8 6 18
l44 102q11 21 27 21h40q15 0 15 -9q0 -5 -7 -20zM477 713l-45 -105q-10 -21 -27 -21h-36q-17 0 -17 14q2 8 6 18l44 102q11 21 27 21h40q15 0 15 -9q0 -5 -7 -20z" />
    <glyph glyph-name="OE" unicode="&#x152;" horiz-adv-x="1253"
d="M416 753q158 0 270 -112t112 -271q0 -158 -112 -269t-271 -111q-158 0 -269.5 111.5t-111.5 269.5t112 270t270 112zM121 372q0 -123 86 -209.5t209 -86.5q122 0 208 86.5t86 209.5q0 122 -86 208t-208 86q-123 0 -209 -86t-86 -208zM737 740h481q22 0 22 -23v-41
q0 -23 -23 -23h-416v-221h331q22 0 22 -23v-41q0 -9 -6 -16t-16 -7h-331v-260h420q23 0 23 -24v-41q0 -22 -22 -22h-485q-22 0 -22 21v698q0 23 22 23z" />
    <glyph glyph-name="oe" unicode="&#x153;" horiz-adv-x="1022"
d="M44 244q0 107 75 182t181 75q70 0 129 -35t93 -94q32 58 90 90.5t127 32.5q97 0 169.5 -65.5t78.5 -171.5v-9q0 -11 -4 -18.5t-9 -11.5t-16.5 -6t-18 -2h-23.5h-339q12 -65 60.5 -105t105.5 -40q70 0 116 38l6 4q20 14 22 14q6 0 12 -6l24 -28q6 -10 6 -15t-11 -14
q-83 -69 -170 -69q-71 0 -131 34.5t-93 93.5q-34 -59 -93.5 -94.5t-130.5 -35.5q-106 0 -181 75t-75 181zM125 244q0 -72 51.5 -124t123.5 -52t124 52t52 124t-52 124.5t-124 52.5t-123.5 -52.5t-51.5 -124.5zM577 275h333q-15 66 -63 105.5t-109 39.5q-55 0 -101.5 -41
t-59.5 -104z" />
    <glyph glyph-name="Racute" unicode="&#x154;" horiz-adv-x="671"
d="M541 507q0 60 -43.5 105t-105.5 45h-225v-300h226q62 0 105 44.5t43 105.5zM81 22v696q0 24 22 24h289q98 0 166.5 -69t68.5 -167q0 -70 -37.5 -127.5t-99.5 -85.5l132 -271q2 -8 2 -9q0 -13 -18 -13h-55q-17 0 -26 19l-121 254q-7 -1 -62 -1h-175v-250q0 -22 -22 -22
h-42q-22 0 -22 22zM404 929l-45 -105q-10 -21 -27 -21h-36q-26 0 -11 32l44 102q8 21 27 21h40q22 0 8 -29z" />
    <glyph glyph-name="racute" unicode="&#x155;" horiz-adv-x="381"
d="M287 712l-45 -105q-10 -21 -27 -21h-36q-26 0 -11 32l44 102q8 21 27 21h40q22 0 8 -29zM162 469l5 -37q37 67 113 67q30 0 62 -16t32 -26q0 -2 -2 -8l-25 -47q-6 -10 -13 -10q-2 0 -12 5q-23 14 -54 16q-43 0 -72 -41t-29 -90v-260q0 -22 -22 -22h-41q-23 0 -23 22v447
q0 10 6.5 16t15.5 6h36q21 0 23 -22z" />
    <glyph glyph-name="Rcommaaccent" unicode="&#x156;" horiz-adv-x="687"
d="M541 507q0 60 -43.5 105t-105.5 45h-225v-300h226q62 0 105 44.5t43 105.5zM81 22v696q0 24 22 24h289q98 0 166.5 -69t68.5 -167q0 -70 -37.5 -127.5t-99.5 -85.5l132 -271q2 -8 2 -9q0 -13 -18 -13h-55q-17 0 -26 19l-121 254q-7 -1 -62 -1h-175v-250q0 -22 -22 -22
h-42q-22 0 -22 22zM278 -151q0 28 19.5 47.5t47.5 19.5q29 0 48 -20t19 -52q0 -43 -12 -77t-25.5 -48t-23.5 -14q-6 0 -11 4l-16 12q-7 7 -7 15q0 6 9 18t9 25v4q-23 4 -40 23t-17 43z" />
    <glyph glyph-name="rcommaaccent" unicode="&#x157;" horiz-adv-x="381"
d="M162 469l5 -37q37 67 113 67q30 0 62 -16t32 -26q0 -2 -2 -8l-25 -47q-6 -10 -13 -10q-2 0 -12 5q-23 14 -54 16q-43 0 -72 -41t-29 -90v-260q0 -22 -22 -22h-41q-23 0 -23 22v447q0 10 6.5 16t15.5 6h36q21 0 23 -22zM65 -151q0 28 19.5 47.5t47.5 19.5q29 0 48 -20
t19 -52q0 -43 -12 -77t-25.5 -48t-23.5 -14q-6 0 -11 4l-16 12q-7 7 -7 15q0 6 9 18t9 25v4q-23 4 -40 23t-17 43z" />
    <glyph glyph-name="Rcaron" unicode="&#x158;" horiz-adv-x="671"
d="M541 507q0 60 -43.5 105t-105.5 45h-225v-300h226q62 0 105 44.5t43 105.5zM81 22v696q0 24 22 24h289q98 0 166.5 -69t68.5 -167q0 -70 -37.5 -127.5t-99.5 -85.5l132 -271q2 -8 2 -9q0 -13 -18 -13h-55q-17 0 -26 19l-121 254q-7 -1 -62 -1h-175v-250q0 -22 -22 -22
h-42q-22 0 -22 22zM479 921l-131 -131q-8 -5 -11 -5q-6 0 -11 5l-131 131q-7 7 -7 13q0 7 7 12l22 21q9 7 13 7q7 0 11 -5l96 -96l95 96q4 5 11 5q5 0 12 -7l24 -21q6 -6 6 -12q0 -4 -6 -13z" />
    <glyph glyph-name="rcaron" unicode="&#x159;" horiz-adv-x="381"
d="M162 469l5 -37q37 67 113 67q30 0 62 -16t32 -26q0 -2 -2 -8l-25 -47q-6 -10 -13 -10q-2 0 -12 5q-23 14 -54 16q-43 0 -72 -41t-29 -90v-260q0 -22 -22 -22h-41q-23 0 -23 22v447q0 10 6.5 16t15.5 6h36q21 0 23 -22zM365 710l-131 -131q-8 -5 -11 -5q-6 0 -11 5
l-131 131q-7 7 -7 13q0 7 7 12l22 21q9 7 13 7q7 0 11 -5l96 -96l95 96q4 5 11 5q5 0 12 -7l24 -21q6 -6 6 -12q0 -4 -6 -13z" />
    <glyph glyph-name="Sacute" unicode="&#x15a;" horiz-adv-x="641"
d="M501 588q-89 81 -181 81q-79 0 -120 -35.5t-41 -84.5q0 -24 14.5 -43.5t43.5 -33.5t54.5 -22.5t65.5 -19.5q124 -34 170 -60q93 -53 94 -148q0 -105 -80 -168.5t-200 -63.5q-79 0 -149.5 32.5t-117.5 93.5q-8 11 -8 18q0 8 9 16l32 27q7 5 15 5q7 0 22 -15
q41 -42 100.5 -67.5t99.5 -25.5q71 0 131 37.5t60 104.5q0 20 -6.5 36t-23.5 29t-31 21.5t-43.5 18.5t-45 14t-52.5 14q-127 33 -186.5 78t-59.5 119q0 92 70.5 149.5t186.5 57.5q59 0 121 -26.5t106 -68.5q19 -21 19 -28q0 -8 -8 -16l-30 -29q-7 -7 -13 -7q-8 0 -18 10z
M413 929l-45 -105q-10 -21 -27 -21h-36q-26 0 -11 32l44 102q8 21 27 21h40q22 0 8 -29z" />
    <glyph glyph-name="sacute" unicode="&#x15b;" horiz-adv-x="425"
d="M39 100q-3 4 -2 11t7 9l50 20q16 7 23 -15q10 -28 38.5 -41.5t53.5 -13.5q36 0 65 18t29 47q0 30 -27 47.5t-76 30.5q-69 18 -107.5 55.5t-38.5 93.5q0 62 44.5 101.5t115.5 39.5q96 0 151 -97q7 -11 -1 -17l-41 -29q-11 -6 -24 13l-3 3q-36 49 -81 49q-35 0 -58 -19
t-23 -44q0 -46 82 -68q171 -44 171 -159q0 -66 -49.5 -105t-128.5 -39q-58 0 -107 29t-63 80zM305 712l-45 -105q-10 -21 -27 -21h-36q-26 0 -11 32l44 102q8 21 27 21h40q22 0 8 -29z" />
    <glyph glyph-name="Scircumflex" unicode="&#x15c;" horiz-adv-x="641"
d="M501 588q-89 81 -181 81q-79 0 -120 -35.5t-41 -84.5q0 -24 14.5 -43.5t43.5 -33.5t54.5 -22.5t65.5 -19.5q124 -34 170 -60q93 -53 94 -148q0 -105 -80 -168.5t-200 -63.5q-79 0 -149.5 32.5t-117.5 93.5q-8 11 -8 18q0 8 9 16l32 27q7 5 15 5q7 0 22 -15
q41 -42 100.5 -67.5t99.5 -25.5q71 0 131 37.5t60 104.5q0 20 -6.5 36t-23.5 29t-31 21.5t-43.5 18.5t-45 14t-52.5 14q-127 33 -186.5 78t-59.5 119q0 92 70.5 149.5t186.5 57.5q59 0 121 -26.5t106 -68.5q19 -21 19 -28q0 -8 -8 -16l-30 -29q-7 -7 -13 -7q-8 0 -18 10z
M327 973l131 -131q7 -7 7 -13q0 -5 -7 -12l-23 -21q-7 -7 -12 -7q-7 0 -12 5l-95 96l-95 -96q-5 -5 -12 -5q-3 0 -12 7l-23 21q-7 7 -7 12q0 2 7 13l131 131q5 5 11 5t11 -5z" />
    <glyph glyph-name="scircumflex" unicode="&#x15d;" horiz-adv-x="425"
d="M39 100q-3 4 -2 11t7 9l50 20q16 7 23 -15q10 -28 38.5 -41.5t53.5 -13.5q36 0 65 18t29 47q0 30 -27 47.5t-76 30.5q-69 18 -107.5 55.5t-38.5 93.5q0 62 44.5 101.5t115.5 39.5q96 0 151 -97q7 -11 -1 -17l-41 -29q-11 -6 -24 13l-3 3q-36 49 -81 49q-35 0 -58 -19
t-23 -44q0 -46 82 -68q171 -44 171 -159q0 -66 -49.5 -105t-128.5 -39q-58 0 -107 29t-63 80zM233 760l131 -131q7 -7 7 -13q0 -5 -7 -12l-23 -21q-7 -7 -12 -7q-7 0 -12 5l-95 96l-95 -96q-5 -5 -12 -5q-3 0 -12 7l-23 21q-7 7 -7 12q0 2 7 13l131 131q5 5 11 5t11 -5z" />
    <glyph glyph-name="Scedilla" unicode="&#x15e;" horiz-adv-x="641"
d="M501 588q-89 81 -181 81q-79 0 -120 -35.5t-41 -84.5q0 -24 14.5 -43.5t43.5 -33.5t54.5 -22.5t65.5 -19.5q124 -34 170 -60q93 -53 94 -148q0 -105 -80 -168.5t-200 -63.5q-79 0 -149.5 32.5t-117.5 93.5q-8 11 -8 18q0 8 9 16l32 27q7 5 15 5q7 0 22 -15
q41 -42 100.5 -67.5t99.5 -25.5q71 0 131 37.5t60 104.5q0 20 -6.5 36t-23.5 29t-31 21.5t-43.5 18.5t-45 14t-52.5 14q-127 33 -186.5 78t-59.5 119q0 92 70.5 149.5t186.5 57.5q59 0 121 -26.5t106 -68.5q19 -21 19 -28q0 -8 -8 -16l-30 -29q-7 -7 -13 -7q-8 0 -18 10z
M350 -14q0 -25 23 -42l4 -3q20 -12 32 -21.5t22.5 -28.5t10.5 -43q-5 -68 -120 -101q-2 -1 -7 -1q-13 0 -21 15.5t-8 30.5q0 11 10 14q33 7 53 20.5t20 28.5q0 16 -10.5 25.5t-32.5 21.5q-48 25 -48 72v17q0 9 3 11t12 2h43q14 0 14 -18z" />
    <glyph glyph-name="scedilla" unicode="&#x15f;" horiz-adv-x="425"
d="M39 100q-3 4 -2 11t7 9l50 20q16 7 23 -15q10 -28 38.5 -41.5t53.5 -13.5q36 0 65 18t29 47q0 30 -27 47.5t-76 30.5q-69 18 -107.5 55.5t-38.5 93.5q0 62 44.5 101.5t115.5 39.5q96 0 151 -97q7 -11 -1 -17l-41 -29q-11 -6 -24 13l-3 3q-36 49 -81 49q-35 0 -58 -19
t-23 -44q0 -46 82 -68q171 -44 171 -159q0 -66 -49.5 -105t-128.5 -39q-58 0 -107 29t-63 80zM238 -3q0 -25 23 -42l4 -3q20 -12 32 -21.5t22.5 -28.5t10.5 -43q-5 -68 -120 -101q-2 -1 -7 -1q-13 0 -21 15.5t-8 30.5q0 11 10 14q33 7 53 20.5t20 28.5q0 16 -10.5 25.5
t-32.5 21.5q-48 25 -48 72v17q0 9 3 11t12 2h43q14 0 14 -18z" />
    <glyph glyph-name="Scaron" unicode="&#x160;" horiz-adv-x="641"
d="M501 588q-89 81 -181 81q-79 0 -120 -35.5t-41 -84.5q0 -24 14.5 -43.5t43.5 -33.5t54.5 -22.5t65.5 -19.5q124 -34 170 -60q93 -53 94 -148q0 -105 -80 -168.5t-200 -63.5q-79 0 -149.5 32.5t-117.5 93.5q-8 11 -8 18q0 8 9 16l32 27q7 5 15 5q7 0 22 -15
q41 -42 100.5 -67.5t99.5 -25.5q71 0 131 37.5t60 104.5q0 20 -6.5 36t-23.5 29t-31 21.5t-43.5 18.5t-45 14t-52.5 14q-127 33 -186.5 78t-59.5 119q0 92 70.5 149.5t186.5 57.5q59 0 121 -26.5t106 -68.5q19 -21 19 -28q0 -8 -8 -16l-30 -29q-7 -7 -13 -7q-8 0 -18 10z
M449 925l-131 -131q-8 -5 -11 -5q-6 0 -11 5l-131 131q-7 7 -7 13q0 7 7 12l22 21q9 7 13 7q7 0 11 -5l96 -96l95 96q4 5 11 5q5 0 12 -7l24 -21q6 -6 6 -12q0 -4 -6 -13z" />
    <glyph glyph-name="scaron" unicode="&#x161;" horiz-adv-x="425"
d="M39 100q-3 4 -2 11t7 9l50 20q16 7 23 -15q10 -28 38.5 -41.5t53.5 -13.5q36 0 65 18t29 47q0 30 -27 47.5t-76 30.5q-69 18 -107.5 55.5t-38.5 93.5q0 62 44.5 101.5t115.5 39.5q96 0 151 -97q7 -11 -1 -17l-41 -29q-11 -6 -24 13l-3 3q-36 49 -81 49q-35 0 -58 -19
t-23 -44q0 -46 82 -68q171 -44 171 -159q0 -66 -49.5 -105t-128.5 -39q-58 0 -107 29t-63 80zM355 710l-131 -131q-8 -5 -11 -5q-6 0 -11 5l-131 131q-7 7 -7 13q0 7 7 12l22 21q9 7 13 7q7 0 11 -5l96 -96l95 96q4 5 11 5q5 0 12 -7l24 -21q6 -6 6 -12q0 -4 -6 -13z" />
    <glyph glyph-name="Tcommaaccent" unicode="&#x162;" horiz-adv-x="611"
d="M44 742h514q23 0 24 -22v-41q0 -24 -24 -24h-213v-633q0 -22 -23 -22h-41q-10 0 -16.5 6t-6.5 16v633h-214q-23 0 -23 24v41q0 22 23 22zM229 -151q0 28 19.5 47.5t47.5 19.5q29 0 48 -20t19 -52q0 -43 -12 -77t-25.5 -48t-23.5 -14q-6 0 -11 4l-16 12q-7 7 -7 15
q0 6 9 18t9 25v4q-23 4 -40 23t-17 43z" />
    <glyph glyph-name="tcommaaccent" unicode="&#x163;" horiz-adv-x="328"
d="M251 -8q-2 0 -7.5 -0.5t-8.5 -0.5q-28 0 -47 4t-38 15.5t-29 37t-10 63.5v300h-60q-25 0 -25 22v37q0 21 25 21h60v141q0 16 17 20l51 7q19 0 19 -26v-142h74q22 0 22 -23v-33q0 -24 -22 -24h-74v-268q0 -48 10 -58.5t43 -11.5q25 0 25 -25v-32q0 -22 -25 -24zM95 -151
q0 28 19.5 47.5t47.5 19.5q29 0 48 -20t19 -52q0 -43 -12 -77t-25.5 -48t-23.5 -14q-6 0 -11 4l-16 12q-7 7 -7 15q0 6 9 18t9 25v4q-23 4 -40 23t-17 43z" />
    <glyph glyph-name="Tcaron" unicode="&#x164;" horiz-adv-x="611"
d="M44 742h514q23 0 24 -22v-41q0 -24 -24 -24h-213v-633q0 -22 -23 -22h-41q-10 0 -16.5 6t-6.5 16v633h-214q-23 0 -23 24v41q0 22 23 22zM444 921l-131 -131q-8 -5 -11 -5q-6 0 -11 5l-131 131q-7 7 -7 13q0 7 7 12l22 21q9 7 13 7q7 0 11 -5l96 -96l95 96q4 5 11 5
q5 0 12 -7l24 -21q6 -6 6 -12q0 -4 -6 -13z" />
    <glyph glyph-name="tcaron" unicode="&#x165;" horiz-adv-x="328"
d="M251 -8q-2 0 -7.5 -0.5t-8.5 -0.5q-28 0 -47 4t-38 15.5t-29 37t-10 63.5v300h-60q-25 0 -25 22v37q0 21 25 21h60v141q0 16 17 20l51 7q19 0 19 -26v-142h74q22 0 22 -23v-33q0 -24 -22 -24h-74v-268q0 -48 10 -58.5t43 -11.5q25 0 25 -25v-32q0 -22 -25 -24zM239 691
q0 28 19.5 47.5t46.5 19.5q29 0 48 -20t19 -52q0 -43 -12 -77t-25 -48t-23 -14q-7 0 -12 4l-15 12q-8 6 -8 15q0 4 9.5 16t9.5 27v4q-23 4 -40 23t-17 43z" />
    <glyph glyph-name="Tbar" unicode="&#x166;" horiz-adv-x="611"
d="M44 742h514q23 0 24 -22v-41q0 -24 -24 -24h-213v-162h88q15 0 15 -17v-51q0 -6 -4.5 -11.5t-10.5 -5.5h-88v-386q0 -22 -23 -22h-41q-10 0 -16.5 6t-6.5 16v386h-80q-18 0 -18 17v51q0 17 18 17h80v162h-214q-23 0 -23 24v41q0 22 23 22z" />
    <glyph glyph-name="tbar" unicode="&#x167;" horiz-adv-x="328"
d="M254 -8q-2 0 -7.5 -0.5t-8.5 -0.5q-28 0 -47 4t-38 15.5t-29 37t-10 63.5v148h-60q-18 0 -18 17v44q0 16 18 16h60v75h-60q-25 0 -25 22v37q0 21 25 21h60v141q0 16 17 20l51 7q19 0 19 -26v-142h74q22 0 22 -23v-33q0 -24 -22 -24h-74v-75h64q15 0 15 -16v-44
q0 -17 -15 -17h-64v-116q0 -48 10 -58.5t43 -11.5q25 0 25 -25v-32q0 -22 -25 -24z" />
    <glyph glyph-name="Utilde" unicode="&#x168;" horiz-adv-x="752"
d="M158 720v-417q0 -99 60 -165t158 -66q102 0 160.5 65.5t58.5 165.5v417q0 9 6.5 15.5t16.5 6.5h38q10 0 18 -6.5t8 -15.5v-427q0 -135 -88.5 -220t-217.5 -85q-126 0 -216 89.5t-90 215.5v427q0 8 6 15t15 7h44q8 0 15.5 -6.5t7.5 -15.5zM262 819q-4 -4 -7 -4q-2 0 -10 4
q-14 12 -22 20q-4 4 -4 9q0 6 7 13q39 54 98 54q28 0 60 -22l27 -19q17 -11 34 -11q20 0 36 14q3 3 10 12.5t10 12.5q4 4 8 4q1 0 9 -4q2 -1 10.5 -9t11.5 -10q4 -5 4 -10q0 -3 -3 -8t-4 -5q-37 -54 -97 -54q-29 0 -61 22l-27 19q-16 11 -34 11q-20 0 -36 -14
q-3 -3 -9.5 -12.5t-10.5 -12.5z" />
    <glyph glyph-name="utilde" unicode="&#x169;" horiz-adv-x="568"
d="M409 22l-9 45q-60 -78 -135 -78q-85 0 -145 61t-60 147v274q0 20 20 20h44q23 0 23 -25v-270q0 -49 38.5 -85t88.5 -36q49 0 86.5 35t39.5 85v274q0 22 23 22h41q23 0 23 -22v-447q0 -22 -22 -22h-33q-23 0 -23 22zM166 592q-4 -4 -7 -4q-2 0 -10 4q-14 12 -22 20
q-4 4 -4 9q0 6 7 13q39 54 98 54q28 0 60 -22l27 -19q17 -11 34 -11q20 0 36 14q3 3 10 12.5t10 12.5q4 4 8 4q1 0 9 -4q2 -2 10.5 -9.5t11.5 -9.5q4 -5 4 -10q0 -3 -3 -8t-4 -5q-37 -54 -97 -54q-29 0 -61 22l-27 19q-16 11 -34 11q-20 0 -36 -14q-3 -3 -9.5 -12.5
t-10.5 -12.5z" />
    <glyph glyph-name="Umacron" unicode="&#x16a;" horiz-adv-x="752"
d="M158 720v-417q0 -99 60 -165t158 -66q102 0 160.5 65.5t58.5 165.5v417q0 9 6.5 15.5t16.5 6.5h38q10 0 18 -6.5t8 -15.5v-427q0 -135 -88.5 -220t-217.5 -85q-126 0 -216 89.5t-90 215.5v427q0 8 6 15t15 7h44q8 0 15.5 -6.5t7.5 -15.5zM187 859v39q0 17 18 17h350
q18 0 18 -17v-39q0 -7 -4.5 -13t-13.5 -6h-350q-18 0 -18 19z" />
    <glyph glyph-name="umacron" unicode="&#x16b;" horiz-adv-x="568"
d="M409 22l-9 45q-60 -78 -135 -78q-85 0 -145 61t-60 147v274q0 20 20 20h44q23 0 23 -25v-270q0 -49 38.5 -85t88.5 -36q49 0 86.5 35t39.5 85v274q0 22 23 22h41q23 0 23 -22v-447q0 -22 -22 -22h-33q-23 0 -23 22zM80 617v39q0 17 18 17h350q18 0 18 -17v-39
q0 -7 -4.5 -13t-13.5 -6h-350q-18 0 -18 19z" />
    <glyph glyph-name="Ubreve" unicode="&#x16c;" horiz-adv-x="752"
d="M158 720v-417q0 -99 60 -165t158 -66q102 0 160.5 65.5t58.5 165.5v417q0 9 6.5 15.5t16.5 6.5h38q10 0 18 -6.5t8 -15.5v-427q0 -135 -88.5 -220t-217.5 -85q-126 0 -216 89.5t-90 215.5v427q0 8 6 15t15 7h44q8 0 15.5 -6.5t7.5 -15.5zM375 825q-52 0 -88 34.5
t-36 80.5q0 8 6 13.5t14 5.5h33q9 0 14.5 -5.5t5.5 -13.5q0 -19 14 -32t39 -13q22 0 36 12t14 28q0 24 20 24h29q25 0 25 -19q0 -47 -37 -81.5t-89 -33.5z" />
    <glyph glyph-name="ubreve" unicode="&#x16d;" horiz-adv-x="568"
d="M409 22l-9 45q-60 -78 -135 -78q-85 0 -145 61t-60 147v274q0 20 20 20h44q23 0 23 -25v-270q0 -49 38.5 -85t88.5 -36q49 0 86.5 35t39.5 85v274q0 22 23 22h41q23 0 23 -22v-447q0 -22 -22 -22h-33q-23 0 -23 22zM284 608q-52 0 -88 34.5t-36 80.5q0 8 6 13.5t14 5.5
h33q9 0 14.5 -5.5t5.5 -13.5q0 -19 14 -32t39 -13q22 0 36 12t14 28q0 24 20 24h29q25 0 25 -19q0 -47 -37 -81.5t-89 -33.5z" />
    <glyph glyph-name="Uring" unicode="&#x16e;" horiz-adv-x="752"
d="M158 720v-417q0 -99 60 -165t158 -66q102 0 160.5 65.5t58.5 165.5v417q0 9 6.5 15.5t16.5 6.5h38q10 0 18 -6.5t8 -15.5v-427q0 -135 -88.5 -220t-217.5 -85q-126 0 -216 89.5t-90 215.5v427q0 8 6 15t15 7h44q8 0 15.5 -6.5t7.5 -15.5zM373 978q43 0 74.5 -31t31.5 -75
q0 -43 -31 -73.5t-75 -30.5q-43 0 -73.5 30t-30.5 74t30.5 75t73.5 31zM373 925q-22 0 -37 -15t-15 -38q0 -22 14.5 -37t37.5 -15t38 15t15 37t-15 37.5t-38 15.5z" />
    <glyph glyph-name="uring" unicode="&#x16f;" horiz-adv-x="568"
d="M409 22l-9 45q-60 -78 -135 -78q-85 0 -145 61t-60 147v274q0 20 20 20h44q23 0 23 -25v-270q0 -49 38.5 -85t88.5 -36q49 0 86.5 35t39.5 85v274q0 22 23 22h41q23 0 23 -22v-447q0 -22 -22 -22h-33q-23 0 -23 22zM284 774q44 0 75 -31t31 -75q0 -43 -31 -73.5
t-75 -30.5t-74 30t-30 74t30.5 75t73.5 31zM284 721q-22 0 -37 -15t-15 -38q0 -22 15 -37t37 -15q23 0 38 15t15 37t-15.5 37.5t-37.5 15.5z" />
    <glyph glyph-name="Uhungarumlaut" unicode="&#x170;" horiz-adv-x="752"
d="M158 720v-417q0 -99 60 -165t158 -66q102 0 160.5 65.5t58.5 165.5v417q0 9 6.5 15.5t16.5 6.5h38q10 0 18 -6.5t8 -15.5v-427q0 -135 -88.5 -220t-217.5 -85q-126 0 -216 89.5t-90 215.5v427q0 8 6 15t15 7h44q8 0 15.5 -6.5t7.5 -15.5zM380 928l-45 -105
q-10 -21 -27 -21h-36q-17 0 -17 14q2 8 6 18l44 102q11 21 27 21h40q15 0 15 -9q0 -5 -7 -20zM545 928l-45 -105q-10 -21 -27 -21h-36q-17 0 -17 14q2 8 6 18l44 102q11 21 27 21h40q15 0 15 -9q0 -5 -7 -20z" />
    <glyph glyph-name="uhungarumlaut" unicode="&#x171;" horiz-adv-x="568"
d="M409 22l-9 45q-60 -78 -135 -78q-85 0 -145 61t-60 147v274q0 20 20 20h44q23 0 23 -25v-270q0 -49 38.5 -85t88.5 -36q49 0 86.5 35t39.5 85v274q0 22 23 22h41q23 0 23 -22v-447q0 -22 -22 -22h-33q-23 0 -23 22zM277 713l-45 -105q-10 -21 -27 -21h-36q-17 0 -17 14
q2 8 6 18l44 102q11 21 27 21h40q15 0 15 -9q0 -5 -7 -20zM442 713l-45 -105q-10 -21 -27 -21h-36q-17 0 -17 14q2 8 6 18l44 102q11 21 27 21h40q15 0 15 -9q0 -5 -7 -20z" />
    <glyph glyph-name="Uogonek" unicode="&#x172;" horiz-adv-x="752"
d="M158 720v-417q0 -99 60 -165t158 -66q102 0 160.5 65.5t58.5 165.5v417q0 9 6.5 15.5t16.5 6.5h38q10 0 18 -6.5t8 -15.5v-427q0 -135 -88.5 -220t-217.5 -85q-126 0 -216 89.5t-90 215.5v427q0 8 6 15t15 7h44q8 0 15.5 -6.5t7.5 -15.5zM345 -6q0 19 13 19h43
q16 0 16 -14v-13q0 -23 -14 -43t-35 -29q-2 -2 -9 -6t-9.5 -5.5t-7.5 -5.5t-7 -6.5t-5 -6t-4 -7.5t-1 -9q0 -34 74 -50q10 -3 10 -14q0 -14 -8.5 -30t-20.5 -16q-1 0 -3.5 0.5t-3.5 0.5q-115 34 -121 102q0 25 12 44.5t22 27t35 23.5q24 16 24 38z" />
    <glyph glyph-name="uogonek" unicode="&#x173;" horiz-adv-x="566"
d="M409 22l-9 45q-60 -78 -135 -78q-85 0 -145 61t-60 147v274q0 20 20 20h44q23 0 23 -25v-270q0 -49 38.5 -85t88.5 -36q49 0 86.5 35t39.5 85v274q0 22 23 22h41q23 0 23 -22v-447q0 -22 -22 -22h-33q-23 0 -23 22zM413 -6q0 19 13 19h43q16 0 16 -14v-13q0 -23 -14 -43
t-35 -29q-2 -2 -9 -6t-9.5 -5.5t-7.5 -5.5t-7 -6.5t-5 -6t-4 -7.5t-1 -9q0 -34 74 -50q10 -3 10 -14q0 -14 -8.5 -30t-20.5 -16q-1 0 -3.5 0.5t-3.5 0.5q-115 34 -121 102q0 25 12 44.5t22 27t35 23.5q24 16 24 38z" />
    <glyph glyph-name="Wcircumflex" unicode="&#x174;" horiz-adv-x="1065"
d="M357 130l240 598q5 14 18 14h55q18 0 18 -15l-2 -8l-114 -275q86 -210 129 -314q139 337 242 593q8 19 27 19h42q22 0 22 -15q0 -4 -2 -6l-291 -699q0 -4 -2 -4q0 -1 -2 -5t-7.5 -8.5t-13.5 -4.5h-30q-22 0 -25 19l-134 320l-132 -317q-10 -22 -28 -22h-27q-18 0 -24 19
l-291 700l-1 3v5q0 15 18 15h49q17 0 26 -22zM536 972l131 -131q7 -7 7 -13q0 -5 -7 -12l-23 -21q-7 -7 -12 -7q-7 0 -12 5l-95 96l-95 -96q-5 -5 -12 -5q-3 0 -12 7l-23 21q-7 7 -7 12q0 2 7 13l131 131q5 5 11 5t11 -5z" />
    <glyph glyph-name="wcircumflex" unicode="&#x175;" horiz-adv-x="773"
d="M118 471q116 -295 133 -336q83 207 89 223l45 114q7 19 27 19h42q23 0 23 -17q0 -9 -3 -12q-17 -43 -41 -98q19 -49 57 -144l35 -85q17 41 40 98.5t51 129.5t43 109q8 19 27 19h42q24 0 24 -17q0 -2 -2 -7l-1 -5l-183 -443q0 -4 -9 -12q-7 -7 -17 -7h-29q-17 0 -26 19
l-97 234l-96 -234l-2 -3l-3.5 -7t-6.5 -5.5t-11 -2.5l-2 -1h-30q-21 0 -26 19l-183 443l-2 11v2q0 16 22 16h42q19 0 28 -20zM400 760l131 -131q7 -7 7 -13q0 -5 -7 -12l-23 -21q-7 -7 -12 -7q-7 0 -12 5l-95 96l-95 -96q-5 -5 -12 -5q-3 0 -12 7l-23 21q-7 7 -7 12
q0 2 7 13l131 131q5 5 11 5t11 -5z" />
    <glyph glyph-name="Ycircumflex" unicode="&#x176;" horiz-adv-x="659"
d="M286 324l-242 393q-6 9 -6 15q0 10 15 10h65q10 -1 13.5 -4t12.5 -17l185 -308l189 312q10 16 23 17h68q12 0 12 -9q0 -7 -5 -13q-41 -66 -121.5 -196.5t-121.5 -196.5v-304q0 -23 -23 -23h-43q-21 0 -21 23v301zM339 974l131 -131q7 -7 7 -13q0 -5 -7 -12l-23 -21
q-7 -7 -12 -7q-7 0 -12 5l-95 96l-95 -96q-5 -5 -12 -5q-3 0 -12 7l-23 21q-7 7 -7 12q0 2 7 13l131 131q5 5 11 5t11 -5z" />
    <glyph glyph-name="ycircumflex" unicode="&#x177;" horiz-adv-x="501"
d="M478 446q-46 -109 -131 -318t-125 -304q-8 -17 -27 -17h-40q-23 0 -23 17q0 2 2 10l72 176l-184 446q-4 9 -4 19q0 16 21 16h43q19 0 26 -18q64 -168 143 -362l143 364q8 16 27 16h41q24 0 24 -20q0 -7 -8 -25zM270 760l131 -131q7 -7 7 -13q0 -5 -7 -12l-23 -21
q-7 -7 -12 -7q-7 0 -12 5l-95 96l-95 -96q-5 -5 -12 -5q-3 0 -12 7l-23 21q-7 7 -7 12q0 2 7 13l131 131q5 5 11 5t11 -5z" />
    <glyph glyph-name="Ydieresis" unicode="&#x178;" horiz-adv-x="659"
d="M286 324l-242 393q-6 9 -6 15q0 10 15 10h65q10 -1 13.5 -4t12.5 -17l185 -308l189 312q10 16 23 17h68q12 0 12 -9q0 -7 -5 -13q-41 -66 -121.5 -196.5t-121.5 -196.5v-304q0 -23 -23 -23h-43q-21 0 -21 23v301zM172 875q0 26 18 44.5t44 18.5q27 0 45 -18.5t18 -44.5
t-18 -44t-45 -18q-26 0 -44 18.5t-18 43.5zM358 876q0 26 18 44.5t44 18.5q27 0 45 -18.5t18 -44.5t-18 -44t-45 -18q-26 0 -44 18t-18 44z" />
    <glyph glyph-name="Zacute" unicode="&#x179;" horiz-adv-x="639"
d="M574 0h-518q-10 0 -17 6.5t-7 16.5v45q0 11 7 18l439 569h-411q-24 0 -24 23v42q0 22 24 22h505q10 0 17 -6.5t7 -16.5v-46q0 -10 -5 -16l-437 -570h420q23 0 23 -24v-40q0 -9 -6.5 -16t-16.5 -7zM419 930l-45 -105q-10 -21 -27 -21h-36q-26 0 -11 32l44 102q8 21 27 21
h40q22 0 8 -29z" />
    <glyph glyph-name="zacute" unicode="&#x17a;" horiz-adv-x="517"
d="M437 0h-361q-10 0 -18 8t-8 18v30q0 11 4 16q33 38 147.5 168t147.5 168h-268q-26 0 -26 28v29q0 26 26 26h352q27 0 27 -22v-36q0 -17 -14 -34l-278 -318h269q25 0 25 -25v-30q0 -10 -7.5 -18t-17.5 -8zM318 713l-45 -105q-10 -21 -27 -21h-36q-26 0 -11 32l44 102
q8 21 27 21h40q22 0 8 -29z" />
    <glyph glyph-name="Zdotaccent" unicode="&#x17b;" horiz-adv-x="639"
d="M574 0h-518q-10 0 -17 6.5t-7 16.5v45q0 11 7 18l439 569h-411q-24 0 -24 23v42q0 22 24 22h505q10 0 17 -6.5t7 -16.5v-46q0 -10 -5 -16l-437 -570h420q23 0 23 -24v-40q0 -9 -6.5 -16t-16.5 -7zM266 886q0 26 18 44.5t44 18.5q27 0 45 -18.5t18 -44.5t-18 -44.5
t-45 -18.5q-26 0 -44 18.5t-18 44.5z" />
    <glyph glyph-name="zdotaccent" unicode="&#x17c;" horiz-adv-x="517"
d="M437 0h-361q-10 0 -18 8t-8 18v30q0 11 4 16q33 38 147.5 168t147.5 168h-268q-26 0 -26 28v29q0 26 26 26h352q27 0 27 -22v-36q0 -17 -14 -34l-278 -318h269q25 0 25 -25v-30q0 -10 -7.5 -18t-17.5 -8zM209 634q0 26 18 44.5t44 18.5q27 0 45 -18.5t18 -44.5t-18 -44.5
t-45 -18.5q-26 0 -44 18.5t-18 44.5z" />
    <glyph glyph-name="Zcaron" unicode="&#x17d;" horiz-adv-x="639"
d="M574 0h-518q-10 0 -17 6.5t-7 16.5v45q0 11 7 18l439 569h-411q-24 0 -24 23v42q0 22 24 22h505q10 0 17 -6.5t7 -16.5v-46q0 -10 -5 -16l-437 -570h420q23 0 23 -24v-40q0 -9 -6.5 -16t-16.5 -7zM483 962l-131 -131q-8 -5 -11 -5q-6 0 -11 5l-131 131q-7 7 -7 13
q0 7 7 12l22 21q9 7 13 7q7 0 11 -5l96 -96l95 96q4 5 11 5q5 0 12 -7l24 -21q6 -6 6 -12q0 -4 -6 -13z" />
    <glyph glyph-name="zcaron" unicode="&#x17e;" horiz-adv-x="517"
d="M437 0h-361q-10 0 -18 8t-8 18v30q0 11 4 16q33 38 147.5 168t147.5 168h-268q-26 0 -26 28v29q0 26 26 26h352q27 0 27 -22v-36q0 -17 -14 -34l-278 -318h269q25 0 25 -25v-30q0 -10 -7.5 -18t-17.5 -8zM397 710l-131 -131q-8 -5 -11 -5q-6 0 -11 5l-131 131q-7 7 -7 13
q0 7 7 12l22 21q9 7 13 7q7 0 11 -5l96 -96l95 96q4 5 11 5q5 0 12 -7l24 -21q6 -6 6 -12q0 -4 -6 -13z" />
    <glyph glyph-name="florin" unicode="&#x192;" horiz-adv-x="309"
d="M25 -196l-20 -3q-17 2 -17 17v53q0 17 17 17q36 0 64 29t28 66v446h-71q-17 0 -17 19v46q0 17 17 17h71v68q0 68 46 117t114 62l20 3q17 -2 17 -17v-51q0 -8 -5 -13.5t-12 -5.5q-38 0 -65 -28.5t-27 -66.5v-68h92q17 0 17 -17v-46q0 -19 -17 -19h-92v-411
q0 -81 -43.5 -139.5t-116.5 -74.5z" />
    <glyph glyph-name="AEacute" unicode="&#x1fc;" horiz-adv-x="1159"
d="M247 162l-113 -142q-16 -20 -33 -20h-66q-17 0 -17 9q0 4 2 8.5t4 8.5l3 3l565 695q15 18 32 18h476q23 0 23 -23v-41q0 -23 -24 -23h-410v-221h325q22 0 22 -23v-41q0 -23 -22 -23h-325v-260h415q22 0 22 -24v-41q0 -22 -22 -22h-480q-22 0 -22 21v141h-355zM602 600
l-285 -353h285v353zM742 928l-45 -105q-10 -21 -27 -21h-36q-26 0 -11 32l44 102q8 21 27 21h40q22 0 8 -29z" />
    <glyph glyph-name="aeacute" unicode="&#x1fd;" horiz-adv-x="967"
d="M122 244q0 -72 43.5 -121.5t112.5 -49.5q70 0 110.5 47.5t40.5 121.5t-40 123.5t-111 49.5q-70 0 -113 -49.5t-43 -121.5zM532 275h311q-14 66 -59 105.5t-102 39.5q-51 0 -94 -41t-56 -104zM429 25v47q-26 -39 -60.5 -60.5t-90.5 -21.5q-104 0 -171.5 73t-67.5 181
t67.5 181.5t171.5 73.5q56 0 90 -22t61 -61l4 50q2 25 24 25h29q11 0 18.5 -6.5t7.5 -18.5v-51q67 80 174 80q91 0 158 -65.5t73 -170.5v-9q0 -26 -14.5 -32.5t-46.5 -6.5h-321q12 -65 56.5 -105t98.5 -40q61 0 113 43q19 14 22 14q5 0 10 -6l22 -29q7 -8 7 -14t-12 -15
q-81 -68 -158 -68q-111 0 -182 87v-56q0 -10 -7.5 -16t-18.5 -6h-32q-25 0 -25 25zM554 713l-45 -105q-10 -21 -27 -21h-36q-26 0 -11 32l44 102q8 21 27 21h40q22 0 8 -29z" />
    <glyph glyph-name="Oslashacute" unicode="&#x1fe;" horiz-adv-x="853"
d="M512 928l-45 -105q-10 -21 -27 -21h-36q-26 0 -11 32l44 102q8 21 27 21h40q22 0 8 -29zM426 752q57 0 108 -15l45 103q10 22 31 22h45q22 0 22 -12q0 -6 -4 -14q-3 -6 -27 -61t-31 -73q88 -50 140.5 -138.5t52.5 -194.5q0 -158 -112 -269t-271 -111q-52 0 -103 14
l-50 -103q-8 -17 -25 -17h-52q-17 0 -17 11q0 2 2 10l61 132q-90 50 -143.5 139t-53.5 195q0 158 112 270t270 112zM131 371q0 -123 86 -209.5t209 -86.5q122 0 208 86.5t86 209.5q0 121 -86 207.5t-208 86.5q-123 0 -209 -86t-86 -208z" />
    <glyph glyph-name="oslashacute" unicode="&#x1ff;" horiz-adv-x="596"
d="M384 713l-45 -105q-10 -21 -27 -21h-36q-26 0 -11 32l44 102q8 21 27 21h40q22 0 8 -29zM44 244q0 107 75 182t181 75q27 0 48 -4l21 50q8 19 27 19h38q19 0 19 -10q0 -4 -3 -12l-30 -73q62 -33 99.5 -93.5t37.5 -133.5q0 -106 -75 -181t-182 -75q-37 0 -75 11l-25 -60
q-6 -15 -21 -15h-46q-14 0 -14 10q0 5 2 8l36 89q-52 34 -82.5 90.5t-30.5 122.5zM125 244q0 -72 51.5 -124t123.5 -52t124 52t52 124t-52 124.5t-124 52.5t-123.5 -52.5t-51.5 -124.5z" />
    <glyph glyph-name="Scommaaccent" unicode="&#x218;" horiz-adv-x="641"
d="M501 588q-89 81 -181 81q-79 0 -120 -35.5t-41 -84.5q0 -24 14.5 -43.5t43.5 -33.5t54.5 -22.5t65.5 -19.5q124 -34 170 -60q93 -53 94 -148q0 -105 -80 -168.5t-200 -63.5q-79 0 -149.5 32.5t-117.5 93.5q-8 11 -8 18q0 8 9 16l32 27q7 5 15 5q7 0 22 -15
q41 -42 100.5 -67.5t99.5 -25.5q71 0 131 37.5t60 104.5q0 20 -6.5 36t-23.5 29t-31 21.5t-43.5 18.5t-45 14t-52.5 14q-127 33 -186.5 78t-59.5 119q0 92 70.5 149.5t186.5 57.5q59 0 121 -26.5t106 -68.5q19 -21 19 -28q0 -8 -8 -16l-30 -29q-7 -7 -13 -7q-8 0 -18 10z
M261 -151q0 28 19.5 47.5t47.5 19.5q29 0 48 -20t19 -52q0 -43 -12 -77t-25.5 -48t-23.5 -14q-6 0 -11 4l-16 12q-7 7 -7 15q0 6 9 18t9 25v4q-23 4 -40 23t-17 43z" />
    <glyph glyph-name="scommaaccent" unicode="&#x219;" horiz-adv-x="425"
d="M39 100q-3 4 -2 11t7 9l50 20q16 7 23 -15q10 -28 38.5 -41.5t53.5 -13.5q36 0 65 18t29 47q0 30 -27 47.5t-76 30.5q-69 18 -107.5 55.5t-38.5 93.5q0 62 44.5 101.5t115.5 39.5q96 0 151 -97q7 -11 -1 -17l-41 -29q-11 -6 -24 13l-3 3q-36 49 -81 49q-35 0 -58 -19
t-23 -44q0 -46 82 -68q171 -44 171 -159q0 -66 -49.5 -105t-128.5 -39q-58 0 -107 29t-63 80zM131 -151q0 28 19.5 47.5t47.5 19.5q29 0 48 -20t19 -52q0 -43 -12 -77t-25.5 -48t-23.5 -14q-6 0 -11 4l-16 12q-7 7 -7 15q0 6 9 18t9 25v4q-23 4 -40 23t-17 43z" />
    <glyph glyph-name="uni021A" unicode="&#x21a;" horiz-adv-x="616"
d="M243 -151q0 28 19.5 47.5t47.5 19.5q29 0 48 -20t19 -52q0 -43 -12 -77t-25.5 -48t-23.5 -14q-6 0 -11 4l-16 12q-7 7 -7 15q0 6 9 18t9 25v4q-23 4 -40 23t-17 43zM49 742h514q23 0 24 -22v-41q0 -24 -24 -24h-213v-633q0 -22 -23 -22h-41q-10 0 -16.5 6t-6.5 16v633
h-214q-23 0 -23 24v41q0 22 23 22z" />
    <glyph glyph-name="uni021B" unicode="&#x21b;" horiz-adv-x="328"
d="M251 -8q-2 0 -7.5 -0.5t-8.5 -0.5q-28 0 -47 4t-38 15.5t-29 37t-10 63.5v300h-60q-25 0 -25 22v37q0 21 25 21h60v141q0 16 17 20l51 7q19 0 19 -26v-142h74q22 0 22 -23v-33q0 -24 -22 -24h-74v-268q0 -48 10 -58.5t43 -11.5q25 0 25 -25v-32q0 -22 -25 -24zM87 -151
q0 28 19.5 47.5t47.5 19.5q29 0 48 -20t19 -52q0 -43 -12 -77t-25.5 -48t-23.5 -14q-6 0 -11 4l-16 12q-7 7 -7 15q0 6 9 18t9 25v4q-23 4 -40 23t-17 43z" />
    <glyph glyph-name="circumflex" unicode="&#x2c6;" horiz-adv-x="374"
d="M197 760l131 -131q7 -7 7 -13q0 -5 -7 -12l-23 -21q-7 -7 -12 -7q-7 0 -12 5l-95 96l-95 -96q-5 -5 -12 -5q-3 0 -12 7l-23 21q-7 7 -7 12q0 2 7 13l131 131q5 5 11 5t11 -5z" />
    <glyph glyph-name="caron" unicode="&#x2c7;" horiz-adv-x="368"
d="M327 710l-131 -131q-8 -5 -11 -5q-6 0 -11 5l-131 131q-7 7 -7 13q0 7 7 12l22 21q9 7 13 7q7 0 11 -5l96 -96l95 96q4 5 11 5q5 0 12 -7l24 -21q6 -6 6 -12q0 -4 -6 -13z" />
    <glyph glyph-name="uni02C9" unicode="&#x2c9;" horiz-adv-x="490"
d="M51 639v38q0 18 18 18h351q18 0 18 -18v-38q0 -7 -5 -13.5t-13 -6.5h-351q-18 0 -18 20z" />
    <glyph glyph-name="breve" unicode="&#x2d8;" horiz-adv-x="326"
d="M162 608q-52 0 -88 34.5t-36 80.5q0 8 6 13.5t14 5.5h33q9 0 14.5 -5.5t5.5 -13.5q0 -19 14 -32t39 -13q22 0 36 12t14 28q0 24 20 24h29q25 0 25 -19q0 -47 -37 -81.5t-89 -33.5z" />
    <glyph glyph-name="dotaccent" unicode="&#x2d9;" horiz-adv-x="258"
d="M63 634q0 26 18 44.5t44 18.5q27 0 45 -18.5t18 -44.5t-18 -44t-45 -18q-25 0 -43.5 18t-18.5 44z" />
    <glyph glyph-name="ring" unicode="&#x2da;" horiz-adv-x="259"
d="M128 774q44 0 75 -31t31 -75q0 -43 -31 -73.5t-75 -30.5t-74 30t-30 74t30.5 75t73.5 31zM128 721q-22 0 -37 -15t-15 -38q0 -22 15 -37t37 -15q23 0 38 15t15 37t-15.5 37.5t-37.5 15.5z" />
    <glyph glyph-name="ogonek" unicode="&#x2db;" horiz-adv-x="277"
d="M134 -6q0 19 13 19h43q16 0 16 -14v-13q0 -23 -14 -43t-35 -29q-2 -2 -9 -6t-9.5 -5.5t-7.5 -5.5t-7 -6.5t-5 -6t-4 -7.5t-1 -9q0 -34 74 -50q10 -3 10 -14q0 -14 -8.5 -30t-20.5 -16q-1 0 -3.5 0.5t-3.5 0.5q-115 34 -121 102q0 25 12 44.5t22 27t35 23.5q24 16 24 38z
" />
    <glyph glyph-name="tilde" unicode="&#x2dc;" horiz-adv-x="353"
d="M54 592q-4 -4 -7 -4q-2 0 -10 4q-14 12 -22 20q-4 4 -4 9q0 6 7 13q39 54 98 54q28 0 60 -22l27 -19q17 -11 34 -11q20 0 36 14q3 3 10 12.5t10 12.5q4 4 8 4q1 0 9 -4q2 -2 10.5 -9.5t11.5 -9.5q4 -5 4 -10q0 -3 -3 -8t-4 -5q-37 -54 -97 -54q-29 0 -61 22l-27 19
q-16 11 -34 11q-20 0 -36 -14q-3 -3 -9.5 -12.5t-10.5 -12.5z" />
    <glyph glyph-name="hungarumlaut" unicode="&#x2dd;" horiz-adv-x="474"
d="M221 713l-45 -105q-10 -21 -27 -21h-36q-17 0 -17 14q2 8 6 18l44 102q11 21 27 21h40q15 0 15 -9q0 -5 -7 -20zM386 713l-45 -105q-10 -21 -27 -21h-36q-17 0 -17 14q2 8 6 18l44 102q11 21 27 21h40q15 0 15 -9q0 -5 -7 -20z" />
    <glyph glyph-name="uni037E" unicode="&#x37e;" horiz-adv-x="264"
d="M60 442q0 26 18 44.5t44 18.5q27 0 45 -18.5t18 -44.5t-18 -44.5t-45 -18.5q-26 0 -44 18.5t-18 44.5zM58 45q0 28 19.5 47.5t47.5 19.5q29 0 48 -20t19 -52q0 -43 -12 -77t-25.5 -48t-23.5 -14q-6 0 -11 4l-16 12q-7 7 -7 15q0 5 7 14q11 11 11 29v4q-23 4 -40 23
t-17 43z" />
    <glyph glyph-name="tonos" unicode="&#x384;" horiz-adv-x="258"
d="M141 564h-30q-19 2 -19 18l-17 149q2 12 13 12h72q16 0 13 -14l-15 -147q-4 -18 -17 -18z" />
    <glyph glyph-name="dieresistonos" unicode="&#x385;" horiz-adv-x="430"
d="M39 638v22q0 21 8.5 29t29.5 8h22q37 0 37 -37v-22q0 -38 -37 -38h-22q-20 0 -29 9t-9 29zM288 638v22q0 21 8.5 29t28.5 8h22q38 0 38 -37v-22q0 -20 -9 -29t-29 -9h-22q-37 0 -37 38zM197 597q-23 2 -23 22l-17 147v3q0 6 5.5 10.5t12.5 4.5h70q19 0 19 -17v-4
l-16 -144q-1 -8 -7.5 -15t-14.5 -7h-29z" />
    <glyph glyph-name="Alphatonos" unicode="&#x386;" horiz-adv-x="766"
d="M130 565h-30q-19 2 -19 18l-17 149q2 12 13 12h72q7 0 10.5 -4t2.5 -10l-15 -147q-4 -18 -17 -18zM172 162l-56 -142q-9 -20 -28 -20h-43q-21 0 -21 16l2 13q204 489 282 676l8 19q8 18 25 18h29q17 0 25 -18l288 -696q3 -8 3 -12q0 -16 -22 -16h-43q-20 0 -27 19
l-58 143h-364zM355 613l-147 -366h293z" />
    <glyph glyph-name="anoteleia" unicode="&#x387;" horiz-adv-x="227"
d="M55 276q0 26 18 44.5t44 18.5q27 0 45 -18.5t18 -44.5t-18 -44t-45 -18q-25 0 -43.5 18t-18.5 44z" />
    <glyph glyph-name="Epsilontonos" unicode="&#x388;" horiz-adv-x="642"
d="M39 564h-30q-18 2 -18 18l-17 149q0 12 13 12h71q7 0 11 -4t3 -10l-16 -147q-2 -18 -17 -18zM121 742h481q23 0 23 -23v-41q0 -23 -24 -23h-415v-221h330q22 0 22 -23v-41q0 -23 -22 -23h-330v-260h420q22 0 22 -24v-41q0 -22 -22 -22h-485q-22 0 -22 21v698q0 23 22 23z
" />
    <glyph glyph-name="Etatonos" unicode="&#x389;" horiz-adv-x="826"
d="M41 565h-30q-18 2 -18 18l-17 149q0 12 13 12h71q7 0 11 -4t3 -10l-16 -147q-2 -18 -17 -18zM671 432v288q0 22 22 22h41q9 0 16 -6.5t7 -15.5v-698q0 -22 -23 -22h-41q-22 0 -22 22v325h-442v-325q0 -22 -24 -22h-40q-22 0 -22 22v698q0 22 22 22h41q9 0 16 -6.5
t7 -15.5v-288h442z" />
    <glyph glyph-name="Iotatonos" unicode="&#x38a;"
d="M15 563h-30q-18 2 -18 18l-17 150q0 12 13 12h71q17 0 14 -15l-16 -147q-2 -18 -17 -18zM167 720v-698q0 -22 -22 -22h-42q-22 0 -22 22v698q0 22 22 22h42q22 0 22 -22z" />
    <glyph glyph-name="Omicrontonos" unicode="&#x38c;" horiz-adv-x="856"
d="M426 752q158 0 269.5 -112t111.5 -271q0 -158 -111.5 -269t-270.5 -111q-158 0 -269.5 111.5t-111.5 269.5t111.5 270t270.5 112zM130 371q0 -123 86.5 -209.5t209.5 -86.5q122 0 208 86.5t86 209.5q0 121 -86 207.5t-208 86.5q-123 0 -209.5 -86t-86.5 -208zM41 565h-30
q-19 2 -19 18l-17 149q2 12 13 12h72q16 0 13 -14l-15 -147q-4 -18 -17 -18z" />
    <glyph glyph-name="Upsilontonos" unicode="&#x38e;" horiz-adv-x="687"
d="M17 564h-30q-19 2 -19 18l-17 149q2 12 13 12h72q16 0 13 -14l-15 -147q-4 -18 -17 -18zM314 324l-242 393q-7 11 -7 15q0 10 15 10h65q10 -1 14 -4t12 -17l186 -308l188 312q10 16 23 17h69q12 0 12 -9q0 -5 -6 -13q-167 -271 -243 -393v-304q0 -23 -22 -23h-43
q-21 0 -21 23v301z" />
    <glyph glyph-name="Omegatonos" unicode="&#x38f;" horiz-adv-x="780"
d="M54 565h-30q-19 2 -19 18l-17 149q2 12 13 12h72q7 0 10.5 -4t2.5 -10l-15 -147q-4 -18 -17 -18zM102 88h134v45q-77 44 -122 120.5t-45 166.5q0 139 97 235.5t235 96.5t235 -96.5t97 -235.5q0 -89 -44 -165t-118 -120v-47h133q18 0 18 -17v-53q0 -18 -18 -18h-204
q-17 0 -17 17v171q0 17 18 17q63 29 102 87.5t39 129.5q0 99 -70 169t-170 70q-99 0 -168.5 -70t-69.5 -169q0 -72 38.5 -130t101.5 -87q8 0 13.5 -5t5.5 -12v-171q0 -17 -18 -17h-203q-17 0 -17 18v53q0 17 17 17z" />
    <glyph glyph-name="iotadieresistonos" unicode="&#x390;" horiz-adv-x="247"
d="M167 469v-447q0 -22 -22 -22h-41q-23 0 -23 22v447q0 10 6.5 16t15.5 6h41q10 0 16.5 -6.5t6.5 -15.5zM141 606h-30q-19 2 -19 18l-17 149q2 12 13 12h72q16 0 13 -14l-15 -147q-4 -18 -17 -18zM-64 636q0 26 18 44.5t44 18.5q27 0 45 -18.5t18 -44.5t-18 -44t-45 -18
q-26 0 -44 18t-18 44zM185 636q0 26 18.5 44.5t44.5 18.5q27 0 45 -18.5t18 -44.5t-18 -44t-45 -18q-26 0 -44.5 18t-18.5 44z" />
    <glyph glyph-name="Alpha" unicode="&#x391;" horiz-adv-x="716"
d="M172 162l-56 -142q-9 -20 -28 -20h-43q-21 0 -21 16l2 13q204 489 282 676l8 19q8 18 25 18h29q17 0 25 -18l288 -696q3 -8 3 -12q0 -16 -22 -16h-43q-20 0 -27 19l-58 143h-364zM355 613l-147 -366h293z" />
    <glyph glyph-name="Beta" unicode="&#x392;" horiz-adv-x="678"
d="M600 548q0 -91 -68 -151q48 -26 77.5 -76t29.5 -107q0 -87 -59.5 -150.5t-146.5 -63.5h-329q-23 0 -23 22v696q0 24 23 24h295q85 0 143 -55.5t58 -138.5zM432 342h-265v-257h265q49 0 84.5 38.5t35.5 90.5q0 51 -35 89.5t-85 38.5zM512 548q0 49 -31.5 79t-82.5 30h-231
v-230h231q48 0 81 35t33 86z" />
    <glyph glyph-name="Gamma" unicode="&#x393;" horiz-adv-x="605"
d="M81 16v708q0 18 18 18h478q18 0 18 -19v-50q0 -19 -18 -19h-407v-638q0 -16 -19 -16h-52q-18 0 -18 16z" />
    <glyph glyph-name="Delta" unicode="&#x394;" horiz-adv-x="735"
d="M687 0h-627q-18 0 -18 12l1 12l293 704q1 1 1 2v-1q5 13 21 13h34q6 0 10.5 -2t6 -4t3.5 -6l2 -4l-1 1q261 -633 290 -703v1q2 -10 2 -13q0 -12 -18 -12zM379 594h-9q-50 -117 -206 -506h419z" />
    <glyph glyph-name="Epsilon" unicode="&#x395;" horiz-adv-x="642"
d="M103 742h481q22 0 22 -23v-41q0 -23 -23 -23h-416v-221h331q22 0 22 -23v-41q0 -9 -6 -16t-16 -7h-331v-260h420q23 0 23 -24v-41q0 -22 -22 -22h-485q-22 0 -22 21v698q0 23 22 23z" />
    <glyph glyph-name="Zeta" unicode="&#x396;" horiz-adv-x="682"
d="M574 0h-518q-10 0 -17 6.5t-7 16.5v45q0 11 7 18l439 569h-411q-24 0 -24 23v42q0 22 24 22h505q10 0 17 -6.5t7 -16.5v-46q0 -10 -5 -16l-437 -570h420q23 0 23 -24v-40q0 -9 -6.5 -16t-16.5 -7z" />
    <glyph glyph-name="Eta" unicode="&#x397;" horiz-adv-x="773"
d="M609 432v288q0 22 22 22h41q9 0 16 -6.5t7 -15.5v-698q0 -22 -23 -22h-41q-22 0 -22 22v325h-442v-325q0 -22 -24 -22h-40q-22 0 -22 22v698q0 22 22 22h41q9 0 16 -6.5t7 -15.5v-288h442z" />
    <glyph glyph-name="Theta" unicode="&#x398;" horiz-adv-x="853"
d="M266 417h329q17 0 17 -17v-52q0 -8 -5 -13.5t-12 -5.5h-329q-18 0 -18 19v52q0 17 18 17zM426 752q158 0 270 -112t112 -271q0 -158 -112 -269t-271 -111q-158 0 -269.5 111.5t-111.5 269.5t112 270t270 112zM131 371q0 -123 86 -209.5t209 -86.5q122 0 208 86.5
t86 209.5q0 121 -86 207.5t-208 86.5q-123 0 -209 -86t-86 -208z" />
    <glyph glyph-name="Iota" unicode="&#x399;"
d="M167 720v-698q0 -22 -22 -22h-42q-22 0 -22 22v698q0 22 22 22h42q22 0 22 -22z" />
    <glyph glyph-name="Kappa" unicode="&#x39a;" horiz-adv-x="734"
d="M167 227v-205q0 -22 -23 -22h-41q-22 0 -22 22v698q0 22 22 22h42q9 0 15.5 -6t6.5 -16v-372l358 379q12 15 24 15h86q13 0 13 -6q0 -5 -9 -14l-280 -295q38 -45 109.5 -127.5t128.5 -150t106 -129.5q7 -9 7 -11q0 -9 -10 -9h-86q-12 0 -31 26q-47 56 -141.5 169.5
t-141.5 169.5z" />
    <glyph glyph-name="Lambda" unicode="&#x39b;" horiz-adv-x="718"
d="M606 20q-129 323 -239 585q-5 -12 -106 -261t-131 -325q-7 -19 -27 -19h-44q-22 0 -22 17q0 9 3 12l287 693l1 3q1 3 2 4t2.5 3.5t3 4t4 3t6 2t7.5 0.5h29q18 0 25 -19l284 -682q7 -14 7 -25q0 -16 -21 -16h-44q-20 0 -27 20z" />
    <glyph glyph-name="Mu" unicode="&#x39c;" horiz-adv-x="926"
d="M483 32h-39q-12 0 -20 18l-230 541l-55 -569q0 -22 -23 -22h-42q-22 0 -22 22q12 117 36 349t36 349q0 10 7 16t17 6h62q16 0 22 -19l232 -558q39 93 116 279t116 279q5 19 21 19h65q10 0 16 -6.5t6 -15.5l73 -698q0 -22 -23 -22h-42q-22 0 -22 22l-56 569l-230 -541
q-8 -18 -21 -18z" />
    <glyph glyph-name="Nu" unicode="&#x39d;" horiz-adv-x="791"
d="M689 0h-47q-12 0 -19 9l-456 599v-586q0 -22 -23 -22h-41q-22 0 -22 22v697q0 10 6 16.5t16 6.5h55q12 0 19 -10l449 -584v575q3 19 22 19h41q9 0 16.5 -6.5t7.5 -15.5v-698q0 -22 -24 -22z" />
    <glyph glyph-name="Xi" unicode="&#x39e;" horiz-adv-x="682"
d="M592 0h-501q-18 0 -18 17v52q0 19 19 19h499q19 0 19 -19v-52q0 -17 -18 -17zM579 654h-475q-20 0 -20 19v50q0 19 19 19h477q18 0 18 -19v-50q0 -19 -19 -19zM495 330h-308q-17 0 -17 18v52q0 18 17 18h308q18 0 18 -18v-52q0 -18 -18 -18z" />
    <glyph glyph-name="Omicron" unicode="&#x39f;" horiz-adv-x="853"
d="M426 752q158 0 270 -112t112 -271q0 -158 -112 -269t-271 -111q-158 0 -269.5 111.5t-111.5 269.5t112 270t270 112zM131 371q0 -123 86 -209.5t209 -86.5q122 0 208 86.5t86 209.5q0 121 -86 207.5t-208 86.5q-123 0 -209 -86t-86 -208z" />
    <glyph glyph-name="Pi" unicode="&#x3a0;" horiz-adv-x="714"
d="M544 17v637h-375v-638q0 -16 -18 -16h-53q-17 0 -17 16v708q0 18 17 18h515q7 0 13 -5t6 -12v-708q0 -17 -19 -17h-52q-17 0 -17 17z" />
    <glyph glyph-name="Rho" unicode="&#x3a1;" horiz-adv-x="629"
d="M81 22v696q0 24 23 24h248q97 0 164 -68.5t67 -163.5q0 -93 -66 -161.5t-162 -68.5h-188v-258q0 -22 -22 -22h-42q-22 0 -22 22zM497 511q0 59 -42.5 102.5t-102.5 43.5h-185v-292h185q59 0 102 43.5t43 102.5z" />
    <glyph glyph-name="Sigma" unicode="&#x3a3;" horiz-adv-x="608"
d="M421 371l-242 -283h372q18 0 18 -19v-50q0 -8 -5.5 -13.5t-12.5 -5.5h-474q-8 0 -13.5 5.5t-5.5 13.5v55q0 5 3 11l-1 -1l247 286q-40 48 -123 144.5t-124 143.5l1 -1q-3 5 -3 11v55q0 8 5.5 13.5t13.5 5.5h463q7 0 12.5 -5.5t5.5 -13.5v-50q0 -19 -18 -19h-360z" />
    <glyph glyph-name="Tau" unicode="&#x3a4;" horiz-adv-x="611"
d="M44 742h514q23 0 24 -22v-41q0 -24 -24 -24h-213v-633q0 -22 -23 -22h-41q-10 0 -16.5 6t-6.5 16v633h-214q-23 0 -23 24v41q0 22 23 22z" />
    <glyph glyph-name="Upsilon" unicode="&#x3a5;" horiz-adv-x="659"
d="M286 324l-242 393q-6 9 -6 15q0 10 15 10h65q10 -1 13.5 -4t12.5 -17l185 -308l189 312q10 16 23 17h68q12 0 12 -9q0 -7 -5 -13q-41 -66 -121.5 -196.5t-121.5 -196.5v-304q0 -23 -23 -23h-43q-21 0 -21 23v301z" />
    <glyph glyph-name="Phi" unicode="&#x3a6;" horiz-adv-x="771"
d="M342 17v37q-130 16 -217.5 105.5t-87.5 210.5q0 120 87.5 210t217.5 107v38q0 17 18 17h52q7 0 12.5 -5t5.5 -12v-38q131 -16 220 -106.5t89 -211.5t-88.5 -210.5t-220.5 -105.5v-36q0 -17 -18 -17h-52q-18 0 -18 17zM650 370q0 90 -61 152.5t-159 76.5v-458
q98 15 159 77.5t61 151.5zM125 370q0 -90 60 -152t157 -77v457q-96 -14 -156.5 -76t-60.5 -152z" />
    <glyph glyph-name="Chi" unicode="&#x3a7;" horiz-adv-x="620"
d="M366 370l237 -348q6 -7 6 -14q0 -8 -15 -8h-60q-18 0 -30 18l-189 279l-188 -279q-14 -18 -30 -18h-61q-14 0 -14 8q0 5 6 14l237 348q-119 178 -236 347q-7 10 -7 16q0 9 20 9h54q16 0 33 -22l186 -276l188 276q17 22 37 22h49q20 0 20 -8q0 -7 -7 -17z" />
    <glyph glyph-name="Psi" unicode="&#x3a8;" horiz-adv-x="697"
d="M135 726v-126q0 -87 44.5 -148.5t124.5 -79.5v353q0 17 18 17h52q18 0 18 -17v-355q86 16 131 78t45 152v126q0 17 18 17h49q21 0 21 -17v-139q0 -120 -75 -203t-189 -99v-268q0 -17 -18 -17h-52q-18 0 -18 17v268q-111 18 -185 103.5t-74 198.5v139q0 6 5 11.5t12 5.5
h54q7 0 13 -5t6 -12z" />
    <glyph glyph-name="Omega" unicode="&#x3a9;" horiz-adv-x="743"
d="M72 88h133v45q-76 44 -121 120.5t-45 166.5q0 139 96.5 235.5t234.5 96.5q139 0 235.5 -96.5t96.5 -235.5q0 -89 -44 -165t-117 -120v-47h133q17 0 17 -17v-53q0 -18 -17 -18h-204q-18 0 -18 17v171q0 17 19 17q63 29 101.5 87t38.5 130q0 99 -70 169t-169 70t-168.5 -70
t-69.5 -169q0 -72 38.5 -130t101.5 -87q8 0 13.5 -5t5.5 -12v-171q0 -17 -18 -17h-203q-17 0 -17 18v53q0 17 17 17z" />
    <glyph glyph-name="Iotadieresis" unicode="&#x3aa;"
d="M167 720v-698q0 -22 -22 -22h-42q-22 0 -22 22v698q0 22 22 22h42q22 0 22 -22zM-21 886q0 26 18.5 44.5t44.5 18.5q27 0 45 -18.5t18 -44.5t-18 -44.5t-45 -18.5q-26 0 -44.5 18.5t-18.5 44.5zM165 887q0 26 18.5 44.5t44.5 18.5q27 0 45 -18.5t18 -44.5t-18 -44.5
t-45 -18.5q-26 0 -44.5 18.5t-18.5 44.5z" />
    <glyph glyph-name="Upsilondieresis" unicode="&#x3ab;" horiz-adv-x="659"
d="M286 324l-242 393q-6 9 -6 15q0 10 15 10h65q10 -1 13.5 -4t12.5 -17l185 -308l189 312q10 16 23 17h68q12 0 12 -9q0 -7 -5 -13q-41 -66 -121.5 -196.5t-121.5 -196.5v-304q0 -23 -23 -23h-43q-21 0 -21 23v301zM173 842q0 26 18 44.5t44 18.5q27 0 45 -18.5t18 -44.5
t-18 -44t-45 -18q-25 0 -43.5 18t-18.5 44zM359 843q0 26 18 44.5t44 18.5q27 0 45 -18.5t18 -44.5t-18 -44t-45 -18q-25 0 -43.5 18.5t-18.5 43.5z" />
    <glyph glyph-name="alphatonos" unicode="&#x3ac;" horiz-adv-x="594"
d="M314 564h-30q-18 2 -18 18l-17 149q0 12 13 12h71q7 0 11 -4t3 -10l-16 -147q-2 -18 -17 -18zM430 25v47q-26 -39 -60.5 -60.5t-90.5 -21.5q-104 0 -171.5 73t-67.5 181t67.5 181.5t171.5 73.5q56 0 90 -22t61 -61l4 50q2 25 24 25h29q11 0 18.5 -6.5t7.5 -18.5v-444
q0 -10 -7.5 -16t-18.5 -6h-32q-25 0 -25 25zM123 244q0 -72 43.5 -121.5t112.5 -49.5q70 0 110.5 47.5t40.5 121.5t-40 123.5t-111 49.5q-70 0 -113 -49.5t-43 -121.5z" />
    <glyph glyph-name="epsilontonos" unicode="&#x3ad;" horiz-adv-x="437"
d="M232 -7q-71 0 -122.5 46t-51.5 106q0 66 56 119q-36 38 -36 92q0 60 45 102.5t112 42.5q28 0 67.5 -11t55.5 -26q13 -11 7 -19l-34 -58q-3 -5 -8 -5q-1 0 -7 3q-2 1 -8 5.5l-8 6t-7.5 4.5t-8 4.5t-7.5 3.5t-8.5 3t-8.5 2.5t-10.5 2t-11.5 0.5q-31 0 -49.5 -17.5
t-18.5 -43.5q0 -24 17.5 -41.5t42.5 -17.5h58q9 0 9 -11v-62q0 -9 -9 -9h-77q-25 0 -43 -22t-18 -47q0 -28 21 -49t59 -21q54 0 102 35q4 2 7 2q4 0 8 -7l34 -55q1 -2 1 -5q0 -6 -8 -9q-34 -24 -64.5 -34t-77.5 -10zM244 564h-30q-18 2 -18 18l-17 149q0 12 13 12h71
q7 0 11 -4t3 -10l-16 -147q-2 -18 -17 -18z" />
    <glyph glyph-name="etatonos" unicode="&#x3ae;" horiz-adv-x="591"
d="M164 467l3 -45q64 78 143 78q85 0 141.5 -60.5t56.5 -148.5v-461q0 -12 -7 -18.5t-17 -6.5h-41q-22 0 -22 24v462q0 50 -36.5 86.5t-86.5 36.5q-49 0 -88 -34.5t-43 -83.5v-274q0 -22 -22 -22h-41q-23 0 -23 22v445q0 22 22 22h38q21 0 23 -22zM320 564h-30q-19 2 -19 18
l-17 149q2 12 13 12h72q7 0 10.5 -4t2.5 -10l-15 -147q-4 -18 -17 -18z" />
    <glyph glyph-name="iotatonos" unicode="&#x3af;"
d="M142 565h-30q-19 2 -19 18l-17 149q2 12 13 12h72q7 0 10.5 -4t2.5 -10l-15 -147q-4 -18 -17 -18zM167 469v-447q0 -22 -22 -22h-41q-23 0 -23 22v447q0 10 6.5 16t15.5 6h41q10 0 16.5 -6.5t6.5 -15.5z" />
    <glyph glyph-name="upsilondieresistonos" unicode="&#x3b0;" horiz-adv-x="568"
d="M296 606h-30q-19 2 -19 18l-17 149q2 12 13 12h72q7 0 10.5 -4t2.5 -10l-15 -147q-4 -18 -17 -18zM91 636q0 26 18 44.5t44 18.5q27 0 45 -18.5t18 -44.5t-18 -44t-45 -18q-25 0 -43.5 18t-18.5 44zM340 636q0 26 18.5 44.5t44.5 18.5q27 0 45 -18.5t18 -44.5t-18 -44
t-45 -18q-26 0 -44.5 18t-18.5 44zM280 -10q-87 0 -150.5 61t-63.5 147v269q0 22 21 22h50q22 0 22 -21v-272q0 -48 36.5 -83.5t84.5 -35.5t84.5 35.5t36.5 83.5v272q0 21 21 21h51q21 0 21 -22v-269q0 -86 -64 -147t-150 -61z" />
    <glyph glyph-name="alpha" unicode="&#x3b1;" horiz-adv-x="594"
d="M430 25v47q-26 -39 -60.5 -60.5t-90.5 -21.5q-104 0 -171.5 73t-67.5 181t67.5 181.5t171.5 73.5q56 0 90 -22t61 -61l4 50q2 25 24 25h29q11 0 18.5 -6.5t7.5 -18.5v-444q0 -10 -7.5 -16t-18.5 -6h-32q-25 0 -25 25zM123 244q0 -72 43.5 -121.5t112.5 -49.5
q70 0 110.5 47.5t40.5 121.5t-40 123.5t-111 49.5q-70 0 -113 -49.5t-43 -121.5z" />
    <glyph glyph-name="beta" unicode="&#x3b2;" horiz-adv-x="570"
d="M80 -168v737q0 83 58 131t137 48q81 0 137.5 -53.5t56.5 -133.5q0 -86 -68 -140q121 -69 121 -202q0 -102 -68.5 -167.5t-175.5 -65.5q-11 0 -15 15v50q0 23 19 23q67 2 109 41t42 105q0 72 -43.5 110t-118.5 38q-19 0 -19 16v53q0 18 18 18q49 0 80.5 29.5t31.5 73.5
q0 47 -27.5 78.5t-81.5 31.5q-47 0 -75.5 -26.5t-28.5 -68.5v-741q0 -18 -20 -18h-51q-18 0 -18 18z" />
    <glyph glyph-name="gamma" unicode="&#x3b3;" horiz-adv-x="511"
d="M212 -173v201l-180 437v-1q-2 9 -2 12q0 13 18 13h54q14 0 22 -16q23 -58 56 -148q68 -179 77 -200l25 69q61 170 104 281q5 15 24 15h50q22 0 22 -16v-5v-1q-60 -145 -94 -223q-75 -182 -87 -211v-207q0 -17 -19 -17h-53q-17 0 -17 17z" />
    <glyph glyph-name="delta" unicode="&#x3b4;" horiz-adv-x="610"
d="M44 244q0 93 61.5 163.5t154.5 87.5l-172 176q-3 7 -3 11v47q0 8 6 13.5t14 5.5h351q8 0 13.5 -5.5t5.5 -13.5v-49q0 -18 -19 -18h-232l260 -248q29 -30 48 -75t20 -91v-4q0 -106 -74 -180t-180 -74t-180 74t-74 180zM131 244q0 -71 47.5 -120t116.5 -49q66 0 117.5 49
t51.5 117q0 70 -49.5 121.5t-119.5 51.5q-69 0 -116.5 -50t-47.5 -120z" />
    <glyph glyph-name="epsilon" unicode="&#x3b5;" horiz-adv-x="437"
d="M232 -7q-71 0 -122.5 46t-51.5 106q0 66 56 119q-36 38 -36 92q0 60 45 102.5t112 42.5q28 0 67.5 -11t55.5 -26q13 -11 7 -19l-34 -58q-3 -5 -8 -5q-1 0 -7 3q-2 1 -8 5.5l-8 6t-7.5 4.5t-8 4.5t-7.5 3.5t-8.5 3t-8.5 2.5t-10.5 2t-11.5 0.5q-31 0 -49.5 -17.5
t-18.5 -43.5q0 -24 17.5 -41.5t42.5 -17.5h58q9 0 9 -11v-62q0 -9 -9 -9h-77q-25 0 -43 -22t-18 -47q0 -28 21 -49t59 -21q54 0 102 35q4 2 7 2q4 0 8 -7l34 -55q1 -2 1 -5q0 -6 -8 -9q-34 -24 -64.5 -34t-77.5 -10z" />
    <glyph glyph-name="zeta" unicode="&#x3b6;" horiz-adv-x="588"
d="M541 -83q0 -47 -10 -77.5t-34 -64.5q-3 -7 -10 -7q-1 0 -3 0.5l-2 0.5l-55 34q-6 5 -6 7q0 4 3 8h-1q35 45 35 102q0 38 -21 59t-49 21h-54q-103 1 -173 63t-70 161q0 90 77 189l200 249h-230q-18 0 -18 18v49q0 8 5.5 13.5t12.5 5.5h337q8 0 14 -5.5t6 -13.5v-47
q0 -5 -3 -11l-256 -314q-53 -67 -53 -131q0 -59 45 -99t110 -40h51q60 0 106 -49.5t46 -120.5z" />
    <glyph glyph-name="eta" unicode="&#x3b7;" horiz-adv-x="591"
d="M164 467l3 -45q64 78 143 78q85 0 141.5 -60.5t56.5 -148.5v-461q0 -12 -7 -18.5t-17 -6.5h-41q-22 0 -22 24v462q0 50 -36.5 86.5t-86.5 36.5q-49 0 -88 -34.5t-43 -83.5v-274q0 -22 -22 -22h-41q-23 0 -23 22v445q0 22 22 22h38q21 0 23 -22z" />
    <glyph glyph-name="theta" unicode="&#x3b8;" horiz-adv-x="577"
d="M290 758q101 0 170.5 -100.5t69.5 -285.5q0 -183 -69.5 -283t-172.5 -100q-100 0 -170 100.5t-70 283.5q0 185 69.5 285t172.5 100zM286 668q-56 0 -97.5 -73t-50.5 -182h298q-9 109 -51.5 182t-98.5 73zM286 73q55 0 98 72t52 180h-298q9 -109 50.5 -180.5t97.5 -71.5z
" />
    <glyph glyph-name="iota" unicode="&#x3b9;"
d="M167 469v-447q0 -22 -22 -22h-41q-23 0 -23 22v447q0 10 6.5 16t15.5 6h41q10 0 16.5 -6.5t6.5 -15.5z" />
    <glyph glyph-name="kappa" unicode="&#x3ba;" horiz-adv-x="547"
d="M81 22v447q0 22 22 22h41q9 0 16 -6.5t7 -15.5v-173l173 181l8 7q7 7 17 7h91q22 0 22 -22v-37q0 -9 -6.5 -17t-15.5 -8h-67l-98 -100l230 -280q9 -9 9 -16q0 -11 -17 -11h-69q-16 0 -28 16l-185 230l-64 -66v-158q0 -22 -23 -22h-41q-22 0 -22 22z" />
    <glyph glyph-name="lambda" unicode="&#x3bb;" horiz-adv-x="516"
d="M83 748q32 0 58 -10t42.5 -23t33 -39t25.5 -45.5t23 -54.5q30 -75 217 -528q4 -8 10 -24v-6q0 -17 -21 -17h-51q-17 0 -24 15l-143 371q-33 -82 -82 -210q-42 -110 -62 -160q-5 -16 -22 -16h-54q-18 0 -18 13l2 12v-1l190 463l-36 89q-20 50 -40.5 67.5t-51.5 17.5
q-17 0 -17 21v44q0 21 21 21z" />
    <glyph glyph-name="uni03BC" unicode="&#x3bc;" horiz-adv-x="589"
d="M290 76h4q49 0 88 35.5t42 84.5v274q0 22 22 22h41q24 0 24 -22v-446q0 -10 -6.5 -16t-16.5 -6h-37q-21 0 -23 22l-4 45q-60 -74 -134 -74q-68 -1 -123 63v-229q0 -10 -6.5 -16t-16.5 -6h-41q-22 0 -22 22v640q0 22 22 22h42q22 0 22 -22v-274q3 -49 39 -83.5t84 -35.5z
" />
    <glyph glyph-name="nu" unicode="&#x3bd;" horiz-adv-x="506"
d="M111 473l137 -353l137 354q8 17 27 17h42q21 0 21 -16q0 -11 -4 -15l-182 -441q-8 -19 -27 -19h-29q-13 0 -17.5 4t-8.5 15l-181 435q-5 15 -5 21q0 16 21 16h43q18 0 26 -18z" />
    <glyph glyph-name="xi" unicode="&#x3be;" horiz-adv-x="484"
d="M69 742h332q17 0 17 -18v-50q0 -20 -17 -20h-92q-43 0 -81 -31t-38 -78q0 -44 31 -74t80 -30h78q17 0 17 -17v-51q0 -8 -5 -14t-12 -6h-108q-133 -11 -133 -135q0 -65 43.5 -102t110.5 -37h22q60 0 106 -49.5t46 -120.5q0 -45 -17 -97t-37 -52h-2q-2 1 -3 1l-55 34
q-6 5 -6 7t2 8q35 45 35 102q0 38 -21 59t-48 21h-22q-108 0 -175.5 62t-67.5 163q0 68 30.5 112.5t90.5 78.5q-32 24 -50 65t-18 85q0 49 55 96h-88q-19 0 -19 20v50q0 18 19 18z" />
    <glyph glyph-name="omicron" unicode="&#x3bf;" horiz-adv-x="610"
d="M43 244q0 106 74.5 180.5t180.5 74.5t180 -74.5t74 -180.5t-74 -180.5t-180 -74.5t-180.5 74.5t-74.5 180.5zM131 244q0 -71 48.5 -121t118.5 -50t118 50t48 121q0 70 -48 120.5t-118 50.5t-118.5 -50.5t-48.5 -120.5z" />
    <glyph glyph-name="pi" unicode="&#x3c0;" horiz-adv-x="631"
d="M413 17v385h-196v-385q0 -17 -19 -17h-51q-17 0 -17 17v385h-73q-17 0 -17 19v52q0 18 17 18h517q17 0 17 -18v-52q0 -8 -5 -13.5t-12 -5.5h-74v-385q0 -17 -19 -17h-51q-17 0 -17 17z" />
    <glyph glyph-name="rho" unicode="&#x3c1;" horiz-adv-x="591"
d="M76 248q0 106 71 181.5t169 75.5q99 0 170 -75.5t71 -181.5t-71 -181t-170 -75q-85 0 -153 60v-224q0 -22 -23 -22h-41q-23 0 -23 22v420zM162 255l1 -25q6 -64 51 -109t103 -45q61 0 108 51t47 121t-47 121.5t-108 51.5q-60 0 -106.5 -49t-48.5 -117z" />
    <glyph glyph-name="uni03C2" unicode="&#x3c2;" horiz-adv-x="566"
d="M307 84h49q60 0 104.5 -48.5t44.5 -117.5q0 -46 -10 -75.5t-33 -63.5q-3 -8 -9 -8q-3 0 -5 1l-54 34q-6 5 -6 7t2 8v-1q34 44 34 100q0 37 -21 58.5t-48 21.5h-48q-103 0 -175.5 73t-72.5 177t72.5 176.5t175.5 72.5q89 0 154 -53q11 -6 11 -21v-4q-22 -53 -38 -53
q-4 0 -6 2v-1q-60 47 -125 47t-110.5 -49t-45.5 -117q0 -69 46.5 -117.5t113.5 -48.5z" />
    <glyph glyph-name="sigma" unicode="&#x3c3;" horiz-adv-x="596"
d="M49 255q0 105 67.5 177t170.5 72q50 0 96 -20h188q12 0 12 -12v-59q0 -14 -12 -14h-107l16 -21q16 -20 24 -32t14.5 -35.5t6.5 -55.5q0 -106 -68 -183t-170 -77t-170 77t-68 183zM137 255q0 -72 41.5 -124.5t108.5 -52.5q66 0 107 52.5t41 124.5q0 70 -41 118.5
t-107 48.5q-67 0 -108.5 -48.5t-41.5 -118.5z" />
    <glyph glyph-name="tau" unicode="&#x3c4;" horiz-adv-x="421"
d="M18 418v59q0 13 13 13h363q13 0 13 -13v-59q0 -15 -13 -15h-138v-386q0 -17 -18 -17h-53q-17 0 -17 17v386h-137q-13 0 -13 15z" />
    <glyph glyph-name="upsilon" unicode="&#x3c5;" horiz-adv-x="568"
d="M280 -10q-87 0 -150.5 61t-63.5 147v269q0 22 21 22h50q22 0 22 -21v-272q0 -48 36.5 -83.5t84.5 -35.5t84.5 35.5t36.5 83.5v272q0 21 21 21h51q21 0 21 -22v-269q0 -86 -64 -147t-150 -61z" />
    <glyph glyph-name="phi" unicode="&#x3c6;" horiz-adv-x="603"
d="M253 -172v171q-88 15 -146 84t-58 161q0 91 58 160t146 85v166q0 17 17 17h52q18 0 18 -17v-165q89 -15 148 -84.5t59 -161.5t-59 -161.5t-148 -84.5v-170q0 -17 -18 -17h-52q-17 0 -17 17zM457 244q0 56 -32.5 101t-84.5 60v-321q52 14 84.5 58.5t32.5 101.5zM137 244
q0 -58 32 -102t84 -58v320q-52 -15 -84 -59.5t-32 -100.5z" />
    <glyph glyph-name="chi" unicode="&#x3c7;" horiz-adv-x="631"
d="M370 151l227 -334q4 -7 4 -11t-9 -4h-75q-13 0 -27 17l-172 257l-174 -257q-14 -17 -26 -17h-76q-9 0 -9 4q0 3 5 11l228 334q-93 138 -201 292l-21 30q-6 9 -6 14q0 3 16 3h62q18 0 35 -20l167 -243l166 243q19 20 35 20h62q16 0 16 -4q0 -3 -6 -14l-15 -21
q-143 -206 -206 -300z" />
    <glyph glyph-name="psi" unicode="&#x3c8;" horiz-adv-x="582"
d="M250 -180v174q-79 16 -136 73.5t-57 130.5v269q0 22 20 22h46q22 0 22 -21v-272q0 -100 105 -119v587q0 17 17 17h53q18 0 18 -17v-587q103 20 103 119v272q0 21 21 21h47q20 0 20 -22v-269q0 -72 -56.5 -129.5t-134.5 -74.5v-174q0 -18 -18 -18h-53q-17 0 -17 18z" />
    <glyph glyph-name="omega" unicode="&#x3c9;" horiz-adv-x="672"
d="M63 168v133q0 123 44 187q4 8 9 8q3 0 5 -2l63 -33q7 -5 7 -8q0 -4 -3 -7q-14 -19 -25.5 -67.5t-11.5 -79.5v-131q0 -38 22.5 -60.5t49.5 -22.5q25 0 48 18.5t23 42.5v201q0 8 9 8h64q9 0 9 -8v-201q0 -24 23 -42.5t48 -18.5q28 0 49.5 22t21.5 61v133q0 30 -11 77.5
t-25 67.5q-3 3 -3 7q0 3 7 8l63 33q2 2 5 2q7 0 9 -8q44 -64 44 -187v-133q0 -71 -48 -123t-108 -52q-66 0 -116 47q-50 -47 -116 -47q-60 0 -108 52t-48 123z" />
    <glyph glyph-name="iotadieresis" unicode="&#x3ca;"
d="M-22 629q0 26 18.5 44.5t44.5 18.5q27 0 45 -18.5t18 -44.5t-18 -44t-45 -18q-26 0 -44.5 18t-18.5 44zM164 630q0 26 18.5 44.5t44.5 18.5q27 0 45 -18.5t18 -44.5t-18 -44t-45 -18q-26 0 -44.5 18t-18.5 44zM167 469v-447q0 -22 -22 -22h-41q-23 0 -23 22v447
q0 10 6.5 16t15.5 6h41q10 0 16.5 -6.5t6.5 -15.5z" />
    <glyph glyph-name="upsilondieresis" unicode="&#x3cb;" horiz-adv-x="568"
d="M280 -10q-87 0 -150.5 61t-63.5 147v269q0 22 21 22h50q22 0 22 -21v-272q0 -48 36.5 -83.5t84.5 -35.5t84.5 35.5t36.5 83.5v272q0 21 21 21h51q21 0 21 -22v-269q0 -86 -64 -147t-150 -61zM124 629q0 26 18.5 44.5t44.5 18.5q27 0 45 -18.5t18 -44.5t-18 -44t-45 -18
q-26 0 -44.5 18t-18.5 44zM310 630q0 26 18.5 44.5t44.5 18.5q27 0 45 -18.5t18 -44.5t-18 -44t-45 -18q-26 0 -44.5 18t-18.5 44z" />
    <glyph glyph-name="omicrontonos" unicode="&#x3cc;" horiz-adv-x="610"
d="M43 244q0 106 74.5 180.5t180.5 74.5t180 -74.5t74 -180.5t-74 -180.5t-180 -74.5t-180.5 74.5t-74.5 180.5zM131 244q0 -71 48.5 -121t118.5 -50t118 50t48 121q0 70 -48 120.5t-118 50.5t-118.5 -50.5t-48.5 -120.5zM369 713l-45 -105q-10 -21 -27 -21h-36
q-26 0 -11 32l44 102q8 21 27 21h40q22 0 8 -29z" />
    <glyph glyph-name="upsilontonos" unicode="&#x3cd;" horiz-adv-x="568"
d="M294 564h-30q-19 2 -19 18l-17 149q2 12 13 12h72q7 0 10.5 -4t2.5 -10l-15 -147q-4 -18 -17 -18zM280 -10q-87 0 -150.5 61t-63.5 147v269q0 22 21 22h50q22 0 22 -21v-272q0 -48 36.5 -83.5t84.5 -35.5t84.5 35.5t36.5 83.5v272q0 21 21 21h51q21 0 21 -22v-269
q0 -86 -64 -147t-150 -61z" />
    <glyph glyph-name="omegatonos" unicode="&#x3ce;" horiz-adv-x="674"
d="M65 168v133q0 123 44 187q4 8 9 8q3 0 5 -2l63 -33q7 -5 7 -8q0 -4 -3 -7q-14 -19 -25.5 -67.5t-11.5 -79.5v-131q0 -38 22.5 -60.5t49.5 -22.5q25 0 48 18.5t23 42.5v201q0 8 9 8h64q9 0 9 -8v-201q0 -24 23 -42.5t48 -18.5q28 0 49.5 22t21.5 61v133q0 30 -11 77.5
t-25 67.5q-3 3 -3 7q0 3 7 8l63 33q2 2 5 2q7 0 9 -8q44 -64 44 -187v-133q0 -71 -48 -123t-108 -52q-66 0 -116 47q-50 -47 -116 -47q-60 0 -108 52t-48 123zM345 564h-30q-18 2 -18 18l-17 149q0 12 13 12h71q7 0 11 -4t3 -10l-16 -147q-2 -18 -17 -18z" />
    <glyph glyph-name="uni03D0" unicode="&#x3d0;" horiz-adv-x="568"
d="M80 169v400q0 83 57.5 131t137.5 48t136.5 -53.5t56.5 -133.5q0 -86 -67 -140q120 -68 120 -202q0 -103 -64.5 -167t-176.5 -64q-82 0 -141 54.5t-59 126.5zM169 573v-409q2 -36 32 -62.5t81 -26.5q151 0 151 145q0 72 -43.5 110t-119.5 38q-18 0 -18 16v53q0 18 17 18
q49 0 80.5 29.5t31.5 73.5q0 47 -27.5 78.5t-81.5 31.5q-47 0 -75 -26.5t-28 -68.5z" />
    <glyph glyph-name="uni03D1" unicode="&#x3d1;" horiz-adv-x="537"
d="M149 196v-5q0 -43 30.5 -73.5t73.5 -30.5q38 0 69.5 28.5t31.5 63.5v183h-104q-80 0 -136.5 56.5t-56.5 136.5t56.5 137t136.5 57q81 0 138 -56.5t57 -137.5v-102h35q20 0 20 -19v-51q0 -8 -5.5 -14.5t-14.5 -6.5h-35v-171q0 -81 -56 -138t-136 -57q-81 0 -137.5 56.5
t-56.5 138.5v5q0 21 20 21h52q18 0 18 -21zM250 453h104v102q0 43 -30 73.5t-74 30.5q-43 0 -72.5 -30t-29.5 -74q0 -43 29 -72.5t73 -29.5z" />
    <glyph glyph-name="uni03F0" unicode="&#x3f0;" horiz-adv-x="519"
d="M454 473l-158 -232l28 -70q21 -50 41 -67.5t50 -17.5q18 0 18 -20v-44q0 -22 -21 -22q-70 0 -106.5 37.5t-68.5 115.5q-16 -23 -49.5 -72t-43.5 -64q-11 -17 -26 -17h-64q-10 0 -10 4l1 2q1 1 2 3.5t2 5.5v-1l153 226l-30 79q-19 50 -39.5 67.5t-51.5 17.5q-17 0 -17 21
v43q0 22 20 22q72 0 108 -39.5t70 -123.5l97 143q16 20 31 20h54q16 0 16 -3t-6 -15v1z" />
    <glyph glyph-name="afii10023" unicode="&#x401;" horiz-adv-x="642"
d="M103 742h481q22 0 22 -23v-41q0 -23 -23 -23h-416v-221h331q22 0 22 -23v-41q0 -9 -6 -16t-16 -7h-331v-260h420q23 0 23 -24v-41q0 -22 -22 -22h-485q-22 0 -22 21v698q0 23 22 23zM201 883q0 26 18 44.5t44 18.5q27 0 45 -18.5t18 -44.5t-18 -44t-45 -18
q-25 0 -43.5 18.5t-18.5 43.5zM387 884q0 26 18 44.5t44 18.5q27 0 45 -18.5t18 -44.5t-18 -44t-45 -18q-25 0 -43.5 18t-18.5 44z" />
    <glyph glyph-name="afii10051" unicode="&#x402;" horiz-adv-x="726"
d="M505 -8l-19 -3q-17 2 -17 16v52q0 7 5 12.5t12 5.5q36 0 64 28.5t28 65.5v119q0 49 -42.5 85.5t-93.5 36.5q-48 0 -89 -34.5t-44 -83.5v-275q0 -17 -17 -17h-51q-7 0 -12.5 5t-5.5 12v639h-173q-18 0 -18 19v51q0 16 18 16h432q18 0 18 -17v-50q0 -19 -18 -19h-173v-236
q67 75 139 75q95 0 155.5 -66.5t60.5 -164.5v-60q0 -81 -43 -139t-116 -73z" />
    <glyph glyph-name="afii10052" unicode="&#x403;" horiz-adv-x="571"
d="M395 912l-45 -105q-10 -21 -27 -21h-36q-26 0 -11 32l44 102q8 21 27 21h40q22 0 8 -29zM168 657h360q22 0 22 23v40q0 9 -6 15.5t-16 6.5h-425q-22 0 -22 -22v-698q0 -9 6.5 -15.5t16.5 -6.5h42q22 0 22 22v635z" />
    <glyph glyph-name="afii10053" unicode="&#x404;" horiz-adv-x="685"
d="M470 326h-336q15 -109 98 -179.5t192 -70.5q84 0 161 48l21 13q8 5 12 5q5 0 12 -10l29 -47q0 -1 1.5 -4.5t1.5 -5.5q0 -9 -12 -15q-98 -71 -224 -71q-158 0 -269.5 111.5t-111.5 269.5t112 270t270 112q124 0 225 -72q10 -8 10 -17q0 -5 -3 -8l-27 -44q-7 -10 -12 -10
t-15 7q-71 51 -165 57q-118 0 -203.5 -73t-102.5 -180h336q16 0 16 -17v-51q0 -18 -16 -18z" />
    <glyph glyph-name="afii10054" unicode="&#x405;" horiz-adv-x="641"
d="M501 588q-89 81 -181 81q-79 0 -120 -35.5t-41 -84.5q0 -24 14.5 -43.5t43.5 -33.5t54.5 -22.5t65.5 -19.5q124 -34 170 -60q93 -53 94 -148q0 -105 -80 -168.5t-200 -63.5q-79 0 -149.5 32.5t-117.5 93.5q-8 11 -8 18q0 8 9 16l32 27q7 5 15 5q7 0 22 -15
q41 -42 100.5 -67.5t99.5 -25.5q71 0 131 37.5t60 104.5q0 20 -6.5 36t-23.5 29t-31 21.5t-43.5 18.5t-45 14t-52.5 14q-127 33 -186.5 78t-59.5 119q0 92 70.5 149.5t186.5 57.5q59 0 121 -26.5t106 -68.5q19 -21 19 -28q0 -8 -8 -16l-30 -29q-7 -7 -13 -7q-8 0 -18 10z
" />
    <glyph glyph-name="afii10055" unicode="&#x406;"
d="M167 720v-698q0 -22 -22 -22h-42q-22 0 -22 22v698q0 22 22 22h42q22 0 22 -22z" />
    <glyph glyph-name="afii10056" unicode="&#x407;"
d="M167 720v-698q0 -22 -22 -22h-42q-22 0 -22 22v698q0 22 22 22h42q22 0 22 -22zM-34 905q0 26 18.5 44.5t44.5 18.5q27 0 45 -18.5t18 -44.5t-18 -44t-45 -18q-26 0 -44.5 18t-18.5 44zM152 906q0 26 18.5 44.5t44.5 18.5q27 0 45 -18.5t18 -44.5t-18 -44t-45 -18
q-26 0 -44.5 18t-18.5 44z" />
    <glyph glyph-name="afii10057" unicode="&#x408;" horiz-adv-x="400"
d="M7 45q-5 5 -5 12q0 8 8 15l29 32q6 7 14 7q7 0 11 -4q37 -34 81 -34q38 0 64.5 27t26.5 65v556q0 21 22 21h42q22 0 22 -22v-555q0 -75 -51.5 -126t-125.5 -51q-83 0 -138 57z" />
    <glyph glyph-name="afii10058" unicode="&#x409;" horiz-adv-x="1054"
d="M33 -7q-20 0 -20 19v34q0 21 22 21q31 0 54 28.5t23 59.5v570q0 17 16 17h460q18 0 18 -16v-269h197q95 0 161 -68t66 -160q0 -94 -66.5 -161.5t-162.5 -67.5h-265q-16 0 -16 16v640h-322v-501q0 -66 -50 -114t-115 -48zM944 228q0 57 -43 100.5t-100 43.5h-195v-287h195
q59 0 101 43t42 100z" />
    <glyph glyph-name="afii10059" unicode="&#x40a;" horiz-adv-x="1073"
d="M541 458v268q0 16 16 16h51q18 0 18 -16v-269h196q95 0 160.5 -68t65.5 -160q0 -94 -66 -161.5t-162 -67.5h-263q-16 0 -16 16v356h-374v-356q0 -16 -18 -16h-52q-16 0 -16 16v710q0 16 16 16h53q7 0 12 -4.5t5 -11.5v-268h374zM962 228q0 57 -42.5 100.5t-99.5 43.5
h-194v-287h194q58 0 100 43.5t42 99.5z" />
    <glyph glyph-name="afii10060" unicode="&#x40b;" horiz-adv-x="736"
d="M49 742h433q17 0 18 -16v-51q0 -19 -18 -19h-173v-236q65 75 138 75q96 0 157 -66.5t61 -164.5v-243q0 -21 -20 -21h-47q-21 0 -21 20v268q0 49 -42.5 85.5t-93.5 36.5q-48 0 -89 -34.5t-43 -83.5v-275q0 -7 -5 -12t-12 -5h-52q-7 0 -12 5t-5 12v639h-174q-18 0 -18 19
v51q0 16 18 16z" />
    <glyph glyph-name="afii10061" unicode="&#x40c;" horiz-adv-x="734"
d="M167 720v-324q75 -2 140 92l58 83q62 90 88 116q58 57 140 56q17 0 17 -18v-44q-2 -21 -19 -21q-65 -4 -134 -98l-68 -95q-5 -7 -20 -27t-23 -30q33 -38 104.5 -120.5t125.5 -146t101 -123.5q7 -9 7 -11q0 -9 -11 -9h-86q-11 0 -30 26q-182 216 -272 324
q-48 -31 -118 -38v-290q0 -22 -22 -22h-42q-22 0 -22 22v698q0 22 22 22h42q22 0 22 -22zM419 914l-45 -105q-10 -21 -27 -21h-36q-26 0 -11 32l44 103q8 21 27 21h40q22 0 8 -30z" />
    <glyph glyph-name="afii10062" unicode="&#x40e;" horiz-adv-x="492"
d="M73 -5q-19 0 -19 21v44q0 19 16 19q31 0 51.5 17.5t40.5 67.5l39 96l-190 461v-1q-2 9 -2 12q0 11 18 11h53q15 0 21 -16q24 -58 73.5 -186t71.5 -183l143 372v-1q6 14 22 14h52q19 0 19 -16v-6l-9 -23v1q-150 -360 -220 -534q-17 -43 -28.5 -66.5t-32.5 -51t-50 -40
t-69 -12.5zM265 830q-52 0 -88 34.5t-36 80.5q0 8 5.5 13.5t13.5 5.5h34q9 0 14.5 -5.5t5.5 -13.5q0 -19 14 -32t39 -13q21 0 35.5 12t14.5 28q0 24 19 24h29q26 0 26 -19q0 -46 -37 -81t-89 -34z" />
    <glyph glyph-name="afii10145" unicode="&#x40f;" horiz-adv-x="620"
d="M269 -122v122h-171q-18 0 -18 16v710q0 16 18 16h52q16 0 16 -16v-641h295v641q0 16 19 16h51q16 0 16 -16v-710q0 -16 -16 -16h-170v-122q0 -20 -22 -20h-51q-19 0 -19 20z" />
    <glyph glyph-name="afii10017" unicode="&#x410;" horiz-adv-x="716"
d="M172 162l-56 -142q-9 -20 -28 -20h-43q-21 0 -21 16l2 13q204 489 282 676l8 19q8 18 25 18h29q17 0 25 -18l288 -696q3 -8 3 -12q0 -16 -22 -16h-43q-20 0 -27 19l-58 143h-364zM355 613l-147 -366h293z" />
    <glyph glyph-name="afii10018" unicode="&#x411;" horiz-adv-x="654"
d="M97 742h436q17 0 17 -18v-50q0 -18 -18 -18h-365v-199h220q95 0 160.5 -68t65.5 -160q0 -94 -66 -161.5t-163 -67.5h-287q-16 0 -16 15v711q0 16 16 16zM527 228q0 57 -43 100.5t-100 43.5h-217v-288h217q59 0 101 43.5t42 100.5z" />
    <glyph glyph-name="afii10019" unicode="&#x412;" horiz-adv-x="678"
d="M600 548q0 -91 -68 -151q48 -26 77.5 -76t29.5 -107q0 -87 -59.5 -150.5t-146.5 -63.5h-329q-23 0 -23 22v696q0 24 23 24h295q85 0 143 -55.5t58 -138.5zM432 342h-265v-257h265q49 0 84.5 38.5t35.5 90.5q0 51 -35 89.5t-85 38.5zM512 548q0 49 -31.5 79t-82.5 30h-231
v-230h231q48 0 81 35t33 86z" />
    <glyph glyph-name="afii10020" unicode="&#x413;" horiz-adv-x="570"
d="M528 657h-361v-635q0 -22 -22 -22h-41q-23 0 -23 22v698q0 22 22 22h425q10 0 16 -6.5t6 -15.5v-40q0 -23 -22 -23z" />
    <glyph glyph-name="afii10021" unicode="&#x414;" horiz-adv-x="720"
d="M619 -127v127h-501v-128q0 -15 -17 -15h-52q-17 0 -17 15v196q0 18 17 18h34q63 98 96 214q29 108 31 236v189q0 17 17 17h377q6 0 11.5 -4.5t5.5 -11.5v-640h67q6 0 11.5 -4.5t5.5 -11.5v-197q0 -16 -17 -16h-53q-16 0 -16 16zM297 656v-120q0 -232 -114 -450h352v570
h-238z" />
    <glyph glyph-name="afii10022" unicode="&#x415;" horiz-adv-x="642"
d="M103 742h481q22 0 22 -23v-41q0 -23 -23 -23h-416v-221h331q22 0 22 -23v-41q0 -9 -6 -16t-16 -7h-331v-260h420q23 0 23 -24v-41q0 -22 -22 -22h-485q-22 0 -22 21v698q0 23 22 23z" />
    <glyph glyph-name="afii10024" unicode="&#x416;" horiz-adv-x="904"
d="M476 0h-53q-16 0 -16 16v301q-20 0 -42 5l-226 -296q-17 -26 -28 -26h-86q-10 0 -10 7q0 6 5 13q38 53 79 106.5t105 134.5t83 105q-35 40 -74 126l-41 80q-25 50 -46.5 68.5t-51.5 18.5q-17 0 -17 19v43q0 21 19 21q32 0 58 -10t43 -23t34.5 -39t27 -44.5t25.5 -54.5
l39 -83q23 -51 46.5 -69.5t57.5 -18.5v326q0 16 16 16h53q17 0 17 -16v-326q45 0 68.5 30.5t74.5 140.5q18 39 26.5 56t26.5 44.5t34 39t42.5 21.5t58.5 10q20 0 20 -21v-43q0 -19 -18 -19q-31 0 -52.5 -18.5t-45.5 -68.5l-40 -80q-3 -5 -12 -23.5t-12 -24.5t-11 -20.5
t-13 -22.5t-12.5 -18.5t-15.5 -18.5q23 -29 83 -105t102.5 -131t80.5 -108q4 -5 4 -12q0 -8 -9 -8h-86q-12 0 -29 26q-161 210 -225 296q-20 -5 -40 -5v-301q0 -16 -17 -16z" />
    <glyph glyph-name="afii10025" unicode="&#x417;" horiz-adv-x="625"
d="M282 748q111 0 180.5 -43.5t69.5 -136.5q0 -36 -12.5 -64t-25.5 -41t-36 -31l-18 -13q122 -67 122 -203q0 -113 -77 -171t-195 -58q-160 0 -227 83q-5 5 -5 13q0 7 5 12h-1l37 36q6 6 14 6q5 0 11 -4h-1q45 -63 163 -63q190 0 190 147q0 72 -43.5 109.5t-119.5 37.5h-89
q-16 0 -16 16v54q0 17 16 17h93q53 2 91.5 31t38.5 84q0 48 -49 74.5t-115 26.5q-100 0 -153 -65q-6 -4 -11 -4q-7 0 -13 6l-35 33h1q-5 5 -5 12t5 12q70 87 210 87z" />
    <glyph glyph-name="afii10026" unicode="&#x418;" horiz-adv-x="791"
d="M152 0h-47q-24 0 -24 22v698q0 9 7.5 15.5t16.5 6.5h41q19 0 22 -19v-575l449 584q7 10 19 10h55q10 0 16 -6.5t6 -16.5v-697q0 -22 -22 -22h-41q-23 0 -23 22v586l-456 -599q-7 -9 -19 -9z" />
    <glyph glyph-name="afii10027" unicode="&#x419;" horiz-adv-x="791"
d="M396 833q-52 1 -88 35t-36 80q0 8 5.5 14t13.5 6h34q9 0 14.5 -6t5.5 -14q0 -18 14 -31t39 -13q21 0 35.5 12t14.5 28q0 24 19 24h29q26 0 26 -20q0 -46 -37 -80.5t-89 -34.5zM105 0h47q12 0 19 9l456 599v-586q0 -22 23 -22h41q22 0 22 22v697q0 10 -6 16.5t-16 6.5h-55
q-12 0 -19 -10l-449 -584v575q-3 19 -22 19h-41q-9 0 -16.5 -6.5t-7.5 -15.5v-698q0 -22 24 -22z" />
    <glyph glyph-name="afii10028" unicode="&#x41a;" horiz-adv-x="734"
d="M167 720v-324q75 -2 140 92l58 83q62 90 88 116q58 57 140 56q17 0 17 -18v-44q-2 -21 -19 -21q-65 -4 -134 -98l-68 -95q-5 -7 -20 -27t-23 -30q33 -38 104.5 -120.5t125.5 -146t101 -123.5q7 -9 7 -11q0 -9 -11 -9h-86q-11 0 -30 26q-182 216 -272 324
q-48 -31 -118 -38v-290q0 -22 -22 -22h-42q-22 0 -22 22v698q0 22 22 22h42q22 0 22 -22z" />
    <glyph glyph-name="afii10029" unicode="&#x41b;" horiz-adv-x="722"
d="M49 -7q-20 0 -20 19v34q0 21 22 21q31 0 54 28.5t23 59.5v570q0 17 16 17h483q7 0 12.5 -4.5t5.5 -11.5v-710q0 -16 -18 -16h-52q-17 0 -17 16v640h-344v-501q0 -66 -50 -114t-115 -48z" />
    <glyph glyph-name="afii10030" unicode="&#x41c;" horiz-adv-x="926"
d="M483 32h-39q-12 0 -20 18l-230 541l-55 -569q0 -22 -23 -22h-42q-22 0 -22 22q12 117 36 349t36 349q0 10 7 16t17 6h62q16 0 22 -19l232 -558q39 93 116 279t116 279q5 19 21 19h65q10 0 16 -6.5t6 -15.5l73 -698q0 -22 -23 -22h-42q-22 0 -22 22l-56 569l-230 -541
q-8 -18 -21 -18z" />
    <glyph glyph-name="afii10031" unicode="&#x41d;" horiz-adv-x="773"
d="M609 432v288q0 22 22 22h41q9 0 16 -6.5t7 -15.5v-698q0 -22 -23 -22h-41q-22 0 -22 22v325h-442v-325q0 -22 -24 -22h-40q-22 0 -22 22v698q0 22 22 22h41q9 0 16 -6.5t7 -15.5v-288h442z" />
    <glyph glyph-name="afii10032" unicode="&#x41e;" horiz-adv-x="853"
d="M426 752q158 0 270 -112t112 -271q0 -158 -112 -269t-271 -111q-158 0 -269.5 111.5t-111.5 269.5t112 270t270 112zM131 371q0 -123 86 -209.5t209 -86.5q122 0 208 86.5t86 209.5q0 121 -86 207.5t-208 86.5q-123 0 -209 -86t-86 -208z" />
    <glyph glyph-name="afii10033" unicode="&#x41f;" horiz-adv-x="695"
d="M96 742h505q16 0 16 -17v-705q0 -8 -6.5 -14t-14.5 -6h-44q-8 0 -14.5 6.5t-6.5 14.5v635h-364v-635q0 -8 -7 -14.5t-15 -6.5h-44q-8 0 -14.5 6t-6.5 14v705q0 17 16 17z" />
    <glyph glyph-name="afii10034" unicode="&#x420;" horiz-adv-x="629"
d="M81 22v696q0 24 23 24h248q97 0 164 -68.5t67 -163.5q0 -93 -66 -161.5t-162 -68.5h-188v-258q0 -22 -22 -22h-42q-22 0 -22 22zM497 511q0 59 -42.5 102.5t-102.5 43.5h-185v-292h185q59 0 102 43.5t43 102.5z" />
    <glyph glyph-name="afii10035" unicode="&#x421;" horiz-adv-x="705"
d="M653 677q13 -8 13 -17q0 -8 -7 -17l-21 -33q-9 -12 -17 -12q-9 2 -18 8q-81 58 -174 58q-128 0 -213 -87t-85 -208q0 -122 89 -208t207 -86q80 0 157 47q5 2 18.5 12t18.5 10q9 0 17 -12l23 -38q3 -7 3 -14q0 -11 -11 -17q-101 -74 -228 -74q-158 0 -269.5 111.5
t-111.5 269.5t112 270t270 112q125 0 227 -75z" />
    <glyph glyph-name="afii10036" unicode="&#x422;" horiz-adv-x="611"
d="M44 742h514q23 0 24 -22v-41q0 -24 -24 -24h-213v-633q0 -22 -23 -22h-41q-10 0 -16.5 6t-6.5 16v633h-214q-23 0 -23 24v41q0 22 23 22z" />
    <glyph glyph-name="afii10037" unicode="&#x423;" horiz-adv-x="487"
d="M72 -5q-19 0 -19 21v44q0 19 16 19q31 0 51 17.5t40 67.5l39 96l-190 461l1 -1q-2 9 -2 12q0 11 17 11h53q16 0 22 -16q22 -54 70.5 -181t73.5 -188l143 372v-1q6 14 23 14h51q19 0 19 -16v-6l-9 -23v1q-124 -297 -219 -534q-14 -35 -22.5 -53.5t-25 -44.5t-33 -39
t-42 -23t-57.5 -10z" />
    <glyph glyph-name="afii10038" unicode="&#x424;" horiz-adv-x="787"
d="M439 720v-33q132 -17 221 -107t89 -211t-88.5 -210.5t-221.5 -105.5v-31q0 -22 -22 -22h-42q-22 0 -22 22v32q-131 16 -218.5 105.5t-87.5 210.5q0 120 87.5 210t218.5 107v33q0 22 22 22h42q22 0 22 -22zM661 370q0 90 -61.5 153.5t-160.5 77.5v-461q98 15 160 77.5
t62 152.5zM133 370q0 -90 61 -152.5t159 -77.5v460q-97 -14 -158.5 -77t-61.5 -153z" />
    <glyph glyph-name="afii10039" unicode="&#x425;" horiz-adv-x="633"
d="M370 370l237 -348q6 -7 6 -14q0 -8 -15 -8h-60q-18 0 -30 18l-189 279l-188 -279q-13 -18 -30 -18h-61q-14 0 -14 8q0 5 6 14l237 348q-119 178 -236 347q-7 10 -7 16q0 9 20 9h54q16 0 33 -22l186 -276l188 276q17 22 37 22h49q20 0 20 -8q0 -7 -7 -17z" />
    <glyph glyph-name="afii10040" unicode="&#x426;" horiz-adv-x="733"
d="M692 63v-184q0 -22 -23 -22h-41q-23 0 -23 22v121h-503q-8 0 -14.5 6.5t-6.5 15.5v700q0 8 6.5 14t14.5 6h44q8 0 14.5 -6t6.5 -15v-635h364v635q0 9 6.5 15t15.5 6h43q9 0 15 -6t6 -14v-637h52q23 0 23 -22z" />
    <glyph glyph-name="afii10041" unicode="&#x427;" horiz-adv-x="639"
d="M568 722v-701q0 -8 -7 -14.5t-15 -6.5h-42q-23 0 -23 20v254q-26 -40 -75 -65t-99 -25q-109 0 -179.5 75.5t-70.5 184.5v278q0 8 6.5 14.5t14.5 6.5h42q9 0 16 -6t7 -14v-305q0 -59 51.5 -103t112.5 -44q60 0 116 42t58 99v312q0 8 6.5 13.5t16.5 5.5h42q8 0 15 -6.5
t7 -14.5z" />
    <glyph glyph-name="afii10042" unicode="&#x428;" horiz-adv-x="940"
d="M865 722l1 -700q0 -22 -23 -22h-742q-8 0 -14.5 6.5t-6.5 15.5v700q0 8 6.5 14t14.5 6h44q9 0 15.5 -6t6.5 -15v-635h263v636q0 8 6.5 14t14.5 6h44q8 0 14.5 -6t6.5 -15v-635h263v635q0 9 6.5 15t14.5 6h43q9 0 15.5 -6t6.5 -14z" />
    <glyph glyph-name="afii10043" unicode="&#x429;" horiz-adv-x="980"
d="M939 63v-184q0 -22 -22 -22h-42q-22 0 -22 22v121h-402h-350q-8 0 -14.5 6.5t-6.5 15.5v700q0 8 6.5 14t14.5 6h44q9 0 15.5 -6t6.5 -15v-635h263v636q0 8 6.5 14t14.5 6h44q8 0 14.5 -6t6.5 -15v-635h263v635q0 9 6.5 15t14.5 6h43q9 0 15.5 -6t6.5 -14v-637h52
q22 0 22 -22z" />
    <glyph glyph-name="afii10044" unicode="&#x42a;" horiz-adv-x="667"
d="M182 457h220q95 0 160.5 -68t65.5 -160q0 -94 -66 -161.5t-162 -67.5h-287q-17 0 -17 15v641h-76q-19 0 -19 18v50q0 18 17 18h148q16 0 16 -16v-269zM542 228q0 57 -42.5 100.5t-99.5 43.5h-218v-288h218q59 0 100.5 43.5t41.5 100.5z" />
    <glyph glyph-name="afii10045" unicode="&#x42b;" horiz-adv-x="852"
d="M81 24v696q0 22 22 22h42q22 0 22 -22v-258h188q96 0 162 -68.5t66 -161.5q0 -95 -67 -163.5t-164 -68.5h-248q-23 0 -23 24zM497 231q0 59 -43 102.5t-102 43.5h-185v-292h185q60 0 102.5 43.5t42.5 102.5zM770 720v-698q0 -22 -23 -22h-41q-23 0 -23 22v698q0 22 23 22
h41q23 0 23 -22z" />
    <glyph glyph-name="afii10046" unicode="&#x42c;" horiz-adv-x="629"
d="M81 24v696q0 22 22 22h42q22 0 22 -22v-258h188q96 0 162 -68.5t66 -161.5q0 -95 -67 -163.5t-164 -68.5h-248q-23 0 -23 24zM497 231q0 59 -43 102.5t-102 43.5h-185v-292h185q60 0 102.5 43.5t42.5 102.5z" />
    <glyph glyph-name="afii10047" unicode="&#x42d;" horiz-adv-x="717"
d="M247 326q-16 0 -16 18v51q0 17 16 17h336q-17 107 -102.5 180t-203.5 73q-98 -7 -165 -57q-11 -7 -15 -7q-5 0 -12 10l-27 44q-3 3 -3 8q0 9 10 17q101 72 225 72q158 0 270 -112t112 -270t-111.5 -269.5t-269.5 -111.5q-126 0 -224 71q-12 6 -12 15q0 2 1 6q2 2 2 4
l29 47q7 10 12 10q4 0 12 -5l21 -13q75 -48 161 -48q109 0 192 70.5t98 179.5h-336z" />
    <glyph glyph-name="afii10048" unicode="&#x42e;" horiz-adv-x="1055"
d="M167 720v-302h97q18 142 126 238t253 96q158 0 270 -112t112 -271q0 -158 -112 -269t-271 -111q-148 0 -256.5 99t-122.5 244h-96v-310q0 -22 -22 -22h-42q-22 0 -22 22v698q0 22 22 22h42q22 0 22 -22zM348 371q0 -123 86 -209.5t209 -86.5q122 0 208 86.5t86 209.5
q0 121 -86.5 207.5t-207.5 86.5q-123 0 -209 -86t-86 -208z" />
    <glyph glyph-name="afii10049" unicode="&#x42f;" horiz-adv-x="661"
d="M118 507q0 -61 43 -105.5t105 -44.5h226v300h-225q-62 0 -105.5 -45t-43.5 -105zM578 718v-696q0 -22 -22 -22h-42q-22 0 -22 22v250h-175q-55 0 -62 1l-121 -254q-10 -19 -26 -19h-55q-18 0 -18 13q0 1 2 9l132 271q-62 28 -99.5 85.5t-37.5 127.5q0 98 68.5 167
t166.5 69h289q22 0 22 -24z" />
    <glyph glyph-name="afii10065" unicode="&#x430;" horiz-adv-x="594"
d="M430 25v47q-26 -39 -60.5 -60.5t-90.5 -21.5q-104 0 -171.5 73t-67.5 181t67.5 181.5t171.5 73.5q56 0 90 -22t61 -61l4 50q2 25 24 25h29q11 0 18.5 -6.5t7.5 -18.5v-444q0 -10 -7.5 -16t-18.5 -6h-32q-25 0 -25 25zM123 244q0 -72 43.5 -121.5t112.5 -49.5
q70 0 110.5 47.5t40.5 121.5t-40 123.5t-111 49.5q-70 0 -113 -49.5t-43 -121.5z" />
    <glyph glyph-name="afii10066" unicode="&#x431;" horiz-adv-x="586"
d="M133 246q0 -68 48 -120t114 -52q65 0 113 52t48 120t-48 119.5t-113 51.5q-67 0 -114.5 -51.5t-47.5 -119.5zM296 749q24 1 55 2.5t47 2t32.5 3t26.5 6.5q16 5 22 -6q9 -19 16 -48q3 -12 0 -15.5t-15 -7.5q-11 -4 -23.5 -6.5t-22.5 -4t-29 -3t-29 -2t-38 -2t-42 -2.5
q-149 -7 -162 -247q31 38 74.5 58.5t86.5 20.5q101 0 172.5 -74.5t71.5 -177.5t-71 -179.5t-172 -76.5q-88 0 -149.5 49.5t-85.5 131.5q-17 60 -17 197q0 368 252 381z" />
    <glyph glyph-name="afii10067" unicode="&#x432;" horiz-adv-x="512"
d="M66 472q0 18 17 18h221q61 0 104.5 -41.5t43.5 -96.5q0 -47 -36 -88q56 -51 56 -121q0 -60 -46 -101.5t-116 -41.5h-227q-17 0 -17 16v456zM384 146q0 26 -18 51t-43 25h-169v-145h158q34 0 53 21t19 48zM154 295h150q24 0 42 17.5t18 41.5q0 26 -18.5 43.5t-49.5 17.5
h-142v-120z" />
    <glyph glyph-name="afii10068" unicode="&#x433;" horiz-adv-x="461"
d="M442 402h-275v-385q0 -17 -17 -17h-51q-18 0 -18 17v456q0 17 17 17h344q18 0 18 -17v-52q0 -8 -5 -13.5t-13 -5.5z" />
    <glyph glyph-name="afii10069" unicode="&#x434;" horiz-adv-x="598"
d="M479 -84v84h-361v-85q0 -16 -17 -16h-53q-17 0 -17 16v154q0 18 17 18h40q39 65 57.5 100.5t37 96t18.5 119.5v71q0 17 16 17h270q6 0 11.5 -4.5t5.5 -11.5v-388h45q6 0 11.5 -5t5.5 -12v-154q0 -17 -17 -17h-54q-16 0 -16 17zM291 405l-6 -7q0 -163 -99 -311h231v318
h-126z" />
    <glyph glyph-name="afii10070" unicode="&#x435;" horiz-adv-x="532"
d="M280 -12q-98 0 -167 74.5t-69 181.5t69 182t167 75q92 0 158 -69.5t66 -166.5v-12q0 -27 -16.5 -36.5t-48.5 -9.5h-307q9 -60 50.5 -97.5t97.5 -37.5q65 0 115 42q7 7 18 7q6 0 11 -6l28 -42q4 -4 4 -9q-1 -9 -17 -20q-84 -56 -159 -56zM136 281h283q-10 57 -50.5 96.5
t-90.5 39.5t-89.5 -39t-52.5 -97z" />
    <glyph glyph-name="afii10072" unicode="&#x436;" horiz-adv-x="732"
d="M389 0h-52q-17 0 -17 16v169q-24 0 -44 5l-127 -165q-15 -25 -28 -25h-85q-11 0 -11 6q0 4 6 14l167 213q-34 38 -67 106q-24 50 -45.5 64.5t-54.5 14.5q-18 0 -18 19v43q0 22 20 22q34 0 60 -8.5t42.5 -19t33.5 -36t25.5 -42t26.5 -55.5q16 -34 31.5 -50.5t28.5 -19.5
t39 -3v206q0 16 17 16h52q17 0 17 -16v-206q35 0 55 13.5t42 59.5q21 45 33.5 67.5t35 48t51 35.5t69.5 10q19 0 19 -22v-43q0 -19 -17 -19q-34 0 -55.5 -14.5t-45.5 -64.5q-34 -70 -66 -107l166 -212q6 -10 6 -14q0 -6 -11 -6h-85q-11 0 -28 25l-126 165q-22 -5 -43 -5
v-169q0 -16 -17 -16z" />
    <glyph glyph-name="afii10073" unicode="&#x437;" horiz-adv-x="427"
d="M192 495h24q72 0 122 -39t50 -96q0 -49 -47 -99q47 -53 47 -111q0 -60 -51.5 -105t-122.5 -45h-42q-47 0 -77 10t-64 34q-8 2 -8 8q0 8 19.5 41t22.5 33t7 -2q48 -37 100 -37h42q40 0 62 19.5t22 47.5q0 25 -18.5 46t-43.5 21h-78q-7 0 -7 7v65q0 8 7 8h78q26 0 44 15.5
t18 39.5q0 26 -20.5 37t-63.5 11h-21q-51 0 -103 -38q-4 -2 -7 -2q-1 0 -8 7l1 -1l-34 63q-1 2 -1 5q0 6 8 8q36 25 66.5 37t76.5 12z" />
    <glyph glyph-name="afii10074" unicode="&#x438;" horiz-adv-x="588"
d="M158 0h-58q-20 0 -20 17v456q0 17 20 17h52q14 0 17 -15v-327l242 333q5 9 17 9h68q8 0 13 -5t5 -13v-455q0 -17 -18 -17h-51q-19 0 -19 17v345l-253 -353q-6 -9 -15 -9z" />
    <glyph glyph-name="afii10075" unicode="&#x439;" horiz-adv-x="599"
d="M300 608q-52 0 -88 34.5t-36 80.5q0 8 5.5 13.5t13.5 5.5h34q9 0 14.5 -5.5t5.5 -13.5q0 -19 14 -32t39 -13q21 0 35.5 12t14.5 28q0 24 19 24h29q26 0 26 -19q0 -46 -37 -81t-89 -34zM100 0h58q9 0 15 9l253 353v-345q0 -17 19 -17h51q18 0 18 17v455q0 8 -5 13t-13 5
h-68q-12 0 -17 -9l-242 -333v327q-3 15 -17 15h-52q-20 0 -20 -17v-456q0 -17 20 -17z" />
    <glyph glyph-name="afii10076" unicode="&#x43a;" horiz-adv-x="508"
d="M151 0h-53q-17 0 -17 16v458q0 16 17 16h53q16 0 16 -16v-206q26 0 38.5 3t27.5 19t32 51q17 38 26.5 56t26 42.5t33.5 35.5t43 19t59 8q20 0 20 -22v-43q0 -19 -18 -19q-34 -1 -55 -15t-45 -64q-34 -70 -68 -107l173 -212q16 -20 -5 -20v0v0v0v0v0v0v0v0v0v0v0v0v0v0h-1
v0v0v0h-1v0v0h-1v0v0h-1v0h-1v0h-1v0h-1v0h-1h-1v0h-1h-1h-1v0h-1h-1h-1h-1h-1h-1h-1h-1h-1h-1h-1h-1h-1h-1h-1h-1h-1h-1h-1h-1h-1h-1h-1h-1h-1h-1h-1h-1h-1h-1h-1h-1h-1h-1h-1h-1h-1h-1h-1h-1h-1h-1h-1h-1h-1h-1h-1h-1h-1h-1h-1h-1h-1h-1h-1h-1h-1h-1h-1h-1h-1h-1h-1h-1h-1
h-1h-10q-7 0 -15 12l-140 178q-22 -5 -45 -5v-169q0 -16 -16 -16z" />
    <glyph glyph-name="afii10077" unicode="&#x43b;" horiz-adv-x="610"
d="M61 -7q-20 0 -20 20v33q0 21 22 21q55 0 55 67v339q0 17 16 17h375q6 0 11.5 -4.5t5.5 -11.5v-458q0 -16 -17 -16h-53q-17 0 -17 16v388h-234v-270q0 -141 -144 -141z" />
    <glyph glyph-name="afii10078" unicode="&#x43c;" horiz-adv-x="634"
d="M347 42h-49q-5 0 -16 16l-121 295l-20 -336q0 -17 -18 -17h-53q-17 0 -17 17q6 85 13 175.5t11 145.5l10 134q0 18 18 18h76q11 0 16 -14l126 -308l126 308q3 14 15 14h77q17 0 17 -18l10 -139q2 -20 9.5 -122t15.5 -194q-2 -17 -18 -17h-52q-19 0 -19 17l-18 334
l-123 -293q-6 -16 -16 -16z" />
    <glyph glyph-name="afii10079" unicode="&#x43d;" horiz-adv-x="590"
d="M427 304v169q0 17 18 17h51q20 0 20 -17v-456q0 -17 -20 -17h-51q-18 0 -18 17v198h-258v-198q0 -17 -20 -17h-51q-18 0 -18 17v456q0 17 18 17h52q19 0 19 -17v-169h258z" />
    <glyph glyph-name="afii10080" unicode="&#x43e;" horiz-adv-x="610"
d="M44 244q0 107 75 182t181 75t181.5 -75.5t75.5 -181.5t-75 -181t-182 -75q-106 0 -181 75t-75 181zM125 244q0 -72 51.5 -124t123.5 -52t124 52t52 124t-52 124.5t-124 52.5t-123.5 -52.5t-51.5 -124.5z" />
    <glyph glyph-name="afii10081" unicode="&#x43f;" horiz-adv-x="581"
d="M97 489h391q18 0 18 -16v-457q0 -16 -18 -16h-52q-16 0 -16 16v388h-253v-388q0 -16 -19 -16h-51q-17 0 -17 16v457q0 16 17 16z" />
    <glyph glyph-name="afii10082" unicode="&#x440;" horiz-adv-x="591"
d="M81 -168v634q0 25 27 25h26q27 0 29 -25l4 -44q25 35 64 57t85 22q97 0 163.5 -74t66.5 -181t-66.5 -180.5t-163.5 -73.5t-148 76v-236q0 -25 -29 -25h-29q-13 0 -21 7t-8 18zM167 244q0 -71 42 -120.5t103 -49.5t102.5 49.5t41.5 120.5t-42 121.5t-102 50.5t-102 -50
t-43 -120v-2z" />
    <glyph glyph-name="afii10083" unicode="&#x441;" horiz-adv-x="497"
d="M295 68q63 0 115 45q9 7 18 7q8 0 11 -6l29 -41q3 -5 3 -9q0 -9 -17 -20q-79 -56 -159 -56q-107 0 -181.5 75t-74.5 181q0 107 75 182t181 75q81 0 154 -52q16 -11 16 -20q0 -8 -3 -11l-27 -43v1q-5 -6 -13 -6q-6 0 -16 8q-56 43 -111 43q-72 0 -124 -52.5t-52 -124.5
t52 -124t124 -52z" />
    <glyph glyph-name="afii10084" unicode="&#x442;" horiz-adv-x="466"
d="M37 418v59q0 13 13 13h363q12 0 12 -13v-59q0 -15 -12 -15h-138v-386q0 -17 -19 -17h-53q-17 0 -17 17v386h-136q-13 0 -13 15z" />
    <glyph glyph-name="afii10085" unicode="&#x443;" horiz-adv-x="501"
d="M478 446q-46 -109 -131 -318t-125 -304q-8 -17 -27 -17h-40q-23 0 -23 17q0 2 2 10l72 176l-184 446q-4 9 -4 19q0 16 21 16h43q19 0 26 -18q64 -168 143 -362l143 364q8 16 27 16h41q24 0 24 -20q0 -7 -8 -25z" />
    <glyph glyph-name="afii10086" unicode="&#x444;" horiz-adv-x="652"
d="M288 -177v172q-101 2 -172.5 74t-71.5 175t71.5 175t172.5 74v184q0 17 17 17h52q18 0 18 -17v-184q101 -3 171.5 -75t70.5 -174t-70 -174t-172 -75v-172q0 -17 -18 -17h-52q-17 0 -17 17zM132 244q0 -69 44.5 -116.5t111.5 -49.5v332q-67 -1 -111.5 -49.5t-44.5 -116.5z
M527 244q0 66 -43.5 114.5t-108.5 51.5v-332q65 3 108.5 50.5t43.5 115.5z" />
    <glyph glyph-name="afii10087" unicode="&#x445;" horiz-adv-x="484"
d="M285 258l161 -236q7 -12 7 -14q0 -8 -16 -8h-60q-16 0 -30 17l-112 175l-112 -173q-13 -19 -31 -19h-58q-17 0 -17 8q0 3 8 17l160 233l-148 217q-2 3 -2.5 6.5t2.5 6.5t9 3h62q18 0 34 -21l93 -146l93 147q12 20 33 20h61q9 0 11 -6t-2 -12z" />
    <glyph glyph-name="afii10088" unicode="&#x446;" horiz-adv-x="610"
d="M484 0h-387q-17 0 -17 17v456q0 18 19 18h49q8 0 13.5 -5.5t5.5 -13.5v-385h254v385q0 19 18 19h50q19 0 19 -18v-388h46q17 0 17 -17v-154q0 -16 -17 -16h-54q-16 0 -16 17v85z" />
    <glyph glyph-name="afii10089" unicode="&#x447;" horiz-adv-x="535"
d="M464 471v-449q0 -22 -22 -22h-41q-10 0 -16.5 6t-6.5 16v163q-57 -67 -129 -67q-92 0 -148.5 65t-56.5 161v127q0 22 23 22h41q23 0 23 -22v-147q0 -50 36.5 -85.5t85.5 -35.5q48 0 85 35t40 84v149q0 22 22 22h42q22 0 22 -22z" />
    <glyph glyph-name="afii10090" unicode="&#x448;" horiz-adv-x="727"
d="M323 86v388q0 17 18 17h53q17 0 17 -17v-388h158v387q0 8 5.5 13t13.5 5h53q17 0 17 -18v-459q0 -14 -17 -14h-543q-18 0 -18 17v457q0 17 18 17h52q19 0 19 -17v-388h154z" />
    <glyph glyph-name="afii10091" unicode="&#x449;" horiz-adv-x="752"
d="M323 86v388q0 17 18 17h53q17 0 17 -17v-388h158v387q0 8 5.5 13t13.5 5h53q17 0 17 -18v-388h38q16 0 16 -17v-154q0 -16 -16 -16h-55q-16 0 -16 17v80l-3 5h-524q-18 0 -18 17v457q0 17 18 17h52q19 0 19 -17v-388h154z" />
    <glyph glyph-name="afii10092" unicode="&#x44a;" horiz-adv-x="527"
d="M27 490h138q17 0 17 -16l-1 -149h148q66 0 111 -48t45 -114q0 -67 -45.5 -115t-112.5 -48h-215q-17 0 -17 15v389h-67q-18 0 -18 17v51q0 18 17 18zM411 163q0 33 -24.5 58t-57.5 25h-148v-168h148q34 0 58 25.5t24 59.5z" />
    <glyph glyph-name="afii10093" unicode="&#x44b;" horiz-adv-x="672"
d="M98 490h52q16 0 16 -16v-149h115q66 0 111 -48t45 -114q0 -67 -45.5 -115t-112.5 -48h-182q-16 0 -16 15v457q0 18 17 18zM363 163q0 33 -24.5 58t-57.5 25h-115v-168h115q33 0 57.5 25.5t24.5 59.5zM507 21v447q0 21 20 21h50q9 0 16 -5.5t7 -15.5v-447q0 -21 -23 -21
h-50q-20 0 -20 21z" />
    <glyph glyph-name="afii10094" unicode="&#x44c;" horiz-adv-x="512"
d="M99 490h52q16 0 16 -16v-149h149q65 0 110 -48t45 -114q0 -67 -45.5 -115t-112.5 -48h-215q-17 0 -17 15v457q0 18 18 18zM397 163q0 32 -24.5 57.5t-56.5 25.5h-149v-168h149q33 0 57 25.5t24 59.5z" />
    <glyph glyph-name="afii10095" unicode="&#x44d;" horiz-adv-x="500"
d="M66 125q6 0 14 -4q20 -20 54 -34t65 -14q57 0 100.5 36.5t60.5 94.5h-188q-17 0 -17 17v48q0 16 17 16h188q-17 57 -60 93.5t-98 36.5q-65 0 -128 -48l-2 -1h-3q-9 0 -21.5 20.5t-16.5 33.5v3q0 13 11 22q67 53 157 53q105 0 179.5 -74t74.5 -180t-74.5 -180.5
t-179.5 -74.5q-90 0 -163 60q-11 9 -11 17l1 1v1q-1 1 -1 2q0 3 6 11q29 44 35 44z" />
    <glyph glyph-name="afii10096" unicode="&#x44e;" horiz-adv-x="826"
d="M168 473v-183h100q18 90 88.5 149t162.5 59q106 0 180 -74t74 -180t-74 -180.5t-180 -74.5q-93 0 -164 60.5t-88 153.5h-99v-187q0 -16 -16 -16h-54q-17 0 -17 16v457q0 16 16 16h53q18 0 18 -16zM353 244q0 -72 47.5 -121.5t118.5 -49.5q70 0 117 49.5t47 121.5
q0 71 -47 121.5t-117 50.5q-71 0 -118.5 -50.5t-47.5 -121.5z" />
    <glyph glyph-name="afii10097" unicode="&#x44f;" horiz-adv-x="490"
d="M222 165l-67 -142q-10 -23 -32 -23l-50 2q-14 0 -14 12q0 3 2 9l73 157q-41 21 -65.5 61t-24.5 86q0 67 46 115t113 48h204q18 0 18 -16v-455q0 -19 -19 -19h-50q-18 0 -18 17v148h-116zM120 327q0 -32 24 -56.5t56 -24.5h138v165h-138q-33 0 -56.5 -25.5t-23.5 -58.5z
" />
    <glyph glyph-name="afii10071" unicode="&#x451;" horiz-adv-x="532"
d="M280 -12q-98 0 -167 74.5t-69 181.5t69 182t167 75q92 0 158 -69.5t66 -166.5v-12q0 -27 -16.5 -36.5t-48.5 -9.5h-307q9 -60 50.5 -97.5t97.5 -37.5q65 0 115 42q7 7 18 7q6 0 11 -6l28 -42q4 -4 4 -9q-1 -9 -17 -20q-84 -56 -159 -56zM136 281h283q-10 57 -50.5 96.5
t-90.5 39.5t-89.5 -39t-52.5 -97zM130 633q0 26 18.5 44.5t44.5 18.5q27 0 45 -18.5t18 -44.5t-18 -44t-45 -18q-26 0 -44.5 18t-18.5 44zM316 634q0 26 18.5 44.5t44.5 18.5q27 0 45 -18.5t18 -44.5t-18 -44t-45 -18q-26 0 -44.5 18t-18.5 44z" />
    <glyph glyph-name="afii10099" unicode="&#x452;" horiz-adv-x="570"
d="M2 589v42q0 19 15 19h58v82q0 17 17 17h53q7 0 12 -5t5 -12v-82h77q14 0 14 -19v-42q0 -21 -14 -21h-77v-144q67 75 143 75q95 0 149.5 -66.5t54.5 -166.5v-288q0 -74 -52 -122.5t-128 -59.5q-16 0 -16 16v53q0 17 17 17h4q37 3 62.5 31.5t25.5 64.5v315q0 51 -36 85.5
t-86 34.5t-92.5 -35t-45.5 -84v-278q0 -16 -17 -16h-53q-17 0 -17 16v552h-58q-15 0 -15 21z" />
    <glyph glyph-name="afii10100" unicode="&#x453;" horiz-adv-x="448"
d="M381 713l-46 -105q-8 -21 -26 -21h-37q-26 0 -11 32l44 102q10 21 27 21h40q9 0 12 -4t2 -9.5t-5 -15.5zM166 402h275q8 0 13 5.5t5 13.5v52q0 17 -18 17h-344q-17 0 -17 -17v-456q0 -17 18 -17h51q17 0 17 17v385z" />
    <glyph glyph-name="afii10101" unicode="&#x454;" horiz-adv-x="493"
d="M400 121v-1q6 5 14 5q4 0 6 -2h-1q5 -7 15.5 -22t15.5 -22q2 -2 3 -5l1 -1q0 -5 2 -7q0 -8 -14 -18q-69 -59 -161 -59q-105 0 -179 74.5t-74 180.5t74 180t179 74q90 0 158 -54q11 -9 11 -21v-3q-6 -15 -18 -34.5t-20 -19.5q-5 0 -6 1q-61 48 -128 48q-55 0 -98 -36.5
t-59 -93.5h187q18 0 18 -16v-48q0 -17 -18 -17h-187q16 -58 60 -94.5t100 -36.5q30 0 64.5 14t54.5 34z" />
    <glyph glyph-name="afii10102" unicode="&#x455;" horiz-adv-x="425"
d="M39 100q-3 4 -2 11t7 9l50 20q16 7 23 -15q10 -28 38.5 -41.5t53.5 -13.5q36 0 65 18t29 47q0 30 -27 47.5t-76 30.5q-69 18 -107.5 55.5t-38.5 93.5q0 62 44.5 101.5t115.5 39.5q96 0 151 -97q7 -11 -1 -17l-41 -29q-11 -6 -24 13l-3 3q-36 49 -81 49q-35 0 -58 -19
t-23 -44q0 -46 82 -68q171 -44 171 -159q0 -66 -49.5 -105t-128.5 -39q-58 0 -107 29t-63 80z" />
    <glyph glyph-name="afii10103" unicode="&#x456;"
d="M167 469v-447q0 -22 -22 -22h-42q-22 0 -22 22v447q0 22 22 22h42q22 0 22 -22zM61 629q0 26 18.5 44.5t44.5 18.5q27 0 45 -18.5t18 -44.5t-18 -44t-45 -18q-26 0 -44.5 18t-18.5 44z" />
    <glyph glyph-name="afii10104" unicode="&#x457;"
d="M166 469v-447q0 -22 -22 -22h-41q-23 0 -23 22v447q0 10 6.5 16t15.5 6h41q10 0 16.5 -6.5t6.5 -15.5zM-33 633q0 26 18 44.5t44 18.5q27 0 45 -18.5t18 -44.5t-18 -44t-45 -18q-25 0 -43.5 18.5t-18.5 43.5zM153 634q0 26 18 44.5t44 18.5q27 0 45 -18.5t18 -44.5
t-18 -44t-45 -18q-25 0 -43.5 18t-18.5 44z" />
    <glyph glyph-name="afii10105" unicode="&#x458;"
d="M9 -200q-25 0 -25 25v32q0 26 25 26h3q29 2 48.5 26.5t19.5 53.5v503q0 25 27 25h34q26 0 26 -25v-503q0 -66 -47 -113.5t-111 -49.5zM61 629q0 26 18.5 44.5t44.5 18.5q27 0 45 -18.5t18 -44.5t-18 -44t-45 -18q-26 0 -44.5 18t-18.5 44z" />
    <glyph glyph-name="afii10106" unicode="&#x459;" horiz-adv-x="787"
d="M122 490h336q16 0 16 -16v-149h126q65 0 110.5 -48.5t45.5 -113.5q0 -67 -46 -115t-113 -48h-193q-16 0 -16 15v389h-195v-270q0 -141 -144 -141q-19 0 -19 20v33q0 21 22 21q54 0 54 67v339q0 17 16 17zM681 163q0 32 -24.5 57.5t-56.5 25.5h-126v-168h126q33 0 57 25.5
t24 59.5z" />
    <glyph glyph-name="afii10107" unicode="&#x45a;" horiz-adv-x="795"
d="M399 490h52q16 0 16 -16v-149h149q66 0 111 -48t45 -114q0 -67 -46 -115t-113 -48h-215q-16 0 -16 15v232h-215v-231q0 -16 -18 -16h-52q-16 0 -16 16v457q0 16 16 16h53q7 0 12 -4.5t5 -11.5v-148h215v147q0 18 17 18zM697 163q0 32 -24.5 57.5t-56.5 25.5h-149v-168
h149q33 0 57 25.5t24 59.5z" />
    <glyph glyph-name="afii10108" unicode="&#x45b;" horiz-adv-x="570"
d="M93 22v546h-60q-15 0 -15 21v42q0 19 15 19h58v82q0 17 17 17h53q7 0 12 -5t5 -12v-4q2 -4 2 -8v-70h75q14 0 14 -19v-42q0 -21 -14 -21h-75v-135q56 67 128 67q93 0 149 -65t56 -161v-252q0 -22 -23 -22h-41q-23 0 -23 22v271q0 51 -36 86t-86 35q-48 0 -85 -34.5
t-39 -83.5v-274q0 -22 -22 -22h-42q-23 0 -23 22z" />
    <glyph glyph-name="afii10109" unicode="&#x45c;" horiz-adv-x="508"
d="M150 0h-53q-16 0 -16 16v458q0 16 16 16h53q17 0 17 -16v-206q26 0 38.5 3t27.5 19t31 51q21 46 33.5 68.5t34 47.5t50.5 35t70 10q20 0 20 -22v-43q0 -19 -17 -19q-35 -1 -55.5 -15t-45.5 -64q-31 -67 -67 -107l173 -212q16 -20 -5 -20h-88q-7 0 -16 12l-140 178
q-22 -5 -44 -5v-169q0 -16 -17 -16zM340 713l-46 -105q-8 -21 -26 -21h-37q-26 0 -11 32l44 102q10 21 27 21h40q9 0 12 -4t2 -9.5t-5 -15.5z" />
    <glyph glyph-name="afii10110" unicode="&#x45e;" horiz-adv-x="501"
d="M258 608q-52 0 -88 34.5t-36 80.5q0 8 6 13.5t14 5.5h33q9 0 14.5 -5.5t5.5 -13.5q0 -19 14 -32t39 -13q22 0 36 12t14 28q0 24 20 24h29q25 0 25 -19q0 -47 -37 -81.5t-89 -33.5zM478 446q-46 -109 -131 -318t-125 -304q-8 -17 -27 -17h-40q-23 0 -23 17q0 2 2 10
l72 176l-184 446q-4 9 -4 19q0 16 21 16h43q19 0 26 -18q64 -168 143 -362l143 364q8 16 27 16h41q24 0 24 -20q0 -7 -8 -25z" />
    <glyph glyph-name="afii10193" unicode="&#x45f;" horiz-adv-x="576"
d="M248 -80v80h-149q-19 0 -19 16v457q0 16 19 16h51q17 0 17 -16v-388h253v388q0 16 18 16h52q16 0 16 -16v-457q0 -16 -16 -16h-149v-80q0 -21 -22 -21h-51q-20 0 -20 21z" />
    <glyph glyph-name="afii10146" unicode="&#x462;" horiz-adv-x="660"
d="M-4 669v59q0 12 12 12h261q12 0 12 -12v-59q0 -14 -12 -14h-90v-198h208q96 0 161.5 -68t65.5 -160q0 -94 -66 -161.5t-163 -67.5h-276q-16 0 -16 15v640h-85q-12 0 -12 14zM528 228q0 57 -43 100.5t-100 43.5h-206v-287h206q59 0 101 43t42 100z" />
    <glyph glyph-name="afii10194" unicode="&#x463;" horiz-adv-x="520"
d="M130 750h52q16 0 16 -17v-133h94q12 0 12 -12v-60q0 -14 -12 -14h-94v-189h115q66 0 111 -48t45 -114q0 -67 -46 -115t-113 -48h-181q-17 0 -17 15v499h-94q-12 0 -12 14v60q0 12 12 12h94v131q0 19 18 19zM394 163q0 32 -24.5 57.5t-56.5 25.5h-115v-168h115
q33 0 57 25.5t24 59.5z" />
    <glyph glyph-name="afii10147" unicode="&#x472;" horiz-adv-x="853"
d="M425 752q158 0 270 -112t112 -271q0 -158 -112 -269t-271 -111q-158 0 -269.5 111.5t-111.5 269.5t112 270t270 112zM425 75q103 0 183 64t103 163l-581 61q3 -120 88.5 -204t206.5 -84zM425 665q-102 0 -180.5 -61t-104.5 -156l579 -61q-7 116 -92 197t-202 81z" />
    <glyph glyph-name="afii10195" unicode="&#x473;" horiz-adv-x="609"
d="M45 244q0 106 74.5 180t179.5 74q106 0 180 -74t74 -180t-74 -180.5t-180 -74.5q-105 0 -179.5 74.5t-74.5 180.5zM299 73q52 0 93.5 31t62.5 82l-320 33q11 -64 56.5 -105t107.5 -41zM299 416q-51 0 -93 -31t-63 -81l319 -32q-13 62 -58 103t-105 41z" />
    <glyph glyph-name="afii10148" unicode="&#x474;" horiz-adv-x="718"
d="M118 722q57 -147 238 -585q105 254 237 586q9 19 28 19h43q22 0 22 -17q0 -2 -1 -7l-1 -5l-287 -693q-9 -20 -26 -20h-29q-19 0 -26 19l-284 682q-6 12 -7 25q0 16 22 16h44q20 0 27 -20z" />
    <glyph glyph-name="afii10196" unicode="&#x475;" horiz-adv-x="489"
d="M111 473l137 -353l137 354q8 17 27 17h42q21 0 21 -16q0 -11 -4 -15l-182 -441q-8 -19 -27 -19h-29q-13 0 -17.5 4t-8.5 15l-181 435q-5 15 -5 21q0 16 21 16h43q18 0 26 -18z" />
    <glyph glyph-name="afii10050" unicode="&#x490;" horiz-adv-x="583"
d="M96 742h368v158q0 16 16 16h53q17 0 17 -15v-227q0 -18 -19 -18h-364v-640q0 -16 -17 -16h-54q-16 0 -16 15v710q0 17 16 17z" />
    <glyph glyph-name="afii10098" unicode="&#x491;" horiz-adv-x="485"
d="M97 491h291v102q0 17 17 17h54q16 0 16 -15v-173q0 -17 -18 -17h-290v-389q0 -16 -16 -16h-54q-17 0 -17 15v459q0 17 17 17z" />
    <glyph glyph-name="afii10846" unicode="&#x4d9;" horiz-adv-x="586"
d="M172 380l-2 -3v1q-17 -17 -27 -17q-7 0 -14 7h1l-26 30q-3 5 -3 14q0 8 10 14q72 69 171 69q107 0 182.5 -74t75.5 -181q0 -110 -72.5 -179.5t-176.5 -69.5q-97 0 -169.5 65.5t-79.5 170.5v9q0 12 4.5 20t9 12t16.5 6t19 2h24h335q-12 63 -59.5 102t-104.5 39
q-67 0 -114 -37zM450 209h-327q13 -64 60.5 -102.5t108.5 -38.5q53 0 99 40t59 101z" />
    <glyph glyph-name="Wgrave" unicode="&#x1e80;" horiz-adv-x="1065"
d="M357 130l240 598q5 14 18 14h55q18 0 18 -15l-2 -8l-114 -275q86 -210 129 -314q139 337 242 593q8 19 27 19h42q22 0 22 -15q0 -4 -2 -6l-291 -699q0 -4 -2 -4q0 -1 -2 -5t-7.5 -8.5t-13.5 -4.5h-30q-22 0 -25 19l-134 320l-132 -317q-10 -22 -28 -22h-27q-18 0 -24 19
l-291 700l-1 3v5q0 15 18 15h49q17 0 26 -22zM514 825l-45 105q-7 15 -7 20q0 9 15 9h40q16 0 27 -21l44 -102q4 -10 6 -18q0 -14 -17 -14h-36q-17 0 -27 21z" />
    <glyph glyph-name="wgrave" unicode="&#x1e81;" horiz-adv-x="773"
d="M118 471q116 -295 133 -336q83 207 89 223l45 114q7 19 27 19h42q23 0 23 -17q0 -9 -3 -12q-17 -43 -41 -98q19 -49 57 -144l35 -85q17 41 40 98.5t51 129.5t43 109q8 19 27 19h42q24 0 24 -17q0 -2 -2 -7l-1 -5l-183 -443q0 -4 -9 -12q-7 -7 -17 -7h-29q-17 0 -26 19
l-97 234l-96 -234l-2 -3l-3.5 -7t-6.5 -5.5t-11 -2.5l-2 -1h-30q-21 0 -26 19l-183 443l-2 11v2q0 16 22 16h42q19 0 28 -20zM382 608l-45 105q-7 15 -7 20q0 9 15 9h40q16 0 27 -21l44 -102q4 -10 6 -18q0 -14 -17 -14h-36q-17 0 -27 21z" />
    <glyph glyph-name="Wacute" unicode="&#x1e82;" horiz-adv-x="1065"
d="M357 130l240 598q5 14 18 14h55q18 0 18 -15l-2 -8l-114 -275q86 -210 129 -314q139 337 242 593q8 19 27 19h42q22 0 22 -15q0 -4 -2 -6l-291 -699q0 -4 -2 -4q0 -1 -2 -5t-7.5 -8.5t-13.5 -4.5h-30q-22 0 -25 19l-134 320l-132 -317q-10 -22 -28 -22h-27q-18 0 -24 19
l-291 700l-1 3v5q0 15 18 15h49q17 0 26 -22zM593 928l-45 -105q-10 -21 -27 -21h-36q-26 0 -11 32l44 102q8 21 27 21h40q22 0 8 -29z" />
    <glyph glyph-name="wacute" unicode="&#x1e83;" horiz-adv-x="773"
d="M118 471q116 -295 133 -336q83 207 89 223l45 114q7 19 27 19h42q23 0 23 -17q0 -9 -3 -12q-17 -43 -41 -98q19 -49 57 -144l35 -85q17 41 40 98.5t51 129.5t43 109q8 19 27 19h42q24 0 24 -17q0 -2 -2 -7l-1 -5l-183 -443q0 -4 -9 -12q-7 -7 -17 -7h-29q-17 0 -26 19
l-97 234l-96 -234l-2 -3l-3.5 -7t-6.5 -5.5t-11 -2.5l-2 -1h-30q-21 0 -26 19l-183 443l-2 11v2q0 16 22 16h42q19 0 28 -20zM550 713l-45 -105q-10 -21 -27 -21h-36q-26 0 -11 32l44 102q8 21 27 21h40q22 0 8 -29z" />
    <glyph glyph-name="Wdieresis" unicode="&#x1e84;" horiz-adv-x="1065"
d="M357 130l240 598q5 14 18 14h55q18 0 18 -15l-2 -8l-114 -275q86 -210 129 -314q139 337 242 593q8 19 27 19h42q22 0 22 -15q0 -4 -2 -6l-291 -699q0 -4 -2 -4q0 -1 -2 -5t-7.5 -8.5t-13.5 -4.5h-30q-22 0 -25 19l-134 320l-132 -317q-10 -22 -28 -22h-27q-18 0 -24 19
l-291 700l-1 3v5q0 15 18 15h49q17 0 26 -22zM367 875q0 26 18 44.5t44 18.5q27 0 45 -18.5t18 -44.5t-18 -44t-45 -18q-25 0 -43.5 18.5t-18.5 43.5zM553 876q0 26 18 44.5t44 18.5q27 0 45 -18.5t18 -44.5t-18 -44t-45 -18q-25 0 -43.5 18t-18.5 44z" />
    <glyph glyph-name="wdieresis" unicode="&#x1e85;" horiz-adv-x="773"
d="M118 471q116 -295 133 -336q83 207 89 223l45 114q7 19 27 19h42q23 0 23 -17q0 -9 -3 -12q-17 -43 -41 -98q19 -49 57 -144l35 -85q17 41 40 98.5t51 129.5t43 109q8 19 27 19h42q24 0 24 -17q0 -2 -2 -7l-1 -5l-183 -443q0 -4 -9 -12q-7 -7 -17 -7h-29q-17 0 -26 19
l-97 234l-96 -234l-2 -3l-3.5 -7t-6.5 -5.5t-11 -2.5l-2 -1h-30q-21 0 -26 19l-183 443l-2 11v2q0 16 22 16h42q19 0 28 -20zM242 633q0 26 18 44.5t44 18.5q27 0 45 -18.5t18 -44.5t-18 -44t-45 -18q-26 0 -44 18.5t-18 43.5zM428 634q0 26 18 44.5t44 18.5q27 0 45 -18.5
t18 -44.5t-18 -44t-45 -18q-26 0 -44 18t-18 44z" />
    <glyph glyph-name="Ygrave" unicode="&#x1ef2;" horiz-adv-x="659"
d="M286 324l-242 393q-6 9 -6 15q0 10 15 10h65q10 -1 13.5 -4t12.5 -17l185 -308l189 312q10 16 23 17h68q12 0 12 -9q0 -7 -5 -13q-41 -66 -121.5 -196.5t-121.5 -196.5v-304q0 -23 -23 -23h-43q-21 0 -21 23v301zM288 824l-45 105q-7 15 -7 20q0 9 15 9h40q16 0 27 -21
l44 -102q4 -10 6 -18q0 -14 -17 -14h-36q-17 0 -27 21z" />
    <glyph glyph-name="ygrave" unicode="&#x1ef3;" horiz-adv-x="501"
d="M478 446q-46 -109 -131 -318t-125 -304q-8 -17 -27 -17h-40q-23 0 -23 17q0 2 2 10l72 176l-184 446q-4 9 -4 19q0 16 21 16h43q19 0 26 -18q64 -168 143 -362l143 364q8 16 27 16h41q24 0 24 -20q0 -7 -8 -25zM252 608l-45 105q-7 15 -7 20q0 9 15 9h40q16 0 27 -21
l44 -102q4 -10 6 -18q0 -14 -17 -14h-36q-17 0 -27 21z" />
    <glyph glyph-name="figuredash" unicode="&#x2012;" horiz-adv-x="525"
d="M104 319h318q22 0 22 -22v-42q0 -9 -6.5 -16t-15.5 -7h-318q-24 0 -24 23v42q0 22 24 22z" />
    <glyph glyph-name="endash" unicode="&#x2013;" horiz-adv-x="671"
d="M104 319h461q22 0 22 -22v-42q0 -9 -6.5 -16t-15.5 -7h-461q-24 0 -24 23v42q0 22 24 22z" />
    <glyph glyph-name="emdash" unicode="&#x2014;" horiz-adv-x="836"
d="M104 319h628q22 0 22 -22v-42q0 -9 -6.5 -16t-15.5 -7h-628q-24 0 -24 23v42q0 22 24 22z" />
    <glyph glyph-name="quoteleft" unicode="&#x2018;" horiz-adv-x="238"
d="M192 616q0 -25 -17.5 -42.5t-42.5 -17.5q-26 0 -43 18t-17 47q0 39 10.5 69t22.5 42.5t21 12.5q5 0 11 -3l14 -11q6 -6 6 -14q0 -3 -8 -14t-8 -24v-3q21 -4 36 -21.5t15 -38.5z" />
    <glyph glyph-name="quoteright" unicode="&#x2019;" horiz-adv-x="235"
d="M62 691q0 25 17.5 42t42.5 17q26 0 43 -17.5t17 -46.5q0 -39 -10.5 -69t-22.5 -43t-21 -13q-6 0 -10 4l-14 11q-7 5 -7 13q0 4 8 14.5t8 24.5v3q-20 3 -35.5 20.5t-15.5 39.5z" />
    <glyph glyph-name="quotesinglbase" unicode="&#x201a;" horiz-adv-x="264"
d="M60 41q0 25 17.5 42t41.5 17q27 0 43.5 -17.5t16.5 -46.5q0 -39 -10.5 -69t-22.5 -43t-21 -13q-6 0 -10 4l-14 11q-7 5 -7 13q0 4 8.5 14.5t8.5 24.5v3q-21 3 -36 20.5t-15 39.5z" />
    <glyph glyph-name="quotedblleft" unicode="&#x201c;" horiz-adv-x="392"
d="M192 616q0 -25 -17.5 -42.5t-42.5 -17.5q-26 0 -43 18t-17 47q0 39 10.5 69t22.5 42.5t21 12.5q5 0 11 -3l14 -11q6 -6 6 -14q0 -3 -8 -14t-8 -24v-3q21 -4 36 -21.5t15 -38.5zM352 616q0 -25 -17.5 -42.5t-41.5 -17.5q-26 0 -43 18t-17 47q0 39 10.5 69t22.5 42.5
t21 12.5q5 0 10 -3l14 -11q7 -7 7 -14q0 -3 -8.5 -14t-8.5 -24v-3q21 -4 36 -21t15 -39z" />
    <glyph glyph-name="quotedblright" unicode="&#x201d;" horiz-adv-x="386"
d="M62 691q0 25 17.5 42t42.5 17q26 0 43 -17.5t17 -46.5q0 -39 -10.5 -69t-22.5 -43t-21 -13q-6 0 -10 4l-14 11q-7 5 -7 13q0 4 8 14.5t8 24.5v3q-20 3 -35.5 20.5t-15.5 39.5zM223 691q0 25 17.5 42t41.5 17q27 0 43.5 -17.5t16.5 -46.5q0 -39 -10.5 -69t-22.5 -43
t-21 -13q-5 0 -10 4l-14 11q-7 5 -7 13q0 4 8.5 14.5t8.5 24.5v3q-20 3 -35.5 20.5t-15.5 39.5z" />
    <glyph glyph-name="quotedblbase" unicode="&#x201e;" horiz-adv-x="303"
d="M19 54q0 25 17.5 42.5t41.5 17.5q26 0 43 -18t17 -47q0 -39 -10.5 -69t-22.5 -42.5t-21 -12.5q-4 0 -10 3l-14 11q-7 7 -7 14q0 3 8.5 14t8.5 24v3q-21 4 -36 21.5t-15 38.5zM159 54q0 25 17.5 42.5t42.5 17.5q26 0 43 -18t17 -47q0 -39 -10.5 -69t-22.5 -42.5t-21 -12.5
q-6 0 -10 3l-14 11q-7 7 -7 14q0 3 8 14t8 24v3q-21 4 -36 21.5t-15 38.5z" />
    <glyph glyph-name="dagger" unicode="&#x2020;" horiz-adv-x="427"
d="M249 319h114q22 0 22 -22v-38q0 -9 -6 -16t-16 -7h-114v-410q0 -22 -23 -22h-37q-22 0 -22 22v410h-113q-22 0 -22 23v38q0 22 22 22h113v402q0 22 22 22h37q9 0 16 -6t7 -16v-402z" />
    </font>
</defs>
</svg>
