<?xml version="1.0" standalone="no"?>
<!DOCTYPE svg PUBLIC "-//W3C//DTD SVG 20010904//EN"
 "http://www.w3.org/TR/2001/REC-SVG-20010904/DTD/svg10.dtd">
<svg version="1.0" xmlns="http://www.w3.org/2000/svg"
 width="700.000000pt" height="700.000000pt" viewBox="0 0 700.000000 700.000000"
 preserveAspectRatio="xMidYMid meet">
<metadata>
Created by potrace 1.11, written by Peter Selinger 2001-2013
</metadata>
<g transform="translate(0.000000,700.000000) scale(0.100000,-0.100000)"
fill="#000000" stroke="none">
<path d="M3359 6985 c-161 -39 -309 -146 -417 -302 -17 -24 -28 -31 -45 -27
-53 13 -216 11 -277 -2 -137 -29 -274 -118 -349 -228 -115 -166 -133 -340 -65
-606 8 -30 14 -57 14 -61 0 -3 -19 -11 -42 -18 -174 -51 -322 -205 -369 -384
-18 -67 -27 -213 -16 -262 26 -115 49 -175 88 -233 16 -24 29 -46 29 -49 0
-12 105 -128 188 -207 45 -43 82 -82 82 -86 0 -4 -10 -18 -23 -31 -83 -88
-127 -211 -123 -344 2 -49 6 -100 9 -113 62 -245 245 -416 591 -553 55 -22
111 -47 123 -55 12 -7 45 -59 74 -115 28 -55 71 -127 95 -159 99 -131 242
-232 377 -267 l67 -17 -2 -385 -3 -384 -50 -1 c-27 -1 -55 -5 -61 -9 -14 -8
-15 -217 -1 -234 5 -8 32 -13 63 -13 l54 0 1 -862 c0 -475 2 -870 4 -879 9
-48 73 -99 125 -99 34 0 87 29 107 58 16 24 18 57 21 318 l3 290 129 0 128 1
6 -30 c3 -16 22 -45 42 -63 40 -39 16 -36 317 -36 134 -1 202 3 210 11 12 12
15 226 3 238 -4 4 -87 8 -184 8 l-177 0 0 65 0 64 133 0 c107 1 135 4 142 16
10 15 9 224 0 234 -3 3 -66 6 -140 8 l-135 3 -2 63 -3 62 180 0 c123 0 181 4
186 11 13 21 7 231 -6 239 -7 4 -114 8 -239 8 -211 1 -228 -1 -263 -20 -26
-15 -43 -35 -55 -64 l-18 -43 -85 -3 c-47 -2 -104 -2 -127 0 l-43 3 0 200 0
199 54 0 c31 0 58 5 64 13 6 7 10 57 9 120 -2 120 -5 126 -67 125 -19 0 -41 0
-48 1 -10 1 -12 81 -10 383 l3 381 71 22 c202 62 354 204 473 442 45 91 56
101 152 137 359 135 565 322 625 567 12 47 13 194 2 238 -16 65 -64 162 -104
207 -18 22 -34 41 -34 45 0 3 44 48 98 101 217 211 295 366 293 583 -1 252
-149 456 -386 536 -22 7 -41 14 -43 15 -2 1 2 22 8 45 7 24 14 55 17 69 2 14
8 42 14 63 5 20 11 73 13 118 12 278 -149 511 -407 591 -75 23 -225 31 -312
16 -40 -7 -40 -6 -80 49 -135 188 -304 283 -515 288 -64 2 -127 -2 -161 -10z
m311 -243 c90 -43 202 -157 278 -283 37 -61 42 -62 114 -38 134 45 310 34 391
-24 89 -64 151 -167 162 -272 4 -33 8 -69 10 -80 11 -73 -51 -307 -109 -410
-35 -64 -23 -75 88 -80 146 -7 237 -42 304 -119 59 -68 85 -142 84 -246 -1
-179 -108 -327 -413 -576 -106 -86 -127 -108 -120 -122 5 -9 45 -35 88 -56 93
-47 164 -116 186 -179 15 -44 17 -148 4 -197 -29 -110 -152 -236 -306 -314
-26 -14 -98 -45 -160 -70 -136 -54 -193 -87 -220 -125 -12 -16 -44 -75 -72
-131 -49 -97 -114 -189 -168 -237 -28 -24 -123 -77 -158 -88 l-23 -6 0 710 0
710 275 275 c151 151 275 280 275 287 0 17 -153 169 -170 169 -8 0 -96 -82
-197 -182 l-183 -182 0 535 c0 403 -3 538 -12 547 -8 8 -49 12 -118 12 -69 0
-110 -4 -118 -12 -9 -9 -12 -90 -12 -302 l0 -291 -183 183 c-100 100 -189 182
-198 182 -16 0 -169 -151 -169 -167 0 -5 124 -133 275 -284 l275 -274 0 -322
0 -322 -184 185 c-102 101 -189 184 -194 184 -13 0 -172 -161 -172 -174 0 -5
124 -134 275 -286 l275 -275 0 -453 0 -453 -22 6 c-52 16 -138 69 -181 112
-58 57 -99 119 -167 251 -64 126 -81 140 -257 212 -158 65 -192 82 -266 132
-114 77 -174 148 -207 244 -57 166 8 302 187 393 44 22 83 47 86 55 5 11 -28
43 -113 112 -139 110 -295 265 -344 339 -78 117 -100 270 -55 390 16 44 38 75
80 116 83 82 146 101 362 108 37 1 35 20 -12 122 -96 208 -110 433 -37 577 42
83 114 147 198 175 87 29 255 16 370 -28 12 -5 27 9 59 57 23 35 45 65 48 68
4 3 18 21 32 40 70 93 146 154 232 186 51 18 79 22 152 20 77 -2 99 -7 155
-34z"/>
</g>
</svg>
