<?xml version="1.0" standalone="no"?>
<!DOCTYPE svg PUBLIC "-//W3C//DTD SVG 1.1//EN" "http://www.w3.org/Graphics/SVG/1.1/DTD/svg11.dtd" >
<svg xmlns="http://www.w3.org/2000/svg" xmlns:xlink="http://www.w3.org/1999/xlink" version="1.1">
<metadata>
Created by FontForge 20170731 at Fri Mar 24 19:59:25 2017
 By ,,,
Copyright (c) 2015 by Studio Kmzero. All rights reserved.
</metadata>
<defs>
<font id="coco-gothic-bold-italic" horiz-adv-x="0" >
  <font-face 
    font-family="Coco Gothic"
    font-weight="700"
    font-style="italic"
    font-stretch="normal"
    units-per-em="2000"
    panose-1="2 0 5 3 2 0 0 2 0 3"
    ascent="1600"
    descent="-400"
    x-height="982"
    cap-height="1485"
    bbox="-774.25 -774 2738.03 2242"
    underline-thickness="100"
    underline-position="-300"
    unicode-range="U+0020-FB04"
  />
<missing-glyph horiz-adv-x="627" 
d="M897 250q-68 -48 -146 -77t-159 -29t-145.5 29t-111.5 77h562zM307 282q-37 57 -49 129t5 153q17 77 55.5 143.5t95.5 122.5h556zM466 876q68 51 146 79.5t159 28.5t146 -29t109 -79h-560zM1099 564q-16 -77 -55 -144.5t-96 -123.5h-558l663 550q79 -131 46 -282zM714 76
q-35 -9 -69.5 -13.5t-70.5 -4.5q-108 0 -192 41t-137 110t-72 161t2 194q23 108 83.5 201t144.5 161t184 107t202 39q109 0 193 -42t136.5 -112.5t71 -162t-2.5 -191.5q-19 -92 -64.5 -170.5t-109 -141.5t-140.5 -108t-159 -68zM899 1012q-51 18 -119 18q-101 0 -194 -38
t-168.5 -102t-128 -148.5t-72.5 -177.5q-20 -94 -2 -178.5t66.5 -149t125.5 -102.5t175 -38q96 0 188.5 36.5t169.5 100t131.5 148.5t75.5 183q18 85 6.5 158.5t-46 131.5t-88.5 98t-120 60z" />
    <glyph glyph-name="ff" unicode="ff" horiz-adv-x="1260" 
d="M-18 -407q-26 0 -37 14t-6 38l27 128q5 23 21.5 36.5t38.5 13.5h4q25 1 49.5 12t44.5 29.5t35 43t21 51.5l171 807h-77q-25 0 -36 15.5t-5 43.5l22 104q6 29 23.5 42t42.5 13h79l36 172q18 82 61 146t104 107.5t135 66t154 22.5q26 0 37 -14.5t6 -40.5l-29 -139
q-5 -21 -20 -36t-36 -15q-58 0 -100.5 -29.5t-56.5 -94.5l-30 -145h359l36 172q18 82 61 146t104 107.5t135 66t154 22.5q26 0 37.5 -14.5t6.5 -40.5l-29 -139q-5 -24 -17.5 -34t-28 -14t-32.5 -6t-30 -10q-38 -9 -66.5 -35t-39.5 -76l-30 -145h105q24 0 35.5 -13t5.5 -42
l-22 -104q-5 -26 -23.5 -42.5t-42.5 -16.5h-104l-158 -745q-5 -23 -10.5 -46t-12.5 -45q-23 -75 -68 -136.5t-105 -106t-131.5 -69t-147.5 -25.5q-26 0 -37 14t-6 38l27 128q5 23 21.5 36.5t38.5 13.5h4q25 1 49.5 12t44.5 29.5t35 43t21 51.5l171 807h-356l-158 -745
q-5 -23 -10.5 -46t-12.5 -45q-23 -75 -68 -136.5t-105 -106t-131.5 -69t-147.5 -25.5z" />
    <glyph glyph-name="fi" unicode="fi" horiz-adv-x="1146" 
d="M-29 -407q-26 0 -37 14t-6 38l27 128q5 23 21.5 36.5t38.5 13.5h4q25 1 49.5 12t44.5 29.5t35 43t21 51.5l171 807h-76q-25 0 -36.5 15t-5.5 44l22 104q6 29 23.5 41.5t42.5 12.5h78l31 144q18 87 60.5 155.5t102.5 116.5t135.5 73.5t161.5 25.5q26 0 37.5 -14.5
t6.5 -40.5l-29 -139q-5 -21 -20.5 -36t-35.5 -15q-56 0 -100 -30t-58 -94l-31 -146h566q23 0 34.5 -13t6.5 -38l-189 -885q-9 -47 -59 -47h-166q-48 0 -39 47l153 719h-352l-158 -745q-5 -23 -10.5 -46t-12.5 -45q-23 -75 -68 -136.5t-105 -106t-131.5 -69t-147.5 -25.5z
M1041 1275q7 32 25 60t43 49t55 33t62 12q33 0 58.5 -12t42 -33t22.5 -49t-1 -60t-24.5 -59.5t-42.5 -48.5t-56 -33t-64 -12q-32 0 -57 12t-41.5 33t-22.5 48.5t1 59.5z" />
    <glyph glyph-name="ffi" unicode="ffi" horiz-adv-x="1794" 
d="M-13 -407q-45 0 -45 38q0 4 2 14l27 128q5 23 21.5 36.5t38.5 13.5h4q25 1 49 12t44.5 29.5t35.5 43t21 51.5l171 806h-77q-44 0 -44 42q0 4 0.5 8t1.5 9l22 104q6 29 23.5 42t42.5 13h78l37 173q18 82 61 146t104 107.5t135 66t154 22.5q45 0 45 -40q0 -10 -1 -15
l-29 -139q-5 -21 -20.5 -36t-35.5 -15q-57 0 -100.5 -29.5t-57.5 -94.5l-31 -146h373l32 147q19 85 61 153.5t102 116t135 73t161 25.5q45 0 45 -40q0 -10 -1 -15l-29 -139q-5 -21 -20.5 -36t-35.5 -15q-57 0 -100.5 -29.5t-57.5 -94.5l-31 -146h559q20 0 32 -9.5t12 -29.5
q0 -4 -0.5 -7.5t-1.5 -8.5l-188 -881q-11 -47 -59 -47h-166q-41 0 -41 33q0 4 0.5 7t1.5 7l153 718h-346l-158 -744q-5 -23 -10.5 -46t-12.5 -45q-23 -74 -68 -136t-105 -106.5t-131.5 -69.5t-147.5 -25q-45 0 -45 38q0 4 2 14l27 128q5 23 21.5 36.5t38.5 13.5h4
q25 1 49 12t44.5 29.5t35.5 43t21 51.5l171 806h-370l-158 -744q-5 -23 -10.5 -46t-12.5 -45q-23 -75 -68 -136.5t-105 -106t-131.5 -69t-147.5 -25.5zM1685 1275q7 32 25 60t43 49t55 33t62 12q57 0 91 -34.5t34 -86.5q0 -37 -16 -70.5t-42 -59t-60.5 -41t-71.5 -15.5
q-55 0 -89.5 34.5t-34.5 86.5q0 8 1 16t3 16z" />
    <glyph glyph-name=".notdef" horiz-adv-x="627" 
d="M897 250q-68 -48 -146 -77t-159 -29t-145.5 29t-111.5 77h562zM307 282q-37 57 -49 129t5 153q17 77 55.5 143.5t95.5 122.5h556zM466 876q68 51 146 79.5t159 28.5t146 -29t109 -79h-560zM1099 564q-16 -77 -55 -144.5t-96 -123.5h-558l663 550q79 -131 46 -282zM714 76
q-35 -9 -69.5 -13.5t-70.5 -4.5q-108 0 -192 41t-137 110t-72 161t2 194q23 108 83.5 201t144.5 161t184 107t202 39q109 0 193 -42t136.5 -112.5t71 -162t-2.5 -191.5q-19 -92 -64.5 -170.5t-109 -141.5t-140.5 -108t-159 -68zM899 1012q-51 18 -119 18q-101 0 -194 -38
t-168.5 -102t-128 -148.5t-72.5 -177.5q-20 -94 -2 -178.5t66.5 -149t125.5 -102.5t175 -38q96 0 188.5 36.5t169.5 100t131.5 148.5t75.5 183q18 85 6.5 158.5t-46 131.5t-88.5 98t-120 60z" />
    <glyph glyph-name=".null" 
 />
    <glyph glyph-name="nonmarkingreturn" horiz-adv-x="666" 
 />
    <glyph glyph-name="space" unicode=" " horiz-adv-x="626" 
 />
    <glyph glyph-name="exclam" unicode="!" horiz-adv-x="614" 
d="M559 491q-5 -25 -22.5 -39.5t-43.5 -14.5h-182q-23 0 -36.5 14t-8.5 40l200 942q5 26 23 40t46 14h182q26 0 36.5 -14t5.5 -40zM175 136q7 34 26.5 63.5t46 51.5t58.5 34.5t65 12.5q34 0 61 -12.5t44.5 -34.5t23 -51.5t-1.5 -63.5q-7 -33 -25.5 -62.5t-45 -51t-59 -34.5
t-66.5 -13q-33 0 -59.5 13t-44 34.5t-24 51t0.5 62.5z" />
    <glyph glyph-name="quotedbl" unicode="&#x22;" horiz-adv-x="811" 
d="M405 1441q9 44 53 44h140q44 0 35 -44l-72 -336q-5 -26 -19.5 -35.5t-34.5 -9.5h-139q-44 0 -35 45zM775 1441q9 44 53 44h140q44 0 35 -44l-72 -336q-5 -26 -19.5 -35.5t-34.5 -9.5h-139q-44 0 -35 45z" />
    <glyph glyph-name="numbersign" unicode="#" horiz-adv-x="1158" 
d="M1268 1109q19 0 28.5 -11.5t4.5 -32.5l-34 -133q-5 -16 -20.5 -31.5t-35.5 -15.5h-131l-84 -288h131q17 0 27.5 -10.5t5.5 -31.5q-7 -32 -15.5 -66t-17.5 -67q-4 -17 -21 -32.5t-36 -15.5h-131l-92 -330q-12 -44 -59 -44h-132q-20 0 -29 9.5t-4 29.5q0 3 1 5l92 330h-176
l-92 -330q-12 -44 -59 -44h-132q-20 0 -29 9.5t-4 29.5q0 3 1 5l92 330h-117q-42 0 -33 42q7 34 16 68.5t18 68.5q5 22 20.5 33t36.5 11h116l84 288h-117q-43 0 -34 41q1 2 1 3t1 3l33 133q13 44 57 44h116l93 332q5 18 19 31t37 13h131q17 0 28.5 -12t7.5 -32l-93 -332h176
l93 332q5 18 19 31t37 13h132q17 0 28 -12t7 -32l-93 -332h131zM597 597h176l84 288h-176z" />
    <glyph glyph-name="dollar" unicode="$" horiz-adv-x="1282" 
d="M1239 1089q-13 0 -23 6.5t-21 17.5l-2 1q-15 19 -40 42t-57.5 43t-72 34t-83.5 14q-56 0 -101.5 -12.5t-79.5 -34t-55 -50.5t-28 -62q-8 -36 9 -63t50.5 -48t80.5 -38.5t98 -34.5q58 -19 115.5 -41t108.5 -49.5t92.5 -61t68 -77t35.5 -97t-5 -120.5q-20 -91 -67.5 -168
t-116 -136t-154 -99.5t-180.5 -58.5l-29 -137q-9 -44 -58 -44h-180q-43 0 -34 44l28 133q-119 22 -215.5 85t-156.5 157v-1l-1 4q-18 25 -12 46q3 19 33 43l40 33q17 13 38 29t40.5 29t36 22t25.5 9q14 0 24 -9t16 -17l3 -4h-1q28 -33 65 -63t78.5 -53.5t84 -37t82.5 -13.5
q55 0 106 14t91.5 39.5t68 61.5t36.5 80t-10 75.5t-56 55t-86 40.5t-99 32q-114 37 -196.5 80t-132 96.5t-66 120t1.5 149.5q17 79 59 146.5t104.5 120t143 88t175.5 50.5l30 141q4 18 18 31t36 13h180q15 0 28.5 -12.5t9.5 -31.5l-31 -147q112 -28 199 -90q20 -15 41.5 -34
t38 -38.5t26.5 -38t7 -31.5q-4 -12 -11.5 -24t-19.5 -23l-37 -32v1q-18 -16 -38 -33t-38.5 -30.5t-33.5 -22.5t-24 -9z" />
    <glyph glyph-name="percent" unicode="%" horiz-adv-x="1937" 
d="M335 1128q17 81 62.5 152.5t109 124.5t141 83.5t159.5 30.5q81 0 145.5 -30.5t106 -83.5t56.5 -124.5t-2 -152.5t-62.5 -152t-109 -123.5t-141 -83t-158.5 -30.5q-82 0 -146.5 30.5t-106 83t-56.5 123.5t2 152zM1125 369q17 81 59 151.5t101.5 123.5t133.5 83.5t155 30.5
t149.5 -30.5t114.5 -83.5t65 -123.5t2 -151.5t-62.5 -152.5t-109.5 -124t-141.5 -83t-158.5 -30.5t-146 30.5t-106.5 83t-57 124t1.5 152.5zM1356 369q-7 -34 -1 -63.5t23 -51t43.5 -34t60.5 -12.5q33 0 65 12.5t58 34t45 51t26 63.5q8 37 0.5 66.5t-25.5 49.5t-44.5 31
t-56.5 11q-34 0 -65.5 -12.5t-58 -33.5t-45 -50t-25.5 -62zM562 1128q-7 -34 -0.5 -63.5t23.5 -51t44 -34t61 -12.5q33 0 65 12.5t58.5 34t45.5 51t26 63.5t1 63.5t-23.5 51t-44.5 34t-60 12.5q-34 0 -66 -12.5t-58.5 -34t-45.5 -51t-26 -63.5zM1439 1435q15 23 33.5 36.5
t46.5 13.5h152q25 0 38.5 -10t9.5 -28q-1 -4 -2.5 -9t-3.5 -9q0 -1 -1 -2.5t-1 -2.5q-127 -186 -252 -369t-251 -369l-194 -285q-63 -91 -123 -179.5t-120 -176.5q-17 -23 -32 -34t-36 -11h-170q-48 0 -41 34l7 16v-1q0 3 3 8z" />
    <glyph glyph-name="ampersand" unicode="&#x26;" horiz-adv-x="1736" 
d="M1838 669q-29 -66 -74.5 -120.5t-102 -93.5t-120.5 -60.5t-128 -21.5q-17 0 -34.5 2.5t-31.5 5.5l-78 18q-39 -121 -105.5 -201.5t-149.5 -128.5t-177.5 -68t-188.5 -20q-106 0 -193.5 35t-145.5 97t-82 148.5t-2 189.5q15 71 43 129.5t66 106t85 85.5t101 68
q-42 49 -57.5 114t2.5 150q18 84 67 156t117.5 124.5t150 82.5t164.5 30q82 0 151.5 -23t116 -72t64 -124t-4.5 -178q-6 -28 -23.5 -41.5t-41.5 -13.5h-69q-9 0 -18.5 -0.5t-18.5 -0.5h-36q-25 0 -36.5 13t-6.5 38q14 68 -14 109t-106 41q-44 0 -77 -14.5t-56.5 -37
t-37.5 -50t-20 -54.5q-3 -16 -0.5 -41.5t15.5 -50.5t37 -45.5t63 -26.5q46 -7 37 -48l-1 -4q0 -1 -1 -3t-2 -5l-53 -128q-8 -25 -23.5 -35t-35.5 -10q-55 0 -97.5 -16t-73.5 -44.5t-51 -67t-29 -83.5q-10 -45 -2.5 -88t32.5 -76t67.5 -53t102.5 -20q46 0 92.5 13.5
t86.5 40.5t71 67t46 93l-104 28q-19 5 -27.5 19t-4.5 32q5 23 18.5 48.5t21.5 49.5l26 57q8 20 24 33t36 13q3 0 8 -0.5t7 -1.5h-1l425 -98q12 -3 22 -3q42 0 80 27t59 65q5 19 22.5 31t36.5 12t36 -6t32 -6l81 -19q19 -2 28.5 -19.5t5.5 -36.5q-2 -5 -2.5 -8t-2.5 -6z" />
    <glyph glyph-name="quotesingle" unicode="'" horiz-adv-x="528" 
d="M467 1441q9 44 53 44h140q44 0 35 -44l-72 -336q-5 -26 -19.5 -35.5t-34.5 -9.5h-139q-44 0 -35 45z" />
    <glyph glyph-name="parenleft" unicode="(" horiz-adv-x="643" 
d="M358 -305q-95 229 -117 492.5t40 551.5q61 288 194.5 551.5t325.5 491.5q14 18 31.5 21.5t31.5 -9.5l139 -107q15 -13 13.5 -31t-15.5 -32q-169 -201 -278.5 -423.5t-160.5 -461.5q-26 -121 -35.5 -235.5t-1.5 -226.5q8 -111 33 -216t67 -206q8 -15 2 -32.5t-27 -31.5
l-185 -107q-18 -12 -34 -9t-23 20z" />
    <glyph glyph-name="parenright" unicode=")" horiz-adv-x="659" 
d="M181 -305q-14 -17 -31.5 -20t-31.5 9l-138 107q-15 14 -13.5 31.5t16.5 32.5q84 101 153.5 206t123.5 216q56 112 95.5 226.5t65.5 235.5q51 239 35.5 461.5t-98.5 423.5q-8 14 -2.5 32t26.5 31l185 107q18 13 34 9.5t23 -21.5q95 -228 117 -491.5t-39 -551.5
q-62 -288 -195.5 -551.5t-325.5 -492.5z" />
    <glyph glyph-name="asterisk" unicode="*" horiz-adv-x="982" 
d="M835 718l69 9l89 12q20 0 29.5 -7.5t12.5 -20.5t0.5 -30t-6.5 -36l-15 -69q-3 -12 -7 -25.5t-12 -25.5t-21 -20t-33 -8l-151 18l73 -126q3 -11 0 -24t-13 -26t-27 -22l-37 -18q-8 -4 -15.5 -8.5t-15.5 -8.5h1q-25 -15 -48.5 -27t-40.5 -11q-15 0 -27 7t-16 21
q-5 21 -9.5 42t-9.5 43l-12 50l-86 -135q-10 -14 -24 -21t-28 -7q-9 0 -17 2t-16 8h1q-13 7 -34 19.5t-40.5 27.5t-32 32t-9.5 33q3 15 15 27l30.5 30.5l29 29l29.5 29.5t32 33q-16 -2 -34 -4t-35 -4q-20 -3 -40 -5.5t-39 -4.5q-32 0 -45.5 12t-6.5 44l23 110q4 16 9 30
t13 24.5t20.5 16t30.5 5.5q20 -3 36.5 -6t33.5 -6t35.5 -5.5t41.5 -5.5l-66 117q-5 9 -6.5 19t0.5 18q9 28 41 47l109 55l29 13l12 4q18 0 30.5 -12.5t20.5 -32.5t13.5 -45t9.5 -50q1 -2 1 -2.5t1 -11.5v1q1 -6 1 -4.5t2 -5.5q21 33 41.5 65.5t41.5 64.5q11 15 25 24t32 9
h13l15 -9q16 -9 37.5 -22t40 -28.5t30 -32.5t8.5 -33l-9 -22z" />
    <glyph glyph-name="plus" unicode="+" horiz-adv-x="900" 
d="M655 284q-5 -23 -22.5 -38.5t-43.5 -15.5h-151q-20 0 -35.5 15t-10.5 39l43 203h-194q-54 0 -42 55l30 141q5 26 22 40t43 14h194l43 201q11 53 69 53h151q54 0 43 -53l-43 -201h195q23 0 35.5 -14t7.5 -40l-30 -141q-5 -20 -23.5 -37.5t-42.5 -17.5h-195z" />
    <glyph glyph-name="comma" unicode="," horiz-adv-x="528" 
d="M148 133q7 35 27 65.5t47 52.5t59.5 34.5t66.5 12.5q36 0 63.5 -13t44.5 -36t23 -56t-3 -73q-18 -84 -48.5 -146.5t-64 -104t-63.5 -62t-46 -20.5q-11 0 -18 3t-12 8l-42 37q-9 9 -6 27q4 16 17 27l17 19q8 8 19 24.5t16 37.5q-26 5 -46.5 20.5t-33.5 37.5t-18 49t1 56z
" />
    <glyph glyph-name="hyphen" unicode="-" horiz-adv-x="1034" 
d="M1012 694q23 0 35.5 -14t7.5 -38l-30 -141q-2 -10 -8 -20t-15 -18.5t-20 -13.5t-23 -5h-652q-25 0 -36 14t-5 43l30 141q5 24 22 38t42 14h652z" />
    <glyph glyph-name="period" unicode="." horiz-adv-x="528" 
d="M148 136q7 34 26.5 63.5t46 51.5t58.5 34.5t65 12.5q34 0 61 -12.5t44.5 -34.5t23 -51.5t-1.5 -63.5q-7 -33 -25.5 -62.5t-45 -51t-59 -34.5t-66.5 -13q-33 0 -59.5 13t-44 34.5t-24 51t0.5 62.5z" />
    <glyph glyph-name="slash" unicode="/" horiz-adv-x="1025" 
d="M982 1441q14 22 30.5 33t41.5 11h183q21 0 32.5 -7t8.5 -21q-1 -8 -8 -20q-21 -33 -66.5 -103.5t-106 -164.5t-132.5 -205t-146 -226t-146 -226t-132.5 -205t-106 -164.5t-66.5 -103.5q-14 -21 -26.5 -30t-32.5 -9h-203q-38 0 -32 24q0 2 2.5 6.5t5.5 12.5z" />
    <glyph glyph-name="zero" unicode="0" horiz-adv-x="1742" 
d="M263 741q22 105 70.5 203t116 183t152 154.5t180 119t198.5 77t209 27.5q105 0 197 -27.5t166.5 -77t129.5 -119t86.5 -154.5t38 -183t-15.5 -203q-23 -106 -71 -203.5t-115.5 -182t-152 -154t-180 -119.5t-199 -77t-208.5 -27q-106 0 -197.5 27t-166 77t-129.5 119.5
t-86.5 154t-38.5 182t16 203.5zM533 741q-22 -104 -3 -195t71.5 -159t134.5 -107t186 -39q103 0 201.5 39t180 107t139.5 159t80 195t3 195.5t-71.5 159.5t-134.5 107.5t-185 39.5q-104 0 -202.5 -39.5t-180 -107.5t-139.5 -159.5t-80 -195.5z" />
    <glyph glyph-name="one" unicode="1" horiz-adv-x="716" 
d="M394 1347q7 34 49 53l153 60l55 19q6 2 17.5 3.5t25.5 2.5h133q21 0 32 -12t6 -32l-297 -1397q-9 -44 -55 -44h-184q-23 0 -31.5 12t-3.5 31l245 1154q-18 -7 -41.5 -16.5t-46 -17.5t-41.5 -14t-29 -6q-17 0 -22 9.5t-1 26.5z" />
    <glyph glyph-name="two" unicode="2" horiz-adv-x="1260" 
d="M870 1250q-79 -5 -145 -44.5t-123 -106.5q-10 -12 -21.5 -17.5t-22.5 -5.5q-10 0 -20 4t-21 10l-100 57q-11 7 -13 15t-1 16q2 10 10 24t18.5 29.5t22.5 30t21 24.5q45 48 98.5 88t112.5 68t122 43.5t126 15.5q97 0 179.5 -33.5t138.5 -95t80 -147t5 -188.5
q-20 -89 -62 -159.5t-110 -133.5q-26 -24 -67.5 -60t-92.5 -78.5t-107.5 -89.5t-113.5 -94.5t-111.5 -93t-100.5 -83.5q142 1 282.5 2t283.5 3q20 0 31 -11t6 -34l-33 -156q-4 -18 -20.5 -33.5t-36.5 -15.5q-229 -1 -455 -2t-455 -3q-19 0 -31 14.5t-7 34.5l24 114
q3 13 13 26l787 670q49 42 73.5 78.5t33.5 78.5q11 50 1.5 93.5t-36 76t-68.5 51t-95 18.5z" />
    <glyph glyph-name="three" unicode="3" horiz-adv-x="1132" 
d="M580 220q52 0 101.5 16.5t91 47.5t71.5 75.5t42 100.5q10 49 0.5 91.5t-36.5 74.5t-69 50.5t-96 18.5q-21 0 -31 9t-5 32l32 150q9 43 55 43q37 0 71 14.5t60 37.5t44 52t24 58q7 33 2.5 63t-21 53.5t-44.5 37.5t-67 14q-25 0 -48 -5.5t-43 -15.5q-35 -17 -62.5 -42
t-49.5 -51q-11 -13 -18.5 -18t-17.5 -5q-11 0 -21 5t-21 13q-5 3 -23.5 13.5t-38.5 24.5t-35 29t-12 26q3 18 18 34q45 51 93.5 93t102 73t112.5 48t124 17q81 0 147 -30.5t109.5 -83.5t60 -124.5t-0.5 -153.5q-18 -82 -67 -149.5t-112 -116.5q42 -31 76 -69t55 -85
t26.5 -104t-9.5 -126q-21 -101 -79 -188t-139 -151.5t-179.5 -101t-201.5 -36.5q-84 0 -148.5 17t-112.5 47t-82 70t-56 86q-13 29 -21 54.5t-7 54.5q-4 9 -1 17q2 9 8 17.5t20 14.5q32 12 64 25t64 24l24 10t22 5q24 0 31 -12.5t15 -30.5q32 -82 85 -120t124 -38z" />
    <glyph glyph-name="four" unicode="4" horiz-adv-x="1258" 
d="M169 239q-28 0 -37 15.5t-5 35.5q7 31 31 60.5t55 67.5q211 253 421.5 507.5t425.5 506.5q16 19 27.5 29.5t23.5 16t26.5 6.5t36.5 1h111q20 0 32.5 -14t7.5 -40l-199 -934h117q23 0 34.5 -12t6.5 -38l-34 -159q-5 -21 -21.5 -34.5t-39.5 -13.5h-117l-41 -192
q-11 -48 -60 -48h-160q-49 0 -38 48l40 191h-644zM876 496l112 528q-113 -133 -221.5 -264t-222.5 -264h332z" />
    <glyph glyph-name="five" unicode="5" horiz-adv-x="1176" 
d="M354 426q7 3 13.5 4t11.5 1q17 0 22 -13.5t10 -27.5q10 -33 29.5 -62.5t46.5 -52t60 -35.5t69 -13q52 0 103 18t94 52t74.5 82t44.5 107q12 54 0 102t-41.5 84t-74 57t-99.5 21q-30 0 -57 -5t-54 -13t-56 -18.5t-63 -20.5q-21 -7 -44 -11.5t-51 -4.5h-88q-20 0 -30 11
t-5 37q55 180 110 357.5t110 357.5q9 47 55 47h671q2 0 2 -0.5t2 -0.5h40q45 0 35 -47l-34 -164q-5 -20 -19.5 -32.5t-38.5 -12.5h-523q-44 -140 -84 -279q48 20 99 31t96 11q111 0 195 -41t137 -110.5t71.5 -160.5t-2.5 -191q-23 -107 -84.5 -200t-147 -162t-187 -109
t-203.5 -40q-80 0 -141 19t-106 51t-76.5 74t-52.5 89q-15 32 -24.5 65t-2.5 65q2 5 9.5 13t25.5 17z" />
    <glyph glyph-name="six" unicode="6" horiz-adv-x="1218" 
d="M189 459l2 14t3 15q14 68 45.5 134t76.5 124q136 175 271 347.5t272 347.5q17 23 33 33.5t42 10.5h194q38 0 34 -20q-1 -4 -5 -13.5t-9 -15.5q-54 -68 -93 -118t-68.5 -88t-52.5 -67.5t-44.5 -57t-44 -56.5t-50.5 -65q22 3 48 3q101 0 181.5 -40t132 -108.5t70.5 -159
t-2 -190.5q-23 -106 -83 -198.5t-144.5 -161.5t-187 -108.5t-209.5 -39.5q-103 0 -186.5 36t-139 100t-79.5 151.5t-7 190.5zM455 487q-12 -55 -3 -103t35 -83.5t67.5 -56t96.5 -20.5q54 0 104.5 20.5t91.5 56t69.5 83.5t40.5 103q12 54 3.5 102.5t-34 85t-67 57.5t-95.5 21
q-55 0 -105.5 -21t-92 -57.5t-70.5 -85t-41 -102.5z" />
    <glyph glyph-name="seven" unicode="7" horiz-adv-x="1188" 
d="M1415 1485q27 0 37.5 -16t5.5 -37q-4 -16 -11 -28.5t-17 -24.5q-31 -42 -83.5 -113t-118 -160t-140.5 -191t-152 -207t-152 -207t-140.5 -191t-117.5 -159.5t-83 -112.5q-11 -15 -26.5 -26.5t-37.5 -11.5h-213q-37 0 -32 23q2 5 5.5 14t11.5 19l852 1165h-604
q-23 0 -34 12t-5 38l35 166q5 22 21 35t39 13h960z" />
    <glyph glyph-name="eight" unicode="8" horiz-adv-x="1174" 
d="M664 1098q-7 -33 -1.5 -61.5t22 -49.5t42.5 -33t59 -12t64 12t56.5 33t44 49.5t25.5 61.5t0.5 61.5t-23 50t-42.5 34t-59 12.5t-64 -12.5t-56.5 -34t-43 -50t-24.5 -61.5zM448 472q-11 -49 -1.5 -92.5t34.5 -76t64 -51.5t89 -19q49 0 96 19t85.5 51.5t66 76t38.5 93.5
q10 49 1.5 93t-33 77t-63.5 52.5t-89 19.5t-97.5 -19.5t-86.5 -53t-66.5 -77.5t-37.5 -93zM181 469q13 60 39 115t62.5 103t82 89t96.5 73q-34 51 -46 118t4 139q17 81 64 153t113 126.5t145.5 86t162.5 31.5q82 0 148.5 -31.5t110 -86t60.5 -126.5t0 -153
q-16 -72 -57.5 -139.5t-98.5 -117.5q78 -66 110.5 -164.5t7.5 -217.5q-22 -102 -78.5 -190.5t-137.5 -154t-181 -103.5t-208 -38t-192 37.5t-137 103t-72.5 154.5t2.5 193z" />
    <glyph glyph-name="nine" unicode="9" horiz-adv-x="1202" 
d="M1322 1024q-1 -8 -2 -14.5t-3 -13.5q-14 -69 -45 -135.5t-76 -123.5l-542 -694q-18 -23 -33.5 -33t-41.5 -10h-194q-20 0 -28.5 3.5t-6.5 14.5q2 5 5.5 14t8.5 16q49 62 86 109t66.5 85t54 69t47.5 60.5t47 60t53 67.5q-26 -3 -51 -3q-101 0 -181.5 40t-132 108
t-70.5 158.5t2 191.5q22 106 82.5 199t145 162t187.5 108.5t210 39.5q103 0 186.5 -36.5t139 -100.5t79 -151.5t7.5 -190.5zM1054 996q12 55 3.5 103.5t-35 84t-68.5 56t-97 20.5q-54 0 -104.5 -20.5t-91 -56t-69.5 -84t-41 -103.5q-12 -54 -3.5 -102.5t34.5 -84.5t67.5 -57
t95.5 -21q55 0 106 21t92 57t70 84.5t41 102.5z" />
    <glyph glyph-name="colon" unicode=":" horiz-adv-x="550" 
d="M298 841q7 34 26.5 63.5t46 51.5t58.5 34.5t65 12.5q34 0 61 -12.5t44.5 -34.5t23 -51.5t-1.5 -63.5q-7 -33 -25.5 -62.5t-45 -51t-59 -34.5t-66.5 -13q-33 0 -59.5 13t-44 34.5t-24 51t0.5 62.5zM148 136q7 34 26.5 63.5t46 51.5t58.5 34.5t65 12.5q34 0 61 -12.5
t44.5 -34.5t23 -51.5t-1.5 -63.5q-7 -33 -25.5 -62.5t-45 -51t-59 -34.5t-66.5 -13q-33 0 -59.5 13t-44 34.5t-24 51t0.5 62.5z" />
    <glyph glyph-name="semicolon" unicode=";" horiz-adv-x="585" 
d="M144 132q8 36 27.5 66t46.5 52t59.5 34.5t66.5 12.5q36 0 63.5 -12.5t44.5 -36t23 -56.5t-3 -73q-18 -83 -48.5 -145.5t-64 -104t-63.5 -62t-46 -20.5q-12 0 -26 8.5t-25.5 21t-18 26.5t-4.5 25q3 15 12.5 26t20 21.5t20 23t12.5 30.5v1q-26 5 -46.5 20.5t-33.5 37.5
t-18 49t1 55zM299 841q7 34 26.5 63.5t46 51.5t58.5 34.5t65 12.5q34 0 61 -12.5t44.5 -34.5t23 -51.5t-1.5 -63.5q-7 -33 -25.5 -62.5t-45 -51t-59 -34.5t-66.5 -13q-33 0 -59.5 13t-44 34.5t-24 51t0.5 62.5z" />
    <glyph glyph-name="less" unicode="&#x3c;" horiz-adv-x="960" 
d="M863 1114q14 11 34 11q17 0 30 -13l100 -127q11 -15 7 -31q-2 -7 -6.5 -15t-10.5 -16l-440 -363l286 -361l4 -16t0 -15q-4 -19 -23 -35l-157 -127q-16 -14 -31 -14q-17 0 -28 14l-413 525q-11 15 -8 29q3 16 21 31z" />
    <glyph glyph-name="equal" unicode="=" horiz-adv-x="1034" 
d="M255 468q9 44 55 44h661q18 0 29 -11.5t6 -32.5l-30 -143q-4 -17 -19 -32t-35 -15h-661q-46 0 -36 47zM330 822q9 44 56 44h661q18 0 28.5 -11t5.5 -33l-30 -143q-4 -17 -19 -32t-35 -15h-661q-46 0 -36 47z" />
    <glyph glyph-name="greater" unicode="&#x3e;" horiz-adv-x="970" 
d="M520 1072q16 13 36 13q13 0 29 -11l413 -523q11 -15 8 -31q-3 -14 -21 -29l-636 -525q-17 -14 -34 -14q-19 0 -25 14l-103 127q-6 8 -9 17.5t-1 17.5q3 17 19 31l440 361l-286 363l-4 16t0 15q3 17 20 31z" />
    <glyph glyph-name="question" unicode="?" horiz-adv-x="1136" 
d="M830 568l-27 -130q-5 -22 -22 -35.5t-35 -13.5h-180q-22 0 -31 15.5t-4 33.5l36 169q14 65 50 111t83 82t99.5 66.5t99.5 64.5t82.5 77t48.5 103q9 42 -1 81t-34 69t-61 48t-82 18t-89.5 -18.5t-82 -49.5t-65 -71.5t-36.5 -83.5l-6 -30q-5 -20 -20.5 -32t-35.5 -12h-183
q-25 0 -31.5 13.5t-3.5 27.5l7 33q22 105 81 192.5t141 150.5t179.5 98t197.5 35q103 0 188 -35.5t141 -98.5t78 -151t0 -193q-21 -96 -62 -160.5t-91 -109t-104.5 -75t-101 -58t-80.5 -57.5t-43 -74zM434 133q-7 -33 -0.5 -62t24 -51t44 -34.5t59.5 -12.5q35 0 67.5 12.5
t58.5 34.5t44.5 51t25.5 62q7 34 1 63.5t-23 51.5t-44 34.5t-62 12.5q-33 0 -65 -12.5t-58.5 -34.5t-45.5 -51.5t-26 -63.5z" />
    <glyph glyph-name="at" unicode="@" horiz-adv-x="1943" 
d="M1382 -115q1 -2 0 -3l38 -68v1q3 -4 9 -13.5t11 -20t8.5 -21t2.5 -16.5q-3 -13 -12 -22t-20 -15q-119 -62 -246 -97.5t-255 -35.5q-128 1 -239 34.5t-201 94t-157 145t-105 188t-46 222t19 246.5q27 127 85.5 246.5t141 223.5t186 190.5t220.5 148.5t243.5 96t255.5 34
q105 -1 202.5 -26.5t179.5 -73t145.5 -116t102 -155.5t48 -191t-15.5 -223q-29 -138 -76.5 -252t-114.5 -195.5t-154.5 -127t-196.5 -45.5q-41 -1 -71.5 5t-53 18t-38.5 28.5t-28 36.5q-24 -21 -53.5 -39t-67 -31t-83.5 -20.5t-104 -7.5q-103 0 -181 37.5t-126.5 102.5
t-65 152.5t4.5 187.5q21 99 75 185.5t129.5 150.5t168.5 101.5t193 39.5q94 0 148 -39.5t77 -103.5l1 2q5 10 9 20t9 20q1 2 2.5 4t1.5 4l16 33q6 14 11.5 23t12 14t16.5 7t25 2h86q25 0 36 -12.5t6 -33.5l-125 -587q-5 -23 -3 -36t8 -20t16 -8.5t23 -1.5q51 0 92 31
t73.5 83.5t56 120t38.5 141.5q27 124 1.5 231t-91.5 185.5t-168.5 123.5t-229.5 45q-106 0 -207.5 -26.5t-194 -74.5t-173.5 -115t-145.5 -148t-110 -174t-66.5 -193q-21 -98 -13.5 -190t39 -172t84.5 -146t123 -113t155 -73t181 -26q48 0 92.5 5.5t89 17.5t90 31t96.5 45
q-8 2 1 4.5t21 6.5l11 2q15 0 21 -9zM826 507q-10 -48 -1 -89t32.5 -71.5t60.5 -47.5t82 -17q47 0 91 17t80 47.5t61.5 71.5t35.5 89q10 46 2 86.5t-31 71t-59.5 48.5t-83.5 18q-45 0 -89.5 -18t-81 -48.5t-63 -71t-36.5 -86.5z" />
    <glyph glyph-name="A" unicode="A" horiz-adv-x="1457" 
d="M901 1452q10 14 24 23.5t41 9.5h150q22 0 32 -9.5t14 -23.5l296 -1406l-1 -6q-3 -15 -15.5 -27.5t-47.5 -12.5h-212q-19 0 -27.5 6.5t-10.5 24.5l-47 243h-594l-151 -243q-16 -31 -43 -31h-262q-25 0 -33 9.5t-4 27.5q1 2 226 355t665 1060zM654 537h404l-89 527z" />
    <glyph glyph-name="B" unicode="B" horiz-adv-x="1356" 
d="M1457 1071q-17 -81 -59.5 -151.5t-103.5 -122.5q52 -49 82 -119t30 -151q0 -68 -21 -133t-58.5 -123.5t-88.5 -108t-110 -85.5t-124 -56.5t-130 -20.5h-657q-21 0 -33.5 10t-12.5 30q0 3 0.5 6t1.5 7l292 1375q5 26 23 41.5t44 15.5h594q76 0 138.5 -24t107.5 -67.5
t70 -103t25 -130.5q0 -22 -2.5 -44t-7.5 -45zM595 649l-82 -390h358q42 0 83.5 19t73.5 51t52 73.5t20 86.5q0 31 -10.5 60t-29.5 51.5t-46.5 35.5t-60.5 13h-358zM1160 1066q2 10 3 19.5t1 18.5q0 57 -39 89.5t-108 32.5h-299l-72 -341h297q39 0 75 14t65 38.5t49 57.5
t28 71z" />
    <glyph glyph-name="C" unicode="C" horiz-adv-x="1410" 
d="M1571 1377q20 -13 20 -34q0 -16 -11 -30l-132 -165q-23 -23 -42 -23q-14 0 -27 10q-52 45 -119.5 70t-148.5 25q-76 0 -148.5 -22.5t-137 -62.5t-119 -95.5t-93.5 -122.5t-61 -142.5t-22 -155.5q0 -81 26 -149.5t74 -118.5t117.5 -78t156.5 -28q81 0 159.5 25t150.5 70
q10 6 18.5 8t15.5 3q17 0 30 -22l63 -167q2 -10 2 -14q0 -17 -11 -28t-26 -20q-108 -63 -223.5 -97.5t-235.5 -34.5q-138 0 -252 45.5t-195.5 126.5t-126.5 191.5t-45 239.5q0 123 37 239.5t102.5 219.5t155.5 188.5t194.5 147.5t220.5 96.5t234 34.5q119 0 219 -33.5
t180 -96.5z" />
    <glyph glyph-name="D" unicode="D" horiz-adv-x="1490" 
d="M1590 741q-23 -106 -70.5 -201.5t-114.5 -178t-150.5 -149.5t-178.5 -114t-198 -72.5t-208 -25.5h-460q-14 0 -28 4t-14 24q0 2 2 12l297 1397q11 50 59 50h460q137 -1 251 -45t196.5 -122.5t128 -186.5t45.5 -236q0 -73 -17 -156zM715 1216l-200 -943h191
q74 0 146.5 19.5t139 55.5t123 87.5t98.5 115t65.5 137.5t23.5 156t-29 150.5t-81.5 117.5t-125.5 76t-160 28h-191z" />
    <glyph glyph-name="E" unicode="E" horiz-adv-x="1284" 
d="M467 1437q10 48 54 48h964q21 0 30 -9.5t9 -25.5q0 -4 -0.5 -7.5t-1.5 -8.5l-37 -176q-4 -18 -19.5 -32t-40.5 -14h-711l-64 -304h548h5q31 0 31 -29q0 -5 -2 -15l-38 -181q-4 -18 -17 -32t-35 -14h-550l-77 -364h737q21 0 29.5 -7t8.5 -21q0 -9 -3 -21l-39 -182
q-9 -42 -52 -42h-990q-16 0 -26.5 7.5t-10.5 23.5q0 7 1 11z" />
    <glyph glyph-name="F" unicode="F" horiz-adv-x="1254" 
d="M467 1437q10 48 54 48h950q21 0 30 -9.5t9 -25.5q0 -4 -0.5 -7.5t-1.5 -8.5l-37 -176q-4 -18 -19.5 -32t-40.5 -14h-697l-84 -394h532q17 0 27.5 -7t10.5 -24q0 -8 -1 -13l-38 -180q-4 -18 -17 -32t-35 -14h-536l-108 -506q-9 -42 -52 -42h-207q-16 0 -26.5 7.5
t-10.5 23.5q0 7 1 11z" />
    <glyph glyph-name="G" unicode="G" horiz-adv-x="1452" 
d="M1217 621q4 20 18 32t36 12h163q14 0 26 -9t12 -26q0 -6 -1 -9l-97 -459v-1q0 -3 -1 -6t-5 -8.5t-12 -12.5t-22 -17q-53 -33 -112.5 -59t-122.5 -43.5t-127 -27t-126 -9.5q-138 0 -251.5 45.5t-195 126.5t-126.5 191.5t-45 239.5q0 122 37 238t102.5 219t155 189t194 148
t220.5 96.5t235 34.5q71 0 138.5 -12.5t128.5 -37.5q22 -9 51.5 -23.5t56 -32t45 -35.5t18.5 -35q0 -5 -11 -22t-28.5 -39.5t-39 -47.5t-42 -46t-38 -34.5t-27.5 -13.5q-6 0 -13.5 2.5t-15.5 9.5q-54 44 -128 70t-155 26q-79 0 -154.5 -23t-142.5 -64.5t-123 -97.5
t-96 -122.5t-62.5 -140.5t-22.5 -150q0 -83 28.5 -154t80 -123t123.5 -81t158 -29q37 0 74 5.5t70 14t60.5 19t45.5 20.5z" />
    <glyph glyph-name="H" unicode="H" horiz-adv-x="1546" 
d="M468 1441q3 15 18 29.5t33 14.5h207q14 0 26 -10.5t12 -26.5q0 -2 -0.5 -3.5t-0.5 -3.5l-110 -517h662l110 517q4 18 19.5 31t35.5 13h198q17 0 30 -10t13 -27q0 -2 -0.5 -3.5t-0.5 -3.5l-297 -1397q-9 -44 -60 -44h-198q-16 0 -27 8.5t-11 25.5q0 6 1 10l129 607h-662
l-129 -607q-5 -20 -21.5 -32t-38.5 -12h-202q-35 0 -35 29q0 5 2 15z" />
    <glyph glyph-name="I" unicode="I" horiz-adv-x="618" 
d="M468 1441q4 18 17.5 31t35.5 13h202q14 0 27.5 -10t13.5 -27q0 -2 -0.5 -3.5t-0.5 -3.5l-297 -1397q-9 -44 -58 -44h-202q-37 0 -37 30q0 4 2 14z" />
    <glyph glyph-name="J" unicode="J" horiz-adv-x="910" 
d="M338 -22q-99 0 -178.5 39t-126.5 117q-2 3 -3 5.5t-1 7.5q-1 17 7 30.5t22 25.5l124 111q14 13 25 17.5t19 4.5q13 0 24 -12t27.5 -26.5t42.5 -26.5t68 -12q28 0 55.5 11t50.5 29.5t39 43t22 52.5l221 1038q5 23 21 37.5t41 14.5h188q22 0 34.5 -11t12.5 -31
q0 -4 -0.5 -7.5t-1.5 -8.5l-210 -989q-5 -23 -11 -46.5t-14 -44.5q-27 -77 -78.5 -144.5t-118 -117.5t-144 -78.5t-157.5 -28.5z" />
    <glyph glyph-name="K" unicode="K" horiz-adv-x="1468" 
d="M468 1441q4 18 18 31t35 13h203q13 0 26.5 -10t13.5 -27q0 -2 -0.5 -3.5t-0.5 -3.5l-126 -594l690 607q26 31 50 31h286q25 0 25 -12q-3 -8 -17 -21l-687 -623l442 -789q9 -17 9 -26q0 -14 -23 -14h-271q-24 0 -38 31l-343 599l-207 -176l-87 -410q-9 -44 -57 -44h-203
q-37 0 -37 31q0 3 0.5 6t1.5 7z" />
    <glyph glyph-name="L" unicode="L" horiz-adv-x="1148" 
d="M468 1443q4 18 19.5 31t36.5 13h204q35 0 35 -34q0 -2 -0.5 -4.5t-0.5 -5.5l-248 -1170h585q15 0 25 -9t10 -26q0 -7 -1 -11l-39 -183q-9 -41 -53 -44h-835q-37 0 -37 31q0 3 0.5 6t1.5 7z" />
    <glyph glyph-name="M" unicode="M" horiz-adv-x="1852" 
d="M864 32q-14 0 -24 15t-15 28q-34 220 -68.5 437t-67.5 437l-283 -897q-8 -24 -24.5 -38t-43.5 -14h-182q-43 0 -43 38q0 4 0.5 8.5t1.5 9.5l435 1377q7 21 25 36.5t42 15.5h233q20 0 31 -12.5t14 -32.5q5 -38 11.5 -79t14.5 -94t18 -122.5t21.5 -164.5t26 -220t31.5 -289
l583 968v-1q12 24 29.5 35.5t37.5 11.5h232q25 0 35 -16t10 -36l-151 -1380q-6 -26 -22.5 -39.5t-40.5 -13.5h-182q-46 0 -46 41q0 7 1 11l96 897l-504 -868q-6 -8 -14 -16.5t-16.5 -15.5t-17 -12t-15.5 -5h-169z" />
    <glyph glyph-name="N" unicode="N" horiz-adv-x="1583" 
d="M468 1441q4 18 17.5 31t35.5 13h235q15 0 31 -8t21 -23l460 -967l197 967q11 18 25 24.5t25 6.5h202q15 0 29.5 -12t10.5 -32l-297 -1397q-9 -44 -58 -44h-213q-11 0 -18.5 9.5t-16.5 23.5l-483 1040l-210 -1029q-6 -44 -53 -44h-202q-44 0 -35 44z" />
    <glyph glyph-name="O" unicode="O" horiz-adv-x="1706" 
d="M542 741q-12 -59 -12 -112q0 -81 26 -149.5t74 -118.5t117.5 -78t156.5 -28q76 0 148.5 22t137 62t119 95.5t93.5 122t61 142t22 155.5q0 81 -26 150t-74.5 119t-117.5 78.5t-156 28.5q-102 0 -195.5 -38.5t-169 -104.5t-129 -155t-75.5 -191zM245 741q22 106 70.5 203.5
t116 183t152 155.5t180 119.5t199 77t209.5 27.5q138 0 251.5 -46t195.5 -127t127 -192t45 -241q0 -123 -37 -239t-103 -219t-155.5 -188t-194.5 -147t-220.5 -96t-233.5 -34q-138 0 -252 45.5t-195.5 126.5t-126.5 191.5t-45 239.5q0 38 4 78t13 82z" />
    <glyph glyph-name="P" unicode="P" horiz-adv-x="1297" 
d="M465 1428q5 26 22.5 41.5t44.5 15.5h560q101 0 178 -39.5t125 -105.5t64.5 -153t-3.5 -181q-20 -92 -72 -177.5t-127 -151.5t-168 -105.5t-193 -39.5h-325l-102 -479q-12 -53 -65 -53h-188q-26 0 -37.5 13.5t-5.5 39.5zM1158 1008q9 41 1.5 80t-28.5 69.5t-55.5 49
t-80.5 18.5h-277l-92 -433h277q45 0 87.5 18t76.5 48t58 69t33 81z" />
    <glyph glyph-name="Q" unicode="Q" horiz-adv-x="1706" 
d="M248 741q22 106 70.5 203.5t116 183t152 155.5t180 119.5t199 77t209.5 27.5q138 0 251.5 -46t195.5 -127t127 -192t45 -241q0 -111 -30 -216.5t-83.5 -201t-127.5 -177.5t-162.5 -146.5t-188 -108t-204.5 -60.5l-55 -257q-9 -44 -57 -44h-203q-37 0 -37 31q0 3 0.5 6
t1.5 7l55 257q-109 20 -196.5 72t-149 128t-94.5 173.5t-33 209.5q0 81 18 167zM545 741q-12 -59 -12 -112q0 -81 26 -149.5t74 -118.5t117.5 -78t156.5 -28q76 0 148.5 22t137 62t119 95.5t93.5 122t61 142t22 155.5q0 81 -26 150t-74.5 119t-117.5 78.5t-156 28.5
q-102 0 -195.5 -38.5t-169 -104.5t-129 -155t-75.5 -191z" />
    <glyph glyph-name="R" unicode="R" horiz-adv-x="1374" 
d="M467 1437q10 48 54 48h603q103 0 183.5 -38.5t131.5 -104.5t69 -154.5t-3 -188.5q-15 -68 -45.5 -130t-73.5 -115.5t-97 -97.5t-115 -75l141 -535q0 -2 0.5 -4.5t-0.5 -4.5q-4 -18 -15 -27.5t-36 -9.5h-224q-27 0 -32 31l-118 488h-323l-102 -477q-9 -42 -52 -42h-207
q-18 0 -29.5 10t-6.5 32zM1220 1001q8 38 1 75.5t-28 67.5t-55.5 49t-81.5 19h-342l-90 -422h349q48 0 89.5 17t73.5 46.5t53.5 67.5t30.5 80z" />
    <glyph glyph-name="S" unicode="S" horiz-adv-x="1282" 
d="M1238 1089q-13 0 -23.5 6t-22.5 19q-16 18 -41 41t-57.5 43.5t-71.5 34.5t-83 14q-56 0 -101.5 -12.5t-79.5 -34t-55 -50.5t-28 -62q-8 -36 9 -63t51 -48.5t80.5 -39t97.5 -33.5q88 -29 171.5 -64.5t145 -86.5t90.5 -122.5t8 -172.5q-23 -109 -86 -197t-153.5 -150.5
t-202.5 -96t-232 -33.5q-77 0 -148.5 18t-134.5 51.5t-115.5 81t-91.5 105.5q-18 25 -12 46q4 20 33 43l17 15l23 18q17 13 38 29t40.5 29t36 22t25.5 9q14 0 24 -9.5t18 -20.5q26 -35 63 -65t78.5 -53t85 -36t83.5 -13q55 0 106 14t91.5 39.5t68 61.5t36.5 80t-10 75.5
t-56 55t-86 40.5t-99 32q-114 37 -196.5 80t-132 96.5t-66 120t1.5 149.5q20 93 74 169.5t134.5 131t184 85t223.5 30.5q91 0 179 -28.5t157 -78.5q20 -15 41.5 -34t38 -38.5t26.5 -38t7 -31.5t-11.5 -24.5t-19.5 -22.5l-37 -32v1q-18 -16 -38 -33t-38.5 -30.5t-33.5 -22.5
t-24 -9z" />
    <glyph glyph-name="T" unicode="T" horiz-adv-x="1222" 
d="M348 1441q4 18 21.5 31t37.5 13h1021q18 0 31 -11t11 -33l-38 -176q-5 -22 -21 -37.5t-41 -15.5h-363l-247 -1161q-2 -8 -7.5 -16.5t-13 -16.5t-17 -13t-18.5 -5h-200q-7 0 -14.5 4.5t-13.5 11.5t-9.5 16.5t-1.5 18.5l247 1161h-363q-20 0 -32 14t-7 39z" />
    <glyph glyph-name="U" unicode="U" horiz-adv-x="1504" 
d="M559 587q-15 -70 -4.5 -132t42.5 -108.5t84.5 -73.5t122.5 -27t134 27t115.5 73.5t87.5 108.5t51 132l182 854q4 18 20 31t36 13h198q18 0 31.5 -12t9.5 -32l-182 -854q-27 -126 -98.5 -237t-172.5 -194.5t-222.5 -131.5t-247.5 -48t-227.5 48t-166.5 131.5t-90 194.5
t2 237l182 854q3 15 18 29.5t33 14.5h207q14 0 27.5 -13t9.5 -31z" />
    <glyph glyph-name="V" unicode="V" horiz-adv-x="1436" 
d="M806 440q65 110 141 235t155 254t157.5 257.5t147.5 247.5q14 19 35.5 35t42.5 16h197q26 0 37.5 -11.5t6.5 -31.5q-1 -4 -4 -11.5t-3 -9.5l-835 -1352q-6 -10 -14 -22t-18.5 -22.5t-24 -17.5t-29.5 -7h-131q-18 0 -28.5 8.5t-17 22t-10.5 31.5t-7 37q-46 247 -81.5 435
t-61.5 328t-44.5 236.5t-30 160t-18 99t-9.5 54t-3 24t1 9.5q8 40 58 40h193q23 0 36 -12t15 -34z" />
    <glyph glyph-name="W" unicode="W" horiz-adv-x="2130" 
d="M1394 1446q23 39 64 39h234q41 0 41 -29q0 -6 -1.5 -14t-7.5 -20l-308 -515l62 -474q11 18 24 40t37 61.5t63.5 105t103 171.5t155.5 259.5t221 369.5q11 20 29 32.5t43 12.5h217q23 0 33.5 -8t10.5 -22q0 -10 -2.5 -17.5t-4.5 -12.5q-35 -58 -72.5 -118.5t-85 -137
t-109 -175t-145.5 -232.5t-193.5 -309.5t-253.5 -405.5q-2 -5 -7.5 -13t-14 -15.5t-20 -13t-25.5 -5.5h-151q-28 0 -39.5 12.5t-11.5 27.5q-23 121 -47.5 248.5t-47.5 248.5l-284 -463q-15 -28 -38.5 -51t-51.5 -23h-147q-18 0 -28.5 8t-16.5 19.5t-8.5 23.5t-2.5 20
q-63 337 -128.5 678.5t-126.5 675.5q3 14 5.5 25t8.5 19t16 12t27 4h208q20 0 33 -12t17 -36l146 -1004z" />
    <glyph glyph-name="X" unicode="X" horiz-adv-x="1416" 
d="M1328 68q9 -20 9 -35q0 -33 -37 -33h-197q-20 0 -34 11.5t-21 29.5q-53 115 -107.5 231t-107.5 231q-103 -117 -204 -231t-204 -231q-16 -17 -35 -29t-37 -12h-237q-30 0 -30 22q0 9 13 26t27 33l594 669q-32 70 -65 142.5t-70.5 153.5t-80.5 173t-95 203q-8 18 -8 29
q0 20 14 27t37 7h184q28 0 40.5 -15.5t25.5 -43.5l197 -468l434 482q38 42 82 45h213q20 0 32 -4t12 -16q-1 -6 -5.5 -17t-15.5 -24l-638 -714z" />
    <glyph glyph-name="Y" unicode="Y" horiz-adv-x="1368" 
d="M393 1423q-2 3 -5 15t-3 17q0 13 12 21.5t26 8.5h256q9 -2 14 -3t9 -5t8.5 -12t10.5 -23l160 -542l434 546q10 13 17 20t12.5 11t10.5 5.5t13 2.5h261q23 0 23 -19q0 -16 -19 -40l-642 -796l-121 -573q-12 -57 -68 -57h-191q-40 0 -40 38v9.5t2 9.5l121 571z" />
    <glyph glyph-name="Z" unicode="Z" horiz-adv-x="1355" 
d="M120 0q-10 0 -19 3.5t-15.5 9.5t-9.5 14t-1 18l34 163q2 8 5.5 16.5t13.5 18.5l972 967h-714q-46 0 -46 40q0 1 0.5 5.5t4.5 22t11.5 53.5t21.5 100q5 26 22.5 40t43.5 14h1072q20 0 33.5 -11t13.5 -31q0 -2 -0.5 -5.5t-4 -19t-10 -46.5t-18.5 -88q-2 -10 -5 -17.5
t-12 -18.5l-974 -974h724q20 0 32.5 -9.5t12.5 -29.5q0 -2 -0.5 -6.5t-4 -21.5t-11 -51.5t-20.5 -97.5q-5 -20 -24 -39t-43 -19h-1085z" />
    <glyph glyph-name="bracketleft" unicode="[" horiz-adv-x="592" 
d="M493 1670q6 26 23 39t43 13h347q24 -1 35 -14t6 -38l-33 -159q-6 -27 -24 -41.5t-41 -14.5h-120l-304 -1428h120q22 0 34.5 -15t6.5 -41l-33 -159q-12 -50 -65 -52h-347q-26 0 -37 13t-5 39z" />
    <glyph glyph-name="backslash" unicode="\" horiz-adv-x="1054" 
d="M671 39q-77 352 -153.5 699.5t-154.5 699.5q-2 4 -1.5 8t1.5 9q4 18 20 24t32 6h185q24 0 36 -11t17 -33l306 -1398q-1 -9 -0.5 -13t-0.5 -7q-4 -23 -41 -23h-202q-20 0 -29.5 9t-14.5 30z" />
    <glyph glyph-name="bracketright" unicode="]" horiz-adv-x="647" 
d="M483 -188q-6 -26 -23 -39t-43 -13h-347q-50 2 -41 52l33 159q6 26 24.5 41t40.5 15h120l304 1428h-120q-23 0 -35 14.5t-6 41.5l33 159q5 25 22 38t43 14h347q26 0 37 -13t5 -39z" />
    <glyph glyph-name="asciicircum" unicode="^" horiz-adv-x="976" 
d="M802 1622q8 6 16 10.5t16 4.5t14 -4.5t11 -10.5l272 -344q5 -5 8.5 -14t1.5 -17q-4 -16 -17 -25t-25 -21l-89 -72q-9 -8 -18 -13.5t-19 -5.5q-11 0 -16.5 3.5t-11.5 10.5l-172 222l-269 -222q-8 -6 -15.5 -9.5t-16.5 -3.5q-10 0 -17 5t-12 12l-69 87q-6 7 -9 14t-1 18
q2 8 8.5 17t13.5 14z" />
    <glyph glyph-name="underscore" unicode="_" horiz-adv-x="902" 
d="M842 -77q23 0 34.5 -14t6.5 -40l-28 -131q-5 -19 -22.5 -38t-41.5 -19h-805q-53 0 -41 57l28 131q5 26 20.5 40t42.5 14h806z" />
    <glyph glyph-name="grave" unicode="`" horiz-adv-x="516" 
d="M414 1426q-4 14 -4.5 22.5t1.5 15.5q2 12 10.5 16.5t21.5 4.5h150q19 0 28 -10t17 -32l45 -205q4 -25 3 -38q-3 -13 -11 -19.5t-28 -6.5h-143q-34 0 -44 42z" />
    <glyph glyph-name="a" unicode="a" horiz-adv-x="1188" 
d="M851 55q2 19 3 37.5t2 37.5q-24 -27 -51.5 -53.5t-62 -48t-78 -34.5t-98.5 -13h-5q-107 0 -187.5 39t-130 107t-65.5 161t7 200q23 109 78 202t133.5 161t175.5 107t205 39q56 0 97 -14t69.5 -37.5t47 -53.5t29.5 -62l39 97q7 16 13 27t13 17t16.5 8.5t23.5 2.5h108
q23 0 37 -14.5t9 -39.5l-187 -878q-5 -24 -24.5 -37t-42.5 -13h-129q-30 0 -37.5 15t-7.5 40zM446 486q-12 -55 -5 -103t31 -83.5t64 -56t94 -20.5q55 0 104 20t88 55t66.5 83t39.5 104q11 54 4.5 102.5t-30 85t-63.5 58t-97 21.5q-55 0 -104 -21t-87.5 -57.5t-65.5 -85
t-39 -102.5z" />
    <glyph glyph-name="b" unicode="b" horiz-adv-x="1186" 
d="M466 1435q5 23 25 36.5t42 13.5h153q27 0 38 -14t6 -36l-120 -563q53 54 122 88t158 34q102 0 179 -39.5t124 -108t61.5 -161t-7.5 -198.5q-23 -105 -78 -197t-132.5 -161t-170.5 -108.5t-192 -39.5q-95 0 -152 35.5t-92 107.5q-9 -21 -16.5 -41.5t-15.5 -38.5
q-9 -18 -21.5 -27t-27 -13t-30.5 -4h-32h-78q-24 2 -33.5 15t-4.5 36zM500 482q-11 -54 -2 -101.5t34 -83t64.5 -56t88.5 -20.5t97 20.5t87.5 56.5t68.5 84t41 103t4 103.5t-31.5 84.5t-61.5 57t-87 21q-50 0 -99 -21t-90 -57t-71 -84.5t-42 -103.5z" />
    <glyph glyph-name="c" unicode="c" horiz-adv-x="1022" 
d="M637 230q30 1 56 5t51 11.5t49 17t51 21.5q18 10 33 10q14 -1 20.5 -13t13.5 -27l48 -107q2 -5 3 -11.5t0 -9.5q-4 -18 -17.5 -28.5t-25.5 -17.5q-76 -44 -159.5 -73t-170.5 -29q-105 0 -190 39.5t-140 108.5t-76 161.5t2 199.5q23 106 83.5 200t144.5 163.5t186 110
t207 40.5q81 0 149.5 -26t127.5 -71q14 -11 21.5 -22t3.5 -28q-1 -5 -4.5 -12t-7.5 -11l-105 -133q-8 -9 -17 -14.5t-19 -5.5q-11 0 -29 13q-30 28 -75.5 46.5t-94.5 18.5q-55 0 -107.5 -21.5t-95 -58.5t-73 -86t-42.5 -104q-12 -57 -3 -104.5t36 -81.5t69.5 -52.5
t96.5 -18.5z" />
    <glyph glyph-name="d" unicode="d" horiz-adv-x="1188" 
d="M1068 51q-5 -23 -19.5 -36t-39.5 -15h-78q-38 0 -68 6q-13 4 -18.5 16t-6.5 28.5t0.5 35.5t2.5 38q-33 -36 -66 -63t-69 -44.5t-78 -26.5t-93 -9q-103 0 -180.5 39.5t-124.5 108.5t-61.5 161t8.5 197q22 106 75.5 198.5t130 161t171.5 108t201 39.5q47 0 82.5 -9
t62 -25.5t45.5 -38.5t34 -49l120 563q5 22 21 36t42 14h154q22 0 37 -13.5t10 -36.5zM924 485q12 55 4.5 103.5t-32 84.5t-64.5 57t-93 21q-57 0 -105.5 -21t-86 -57t-63.5 -84.5t-38 -103.5t-6.5 -103t28 -84t62 -56.5t96.5 -20.5q52 0 100.5 20.5t88 56t68 83t40.5 101.5z
" />
    <glyph glyph-name="e" unicode="e" horiz-adv-x="1064" 
d="M634 214q43 -1 88.5 12.5t89.5 35.5q18 8 34 18.5t27 10.5q16 0 28 -18l53 -125q6 -14 4 -26q-3 -15 -15.5 -26.5t-26.5 -21.5q-73 -49 -157.5 -73.5t-169.5 -24.5q-105 0 -189 40t-139 109.5t-76 163t2 200.5q15 69 46.5 134t76 122t99 104t114.5 81t123 53t125 19
q110 0 192 -39.5t132.5 -106.5t68 -154t-0.5 -181q-7 -36 -23 -58t-39 -34t-51.5 -16.5t-59.5 -4.5h-542q-5 -43 10 -79t41.5 -61.5t62 -39.5t72.5 -14zM916 580q8 42 -2 76.5t-34 58.5t-60 37t-81 13q-37 0 -76.5 -14.5t-74 -39.5t-62 -58.5t-40.5 -72.5h430z" />
    <glyph glyph-name="f" unicode="f" horiz-adv-x="682" 
d="M-23 -407q-45 0 -45 38q0 4 2 14l27 128q5 23 21.5 36.5t38.5 13.5h4q25 1 49 12t44.5 29.5t35.5 43t21 51.5l171 807h-77q-43 0 -43 41q0 4 0.5 8.5t1.5 9.5l22 104q6 29 23 41.5t42 12.5h79l37 173q17 80 60.5 143.5t104.5 107.5t135 67.5t154 23.5q44 0 44 -40
q0 -10 -1 -15l-29 -139q-5 -21 -20 -36t-36 -15q-58 0 -100.5 -29t-56.5 -95l-31 -146h105q20 0 31.5 -9t11.5 -29q0 -4 -0.5 -7.5t-1.5 -8.5l-22 -104q-5 -26 -23 -42.5t-42 -16.5h-104l-158 -745q-5 -23 -10.5 -46t-12.5 -45q-23 -75 -68 -136.5t-105 -106t-131.5 -69
t-147.5 -25.5z" />
    <glyph glyph-name="g" unicode="g" horiz-adv-x="1192" 
d="M785 -20q7 13 14.5 35.5t14.5 47.5t12.5 49.5t9.5 41.5q-22 -28 -50 -55.5t-62 -49t-74.5 -34.5t-87.5 -13q-104 0 -185 36.5t-131.5 101.5t-67.5 154.5t6 196.5q22 105 78 197t134.5 160t175.5 107t201 39q48 0 88.5 -13t70.5 -35t47.5 -51.5t19.5 -62.5l49 92
q7 13 13.5 23.5t14 18t18 11.5t25.5 4h115q21 0 38 -14.5t11 -42.5l-180 -845q-26 -120 -84.5 -212.5t-140.5 -155.5t-181.5 -96t-206.5 -33q-41 0 -87.5 6t-91.5 19.5t-85 35t-67 51.5q-9 8 -14 21t-2 29q2 9 7 19t16 21l104 108q13 11 23 17t21 6q16 0 39 -18
q15 -18 38 -29.5t48 -18t50 -8.5t46 -2q34 0 71.5 9.5t71.5 27.5t62.5 44t44.5 60zM461 491q-11 -51 -4.5 -95.5t28.5 -77t59 -51t87 -18.5q49 0 97.5 19t88.5 52t68.5 76.5t38.5 91.5t0.5 93t-35 79t-65.5 54.5t-89 20.5q-50 0 -95.5 -19.5t-81.5 -53t-61.5 -78
t-35.5 -93.5z" />
    <glyph glyph-name="h" unicode="h" horiz-adv-x="1229" 
d="M594 864q25 23 63 46.5t83 43t94.5 31.5t96.5 12q91 0 155 -32.5t101.5 -89.5t48 -133.5t-4.5 -164.5q-1 -5 -2 -11t-2 -11l-107 -504q-5 -25 -21.5 -38t-37.5 -13h-166q-27 0 -35 12t-3 37l107 505q9 40 1.5 75.5t-27.5 62t-51.5 42t-71.5 15.5q-37 0 -83 -13t-88 -37.5
t-74 -61t-42 -84.5l-108 -509q-7 -28 -28.5 -36t-42.5 -8h-149q-52 0 -43 47l296 1389q5 21 19.5 34.5t39.5 13.5h163q22 0 34 -11t7 -37z" />
    <glyph glyph-name="i" unicode="i" horiz-adv-x="576" 
d="M423 47q-9 -47 -59 -47h-167q-47 0 -38 47l189 888q5 20 19.5 34t37.5 14h167q18 0 31.5 -13.5t8.5 -34.5zM396 1275q7 32 25 60t43 49t55 33t62 12q33 0 58.5 -12t42 -33t22.5 -49t-1 -60t-24.5 -59.5t-42.5 -48.5t-56 -33t-64 -12q-32 0 -57 12t-41.5 33t-22.5 48.5
t1 59.5z" />
    <glyph glyph-name="j" unicode="j" horiz-adv-x="565" 
d="M-47 -407q-26 0 -37 14t-6 38l27 128q5 23 21.5 36.5t38.5 13.5h4q25 1 49.5 12t44.5 29.5t35 43t21 51.5l206 972q5 25 23 38t41 13h158q24 0 35.5 -14t6.5 -37l-193 -910q-5 -23 -10.5 -46t-12.5 -45q-23 -75 -68 -136.5t-105 -106t-131.5 -69t-147.5 -25.5zM406 1275
q7 32 25 60t43 49t55 33t62 12q33 0 58.5 -12t42 -33t22.5 -49t-1 -60t-24.5 -59.5t-42.5 -48.5t-56 -33t-64 -12q-32 0 -57 12t-41.5 33t-22.5 48.5t1 59.5z" />
    <glyph glyph-name="k" unicode="k" horiz-adv-x="1146" 
d="M453 1426q3 13 6 24t10 18.5t20 12t36 4.5h167q15 0 23.5 -5t12.5 -13t4 -17t-2 -16l-167 -787l342 308q25 22 53 22h236q20 0 29 -9t6 -24q-2 -8 -5.5 -14t-14.5 -15l-387 -334l289 -511h-2q8 -10 10.5 -20.5t0.5 -18.5q-4 -18 -14.5 -24.5t-30.5 -6.5h-260
q-23 0 -42 40l-175 356l-105 -88l-53 -249q-2 -6 -6 -16t-11.5 -19.5t-18.5 -16.5t-27 -7h-176q-14 0 -22.5 7.5t-12.5 17t-5 17.5t-1 9z" />
    <glyph glyph-name="l" unicode="l" horiz-adv-x="565" 
d="M433 55q-5 -26 -23.5 -40.5t-44.5 -14.5h-160q-55 0 -44 55l292 1374q5 25 23 41t44 16h160q19 0 34.5 -15.5t10.5 -41.5z" />
    <glyph glyph-name="m" unicode="m" horiz-adv-x="1808" 
d="M546 982q17 0 26 -13.5t13 -33t4 -42v-39.5q26 25 58.5 49.5t70.5 44t81.5 31.5t91.5 12q51 0 93.5 -12.5t75.5 -33.5t56.5 -49t36.5 -60q31 34 71 63.5t84.5 51.5t91 34t91.5 12q101 0 166 -32.5t99 -88.5t40.5 -132.5t-8.5 -163.5q-5 -23 -9 -44.5t-9 -44.5l-92 -432
q-6 -28 -26.5 -43.5t-46.5 -15.5h-151q-64 0 -52 57l105 498q8 37 7 70t-12.5 57t-34.5 38t-59 14q-35 0 -73.5 -13.5t-72 -37.5t-58.5 -56.5t-33 -69.5l-106 -499q-6 -28 -25.5 -43t-45.5 -15h-165q-29 0 -39 14.5t-4 42.5l107 507q17 81 -14 125.5t-103 44.5
q-34 0 -71 -13.5t-69 -37t-56 -55t-31 -68.5l-108 -507q-5 -23 -22 -38t-40 -15h-171q-29 0 -40 15.5t-6 39.5l184 865q6 27 28 44.5t40 17.5h132z" />
    <glyph glyph-name="n" unicode="n" horiz-adv-x="1229" 
d="M525 982q30 0 43 -10t17 -27.5t2.5 -40.5t-0.5 -49q28 26 65 51t80 44.5t90 31.5t96 12q93 0 159 -29.5t104.5 -82t49 -125t-7.5 -158.5l-115 -540q-6 -28 -26 -43.5t-44 -15.5h-164q-32 0 -41 14.5t-3 42.5l105 496q9 40 2 73.5t-26 56.5t-49.5 36t-69.5 13
q-32 0 -70 -13.5t-73 -37t-63.5 -55t-41.5 -67.5l-107 -504q-11 -55 -70 -55h-161q-29 0 -40.5 15.5t-6.5 39.5l184 867q7 29 25 44.5t49 15.5h108v0z" />
    <glyph glyph-name="o" unicode="o" horiz-adv-x="1170" 
d="M152 488q23 106 83.5 200t145 163.5t187.5 110t211 40.5q107 0 193 -40.5t141.5 -110t76.5 -163.5t-2 -200q-23 -107 -83 -199.5t-145 -161.5t-188 -108.5t-210 -39.5q-108 0 -194 39.5t-141.5 108.5t-76.5 161.5t2 199.5zM419 487q-12 -54 -2.5 -101.5t36 -83t68 -56
t95.5 -20.5q53 0 103.5 20.5t92 56t71 83t41.5 101.5q11 53 1.5 100.5t-35.5 83.5t-68 57t-95 21q-54 0 -104.5 -21t-92 -57t-71 -83.5t-40.5 -100.5z" />
    <glyph glyph-name="p" unicode="p" horiz-adv-x="1182" 
d="M351 927q5 26 23 41.5t45 17.5h98q16 0 29.5 -1t23.5 -6t16.5 -15t7.5 -29l-1 -67q63 63 132 100t158 37q99 0 176 -39.5t125.5 -108.5t64.5 -161t-6 -197q-23 -106 -77.5 -198.5t-132 -161t-172.5 -108t-197 -39.5q-38 0 -70.5 8t-59 22t-47.5 32.5t-36 39.5l-91 -432
q-6 -26 -25.5 -42.5t-49.5 -16.5h-151q-26 0 -42 16.5t-10 42.5zM512 504q-11 -53 -3 -99t31.5 -80.5t60.5 -54.5t84 -20q46 0 91 20t82.5 54t64.5 79.5t38 97.5q11 51 3 96.5t-31 79t-59.5 53t-82.5 19.5t-91.5 -19.5t-83.5 -52.5t-65.5 -77.5t-38.5 -95.5z" />
    <glyph glyph-name="q" unicode="q" horiz-adv-x="1170" 
d="M999 -335q-5 -26 -28 -42.5t-49 -16.5h-151q-30 0 -42.5 16.5t-7.5 42.5l91 429q-24 -21 -52.5 -39.5t-60.5 -32.5t-68 -22t-74 -8q-102 0 -180 39.5t-126 108t-64 161t7 198.5q22 105 77 197t132.5 161t171.5 108.5t193 39.5q88 0 142 -37t90 -100l27 67q9 19 20 29
t23 15t26 6t30 1h98q27 -2 38 -17.5t6 -41.5zM927 504q10 51 1.5 95.5t-32.5 77.5t-61 52.5t-83 19.5t-91 -19.5t-82.5 -53t-64.5 -79t-38 -96.5q-11 -52 -3 -97.5t31 -79.5t59.5 -54t82.5 -20t91.5 20t84 54.5t66.5 80.5t39 99z" />
    <glyph glyph-name="r" unicode="r" horiz-adv-x="949" 
d="M581 848q23 24 53.5 50t66.5 47.5t76.5 35.5t83.5 14q22 0 37 -3q27 -3 60.5 -15t62 -29t46.5 -36t15 -36q-4 -14 -15 -27l-109 -131q-23 -28 -47 -28q-8 0 -22.5 7t-30.5 18q-26 17 -45 26t-46 9q-44 0 -83 -17.5t-69 -45t-50 -62t-27 -68.5l-108 -506q-11 -51 -63 -51
h-154q-26 0 -37 12.5t-6 38.5l187 881q5 25 24 38t39 13h115q25 0 32 -16t9 -36z" />
    <glyph glyph-name="s" unicode="s" horiz-adv-x="940" 
d="M859 702q-18 -14 -29.5 -8.5t-19.5 10.5q-14 9 -31.5 23t-38.5 27.5t-47 23t-58 9.5q-38 0 -64.5 -7t-44 -18.5t-27 -27.5t-13.5 -34q-5 -24 9.5 -39t40 -26t58.5 -19.5t65 -17.5q41 -13 80 -26.5t73 -30.5t61 -39t44 -51t22 -66.5t-5 -85.5q-16 -76 -61.5 -136
t-111 -101.5t-145.5 -63.5t-166 -22q-51 0 -99.5 11t-91.5 31.5t-79.5 51t-62.5 69.5q-13 21 -9 42q2 11 9 20.5t18 18.5l106 85q10 8 19 11t16 3q13 0 24 -9.5t18 -17.5q20 -22 43.5 -39t47 -29t46 -18t40.5 -6q80 0 128.5 27t57.5 72q4 22 -7 37.5t-33.5 27.5t-54 22
t-68.5 21q-86 24 -144.5 54t-92 67.5t-43 83t2.5 100.5q14 65 53 118.5t97.5 91.5t132.5 59t158 21q46 0 91 -7t85.5 -22t74.5 -39.5t59 -59.5q31 -44 -8 -75z" />
    <glyph glyph-name="t" unicode="t" horiz-adv-x="656" 
d="M431 1252q5 24 23 39.5t50 19.5l159 22q4 1 7.5 1h6.5q29 0 35 -17t0 -43l-62 -291h120q25 0 37 -15t6 -44l-23 -110q-7 -32 -25.5 -47t-43.5 -15h-120l-147 -693q-6 -29 -26 -44t-50 -15h-154q-59 0 -47 59l147 693h-54q-58 0 -45 62l23 110q12 59 71 59h54z" />
    <glyph glyph-name="u" unicode="u" horiz-adv-x="1217" 
d="M907 0q-30 0 -44.5 9t-19.5 25t-5 38t-1 48q-29 -26 -67.5 -50t-83 -42t-93 -29t-97.5 -11q-93 0 -157.5 29.5t-101.5 82t-45.5 125t9.5 158.5l115 540q6 28 26 43.5t44 15.5h164q32 0 41 -14.5t3 -42.5l-105 -496q-17 -81 19.5 -130t114.5 -49q32 0 74.5 12.5t82 35.5
t69.5 55t38 70l108 504q11 55 70 55h161q29 0 40.5 -15.5t6.5 -39.5l-185 -867q-6 -29 -24 -44.5t-49 -15.5h-108v0z" />
    <glyph glyph-name="v" unicode="v" horiz-adv-x="1086" 
d="M619 385l315 553q28 45 76 45h179q29 0 39 -12t5 -34q-2 -8 -6 -16.5t-5 -10.5l-527 -848q-15 -24 -36 -43t-47 -19h-147q-18 0 -29.5 7t-18 19t-10 27t-6.5 30l-160 821q-6 32 9.5 55.5t52.5 23.5h182q26 0 38.5 -12.5t15.5 -33.5z" />
    <glyph glyph-name="w" unicode="w" horiz-adv-x="1627" 
d="M626 400l301 530q14 25 32.5 39t49.5 14h159q34 0 44.5 -21t-4.5 -48l-99 -175l54 -341l300 533q15 27 36.5 39.5t43.5 12.5h182q25 0 37.5 -10.5t7.5 -31.5q-2 -7 -5 -14t-6 -13l-525 -855q-4 -6 -11 -16t-15.5 -19.5t-19 -16.5t-21.5 -7h-159q-19 0 -30.5 10.5t-18 24
t-9 27.5t-3.5 20l-57 298l-201 -327q-5 -8 -11.5 -17t-16 -17t-21 -13.5t-26.5 -5.5h-147q-19 0 -30 7t-17.5 18.5t-9.5 25t-5 26.5l-154 838q-5 29 13.5 48.5t47.5 19.5h182q25 0 38.5 -13t18.5 -34z" />
    <glyph glyph-name="x" unicode="x" horiz-adv-x="1055" 
d="M56 0q-13 0 -18.5 4t-6.5 10t3 13.5t10 14.5l425 471l-201 416q-14 23 -5.5 38.5t37.5 15.5h181q21 0 35.5 -2.5t25.5 -10t19.5 -20t17.5 -33.5l88 -227l218 259q18 22 34 28t32 6h213q17 0 26 -5t7 -16q-4 -11 -19 -28q-37 -40 -68.5 -74t-61 -65.5t-58 -62.5t-59 -65
t-65 -71.5t-75.5 -82.5l216 -455q4 -11 6.5 -21t0.5 -18.5t-9.5 -13.5t-22.5 -5h-233q-15 0 -23.5 4.5t-15 12.5t-12 20t-12.5 26q-25 61 -50.5 121.5t-49.5 121.5l-225 -267q-34 -39 -68 -39h-237z" />
    <glyph glyph-name="y" unicode="y" horiz-adv-x="1118" 
d="M512 -351q-10 -17 -26.5 -31t-39.5 -14h-170q-34 0 -43 20.5t7 48.5l190 337l-175 897q-6 32 11 53.5t52 21.5h175q26 0 39 -13.5t14 -33.5v1l95 -586l340 588q13 23 31.5 33.5t43.5 10.5h173q31 0 41 -13.5t5 -35.5q-2 -5 -5.5 -13.5t-11.5 -22.5z" />
    <glyph glyph-name="z" unicode="z" horiz-adv-x="1034" 
d="M317 923q6 27 26 43.5t49 16.5h710q25 0 40.5 -15t8.5 -45l-28 -134q-2 -7 -5 -16t-12 -19l-569 -505h418q28 0 41.5 -15t6.5 -47l-25 -121q-2 -12 -9 -23.5t-17 -21t-22.5 -15.5t-26.5 -6h-741q-25 0 -39 20.5t-9 45.5l22 106q2 11 6.5 21t15.5 21q64 57 140.5 123.5
t156 135.5t156.5 136t141 125h-413q-29 0 -42.5 15.5t-5.5 48.5z" />
    <glyph glyph-name="braceleft" unicode="{" horiz-adv-x="715" 
d="M1008 1781q5 0 11 1t11 1q61 -5 49 -57l-40 -189q-5 -25 -23.5 -41.5t-42.5 -16.5h-4q-27 0 -54 -11t-50 -30t-40 -44.5t-23 -53.5l-98 -463q-7 -33 -31.5 -67.5t-57.5 -63.5q23 -29 32 -61.5t1 -70.5l-100 -470q-6 -29 1 -53.5t21 -42.5t33.5 -28t39.5 -10q13 0 24.5 -5
t20 -13.5t12.5 -20.5t1 -25l-41 -193q-5 -26 -23 -41t-46 -16q-91 6 -162.5 40t-116.5 92t-60.5 137.5t4.5 174.5l78 365q3 14 5 30.5t-0.5 30.5t-10 23t-23.5 9h-60q-54 0 -42 56l39 184q5 26 22 40t43 14h55q20 0 32.5 9t21 22.5t13 30.5t8.5 34l74 349q19 90 66 168.5
t113.5 138t148 95.5t169.5 42z" />
    <glyph glyph-name="bar" unicode="|" horiz-adv-x="587" 
d="M460 1453q5 23 22.5 38.5t43.5 15.5h166q20 0 35 -15t10 -39l-382 -1801q-11 -52 -69 -52h-166q-53 0 -42 52z" />
    <glyph glyph-name="braceright" unicode="}" horiz-adv-x="721" 
d="M461 1781q86 -6 152 -42t107.5 -95.5t55 -138t-5.5 -168.5l-74 -349q-4 -17 -6.5 -34t-0.5 -30.5t11 -22.5t29 -9h55q26 0 37 -14t6 -40l-39 -184q-12 -56 -66 -56h-60q-16 0 -27.5 -9t-20 -23t-13.5 -30.5t-8 -30.5l-78 -365q-20 -95 -69.5 -174.5t-119 -137.5t-155 -92
t-178.5 -40q-28 1 -39 16t-6 41l41 193q3 13 12 25t21 20.5t25.5 13.5t26.5 5q19 0 43 10t46 28t39 42.5t23 53.5l100 470q8 38 31 70.5t58 61.5q-21 29 -30.5 63.5t-2.5 67.5l98 463q6 28 0 53.5t-21 44.5t-37 30t-49 11h-4q-24 0 -35.5 16.5t-6.5 41.5l40 189q12 52 73 57
q5 0 11 -1t11 -1z" />
    <glyph glyph-name="asciitilde" unicode="~" horiz-adv-x="1318" 
d="M374 395q-6 -3 -15 -3q-8 0 -14 3q-9 4 -29.5 17.5t-40.5 31t-34.5 36t-11.5 32.5q2 6 10 17.5t16 20.5l39 40q77 77 160.5 113.5t173.5 36.5q53 0 102.5 -19t91.5 -51q18 -14 35.5 -28.5t36.5 -26t39.5 -19t43.5 -7.5q32 0 67.5 14t58.5 42l53 54q6 7 15.5 10.5
t17.5 3.5q6 0 28 -13.5t46 -33t41.5 -40.5t14.5 -36t-16 -28.5t-18 -19.5q-47 -46 -90 -79.5t-87.5 -55.5t-91 -33t-98.5 -11t-101 18.5t-91 50.5l-72 56q-37 26 -82 26q-63 0 -113 -44q-8 -7 -19 -19.5t-23.5 -25t-24 -21.5t-18.5 -9z" />
    <glyph glyph-name="exclamdown" unicode="&#xa1;" horiz-adv-x="496" 
d="M241 471q5 25 22.5 39.5t43.5 14.5h182q23 0 36.5 -14t8.5 -40l-200 -942q-5 -26 -23 -40t-46 -14h-182q-26 0 -36.5 14t-5.5 40zM625 826q-8 -34 -27 -63.5t-45.5 -51.5t-58.5 -34.5t-65 -12.5q-35 0 -61.5 12.5t-44 34.5t-23.5 51.5t2 63.5q7 33 25.5 62.5t45 51
t58.5 34.5t67 13q33 0 59.5 -13t43.5 -34.5t24 -51t0 -62.5z" />
    <glyph glyph-name="cent" unicode="&#xa2;" horiz-adv-x="976" 
d="M604 233q48 0 96 13t96 37q12 6 27.5 13.5t23.5 8.5q23 0 32.5 -12t22.5 -42q5 -12 12.5 -28.5t14 -33t10.5 -31t3 -20.5q-5 -22 -34.5 -44.5t-71 -43t-88 -36t-83.5 -23.5l-27 -123q-5 -23 -21.5 -37.5t-39.5 -14.5h-157q-52 0 -41 52l31 142q-68 24 -119 70.5
t-81 109.5t-38 140t10 162q18 87 59 163.5t98 139t128 109.5t149 75l27 127q5 22 21.5 36.5t39.5 14.5h157q21 0 33 -15.5t8 -35.5l-24 -113q30 -6 69.5 -19.5t74.5 -32t57 -41.5t17 -48q-2 -6 -6 -13t-15 -21l-4 -5l-89 -110q-11 -12 -19 -18t-14 -8.5t-10 -2.5h-8
q-9 0 -20 9.5t-20 17.5q-32 25 -71.5 39t-85.5 14q-48 0 -95 -21t-86 -57t-67.5 -83.5t-39.5 -101.5q-11 -49 -5 -95.5t27 -82.5t55 -58t81 -22z" />
    <glyph glyph-name="sterling" unicode="&#xa3;" horiz-adv-x="1200" 
d="M863 821q20 0 32 -12t7 -35l-30 -142q-5 -21 -21 -36t-39 -15h-254l-64 -302h625q20 0 31.5 -12.5t6.5 -35.5l-39 -180q-4 -17 -20 -34t-38 -17h-866q-48 0 -39 46l193 909q17 78 52 149.5t84 133t110 112t130.5 86.5t144.5 55.5t153 19.5q60 0 111 -9t94.5 -26
t80.5 -40.5t70 -51.5q12 -11 16 -20t2 -20q-1 -4 -6 -14t-13 -22l-127 -143q-8 -10 -17.5 -15t-15.5 -5q-3 0 -10 2.5t-16 7.5q-19 16 -39.5 33t-46 30.5t-57.5 22t-72 8.5q-56 0 -110 -19t-99.5 -53t-78 -81.5t-44.5 -105.5l-36 -169h255z" />
    <glyph glyph-name="currency" unicode="&#xa4;" horiz-adv-x="1078" 
d="M482 532q-8 -35 -1.5 -66t24.5 -54t46 -36t64 -13t69.5 13t61 36t47 54t27.5 66q7 36 1 67t-24 54t-46 36t-64 13t-69.5 -13t-61 -36t-47.5 -54t-27 -67zM463 935q19 15 32 15q19 0 30 -15l83 -106q33 8 60.5 13t49.5 5q20 0 45 -5t54 -13l130 106q16 13 32 13
q20 0 32 -15l101 -128q11 -15 8 -31t-22 -31l-128 -107q2 -32 1 -58t-5 -46q-5 -21 -15.5 -47.5t-25.5 -57.5l84 -106q11 -15 8 -31q-3 -18 -21 -31l-155 -127q-16 -13 -38 -13q-18 0 -27 11l-86 105q-66 -17 -106 -17q-41 0 -103 17l-127 -105q-19 -16 -34 -16
q-18 0 -28 16l-100 127q-12 12 -6 35q3 17 17 29l128 106q-2 31 -1 57.5t6 47.5q4 20 14.5 46t25.5 58l-84 107q-10 15 -6 29q3 18 23 35z" />
    <glyph glyph-name="yen" unicode="&#xa5;" horiz-adv-x="1300" 
d="M1166 461q20 0 31.5 -12.5t6.5 -35.5l-18 -88q-4 -17 -20.5 -34.5t-38.5 -17.5h-231l-46 -216q-12 -57 -67 -57h-191q-50 0 -38 57l46 216h-208q-49 0 -37 52l18 88q5 23 20 35.5t38 12.5h208l19 87h-208q-47 0 -37 52l18 86q11 49 59 49h126l-243 687v1q-2 2 -2 6
q-2 8 -4.5 15.5t-1.5 12.5q3 12 13.5 20t25.5 8h255q9 -1 16 -3t12.5 -9t11 -20.5t13.5 -38.5l65 -195q13 -41 24.5 -85.5t23.5 -89.5t24 -89.5t26 -84.5l420 576q10 13 17.5 20.5t13 11t11 5t12.5 2.5h261q14 0 19.5 -7.5t2.5 -19.5q-1 -6 -6.5 -15t-12.5 -17l-80 -98
l-60 -73l-401 -520h153q20 0 31 -12.5t6 -36.5l-18 -86q-4 -17 -20.5 -34.5t-38.5 -17.5h-231l-19 -87h231z" />
    <glyph glyph-name="brokenbar" unicode="&#xa6;" horiz-adv-x="496" 
d="M475 1476q4 18 18 31t36 13h171q18 0 30.5 -12t7.5 -32l-158 -746q-9 -44 -58 -44h-171q-43 0 -34 44zM241 372q4 18 17.5 31t35.5 13h171q18 0 30.5 -12t8.5 -32l-159 -746q-9 -44 -57 -44h-171q-44 0 -35 44z" />
    <glyph glyph-name="section" unicode="&#xa7;" horiz-adv-x="1174" 
d="M1075 1222q-21 26 -49 46t-57 34t-56 21t-46 7q-35 0 -73.5 -10t-73 -29.5t-60.5 -48.5t-34 -67q-5 -24 5.5 -41t32.5 -30.5t52.5 -24.5t65.5 -22q1 0 2 -0.5t2 -0.5q17 -5 35 -10.5t35 -12.5q167 -51 230 -125t39 -184q-15 -72 -59 -131t-109 -99q44 -36 67 -88.5
t7 -125.5q-17 -78 -63 -143.5t-112.5 -112t-149 -72.5t-170.5 -26q-85 0 -157 25.5t-127 76.5q-19 18 -34.5 38.5t-26 39t-16 33t-3.5 21.5q3 13 22 30.5t43 33.5t48 26.5t36 10.5q16 0 27.5 -7.5t28.5 -30.5q19 -26 46 -45.5t56 -33t56 -20t46 -6.5q36 0 75.5 10t74 29.5
t60 48.5t33.5 67q5 26 -6.5 44.5t-36.5 33t-60 26.5t-76 24l-50 15q-82 28 -139.5 58.5t-91 67.5t-44 81.5t1.5 100.5q15 71 58.5 128.5t107.5 99.5q-44 36 -65.5 89t-6.5 125q17 80 64 145.5t113.5 112.5t149 72.5t170.5 25.5q81 0 155 -27.5t128 -75.5q20 -18 35.5 -38
t25.5 -38.5t14.5 -33.5t3.5 -21q-3 -14 -13.5 -25.5t-24.5 -22.5q-3 -2 -5 -3t-4 -3q-26 -17 -54.5 -33t-48.5 -16t-29 11t-21 26zM731 844q-45 0 -80 -10t-60 -26.5t-40 -37t-20 -42.5q-2 -9 0 -29.5t19 -41.5t54 -37t105 -16h9q45 0 79 10t58.5 26.5t38.5 37.5t19 42
q7 35 -4.5 59t-37 38.5t-62 20.5t-78.5 6z" />
    <glyph glyph-name="dieresis" unicode="&#xa8;" horiz-adv-x="884" 
d="M407 1267q6 30 23 55.5t40 45t51 30.5t57 11q30 0 54 -11t39 -30.5t20 -45t-1 -55.5q-6 -29 -22.5 -54.5t-39.5 -45t-51.5 -30.5t-58.5 -11q-29 0 -52.5 11t-38.5 30.5t-20.5 45t0.5 54.5zM813 1269q6 30 23 56t40 45.5t51.5 30.5t57.5 11q30 0 53.5 -11t38.5 -30.5
t20 -45.5t-1 -56q-6 -29 -22 -54.5t-39.5 -44.5t-52 -30t-58.5 -11q-29 0 -52.5 11t-38.5 30t-20.5 44.5t0.5 54.5z" />
    <glyph glyph-name="copyright" unicode="&#xa9;" horiz-adv-x="1756" 
d="M1246 1561q112 0 209.5 -29t177 -82.5t139 -128.5t93.5 -166t41 -196t-17 -219q-24 -112 -75 -216t-124 -194.5t-163.5 -165t-193.5 -128t-214 -83t-225 -29.5q-168 0 -302.5 64t-222.5 175.5t-120.5 261t3.5 320.5q24 111 75 215t123.5 194.5t163.5 165.5t193.5 128.5
t213.5 83t225 29.5zM876 1269q-85 -45 -156.5 -105t-126.5 -129.5t-92.5 -147t-54.5 -157.5q-28 -129 -1 -240.5t94.5 -193t169.5 -128t224 -46.5q90 0 177 25t166 69t148.5 104t124.5 130.5t93 147.5t55 156q29 135 0 246t-97.5 190t-168.5 122.5t-213 43.5q-82 0 -168 -21
t-174 -66zM1428 1132q18 -16 13 -36q0 -3 -1 -5.5t-3 -5.5l-100 -128q-8 -9 -16 -16t-17 -7q-7 0 -12 4q-61 46 -156 46q-53 0 -102 -19t-89.5 -52.5t-69 -79t-39.5 -97.5q-12 -57 -1.5 -101.5t38.5 -76t71 -48t96 -16.5q47 0 87 9t80 34q8 5 17 5q10 -2 17 -15
q20 -49 30 -75.5t15 -38.5q5 -15 7 -17q1 -9 0 -16q-2 -10 -9.5 -17t-18.5 -13q-69 -39 -140 -60t-146 -21q-97 0 -174.5 36.5t-127.5 100t-69 149t2 183.5t76.5 184t133.5 149.5t172 100.5t191 37q75 0 134 -19.5t111 -57.5z" />
    <glyph glyph-name="ordfeminine" unicode="&#xaa;" horiz-adv-x="1022" 
 />
    <glyph glyph-name="guillemotleft" unicode="&#xab;" horiz-adv-x="1378" 
d="M258 524q-7 8 -8 18t1 20q2 11 7.5 19t16.5 17l619 512q10 5 23 9.5t22 4.5q22 0 36 -14l77 -100q5 -8 7.5 -16.5t0.5 -19.5q-2 -8 -7 -19t-15 -19l-452 -376l293 -374q5 -7 6 -19t-1 -20q-6 -24 -26 -41l-122 -99q-8 -5 -17 -9.5t-20 -4.5q-17 0 -29 10t-20 21l-156 199
q-4 5 -12.5 15.5t-18 22.5t-18 22.5t-11.5 15.5zM800 524q-7 8 -8 18t1 20q2 11 7.5 19t16.5 17l621 512q10 5 22 9.5t21 4.5q12 0 21 -4t15 -10l77 -100q5 -8 7.5 -16.5t0.5 -19.5q-2 -8 -7 -19t-15 -19l-452 -376l293 -374q5 -7 6 -19t-1 -20q-6 -23 -25 -41l-123 -99
q-8 -5 -17 -9.5t-20 -4.5q-16 0 -27.5 10t-19.5 21l-158 199l-100 130q-35 43 -68.5 85.5t-67.5 85.5z" />
    <glyph glyph-name="logicalnot" unicode="&#xac;" horiz-adv-x="1162" 
d="M1115 325q-5 -20 -20.5 -34t-38.5 -14h-120q-18 0 -32 13.5t-9 34.5l55 259h-634q-51 0 -40 51l26 121q11 48 60 48h806q23 0 33 -12.5t5 -35.5z" />
    <glyph glyph-name="uni00AD" unicode="&#xad;" horiz-adv-x="1056" 
d="M1022 694q23 0 35.5 -14t7.5 -38l-30 -141q-2 -10 -8 -20t-15 -18.5t-20 -13.5t-23 -5h-652q-25 0 -36 14t-5 43l30 141q5 24 22 38t42 14h652z" />
    <glyph glyph-name="registered" unicode="&#xae;" horiz-adv-x="1756" 
d="M1267 1559q112 0 209.5 -29t176.5 -82t138 -127.5t92.5 -165.5t40.5 -196t-17 -219q-24 -112 -75 -215.5t-123.5 -194t-162.5 -165t-192.5 -127.5t-213.5 -82.5t-224 -29.5q-112 0 -210 29t-177.5 82t-138.5 127.5t-93.5 165.5t-41.5 196t17 219q24 111 75 215
t123.5 194.5t163.5 165t193.5 127.5t214 82.5t225.5 29.5zM1232 1336q-80 0 -163.5 -20t-164.5 -61q-83 -44 -152.5 -102t-123 -126t-90 -143t-52.5 -152q-27 -126 -1 -234.5t91.5 -187.5t163.5 -124t216 -45q89 0 174.5 24.5t162.5 67.5t144 101.5t120 126.5t89.5 143.5
t52.5 151.5q19 89 12 166.5t-35 142t-73.5 115t-104 85t-126.5 53t-140 18.5zM843 1129q9 39 46 39h371q57 -2 103 -25t75 -61t40 -88t-1 -107q-17 -77 -65.5 -140t-116.5 -100l78 -291q2 -3 0 -9q-6 -30 -43 -30h-165q-10 0 -17.5 7.5t-9.5 16.5l-25 101l-40 164h-116
l-54 -255q-8 -34 -44 -34h-151q-16 0 -25 7.5t-5 26.5zM1254 889q4 16 1 31.5t-11 27.5t-22 19t-33 7h-153l-37 -171h153q37 0 65.5 24.5t36.5 61.5z" />
    <glyph glyph-name="macron" unicode="&#xaf;" horiz-adv-x="974" 
d="M384 1337q7 35 42 35h725q36 0 29 -35l-22 -100q-2 -12 -14 -26t-30 -14h-725q-34 0 -27 40z" />
    <glyph glyph-name="degree" unicode="&#xb0;" horiz-adv-x="650" 
d="M618 1350q47 0 84 -17.5t61 -47.5t32 -71.5t-2 -89.5t-36 -88.5t-63 -70.5t-81 -47t-90 -17q-47 0 -84.5 17t-62 47t-33.5 70.5t1 88.5t36.5 89.5t63.5 71.5t81.5 47.5t92.5 17.5zM591 1221q-21 0 -40 -7.5t-35 -21t-27 -31t-15 -37.5q-8 -40 13 -67.5t63 -27.5
q19 0 38 7.5t34.5 20t26.5 30t15 37.5q9 40 -12.5 68.5t-60.5 28.5z" />
    <glyph glyph-name="plusminus" unicode="&#xb1;" horiz-adv-x="994" 
d="M692 365q-5 -23 -21.5 -38.5t-42.5 -15.5h-151q-20 0 -36 14.5t-11 39.5l43 200h-193q-55 0 -43 57l30 141q11 54 66 54h193l42 199q12 55 70 55h151q53 0 41 -55l-42 -199h196q23 0 35.5 -14t7.5 -40l-30 -141q-2 -10 -8 -20t-15 -18.5t-20 -13.5t-23 -5h-196zM863 234
q23 0 35.5 -13t7.5 -39l-27 -126q-5 -22 -23 -39t-42 -17h-644q-54 0 -43 56l27 126q11 52 65 52h644z" />
    <glyph glyph-name="twosuperior" unicode="&#xb2;" horiz-adv-x="836" 
d="M482 1242q-7 -9 -13 -11.5t-12 -2.5q-5 0 -11 2t-10 4l-81 42q-9 5 -11 10.5t0 12.5q2 10 8 18l-1 -1q58 85 135 134.5t167 49.5q55 0 102.5 -18.5t80 -53t47 -82.5t2.5 -108q-11 -54 -38.5 -95.5t-70.5 -79.5q-56 -50 -122 -105.5t-147 -124.5h269q28 0 22 -28l-24 -109
q-2 -13 -12 -21.5t-22 -8.5h-504q-12 0 -19.5 8.5t-5.5 21.5l18 82q1 3 3 6.5t4 8.5l423 366q20 17 29.5 31.5t13.5 32.5q5 21 1 41t-15 35t-29 24t-42 9q-35 0 -67.5 -20t-51.5 -51z" />
    <glyph glyph-name="threesuperior" unicode="&#xb3;" horiz-adv-x="756" 
d="M484 821q22 0 44 7t40.5 20.5t31.5 33.5t19 45q9 45 -16 76t-79 31q-12 0 -18 5.5t-3 19.5l22 104q6 27 33 27q18 0 33 7.5t27 18t20 23t10 23.5q3 13 1 27t-8.5 24.5t-19 17.5t-30.5 7q-27 0 -47 -13t-35 -28.5t-27 -28.5t-22 -13q-9 0 -17 8l-69 43q-14 9 -11 22
q1 10 12 22q22 31 50.5 58t62 47t70 31t74.5 11q44 0 81.5 -17.5t62.5 -47.5t35.5 -71t0.5 -87q-9 -43 -34 -78.5t-57 -62.5q21 -18 39 -38t29.5 -44.5t14.5 -55.5t-5 -71q-12 -56 -44.5 -104.5t-78 -84.5t-101.5 -56.5t-114 -20.5q-56 0 -100 15.5t-75 44t-48 67t-19 85.5
q-1 4 -0.5 8t1.5 8q2 8 7 15t17 11l98 27q5 2 11 3t11 1q11 0 13.5 -5t4.5 -21q27 -96 102 -96z" />
    <glyph glyph-name="acute" unicode="&#xb4;" horiz-adv-x="496" 
d="M647 1216q-28 -42 -62 -42h-143q-20 0 -25 6.5t-2 19.5q2 8 6.5 16.5t12.5 21.5l131 205q17 22 30.5 32t32.5 10h150q13 0 19.5 -4.5t4.5 -16.5q-2 -7 -5.5 -15.5t-13.5 -22.5z" />
    <glyph glyph-name="mu" unicode="&#xb5;" horiz-adv-x="1229" 
d="M338 -342q-6 -26 -22.5 -37t-38.5 -11h-163q-25 0 -34.5 13.5t-4.5 34.5l271 1278q11 47 62 47h149q10 0 21 -1.5t19 -6.5t12 -13.5t1 -22.5l-108 -509q-10 -48 6.5 -84.5t48 -61t71.5 -37.5t77 -13q40 0 78 15.5t69.5 42t54 62t31.5 75.5l107 505q5 25 18 37t40 12h166
q21 0 32.5 -13t6.5 -38l-108 -504q-4 -13 -5 -22q-22 -88 -65.5 -164.5t-104.5 -133.5t-139 -89.5t-169 -32.5q-47 0 -91 12t-81 31.5t-65.5 43t-43.5 46.5z" />
    <glyph glyph-name="paragraph" unicode="&#xb6;" horiz-adv-x="1396" 
d="M1611 1483q12 0 19.5 -5t10.5 -12.5t3 -16.5t-2 -17l-22 -101q-6 -31 -20 -41.5t-34 -10.5h-153l-260 -1227q-5 -21 -10.5 -31.5t-13 -15t-17.5 -5t-23 -0.5h-120q-14 1 -20.5 5t-8 11t0 16t4.5 20l260 1227h-228l-260 -1227q-5 -21 -10.5 -32t-13 -15.5t-17.5 -4.5h-23
h-120q-14 1 -20.5 5t-8.5 11t0 15.5t4 19.5l133 625q-87 0 -158 31.5t-117 86t-64 128t0 156.5q18 84 65 157.5t113.5 128.5t146.5 87t163 32h821z" />
    <glyph glyph-name="periodcentered" unicode="&#xb7;" horiz-adv-x="454" 
d="M229 561q7 34 26 63.5t45.5 51.5t58.5 34.5t65 12.5q35 0 62 -12.5t44 -34.5t23 -51.5t-1 -63.5q-7 -33 -25.5 -62.5t-44.5 -51t-58.5 -34.5t-67.5 -13q-33 0 -59.5 13t-44 34.5t-24 51t0.5 62.5z" />
    <glyph glyph-name="cedilla" unicode="&#xb8;" horiz-adv-x="556" 
d="M125 -530q-14 -4 -24.5 -2.5t-12.5 12.5l-23 104q-2 11 5.5 20.5t18.5 13.5l11 3q52 13 88 25.5t59 25.5t35 26.5t15 28.5q5 22 -6.5 40.5t-31.5 35.5t-43.5 34t-42.5 37t-29.5 43.5t-4.5 53.5l9 42h168q-5 -25 7 -45.5t33 -40t46 -39.5t45 -43.5t30.5 -52.5t2.5 -66
q-8 -36 -27 -71t-58.5 -68t-105 -62.5t-164.5 -54.5z" />
    <glyph glyph-name="onesuperior" unicode="&#xb9;" horiz-adv-x="468" 
d="M342 1403q4 22 36 39l98 40q10 4 17.5 5t22.5 2h101q28 0 22 -26l-162 -766q-6 -27 -33 -27h-128q-14 0 -19 7t-3 18l129 606l-73 -30q-2 -1 -8 -2t-6 -2q-24 0 -17 28z" />
    <glyph glyph-name="ordmasculine" unicode="&#xba;" horiz-adv-x="1022" 
d="M355 1115q17 81 62 151.5t108.5 123t140 83t156.5 30.5q81 0 145.5 -30.5t105.5 -83t56.5 -123t-1.5 -151.5q-17 -80 -62.5 -150t-109 -122.5t-140.5 -82.5t-158 -30q-80 0 -143.5 30t-105 82.5t-56.5 122.5t2 150zM570 1114q-7 -35 0 -65t25 -53t45.5 -36t61.5 -13
q36 0 69.5 13t61 36t47 53t26.5 65q7 36 1 67t-23.5 54t-46 36t-64.5 13q-34 0 -67 -13t-61 -36t-48 -54t-27 -67z" />
    <glyph glyph-name="guillemotright" unicode="&#xbb;" horiz-adv-x="1382" 
d="M1500 520q-88 -73 -173.5 -144.5t-173.5 -143.5l-258 -213q-13 -11 -29 -21t-34 -10q-21 0 -31 14l-79 99q-5 8 -8 18.5t0 22.5q2 9 7.5 20.5t13.5 18.5l454 374l-294 376h1q-8 9 -8 20t1 18q2 10 8.5 19t14.5 17l118 99q20 15 42 15q10 0 21 -3t16 -8l406 -515
q12 -16 8 -36q-2 -10 -7.5 -19.5t-15.5 -17.5zM611 232l-259 -213q-12 -11 -28 -21t-34 -10q-21 0 -31 14l-79 99q-5 8 -8 18.5t0 22.5q2 8 7.5 20t13.5 19l452 374l-292 376h1q-8 9 -8 20t1 18q2 10 8.5 19t14.5 17l118 99q20 15 42 15q10 0 21 -3t16 -8l406 -515
q12 -16 8 -36q-2 -10 -7.5 -19.5t-15.5 -17.5z" />
    <glyph glyph-name="onequarter" unicode="&#xbc;" horiz-adv-x="1484" 
d="M759 127q-17 0 -22.5 10.5t-2.5 23.5q2 8 6 16.5t10 15.5l504 622q9 11 15.5 14t18.5 3h112q10 -1 16.5 -9t4.5 -18l-106 -502h71q12 0 20 -6.5t5 -20.5l-25 -120q-3 -11 -13.5 -19.5t-23.5 -8.5h-71l-21 -97q-6 -26 -36 -26h-118q-26 0 -20 26l20 96h-344zM1145 302
l46 218l-172 -218h126zM396 1403q4 22 36 39l98 40q10 4 17.5 5t22.5 2h101q28 0 22 -26l-162 -766q-6 -27 -33 -27h-128q-14 0 -19 7t-3 18l129 606l-73 -30q-2 -1 -8 -2t-6 -2q-24 0 -17 28zM1248 1435h-1q14 21 34.5 35.5t49.5 14.5h86q24 0 40 -10.5t11 -30.5
q-2 -16 -9 -20l-1044 -1374q-19 -26 -32 -38t-37 -12h-110q-27 0 -36.5 10t-3.5 33q1 2 3 5.5t2 5.5z" />
    <glyph glyph-name="onehalf" unicode="&#xbd;" horiz-adv-x="1484" 
d="M1248 1435h-1q14 21 34.5 35.5t49.5 14.5h86q24 0 40 -10.5t11 -30.5q-2 -16 -9 -20l-1044 -1374q-19 -26 -32 -38t-37 -12h-110q-27 0 -36.5 10t-3.5 33q1 2 3 5.5t2 5.5zM396 1403q4 22 36 39l98 40q10 4 17.5 5t22.5 2h101q28 0 22 -26l-162 -766q-6 -27 -33 -27h-128
q-14 0 -19 7t-3 18l129 606l-73 -30q-2 -1 -8 -2t-6 -2q-24 0 -17 28zM1043 579q-7 -9 -13 -11.5t-12 -2.5q-5 0 -11 2t-10 4l-81 42q-9 5 -11 10.5t0 12.5q2 10 8 18l-1 -1q58 85 135 134.5t167 49.5q55 0 102.5 -18.5t80 -53t47 -82.5t2.5 -108q-11 -54 -38.5 -95.5
t-70.5 -79.5q-56 -50 -122 -105.5t-147 -124.5h269q28 0 22 -28l-24 -109q-2 -13 -12 -21.5t-22 -8.5h-504q-12 0 -19.5 8.5t-5.5 21.5l18 82q1 3 3 6.5t4 8.5l423 366q20 17 29.5 31.5t13.5 32.5q5 21 1 41t-15 35t-29 24t-42 9q-35 0 -67.5 -20t-51.5 -51z" />
    <glyph glyph-name="threequarters" unicode="&#xbe;" horiz-adv-x="1532" 
d="M1389 1435h-1q14 21 34.5 35.5t49.5 14.5h86q24 0 40 -10.5t11 -30.5q-2 -16 -9 -20l-1044 -1374q-19 -26 -32 -38t-37 -12h-110q-27 0 -36.5 10t-3.5 33q1 2 3 5.5t2 5.5zM479 843q22 0 44 7t40.5 20.5t31.5 33.5t19 45q9 45 -16 76t-79 31q-12 0 -18 5.5t-3 19.5
l22 104q6 27 33 27q18 0 33 7.5t27 18t20 23t10 23.5q3 13 1 27t-8.5 24.5t-19 17.5t-30.5 7q-27 0 -47 -13t-35 -28.5t-27 -28.5t-22 -13q-9 0 -17 8l-69 43q-14 9 -11 22q1 10 12 22q22 31 50.5 58t62 47t70 31t74.5 11q44 0 81.5 -17.5t62.5 -47.5t35.5 -71t0.5 -87
q-9 -43 -34 -78.5t-57 -62.5q21 -18 39 -38t29.5 -44.5t14.5 -55.5t-5 -71q-12 -56 -44.5 -104.5t-78 -84.5t-101.5 -56.5t-114 -20.5q-56 0 -100 15.5t-75 44t-48 67t-19 85.5q-1 4 -0.5 8t1.5 8q2 8 7 15t17 11l98 27q5 2 11 3t11 1q11 0 13.5 -5t4.5 -21q27 -96 102 -96z
M865 129q-17 0 -22.5 10.5t-2.5 23.5q2 8 6 16.5t10 15.5l504 622q9 11 15.5 14t18.5 3h112q10 -1 16.5 -9t4.5 -18l-106 -502h71q12 0 20 -6.5t5 -20.5l-25 -120q-3 -11 -13.5 -19.5t-23.5 -8.5h-71l-21 -97q-6 -26 -36 -26h-118q-26 0 -20 26l20 96h-344zM1251 304l46 218
l-172 -218h126z" />
    <glyph glyph-name="questiondown" unicode="&#xbf;" horiz-adv-x="1136" 
d="M527 410l27 130q5 22 22 35.5t35 13.5h180q22 0 31 -15.5t4 -33.5l-36 -169q-14 -66 -50 -111.5t-83 -81.5t-99.5 -66.5t-99.5 -64.5t-82.5 -77t-48.5 -103q-9 -42 1 -81t34 -69t61 -48t82 -18t89.5 18.5t82 49.5t65 71.5t36.5 83.5l6 30q5 20 20.5 32t35.5 12h183
q25 0 31.5 -13.5t3.5 -27.5l-7 -33q-23 -105 -81.5 -192.5t-140.5 -150.5t-179.5 -98t-197.5 -35q-103 0 -188 35.5t-141 98.5t-78 151t0 193q20 96 61.5 160.5t91.5 109t104.5 75t101 58t80 57.5t43.5 74zM923 845q-7 -34 -26 -63.5t-45.5 -51.5t-58.5 -34.5t-65 -12.5
q-35 0 -62 12.5t-44 34.5t-23 51.5t1 63.5q7 33 25.5 62t44.5 51t58.5 34.5t67.5 12.5q33 0 59.5 -12.5t44 -34.5t24 -51t-0.5 -62z" />
    <glyph glyph-name="Agrave" unicode="&#xc0;" horiz-adv-x="1457" 
d="M901 1452q10 14 24 23.5t41 9.5h150q22 0 32 -9.5t14 -23.5l296 -1406l-1 -6q-3 -15 -15.5 -27.5t-47.5 -12.5h-212q-19 0 -27.5 6.5t-10.5 24.5l-47 243h-594l-151 -243q-16 -31 -43 -31h-262q-25 0 -33 9.5t-4 27.5q1 2 226 355t665 1060zM654 537h404l-89 527z
M893 1930q-4 14 -4.5 22.5t1.5 15.5q2 12 10.5 16.5t21.5 4.5h150q19 0 28 -10t17 -32l45 -205q4 -25 3 -38q-3 -13 -11 -19.5t-28 -6.5h-143q-34 0 -44 42z" />
    <glyph glyph-name="Aacute" unicode="&#xc1;" horiz-adv-x="1457" 
d="M901 1452q10 14 24 23.5t41 9.5h150q22 0 32 -9.5t14 -23.5l296 -1406l-1 -6q-3 -15 -15.5 -27.5t-47.5 -12.5h-212q-19 0 -27.5 6.5t-10.5 24.5l-47 243h-594l-151 -243q-16 -31 -43 -31h-262q-25 0 -33 9.5t-4 27.5q1 2 226 355t665 1060zM654 537h404l-89 527z
M1237 1721q-28 -42 -62 -42h-143q-20 0 -25 6.5t-2 19.5q2 8 6.5 16.5t12.5 21.5l131 205q17 22 30.5 32t32.5 10h150q13 0 19.5 -4.5t4.5 -16.5q-2 -7 -5.5 -15.5t-13.5 -22.5z" />
    <glyph glyph-name="Acircumflex" unicode="&#xc2;" horiz-adv-x="1457" 
d="M901 1452q10 14 24 23.5t41 9.5h150q22 0 32 -9.5t14 -23.5l296 -1406l-1 -6q-3 -15 -15.5 -27.5t-47.5 -12.5h-212q-19 0 -27.5 6.5t-10.5 24.5l-47 243h-594l-151 -243q-16 -31 -43 -31h-262q-25 0 -33 9.5t-4 27.5q1 2 226 355t665 1060zM654 537h404l-89 527z
M1159 2059q5 4 11 6.5t13 2.5q9 0 19 -10l106 -134t106 -135q3 -3 5.5 -9.5t0.5 -14.5q-2 -6 -6.5 -11t-9.5 -10l-68 -55q-11 -10 -26 -21t-28 -11q-3 0 -10 1.5t-20 18.5l-119 154l-188 -155q-8 -7 -18 -12.5t-21 -5.5t-20.5 11t-18.5 20l-43 53q-11 13 -5 30q4 10 15 17z
" />
    <glyph glyph-name="Atilde" unicode="&#xc3;" horiz-adv-x="1457" 
d="M901 1452q10 14 24 23.5t41 9.5h150q22 0 32 -9.5t14 -23.5l296 -1406l-1 -6q-3 -15 -15.5 -27.5t-47.5 -12.5h-212q-19 0 -27.5 6.5t-10.5 24.5l-47 243h-594l-151 -243q-16 -31 -43 -31h-262q-25 0 -33 9.5t-4 27.5q1 2 226 355t665 1060zM654 537h404l-89 527z
M1017 1743q-23 0 -45.5 -16.5t-43.5 -34t-39 -26.5t-32 6l-55 65q-11 13 -6 23.5t17 24.5l25 26q101 101 219 101q33 -2 67 -14.5t61 -33.5l47 -36q22 -18 48 -18q43 0 76 29q6 6 14 14.5t17 17t18 14.5t18 6q8 0 18 -8l59 -71q7 -12 5 -23q-2 -5 -7 -12t-7 -9l-35 -35
q-49 -45 -102 -68.5t-110 -23.5q-36 0 -69 12.5t-59 34.5q-11 9 -22.5 18.5t-24 17.5t-25.5 13.5t-27 5.5z" />
    <glyph glyph-name="Adieresis" unicode="&#xc4;" horiz-adv-x="1457" 
d="M901 1452q10 14 24 23.5t41 9.5h150q22 0 32 -9.5t14 -23.5l296 -1406l-1 -6q-3 -15 -15.5 -27.5t-47.5 -12.5h-212q-19 0 -27.5 6.5t-10.5 24.5l-47 243h-594l-151 -243q-16 -31 -43 -31h-262q-25 0 -33 9.5t-4 27.5q1 2 226 355t665 1060zM654 537h404l-89 527z
M812 1771q6 30 23 55.5t40 45t51 30.5t57 11q30 0 54 -11t39 -30.5t20 -45t-1 -55.5q-6 -29 -22.5 -54.5t-39.5 -45t-51.5 -30.5t-58.5 -11q-29 0 -52.5 11t-38.5 30.5t-20.5 45t0.5 54.5zM1218 1773q6 30 23 56t40 45.5t51.5 30.5t57.5 11q30 0 53.5 -11t38.5 -30.5
t20 -45.5t-1 -56q-6 -29 -22 -54.5t-39.5 -44.5t-52 -30t-58.5 -11q-29 0 -52.5 11t-38.5 30t-20.5 44.5t0.5 54.5z" />
    <glyph glyph-name="Aring" unicode="&#xc5;" horiz-adv-x="1457" 
d="M901 1452q10 14 24 23.5t41 9.5h150q22 0 32 -9.5t14 -23.5l296 -1406l-1 -6q-3 -15 -15.5 -27.5t-47.5 -12.5h-212q-19 0 -27.5 6.5t-10.5 24.5l-47 243h-594l-151 -243q-16 -31 -43 -31h-262q-25 0 -33 9.5t-4 27.5q1 2 226 355t665 1060zM654 537h404l-89 527z
M1181 2056q43 0 78 -16.5t58 -45.5t31.5 -67.5t-0.5 -81.5q-9 -44 -34 -82t-60 -66.5t-77 -44.5t-85 -16q-44 0 -78.5 16t-56.5 44.5t-30 66.5t1 82q9 43 33 81.5t58.5 67.5t76 45.5t85.5 16.5zM1155 1928q-35 0 -62.5 -24t-35.5 -59t10 -58t53 -23t63.5 23t36.5 58
q7 35 -12 59t-53 24z" />
    <glyph glyph-name="AE" unicode="&#xc6;" horiz-adv-x="2302" 
d="M378 42q-40 -42 -80 -42h-221q-20 0 -28.5 6t-5.5 22q2 9 10 19.5t13 16.5l-2 -2v1l56 58q158 156 287.5 283.5t236 233.5t192.5 192l157.5 157.5t131.5 132t113 114.5t102.5 105t101.5 104q14 14 36 28t48 14h942q26 0 37.5 -15t5.5 -43l-35 -162q-4 -19 -22 -37
t-46 -18h-707l-69 -323h566q23 0 35.5 -13t7.5 -40l-31 -147q-4 -17 -21.5 -34t-43.5 -17h-569l-77 -361h735q56 0 43 -55l-35 -165q-5 -26 -23.5 -40.5t-43.5 -14.5h-978q-53 0 -43 49q13 60 25 114.5t26 114.5h-592zM871 540h398l108 506z" />
    <glyph glyph-name="Ccedilla" unicode="&#xc7;" horiz-adv-x="1410" 
d="M1571 1377q20 -13 20 -34q0 -16 -11 -30l-132 -165q-23 -23 -42 -23q-14 0 -27 10q-52 45 -119.5 70t-148.5 25q-76 0 -148.5 -22.5t-137 -62.5t-119 -95.5t-93.5 -122.5t-61 -142.5t-22 -155.5q0 -81 26 -149.5t74 -118.5t117.5 -78t156.5 -28q81 0 159.5 25t150.5 70
q10 6 18.5 8t15.5 3q17 0 30 -22l63 -167q2 -10 2 -14q0 -17 -11 -28t-26 -20q-108 -63 -223.5 -97.5t-235.5 -34.5q-138 0 -252 45.5t-195.5 126.5t-126.5 191.5t-45 239.5q0 123 37 239.5t102.5 219.5t155.5 188.5t194.5 147.5t220.5 96.5t234 34.5q119 0 219 -33.5
t180 -96.5zM732 -530q-14 -4 -24.5 -2.5t-12.5 12.5l-23 104q-2 11 5.5 20.5t18.5 13.5l11 3q52 13 88 25.5t59 25.5t35 26.5t15 28.5q5 22 -6.5 40.5t-31.5 35.5t-43.5 34t-42.5 37t-29.5 43.5t-4.5 53.5l9 42h168q-5 -25 7 -45.5t33 -40t46 -39.5t45 -43.5t30.5 -52.5
t2.5 -66q-8 -36 -27 -71t-58.5 -68t-105 -62.5t-164.5 -54.5z" />
    <glyph glyph-name="Egrave" unicode="&#xc8;" horiz-adv-x="1284" 
d="M467 1437q10 48 54 48h964q21 0 30 -9.5t9 -25.5q0 -4 -0.5 -7.5t-1.5 -8.5l-37 -176q-4 -18 -19.5 -32t-40.5 -14h-711l-64 -304h548h5q31 0 31 -29q0 -5 -2 -15l-38 -181q-4 -18 -17 -32t-35 -14h-550l-77 -364h737q21 0 29.5 -7t8.5 -21q0 -9 -3 -21l-39 -182
q-9 -42 -52 -42h-990q-16 0 -26.5 7.5t-10.5 23.5q0 7 1 11zM912 1930q-4 14 -4.5 22.5t1.5 15.5q2 12 10.5 16.5t21.5 4.5h150q19 0 28 -10t17 -32l45 -205q4 -25 3 -38q-3 -13 -11 -19.5t-28 -6.5h-143q-34 0 -44 42z" />
    <glyph glyph-name="Eacute" unicode="&#xc9;" horiz-adv-x="1284" 
d="M467 1437q10 48 54 48h964q21 0 30 -9.5t9 -25.5q0 -4 -0.5 -7.5t-1.5 -8.5l-37 -176q-4 -18 -19.5 -32t-40.5 -14h-711l-64 -304h548h5q31 0 31 -29q0 -5 -2 -15l-38 -181q-4 -18 -17 -32t-35 -14h-550l-77 -364h737q21 0 29.5 -7t8.5 -21q0 -9 -3 -21l-39 -182
q-9 -42 -52 -42h-990q-16 0 -26.5 7.5t-10.5 23.5q0 7 1 11zM1196 1720q-28 -42 -62 -42h-143q-20 0 -25 6.5t-2 19.5q2 8 6.5 16.5t12.5 21.5l131 205q17 22 30.5 32t32.5 10h150q13 0 19.5 -4.5t4.5 -16.5q-2 -7 -5.5 -15.5t-13.5 -22.5z" />
    <glyph glyph-name="Ecircumflex" unicode="&#xca;" horiz-adv-x="1284" 
d="M467 1437q10 48 54 48h964q21 0 30 -9.5t9 -25.5q0 -4 -0.5 -7.5t-1.5 -8.5l-37 -176q-4 -18 -19.5 -32t-40.5 -14h-711l-64 -304h548h5q31 0 31 -29q0 -5 -2 -15l-38 -181q-4 -18 -17 -32t-35 -14h-550l-77 -364h737q21 0 29.5 -7t8.5 -21q0 -9 -3 -21l-39 -182
q-9 -42 -52 -42h-990q-16 0 -26.5 7.5t-10.5 23.5q0 7 1 11zM1108 2059q5 4 11 6.5t13 2.5q9 0 19 -10l106 -134t106 -135q3 -3 5.5 -9.5t0.5 -14.5q-2 -6 -6.5 -11t-9.5 -10l-68 -55q-11 -10 -26 -21t-28 -11q-3 0 -10 1.5t-20 18.5l-119 154l-188 -155q-8 -7 -18 -12.5
t-21 -5.5t-20.5 11t-18.5 20l-43 53q-11 13 -5 30q4 10 15 17z" />
    <glyph glyph-name="Edieresis" unicode="&#xcb;" horiz-adv-x="1284" 
d="M467 1437q10 48 54 48h964q21 0 30 -9.5t9 -25.5q0 -4 -0.5 -7.5t-1.5 -8.5l-37 -176q-4 -18 -19.5 -32t-40.5 -14h-711l-64 -304h548h5q31 0 31 -29q0 -5 -2 -15l-38 -181q-4 -18 -17 -32t-35 -14h-550l-77 -364h737q21 0 29.5 -7t8.5 -21q0 -9 -3 -21l-39 -182
q-9 -42 -52 -42h-990q-16 0 -26.5 7.5t-10.5 23.5q0 7 1 11zM750 1760q6 30 23 55.5t40 45t51 30.5t57 11q30 0 54 -11t39 -30.5t20 -45t-1 -55.5q-6 -29 -22.5 -54.5t-39.5 -45t-51.5 -30.5t-58.5 -11q-29 0 -52.5 11t-38.5 30.5t-20.5 45t0.5 54.5zM1156 1762q6 30 23 56
t40 45.5t51.5 30.5t57.5 11q30 0 53.5 -11t38.5 -30.5t20 -45.5t-1 -56q-6 -29 -22 -54.5t-39.5 -44.5t-52 -30t-58.5 -11q-29 0 -52.5 11t-38.5 30t-20.5 44.5t0.5 54.5z" />
    <glyph glyph-name="Igrave" unicode="&#xcc;" horiz-adv-x="618" 
d="M468 1441q4 18 17.5 31t35.5 13h202q14 0 27.5 -10t13.5 -27q0 -2 -0.5 -3.5t-0.5 -3.5l-297 -1397q-9 -44 -58 -44h-202q-37 0 -37 30q0 4 2 14zM494 1930q-4 14 -4.5 22.5t1.5 15.5q2 12 10.5 16.5t21.5 4.5h150q19 0 28 -10t17 -32l45 -205q4 -25 3 -38
q-3 -13 -11 -19.5t-28 -6.5h-143q-34 0 -44 42z" />
    <glyph glyph-name="Iacute" unicode="&#xcd;" horiz-adv-x="618" 
d="M468 1441q4 18 17.5 31t35.5 13h202q14 0 27.5 -10t13.5 -27q0 -2 -0.5 -3.5t-0.5 -3.5l-297 -1397q-9 -44 -58 -44h-202q-37 0 -37 30q0 4 2 14zM798 1720q-28 -42 -62 -42h-143q-20 0 -25 6.5t-2 19.5q2 8 6.5 16.5t12.5 21.5l131 205q17 22 30.5 32t32.5 10h150
q13 0 19.5 -4.5t4.5 -16.5q-2 -7 -5.5 -15.5t-13.5 -22.5z" />
    <glyph glyph-name="Icircumflex" unicode="&#xce;" horiz-adv-x="618" 
d="M468 1441q4 18 17.5 31t35.5 13h202q14 0 27.5 -10t13.5 -27q0 -2 -0.5 -3.5t-0.5 -3.5l-297 -1397q-9 -44 -58 -44h-202q-37 0 -37 30q0 4 2 14zM726 2059q5 4 11 6.5t13 2.5q9 0 19 -10l106 -134t106 -135q3 -3 5.5 -9.5t0.5 -14.5q-2 -6 -6.5 -11t-9.5 -10l-68 -55
q-11 -10 -26 -21t-28 -11q-3 0 -10 1.5t-20 18.5l-119 154l-188 -155q-8 -7 -18 -12.5t-21 -5.5t-20.5 11t-18.5 20l-43 53q-11 13 -5 30q4 10 15 17z" />
    <glyph glyph-name="Idieresis" unicode="&#xcf;" horiz-adv-x="618" 
d="M468 1441q4 18 17.5 31t35.5 13h202q14 0 27.5 -10t13.5 -27q0 -2 -0.5 -3.5t-0.5 -3.5l-297 -1397q-9 -44 -58 -44h-202q-37 0 -37 30q0 4 2 14zM342 1770q6 30 23 55.5t40 45t51 30.5t57 11q30 0 54 -11t39 -30.5t20 -45t-1 -55.5q-6 -29 -22.5 -54.5t-39.5 -45
t-51.5 -30.5t-58.5 -11q-29 0 -52.5 11t-38.5 30.5t-20.5 45t0.5 54.5zM748 1772q6 30 23 56t40 45.5t51.5 30.5t57.5 11q30 0 53.5 -11t38.5 -30.5t20 -45.5t-1 -56q-6 -29 -22 -54.5t-39.5 -44.5t-52 -30t-58.5 -11q-29 0 -52.5 11t-38.5 30t-20.5 44.5t0.5 54.5z" />
    <glyph glyph-name="Eth" unicode="&#xd0;" horiz-adv-x="1550" 
d="M454 1428q6 27 23 42t45 15h473q159 0 285 -57.5t206.5 -158t110 -236t-3.5 -292.5q-22 -104 -69.5 -199.5t-114 -178t-149.5 -149.5t-177 -114.5t-196 -73.5t-207 -26h-473q-11 0 -21 2t-16.5 8t-8.5 16t1 26l119 561h-89q-45 0 -34 47l31 148q5 19 18 30t35 11h89z
M602 290q72 0 149 3q95 3 184 39.5t161.5 97.5t123 142.5t70.5 174.5q20 94 3.5 173.5t-62 137.5t-115.5 92.5t-157 40.5q-44 3 -89 3h-161l-192 -904h85z" />
    <glyph glyph-name="Ntilde" unicode="&#xd1;" horiz-adv-x="1583" 
d="M468 1441q4 18 17.5 31t35.5 13h235q15 0 31 -8t21 -23l460 -967l197 967q11 18 25 24.5t25 6.5h202q15 0 29.5 -12t10.5 -32l-297 -1397q-9 -44 -58 -44h-213q-11 0 -18.5 9.5t-16.5 23.5l-483 1040l-210 -1029q-6 -44 -53 -44h-202q-44 0 -35 44zM1066 1743
q-23 0 -45.5 -16.5t-43.5 -34t-39 -26.5t-32 6l-55 65q-11 13 -6 23.5t17 24.5l25 26q101 101 219 101q33 -2 67 -14.5t61 -33.5l47 -36q22 -18 48 -18q43 0 76 29q6 6 14 14.5t17 17t18 14.5t18 6q8 0 18 -8l59 -71q7 -12 5 -23q-2 -5 -7 -12t-7 -9l-35 -35
q-49 -45 -102 -68.5t-110 -23.5q-36 0 -69 12.5t-59 34.5q-11 9 -22.5 18.5t-24 17.5t-25.5 13.5t-27 5.5z" />
    <glyph glyph-name="Ograve" unicode="&#xd2;" horiz-adv-x="1706" 
d="M542 741q-12 -59 -12 -112q0 -81 26 -149.5t74 -118.5t117.5 -78t156.5 -28q76 0 148.5 22t137 62t119 95.5t93.5 122t61 142t22 155.5q0 81 -26 150t-74.5 119t-117.5 78.5t-156 28.5q-102 0 -195.5 -38.5t-169 -104.5t-129 -155t-75.5 -191zM245 741q22 106 70.5 203.5
t116 183t152 155.5t180 119.5t199 77t209.5 27.5q138 0 251.5 -46t195.5 -127t127 -192t45 -241q0 -123 -37 -239t-103 -219t-155.5 -188t-194.5 -147t-220.5 -96t-233.5 -34q-138 0 -252 45.5t-195.5 126.5t-126.5 191.5t-45 239.5q0 38 4 78t13 82zM1035 1930
q-4 14 -4.5 22.5t1.5 15.5q2 12 10.5 16.5t21.5 4.5h150q19 0 28 -10t17 -32l45 -205q4 -25 3 -38q-3 -13 -11 -19.5t-28 -6.5h-143q-34 0 -44 42z" />
    <glyph glyph-name="Oacute" unicode="&#xd3;" horiz-adv-x="1706" 
d="M542 741q-12 -59 -12 -112q0 -81 26 -149.5t74 -118.5t117.5 -78t156.5 -28q76 0 148.5 22t137 62t119 95.5t93.5 122t61 142t22 155.5q0 81 -26 150t-74.5 119t-117.5 78.5t-156 28.5q-102 0 -195.5 -38.5t-169 -104.5t-129 -155t-75.5 -191zM245 741q22 106 70.5 203.5
t116 183t152 155.5t180 119.5t199 77t209.5 27.5q138 0 251.5 -46t195.5 -127t127 -192t45 -241q0 -123 -37 -239t-103 -219t-155.5 -188t-194.5 -147t-220.5 -96t-233.5 -34q-138 0 -252 45.5t-195.5 126.5t-126.5 191.5t-45 239.5q0 38 4 78t13 82zM1330 1720
q-28 -42 -62 -42h-143q-20 0 -25 6.5t-2 19.5q2 8 6.5 16.5t12.5 21.5l131 205q17 22 30.5 32t32.5 10h150q13 0 19.5 -4.5t4.5 -16.5q-2 -7 -5.5 -15.5t-13.5 -22.5z" />
    <glyph glyph-name="Ocircumflex" unicode="&#xd4;" horiz-adv-x="1706" 
d="M542 741q-12 -59 -12 -112q0 -81 26 -149.5t74 -118.5t117.5 -78t156.5 -28q76 0 148.5 22t137 62t119 95.5t93.5 122t61 142t22 155.5q0 81 -26 150t-74.5 119t-117.5 78.5t-156 28.5q-102 0 -195.5 -38.5t-169 -104.5t-129 -155t-75.5 -191zM245 741q22 106 70.5 203.5
t116 183t152 155.5t180 119.5t199 77t209.5 27.5q138 0 251.5 -46t195.5 -127t127 -192t45 -241q0 -123 -37 -239t-103 -219t-155.5 -188t-194.5 -147t-220.5 -96t-233.5 -34q-138 0 -252 45.5t-195.5 126.5t-126.5 191.5t-45 239.5q0 38 4 78t13 82zM1269 2059q5 4 11 6.5
t13 2.5q9 0 19 -10l106 -134t106 -135q3 -3 5.5 -9.5t0.5 -14.5q-2 -6 -6.5 -11t-9.5 -10l-68 -55q-11 -10 -26 -21t-28 -11q-3 0 -10 1.5t-20 18.5l-119 154l-188 -155q-8 -7 -18 -12.5t-21 -5.5t-20.5 11t-18.5 20l-43 53q-11 13 -5 30q4 10 15 17z" />
    <glyph glyph-name="Otilde" unicode="&#xd5;" horiz-adv-x="1706" 
d="M542 741q-12 -59 -12 -112q0 -81 26 -149.5t74 -118.5t117.5 -78t156.5 -28q76 0 148.5 22t137 62t119 95.5t93.5 122t61 142t22 155.5q0 81 -26 150t-74.5 119t-117.5 78.5t-156 28.5q-102 0 -195.5 -38.5t-169 -104.5t-129 -155t-75.5 -191zM245 741q22 106 70.5 203.5
t116 183t152 155.5t180 119.5t199 77t209.5 27.5q138 0 251.5 -46t195.5 -127t127 -192t45 -241q0 -123 -37 -239t-103 -219t-155.5 -188t-194.5 -147t-220.5 -96t-233.5 -34q-138 0 -252 45.5t-195.5 126.5t-126.5 191.5t-45 239.5q0 38 4 78t13 82zM1126 1743
q-23 0 -45.5 -16.5t-43.5 -34t-39 -26.5t-32 6l-55 65q-11 13 -6 23.5t17 24.5l25 26q101 101 219 101q33 -2 67 -14.5t61 -33.5l47 -36q22 -18 48 -18q43 0 76 29q6 6 14 14.5t17 17t18 14.5t18 6q8 0 18 -8l59 -71q7 -12 5 -23q-2 -5 -7 -12t-7 -9l-35 -35
q-49 -45 -102 -68.5t-110 -23.5q-36 0 -69 12.5t-59 34.5q-11 9 -22.5 18.5t-24 17.5t-25.5 13.5t-27 5.5z" />
    <glyph glyph-name="Odieresis" unicode="&#xd6;" horiz-adv-x="1706" 
d="M542 741q-12 -59 -12 -112q0 -81 26 -149.5t74 -118.5t117.5 -78t156.5 -28q76 0 148.5 22t137 62t119 95.5t93.5 122t61 142t22 155.5q0 81 -26 150t-74.5 119t-117.5 78.5t-156 28.5q-102 0 -195.5 -38.5t-169 -104.5t-129 -155t-75.5 -191zM245 741q22 106 70.5 203.5
t116 183t152 155.5t180 119.5t199 77t209.5 27.5q138 0 251.5 -46t195.5 -127t127 -192t45 -241q0 -123 -37 -239t-103 -219t-155.5 -188t-194.5 -147t-220.5 -96t-233.5 -34q-138 0 -252 45.5t-195.5 126.5t-126.5 191.5t-45 239.5q0 38 4 78t13 82zM856 1751q6 30 23 55.5
t40 45t51 30.5t57 11q30 0 54 -11t39 -30.5t20 -45t-1 -55.5q-6 -29 -22.5 -54.5t-39.5 -45t-51.5 -30.5t-58.5 -11q-29 0 -52.5 11t-38.5 30.5t-20.5 45t0.5 54.5zM1262 1753q6 30 23 56t40 45.5t51.5 30.5t57.5 11q30 0 53.5 -11t38.5 -30.5t20 -45.5t-1 -56
q-6 -29 -22 -54.5t-39.5 -44.5t-52 -30t-58.5 -11q-29 0 -52.5 11t-38.5 30t-20.5 44.5t0.5 54.5z" />
    <glyph glyph-name="multiply" unicode="&#xd7;" horiz-adv-x="932" 
d="M807 626l113 -144q13 -16 8 -39t-26 -40l-127 -105q-20 -17 -48 -17q-19 0 -31 14l-115 145q-44 -35 -85.5 -69.5t-84.5 -70.5q-8 -8 -19.5 -13t-21.5 -5q-21 0 -37 19l-77 98q-14 19 -10 41q4 21 25 39l170 139l-113 143q-14 18 -8 39q2 10 9.5 20t18.5 18l128 108
q11 9 22.5 14t20.5 5q20 0 34 -18v1l112 -143l170 140q10 8 20.5 11.5t21.5 3.5q24 0 37 -16l78 -101q12 -16 7 -39t-23 -38z" />
    <glyph glyph-name="Oslash" unicode="&#xd8;" horiz-adv-x="1706" 
d="M1172 1506q45 0 87 -5.5t82 -16.5l95 145q14 23 32 34.5t44 11.5h197q22 0 34.5 -7t8.5 -22q-2 -11 -9 -21l-22 -33q-14 -21 -33 -50t-39.5 -60t-40 -61t-34.5 -53q64 -51 111 -118.5t73.5 -148t31 -172t-16.5 -189.5q-23 -106 -71 -203t-115.5 -182t-152 -154.5
t-180 -119t-199 -76.5t-209.5 -27q-43 0 -82.5 5t-77.5 14q-25 -35 -49 -70.5t-48 -70.5q-15 -23 -28.5 -32.5t-34.5 -9.5h-216q-40 0 -35 26q1 4 10 20q41 63 82.5 124t82.5 124q-66 51 -114 119t-75.5 149t-32 173.5t16.5 191.5q23 105 71 203t115.5 183t152 155
t180 119.5t199 77t209.5 27.5zM525 742q-22 -103 -4 -193t69 -156.5t131 -105t183 -38.5q102 0 199 38.5t176.5 105t135.5 156.5t78 193q22 102 4 191.5t-69 156.5t-131.5 105.5t-182.5 38.5q-103 0 -199.5 -38.5t-176 -105.5t-135.5 -156.5t-78 -191.5z" />
    <glyph glyph-name="Ugrave" unicode="&#xd9;" horiz-adv-x="1504" 
d="M559 587q-15 -70 -4.5 -132t42.5 -108.5t84.5 -73.5t122.5 -27t134 27t115.5 73.5t87.5 108.5t51 132l182 854q4 18 20 31t36 13h198q18 0 31.5 -12t9.5 -32l-182 -854q-27 -126 -98.5 -237t-172.5 -194.5t-222.5 -131.5t-247.5 -48t-227.5 48t-166.5 131.5t-90 194.5
t2 237l182 854q3 15 18 29.5t33 14.5h207q14 0 27.5 -13t9.5 -31zM943 1930q-4 14 -4.5 22.5t1.5 15.5q2 12 10.5 16.5t21.5 4.5h150q19 0 28 -10t17 -32l45 -205q4 -25 3 -38q-3 -13 -11 -19.5t-28 -6.5h-143q-34 0 -44 42z" />
    <glyph glyph-name="Uacute" unicode="&#xda;" horiz-adv-x="1504" 
d="M559 587q-15 -70 -4.5 -132t42.5 -108.5t84.5 -73.5t122.5 -27t134 27t115.5 73.5t87.5 108.5t51 132l182 854q4 18 20 31t36 13h198q18 0 31.5 -12t9.5 -32l-182 -854q-27 -126 -98.5 -237t-172.5 -194.5t-222.5 -131.5t-247.5 -48t-227.5 48t-166.5 131.5t-90 194.5
t2 237l182 854q3 15 18 29.5t33 14.5h207q14 0 27.5 -13t9.5 -31zM1255 1720q-28 -42 -62 -42h-143q-20 0 -25 6.5t-2 19.5q2 8 6.5 16.5t12.5 21.5l131 205q17 22 30.5 32t32.5 10h150q13 0 19.5 -4.5t4.5 -16.5q-2 -7 -5.5 -15.5t-13.5 -22.5z" />
    <glyph glyph-name="Ucircumflex" unicode="&#xdb;" horiz-adv-x="1504" 
d="M559 587q-15 -70 -4.5 -132t42.5 -108.5t84.5 -73.5t122.5 -27t134 27t115.5 73.5t87.5 108.5t51 132l182 854q4 18 20 31t36 13h198q18 0 31.5 -12t9.5 -32l-182 -854q-27 -126 -98.5 -237t-172.5 -194.5t-222.5 -131.5t-247.5 -48t-227.5 48t-166.5 131.5t-90 194.5
t2 237l182 854q3 15 18 29.5t33 14.5h207q14 0 27.5 -13t9.5 -31zM1167 2059q5 4 11 6.5t13 2.5q9 0 19 -10l106 -134t106 -135q3 -3 5.5 -9.5t0.5 -14.5q-2 -6 -6.5 -11t-9.5 -10l-68 -55q-11 -10 -26 -21t-28 -11q-3 0 -10 1.5t-20 18.5l-119 154l-188 -155
q-8 -7 -18 -12.5t-21 -5.5t-20.5 11t-18.5 20l-43 53q-11 13 -5 30q4 10 15 17z" />
    <glyph glyph-name="Udieresis" unicode="&#xdc;" horiz-adv-x="1504" 
d="M559 587q-15 -70 -4.5 -132t42.5 -108.5t84.5 -73.5t122.5 -27t134 27t115.5 73.5t87.5 108.5t51 132l182 854q4 18 20 31t36 13h198q18 0 31.5 -12t9.5 -32l-182 -854q-27 -126 -98.5 -237t-172.5 -194.5t-222.5 -131.5t-247.5 -48t-227.5 48t-166.5 131.5t-90 194.5
t2 237l182 854q3 15 18 29.5t33 14.5h207q14 0 27.5 -13t9.5 -31zM813 1751q6 30 23 55.5t40 45t51 30.5t57 11q30 0 54 -11t39 -30.5t20 -45t-1 -55.5q-6 -29 -22.5 -54.5t-39.5 -45t-51.5 -30.5t-58.5 -11q-29 0 -52.5 11t-38.5 30.5t-20.5 45t0.5 54.5zM1219 1753
q6 30 23 56t40 45.5t51.5 30.5t57.5 11q30 0 53.5 -11t38.5 -30.5t20 -45.5t-1 -56q-6 -29 -22 -54.5t-39.5 -44.5t-52 -30t-58.5 -11q-29 0 -52.5 11t-38.5 30t-20.5 44.5t0.5 54.5z" />
    <glyph glyph-name="Yacute" unicode="&#xdd;" horiz-adv-x="1368" 
d="M393 1423q-2 3 -5 15t-3 17q0 13 12 21.5t26 8.5h256q9 -2 14 -3t9 -5t8.5 -12t10.5 -23l160 -542l434 546q10 13 17 20t12.5 11t10.5 5.5t13 2.5h261q23 0 23 -19q0 -16 -19 -40l-642 -796l-121 -573q-12 -57 -68 -57h-191q-40 0 -40 38v9.5t2 9.5l121 571zM1192 1720
q-28 -42 -62 -42h-143q-20 0 -25 6.5t-2 19.5q2 8 6.5 16.5t12.5 21.5l131 205q17 22 30.5 32t32.5 10h150q13 0 19.5 -4.5t4.5 -16.5q-2 -7 -5.5 -15.5t-13.5 -22.5z" />
    <glyph glyph-name="Thorn" unicode="&#xde;" horiz-adv-x="1280" 
d="M708 1222h320q101 0 178 -39.5t125 -106t64.5 -153t-3.5 -180.5q-18 -84 -65 -163.5t-114.5 -143.5t-151 -107t-173.5 -54q-51 -6 -107 -6h-274l-46 -215q-11 -54 -67 -54h-187q-54 0 -43 54l293 1377q5 23 22 38.5t44 15.5h186q22 0 35.5 -15t8.5 -39zM1094 745
q9 41 1.5 80t-28.5 69t-55.5 48.5t-80.5 18.5h-277l-92 -434h277q45 0 87.5 18.5t76.5 48.5t58 69.5t33 81.5z" />
    <glyph glyph-name="germandbls" unicode="&#xdf;" horiz-adv-x="1152" 
d="M316 736q19 88 38 175.5t38 176.5q22 105 75.5 179.5t125 122t154.5 70t163 23.5q82 0 150 -29t112 -82t61 -127t-2 -165q-17 -81 -60 -139t-110 -106q96 -63 130.5 -162.5t6.5 -231.5q-23 -108 -74.5 -193t-128 -144.5t-177 -91t-221.5 -31.5q-22 0 -30 13.5t-6 33.5
l35 163q5 23 21 39t41 16h15q46 0 88 15t75.5 43.5t57 68.5t34.5 90q12 54 2.5 94.5t-35.5 67.5t-66.5 40.5t-91.5 13.5q-22 0 -33 10.5t-6 36.5l33 158q5 23 21 36t38 13q32 0 60.5 11t51 30t38.5 45.5t22 57.5q4 18 3 45t-12.5 52t-35.5 43t-66 18q-39 0 -69.5 -12.5
t-53 -32.5t-36.5 -46.5t-20 -53.5l-299 -1408q-5 -24 -22.5 -37.5t-46.5 -13.5h-172q-26 0 -35.5 13.5t-4.5 37.5z" />
    <glyph glyph-name="agrave" unicode="&#xe0;" horiz-adv-x="1188" 
d="M851 55q2 19 3 37.5t2 37.5q-24 -27 -51.5 -53.5t-62 -48t-78 -34.5t-98.5 -13h-5q-107 0 -187.5 39t-130 107t-65.5 161t7 200q23 109 78 202t133.5 161t175.5 107t205 39q56 0 97 -14t69.5 -37.5t47 -53.5t29.5 -62l39 97q7 16 13 27t13 17t16.5 8.5t23.5 2.5h108
q23 0 37 -14.5t9 -39.5l-187 -878q-5 -24 -24.5 -37t-42.5 -13h-129q-30 0 -37.5 15t-7.5 40zM446 486q-12 -55 -5 -103t31 -83.5t64 -56t94 -20.5q55 0 104 20t88 55t66.5 83t39.5 104q11 54 4.5 102.5t-30 85t-63.5 58t-97 21.5q-55 0 -104 -21t-87.5 -57.5t-65.5 -85
t-39 -102.5zM679 1426q-4 14 -4.5 22.5t1.5 15.5q2 12 10.5 16.5t21.5 4.5h150q19 0 28 -10t17 -32l45 -205q4 -25 3 -38q-3 -13 -11 -19.5t-28 -6.5h-143q-34 0 -44 42z" />
    <glyph glyph-name="aacute" unicode="&#xe1;" horiz-adv-x="1188" 
d="M851 55q2 19 3 37.5t2 37.5q-24 -27 -51.5 -53.5t-62 -48t-78 -34.5t-98.5 -13h-5q-107 0 -187.5 39t-130 107t-65.5 161t7 200q23 109 78 202t133.5 161t175.5 107t205 39q56 0 97 -14t69.5 -37.5t47 -53.5t29.5 -62l39 97q7 16 13 27t13 17t16.5 8.5t23.5 2.5h108
q23 0 37 -14.5t9 -39.5l-187 -878q-5 -24 -24.5 -37t-42.5 -13h-129q-30 0 -37.5 15t-7.5 40zM446 486q-12 -55 -5 -103t31 -83.5t64 -56t94 -20.5q55 0 104 20t88 55t66.5 83t39.5 104q11 54 4.5 102.5t-30 85t-63.5 58t-97 21.5q-55 0 -104 -21t-87.5 -57.5t-65.5 -85
t-39 -102.5zM954 1216q-28 -42 -62 -42h-143q-20 0 -25 6.5t-2 19.5q2 8 6.5 16.5t12.5 21.5l131 205q17 22 30.5 32t32.5 10h150q13 0 19.5 -4.5t4.5 -16.5q-2 -7 -5.5 -15.5t-13.5 -22.5z" />
    <glyph glyph-name="acircumflex" unicode="&#xe2;" horiz-adv-x="1188" 
d="M851 55q2 19 3 37.5t2 37.5q-24 -27 -51.5 -53.5t-62 -48t-78 -34.5t-98.5 -13h-5q-107 0 -187.5 39t-130 107t-65.5 161t7 200q23 109 78 202t133.5 161t175.5 107t205 39q56 0 97 -14t69.5 -37.5t47 -53.5t29.5 -62l39 97q7 16 13 27t13 17t16.5 8.5t23.5 2.5h108
q23 0 37 -14.5t9 -39.5l-187 -878q-5 -24 -24.5 -37t-42.5 -13h-129q-30 0 -37.5 15t-7.5 40zM446 486q-12 -55 -5 -103t31 -83.5t64 -56t94 -20.5q55 0 104 20t88 55t66.5 83t39.5 104q11 54 4.5 102.5t-30 85t-63.5 58t-97 21.5q-55 0 -104 -21t-87.5 -57.5t-65.5 -85
t-39 -102.5zM872 1555q5 4 11 6.5t13 2.5q9 0 19 -10l106 -134t106 -135q3 -3 5.5 -9.5t0.5 -14.5q-2 -6 -6.5 -11t-9.5 -10l-68 -55q-11 -10 -26 -21t-28 -11q-3 0 -10 1.5t-20 18.5l-119 154l-188 -155q-8 -7 -18 -12.5t-21 -5.5t-20.5 11t-18.5 20l-43 53q-11 13 -5 30
q4 10 15 17z" />
    <glyph glyph-name="atilde" unicode="&#xe3;" horiz-adv-x="1188" 
d="M851 55q2 19 3 37.5t2 37.5q-24 -27 -51.5 -53.5t-62 -48t-78 -34.5t-98.5 -13h-5q-107 0 -187.5 39t-130 107t-65.5 161t7 200q23 109 78 202t133.5 161t175.5 107t205 39q56 0 97 -14t69.5 -37.5t47 -53.5t29.5 -62l39 97q7 16 13 27t13 17t16.5 8.5t23.5 2.5h108
q23 0 37 -14.5t9 -39.5l-187 -878q-5 -24 -24.5 -37t-42.5 -13h-129q-30 0 -37.5 15t-7.5 40zM446 486q-12 -55 -5 -103t31 -83.5t64 -56t94 -20.5q55 0 104 20t88 55t66.5 83t39.5 104q11 54 4.5 102.5t-30 85t-63.5 58t-97 21.5q-55 0 -104 -21t-87.5 -57.5t-65.5 -85
t-39 -102.5zM724 1216q-23 0 -45.5 -16.5t-43.5 -34t-39 -26.5t-32 6l-55 65q-11 13 -6 23.5t17 24.5l25 26q101 101 219 101q33 -2 67 -14.5t61 -33.5l47 -36q22 -18 48 -18q43 0 76 29q6 6 14 14.5t17 17t18 14.5t18 6q8 0 18 -8l59 -71q7 -12 5 -23q-2 -5 -7 -12t-7 -9
l-35 -35q-49 -45 -102 -68.5t-110 -23.5q-36 0 -69 12.5t-59 34.5q-11 9 -22.5 18.5t-24 17.5t-25.5 13.5t-27 5.5z" />
    <glyph glyph-name="adieresis" unicode="&#xe4;" horiz-adv-x="1188" 
d="M851 55q2 19 3 37.5t2 37.5q-24 -27 -51.5 -53.5t-62 -48t-78 -34.5t-98.5 -13h-5q-107 0 -187.5 39t-130 107t-65.5 161t7 200q23 109 78 202t133.5 161t175.5 107t205 39q56 0 97 -14t69.5 -37.5t47 -53.5t29.5 -62l39 97q7 16 13 27t13 17t16.5 8.5t23.5 2.5h108
q23 0 37 -14.5t9 -39.5l-187 -878q-5 -24 -24.5 -37t-42.5 -13h-129q-30 0 -37.5 15t-7.5 40zM446 486q-12 -55 -5 -103t31 -83.5t64 -56t94 -20.5q55 0 104 20t88 55t66.5 83t39.5 104q11 54 4.5 102.5t-30 85t-63.5 58t-97 21.5q-55 0 -104 -21t-87.5 -57.5t-65.5 -85
t-39 -102.5zM514 1267q6 30 23 55.5t40 45t51 30.5t57 11q30 0 54 -11t39 -30.5t20 -45t-1 -55.5q-6 -29 -22.5 -54.5t-39.5 -45t-51.5 -30.5t-58.5 -11q-29 0 -52.5 11t-38.5 30.5t-20.5 45t0.5 54.5zM920 1269q6 30 23 56t40 45.5t51.5 30.5t57.5 11q30 0 53.5 -11
t38.5 -30.5t20 -45.5t-1 -56q-6 -29 -22 -54.5t-39.5 -44.5t-52 -30t-58.5 -11q-29 0 -52.5 11t-38.5 30t-20.5 44.5t0.5 54.5z" />
    <glyph glyph-name="aring" unicode="&#xe5;" horiz-adv-x="1188" 
d="M851 55q2 19 3 37.5t2 37.5q-24 -27 -51.5 -53.5t-62 -48t-78 -34.5t-98.5 -13h-5q-107 0 -187.5 39t-130 107t-65.5 161t7 200q23 109 78 202t133.5 161t175.5 107t205 39q56 0 97 -14t69.5 -37.5t47 -53.5t29.5 -62l39 97q7 16 13 27t13 17t16.5 8.5t23.5 2.5h108
q23 0 37 -14.5t9 -39.5l-187 -878q-5 -24 -24.5 -37t-42.5 -13h-129q-30 0 -37.5 15t-7.5 40zM446 486q-12 -55 -5 -103t31 -83.5t64 -56t94 -20.5q55 0 104 20t88 55t66.5 83t39.5 104q11 54 4.5 102.5t-30 85t-63.5 58t-97 21.5q-55 0 -104 -21t-87.5 -57.5t-65.5 -85
t-39 -102.5zM908 1614q43 0 78 -16.5t58 -45.5t31.5 -67.5t-0.5 -81.5q-9 -44 -34 -82t-60 -66.5t-77 -44.5t-85 -16q-44 0 -78.5 16t-56.5 44.5t-30 66.5t1 82q9 43 33 81.5t58.5 67.5t76 45.5t85.5 16.5zM882 1486q-35 0 -62.5 -24t-35.5 -59t10 -58t53 -23t63.5 23
t36.5 58q7 35 -12 59t-53 24z" />
    <glyph glyph-name="ae" unicode="&#xe6;" horiz-adv-x="1830" 
d="M822 55q2 19 3 37.5t2 37.5q-24 -27 -51.5 -53.5t-62 -48t-78 -34.5t-98.5 -13h-5q-107 0 -187.5 39t-130 107t-65.5 161t7 200q23 109 78 202t133.5 161t175.5 107t205 39q56 0 97 -14t69.5 -37.5t47 -53.5t29.5 -62l39 97q7 16 13 27t13 17t16.5 8.5t23.5 2.5h108
q23 0 37 -14.5t9 -39.5l-187 -878q-5 -24 -24.5 -37t-42.5 -13h-129q-30 0 -37.5 15t-7.5 40zM417 486q-12 -55 -5 -103t31 -83.5t64 -56t94 -20.5q55 0 104 20t88 55t66.5 83t39.5 104q11 54 4.5 102.5t-30 85t-63.5 58t-97 21.5q-55 0 -104 -21t-87.5 -57.5t-65.5 -85
t-39 -102.5zM1377 214q43 -1 88.5 12.5t89.5 35.5q18 8 34 18.5t27 10.5q16 0 28 -18l53 -125q6 -14 4 -26q-3 -15 -15.5 -26.5t-26.5 -21.5q-73 -49 -157.5 -73.5t-169.5 -24.5q-105 0 -189 40t-139 109.5t-76 163t2 200.5q15 69 46.5 134t76 122t99 104t114.5 81t123 53
t125 19q110 0 192 -39.5t132.5 -106.5t68 -154t-0.5 -181q-7 -36 -23 -58t-39 -34t-51.5 -16.5t-59.5 -4.5h-542q-5 -43 10 -79t41.5 -61.5t62 -39.5t72.5 -14zM1659 580q8 42 -2 76.5t-34 58.5t-60 37t-81 13q-37 0 -76.5 -14.5t-74 -39.5t-62 -58.5t-40.5 -72.5h430z" />
    <glyph glyph-name="ccedilla" unicode="&#xe7;" horiz-adv-x="1022" 
d="M637 230q30 1 56 5t51 11.5t49 17t51 21.5q18 10 33 10q14 -1 20.5 -13t13.5 -27l48 -107q2 -5 3 -11.5t0 -9.5q-4 -18 -17.5 -28.5t-25.5 -17.5q-76 -44 -159.5 -73t-170.5 -29q-105 0 -190 39.5t-140 108.5t-76 161.5t2 199.5q23 106 83.5 200t144.5 163.5t186 110
t207 40.5q81 0 149.5 -26t127.5 -71q14 -11 21.5 -22t3.5 -28q-1 -5 -4.5 -12t-7.5 -11l-105 -133q-8 -9 -17 -14.5t-19 -5.5q-11 0 -29 13q-30 28 -75.5 46.5t-94.5 18.5q-55 0 -107.5 -21.5t-95 -58.5t-73 -86t-42.5 -104q-12 -57 -3 -104.5t36 -81.5t69.5 -52.5
t96.5 -18.5zM455 -530q-14 -4 -24.5 -2.5t-12.5 12.5l-23 104q-2 11 5.5 20.5t18.5 13.5l11 3q52 13 88 25.5t59 25.5t35 26.5t15 28.5q5 22 -6.5 40.5t-31.5 35.5t-43.5 34t-42.5 37t-29.5 43.5t-4.5 53.5l9 42h168q-5 -25 7 -45.5t33 -40t46 -39.5t45 -43.5t30.5 -52.5
t2.5 -66q-8 -36 -27 -71t-58.5 -68t-105 -62.5t-164.5 -54.5z" />
    <glyph glyph-name="egrave" unicode="&#xe8;" horiz-adv-x="1064" 
d="M634 214q43 -1 88.5 12.5t89.5 35.5q18 8 34 18.5t27 10.5q16 0 28 -18l53 -125q6 -14 4 -26q-3 -15 -15.5 -26.5t-26.5 -21.5q-73 -49 -157.5 -73.5t-169.5 -24.5q-105 0 -189 40t-139 109.5t-76 163t2 200.5q15 69 46.5 134t76 122t99 104t114.5 81t123 53t125 19
q110 0 192 -39.5t132.5 -106.5t68 -154t-0.5 -181q-7 -36 -23 -58t-39 -34t-51.5 -16.5t-59.5 -4.5h-542q-5 -43 10 -79t41.5 -61.5t62 -39.5t72.5 -14zM916 580q8 42 -2 76.5t-34 58.5t-60 37t-81 13q-37 0 -76.5 -14.5t-74 -39.5t-62 -58.5t-40.5 -72.5h430zM659 1426
q-4 14 -4.5 22.5t1.5 15.5q2 12 10.5 16.5t21.5 4.5h150q19 0 28 -10t17 -32l45 -205q4 -25 3 -38q-3 -13 -11 -19.5t-28 -6.5h-143q-34 0 -44 42z" />
    <glyph glyph-name="eacute" unicode="&#xe9;" horiz-adv-x="1064" 
d="M634 214q43 -1 88.5 12.5t89.5 35.5q18 8 34 18.5t27 10.5q16 0 28 -18l53 -125q6 -14 4 -26q-3 -15 -15.5 -26.5t-26.5 -21.5q-73 -49 -157.5 -73.5t-169.5 -24.5q-105 0 -189 40t-139 109.5t-76 163t2 200.5q15 69 46.5 134t76 122t99 104t114.5 81t123 53t125 19
q110 0 192 -39.5t132.5 -106.5t68 -154t-0.5 -181q-7 -36 -23 -58t-39 -34t-51.5 -16.5t-59.5 -4.5h-542q-5 -43 10 -79t41.5 -61.5t62 -39.5t72.5 -14zM916 580q8 42 -2 76.5t-34 58.5t-60 37t-81 13q-37 0 -76.5 -14.5t-74 -39.5t-62 -58.5t-40.5 -72.5h430zM984 1216
q-28 -42 -62 -42h-143q-20 0 -25 6.5t-2 19.5q2 8 6.5 16.5t12.5 21.5l131 205q17 22 30.5 32t32.5 10h150q13 0 19.5 -4.5t4.5 -16.5q-2 -7 -5.5 -15.5t-13.5 -22.5z" />
    <glyph glyph-name="ecircumflex" unicode="&#xea;" horiz-adv-x="1064" 
d="M634 214q43 -1 88.5 12.5t89.5 35.5q18 8 34 18.5t27 10.5q16 0 28 -18l53 -125q6 -14 4 -26q-3 -15 -15.5 -26.5t-26.5 -21.5q-73 -49 -157.5 -73.5t-169.5 -24.5q-105 0 -189 40t-139 109.5t-76 163t2 200.5q15 69 46.5 134t76 122t99 104t114.5 81t123 53t125 19
q110 0 192 -39.5t132.5 -106.5t68 -154t-0.5 -181q-7 -36 -23 -58t-39 -34t-51.5 -16.5t-59.5 -4.5h-542q-5 -43 10 -79t41.5 -61.5t62 -39.5t72.5 -14zM916 580q8 42 -2 76.5t-34 58.5t-60 37t-81 13q-37 0 -76.5 -14.5t-74 -39.5t-62 -58.5t-40.5 -72.5h430zM884 1555
q5 4 11 6.5t13 2.5q9 0 19 -10l106 -134t106 -135q3 -3 5.5 -9.5t0.5 -14.5q-2 -6 -6.5 -11t-9.5 -10l-68 -55q-11 -10 -26 -21t-28 -11q-3 0 -10 1.5t-20 18.5l-119 154l-188 -155q-8 -7 -18 -12.5t-21 -5.5t-20.5 11t-18.5 20l-43 53q-11 13 -5 30q4 10 15 17z" />
    <glyph glyph-name="edieresis" unicode="&#xeb;" horiz-adv-x="1064" 
d="M634 214q43 -1 88.5 12.5t89.5 35.5q18 8 34 18.5t27 10.5q16 0 28 -18l53 -125q6 -14 4 -26q-3 -15 -15.5 -26.5t-26.5 -21.5q-73 -49 -157.5 -73.5t-169.5 -24.5q-105 0 -189 40t-139 109.5t-76 163t2 200.5q15 69 46.5 134t76 122t99 104t114.5 81t123 53t125 19
q110 0 192 -39.5t132.5 -106.5t68 -154t-0.5 -181q-7 -36 -23 -58t-39 -34t-51.5 -16.5t-59.5 -4.5h-542q-5 -43 10 -79t41.5 -61.5t62 -39.5t72.5 -14zM916 580q8 42 -2 76.5t-34 58.5t-60 37t-81 13q-37 0 -76.5 -14.5t-74 -39.5t-62 -58.5t-40.5 -72.5h430zM521 1267
q6 30 23 55.5t40 45t51 30.5t57 11q30 0 54 -11t39 -30.5t20 -45t-1 -55.5q-6 -29 -22.5 -54.5t-39.5 -45t-51.5 -30.5t-58.5 -11q-29 0 -52.5 11t-38.5 30.5t-20.5 45t0.5 54.5zM927 1269q6 30 23 56t40 45.5t51.5 30.5t57.5 11q30 0 53.5 -11t38.5 -30.5t20 -45.5t-1 -56
q-6 -29 -22 -54.5t-39.5 -44.5t-52 -30t-58.5 -11q-29 0 -52.5 11t-38.5 30t-20.5 44.5t0.5 54.5z" />
    <glyph glyph-name="igrave" unicode="&#xec;" horiz-adv-x="576" 
d="M423 47q-9 -47 -59 -47h-167q-47 0 -38 47l189 888q5 20 19.5 34t37.5 14h167q18 0 31.5 -13.5t8.5 -34.5zM345 1426q-4 14 -4.5 22.5t1.5 15.5q2 12 10.5 16.5t21.5 4.5h150q19 0 28 -10t17 -32l45 -205q4 -25 3 -38q-3 -13 -11 -19.5t-28 -6.5h-143q-34 0 -44 42z" />
    <glyph glyph-name="iacute" unicode="&#xed;" horiz-adv-x="576" 
d="M423 47q-9 -47 -59 -47h-167q-47 0 -38 47l189 888q5 20 19.5 34t37.5 14h167q18 0 31.5 -13.5t8.5 -34.5zM718 1216q-28 -42 -62 -42h-143q-20 0 -25 6.5t-2 19.5q2 8 6.5 16.5t12.5 21.5l131 205q17 22 30.5 32t32.5 10h150q13 0 19.5 -4.5t4.5 -16.5q-2 -7 -5.5 -15.5
t-13.5 -22.5z" />
    <glyph glyph-name="icircumflex" unicode="&#xee;" horiz-adv-x="576" 
d="M423 47q-9 -47 -59 -47h-167q-47 0 -38 47l189 888q5 20 19.5 34t37.5 14h167q18 0 31.5 -13.5t8.5 -34.5zM568 1555q5 4 11 6.5t13 2.5q9 0 19 -10l106 -134t106 -135q3 -3 5.5 -9.5t0.5 -14.5q-2 -6 -6.5 -11t-9.5 -10l-68 -55q-11 -10 -26 -21t-28 -11q-3 0 -10 1.5
t-20 18.5l-119 154l-188 -155q-8 -7 -18 -12.5t-21 -5.5t-20.5 11t-18.5 20l-43 53q-11 13 -5 30q4 10 15 17z" />
    <glyph glyph-name="idieresis" unicode="&#xef;" horiz-adv-x="576" 
d="M423 47q-9 -47 -59 -47h-167q-47 0 -38 47l189 888q5 20 19.5 34t37.5 14h167q18 0 31.5 -13.5t8.5 -34.5zM231 1267q6 30 23 55.5t40 45t51 30.5t57 11q30 0 54 -11t39 -30.5t20 -45t-1 -55.5q-6 -29 -22.5 -54.5t-39.5 -45t-51.5 -30.5t-58.5 -11q-29 0 -52.5 11
t-38.5 30.5t-20.5 45t0.5 54.5zM637 1269q6 30 23 56t40 45.5t51.5 30.5t57.5 11q30 0 53.5 -11t38.5 -30.5t20 -45.5t-1 -56q-6 -29 -22 -54.5t-39.5 -44.5t-52 -30t-58.5 -11q-29 0 -52.5 11t-38.5 30t-20.5 44.5t0.5 54.5z" />
    <glyph glyph-name="eth" unicode="&#xf0;" horiz-adv-x="1148" 
d="M1217 459q-27 -103 -88 -190.5t-144 -151.5t-182 -100t-202 -36q-107 0 -192.5 39.5t-141 108.5t-76.5 161.5t2 198.5q14 67 45 130t74.5 118.5t97.5 101t115.5 78.5t127.5 51.5t134 18.5q25 0 48 -3q-14 38 -24 67t-21 57l-109 -55q-16 -8 -24 -8q-4 0 -9.5 1.5t-11.5 6
t-12 13.5t-10 25q-4 12 -9.5 25.5t-10 26t-7 23.5t-0.5 17q1 7 9 14t20 14t26.5 14t28.5 13l62 31l-59 167q-3 6 -3 15.5t1 13.5q4 20 42 20h194q26 0 37.5 -10.5t19.5 -33.5l16 -48l87 44q13 6 27.5 13t25.5 7q8 0 12.5 -5.5t9.5 -14.5q15 -35 29 -64.5t10 -49.5
q-1 -3 -9.5 -13t-41.5 -30l-93 -47q44 -122 87.5 -243t86.5 -244q21 -58 24 -124t-12 -134q-2 -8 -3.5 -15t-3.5 -14zM963 487q12 54 3.5 102.5t-34.5 85t-67.5 57.5t-96.5 21q-54 0 -104.5 -21t-91.5 -57.5t-70 -85t-41 -102.5q-12 -55 -3.5 -103t34.5 -83.5t67.5 -56
t95.5 -20.5q55 0 105.5 20.5t91.5 56t70 83.5t41 103z" />
    <glyph glyph-name="ntilde" unicode="&#xf1;" horiz-adv-x="1229" 
d="M525 982q30 0 43 -10t17 -27.5t2.5 -40.5t-0.5 -49q28 26 65 51t80 44.5t90 31.5t96 12q93 0 159 -29.5t104.5 -82t49 -125t-7.5 -158.5l-115 -540q-6 -28 -26 -43.5t-44 -15.5h-164q-32 0 -41 14.5t-3 42.5l105 496q9 40 2 73.5t-26 56.5t-49.5 36t-69.5 13
q-32 0 -70 -13.5t-73 -37t-63.5 -55t-41.5 -67.5l-107 -504q-11 -55 -70 -55h-161q-29 0 -40.5 15.5t-6.5 39.5l184 867q7 29 25 44.5t49 15.5h108v0zM758 1233q-23 0 -45.5 -16.5t-43.5 -34t-39 -26.5t-32 6l-55 65q-11 13 -6 23.5t17 24.5l25 26q101 101 219 101
q33 -2 67 -14.5t61 -33.5l47 -36q22 -18 48 -18q43 0 76 29q6 6 14 14.5t17 17t18 14.5t18 6q8 0 18 -8l59 -71q7 -12 5 -23q-2 -5 -7 -12t-7 -9l-35 -35q-49 -45 -102 -68.5t-110 -23.5q-36 0 -69 12.5t-59 34.5q-11 9 -22.5 18.5t-24 17.5t-25.5 13.5t-27 5.5z" />
    <glyph glyph-name="ograve" unicode="&#xf2;" horiz-adv-x="1170" 
d="M152 488q23 106 83.5 200t145 163.5t187.5 110t211 40.5q107 0 193 -40.5t141.5 -110t76.5 -163.5t-2 -200q-23 -107 -83 -199.5t-145 -161.5t-188 -108.5t-210 -39.5q-108 0 -194 39.5t-141.5 108.5t-76.5 161.5t2 199.5zM419 487q-12 -54 -2.5 -101.5t36 -83t68 -56
t95.5 -20.5q53 0 103.5 20.5t92 56t71 83t41.5 101.5q11 53 1.5 100.5t-35.5 83.5t-68 57t-95 21q-54 0 -104.5 -21t-92 -57t-71 -83.5t-40.5 -100.5zM640 1426q-4 14 -4.5 22.5t1.5 15.5q2 12 10.5 16.5t21.5 4.5h150q19 0 28 -10t17 -32l45 -205q4 -25 3 -38
q-3 -13 -11 -19.5t-28 -6.5h-143q-34 0 -44 42z" />
    <glyph glyph-name="oacute" unicode="&#xf3;" horiz-adv-x="1170" 
d="M152 488q23 106 83.5 200t145 163.5t187.5 110t211 40.5q107 0 193 -40.5t141.5 -110t76.5 -163.5t-2 -200q-23 -107 -83 -199.5t-145 -161.5t-188 -108.5t-210 -39.5q-108 0 -194 39.5t-141.5 108.5t-76.5 161.5t2 199.5zM419 487q-12 -54 -2.5 -101.5t36 -83t68 -56
t95.5 -20.5q53 0 103.5 20.5t92 56t71 83t41.5 101.5q11 53 1.5 100.5t-35.5 83.5t-68 57t-95 21q-54 0 -104.5 -21t-92 -57t-71 -83.5t-40.5 -100.5zM947 1216q-28 -42 -62 -42h-143q-20 0 -25 6.5t-2 19.5q2 8 6.5 16.5t12.5 21.5l131 205q17 22 30.5 32t32.5 10h150
q13 0 19.5 -4.5t4.5 -16.5q-2 -7 -5.5 -15.5t-13.5 -22.5z" />
    <glyph glyph-name="ocircumflex" unicode="&#xf4;" horiz-adv-x="1170" 
d="M152 488q23 106 83.5 200t145 163.5t187.5 110t211 40.5q107 0 193 -40.5t141.5 -110t76.5 -163.5t-2 -200q-23 -107 -83 -199.5t-145 -161.5t-188 -108.5t-210 -39.5q-108 0 -194 39.5t-141.5 108.5t-76.5 161.5t2 199.5zM419 487q-12 -54 -2.5 -101.5t36 -83t68 -56
t95.5 -20.5q53 0 103.5 20.5t92 56t71 83t41.5 101.5q11 53 1.5 100.5t-35.5 83.5t-68 57t-95 21q-54 0 -104.5 -21t-92 -57t-71 -83.5t-40.5 -100.5zM870 1555q5 4 11 6.5t13 2.5q9 0 19 -10l106 -134t106 -135q3 -3 5.5 -9.5t0.5 -14.5q-2 -6 -6.5 -11t-9.5 -10l-68 -55
q-11 -10 -26 -21t-28 -11q-3 0 -10 1.5t-20 18.5l-119 154l-188 -155q-8 -7 -18 -12.5t-21 -5.5t-20.5 11t-18.5 20l-43 53q-11 13 -5 30q4 10 15 17z" />
    <glyph glyph-name="otilde" unicode="&#xf5;" horiz-adv-x="1170" 
d="M152 488q23 106 83.5 200t145 163.5t187.5 110t211 40.5q107 0 193 -40.5t141.5 -110t76.5 -163.5t-2 -200q-23 -107 -83 -199.5t-145 -161.5t-188 -108.5t-210 -39.5q-108 0 -194 39.5t-141.5 108.5t-76.5 161.5t2 199.5zM419 487q-12 -54 -2.5 -101.5t36 -83t68 -56
t95.5 -20.5q53 0 103.5 20.5t92 56t71 83t41.5 101.5q11 53 1.5 100.5t-35.5 83.5t-68 57t-95 21q-54 0 -104.5 -21t-92 -57t-71 -83.5t-40.5 -100.5zM729 1236q-23 0 -45.5 -16.5t-43.5 -34t-39 -26.5t-32 6l-55 65q-11 13 -6 23.5t17 24.5l25 26q101 101 219 101
q33 -2 67 -14.5t61 -33.5l47 -36q22 -18 48 -18q43 0 76 29q6 6 14 14.5t17 17t18 14.5t18 6q8 0 18 -8l59 -71q7 -12 5 -23q-2 -5 -7 -12t-7 -9l-35 -35q-49 -45 -102 -68.5t-110 -23.5q-36 0 -69 12.5t-59 34.5q-11 9 -22.5 18.5t-24 17.5t-25.5 13.5t-27 5.5z" />
    <glyph glyph-name="odieresis" unicode="&#xf6;" horiz-adv-x="1170" 
d="M152 488q23 106 83.5 200t145 163.5t187.5 110t211 40.5q107 0 193 -40.5t141.5 -110t76.5 -163.5t-2 -200q-23 -107 -83 -199.5t-145 -161.5t-188 -108.5t-210 -39.5q-108 0 -194 39.5t-141.5 108.5t-76.5 161.5t2 199.5zM419 487q-12 -54 -2.5 -101.5t36 -83t68 -56
t95.5 -20.5q53 0 103.5 20.5t92 56t71 83t41.5 101.5q11 53 1.5 100.5t-35.5 83.5t-68 57t-95 21q-54 0 -104.5 -21t-92 -57t-71 -83.5t-40.5 -100.5zM493 1267q6 30 23 55.5t40 45t51 30.5t57 11q30 0 54 -11t39 -30.5t20 -45t-1 -55.5q-6 -29 -22.5 -54.5t-39.5 -45
t-51.5 -30.5t-58.5 -11q-29 0 -52.5 11t-38.5 30.5t-20.5 45t0.5 54.5zM899 1269q6 30 23 56t40 45.5t51.5 30.5t57.5 11q30 0 53.5 -11t38.5 -30.5t20 -45.5t-1 -56q-6 -29 -22 -54.5t-39.5 -44.5t-52 -30t-58.5 -11q-29 0 -52.5 11t-38.5 30t-20.5 44.5t0.5 54.5z" />
    <glyph glyph-name="divide" unicode="&#xf7;" horiz-adv-x="902" 
d="M512 928q6 31 23.5 58t42 47.5t54.5 32.5t61 12q33 0 57.5 -12t40.5 -32.5t21 -47.5t-1 -58q-7 -32 -24 -59t-41 -47t-54 -31.5t-63 -11.5q-31 0 -55.5 11.5t-40.5 31.5t-22 47t1 59zM334 118q6 31 23.5 58.5t42.5 48t54.5 32t59.5 11.5q33 0 58 -11.5t40.5 -32t21 -48
t-0.5 -58.5q-7 -31 -24 -58t-41 -47.5t-54 -32t-63 -11.5q-30 0 -55 11.5t-41 32t-22 47.5t1 58zM228 391q-57 0 -46 55l34 157q11 55 68 55h633q23 0 35.5 -15.5t7.5 -39.5l-34 -157q-5 -24 -23.5 -39.5t-41.5 -15.5h-633z" />
    <glyph glyph-name="oslash" unicode="&#xf8;" horiz-adv-x="1170" 
d="M254 93q-35 34 -60.5 77.5t-39 94t-14.5 107t12 116.5q15 71 47 136t76.5 121t100 101.5t118.5 78t131.5 50t139.5 17.5q17 0 33 -1t33 -3l65 102q14 20 31 31.5t42 11.5h156q22 0 33 -7.5t7 -25.5q-1 -5 -4 -12.5t-4 -9.5l-117 -180q81 -69 115.5 -175t6.5 -235
q-15 -71 -46.5 -136t-76.5 -121t-100.5 -102t-118.5 -78.5t-131 -50.5t-138 -18q-51 0 -94 9q-18 -27 -35.5 -53t-33.5 -51q-14 -20 -27 -29.5t-33 -9.5h-173q-29 0 -33 16t7 33zM399 487q-12 -54 -2.5 -101.5t36 -83t68 -56t95.5 -20.5q53 0 103.5 20.5t92 56t71 83
t41.5 101.5q11 53 1.5 100.5t-35.5 83.5t-68 57t-95 21q-54 0 -104.5 -21t-92 -57t-71 -83.5t-40.5 -100.5z" />
    <glyph glyph-name="ugrave" unicode="&#xf9;" horiz-adv-x="1217" 
d="M907 0q-30 0 -44.5 9t-19.5 25t-5 38t-1 48q-29 -26 -67.5 -50t-83 -42t-93 -29t-97.5 -11q-93 0 -157.5 29.5t-101.5 82t-45.5 125t9.5 158.5l115 540q6 28 26 43.5t44 15.5h164q32 0 41 -14.5t3 -42.5l-105 -496q-17 -81 19.5 -130t114.5 -49q32 0 74.5 12.5t82 35.5
t69.5 55t38 70l108 504q11 55 70 55h161q29 0 40.5 -15.5t6.5 -39.5l-185 -867q-6 -29 -24 -44.5t-49 -15.5h-108v0zM713 1426q-4 14 -4.5 22.5t1.5 15.5q2 12 10.5 16.5t21.5 4.5h150q19 0 28 -10t17 -32l45 -205q4 -25 3 -38q-3 -13 -11 -19.5t-28 -6.5h-143q-34 0 -44 42
z" />
    <glyph glyph-name="uacute" unicode="&#xfa;" horiz-adv-x="1217" 
d="M907 0q-30 0 -44.5 9t-19.5 25t-5 38t-1 48q-29 -26 -67.5 -50t-83 -42t-93 -29t-97.5 -11q-93 0 -157.5 29.5t-101.5 82t-45.5 125t9.5 158.5l115 540q6 28 26 43.5t44 15.5h164q32 0 41 -14.5t3 -42.5l-105 -496q-17 -81 19.5 -130t114.5 -49q32 0 74.5 12.5t82 35.5
t69.5 55t38 70l108 504q11 55 70 55h161q29 0 40.5 -15.5t6.5 -39.5l-185 -867q-6 -29 -24 -44.5t-49 -15.5h-108v0zM941 1216q-28 -42 -62 -42h-143q-20 0 -25 6.5t-2 19.5q2 8 6.5 16.5t12.5 21.5l131 205q17 22 30.5 32t32.5 10h150q13 0 19.5 -4.5t4.5 -16.5
q-2 -7 -5.5 -15.5t-13.5 -22.5z" />
    <glyph glyph-name="ucircumflex" unicode="&#xfb;" horiz-adv-x="1217" 
d="M907 0q-30 0 -44.5 9t-19.5 25t-5 38t-1 48q-29 -26 -67.5 -50t-83 -42t-93 -29t-97.5 -11q-93 0 -157.5 29.5t-101.5 82t-45.5 125t9.5 158.5l115 540q6 28 26 43.5t44 15.5h164q32 0 41 -14.5t3 -42.5l-105 -496q-17 -81 19.5 -130t114.5 -49q32 0 74.5 12.5t82 35.5
t69.5 55t38 70l108 504q11 55 70 55h161q29 0 40.5 -15.5t6.5 -39.5l-185 -867q-6 -29 -24 -44.5t-49 -15.5h-108v0zM894 1555q5 4 11 6.5t13 2.5q9 0 19 -10l106 -134t106 -135q3 -3 5.5 -9.5t0.5 -14.5q-2 -6 -6.5 -11t-9.5 -10l-68 -55q-11 -10 -26 -21t-28 -11
q-3 0 -10 1.5t-20 18.5l-119 154l-188 -155q-8 -7 -18 -12.5t-21 -5.5t-20.5 11t-18.5 20l-43 53q-11 13 -5 30q4 10 15 17z" />
    <glyph glyph-name="udieresis" unicode="&#xfc;" horiz-adv-x="1217" 
d="M907 0q-30 0 -44.5 9t-19.5 25t-5 38t-1 48q-29 -26 -67.5 -50t-83 -42t-93 -29t-97.5 -11q-93 0 -157.5 29.5t-101.5 82t-45.5 125t9.5 158.5l115 540q6 28 26 43.5t44 15.5h164q32 0 41 -14.5t3 -42.5l-105 -496q-17 -81 19.5 -130t114.5 -49q32 0 74.5 12.5t82 35.5
t69.5 55t38 70l108 504q11 55 70 55h161q29 0 40.5 -15.5t6.5 -39.5l-185 -867q-6 -29 -24 -44.5t-49 -15.5h-108v0zM515 1267q6 30 23 55.5t40 45t51 30.5t57 11q30 0 54 -11t39 -30.5t20 -45t-1 -55.5q-6 -29 -22.5 -54.5t-39.5 -45t-51.5 -30.5t-58.5 -11q-29 0 -52.5 11
t-38.5 30.5t-20.5 45t0.5 54.5zM921 1269q6 30 23 56t40 45.5t51.5 30.5t57.5 11q30 0 53.5 -11t38.5 -30.5t20 -45.5t-1 -56q-6 -29 -22 -54.5t-39.5 -44.5t-52 -30t-58.5 -11q-29 0 -52.5 11t-38.5 30t-20.5 44.5t0.5 54.5z" />
    <glyph glyph-name="yacute" unicode="&#xfd;" horiz-adv-x="1118" 
d="M512 -351q-10 -17 -26.5 -31t-39.5 -14h-170q-34 0 -43 20.5t7 48.5l190 337l-175 897q-6 32 11 53.5t52 21.5h175q26 0 39 -13.5t14 -33.5v1l95 -586l340 588q13 23 31.5 33.5t43.5 10.5h173q31 0 41 -13.5t5 -35.5q-2 -5 -5.5 -13.5t-11.5 -22.5zM931 1216
q-28 -42 -62 -42h-143q-20 0 -25 6.5t-2 19.5q2 8 6.5 16.5t12.5 21.5l131 205q17 22 30.5 32t32.5 10h150q13 0 19.5 -4.5t4.5 -16.5q-2 -7 -5.5 -15.5t-13.5 -22.5z" />
    <glyph glyph-name="thorn" unicode="&#xfe;" horiz-adv-x="1182" 
d="M967 494q12 55 4.5 103t-30.5 84t-61 56.5t-87 20.5q-48 0 -94 -19t-84.5 -52.5t-67 -78.5t-42.5 -96l-6 -32q-9 -53 0 -98.5t33 -79.5t62 -53.5t86 -19.5q49 0 96 21t85 57t66 84t40 103zM120 -387q-21 0 -35.5 14t-9.5 37l368 1731q5 22 22.5 35t37.5 13h166
q23 0 33 -13.5t5 -34.5l-109 -515q22 24 51.5 46.5t64 39t74 26.5t82.5 10q102 0 180 -39.5t126 -108t63.5 -160.5t-6.5 -198l-1 -3q-22 -106 -76.5 -198.5t-132 -161.5t-172 -108.5t-197.5 -39.5q-44 0 -79.5 9.5t-62.5 25.5t-46.5 37.5t-32.5 46.5l-94 -440
q-5 -23 -21.5 -37t-43.5 -14h-154z" />
    <glyph glyph-name="ydieresis" unicode="&#xff;" horiz-adv-x="1118" 
d="M512 -351q-10 -17 -26.5 -31t-39.5 -14h-170q-34 0 -43 20.5t7 48.5l190 337l-175 897q-6 32 11 53.5t52 21.5h175q26 0 39 -13.5t14 -33.5v1l95 -586l340 588q13 23 31.5 33.5t43.5 10.5h173q31 0 41 -13.5t5 -35.5q-2 -5 -5.5 -13.5t-11.5 -22.5zM492 1267
q6 30 23 55.5t40 45t51 30.5t57 11q30 0 54 -11t39 -30.5t20 -45t-1 -55.5q-6 -29 -22.5 -54.5t-39.5 -45t-51.5 -30.5t-58.5 -11q-29 0 -52.5 11t-38.5 30.5t-20.5 45t0.5 54.5zM898 1269q6 30 23 56t40 45.5t51.5 30.5t57.5 11q30 0 53.5 -11t38.5 -30.5t20 -45.5t-1 -56
q-6 -29 -22 -54.5t-39.5 -44.5t-52 -30t-58.5 -11q-29 0 -52.5 11t-38.5 30t-20.5 44.5t0.5 54.5z" />
    <glyph glyph-name="Amacron" unicode="&#x100;" horiz-adv-x="1457" 
d="M901 1452q10 14 24 23.5t41 9.5h150q22 0 32 -9.5t14 -23.5l296 -1406l-1 -6q-3 -15 -15.5 -27.5t-47.5 -12.5h-212q-19 0 -27.5 6.5t-10.5 24.5l-47 243h-594l-151 -243q-16 -31 -43 -31h-262q-25 0 -33 9.5t-4 27.5q1 2 226 355t665 1060zM654 537h404l-89 527z
M749 1841q7 35 42 35h725q36 0 29 -35l-22 -100q-2 -12 -14 -26t-30 -14h-725q-34 0 -27 40z" />
    <glyph glyph-name="amacron" unicode="&#x101;" horiz-adv-x="1188" 
d="M851 55q2 19 3 37.5t2 37.5q-24 -27 -51.5 -53.5t-62 -48t-78 -34.5t-98.5 -13h-5q-107 0 -187.5 39t-130 107t-65.5 161t7 200q23 109 78 202t133.5 161t175.5 107t205 39q56 0 97 -14t69.5 -37.5t47 -53.5t29.5 -62l39 97q7 16 13 27t13 17t16.5 8.5t23.5 2.5h108
q23 0 37 -14.5t9 -39.5l-187 -878q-5 -24 -24.5 -37t-42.5 -13h-129q-30 0 -37.5 15t-7.5 40zM446 486q-12 -55 -5 -103t31 -83.5t64 -56t94 -20.5q55 0 104 20t88 55t66.5 83t39.5 104q11 54 4.5 102.5t-30 85t-63.5 58t-97 21.5q-55 0 -104 -21t-87.5 -57.5t-65.5 -85
t-39 -102.5zM520 1337q7 35 42 35h725q36 0 29 -35l-22 -100q-2 -12 -14 -26t-30 -14h-725q-34 0 -27 40z" />
    <glyph glyph-name="Abreve" unicode="&#x102;" horiz-adv-x="1457" 
d="M901 1452q10 14 24 23.5t41 9.5h150q22 0 32 -9.5t14 -23.5l296 -1406l-1 -6q-3 -15 -15.5 -27.5t-47.5 -12.5h-212q-19 0 -27.5 6.5t-10.5 24.5l-47 243h-594l-151 -243q-16 -31 -43 -31h-262q-25 0 -33 9.5t-4 27.5q1 2 226 355t665 1060zM654 537h404l-89 527z
M1131 1713q-55 1 -98.5 21.5t-71.5 54t-39 76t-1 89.5q3 17 17 27.5t30 10.5h105q14 0 21 -9t4 -22q-6 -29 11.5 -51.5t62.5 -22.5q39 0 67 21.5t33 48.5q3 13 12 24t26 11h102q17 0 29 -9.5t8 -28.5q-10 -47 -40 -90.5t-73 -76.5t-96 -53t-109 -21z" />
    <glyph glyph-name="abreve" unicode="&#x103;" horiz-adv-x="1188" 
d="M851 55q2 19 3 37.5t2 37.5q-24 -27 -51.5 -53.5t-62 -48t-78 -34.5t-98.5 -13h-5q-107 0 -187.5 39t-130 107t-65.5 161t7 200q23 109 78 202t133.5 161t175.5 107t205 39q56 0 97 -14t69.5 -37.5t47 -53.5t29.5 -62l39 97q7 16 13 27t13 17t16.5 8.5t23.5 2.5h108
q23 0 37 -14.5t9 -39.5l-187 -878q-5 -24 -24.5 -37t-42.5 -13h-129q-30 0 -37.5 15t-7.5 40zM446 486q-12 -55 -5 -103t31 -83.5t64 -56t94 -20.5q55 0 104 20t88 55t66.5 83t39.5 104q11 54 4.5 102.5t-30 85t-63.5 58t-97 21.5q-55 0 -104 -21t-87.5 -57.5t-65.5 -85
t-39 -102.5zM835 1209q-55 1 -98.5 21.5t-71.5 54t-39 76t-1 89.5q3 17 17 27.5t30 10.5h105q14 0 21 -9t4 -22q-6 -29 11.5 -51.5t62.5 -22.5q39 0 67 21.5t33 48.5q3 13 12 24t26 11h102q17 0 29 -9.5t8 -28.5q-10 -47 -40 -90.5t-73 -76.5t-96 -53t-109 -21z" />
    <glyph glyph-name="Aogonek" unicode="&#x104;" horiz-adv-x="1457" 
d="M901 1452q10 14 24 23.5t41 9.5h150q22 0 32 -9.5t14 -23.5l296 -1406l-1 -6q-3 -15 -15.5 -27.5t-47.5 -12.5h-212q-19 0 -27.5 6.5t-10.5 24.5l-47 243h-594l-151 -243q-16 -31 -43 -31h-262q-25 0 -33 9.5t-4 27.5q1 2 226 355t665 1060zM654 537h404l-89 527z
M1182 -526q-88 24 -140.5 54t-78.5 63t-31 68t3 71q8 37 31 65.5t52.5 51.5t63 42.5t62.5 39t50 41t27 47.5h168l-9 -42q-6 -30 -26.5 -53.5t-48 -43.5t-58.5 -37t-58 -34t-46.5 -35.5t-24.5 -40.5q-3 -15 3 -29t23.5 -27.5t48.5 -25.5t78 -24q17 -4 18 -16.5t-2 -18.5
l-56 -102q-6 -11 -16 -15.5t-33 1.5z" />
    <glyph glyph-name="aogonek" unicode="&#x105;" horiz-adv-x="1188" 
d="M851 55q2 19 3 37.5t2 37.5q-24 -27 -51.5 -53.5t-62 -48t-78 -34.5t-98.5 -13h-5q-107 0 -187.5 39t-130 107t-65.5 161t7 200q23 109 78 202t133.5 161t175.5 107t205 39q56 0 97 -14t69.5 -37.5t47 -53.5t29.5 -62l39 97q7 16 13 27t13 17t16.5 8.5t23.5 2.5h108
q23 0 37 -14.5t9 -39.5l-187 -878q-5 -24 -24.5 -37t-42.5 -13h-129q-30 0 -37.5 15t-7.5 40zM446 486q-12 -55 -5 -103t31 -83.5t64 -56t94 -20.5q55 0 104 20t88 55t66.5 83t39.5 104q11 54 4.5 102.5t-30 85t-63.5 58t-97 21.5q-55 0 -104 -21t-87.5 -57.5t-65.5 -85
t-39 -102.5zM838 -511q-88 24 -140.5 54t-78.5 63t-31 68t3 71q8 37 31 65.5t52.5 51.5t63 42.5t62.5 39t50 41t27 47.5h168l-9 -42q-6 -30 -26.5 -53.5t-48 -43.5t-58.5 -37t-58 -34t-46.5 -35.5t-24.5 -40.5q-3 -15 3 -29t23.5 -27.5t48.5 -25.5t78 -24q17 -4 18 -16.5
t-2 -18.5l-56 -102q-6 -11 -16 -15.5t-33 1.5z" />
    <glyph glyph-name="Cacute" unicode="&#x106;" horiz-adv-x="1410" 
d="M1571 1377q20 -13 20 -34q0 -16 -11 -30l-132 -165q-23 -23 -42 -23q-14 0 -27 10q-52 45 -119.5 70t-148.5 25q-76 0 -148.5 -22.5t-137 -62.5t-119 -95.5t-93.5 -122.5t-61 -142.5t-22 -155.5q0 -81 26 -149.5t74 -118.5t117.5 -78t156.5 -28q81 0 159.5 25t150.5 70
q10 6 18.5 8t15.5 3q17 0 30 -22l63 -167q2 -10 2 -14q0 -17 -11 -28t-26 -20q-108 -63 -223.5 -97.5t-235.5 -34.5q-138 0 -252 45.5t-195.5 126.5t-126.5 191.5t-45 239.5q0 123 37 239.5t102.5 219.5t155.5 188.5t194.5 147.5t220.5 96.5t234 34.5q119 0 219 -33.5
t180 -96.5zM1376 1718q-28 -42 -62 -42h-143q-20 0 -25 6.5t-2 19.5q2 8 6.5 16.5t12.5 21.5l131 205q17 22 30.5 32t32.5 10h150q13 0 19.5 -4.5t4.5 -16.5q-2 -7 -5.5 -15.5t-13.5 -22.5z" />
    <glyph glyph-name="cacute" unicode="&#x107;" horiz-adv-x="1022" 
d="M637 230q30 1 56 5t51 11.5t49 17t51 21.5q18 10 33 10q14 -1 20.5 -13t13.5 -27l48 -107q2 -5 3 -11.5t0 -9.5q-4 -18 -17.5 -28.5t-25.5 -17.5q-76 -44 -159.5 -73t-170.5 -29q-105 0 -190 39.5t-140 108.5t-76 161.5t2 199.5q23 106 83.5 200t144.5 163.5t186 110
t207 40.5q81 0 149.5 -26t127.5 -71q14 -11 21.5 -22t3.5 -28q-1 -5 -4.5 -12t-7.5 -11l-105 -133q-8 -9 -17 -14.5t-19 -5.5q-11 0 -29 13q-30 28 -75.5 46.5t-94.5 18.5q-55 0 -107.5 -21.5t-95 -58.5t-73 -86t-42.5 -104q-12 -57 -3 -104.5t36 -81.5t69.5 -52.5
t96.5 -18.5zM931 1216q-28 -42 -62 -42h-143q-20 0 -25 6.5t-2 19.5q2 8 6.5 16.5t12.5 21.5l131 205q17 22 30.5 32t32.5 10h150q13 0 19.5 -4.5t4.5 -16.5q-2 -7 -5.5 -15.5t-13.5 -22.5z" />
    <glyph glyph-name="Ccircumflex" unicode="&#x108;" horiz-adv-x="1410" 
d="M1571 1377q20 -13 20 -34q0 -16 -11 -30l-132 -165q-23 -23 -42 -23q-14 0 -27 10q-52 45 -119.5 70t-148.5 25q-76 0 -148.5 -22.5t-137 -62.5t-119 -95.5t-93.5 -122.5t-61 -142.5t-22 -155.5q0 -81 26 -149.5t74 -118.5t117.5 -78t156.5 -28q81 0 159.5 25t150.5 70
q10 6 18.5 8t15.5 3q17 0 30 -22l63 -167q2 -10 2 -14q0 -17 -11 -28t-26 -20q-108 -63 -223.5 -97.5t-235.5 -34.5q-138 0 -252 45.5t-195.5 126.5t-126.5 191.5t-45 239.5q0 123 37 239.5t102.5 219.5t155.5 188.5t194.5 147.5t220.5 96.5t234 34.5q119 0 219 -33.5
t180 -96.5zM1240 2057q5 4 11 6.5t13 2.5q9 0 19 -10l106 -134t106 -135q3 -3 5.5 -9.5t0.5 -14.5q-2 -6 -6.5 -11t-9.5 -10l-68 -55q-11 -10 -26 -21t-28 -11q-3 0 -10 1.5t-20 18.5l-119 154l-188 -155q-8 -7 -18 -12.5t-21 -5.5t-20.5 11t-18.5 20l-43 53q-11 13 -5 30
q4 10 15 17z" />
    <glyph glyph-name="ccircumflex" unicode="&#x109;" horiz-adv-x="1022" 
d="M637 230q30 1 56 5t51 11.5t49 17t51 21.5q18 10 33 10q14 -1 20.5 -13t13.5 -27l48 -107q2 -5 3 -11.5t0 -9.5q-4 -18 -17.5 -28.5t-25.5 -17.5q-76 -44 -159.5 -73t-170.5 -29q-105 0 -190 39.5t-140 108.5t-76 161.5t2 199.5q23 106 83.5 200t144.5 163.5t186 110
t207 40.5q81 0 149.5 -26t127.5 -71q14 -11 21.5 -22t3.5 -28q-1 -5 -4.5 -12t-7.5 -11l-105 -133q-8 -9 -17 -14.5t-19 -5.5q-11 0 -29 13q-30 28 -75.5 46.5t-94.5 18.5q-55 0 -107.5 -21.5t-95 -58.5t-73 -86t-42.5 -104q-12 -57 -3 -104.5t36 -81.5t69.5 -52.5
t96.5 -18.5zM892 1518q5 4 11 6.5t13 2.5q9 0 19 -10l106 -134t106 -135q3 -3 5.5 -9.5t0.5 -14.5q-2 -6 -6.5 -11t-9.5 -10l-68 -55q-11 -10 -26 -21t-28 -11q-3 0 -10 1.5t-20 18.5l-119 154l-188 -155q-8 -7 -18 -12.5t-21 -5.5t-20.5 11t-18.5 20l-43 53q-11 13 -5 30
q4 10 15 17z" />
    <glyph glyph-name="Cdotaccent" unicode="&#x10a;" horiz-adv-x="1410" 
d="M1571 1377q20 -13 20 -34q0 -16 -11 -30l-132 -165q-23 -23 -42 -23q-14 0 -27 10q-52 45 -119.5 70t-148.5 25q-76 0 -148.5 -22.5t-137 -62.5t-119 -95.5t-93.5 -122.5t-61 -142.5t-22 -155.5q0 -81 26 -149.5t74 -118.5t117.5 -78t156.5 -28q81 0 159.5 25t150.5 70
q10 6 18.5 8t15.5 3q17 0 30 -22l63 -167q2 -10 2 -14q0 -17 -11 -28t-26 -20q-108 -63 -223.5 -97.5t-235.5 -34.5q-138 0 -252 45.5t-195.5 126.5t-126.5 191.5t-45 239.5q0 123 37 239.5t102.5 219.5t155.5 188.5t194.5 147.5t220.5 96.5t234 34.5q119 0 219 -33.5
t180 -96.5zM1087 1771q6 29 22.5 55t40 45.5t51.5 30.5t57 11q30 0 53.5 -11t38.5 -30.5t20.5 -45.5t-0.5 -55t-22.5 -55t-39.5 -45t-51.5 -30t-58.5 -11q-29 0 -52.5 11t-38.5 30t-20.5 45t0.5 55z" />
    <glyph glyph-name="cdotaccent" unicode="&#x10b;" horiz-adv-x="1022" 
d="M637 230q30 1 56 5t51 11.5t49 17t51 21.5q18 10 33 10q14 -1 20.5 -13t13.5 -27l48 -107q2 -5 3 -11.5t0 -9.5q-4 -18 -17.5 -28.5t-25.5 -17.5q-76 -44 -159.5 -73t-170.5 -29q-105 0 -190 39.5t-140 108.5t-76 161.5t2 199.5q23 106 83.5 200t144.5 163.5t186 110
t207 40.5q81 0 149.5 -26t127.5 -71q14 -11 21.5 -22t3.5 -28q-1 -5 -4.5 -12t-7.5 -11l-105 -133q-8 -9 -17 -14.5t-19 -5.5q-11 0 -29 13q-30 28 -75.5 46.5t-94.5 18.5q-55 0 -107.5 -21.5t-95 -58.5t-73 -86t-42.5 -104q-12 -57 -3 -104.5t36 -81.5t69.5 -52.5
t96.5 -18.5zM760 1311q7 34 26.5 63.5t46 51.5t58.5 34.5t65 12.5q34 0 61 -12.5t44.5 -34.5t23 -51.5t-1.5 -63.5q-7 -33 -25.5 -62.5t-45 -51t-59 -34.5t-66.5 -13q-33 0 -59.5 13t-44 34.5t-24 51t0.5 62.5z" />
    <glyph glyph-name="Ccaron" unicode="&#x10c;" horiz-adv-x="1410" 
d="M1571 1377q20 -13 20 -34q0 -16 -11 -30l-132 -165q-23 -23 -42 -23q-14 0 -27 10q-52 45 -119.5 70t-148.5 25q-76 0 -148.5 -22.5t-137 -62.5t-119 -95.5t-93.5 -122.5t-61 -142.5t-22 -155.5q0 -81 26 -149.5t74 -118.5t117.5 -78t156.5 -28q81 0 159.5 25t150.5 70
q10 6 18.5 8t15.5 3q17 0 30 -22l63 -167q2 -10 2 -14q0 -17 -11 -28t-26 -20q-108 -63 -223.5 -97.5t-235.5 -34.5q-138 0 -252 45.5t-195.5 126.5t-126.5 191.5t-45 239.5q0 123 37 239.5t102.5 219.5t155.5 188.5t194.5 147.5t220.5 96.5t234 34.5q119 0 219 -33.5
t180 -96.5zM943 1917q-2 3 -4.5 11t-0.5 14q1 10 9 16l33 27l74 58q24 19 43 -6l127 -163l186 155q10 8 21 13.5t18 5.5q11 0 21 -10.5t18 -21.5l45 -54q3 -5 5.5 -10t0.5 -12t-6 -13.5t-9 -10.5l-327 -269q-6 -4 -12 -7t-11 -3q-7 0 -11 3t-9 7z" />
    <glyph glyph-name="ccaron" unicode="&#x10d;" horiz-adv-x="1022" 
d="M637 230q30 1 56 5t51 11.5t49 17t51 21.5q18 10 33 10q14 -1 20.5 -13t13.5 -27l48 -107q2 -5 3 -11.5t0 -9.5q-4 -18 -17.5 -28.5t-25.5 -17.5q-76 -44 -159.5 -73t-170.5 -29q-105 0 -190 39.5t-140 108.5t-76 161.5t2 199.5q23 106 83.5 200t144.5 163.5t186 110
t207 40.5q81 0 149.5 -26t127.5 -71q14 -11 21.5 -22t3.5 -28q-1 -5 -4.5 -12t-7.5 -11l-105 -133q-8 -9 -17 -14.5t-19 -5.5q-11 0 -29 13q-30 28 -75.5 46.5t-94.5 18.5q-55 0 -107.5 -21.5t-95 -58.5t-73 -86t-42.5 -104q-12 -57 -3 -104.5t36 -81.5t69.5 -52.5
t96.5 -18.5zM666 1415q-2 3 -4.5 11t-0.5 14q1 10 9 16l33 27l74 58q24 19 43 -6l127 -163l186 155q10 8 21 13.5t18 5.5q11 0 21 -10.5t18 -21.5l45 -54q3 -5 5.5 -10t0.5 -12t-6 -13.5t-9 -10.5l-327 -269q-6 -4 -12 -7t-11 -3q-7 0 -11 3t-9 7z" />
    <glyph glyph-name="Dcaron" unicode="&#x10e;" horiz-adv-x="1490" 
d="M1590 741q-23 -106 -70.5 -201.5t-114.5 -178t-150.5 -149.5t-178.5 -114t-198 -72.5t-208 -25.5h-460q-14 0 -28 4t-14 24q0 2 2 12l297 1397q11 50 59 50h460q137 -1 251 -45t196.5 -122.5t128 -186.5t45.5 -236q0 -73 -17 -156zM715 1216l-200 -943h191
q74 0 146.5 19.5t139 55.5t123 87.5t98.5 115t65.5 137.5t23.5 156t-29 150.5t-81.5 117.5t-125.5 76t-160 28h-191zM802 1919q-2 3 -4.5 11t-0.5 14q1 10 9 16l33 27l74 58q24 19 43 -6l127 -163l186 155q10 8 21 13.5t18 5.5q11 0 21 -10.5t18 -21.5l45 -54q3 -5 5.5 -10
t0.5 -12t-6 -13.5t-9 -10.5l-327 -269q-6 -4 -12 -7t-11 -3q-7 0 -11 3t-9 7z" />
    <glyph glyph-name="dcaron" unicode="&#x10f;" horiz-adv-x="1188" 
d="M1068 51q-5 -23 -19.5 -36t-39.5 -15h-78q-38 0 -68 6q-13 4 -18.5 16t-6.5 28.5t0.5 35.5t2.5 38q-33 -36 -66 -63t-69 -44.5t-78 -26.5t-93 -9q-103 0 -180.5 39.5t-124.5 108.5t-61.5 161t8.5 197q22 106 75.5 198.5t130 161t171.5 108t201 39.5q47 0 82.5 -9
t62 -25.5t45.5 -38.5t34 -49l120 563q5 22 21 36t42 14h154q22 0 37 -13.5t10 -36.5zM924 485q12 55 4.5 103.5t-32 84.5t-64.5 57t-93 21q-57 0 -105.5 -21t-86 -57t-63.5 -84.5t-38 -103.5t-6.5 -103t28 -84t62 -56.5t96.5 -20.5q52 0 100.5 20.5t88 56t68 83t40.5 101.5z
M1375.48 1337.42q6.2666 31.4268 24.1689 58.8115q17.9033 27.3857 42.0723 47.1396q24.1689 19.7529 53.2607 30.9766t59.5273 11.2236q32.2246 0 56.8408 -11.6719q24.6162 -11.6729 39.834 -32.3242t20.5879 -50.2822q5.37109 -29.6299 -2.68457 -65.5459
q-16.1133 -75.4219 -43.415 -131.54t-57.2891 -93.3809q-29.9873 -37.2617 -56.8408 -55.6689q-26.8545 -18.4062 -41.1768 -18.4062q-9.84668 0 -16.1123 2.69336q-6.2666 2.69336 -10.7422 7.18359l-37.5957 33.2217q-8.05664 8.08105 -5.37109 24.2432
q3.58008 14.3662 15.2178 24.2422l15.2168 17.0605q7.16113 7.18262 17.0078 21.998t14.3223 33.6709q-23.2734 4.48926 -41.624 18.4062q-18.3506 13.918 -29.9873 33.6709q-11.6367 19.7539 -16.1123 43.9971t0.894531 50.2812z" />
    <glyph glyph-name="Dcroat" unicode="&#x110;" horiz-adv-x="1550" 
d="M331 847l123 581q5 26 23 41.5t45 15.5h464q105 0 196 -26t165 -74t128 -115.5t85.5 -150t37.5 -178.5t-16 -200t-69 -199.5t-113.5 -177.5t-149.5 -149.5t-176.5 -115t-196 -73.5t-206.5 -26h-464q-23 0 -37.5 10.5t-7.5 41.5l119 561h-80q-53 0 -42 55l28 130
q5 23 21.5 36t42.5 13h80zM593 280q38 0 76.5 0.5t77.5 1.5q93 7 182 46.5t162.5 102t126 144t71.5 172.5q21 97 4 178.5t-63.5 140.5t-118 94t-159.5 41q-44 3 -89 3h-161l-75 -357h118q20 0 31.5 -13t6.5 -36l-28 -130q-4 -19 -21 -37t-39 -18h-118l-71 -333h87z" />
    <glyph glyph-name="dcroat" unicode="&#x111;" horiz-adv-x="1188" 
d="M1068 51q-5 -23 -19.5 -36t-39.5 -15h-78q-38 0 -68 6q-13 4 -18.5 16t-6.5 28.5t0.5 35.5t2.5 38q-33 -36 -66 -63t-69 -44.5t-78 -26.5t-93 -9q-103 0 -180.5 39.5t-124.5 108.5t-61.5 161t8.5 197q22 106 75.5 198.5t130 161t171.5 108t201 39.5q47 0 82.5 -9
t62 -25.5t45.5 -38.5t34 -49l120 563q5 22 21 36t42 14h154q22 0 37 -13.5t10 -36.5zM924 485q12 55 4.5 103.5t-32 84.5t-64.5 57t-93 21q-57 0 -105.5 -21t-86 -57t-63.5 -84.5t-38 -103.5t-6.5 -103t28 -84t62 -56.5t96.5 -20.5q52 0 100.5 20.5t88 56t68 83t40.5 101.5z
M1450.67 1331.34q18.9697 0 29.2793 -10.9199t6.18555 -29.6406l-24.7422 -109.984q-1.65039 -7.80078 -6.59863 -15.6006q-4.94824 -7.80078 -12.3711 -14.4307q-7.42285 -6.63086 -16.4961 -10.5303q-9.07227 -3.90039 -18.9697 -3.90039h-537.748
q-20.6191 0 -29.6924 10.9209q-9.07227 10.9199 -4.12305 33.541l24.7422 109.984q4.12402 18.7207 18.1455 29.6406q14.0205 10.9199 34.6396 10.9199h537.749z" />
    <glyph glyph-name="Emacron" unicode="&#x112;" horiz-adv-x="1284" 
d="M467 1437q10 48 54 48h964q21 0 30 -9.5t9 -25.5q0 -4 -0.5 -7.5t-1.5 -8.5l-37 -176q-4 -18 -19.5 -32t-40.5 -14h-711l-64 -304h548h5q31 0 31 -29q0 -5 -2 -15l-38 -181q-4 -18 -17 -32t-35 -14h-550l-77 -364h737q21 0 29.5 -7t8.5 -21q0 -9 -3 -21l-39 -182
q-9 -42 -52 -42h-990q-16 0 -26.5 7.5t-10.5 23.5q0 7 1 11zM698 1841q7 35 42 35h725q36 0 29 -35l-22 -100q-2 -12 -14 -26t-30 -14h-725q-34 0 -27 40z" />
    <glyph glyph-name="emacron" unicode="&#x113;" horiz-adv-x="1064" 
d="M634 214q43 -1 88.5 12.5t89.5 35.5q18 8 34 18.5t27 10.5q16 0 28 -18l53 -125q6 -14 4 -26q-3 -15 -15.5 -26.5t-26.5 -21.5q-73 -49 -157.5 -73.5t-169.5 -24.5q-105 0 -189 40t-139 109.5t-76 163t2 200.5q15 69 46.5 134t76 122t99 104t114.5 81t123 53t125 19
q110 0 192 -39.5t132.5 -106.5t68 -154t-0.5 -181q-7 -36 -23 -58t-39 -34t-51.5 -16.5t-59.5 -4.5h-542q-5 -43 10 -79t41.5 -61.5t62 -39.5t72.5 -14zM916 580q8 42 -2 76.5t-34 58.5t-60 37t-81 13q-37 0 -76.5 -14.5t-74 -39.5t-62 -58.5t-40.5 -72.5h430zM492 1337
q7 35 42 35h725q36 0 29 -35l-22 -100q-2 -12 -14 -26t-30 -14h-725q-34 0 -27 40z" />
    <glyph glyph-name="Ebreve" unicode="&#x114;" horiz-adv-x="1284" 
d="M467 1437q10 48 54 48h964q21 0 30 -9.5t9 -25.5q0 -4 -0.5 -7.5t-1.5 -8.5l-37 -176q-4 -18 -19.5 -32t-40.5 -14h-711l-64 -304h548h5q31 0 31 -29q0 -5 -2 -15l-38 -181q-4 -18 -17 -32t-35 -14h-550l-77 -364h737q21 0 29.5 -7t8.5 -21q0 -9 -3 -21l-39 -182
q-9 -42 -52 -42h-990q-16 0 -26.5 7.5t-10.5 23.5q0 7 1 11zM1091 1713q-55 1 -98.5 21.5t-71.5 54t-39 76t-1 89.5q3 17 17 27.5t30 10.5h105q14 0 21 -9t4 -22q-6 -29 11.5 -51.5t62.5 -22.5q39 0 67 21.5t33 48.5q3 13 12 24t26 11h102q17 0 29 -9.5t8 -28.5
q-10 -47 -40 -90.5t-73 -76.5t-96 -53t-109 -21z" />
    <glyph glyph-name="ebreve" unicode="&#x115;" horiz-adv-x="1064" 
d="M634 214q43 -1 88.5 12.5t89.5 35.5q18 8 34 18.5t27 10.5q16 0 28 -18l53 -125q6 -14 4 -26q-3 -15 -15.5 -26.5t-26.5 -21.5q-73 -49 -157.5 -73.5t-169.5 -24.5q-105 0 -189 40t-139 109.5t-76 163t2 200.5q15 69 46.5 134t76 122t99 104t114.5 81t123 53t125 19
q110 0 192 -39.5t132.5 -106.5t68 -154t-0.5 -181q-7 -36 -23 -58t-39 -34t-51.5 -16.5t-59.5 -4.5h-542q-5 -43 10 -79t41.5 -61.5t62 -39.5t72.5 -14zM916 580q8 42 -2 76.5t-34 58.5t-60 37t-81 13q-37 0 -76.5 -14.5t-74 -39.5t-62 -58.5t-40.5 -72.5h430zM861 1209
q-55 1 -98.5 21.5t-71.5 54t-39 76t-1 89.5q3 17 17 27.5t30 10.5h105q14 0 21 -9t4 -22q-6 -29 11.5 -51.5t62.5 -22.5q39 0 67 21.5t33 48.5q3 13 12 24t26 11h102q17 0 29 -9.5t8 -28.5q-10 -47 -40 -90.5t-73 -76.5t-96 -53t-109 -21z" />
    <glyph glyph-name="Edotaccent" unicode="&#x116;" horiz-adv-x="1284" 
d="M467 1437q10 48 54 48h964q21 0 30 -9.5t9 -25.5q0 -4 -0.5 -7.5t-1.5 -8.5l-37 -176q-4 -18 -19.5 -32t-40.5 -14h-711l-64 -304h548h5q31 0 31 -29q0 -5 -2 -15l-38 -181q-4 -18 -17 -32t-35 -14h-550l-77 -364h737q21 0 29.5 -7t8.5 -21q0 -9 -3 -21l-39 -182
q-9 -42 -52 -42h-990q-16 0 -26.5 7.5t-10.5 23.5q0 7 1 11zM936 1792q6 29 22.5 55t40 45.5t51.5 30.5t57 11q30 0 53.5 -11t38.5 -30.5t20.5 -45.5t-0.5 -55t-22.5 -55t-39.5 -45t-51.5 -30t-58.5 -11q-29 0 -52.5 11t-38.5 30t-20.5 45t0.5 55z" />
    <glyph glyph-name="edotaccent" unicode="&#x117;" horiz-adv-x="1064" 
d="M634 214q43 -1 88.5 12.5t89.5 35.5q18 8 34 18.5t27 10.5q16 0 28 -18l53 -125q6 -14 4 -26q-3 -15 -15.5 -26.5t-26.5 -21.5q-73 -49 -157.5 -73.5t-169.5 -24.5q-105 0 -189 40t-139 109.5t-76 163t2 200.5q15 69 46.5 134t76 122t99 104t114.5 81t123 53t125 19
q110 0 192 -39.5t132.5 -106.5t68 -154t-0.5 -181q-7 -36 -23 -58t-39 -34t-51.5 -16.5t-59.5 -4.5h-542q-5 -43 10 -79t41.5 -61.5t62 -39.5t72.5 -14zM916 580q8 42 -2 76.5t-34 58.5t-60 37t-81 13q-37 0 -76.5 -14.5t-74 -39.5t-62 -58.5t-40.5 -72.5h430zM709 1311
q7 34 26.5 63.5t46 51.5t58.5 34.5t65 12.5q34 0 61 -12.5t44.5 -34.5t23 -51.5t-1.5 -63.5q-7 -33 -25.5 -62.5t-45 -51t-59 -34.5t-66.5 -13q-33 0 -59.5 13t-44 34.5t-24 51t0.5 62.5z" />
    <glyph glyph-name="Eogonek" unicode="&#x118;" horiz-adv-x="1284" 
d="M467 1437q10 48 54 48h964q21 0 30 -9.5t9 -25.5q0 -4 -0.5 -7.5t-1.5 -8.5l-37 -176q-4 -18 -19.5 -32t-40.5 -14h-711l-64 -304h548h5q31 0 31 -29q0 -5 -2 -15l-38 -181q-4 -18 -17 -32t-35 -14h-550l-77 -364h737q21 0 29.5 -7t8.5 -21q0 -9 -3 -21l-39 -182
q-9 -42 -52 -42h-990q-16 0 -26.5 7.5t-10.5 23.5q0 7 1 11zM1041 -506q-88 24 -140.5 54t-78.5 63t-31 68t3 71q8 37 31 65.5t52.5 51.5t63 42.5t62.5 39t50 41t27 47.5h168l-9 -42q-6 -30 -26.5 -53.5t-48 -43.5t-58.5 -37t-58 -34t-46.5 -35.5t-24.5 -40.5q-3 -15 3 -29
t23.5 -27.5t48.5 -25.5t78 -24q17 -4 18 -16.5t-2 -18.5l-56 -102q-6 -11 -16 -15.5t-33 1.5z" />
    <glyph glyph-name="eogonek" unicode="&#x119;" horiz-adv-x="1064" 
d="M634 214q43 -1 88.5 12.5t89.5 35.5q18 8 34 18.5t27 10.5q16 0 28 -18l53 -125q6 -14 4 -26q-3 -15 -15.5 -26.5t-26.5 -21.5q-73 -49 -157.5 -73.5t-169.5 -24.5q-105 0 -189 40t-139 109.5t-76 163t2 200.5q15 69 46.5 134t76 122t99 104t114.5 81t123 53t125 19
q110 0 192 -39.5t132.5 -106.5t68 -154t-0.5 -181q-7 -36 -23 -58t-39 -34t-51.5 -16.5t-59.5 -4.5h-542q-5 -43 10 -79t41.5 -61.5t62 -39.5t72.5 -14zM916 580q8 42 -2 76.5t-34 58.5t-60 37t-81 13q-37 0 -76.5 -14.5t-74 -39.5t-62 -58.5t-40.5 -72.5h430zM537 -530
q-88 24 -140.5 54t-78.5 63t-31 68t3 71q8 37 31 65.5t52.5 51.5t63 42.5t62.5 39t50 41t27 47.5h168l-9 -42q-6 -30 -26.5 -53.5t-48 -43.5t-58.5 -37t-58 -34t-46.5 -35.5t-24.5 -40.5q-3 -15 3 -29t23.5 -27.5t48.5 -25.5t78 -24q17 -4 18 -16.5t-2 -18.5l-56 -102
q-6 -11 -16 -15.5t-33 1.5z" />
    <glyph glyph-name="Ecaron" unicode="&#x11a;" horiz-adv-x="1284" 
d="M467 1437q10 48 54 48h964q21 0 30 -9.5t9 -25.5q0 -4 -0.5 -7.5t-1.5 -8.5l-37 -176q-4 -18 -19.5 -32t-40.5 -14h-711l-64 -304h548h5q31 0 31 -29q0 -5 -2 -15l-38 -181q-4 -18 -17 -32t-35 -14h-550l-77 -364h737q21 0 29.5 -7t8.5 -21q0 -9 -3 -21l-39 -182
q-9 -42 -52 -42h-990q-16 0 -26.5 7.5t-10.5 23.5q0 7 1 11zM830 1919q-2 3 -4.5 11t-0.5 14q1 10 9 16l33 27l74 58q24 19 43 -6l127 -163l186 155q10 8 21 13.5t18 5.5q11 0 21 -10.5t18 -21.5l45 -54q3 -5 5.5 -10t0.5 -12t-6 -13.5t-9 -10.5l-327 -269q-6 -4 -12 -7
t-11 -3q-7 0 -11 3t-9 7z" />
    <glyph glyph-name="ecaron" unicode="&#x11b;" horiz-adv-x="1064" 
d="M634 214q43 -1 88.5 12.5t89.5 35.5q18 8 34 18.5t27 10.5q16 0 28 -18l53 -125q6 -14 4 -26q-3 -15 -15.5 -26.5t-26.5 -21.5q-73 -49 -157.5 -73.5t-169.5 -24.5q-105 0 -189 40t-139 109.5t-76 163t2 200.5q15 69 46.5 134t76 122t99 104t114.5 81t123 53t125 19
q110 0 192 -39.5t132.5 -106.5t68 -154t-0.5 -181q-7 -36 -23 -58t-39 -34t-51.5 -16.5t-59.5 -4.5h-542q-5 -43 10 -79t41.5 -61.5t62 -39.5t72.5 -14zM916 580q8 42 -2 76.5t-34 58.5t-60 37t-81 13q-37 0 -76.5 -14.5t-74 -39.5t-62 -58.5t-40.5 -72.5h430zM587 1415
q-2 3 -4.5 11t-0.5 14q1 10 9 16l33 27l74 58q24 19 43 -6l127 -163l186 155q10 8 21 13.5t18 5.5q11 0 21 -10.5t18 -21.5l45 -54q3 -5 5.5 -10t0.5 -12t-6 -13.5t-9 -10.5l-327 -269q-6 -4 -12 -7t-11 -3q-7 0 -11 3t-9 7z" />
    <glyph glyph-name="Gcircumflex" unicode="&#x11c;" horiz-adv-x="1452" 
d="M1217 621q4 20 18 32t36 12h163q14 0 26 -9t12 -26q0 -6 -1 -9l-97 -459v-1q0 -3 -1 -6t-5 -8.5t-12 -12.5t-22 -17q-53 -33 -112.5 -59t-122.5 -43.5t-127 -27t-126 -9.5q-138 0 -251.5 45.5t-195 126.5t-126.5 191.5t-45 239.5q0 122 37 238t102.5 219t155 189t194 148
t220.5 96.5t235 34.5q71 0 138.5 -12.5t128.5 -37.5q22 -9 51.5 -23.5t56 -32t45 -35.5t18.5 -35q0 -5 -11 -22t-28.5 -39.5t-39 -47.5t-42 -46t-38 -34.5t-27.5 -13.5q-6 0 -13.5 2.5t-15.5 9.5q-54 44 -128 70t-155 26q-79 0 -154.5 -23t-142.5 -64.5t-123 -97.5
t-96 -122.5t-62.5 -140.5t-22.5 -150q0 -83 28.5 -154t80 -123t123.5 -81t158 -29q37 0 74 5.5t70 14t60.5 19t45.5 20.5zM1240 2059q5 4 11 6.5t13 2.5q9 0 19 -10l106 -134t106 -135q3 -3 5.5 -9.5t0.5 -14.5q-2 -6 -6.5 -11t-9.5 -10l-68 -55q-11 -10 -26 -21t-28 -11
q-3 0 -10 1.5t-20 18.5l-119 154l-188 -155q-8 -7 -18 -12.5t-21 -5.5t-20.5 11t-18.5 20l-43 53q-11 13 -5 30q4 10 15 17z" />
    <glyph glyph-name="gcircumflex" unicode="&#x11d;" horiz-adv-x="1192" 
d="M785 -20q7 13 14.5 35.5t14.5 47.5t12.5 49.5t9.5 41.5q-22 -28 -50 -55.5t-62 -49t-74.5 -34.5t-87.5 -13q-104 0 -185 36.5t-131.5 101.5t-67.5 154.5t6 196.5q22 105 78 197t134.5 160t175.5 107t201 39q48 0 88.5 -13t70.5 -35t47.5 -51.5t19.5 -62.5l49 92
q7 13 13.5 23.5t14 18t18 11.5t25.5 4h115q21 0 38 -14.5t11 -42.5l-180 -845q-26 -120 -84.5 -212.5t-140.5 -155.5t-181.5 -96t-206.5 -33q-41 0 -87.5 6t-91.5 19.5t-85 35t-67 51.5q-9 8 -14 21t-2 29q2 9 7 19t16 21l104 108q13 11 23 17t21 6q16 0 39 -18
q15 -18 38 -29.5t48 -18t50 -8.5t46 -2q34 0 71.5 9.5t71.5 27.5t62.5 44t44.5 60zM461 491q-11 -51 -4.5 -95.5t28.5 -77t59 -51t87 -18.5q49 0 97.5 19t88.5 52t68.5 76.5t38.5 91.5t0.5 93t-35 79t-65.5 54.5t-89 20.5q-50 0 -95.5 -19.5t-81.5 -53t-61.5 -78
t-35.5 -93.5zM868 1537q5 4 11 6.5t13 2.5q9 0 19 -10l106 -134t106 -135q3 -3 5.5 -9.5t0.5 -14.5q-2 -6 -6.5 -11t-9.5 -10l-68 -55q-11 -10 -26 -21t-28 -11q-3 0 -10 1.5t-20 18.5l-119 154l-188 -155q-8 -7 -18 -12.5t-21 -5.5t-20.5 11t-18.5 20l-43 53q-11 13 -5 30
q4 10 15 17z" />
    <glyph glyph-name="Gbreve" unicode="&#x11e;" horiz-adv-x="1452" 
d="M1217 621q4 20 18 32t36 12h163q14 0 26 -9t12 -26q0 -6 -1 -9l-97 -459v-1q0 -3 -1 -6t-5 -8.5t-12 -12.5t-22 -17q-53 -33 -112.5 -59t-122.5 -43.5t-127 -27t-126 -9.5q-138 0 -251.5 45.5t-195 126.5t-126.5 191.5t-45 239.5q0 122 37 238t102.5 219t155 189t194 148
t220.5 96.5t235 34.5q71 0 138.5 -12.5t128.5 -37.5q22 -9 51.5 -23.5t56 -32t45 -35.5t18.5 -35q0 -5 -11 -22t-28.5 -39.5t-39 -47.5t-42 -46t-38 -34.5t-27.5 -13.5q-6 0 -13.5 2.5t-15.5 9.5q-54 44 -128 70t-155 26q-79 0 -154.5 -23t-142.5 -64.5t-123 -97.5
t-96 -122.5t-62.5 -140.5t-22.5 -150q0 -83 28.5 -154t80 -123t123.5 -81t158 -29q37 0 74 5.5t70 14t60.5 19t45.5 20.5zM1214 1713q-55 1 -98.5 21.5t-71.5 54t-39 76t-1 89.5q3 17 17 27.5t30 10.5h105q14 0 21 -9t4 -22q-6 -29 11.5 -51.5t62.5 -22.5q39 0 67 21.5
t33 48.5q3 13 12 24t26 11h102q17 0 29 -9.5t8 -28.5q-10 -47 -40 -90.5t-73 -76.5t-96 -53t-109 -21z" />
    <glyph glyph-name="gbreve" unicode="&#x11f;" horiz-adv-x="1192" 
d="M785 -20q7 13 14.5 35.5t14.5 47.5t12.5 49.5t9.5 41.5q-22 -28 -50 -55.5t-62 -49t-74.5 -34.5t-87.5 -13q-104 0 -185 36.5t-131.5 101.5t-67.5 154.5t6 196.5q22 105 78 197t134.5 160t175.5 107t201 39q48 0 88.5 -13t70.5 -35t47.5 -51.5t19.5 -62.5l49 92
q7 13 13.5 23.5t14 18t18 11.5t25.5 4h115q21 0 38 -14.5t11 -42.5l-180 -845q-26 -120 -84.5 -212.5t-140.5 -155.5t-181.5 -96t-206.5 -33q-41 0 -87.5 6t-91.5 19.5t-85 35t-67 51.5q-9 8 -14 21t-2 29q2 9 7 19t16 21l104 108q13 11 23 17t21 6q16 0 39 -18
q15 -18 38 -29.5t48 -18t50 -8.5t46 -2q34 0 71.5 9.5t71.5 27.5t62.5 44t44.5 60zM461 491q-11 -51 -4.5 -95.5t28.5 -77t59 -51t87 -18.5q49 0 97.5 19t88.5 52t68.5 76.5t38.5 91.5t0.5 93t-35 79t-65.5 54.5t-89 20.5q-50 0 -95.5 -19.5t-81.5 -53t-61.5 -78
t-35.5 -93.5zM830 1209q-55 1 -98.5 21.5t-71.5 54t-39 76t-1 89.5q3 17 17 27.5t30 10.5h105q14 0 21 -9t4 -22q-6 -29 11.5 -51.5t62.5 -22.5q39 0 67 21.5t33 48.5q3 13 12 24t26 11h102q17 0 29 -9.5t8 -28.5q-10 -47 -40 -90.5t-73 -76.5t-96 -53t-109 -21z" />
    <glyph glyph-name="Gdotaccent" unicode="&#x120;" horiz-adv-x="1452" 
d="M1217 621q4 20 18 32t36 12h163q14 0 26 -9t12 -26q0 -6 -1 -9l-97 -459v-1q0 -3 -1 -6t-5 -8.5t-12 -12.5t-22 -17q-53 -33 -112.5 -59t-122.5 -43.5t-127 -27t-126 -9.5q-138 0 -251.5 45.5t-195 126.5t-126.5 191.5t-45 239.5q0 122 37 238t102.5 219t155 189t194 148
t220.5 96.5t235 34.5q71 0 138.5 -12.5t128.5 -37.5q22 -9 51.5 -23.5t56 -32t45 -35.5t18.5 -35q0 -5 -11 -22t-28.5 -39.5t-39 -47.5t-42 -46t-38 -34.5t-27.5 -13.5q-6 0 -13.5 2.5t-15.5 9.5q-54 44 -128 70t-155 26q-79 0 -154.5 -23t-142.5 -64.5t-123 -97.5
t-96 -122.5t-62.5 -140.5t-22.5 -150q0 -83 28.5 -154t80 -123t123.5 -81t158 -29q37 0 74 5.5t70 14t60.5 19t45.5 20.5zM1094 1816q7 34 26.5 63.5t46 51.5t58.5 34.5t65 12.5q34 0 61 -12.5t44.5 -34.5t23 -51.5t-1.5 -63.5q-7 -33 -25.5 -62.5t-45 -51t-59 -34.5
t-66.5 -13q-33 0 -59.5 13t-44 34.5t-24 51t0.5 62.5z" />
    <glyph glyph-name="gdotaccent" unicode="&#x121;" horiz-adv-x="1192" 
d="M785 -20q7 13 14.5 35.5t14.5 47.5t12.5 49.5t9.5 41.5q-22 -28 -50 -55.5t-62 -49t-74.5 -34.5t-87.5 -13q-104 0 -185 36.5t-131.5 101.5t-67.5 154.5t6 196.5q22 105 78 197t134.5 160t175.5 107t201 39q48 0 88.5 -13t70.5 -35t47.5 -51.5t19.5 -62.5l49 92
q7 13 13.5 23.5t14 18t18 11.5t25.5 4h115q21 0 38 -14.5t11 -42.5l-180 -845q-26 -120 -84.5 -212.5t-140.5 -155.5t-181.5 -96t-206.5 -33q-41 0 -87.5 6t-91.5 19.5t-85 35t-67 51.5q-9 8 -14 21t-2 29q2 9 7 19t16 21l104 108q13 11 23 17t21 6q16 0 39 -18
q15 -18 38 -29.5t48 -18t50 -8.5t46 -2q34 0 71.5 9.5t71.5 27.5t62.5 44t44.5 60zM461 491q-11 -51 -4.5 -95.5t28.5 -77t59 -51t87 -18.5q49 0 97.5 19t88.5 52t68.5 76.5t38.5 91.5t0.5 93t-35 79t-65.5 54.5t-89 20.5q-50 0 -95.5 -19.5t-81.5 -53t-61.5 -78
t-35.5 -93.5zM744 1311q7 34 26.5 63.5t46 51.5t58.5 34.5t65 12.5q34 0 61 -12.5t44.5 -34.5t23 -51.5t-1.5 -63.5q-7 -33 -25.5 -62.5t-45 -51t-59 -34.5t-66.5 -13q-33 0 -59.5 13t-44 34.5t-24 51t0.5 62.5z" />
    <glyph glyph-name="Gcommaaccent" unicode="&#x122;" horiz-adv-x="1452" 
d="M1217 621q4 20 18 32t36 12h163q14 0 26 -9t12 -26q0 -6 -1 -9l-97 -459v-1q0 -3 -1 -6t-5 -8.5t-12 -12.5t-22 -17q-53 -33 -112.5 -59t-122.5 -43.5t-127 -27t-126 -9.5q-138 0 -251.5 45.5t-195 126.5t-126.5 191.5t-45 239.5q0 122 37 238t102.5 219t155 189t194 148
t220.5 96.5t235 34.5q71 0 138.5 -12.5t128.5 -37.5q22 -9 51.5 -23.5t56 -32t45 -35.5t18.5 -35q0 -5 -11 -22t-28.5 -39.5t-39 -47.5t-42 -46t-38 -34.5t-27.5 -13.5q-6 0 -13.5 2.5t-15.5 9.5q-54 44 -128 70t-155 26q-79 0 -154.5 -23t-142.5 -64.5t-123 -97.5
t-96 -122.5t-62.5 -140.5t-22.5 -150q0 -83 28.5 -154t80 -123t123.5 -81t158 -29q37 0 74 5.5t70 14t60.5 19t45.5 20.5zM658 -298q7 33 25.5 62t44.5 50t57.5 33t63.5 12q34 0 60.5 -12t42.5 -34.5t21 -54t-3 -69.5q-18 -83 -47 -144.5t-60.5 -102t-60 -60.5t-43.5 -20
q-10 0 -22.5 7t-23 18t-17 23.5t-4.5 24.5q2 10 12 22.5t21 26.5t21 27.5t12 24.5l2 9q-26 4 -47.5 18.5t-35.5 35.5t-19.5 47.5t0.5 55.5z" />
    <glyph glyph-name="gcommaaccent" unicode="&#x123;" horiz-adv-x="1192" 
d="M785 -20q7 13 14.5 35.5t14.5 47.5t12.5 49.5t9.5 41.5q-22 -28 -50 -55.5t-62 -49t-74.5 -34.5t-87.5 -13q-104 0 -185 36.5t-131.5 101.5t-67.5 154.5t6 196.5q22 105 78 197t134.5 160t175.5 107t201 39q48 0 88.5 -13t70.5 -35t47.5 -51.5t19.5 -62.5l49 92
q7 13 13.5 23.5t14 18t18 11.5t25.5 4h115q21 0 38 -14.5t11 -42.5l-180 -845q-26 -120 -84.5 -212.5t-140.5 -155.5t-181.5 -96t-206.5 -33q-41 0 -87.5 6t-91.5 19.5t-85 35t-67 51.5q-9 8 -14 21t-2 29q2 9 7 19t16 21l104 108q13 11 23 17t21 6q16 0 39 -18
q15 -18 38 -29.5t48 -18t50 -8.5t46 -2q34 0 71.5 9.5t71.5 27.5t62.5 44t44.5 60zM461 491q-11 -51 -4.5 -95.5t28.5 -77t59 -51t87 -18.5q49 0 97.5 19t88.5 52t68.5 76.5t38.5 91.5t0.5 93t-35 79t-65.5 54.5t-89 20.5q-50 0 -95.5 -19.5t-81.5 -53t-61.5 -78
t-35.5 -93.5zM1030.01 1274.96q-6.99902 -32.9961 -25.4971 -61.9932q-18.4971 -28.9961 -44.4941 -49.9932q-25.9971 -20.998 -57.4932 -32.9961q-31.4961 -11.999 -63.4922 -11.999q-33.9961 0 -60.4932 11.999q-26.4961 11.998 -42.4941 34.4961
q-15.998 22.4971 -20.998 53.9932q-4.99902 31.4961 3 69.4912q17.998 82.9902 46.9941 144.482q28.9971 61.4922 60.4932 101.987t59.9922 60.4932q28.4961 19.9971 43.4951 19.9971q9.99805 0 22.4971 -6.99902q12.498 -6.99902 22.9971 -17.998
q10.499 -10.998 16.998 -23.4971q6.49902 -12.498 4.49902 -24.4971q-2 -9.99805 -11.998 -22.4971q-9.99902 -12.498 -20.998 -26.4961q-10.998 -13.999 -20.9971 -27.4971t-11.999 -24.4971l-1.99902 -8.99902q25.9971 -3.99902 47.4941 -18.498
q21.4971 -14.498 35.4951 -35.4951q13.999 -20.998 19.498 -47.4941q5.49902 -26.4971 -0.5 -55.4932z" />
    <glyph glyph-name="Hcircumflex" unicode="&#x124;" horiz-adv-x="1583" 
d="M468 1441q3 15 18 29.5t33 14.5h207q14 0 26 -10.5t12 -26.5q0 -2 -0.5 -3.5t-0.5 -3.5l-110 -517h662l110 517q4 18 19.5 31t35.5 13h198q17 0 30 -10t13 -27q0 -2 -0.5 -3.5t-0.5 -3.5l-297 -1397q-9 -44 -60 -44h-198q-16 0 -27 8.5t-11 25.5q0 6 1 10l129 607h-662
l-129 -607q-5 -20 -21.5 -32t-38.5 -12h-202q-35 0 -35 29q0 5 2 15zM1188 2059q5 4 11 6.5t13 2.5q9 0 19 -10l106 -134t106 -135q3 -3 5.5 -9.5t0.5 -14.5q-2 -6 -6.5 -11t-9.5 -10l-68 -55q-11 -10 -26 -21t-28 -11q-3 0 -10 1.5t-20 18.5l-119 154l-188 -155
q-8 -7 -18 -12.5t-21 -5.5t-20.5 11t-18.5 20l-43 53q-11 13 -5 30q4 10 15 17z" />
    <glyph glyph-name="hcircumflex" unicode="&#x125;" horiz-adv-x="1229" 
d="M594 864q25 23 63 46.5t83 43t94.5 31.5t96.5 12q91 0 155 -32.5t101.5 -89.5t48 -133.5t-4.5 -164.5q-1 -5 -2 -11t-2 -11l-107 -504q-5 -25 -21.5 -38t-37.5 -13h-166q-27 0 -35 12t-3 37l107 505q9 40 1.5 75.5t-27.5 62t-51.5 42t-71.5 15.5q-37 0 -83 -13t-88 -37.5
t-74 -61t-42 -84.5l-108 -509q-7 -28 -28.5 -36t-42.5 -8h-149q-52 0 -43 47l296 1389q5 21 19.5 34.5t39.5 13.5h163q22 0 34 -11t7 -37zM1025 1927q5 4 11 6.5t13 2.5q9 0 19 -10l106 -134t106 -135q3 -3 5.5 -9.5t0.5 -14.5q-2 -6 -6.5 -11t-9.5 -10l-68 -55
q-11 -10 -26 -21t-28 -11q-3 0 -10 1.5t-20 18.5l-119 154l-188 -155q-8 -7 -18 -12.5t-21 -5.5t-20.5 11t-18.5 20l-43 53q-11 13 -5 30q4 10 15 17z" />
    <glyph glyph-name="Hbar" unicode="&#x126;" horiz-adv-x="1548" 
d="M720 1229h660l43 202q5 23 23 38.5t43 15.5h184q23 0 37.5 -14t9.5 -39l-293 -1378q-5 -26 -23 -40t-44 -14h-186q-26 0 -37.5 14t-6.5 40l111 521h-660l-111 -521q-11 -54 -70 -54h-185q-51 0 -42 51l294 1380q5 22 21.5 38t41.5 16h188q10 0 19 -4t15.5 -11.5
t9.5 -17.5t1 -21zM1327 980h-660l-31 -146h660z" />
    <glyph glyph-name="hbar" unicode="&#x127;" horiz-adv-x="1229" 
d="M420 46q-6 -29 -27.5 -37.5t-43.5 -8.5h-149q-52 0 -43 47l224 1050h-116q-44 0 -34 49l23 106q9 44 53 44h116l30 140q5 21 19.5 34.5t39.5 13.5h161q21 0 34.5 -11.5t8.5 -36.5l-30 -140h124q18 0 29 -11.5t6 -32.5l-23 -106q-3 -15 -18.5 -32t-35.5 -17h-124l-50 -233
q25 23 65.5 46.5t87 43t95 31.5t89.5 12q91 0 155 -32.5t101.5 -89.5t48 -133.5t-4.5 -164.5q-5 -27 -10.5 -54.5t-11.5 -55.5l-89 -416q-5 -25 -21.5 -38t-37.5 -13h-166q-27 0 -35 12t-3 37l107 505q8 36 -1 62q-1 29 -12.5 53.5t-31 42t-46.5 27.5t-58 10
q-36 0 -80.5 -14t-86 -39t-74 -59t-44.5 -74l-110 -517v0z" />
    <glyph glyph-name="Itilde" unicode="&#x128;" horiz-adv-x="618" 
d="M468 1441q4 18 17.5 31t35.5 13h202q14 0 27.5 -10t13.5 -27q0 -2 -0.5 -3.5t-0.5 -3.5l-297 -1397q-9 -44 -58 -44h-202q-37 0 -37 30q0 4 2 14zM531 1743q-23 0 -45.5 -16.5t-43.5 -34t-39 -26.5t-32 6l-55 65q-11 13 -6 23.5t17 24.5l25 26q101 101 219 101
q33 -2 67 -14.5t61 -33.5l47 -36q22 -18 48 -18q43 0 76 29q6 6 14 14.5t17 17t18 14.5t18 6q8 0 18 -8l59 -71q7 -12 5 -23q-2 -5 -7 -12t-7 -9l-35 -35q-49 -45 -102 -68.5t-110 -23.5q-36 0 -69 12.5t-59 34.5q-11 9 -22.5 18.5t-24 17.5t-25.5 13.5t-27 5.5z" />
    <glyph glyph-name="itilde" unicode="&#x129;" horiz-adv-x="576" 
d="M423 47q-9 -47 -59 -47h-167q-47 0 -38 47l189 888q5 20 19.5 34t37.5 14h167q18 0 31.5 -13.5t8.5 -34.5zM425 1239q-23 0 -45.5 -16.5t-43.5 -34t-39 -26.5t-32 6l-55 65q-11 13 -6 23.5t17 24.5l25 26q101 101 219 101q33 -2 67 -14.5t61 -33.5l47 -36q22 -18 48 -18
q43 0 76 29q6 6 14 14.5t17 17t18 14.5t18 6q8 0 18 -8l59 -71q7 -12 5 -23q-2 -5 -7 -12t-7 -9l-35 -35q-49 -45 -102 -68.5t-110 -23.5q-36 0 -69 12.5t-59 34.5q-11 9 -22.5 18.5t-24 17.5t-25.5 13.5t-27 5.5z" />
    <glyph glyph-name="Imacron" unicode="&#x12a;" horiz-adv-x="618" 
d="M468 1441q4 18 17.5 31t35.5 13h202q14 0 27.5 -10t13.5 -27q0 -2 -0.5 -3.5t-0.5 -3.5l-297 -1397q-9 -44 -58 -44h-202q-37 0 -37 30q0 4 2 14zM304 1841q7 35 42 35h725q36 0 29 -35l-22 -100q-2 -12 -14 -26t-30 -14h-725q-34 0 -27 40z" />
    <glyph glyph-name="imacron" unicode="&#x12b;" horiz-adv-x="576" 
d="M423 47q-9 -47 -59 -47h-167q-47 0 -38 47l189 888q5 20 19.5 34t37.5 14h167q18 0 31.5 -13.5t8.5 -34.5zM157 1337q7 35 42 35h725q36 0 29 -35l-22 -100q-2 -12 -14 -26t-30 -14h-725q-34 0 -27 40z" />
    <glyph glyph-name="Ibreve" unicode="&#x12c;" horiz-adv-x="618" 
d="M468 1441q4 18 17.5 31t35.5 13h202q14 0 27.5 -10t13.5 -27q0 -2 -0.5 -3.5t-0.5 -3.5l-297 -1397q-9 -44 -58 -44h-202q-37 0 -37 30q0 4 2 14zM650 1713q-55 1 -98.5 21.5t-71.5 54t-39 76t-1 89.5q3 17 17 27.5t30 10.5h105q14 0 21 -9t4 -22q-6 -29 11.5 -51.5
t62.5 -22.5q39 0 67 21.5t33 48.5q3 13 12 24t26 11h102q17 0 29 -9.5t8 -28.5q-10 -47 -40 -90.5t-73 -76.5t-96 -53t-109 -21z" />
    <glyph glyph-name="ibreve" unicode="&#x12d;" horiz-adv-x="576" 
d="M423 47q-9 -47 -59 -47h-167q-47 0 -38 47l189 888q5 20 19.5 34t37.5 14h167q18 0 31.5 -13.5t8.5 -34.5zM544 1209q-55 1 -98.5 21.5t-71.5 54t-39 76t-1 89.5q3 17 17 27.5t30 10.5h105q14 0 21 -9t4 -22q-6 -29 11.5 -51.5t62.5 -22.5q39 0 67 21.5t33 48.5
q3 13 12 24t26 11h102q17 0 29 -9.5t8 -28.5q-10 -47 -40 -90.5t-73 -76.5t-96 -53t-109 -21z" />
    <glyph glyph-name="Iogonek" unicode="&#x12e;" horiz-adv-x="618" 
d="M468 1441q4 18 17.5 31t35.5 13h202q14 0 27.5 -10t13.5 -27q0 -2 -0.5 -3.5t-0.5 -3.5l-297 -1397q-9 -44 -58 -44h-202q-37 0 -37 30q0 4 2 14zM183 -523q-88 24 -140.5 54t-78.5 63t-31 68t3 71q8 37 31 65.5t52.5 51.5t63 42.5t62.5 39t50 41t27 47.5h168l-9 -42
q-6 -30 -26.5 -53.5t-48 -43.5t-58.5 -37t-58 -34t-46.5 -35.5t-24.5 -40.5q-3 -15 3 -29t23.5 -27.5t48.5 -25.5t78 -24q17 -4 18 -16.5t-2 -18.5l-56 -102q-6 -11 -16 -15.5t-33 1.5z" />
    <glyph glyph-name="iogonek" unicode="&#x12f;" horiz-adv-x="618" 
d="M423 47q-9 -47 -59 -47h-167q-47 0 -38 47l189 888q5 20 19.5 34t37.5 14h167q18 0 31.5 -13.5t8.5 -34.5zM396 1275q7 32 25 60t43 49t55 33t62 12q33 0 58.5 -12t42 -33t22.5 -49t-1 -60t-24.5 -59.5t-42.5 -48.5t-56 -33t-64 -12q-32 0 -57 12t-41.5 33t-22.5 48.5
t1 59.5zM158 -530q-88 24 -140.5 54t-78.5 63t-31 68t3 71q8 37 31 65.5t52.5 51.5t63 42.5t62.5 39t50 41t27 47.5h168l-9 -42q-6 -30 -26.5 -53.5t-48 -43.5t-58.5 -37t-58 -34t-46.5 -35.5t-24.5 -40.5q-3 -15 3 -29t23.5 -27.5t48.5 -25.5t78 -24q17 -4 18 -16.5
t-2 -18.5l-56 -102q-6 -11 -16 -15.5t-33 1.5z" />
    <glyph glyph-name="Idotaccent" unicode="&#x130;" horiz-adv-x="618" 
d="M468 1441q4 18 17.5 31t35.5 13h202q14 0 27.5 -10t13.5 -27q0 -2 -0.5 -3.5t-0.5 -3.5l-297 -1397q-9 -44 -58 -44h-202q-37 0 -37 30q0 4 2 14zM524 1815q7 34 26.5 63.5t46 51.5t58.5 34.5t65 12.5q34 0 61 -12.5t44.5 -34.5t23 -51.5t-1.5 -63.5q-7 -33 -25.5 -62.5
t-45 -51t-59 -34.5t-66.5 -13q-33 0 -59.5 13t-44 34.5t-24 51t0.5 62.5z" />
    <glyph glyph-name="dotlessi" unicode="&#x131;" horiz-adv-x="576" 
d="M423 47q-9 -47 -59 -47h-167q-47 0 -38 47l189 888q5 20 19.5 34t37.5 14h167q18 0 31.5 -13.5t8.5 -34.5z" />
    <glyph glyph-name="IJ" unicode="&#x132;" horiz-adv-x="1198" 
d="M546 -393q-50 0 -93 11.5t-80.5 32.5t-69.5 50t-60 64q-13 16 -11 31.5t22 32.5l143 129q11 10 21 12t20.5 -2t22.5 -12.5t27 -18.5h-1q20 -12 48.5 -26t72.5 -14q25 0 50 9.5t46.5 26.5t37.5 40.5t22 50.5l299 1409q5 23 21 37t41 15h186q28 0 40.5 -15t6.5 -43
l-288 -1352q-5 -27 -12.5 -53.5t-15.5 -53.5q-26 -77 -77 -142.5t-117.5 -114.5t-144.5 -76.5t-157 -27.5zM470 54q-11 -54 -68 -54h-184q-55 0 -44 54l293 1377q5 23 22.5 38.5t43.5 15.5h184q23 0 37 -15t9 -39z" />
    <glyph glyph-name="ij" unicode="&#x133;" horiz-adv-x="1097" 
d="M485 -407q-26 0 -37 14t-6 38l27 128q5 23 21.5 36.5t38.5 13.5h4q25 1 49.5 12t44.5 29.5t35 43t21 51.5l206 972q5 25 23 38t41 13h158q24 0 35.5 -14t6.5 -37l-193 -910q-5 -23 -10.5 -46t-12.5 -45q-23 -75 -68 -136.5t-105 -106t-131.5 -69t-147.5 -25.5zM938 1275
q7 32 25 60t43 49t55 33t62 12q33 0 58.5 -12t42 -33t22.5 -49t-1 -60t-24.5 -59.5t-42.5 -48.5t-56 -33t-64 -12q-32 0 -57 12t-41.5 33t-22.5 48.5t1 59.5zM425 47q-9 -47 -59 -47h-167q-47 0 -38 47l189 888q5 20 19.5 34t37.5 14h167q18 0 31.5 -13.5t8.5 -34.5z
M398 1275q7 32 25 60t43 49t55 33t62 12q33 0 58.5 -12t42 -33t22.5 -49t-1 -60t-24.5 -59.5t-42.5 -48.5t-56 -33t-64 -12q-32 0 -57 12t-41.5 33t-22.5 48.5t1 59.5z" />
    <glyph glyph-name="Jcircumflex" unicode="&#x134;" horiz-adv-x="910" 
d="M338 -22q-99 0 -178.5 39t-126.5 117q-2 3 -3 5.5t-1 7.5q-1 17 7 30.5t22 25.5l124 111q14 13 25 17.5t19 4.5q13 0 24 -12t27.5 -26.5t42.5 -26.5t68 -12q28 0 55.5 11t50.5 29.5t39 43t22 52.5l221 1038q5 23 21 37.5t41 14.5h188q22 0 34.5 -11t12.5 -31
q0 -4 -0.5 -7.5t-1.5 -8.5l-210 -989q-5 -23 -11 -46.5t-14 -44.5q-27 -77 -78.5 -144.5t-118 -117.5t-144 -78.5t-157.5 -28.5zM963 2059q5 4 11 6.5t13 2.5q9 0 19 -10l106 -134t106 -135q3 -3 5.5 -9.5t0.5 -14.5q-2 -6 -6.5 -11t-9.5 -10l-68 -55q-11 -10 -26 -21
t-28 -11q-3 0 -10 1.5t-20 18.5l-119 154l-188 -155q-8 -7 -18 -12.5t-21 -5.5t-20.5 11t-18.5 20l-43 53q-11 13 -5 30q4 10 15 17z" />
    <glyph glyph-name="jcircumflex" unicode="&#x135;" horiz-adv-x="565" 
d="M597 1549q5 4 11 6.5t13 2.5q9 0 19 -10l106 -134t106 -135q3 -3 5.5 -9.5t0.5 -14.5q-2 -6 -6.5 -11t-9.5 -10l-68 -55q-11 -10 -26 -21t-28 -11q-3 0 -10 1.5t-20 18.5l-119 154l-188 -155q-8 -7 -18 -12.5t-21 -5.5t-20.5 11t-18.5 20l-43 53q-11 13 -5 30q4 10 15 17
zM-47 -407q-26 0 -37 14t-6 38l27 128q5 23 21.5 36.5t38.5 13.5h4q25 1 49.5 12t44.5 29.5t35 43t21 51.5l206 972q5 25 23 38t41 13h158q24 0 35.5 -14t6.5 -37l-193 -910q-5 -23 -10.5 -46t-12.5 -45q-23 -75 -68 -136.5t-105 -106t-131.5 -69t-147.5 -25.5z" />
    <glyph glyph-name="Kcommaaccent" unicode="&#x136;" horiz-adv-x="1468" 
d="M468 1441q4 18 18 31t35 13h203q13 0 26.5 -10t13.5 -27q0 -2 -0.5 -3.5t-0.5 -3.5l-126 -594l690 607q26 31 50 31h286q25 0 25 -12q-3 -8 -17 -21l-687 -623l442 -789q9 -17 9 -26q0 -14 -23 -14h-271q-24 0 -38 31l-343 599l-207 -176l-87 -410q-9 -44 -57 -44h-203
q-37 0 -37 31q0 3 0.5 6t1.5 7zM504 -298q7 33 25.5 62t44.5 50t57.5 33t63.5 12q34 0 60.5 -12t42.5 -34.5t21 -54t-3 -69.5q-18 -83 -47 -144.5t-60.5 -102t-60 -60.5t-43.5 -20q-10 0 -22.5 7t-23 18t-17 23.5t-4.5 24.5q2 10 12 22.5t21 26.5t21 27.5t12 24.5l2 9
q-26 4 -47.5 18.5t-35.5 35.5t-19.5 47.5t0.5 55.5z" />
    <glyph glyph-name="kcommaaccent" unicode="&#x137;" horiz-adv-x="1146" 
d="M453 1426q3 13 6 24t10 18.5t20 12t36 4.5h167q15 0 23.5 -5t12.5 -13t4 -17t-2 -16l-167 -787l342 308q25 22 53 22h236q20 0 29 -9t6 -24q-2 -8 -5.5 -14t-14.5 -15l-387 -334l289 -511h-2q8 -10 10.5 -20.5t0.5 -18.5q-4 -18 -14.5 -24.5t-30.5 -6.5h-260
q-23 0 -42 40l-175 356l-105 -88l-53 -249q-2 -6 -6 -16t-11.5 -19.5t-18.5 -16.5t-27 -7h-176q-14 0 -22.5 7.5t-12.5 17t-5 17.5t-1 9zM363 -298q7 33 25.5 62t44.5 50t57.5 33t63.5 12q34 0 60.5 -12t42.5 -34.5t21 -54t-3 -69.5q-18 -83 -47 -144.5t-60.5 -102
t-60 -60.5t-43.5 -20q-10 0 -22.5 7t-23 18t-17 23.5t-4.5 24.5q2 10 12 22.5t21 26.5t21 27.5t12 24.5l2 9q-26 4 -47.5 18.5t-35.5 35.5t-19.5 47.5t0.5 55.5z" />
    <glyph glyph-name="kgreenlandic" unicode="&#x138;" horiz-adv-x="1146" 
d="M346 923q3 13 6 24t10 18.5t20 12t36 4.5h167q15 0 23.5 -5t12.5 -13t4 -17t-2 -16l-60 -284l342 308q25 22 53 22h236q20 0 29 -9t6 -24q-2 -8 -5.5 -14t-14.5 -15l-387 -334l289 -511h-2q8 -10 10.5 -20.5t0.5 -18.5q-4 -18 -14.5 -24.5t-30.5 -6.5h-260q-23 0 -42 40
l-175 356l-105 -88l-53 -249q-2 -6 -6 -16t-11.5 -19.5t-18.5 -16.5t-27 -7h-176q-14 0 -22.5 7.5t-12.5 17t-5 17.5t-1 9z" />
    <glyph glyph-name="Lacute" unicode="&#x139;" horiz-adv-x="1148" 
d="M468 1443q4 18 19.5 31t36.5 13h204q35 0 35 -34q0 -2 -0.5 -4.5t-0.5 -5.5l-248 -1170h585q15 0 25 -9t10 -26q0 -7 -1 -11l-39 -183q-9 -41 -53 -44h-835q-37 0 -37 31q0 3 0.5 6t1.5 7zM772 1720q-28 -42 -62 -42h-143q-20 0 -25 6.5t-2 19.5q2 8 6.5 16.5t12.5 21.5
l131 205q17 22 30.5 32t32.5 10h150q13 0 19.5 -4.5t4.5 -16.5q-2 -7 -5.5 -15.5t-13.5 -22.5z" />
    <glyph glyph-name="lacute" unicode="&#x13a;" horiz-adv-x="565" 
d="M435 55q-5 -26 -23.5 -40.5t-44.5 -14.5h-160q-55 0 -44 55l292 1374q5 25 23 41t44 16h160q19 0 34.5 -15.5t10.5 -41.5zM760 1649q-28 -42 -62 -42h-143q-20 0 -25 6.5t-2 19.5q2 8 6.5 16.5t12.5 21.5l131 205q17 22 30.5 32t32.5 10h150q13 0 19.5 -4.5t4.5 -16.5
q-2 -7 -5.5 -15.5t-13.5 -22.5z" />
    <glyph glyph-name="Lcommaaccent" unicode="&#x13b;" horiz-adv-x="1148" 
d="M468 1443q4 18 19.5 31t36.5 13h204q35 0 35 -34q0 -2 -0.5 -4.5t-0.5 -5.5l-248 -1170h585q15 0 25 -9t10 -26q0 -7 -1 -11l-39 -183q-9 -41 -53 -44h-835q-37 0 -37 31q0 3 0.5 6t1.5 7zM420 -298q7 33 25.5 62t44.5 50t57.5 33t63.5 12q34 0 60.5 -12t42.5 -34.5
t21 -54t-3 -69.5q-18 -83 -47 -144.5t-60.5 -102t-60 -60.5t-43.5 -20q-10 0 -22.5 7t-23 18t-17 23.5t-4.5 24.5q2 10 12 22.5t21 26.5t21 27.5t12 24.5l2 9q-26 4 -47.5 18.5t-35.5 35.5t-19.5 47.5t0.5 55.5z" />
    <glyph glyph-name="lcommaaccent" unicode="&#x13c;" horiz-adv-x="565" 
d="M433 55q-5 -26 -23.5 -40.5t-44.5 -14.5h-160q-55 0 -44 55l292 1374q5 25 23 41t44 16h160q19 0 34.5 -15.5t10.5 -41.5zM75 -298q7 33 25.5 62t44.5 50t57.5 33t63.5 12q34 0 60.5 -12t42.5 -34.5t21 -54t-3 -69.5q-18 -83 -47 -144.5t-60.5 -102t-60 -60.5t-43.5 -20
q-10 0 -22.5 7t-23 18t-17 23.5t-4.5 24.5q2 10 12 22.5t21 26.5t21 27.5t12 24.5l2 9q-26 4 -47.5 18.5t-35.5 35.5t-19.5 47.5t0.5 55.5z" />
    <glyph glyph-name="Lcaron" unicode="&#x13d;" horiz-adv-x="1148" 
d="M468 1443q4 18 19.5 31t36.5 13h204q35 0 35 -34q0 -2 -0.5 -4.5t-0.5 -5.5l-248 -1170h585q15 0 25 -9t10 -26q0 -7 -1 -11l-39 -183q-9 -41 -53 -44h-835q-37 0 -37 31q0 3 0.5 6t1.5 7zM942 1426q7 35 27 65.5t47 52.5t59.5 34.5t66.5 12.5q36 0 63.5 -13t44.5 -36
t23 -56t-3 -73q-18 -84 -48.5 -146.5t-64 -104t-63.5 -62t-46 -20.5q-11 0 -18 3t-12 8l-42 37q-9 9 -6 27q4 16 17 27l17 19q8 8 19 24.5t16 37.5q-26 5 -46.5 20.5t-33.5 37.5t-18 49t1 56z" />
    <glyph glyph-name="lcaron" unicode="&#x13e;" horiz-adv-x="604" 
d="M433 55q-5 -26 -23.5 -40.5t-44.5 -14.5h-160q-55 0 -44 55l292 1374q5 25 23 41t44 16h160q19 0 34.5 -15.5t10.5 -41.5zM762.86 1340.29q6.28418 31.3926 24.2383 58.748t42.1924 47.0879q24.2373 19.7314 53.4131 30.9434q29.1748 11.2109 59.6973 11.2109
q32.3174 0 57.0039 -11.6592q24.6875 -11.6602 39.9482 -32.2891t20.6475 -50.2275q5.38574 -29.5977 -2.69336 -65.4746q-16.1592 -75.3398 -43.5391 -131.397q-27.3799 -56.0566 -57.4531 -93.2783t-57.0039 -55.6084t-41.2939 -18.3867q-9.875 0 -16.1592 2.69043
t-10.7725 7.17578l-37.7031 33.1855q-8.08008 8.07227 -5.38672 24.2168q3.59082 14.3506 15.2607 24.2158l15.2607 17.042q7.18164 7.1748 17.0566 21.9736q9.875 14.7998 14.3633 33.6348q-23.3398 4.48438 -41.7432 18.3867t-30.0732 33.6338
q-11.6699 19.7324 -16.1582 43.9492t0.897461 50.2266z" />
    <glyph glyph-name="Ldot" unicode="&#x13f;" horiz-adv-x="1148" 
d="M468 1443q4 18 19.5 31t36.5 13h204q35 0 35 -34q0 -2 -0.5 -4.5t-0.5 -5.5l-248 -1170h585q15 0 25 -9t10 -26q0 -7 -1 -11l-39 -183q-9 -41 -53 -44h-835q-37 0 -37 31q0 3 0.5 6t1.5 7zM819 746q7 34 26 63.5t45.5 51.5t58.5 34.5t65 12.5q35 0 62 -12.5t44 -34.5
t23 -51.5t-1 -63.5q-7 -33 -25.5 -62.5t-44.5 -51t-58.5 -34.5t-67.5 -13q-33 0 -59.5 13t-44 34.5t-24 51t0.5 62.5z" />
    <glyph glyph-name="ldot" unicode="&#x140;" horiz-adv-x="685" 
d="M445 55q-5 -26 -23.5 -40.5t-44.5 -14.5h-160q-55 0 -44 55l292 1374q5 25 23 41t44 16h160q19 0 34.5 -15.5t10.5 -41.5zM600 651q7 34 26 63.5t45.5 51.5t58.5 34.5t65 12.5q35 0 62 -12.5t44 -34.5t23 -51.5t-1 -63.5q-7 -33 -25.5 -62.5t-44.5 -51t-58.5 -34.5
t-67.5 -13q-33 0 -59.5 13t-44 34.5t-24 51t0.5 62.5z" />
    <glyph glyph-name="Lslash" unicode="&#x141;" horiz-adv-x="1160" 
d="M1101 274q21 0 33 -14.5t7 -39.5l-35 -165q-5 -23 -22.5 -39t-40.5 -16h-829q-52 0 -41 54l117 550q-13 -4 -26.5 -8.5t-25.5 -9.5l-65 -22q-6 -3 -18 -3t-18.5 4t-9.5 11.5t-5 19t-5 26.5l-2 10q-4 17 -6.5 34t0.5 31q2 14 13 24.5t25 15.5q48 17 92.5 32t92.5 31
l134 633q5 23 23 38.5t42 15.5h198q23 0 35.5 -14t7.5 -40l-112 -527q43 14 85.5 28.5t86.5 28.5q1 0 2.5 0.5t2.5 0.5q9 -1 18 -8t12 -20l6 -23q5 -21 8.5 -44t-1.5 -41q-2 -11 -13.5 -22t-24.5 -17l-112 -39q-30 -11 -57 -21t-54 -18l-93 -437h575z" />
    <glyph glyph-name="lslash" unicode="&#x142;" horiz-adv-x="565" 
d="M323 822l129 605q5 25 23 41t45 16h159q20 0 35.5 -15.5t10.5 -41.5l-108 -509l129 42q6 2 10 2q15 0 15 -20l-22 -113q-3 -14 -14 -24.5t-25 -15.5l-130 -43l-147 -691q-5 -26 -24 -40.5t-45 -14.5h-159q-56 0 -45 55l126 594l-137 -45q-9 -3 -15 -3q-17 0 -13 23
l22 113q4 13 14 23.5t28 16.5z" />
    <glyph glyph-name="Nacute" unicode="&#x143;" horiz-adv-x="1583" 
d="M468 1441q4 18 17.5 31t35.5 13h235q15 0 31 -8t21 -23l460 -967l197 967q11 18 25 24.5t25 6.5h202q15 0 29.5 -12t10.5 -32l-297 -1397q-9 -44 -58 -44h-213q-11 0 -18.5 9.5t-16.5 23.5l-483 1040l-210 -1029q-6 -44 -53 -44h-202q-44 0 -35 44zM1319 1720
q-28 -42 -62 -42h-143q-20 0 -25 6.5t-2 19.5q2 8 6.5 16.5t12.5 21.5l131 205q17 22 30.5 32t32.5 10h150q13 0 19.5 -4.5t4.5 -16.5q-2 -7 -5.5 -15.5t-13.5 -22.5z" />
    <glyph glyph-name="nacute" unicode="&#x144;" horiz-adv-x="1229" 
d="M525 982q30 0 43 -10t17 -27.5t2.5 -40.5t-0.5 -49q28 26 65 51t80 44.5t90 31.5t96 12q93 0 159 -29.5t104.5 -82t49 -125t-7.5 -158.5l-115 -540q-6 -28 -26 -43.5t-44 -15.5h-164q-32 0 -41 14.5t-3 42.5l105 496q9 40 2 73.5t-26 56.5t-49.5 36t-69.5 13
q-32 0 -70 -13.5t-73 -37t-63.5 -55t-41.5 -67.5l-107 -504q-11 -55 -70 -55h-161q-29 0 -40.5 15.5t-6.5 39.5l184 867q7 29 25 44.5t49 15.5h108v0zM952 1212q-28 -42 -62 -42h-143q-20 0 -25 6.5t-2 19.5q2 8 6.5 16.5t12.5 21.5l131 205q17 22 30.5 32t32.5 10h150
q13 0 19.5 -4.5t4.5 -16.5q-2 -7 -5.5 -15.5t-13.5 -22.5z" />
    <glyph glyph-name="Ncommaaccent" unicode="&#x145;" horiz-adv-x="1583" 
d="M468 1441q4 18 17.5 31t35.5 13h235q15 0 31 -8t21 -23l460 -967l197 967q11 18 25 24.5t25 6.5h202q15 0 29.5 -12t10.5 -32l-297 -1397q-9 -44 -58 -44h-213q-11 0 -18.5 9.5t-16.5 23.5l-483 1040l-210 -1029q-6 -44 -53 -44h-202q-44 0 -35 44zM595 -298
q7 33 25.5 62t44.5 50t57.5 33t63.5 12q34 0 60.5 -12t42.5 -34.5t21 -54t-3 -69.5q-18 -83 -47 -144.5t-60.5 -102t-60 -60.5t-43.5 -20q-10 0 -22.5 7t-23 18t-17 23.5t-4.5 24.5q2 10 12 22.5t21 26.5t21 27.5t12 24.5l2 9q-26 4 -47.5 18.5t-35.5 35.5t-19.5 47.5
t0.5 55.5z" />
    <glyph glyph-name="ncommaaccent" unicode="&#x146;" horiz-adv-x="1229" 
d="M525 982q30 0 43 -10t17 -27.5t2.5 -40.5t-0.5 -49q28 26 65 51t80 44.5t90 31.5t96 12q93 0 159 -29.5t104.5 -82t49 -125t-7.5 -158.5l-115 -540q-6 -28 -26 -43.5t-44 -15.5h-164q-32 0 -41 14.5t-3 42.5l105 496q9 40 2 73.5t-26 56.5t-49.5 36t-69.5 13
q-32 0 -70 -13.5t-73 -37t-63.5 -55t-41.5 -67.5l-107 -504q-11 -55 -70 -55h-161q-29 0 -40.5 15.5t-6.5 39.5l184 867q7 29 25 44.5t49 15.5h108v0zM375 -298q7 33 25.5 62t44.5 50t57.5 33t63.5 12q34 0 60.5 -12t42.5 -34.5t21 -54t-3 -69.5q-18 -83 -47 -144.5
t-60.5 -102t-60 -60.5t-43.5 -20q-10 0 -22.5 7t-23 18t-17 23.5t-4.5 24.5q2 10 12 22.5t21 26.5t21 27.5t12 24.5l2 9q-26 4 -47.5 18.5t-35.5 35.5t-19.5 47.5t0.5 55.5z" />
    <glyph glyph-name="Ncaron" unicode="&#x147;" horiz-adv-x="1583" 
d="M468 1441q4 18 17.5 31t35.5 13h235q15 0 31 -8t21 -23l460 -967l197 967q11 18 25 24.5t25 6.5h202q15 0 29.5 -12t10.5 -32l-297 -1397q-9 -44 -58 -44h-213q-11 0 -18.5 9.5t-16.5 23.5l-483 1040l-210 -1029q-6 -44 -53 -44h-202q-44 0 -35 44zM912 1919
q-2 3 -4.5 11t-0.5 14q1 10 9 16l33 27l74 58q24 19 43 -6l127 -163l186 155q10 8 21 13.5t18 5.5q11 0 21 -10.5t18 -21.5l45 -54q3 -5 5.5 -10t0.5 -12t-6 -13.5t-9 -10.5l-327 -269q-6 -4 -12 -7t-11 -3q-7 0 -11 3t-9 7z" />
    <glyph glyph-name="ncaron" unicode="&#x148;" horiz-adv-x="1229" 
d="M525 982q30 0 43 -10t17 -27.5t2.5 -40.5t-0.5 -49q28 26 65 51t80 44.5t90 31.5t96 12q93 0 159 -29.5t104.5 -82t49 -125t-7.5 -158.5l-115 -540q-6 -28 -26 -43.5t-44 -15.5h-164q-32 0 -41 14.5t-3 42.5l105 496q9 40 2 73.5t-26 56.5t-49.5 36t-69.5 13
q-32 0 -70 -13.5t-73 -37t-63.5 -55t-41.5 -67.5l-107 -504q-11 -55 -70 -55h-161q-29 0 -40.5 15.5t-6.5 39.5l184 867q7 29 25 44.5t49 15.5h108v0zM621 1415q-2 3 -4.5 11t-0.5 14q1 10 9 16l33 27l74 58q24 19 43 -6l127 -163l186 155q10 8 21 13.5t18 5.5
q11 0 21 -10.5t18 -21.5l45 -54q3 -5 5.5 -10t0.5 -12t-6 -13.5t-9 -10.5l-327 -269q-6 -4 -12 -7t-11 -3q-7 0 -11 3t-9 7z" />
    <glyph glyph-name="napostrophe" unicode="&#x149;" horiz-adv-x="1164" 
d="M549 982q30 0 43 -10t17 -27.5t2.5 -40.5t-0.5 -49q28 26 65 51t80 44.5t90 31.5t96 12q93 0 159 -29.5t104.5 -82t49 -125t-7.5 -158.5l-115 -540q-6 -28 -26 -43.5t-44 -15.5h-164q-32 0 -41 14.5t-3 42.5l105 496q9 40 2 73.5t-26 56.5t-49.5 36t-69.5 13
q-32 0 -70 -13.5t-73 -37t-63.5 -55t-41.5 -67.5l-107 -504q-11 -55 -70 -55h-161q-29 0 -40.5 15.5t-6.5 39.5l184 867q7 29 25 44.5t49 15.5h108v0zM138 1332q7 33 25.5 62t44.5 50t57.5 33t63.5 12q34 0 60.5 -12t42.5 -34.5t21 -54t-3 -69.5q-18 -83 -47 -144.5
t-60.5 -102t-60 -60.5t-43.5 -20q-10 0 -22.5 7t-23 18t-17 23.5t-4.5 24.5q2 10 12 22.5t21 26.5t21 27.5t12 24.5l2 9q-26 4 -47.5 18.5t-35.5 35.5t-19.5 47.5t0.5 55.5z" />
    <glyph glyph-name="Eng" unicode="&#x14a;" horiz-adv-x="1583" 
d="M469 1446q4 17 15.5 28t31.5 11h233q17 0 30.5 -9t21.5 -28l466 -966l205 964q5 17 16.5 28t31.5 11h199q15 0 27 -10.5t8 -28.5l-306 -1441q-19 -87 -70 -166t-124 -139.5t-161.5 -96t-182.5 -35.5q-42 0 -84.5 8t-81.5 24.5t-73 43t-59 64.5q-3 6 -9.5 13t-9.5 16
t0 19.5t18 22.5l155 126q15 14 25.5 16t18.5 -1.5t13.5 -11t11.5 -13.5q19 -20 46 -35.5t73 -15.5q34 0 67 13t60 34.5t46 50t27 59.5l2 13l-489 1038l-215 -1012q-9 -40 -51 -40h-200q-40 0 -31 40z" />
    <glyph glyph-name="eng" unicode="&#x14b;" horiz-adv-x="1229" 
d="M525 982q30 0 43 -10t17 -27.5t2.5 -40.5t-0.5 -49q28 26 63.5 51t76.5 44.5t86.5 31.5t94.5 12q93 0 159 -29.5t104.5 -82t49 -125t-7.5 -158.5l-138 -650q-17 -81 -60.5 -145.5t-105 -109t-136.5 -68t-155 -23.5q-30 0 -43 17.5t-6 46.5l29 136q5 26 22 43t43 17
q52 0 89.5 26.5t49.5 84.5l123 579q9 40 2 73.5t-26 56.5t-49.5 36t-69.5 13q-32 0 -68.5 -13.5t-69.5 -37t-60 -55t-40 -67.5l-107 -504q-11 -55 -70 -55h-161q-29 0 -40.5 15.5t-6.5 39.5l184 867q7 29 25 44.5t49 15.5h108v0z" />
    <glyph glyph-name="Omacron" unicode="&#x14c;" horiz-adv-x="1706" 
d="M542 741q-12 -59 -12 -112q0 -81 26 -149.5t74 -118.5t117.5 -78t156.5 -28q76 0 148.5 22t137 62t119 95.5t93.5 122t61 142t22 155.5q0 81 -26 150t-74.5 119t-117.5 78.5t-156 28.5q-102 0 -195.5 -38.5t-169 -104.5t-129 -155t-75.5 -191zM245 741q22 106 70.5 203.5
t116 183t152 155.5t180 119.5t199 77t209.5 27.5q138 0 251.5 -46t195.5 -127t127 -192t45 -241q0 -123 -37 -239t-103 -219t-155.5 -188t-194.5 -147t-220.5 -96t-233.5 -34q-138 0 -252 45.5t-195.5 126.5t-126.5 191.5t-45 239.5q0 38 4 78t13 82zM854 1822q7 35 42 35
h725q36 0 29 -35l-22 -100q-2 -12 -14 -26t-30 -14h-725q-34 0 -27 40z" />
    <glyph glyph-name="omacron" unicode="&#x14d;" horiz-adv-x="1170" 
d="M152 488q23 106 83.5 200t145 163.5t187.5 110t211 40.5q107 0 193 -40.5t141.5 -110t76.5 -163.5t-2 -200q-23 -107 -83 -199.5t-145 -161.5t-188 -108.5t-210 -39.5q-108 0 -194 39.5t-141.5 108.5t-76.5 161.5t2 199.5zM419 487q-12 -54 -2.5 -101.5t36 -83t68 -56
t95.5 -20.5q53 0 103.5 20.5t92 56t71 83t41.5 101.5q11 53 1.5 100.5t-35.5 83.5t-68 57t-95 21q-54 0 -104.5 -21t-92 -57t-71 -83.5t-40.5 -100.5zM456 1337q7 35 42 35h725q36 0 29 -35l-22 -100q-2 -12 -14 -26t-30 -14h-725q-34 0 -27 40z" />
    <glyph glyph-name="Obreve" unicode="&#x14e;" horiz-adv-x="1706" 
d="M542 741q-12 -59 -12 -112q0 -81 26 -149.5t74 -118.5t117.5 -78t156.5 -28q76 0 148.5 22t137 62t119 95.5t93.5 122t61 142t22 155.5q0 81 -26 150t-74.5 119t-117.5 78.5t-156 28.5q-102 0 -195.5 -38.5t-169 -104.5t-129 -155t-75.5 -191zM245 741q22 106 70.5 203.5
t116 183t152 155.5t180 119.5t199 77t209.5 27.5q138 0 251.5 -46t195.5 -127t127 -192t45 -241q0 -123 -37 -239t-103 -219t-155.5 -188t-194.5 -147t-220.5 -96t-233.5 -34q-138 0 -252 45.5t-195.5 126.5t-126.5 191.5t-45 239.5q0 38 4 78t13 82zM1245 1713
q-55 1 -98.5 21.5t-71.5 54t-39 76t-1 89.5q3 17 17 27.5t30 10.5h105q14 0 21 -9t4 -22q-6 -29 11.5 -51.5t62.5 -22.5q39 0 67 21.5t33 48.5q3 13 12 24t26 11h102q17 0 29 -9.5t8 -28.5q-10 -47 -40 -90.5t-73 -76.5t-96 -53t-109 -21z" />
    <glyph glyph-name="obreve" unicode="&#x14f;" horiz-adv-x="1170" 
d="M152 488q23 106 83.5 200t145 163.5t187.5 110t211 40.5q107 0 193 -40.5t141.5 -110t76.5 -163.5t-2 -200q-23 -107 -83 -199.5t-145 -161.5t-188 -108.5t-210 -39.5q-108 0 -194 39.5t-141.5 108.5t-76.5 161.5t2 199.5zM419 487q-12 -54 -2.5 -101.5t36 -83t68 -56
t95.5 -20.5q53 0 103.5 20.5t92 56t71 83t41.5 101.5q11 53 1.5 100.5t-35.5 83.5t-68 57t-95 21q-54 0 -104.5 -21t-92 -57t-71 -83.5t-40.5 -100.5zM797 1209q-55 1 -98.5 21.5t-71.5 54t-39 76t-1 89.5q3 17 17 27.5t30 10.5h105q14 0 21 -9t4 -22q-6 -29 11.5 -51.5
t62.5 -22.5q39 0 67 21.5t33 48.5q3 13 12 24t26 11h102q17 0 29 -9.5t8 -28.5q-10 -47 -40 -90.5t-73 -76.5t-96 -53t-109 -21z" />
    <glyph glyph-name="Ohungarumlaut" unicode="&#x150;" horiz-adv-x="1706" 
d="M542 741q-12 -59 -12 -112q0 -81 26 -149.5t74 -118.5t117.5 -78t156.5 -28q76 0 148.5 22t137 62t119 95.5t93.5 122t61 142t22 155.5q0 81 -26 150t-74.5 119t-117.5 78.5t-156 28.5q-102 0 -195.5 -38.5t-169 -104.5t-129 -155t-75.5 -191zM245 741q22 106 70.5 203.5
t116 183t152 155.5t180 119.5t199 77t209.5 27.5q138 0 251.5 -46t195.5 -127t127 -192t45 -241q0 -123 -37 -239t-103 -219t-155.5 -188t-194.5 -147t-220.5 -96t-233.5 -34q-138 0 -252 45.5t-195.5 126.5t-126.5 191.5t-45 239.5q0 38 4 78t13 82zM1618 1720
q-28 -42 -62 -42h-152q-16 0 -22 6.5t-5 16.5t6.5 21t12.5 20l131 205q17 22 30.5 32t32.5 10h159q13 0 17.5 -6.5t3.5 -16t-6 -19.5t-10 -17zM1215 1720q-28 -42 -62 -42h-152q-16 0 -22 6.5t-5 16.5t6.5 21t12.5 20l131 205q17 22 30.5 32t32.5 10h159q13 0 17.5 -6.5
t3.5 -16t-6 -19.5t-10 -17z" />
    <glyph glyph-name="ohungarumlaut" unicode="&#x151;" horiz-adv-x="1170" 
d="M152 488q23 106 83.5 200t145 163.5t187.5 110t211 40.5q107 0 193 -40.5t141.5 -110t76.5 -163.5t-2 -200q-23 -107 -83 -199.5t-145 -161.5t-188 -108.5t-210 -39.5q-108 0 -194 39.5t-141.5 108.5t-76.5 161.5t2 199.5zM419 487q-12 -54 -2.5 -101.5t36 -83t68 -56
t95.5 -20.5q53 0 103.5 20.5t92 56t71 83t41.5 101.5q11 53 1.5 100.5t-35.5 83.5t-68 57t-95 21q-54 0 -104.5 -21t-92 -57t-71 -83.5t-40.5 -100.5zM1156 1216q-28 -42 -62 -42h-152q-16 0 -22 6.5t-5 16.5t6.5 21t12.5 20l131 205q17 22 30.5 32t32.5 10h159
q13 0 17.5 -6.5t3.5 -16t-6 -19.5t-10 -17zM753 1216q-28 -42 -62 -42h-152q-16 0 -22 6.5t-5 16.5t6.5 21t12.5 20l131 205q17 22 30.5 32t32.5 10h159q13 0 17.5 -6.5t3.5 -16t-6 -19.5t-10 -17z" />
    <glyph glyph-name="OE" unicode="&#x152;" horiz-adv-x="2506" 
d="M1610 1434q10 48 54 48h964q21 0 30 -9.5t9 -25.5q0 -4 -0.5 -7.5t-1.5 -8.5l-37 -176q-4 -18 -19.5 -32t-40.5 -14h-711l-64 -304h548h5q31 0 31 -29q0 -5 -2 -15l-38 -181q-4 -18 -17 -32t-35 -14h-550l-77 -364h737q21 0 29.5 -7t8.5 -21q0 -9 -3 -21l-39 -182
q-9 -42 -52 -42h-990q-16 0 -26.5 7.5t-10.5 23.5q0 7 1 11zM529 745q-12 -59 -12 -112q0 -81 26 -149.5t74 -118.5t117.5 -78t156.5 -28q76 0 148.5 22t137 62t119 95.5t93.5 122t61 142t22 155.5q0 81 -26 150t-74.5 119t-117.5 78.5t-156 28.5q-102 0 -195.5 -38.5
t-169 -104.5t-129 -155t-75.5 -191zM232 745q22 106 70.5 203.5t116 183t152 155.5t180 119.5t199 77t209.5 27.5q138 0 251.5 -46t195.5 -127t127 -192t45 -241q0 -123 -37 -239t-103 -219t-155.5 -188t-194.5 -147t-220.5 -96t-233.5 -34q-138 0 -252 45.5t-195.5 126.5
t-126.5 191.5t-45 239.5q0 38 4 78t13 82z" />
    <glyph glyph-name="oe" unicode="&#x153;" horiz-adv-x="2044" 
d="M1633 594q0 35 -12.5 66t-35.5 53.5t-55.5 35.5t-71.5 13q-35 0 -71 -11.5t-68.5 -33t-59 -52.5t-42.5 -71h416zM1351 215q43 0 93.5 15.5t101.5 47.5q15 8 27 14t25 6q24 0 35 -23l52 -101q9 -16 6 -35q-3 -16 -16 -30t-31 -25q-36 -24 -78 -43t-86.5 -32.5t-89.5 -20.5
t-87 -7q-105 0 -186 40.5t-134 112.5q-84 -71 -185 -111.5t-208 -40.5q-106 0 -190 39.5t-138 107.5t-74 160.5t3 198.5q15 71 47 136t76.5 121t100 101.5t118.5 78t131.5 50t139.5 17.5q106 0 189.5 -39.5t138.5 -108.5q80 71 176 112t199 41q96 0 173 -36.5t127.5 -99.5
t69.5 -149t-2 -185l-2 -6q-8 -38 -22.5 -62.5t-36 -38.5t-50 -19.5t-65.5 -5.5h-531v-13q3 -39 19 -70t41 -52.5t56.5 -33t66.5 -11.5zM437 487q-12 -54 -2.5 -101.5t36 -83t68 -56t95.5 -20.5q53 0 103.5 20.5t92 56t71 83t41.5 101.5q11 53 1.5 100.5t-35.5 83.5t-68 57
t-95 21q-54 0 -104.5 -21t-92 -57t-71 -83.5t-40.5 -100.5z" />
    <glyph glyph-name="Racute" unicode="&#x154;" horiz-adv-x="1374" 
d="M467 1437q10 48 54 48h603q103 0 183.5 -38.5t131.5 -104.5t69 -154.5t-3 -188.5q-15 -68 -45.5 -130t-73.5 -115.5t-97 -97.5t-115 -75l141 -535q0 -2 0.5 -4.5t-0.5 -4.5q-4 -18 -15 -27.5t-36 -9.5h-224q-27 0 -32 31l-118 488h-323l-102 -477q-9 -42 -52 -42h-207
q-18 0 -29.5 10t-6.5 32zM1220 1001q8 38 1 75.5t-28 67.5t-55.5 49t-81.5 19h-342l-90 -422h349q48 0 89.5 17t73.5 46.5t53.5 67.5t30.5 80zM1117 1720q-28 -42 -62 -42h-143q-20 0 -25 6.5t-2 19.5q2 8 6.5 16.5t12.5 21.5l131 205q17 22 30.5 32t32.5 10h150
q13 0 19.5 -4.5t4.5 -16.5q-2 -7 -5.5 -15.5t-13.5 -22.5z" />
    <glyph glyph-name="racute" unicode="&#x155;" horiz-adv-x="949" 
d="M836 1216q-28 -42 -62 -42h-143q-20 0 -25 6.5t-2 19.5q2 8 6.5 16.5t12.5 21.5l131 205q17 22 30.5 32t32.5 10h150q13 0 19.5 -4.5t4.5 -16.5q-2 -7 -5.5 -15.5t-13.5 -22.5zM581 848q23 24 53.5 50t66.5 47.5t76.5 35.5t83.5 14q22 0 37 -3q27 -3 60.5 -15t62 -29
t46.5 -36t15 -36q-4 -14 -15 -27l-109 -131q-23 -28 -47 -28q-8 0 -22.5 7t-30.5 18q-26 17 -45 26t-46 9q-44 0 -83 -17.5t-69 -45t-50 -62t-27 -68.5l-108 -506q-11 -51 -63 -51h-154q-26 0 -37 12.5t-6 38.5l187 881q5 25 24 38t39 13h115q25 0 32 -16t9 -36z" />
    <glyph glyph-name="Rcommaaccent" unicode="&#x156;" horiz-adv-x="1374" 
d="M467 1437q10 48 54 48h603q103 0 183.5 -38.5t131.5 -104.5t69 -154.5t-3 -188.5q-15 -68 -45.5 -130t-73.5 -115.5t-97 -97.5t-115 -75l141 -535q0 -2 0.5 -4.5t-0.5 -4.5q-4 -18 -15 -27.5t-36 -9.5h-224q-27 0 -32 31l-118 488h-323l-102 -477q-9 -42 -52 -42h-207
q-18 0 -29.5 10t-6.5 32zM1220 1001q8 38 1 75.5t-28 67.5t-55.5 49t-81.5 19h-342l-90 -422h349q48 0 89.5 17t73.5 46.5t53.5 67.5t30.5 80zM492 -298q7 33 25.5 62t44.5 50t57.5 33t63.5 12q34 0 60.5 -12t42.5 -34.5t21 -54t-3 -69.5q-18 -83 -47 -144.5t-60.5 -102
t-60 -60.5t-43.5 -20q-10 0 -22.5 7t-23 18t-17 23.5t-4.5 24.5q2 10 12 22.5t21 26.5t21 27.5t12 24.5l2 9q-26 4 -47.5 18.5t-35.5 35.5t-19.5 47.5t0.5 55.5z" />
    <glyph glyph-name="rcommaaccent" unicode="&#x157;" horiz-adv-x="949" 
d="M581 848q23 24 53.5 50t66.5 47.5t76.5 35.5t83.5 14q22 0 37 -3q27 -3 60.5 -15t62 -29t46.5 -36t15 -36q-4 -14 -15 -27l-109 -131q-23 -28 -47 -28q-8 0 -22.5 7t-30.5 18q-26 17 -45 26t-46 9q-44 0 -83 -17.5t-69 -45t-50 -62t-27 -68.5l-108 -506q-11 -51 -63 -51
h-154q-26 0 -37 12.5t-6 38.5l187 881q5 25 24 38t39 13h115q25 0 32 -16t9 -36zM53 -298q7 33 25.5 62t44.5 50t57.5 33t63.5 12q34 0 60.5 -12t42.5 -34.5t21 -54t-3 -69.5q-18 -83 -47 -144.5t-60.5 -102t-60 -60.5t-43.5 -20q-10 0 -22.5 7t-23 18t-17 23.5t-4.5 24.5
q2 10 12 22.5t21 26.5t21 27.5t12 24.5l2 9q-26 4 -47.5 18.5t-35.5 35.5t-19.5 47.5t0.5 55.5z" />
    <glyph glyph-name="Rcaron" unicode="&#x158;" horiz-adv-x="1374" 
d="M467 1437q10 48 54 48h603q103 0 183.5 -38.5t131.5 -104.5t69 -154.5t-3 -188.5q-15 -68 -45.5 -130t-73.5 -115.5t-97 -97.5t-115 -75l141 -535q0 -2 0.5 -4.5t-0.5 -4.5q-4 -18 -15 -27.5t-36 -9.5h-224q-27 0 -32 31l-118 488h-323l-102 -477q-9 -42 -52 -42h-207
q-18 0 -29.5 10t-6.5 32zM1220 1001q8 38 1 75.5t-28 67.5t-55.5 49t-81.5 19h-342l-90 -422h349q48 0 89.5 17t73.5 46.5t53.5 67.5t30.5 80zM771 1919q-2 3 -4.5 11t-0.5 14q1 10 9 16l33 27l74 58q24 19 43 -6l127 -163l186 155q10 8 21 13.5t18 5.5q11 0 21 -10.5
t18 -21.5l45 -54q3 -5 5.5 -10t0.5 -12t-6 -13.5t-9 -10.5l-327 -269q-6 -4 -12 -7t-11 -3q-7 0 -11 3t-9 7z" />
    <glyph glyph-name="rcaron" unicode="&#x159;" horiz-adv-x="949" 
d="M581 848q23 24 53.5 50t66.5 47.5t76.5 35.5t83.5 14q22 0 37 -3q27 -3 60.5 -15t62 -29t46.5 -36t15 -36q-4 -14 -15 -27l-109 -131q-23 -28 -47 -28q-8 0 -22.5 7t-30.5 18q-26 17 -45 26t-46 9q-44 0 -83 -17.5t-69 -45t-50 -62t-27 -68.5l-108 -506q-11 -51 -63 -51
h-154q-26 0 -37 12.5t-6 38.5l187 881q5 25 24 38t39 13h115q25 0 32 -16t9 -36zM479 1415q-2 3 -4.5 11t-0.5 14q1 10 9 16l33 27l74 58q24 19 43 -6l127 -163l186 155q10 8 21 13.5t18 5.5q11 0 21 -10.5t18 -21.5l45 -54q3 -5 5.5 -10t0.5 -12t-6 -13.5t-9 -10.5
l-327 -269q-6 -4 -12 -7t-11 -3q-7 0 -11 3t-9 7z" />
    <glyph glyph-name="Sacute" unicode="&#x15a;" horiz-adv-x="1282" 
d="M1238 1089q-13 0 -23.5 6t-22.5 19q-16 18 -41 41t-57.5 43.5t-71.5 34.5t-83 14q-56 0 -101.5 -12.5t-79.5 -34t-55 -50.5t-28 -62q-8 -36 9 -63t51 -48.5t80.5 -39t97.5 -33.5q88 -29 171.5 -64.5t145 -86.5t90.5 -122.5t8 -172.5q-23 -109 -86 -197t-153.5 -150.5
t-202.5 -96t-232 -33.5q-77 0 -148.5 18t-134.5 51.5t-115.5 81t-91.5 105.5q-18 25 -12 46q4 20 33 43l17 15l23 18q17 13 38 29t40.5 29t36 22t25.5 9q14 0 24 -9.5t18 -20.5q26 -35 63 -65t78.5 -53t85 -36t83.5 -13q55 0 106 14t91.5 39.5t68 61.5t36.5 80t-10 75.5
t-56 55t-86 40.5t-99 32q-114 37 -196.5 80t-132 96.5t-66 120t1.5 149.5q20 93 74 169.5t134.5 131t184 85t223.5 30.5q91 0 179 -28.5t157 -78.5q20 -15 41.5 -34t38 -38.5t26.5 -38t7 -31.5t-11.5 -24.5t-19.5 -22.5l-37 -32v1q-18 -16 -38 -33t-38.5 -30.5t-33.5 -22.5
t-24 -9zM1169 1720q-28 -42 -62 -42h-143q-20 0 -25 6.5t-2 19.5q2 8 6.5 16.5t12.5 21.5l131 205q17 22 30.5 32t32.5 10h150q13 0 19.5 -4.5t4.5 -16.5q-2 -7 -5.5 -15.5t-13.5 -22.5z" />
    <glyph glyph-name="sacute" unicode="&#x15b;" horiz-adv-x="940" 
d="M859 702q-18 -14 -29.5 -8.5t-19.5 10.5q-14 9 -31.5 23t-38.5 27.5t-47 23t-58 9.5q-38 0 -64.5 -7t-44 -18.5t-27 -27.5t-13.5 -34q-5 -24 9.5 -39t40 -26t58.5 -19.5t65 -17.5q41 -13 80 -26.5t73 -30.5t61 -39t44 -51t22 -66.5t-5 -85.5q-16 -76 -61.5 -136
t-111 -101.5t-145.5 -63.5t-166 -22q-51 0 -99.5 11t-91.5 31.5t-79.5 51t-62.5 69.5q-13 21 -9 42q2 11 9 20.5t18 18.5l106 85q10 8 19 11t16 3q13 0 24 -9.5t18 -17.5q20 -22 43.5 -39t47 -29t46 -18t40.5 -6q80 0 128.5 27t57.5 72q4 22 -7 37.5t-33.5 27.5t-54 22
t-68.5 21q-86 24 -144.5 54t-92 67.5t-43 83t2.5 100.5q14 65 53 118.5t97.5 91.5t132.5 59t158 21q46 0 91 -7t85.5 -22t74.5 -39.5t59 -59.5q31 -44 -8 -75zM845 1215q-28 -42 -62 -42h-143q-20 0 -25 6.5t-2 19.5q2 8 6.5 16.5t12.5 21.5l131 205q17 22 30.5 32t32.5 10
h150q13 0 19.5 -4.5t4.5 -16.5q-2 -7 -5.5 -15.5t-13.5 -22.5z" />
    <glyph glyph-name="Scircumflex" unicode="&#x15c;" horiz-adv-x="1282" 
d="M1238 1089q-13 0 -23.5 6t-22.5 19q-16 18 -41 41t-57.5 43.5t-71.5 34.5t-83 14q-56 0 -101.5 -12.5t-79.5 -34t-55 -50.5t-28 -62q-8 -36 9 -63t51 -48.5t80.5 -39t97.5 -33.5q88 -29 171.5 -64.5t145 -86.5t90.5 -122.5t8 -172.5q-23 -109 -86 -197t-153.5 -150.5
t-202.5 -96t-232 -33.5q-77 0 -148.5 18t-134.5 51.5t-115.5 81t-91.5 105.5q-18 25 -12 46q4 20 33 43l17 15l23 18q17 13 38 29t40.5 29t36 22t25.5 9q14 0 24 -9.5t18 -20.5q26 -35 63 -65t78.5 -53t85 -36t83.5 -13q55 0 106 14t91.5 39.5t68 61.5t36.5 80t-10 75.5
t-56 55t-86 40.5t-99 32q-114 37 -196.5 80t-132 96.5t-66 120t1.5 149.5q20 93 74 169.5t134.5 131t184 85t223.5 30.5q91 0 179 -28.5t157 -78.5q20 -15 41.5 -34t38 -38.5t26.5 -38t7 -31.5t-11.5 -24.5t-19.5 -22.5l-37 -32v1q-18 -16 -38 -33t-38.5 -30.5t-33.5 -22.5
t-24 -9zM1057 2059q5 4 11 6.5t13 2.5q9 0 19 -10l106 -134t106 -135q3 -3 5.5 -9.5t0.5 -14.5q-2 -6 -6.5 -11t-9.5 -10l-68 -55q-11 -10 -26 -21t-28 -11q-3 0 -10 1.5t-20 18.5l-119 154l-188 -155q-8 -7 -18 -12.5t-21 -5.5t-20.5 11t-18.5 20l-43 53q-11 13 -5 30
q4 10 15 17z" />
    <glyph glyph-name="scircumflex" unicode="&#x15d;" horiz-adv-x="940" 
d="M859 702q-18 -14 -29.5 -8.5t-19.5 10.5q-14 9 -31.5 23t-38.5 27.5t-47 23t-58 9.5q-38 0 -64.5 -7t-44 -18.5t-27 -27.5t-13.5 -34q-5 -24 9.5 -39t40 -26t58.5 -19.5t65 -17.5q41 -13 80 -26.5t73 -30.5t61 -39t44 -51t22 -66.5t-5 -85.5q-16 -76 -61.5 -136
t-111 -101.5t-145.5 -63.5t-166 -22q-51 0 -99.5 11t-91.5 31.5t-79.5 51t-62.5 69.5q-13 21 -9 42q2 11 9 20.5t18 18.5l106 85q10 8 19 11t16 3q13 0 24 -9.5t18 -17.5q20 -22 43.5 -39t47 -29t46 -18t40.5 -6q80 0 128.5 27t57.5 72q4 22 -7 37.5t-33.5 27.5t-54 22
t-68.5 21q-86 24 -144.5 54t-92 67.5t-43 83t2.5 100.5q14 65 53 118.5t97.5 91.5t132.5 59t158 21q46 0 91 -7t85.5 -22t74.5 -39.5t59 -59.5q31 -44 -8 -75zM754 1555q5 4 11 6.5t13 2.5q9 0 19 -10l106 -134t106 -135q3 -3 5.5 -9.5t0.5 -14.5q-2 -6 -6.5 -11t-9.5 -10
l-68 -55q-11 -10 -26 -21t-28 -11q-3 0 -10 1.5t-20 18.5l-119 154l-188 -155q-8 -7 -18 -12.5t-21 -5.5t-20.5 11t-18.5 20l-43 53q-11 13 -5 30q4 10 15 17z" />
    <glyph glyph-name="Scedilla" unicode="&#x15e;" horiz-adv-x="1282" 
d="M1238 1089q-13 0 -23.5 6t-22.5 19q-16 18 -41 41t-57.5 43.5t-71.5 34.5t-83 14q-56 0 -101.5 -12.5t-79.5 -34t-55 -50.5t-28 -62q-8 -36 9 -63t51 -48.5t80.5 -39t97.5 -33.5q88 -29 171.5 -64.5t145 -86.5t90.5 -122.5t8 -172.5q-23 -109 -86 -197t-153.5 -150.5
t-202.5 -96t-232 -33.5q-77 0 -148.5 18t-134.5 51.5t-115.5 81t-91.5 105.5q-18 25 -12 46q4 20 33 43l17 15l23 18q17 13 38 29t40.5 29t36 22t25.5 9q14 0 24 -9.5t18 -20.5q26 -35 63 -65t78.5 -53t85 -36t83.5 -13q55 0 106 14t91.5 39.5t68 61.5t36.5 80t-10 75.5
t-56 55t-86 40.5t-99 32q-114 37 -196.5 80t-132 96.5t-66 120t1.5 149.5q20 93 74 169.5t134.5 131t184 85t223.5 30.5q91 0 179 -28.5t157 -78.5q20 -15 41.5 -34t38 -38.5t26.5 -38t7 -31.5t-11.5 -24.5t-19.5 -22.5l-37 -32v1q-18 -16 -38 -33t-38.5 -30.5t-33.5 -22.5
t-24 -9zM540 -530q-14 -4 -24.5 -2.5t-12.5 12.5l-23 104q-2 11 5.5 20.5t18.5 13.5l11 3q52 13 88 25.5t59 25.5t35 26.5t15 28.5q5 22 -6.5 40.5t-31.5 35.5t-43.5 34t-42.5 37t-29.5 43.5t-4.5 53.5l9 42h168q-5 -25 7 -45.5t33 -40t46 -39.5t45 -43.5t30.5 -52.5
t2.5 -66q-8 -36 -27 -71t-58.5 -68t-105 -62.5t-164.5 -54.5z" />
    <glyph glyph-name="scedilla" unicode="&#x15f;" horiz-adv-x="940" 
d="M859 702q-18 -14 -29.5 -8.5t-19.5 10.5q-14 9 -31.5 23t-38.5 27.5t-47 23t-58 9.5q-38 0 -64.5 -7t-44 -18.5t-27 -27.5t-13.5 -34q-5 -24 9.5 -39t40 -26t58.5 -19.5t65 -17.5q41 -13 80 -26.5t73 -30.5t61 -39t44 -51t22 -66.5t-5 -85.5q-16 -76 -61.5 -136
t-111 -101.5t-145.5 -63.5t-166 -22q-51 0 -99.5 11t-91.5 31.5t-79.5 51t-62.5 69.5q-13 21 -9 42q2 11 9 20.5t18 18.5l106 85q10 8 19 11t16 3q13 0 24 -9.5t18 -17.5q20 -22 43.5 -39t47 -29t46 -18t40.5 -6q80 0 128.5 27t57.5 72q4 22 -7 37.5t-33.5 27.5t-54 22
t-68.5 21q-86 24 -144.5 54t-92 67.5t-43 83t2.5 100.5q14 65 53 118.5t97.5 91.5t132.5 59t158 21q46 0 91 -7t85.5 -22t74.5 -39.5t59 -59.5q31 -44 -8 -75zM312 -530q-14 -4 -24.5 -2.5t-12.5 12.5l-23 104q-2 11 5.5 20.5t18.5 13.5l11 3q52 13 88 25.5t59 25.5t35 26.5
t15 28.5q5 22 -6.5 40.5t-31.5 35.5t-43.5 34t-42.5 37t-29.5 43.5t-4.5 53.5l9 42h168q-5 -25 7 -45.5t33 -40t46 -39.5t45 -43.5t30.5 -52.5t2.5 -66q-8 -36 -27 -71t-58.5 -68t-105 -62.5t-164.5 -54.5z" />
    <glyph glyph-name="Scaron" unicode="&#x160;" horiz-adv-x="1282" 
d="M1238 1089q-13 0 -23.5 6t-22.5 19q-16 18 -41 41t-57.5 43.5t-71.5 34.5t-83 14q-56 0 -101.5 -12.5t-79.5 -34t-55 -50.5t-28 -62q-8 -36 9 -63t51 -48.5t80.5 -39t97.5 -33.5q88 -29 171.5 -64.5t145 -86.5t90.5 -122.5t8 -172.5q-23 -109 -86 -197t-153.5 -150.5
t-202.5 -96t-232 -33.5q-77 0 -148.5 18t-134.5 51.5t-115.5 81t-91.5 105.5q-18 25 -12 46q4 20 33 43l17 15l23 18q17 13 38 29t40.5 29t36 22t25.5 9q14 0 24 -9.5t18 -20.5q26 -35 63 -65t78.5 -53t85 -36t83.5 -13q55 0 106 14t91.5 39.5t68 61.5t36.5 80t-10 75.5
t-56 55t-86 40.5t-99 32q-114 37 -196.5 80t-132 96.5t-66 120t1.5 149.5q20 93 74 169.5t134.5 131t184 85t223.5 30.5q91 0 179 -28.5t157 -78.5q20 -15 41.5 -34t38 -38.5t26.5 -38t7 -31.5t-11.5 -24.5t-19.5 -22.5l-37 -32v1q-18 -16 -38 -33t-38.5 -30.5t-33.5 -22.5
t-24 -9zM761 1919q-2 3 -4.5 11t-0.5 14q1 10 9 16l33 27l74 58q24 19 43 -6l127 -163l186 155q10 8 21 13.5t18 5.5q11 0 21 -10.5t18 -21.5l45 -54q3 -5 5.5 -10t0.5 -12t-6 -13.5t-9 -10.5l-327 -269q-6 -4 -12 -7t-11 -3q-7 0 -11 3t-9 7z" />
    <glyph glyph-name="scaron" unicode="&#x161;" horiz-adv-x="940" 
d="M859 702q-18 -14 -29.5 -8.5t-19.5 10.5q-14 9 -31.5 23t-38.5 27.5t-47 23t-58 9.5q-38 0 -64.5 -7t-44 -18.5t-27 -27.5t-13.5 -34q-5 -24 9.5 -39t40 -26t58.5 -19.5t65 -17.5q41 -13 80 -26.5t73 -30.5t61 -39t44 -51t22 -66.5t-5 -85.5q-16 -76 -61.5 -136
t-111 -101.5t-145.5 -63.5t-166 -22q-51 0 -99.5 11t-91.5 31.5t-79.5 51t-62.5 69.5q-13 21 -9 42q2 11 9 20.5t18 18.5l106 85q10 8 19 11t16 3q13 0 24 -9.5t18 -17.5q20 -22 43.5 -39t47 -29t46 -18t40.5 -6q80 0 128.5 27t57.5 72q4 22 -7 37.5t-33.5 27.5t-54 22
t-68.5 21q-86 24 -144.5 54t-92 67.5t-43 83t2.5 100.5q14 65 53 118.5t97.5 91.5t132.5 59t158 21q46 0 91 -7t85.5 -22t74.5 -39.5t59 -59.5q31 -44 -8 -75zM480 1415q-2 3 -4.5 11t-0.5 14q1 10 9 16l33 27l74 58q24 19 43 -6l127 -163l186 155q10 8 21 13.5t18 5.5
q11 0 21 -10.5t18 -21.5l45 -54q3 -5 5.5 -10t0.5 -12t-6 -13.5t-9 -10.5l-327 -269q-6 -4 -12 -7t-11 -3q-7 0 -11 3t-9 7z" />
    <glyph glyph-name="Tcommaaccent" unicode="&#x162;" horiz-adv-x="1222" 
d="M348 1441q4 18 21.5 31t37.5 13h1021q18 0 31 -11t11 -33l-38 -176q-5 -22 -21 -37.5t-41 -15.5h-363l-247 -1161q-2 -8 -7.5 -16.5t-13 -16.5t-17 -13t-18.5 -5h-200q-7 0 -14.5 4.5t-13.5 11.5t-9.5 16.5t-1.5 18.5l247 1161h-363q-20 0 -32 14t-7 39zM435 -298
q7 33 25.5 62t44.5 50t57.5 33t63.5 12q34 0 60.5 -12t42.5 -34.5t21 -54t-3 -69.5q-18 -83 -47 -144.5t-60.5 -102t-60 -60.5t-43.5 -20q-10 0 -22.5 7t-23 18t-17 23.5t-4.5 24.5q2 10 12 22.5t21 26.5t21 27.5t12 24.5l2 9q-26 4 -47.5 18.5t-35.5 35.5t-19.5 47.5
t0.5 55.5z" />
    <glyph glyph-name="tcommaaccent" unicode="&#x163;" horiz-adv-x="656" 
d="M431 1252q5 24 23 39.5t50 19.5l159 22q4 1 7.5 1h6.5q29 0 35 -17t0 -43l-62 -291h120q25 0 37 -15t6 -44l-23 -110q-7 -32 -25.5 -47t-43.5 -15h-120l-147 -693q-6 -29 -26 -44t-50 -15h-154q-59 0 -47 59l147 693h-54q-58 0 -45 62l23 110q12 59 71 59h54zM81 -298
q7 33 25.5 62t44.5 50t57.5 33t63.5 12q34 0 60.5 -12t42.5 -34.5t21 -54t-3 -69.5q-18 -83 -47 -144.5t-60.5 -102t-60 -60.5t-43.5 -20q-10 0 -22.5 7t-23 18t-17 23.5t-4.5 24.5q2 10 12 22.5t21 26.5t21 27.5t12 24.5l2 9q-26 4 -47.5 18.5t-35.5 35.5t-19.5 47.5
t0.5 55.5z" />
    <glyph glyph-name="Tcaron" unicode="&#x164;" horiz-adv-x="1222" 
d="M348 1441q4 18 21.5 31t37.5 13h1021q18 0 31 -11t11 -33l-38 -176q-5 -22 -21 -37.5t-41 -15.5h-363l-247 -1161q-2 -8 -7.5 -16.5t-13 -16.5t-17 -13t-18.5 -5h-200q-7 0 -14.5 4.5t-13.5 11.5t-9.5 16.5t-1.5 18.5l247 1161h-363q-20 0 -32 14t-7 39zM752 1919
q-2 3 -4.5 11t-0.5 14q1 10 9 16l33 27l74 58q24 19 43 -6l127 -163l186 155q10 8 21 13.5t18 5.5q11 0 21 -10.5t18 -21.5l45 -54q3 -5 5.5 -10t0.5 -12t-6 -13.5t-9 -10.5l-327 -269q-6 -4 -12 -7t-11 -3q-7 0 -11 3t-9 7z" />
    <glyph glyph-name="tcaron" unicode="&#x165;" horiz-adv-x="656" 
d="M431 1252q5 24 23 39.5t50 19.5l159 22q4 1 7.5 1h6.5q29 0 35 -17t0 -43l-62 -291h120q25 0 37 -15t6 -44l-23 -110q-7 -32 -25.5 -47t-43.5 -15h-120l-147 -693q-6 -29 -26 -44t-50 -15h-154q-59 0 -47 59l147 693h-54q-58 0 -45 62l23 110q12 59 71 59h54zM788 1322
q7 35 27 65.5t47 52.5t59.5 34.5t66.5 12.5q36 0 63.5 -13t44.5 -36t23 -56t-3 -73q-18 -84 -48.5 -146.5t-64 -104t-63.5 -62t-46 -20.5q-11 0 -18 3t-12 8l-42 37q-9 9 -6 27q4 16 17 27l17 19q8 8 19 24.5t16 37.5q-26 5 -46.5 20.5t-33.5 37.5t-18 49t1 56z" />
    <glyph glyph-name="Tbar" unicode="&#x166;" horiz-adv-x="1222" 
d="M347 1441q4 18 21.5 31t37.5 13h1021q18 0 31 -11t11 -33l-38 -176q-5 -22 -21 -37.5t-41 -15.5h-363l-54 -256h117q14 0 20.5 -8t3.5 -25l-37 -172q-2 -13 -13 -24t-25 -11h-117l-142 -665q-2 -8 -7.5 -16.5t-13 -16.5t-17 -13t-18.5 -5h-200q-7 0 -14.5 4.5t-13.5 11.5
t-9.5 16.5t-1.5 18.5l142 665h-98q-35 0 -28 35l37 172q6 33 42 33h98l54 256h-363q-20 0 -32 14t-7 39z" />
    <glyph glyph-name="tbar" unicode="&#x167;" horiz-adv-x="656" 
d="M756 633q14 0 21 -8t3 -25l-23 -107q-3 -14 -13.5 -24.5t-24.5 -10.5h-422q-35 0 -28 35l23 107q7 33 42 33h422zM520 1252q5 24 23 39.5t50 19.5l159 22q4 1 7.5 1h6.5q29 0 35 -17t0 -43l-62 -291h120q25 0 37 -15t6 -44l-23 -110q-7 -32 -25.5 -47t-43.5 -15h-120
l-147 -693q-6 -29 -26 -44t-50 -15h-154q-59 0 -47 59l147 693h-54q-58 0 -45 62l23 110q12 59 71 59h54z" />
    <glyph glyph-name="Utilde" unicode="&#x168;" horiz-adv-x="1504" 
d="M559 587q-15 -70 -4.5 -132t42.5 -108.5t84.5 -73.5t122.5 -27t134 27t115.5 73.5t87.5 108.5t51 132l182 854q4 18 20 31t36 13h198q18 0 31.5 -12t9.5 -32l-182 -854q-27 -126 -98.5 -237t-172.5 -194.5t-222.5 -131.5t-247.5 -48t-227.5 48t-166.5 131.5t-90 194.5
t2 237l182 854q3 15 18 29.5t33 14.5h207q14 0 27.5 -13t9.5 -31zM1024 1743q-23 0 -45.5 -16.5t-43.5 -34t-39 -26.5t-32 6l-55 65q-11 13 -6 23.5t17 24.5l25 26q101 101 219 101q33 -2 67 -14.5t61 -33.5l47 -36q22 -18 48 -18q43 0 76 29q6 6 14 14.5t17 17t18 14.5
t18 6q8 0 18 -8l59 -71q7 -12 5 -23q-2 -5 -7 -12t-7 -9l-35 -35q-49 -45 -102 -68.5t-110 -23.5q-36 0 -69 12.5t-59 34.5q-11 9 -22.5 18.5t-24 17.5t-25.5 13.5t-27 5.5z" />
    <glyph glyph-name="utilde" unicode="&#x169;" horiz-adv-x="1217" 
d="M907 0q-30 0 -44.5 9t-19.5 25t-5 38t-1 48q-29 -26 -67.5 -50t-83 -42t-93 -29t-97.5 -11q-93 0 -157.5 29.5t-101.5 82t-45.5 125t9.5 158.5l115 540q6 28 26 43.5t44 15.5h164q32 0 41 -14.5t3 -42.5l-105 -496q-17 -81 19.5 -130t114.5 -49q32 0 74.5 12.5t82 35.5
t69.5 55t38 70l108 504q11 55 70 55h161q29 0 40.5 -15.5t6.5 -39.5l-185 -867q-6 -29 -24 -44.5t-49 -15.5h-108v0zM736 1239q-23 0 -45.5 -16.5t-43.5 -34t-39 -26.5t-32 6l-55 65q-11 13 -6 23.5t17 24.5l25 26q101 101 219 101q33 -2 67 -14.5t61 -33.5l47 -36
q22 -18 48 -18q43 0 76 29q6 6 14 14.5t17 17t18 14.5t18 6q8 0 18 -8l59 -71q7 -12 5 -23q-2 -5 -7 -12t-7 -9l-35 -35q-49 -45 -102 -68.5t-110 -23.5q-36 0 -69 12.5t-59 34.5q-11 9 -22.5 18.5t-24 17.5t-25.5 13.5t-27 5.5z" />
    <glyph glyph-name="Umacron" unicode="&#x16a;" horiz-adv-x="1504" 
d="M559 587q-15 -70 -4.5 -132t42.5 -108.5t84.5 -73.5t122.5 -27t134 27t115.5 73.5t87.5 108.5t51 132l182 854q4 18 20 31t36 13h198q18 0 31.5 -12t9.5 -32l-182 -854q-27 -126 -98.5 -237t-172.5 -194.5t-222.5 -131.5t-247.5 -48t-227.5 48t-166.5 131.5t-90 194.5
t2 237l182 854q3 15 18 29.5t33 14.5h207q14 0 27.5 -13t9.5 -31zM752 1822q7 35 42 35h725q36 0 29 -35l-22 -100q-2 -12 -14 -26t-30 -14h-725q-34 0 -27 40z" />
    <glyph glyph-name="umacron" unicode="&#x16b;" horiz-adv-x="1217" 
d="M907 0q-30 0 -44.5 9t-19.5 25t-5 38t-1 48q-29 -26 -67.5 -50t-83 -42t-93 -29t-97.5 -11q-93 0 -157.5 29.5t-101.5 82t-45.5 125t9.5 158.5l115 540q6 28 26 43.5t44 15.5h164q32 0 41 -14.5t3 -42.5l-105 -496q-17 -81 19.5 -130t114.5 -49q32 0 74.5 12.5t82 35.5
t69.5 55t38 70l108 504q11 55 70 55h161q29 0 40.5 -15.5t6.5 -39.5l-185 -867q-6 -29 -24 -44.5t-49 -15.5h-108v0zM468 1337q7 35 42 35h725q36 0 29 -35l-22 -100q-2 -12 -14 -26t-30 -14h-725q-34 0 -27 40z" />
    <glyph glyph-name="Ubreve" unicode="&#x16c;" horiz-adv-x="1504" 
d="M559 587q-15 -70 -4.5 -132t42.5 -108.5t84.5 -73.5t122.5 -27t134 27t115.5 73.5t87.5 108.5t51 132l182 854q4 18 20 31t36 13h198q18 0 31.5 -12t9.5 -32l-182 -854q-27 -126 -98.5 -237t-172.5 -194.5t-222.5 -131.5t-247.5 -48t-227.5 48t-166.5 131.5t-90 194.5
t2 237l182 854q3 15 18 29.5t33 14.5h207q14 0 27.5 -13t9.5 -31zM1143 1713q-55 1 -98.5 21.5t-71.5 54t-39 76t-1 89.5q3 17 17 27.5t30 10.5h105q14 0 21 -9t4 -22q-6 -29 11.5 -51.5t62.5 -22.5q39 0 67 21.5t33 48.5q3 13 12 24t26 11h102q17 0 29 -9.5t8 -28.5
q-10 -47 -40 -90.5t-73 -76.5t-96 -53t-109 -21z" />
    <glyph glyph-name="ubreve" unicode="&#x16d;" horiz-adv-x="1217" 
d="M907 0q-30 0 -44.5 9t-19.5 25t-5 38t-1 48q-29 -26 -67.5 -50t-83 -42t-93 -29t-97.5 -11q-93 0 -157.5 29.5t-101.5 82t-45.5 125t9.5 158.5l115 540q6 28 26 43.5t44 15.5h164q32 0 41 -14.5t3 -42.5l-105 -496q-17 -81 19.5 -130t114.5 -49q32 0 74.5 12.5t82 35.5
t69.5 55t38 70l108 504q11 55 70 55h161q29 0 40.5 -15.5t6.5 -39.5l-185 -867q-6 -29 -24 -44.5t-49 -15.5h-108v0zM855 1209q-55 1 -98.5 21.5t-71.5 54t-39 76t-1 89.5q3 17 17 27.5t30 10.5h105q14 0 21 -9t4 -22q-6 -29 11.5 -51.5t62.5 -22.5q39 0 67 21.5t33 48.5
q3 13 12 24t26 11h102q17 0 29 -9.5t8 -28.5q-10 -47 -40 -90.5t-73 -76.5t-96 -53t-109 -21z" />
    <glyph glyph-name="Uring" unicode="&#x16e;" horiz-adv-x="1504" 
d="M559 587q-15 -70 -4.5 -132t42.5 -108.5t84.5 -73.5t122.5 -27t134 27t115.5 73.5t87.5 108.5t51 132l182 854q4 18 20 31t36 13h198q18 0 31.5 -12t9.5 -32l-182 -854q-27 -126 -98.5 -237t-172.5 -194.5t-222.5 -131.5t-247.5 -48t-227.5 48t-166.5 131.5t-90 194.5
t2 237l182 854q3 15 18 29.5t33 14.5h207q14 0 27.5 -13t9.5 -31zM1187 2056q43 0 78 -16.5t58 -45.5t31.5 -67.5t-0.5 -81.5q-9 -44 -34 -82t-60 -66.5t-77 -44.5t-85 -16q-44 0 -78.5 16t-56.5 44.5t-30 66.5t1 82q9 43 33 81.5t58.5 67.5t76 45.5t85.5 16.5zM1161 1928
q-35 0 -62.5 -24t-35.5 -59t10 -58t53 -23t63.5 23t36.5 58q7 35 -12 59t-53 24z" />
    <glyph glyph-name="uring" unicode="&#x16f;" horiz-adv-x="1217" 
d="M907 0q-30 0 -44.5 9t-19.5 25t-5 38t-1 48q-29 -26 -67.5 -50t-83 -42t-93 -29t-97.5 -11q-93 0 -157.5 29.5t-101.5 82t-45.5 125t9.5 158.5l115 540q6 28 26 43.5t44 15.5h164q32 0 41 -14.5t3 -42.5l-105 -496q-17 -81 19.5 -130t114.5 -49q32 0 74.5 12.5t82 35.5
t69.5 55t38 70l108 504q11 55 70 55h161q29 0 40.5 -15.5t6.5 -39.5l-185 -867q-6 -29 -24 -44.5t-49 -15.5h-108v0zM899 1552q43 0 78 -16.5t58 -45.5t31.5 -67.5t-0.5 -81.5q-9 -44 -34 -82t-60 -66.5t-77 -44.5t-85 -16q-44 0 -78.5 16t-56.5 44.5t-30 66.5t1 82
q9 43 33 81.5t58.5 67.5t76 45.5t85.5 16.5zM873 1424q-35 0 -62.5 -24t-35.5 -59t10 -58t53 -23t63.5 23t36.5 58q7 35 -12 59t-53 24z" />
    <glyph glyph-name="Uhungarumlaut" unicode="&#x170;" horiz-adv-x="1504" 
d="M559 587q-15 -70 -4.5 -132t42.5 -108.5t84.5 -73.5t122.5 -27t134 27t115.5 73.5t87.5 108.5t51 132l182 854q4 18 20 31t36 13h198q18 0 31.5 -12t9.5 -32l-182 -854q-27 -126 -98.5 -237t-172.5 -194.5t-222.5 -131.5t-247.5 -48t-227.5 48t-166.5 131.5t-90 194.5
t2 237l182 854q3 15 18 29.5t33 14.5h207q14 0 27.5 -13t9.5 -31zM1437 1720q-28 -42 -62 -42h-152q-16 0 -22 6.5t-5 16.5t6.5 21t12.5 20l131 205q17 22 30.5 32t32.5 10h159q13 0 17.5 -6.5t3.5 -16t-6 -19.5t-10 -17zM1034 1720q-28 -42 -62 -42h-152q-16 0 -22 6.5
t-5 16.5t6.5 21t12.5 20l131 205q17 22 30.5 32t32.5 10h159q13 0 17.5 -6.5t3.5 -16t-6 -19.5t-10 -17z" />
    <glyph glyph-name="uhungarumlaut" unicode="&#x171;" horiz-adv-x="1217" 
d="M907 0q-30 0 -44.5 9t-19.5 25t-5 38t-1 48q-29 -26 -67.5 -50t-83 -42t-93 -29t-97.5 -11q-93 0 -157.5 29.5t-101.5 82t-45.5 125t9.5 158.5l115 540q6 28 26 43.5t44 15.5h164q32 0 41 -14.5t3 -42.5l-105 -496q-17 -81 19.5 -130t114.5 -49q32 0 74.5 12.5t82 35.5
t69.5 55t38 70l108 504q11 55 70 55h161q29 0 40.5 -15.5t6.5 -39.5l-185 -867q-6 -29 -24 -44.5t-49 -15.5h-108v0zM1175 1216q-28 -42 -62 -42h-152q-16 0 -22 6.5t-5 16.5t6.5 21t12.5 20l131 205q17 22 30.5 32t32.5 10h159q13 0 17.5 -6.5t3.5 -16t-6 -19.5t-10 -17z
M772 1216q-28 -42 -62 -42h-152q-16 0 -22 6.5t-5 16.5t6.5 21t12.5 20l131 205q17 22 30.5 32t32.5 10h159q13 0 17.5 -6.5t3.5 -16t-6 -19.5t-10 -17z" />
    <glyph glyph-name="Uogonek" unicode="&#x172;" horiz-adv-x="1504" 
d="M559 587q-15 -70 -4.5 -132t42.5 -108.5t84.5 -73.5t122.5 -27t134 27t115.5 73.5t87.5 108.5t51 132l182 854q4 18 20 31t36 13h198q18 0 31.5 -12t9.5 -32l-182 -854q-27 -126 -98.5 -237t-172.5 -194.5t-222.5 -131.5t-247.5 -48t-227.5 48t-166.5 131.5t-90 194.5
t2 237l182 854q3 15 18 29.5t33 14.5h207q14 0 27.5 -13t9.5 -31zM626 -530q-88 24 -140.5 54t-78.5 63t-31 68t3 71q8 37 31 65.5t52.5 51.5t63 42.5t62.5 39t50 41t27 47.5h168l-9 -42q-6 -30 -26.5 -53.5t-48 -43.5t-58.5 -37t-58 -34t-46.5 -35.5t-24.5 -40.5
q-3 -15 3 -29t23.5 -27.5t48.5 -25.5t78 -24q17 -4 18 -16.5t-2 -18.5l-56 -102q-6 -11 -16 -15.5t-33 1.5z" />
    <glyph glyph-name="uogonek" unicode="&#x173;" horiz-adv-x="1217" 
d="M907 0q-30 0 -44.5 9t-19.5 25t-5 38t-1 48q-29 -26 -67.5 -50t-83 -42t-93 -29t-97.5 -11q-93 0 -157.5 29.5t-101.5 82t-45.5 125t9.5 158.5l115 540q6 28 26 43.5t44 15.5h164q32 0 41 -14.5t3 -42.5l-105 -496q-17 -81 19.5 -130t114.5 -49q32 0 74.5 12.5t82 35.5
t69.5 55t38 70l108 504q11 55 70 55h161q29 0 40.5 -15.5t6.5 -39.5l-185 -867q-6 -29 -24 -44.5t-49 -15.5h-108v0zM834 -515q-88 24 -140.5 54t-78.5 63t-31 68t3 71q8 37 31 65.5t52.5 51.5t63 42.5t62.5 39t50 41t27 47.5h168l-9 -42q-6 -30 -26.5 -53.5t-48 -43.5
t-58.5 -37t-58 -34t-46.5 -35.5t-24.5 -40.5q-3 -15 3 -29t23.5 -27.5t48.5 -25.5t78 -24q17 -4 18 -16.5t-2 -18.5l-56 -102q-6 -11 -16 -15.5t-33 1.5z" />
    <glyph glyph-name="Wcircumflex" unicode="&#x174;" horiz-adv-x="2130" 
d="M1394 1446q23 39 64 39h234q41 0 41 -29q0 -6 -1.5 -14t-7.5 -20l-308 -515l62 -474q11 18 24 40t37 61.5t63.5 105t103 171.5t155.5 259.5t221 369.5q11 20 29 32.5t43 12.5h217q23 0 33.5 -8t10.5 -22q0 -10 -2.5 -17.5t-4.5 -12.5q-35 -58 -72.5 -118.5t-85 -137
t-109 -175t-145.5 -232.5t-193.5 -309.5t-253.5 -405.5q-2 -5 -7.5 -13t-14 -15.5t-20 -13t-25.5 -5.5h-151q-28 0 -39.5 12.5t-11.5 27.5q-23 121 -47.5 248.5t-47.5 248.5l-284 -463q-15 -28 -38.5 -51t-51.5 -23h-147q-18 0 -28.5 8t-16.5 19.5t-8.5 23.5t-2.5 20
q-63 337 -128.5 678.5t-126.5 675.5q3 14 5.5 25t8.5 19t16 12t27 4h208q20 0 33 -12t17 -36l146 -1004zM1472 2059q5 4 11 6.5t13 2.5q9 0 19 -10l106 -134t106 -135q3 -3 5.5 -9.5t0.5 -14.5q-2 -6 -6.5 -11t-9.5 -10l-68 -55q-11 -10 -26 -21t-28 -11q-3 0 -10 1.5
t-20 18.5l-119 154l-188 -155q-8 -7 -18 -12.5t-21 -5.5t-20.5 11t-18.5 20l-43 53q-11 13 -5 30q4 10 15 17z" />
    <glyph glyph-name="wcircumflex" unicode="&#x175;" horiz-adv-x="1627" 
d="M626 400l301 530q14 25 32.5 39t49.5 14h159q34 0 44.5 -21t-4.5 -48l-99 -175l54 -341l300 533q15 27 36.5 39.5t43.5 12.5h182q25 0 37.5 -10.5t7.5 -31.5q-2 -7 -5 -14t-6 -13l-525 -855q-4 -6 -11 -16t-15.5 -19.5t-19 -16.5t-21.5 -7h-159q-19 0 -30.5 10.5t-18 24
t-9 27.5t-3.5 20l-57 298l-201 -327q-5 -8 -11.5 -17t-16 -17t-21 -13.5t-26.5 -5.5h-147q-19 0 -30 7t-17.5 18.5t-9.5 25t-5 26.5l-154 838q-5 29 13.5 48.5t47.5 19.5h182q25 0 38.5 -13t18.5 -34zM1130 1555q5 4 11 6.5t13 2.5q9 0 19 -10l106 -134t106 -135
q3 -3 5.5 -9.5t0.5 -14.5q-2 -6 -6.5 -11t-9.5 -10l-68 -55q-11 -10 -26 -21t-28 -11q-3 0 -10 1.5t-20 18.5l-119 154l-188 -155q-8 -7 -18 -12.5t-21 -5.5t-20.5 11t-18.5 20l-43 53q-11 13 -5 30q4 10 15 17z" />
    <glyph glyph-name="Ycircumflex" unicode="&#x176;" horiz-adv-x="1368" 
d="M393 1423q-2 3 -5 15t-3 17q0 13 12 21.5t26 8.5h256q9 -2 14 -3t9 -5t8.5 -12t10.5 -23l160 -542l434 546q10 13 17 20t12.5 11t10.5 5.5t13 2.5h261q23 0 23 -19q0 -16 -19 -40l-642 -796l-121 -573q-12 -57 -68 -57h-191q-40 0 -40 38v9.5t2 9.5l121 571zM1074 2059
q5 4 11 6.5t13 2.5q9 0 19 -10l106 -134t106 -135q3 -3 5.5 -9.5t0.5 -14.5q-2 -6 -6.5 -11t-9.5 -10l-68 -55q-11 -10 -26 -21t-28 -11q-3 0 -10 1.5t-20 18.5l-119 154l-188 -155q-8 -7 -18 -12.5t-21 -5.5t-20.5 11t-18.5 20l-43 53q-11 13 -5 30q4 10 15 17z" />
    <glyph glyph-name="ycircumflex" unicode="&#x177;" horiz-adv-x="1118" 
d="M512 -351q-10 -17 -26.5 -31t-39.5 -14h-170q-34 0 -43 20.5t7 48.5l190 337l-175 897q-6 32 11 53.5t52 21.5h175q26 0 39 -13.5t14 -33.5v1l95 -586l340 588q13 23 31.5 33.5t43.5 10.5h173q31 0 41 -13.5t5 -35.5q-2 -5 -5.5 -13.5t-11.5 -22.5zM849 1555q5 4 11 6.5
t13 2.5q9 0 19 -10l106 -134t106 -135q3 -3 5.5 -9.5t0.5 -14.5q-2 -6 -6.5 -11t-9.5 -10l-68 -55q-11 -10 -26 -21t-28 -11q-3 0 -10 1.5t-20 18.5l-119 154l-188 -155q-8 -7 -18 -12.5t-21 -5.5t-20.5 11t-18.5 20l-43 53q-11 13 -5 30q4 10 15 17z" />
    <glyph glyph-name="Ydieresis" unicode="&#x178;" horiz-adv-x="1368" 
d="M393 1423q-2 3 -5 15t-3 17q0 13 12 21.5t26 8.5h256q9 -2 14 -3t9 -5t8.5 -12t10.5 -23l160 -542l434 546q10 13 17 20t12.5 11t10.5 5.5t13 2.5h261q23 0 23 -19q0 -16 -19 -40l-642 -796l-121 -573q-12 -57 -68 -57h-191q-40 0 -40 38v9.5t2 9.5l121 571zM712 1751
q6 30 23 55.5t40 45t51 30.5t57 11q30 0 54 -11t39 -30.5t20 -45t-1 -55.5q-6 -29 -22.5 -54.5t-39.5 -45t-51.5 -30.5t-58.5 -11q-29 0 -52.5 11t-38.5 30.5t-20.5 45t0.5 54.5zM1118 1753q6 30 23 56t40 45.5t51.5 30.5t57.5 11q30 0 53.5 -11t38.5 -30.5t20 -45.5t-1 -56
q-6 -29 -22 -54.5t-39.5 -44.5t-52 -30t-58.5 -11q-29 0 -52.5 11t-38.5 30t-20.5 44.5t0.5 54.5z" />
    <glyph glyph-name="Zacute" unicode="&#x179;" horiz-adv-x="1355" 
d="M120 0q-10 0 -19 3.5t-15.5 9.5t-9.5 14t-1 18l34 163q2 8 5.5 16.5t13.5 18.5l972 967h-714q-46 0 -46 40q0 1 0.5 5.5t4.5 22t11.5 53.5t21.5 100q5 26 22.5 40t43.5 14h1072q20 0 33.5 -11t13.5 -31q0 -2 -0.5 -5.5t-4 -19t-10 -46.5t-18.5 -88q-2 -10 -5 -17.5
t-12 -18.5l-974 -974h724q20 0 32.5 -9.5t12.5 -29.5q0 -2 -0.5 -6.5t-4 -21.5t-11 -51.5t-20.5 -97.5q-5 -20 -24 -39t-43 -19h-1085zM1112 1720q-28 -42 -62 -42h-143q-20 0 -25 6.5t-2 19.5q2 8 6.5 16.5t12.5 21.5l131 205q17 22 30.5 32t32.5 10h150q13 0 19.5 -4.5
t4.5 -16.5q-2 -7 -5.5 -15.5t-13.5 -22.5z" />
    <glyph glyph-name="zacute" unicode="&#x17a;" horiz-adv-x="1034" 
d="M317 923q6 27 26 43.5t49 16.5h710q25 0 40.5 -15t8.5 -45l-28 -134q-2 -7 -5 -16t-12 -19l-569 -505h418q28 0 41.5 -15t6.5 -47l-25 -121q-2 -12 -9 -23.5t-17 -21t-22.5 -15.5t-26.5 -6h-741q-25 0 -39 20.5t-9 45.5l22 106q2 11 6.5 21t15.5 21q64 57 140.5 123.5
t156 135.5t156.5 136t141 125h-413q-29 0 -42.5 15.5t-5.5 48.5zM892 1216q-28 -42 -62 -42h-143q-20 0 -25 6.5t-2 19.5q2 8 6.5 16.5t12.5 21.5l131 205q17 22 30.5 32t32.5 10h150q13 0 19.5 -4.5t4.5 -16.5q-2 -7 -5.5 -15.5t-13.5 -22.5z" />
    <glyph glyph-name="Zdotaccent" unicode="&#x17b;" horiz-adv-x="1355" 
d="M120 0q-10 0 -19 3.5t-15.5 9.5t-9.5 14t-1 18l34 163q2 8 5.5 16.5t13.5 18.5l972 967h-714q-46 0 -46 40q0 1 0.5 5.5t4.5 22t11.5 53.5t21.5 100q5 26 22.5 40t43.5 14h1072q20 0 33.5 -11t13.5 -31q0 -2 -0.5 -5.5t-4 -19t-10 -46.5t-18.5 -88q-2 -10 -5 -17.5
t-12 -18.5l-974 -974h724q20 0 32.5 -9.5t12.5 -29.5q0 -2 -0.5 -6.5t-4 -21.5t-11 -51.5t-20.5 -97.5q-5 -20 -24 -39t-43 -19h-1085zM917 1815q7 34 26.5 63.5t46 51.5t58.5 34.5t65 12.5q34 0 61 -12.5t44.5 -34.5t23 -51.5t-1.5 -63.5q-7 -33 -25.5 -62.5t-45 -51
t-59 -34.5t-66.5 -13q-33 0 -59.5 13t-44 34.5t-24 51t0.5 62.5z" />
    <glyph glyph-name="zdotaccent" unicode="&#x17c;" horiz-adv-x="1034" 
d="M317 923q6 27 26 43.5t49 16.5h710q25 0 40.5 -15t8.5 -45l-28 -134q-2 -7 -5 -16t-12 -19l-569 -505h418q28 0 41.5 -15t6.5 -47l-25 -121q-2 -12 -9 -23.5t-17 -21t-22.5 -15.5t-26.5 -6h-741q-25 0 -39 20.5t-9 45.5l22 106q2 11 6.5 21t15.5 21q64 57 140.5 123.5
t156 135.5t156.5 136t141 125h-413q-29 0 -42.5 15.5t-5.5 48.5zM695 1311q7 34 26.5 63.5t46 51.5t58.5 34.5t65 12.5q34 0 61 -12.5t44.5 -34.5t23 -51.5t-1.5 -63.5q-7 -33 -25.5 -62.5t-45 -51t-59 -34.5t-66.5 -13q-33 0 -59.5 13t-44 34.5t-24 51t0.5 62.5z" />
    <glyph glyph-name="Zcaron" unicode="&#x17d;" horiz-adv-x="1355" 
d="M120 0q-10 0 -19 3.5t-15.5 9.5t-9.5 14t-1 18l34 163q2 8 5.5 16.5t13.5 18.5l972 967h-714q-46 0 -46 40q0 1 0.5 5.5t4.5 22t11.5 53.5t21.5 100q5 26 22.5 40t43.5 14h1072q20 0 33.5 -11t13.5 -31q0 -2 -0.5 -5.5t-4 -19t-10 -46.5t-18.5 -88q-2 -10 -5 -17.5
t-12 -18.5l-974 -974h724q20 0 32.5 -9.5t12.5 -29.5q0 -2 -0.5 -6.5t-4 -21.5t-11 -51.5t-20.5 -97.5q-5 -20 -24 -39t-43 -19h-1085zM801 1919q-2 3 -4.5 11t-0.5 14q1 10 9 16l33 27l74 58q24 19 43 -6l127 -163l186 155q10 8 21 13.5t18 5.5q11 0 21 -10.5t18 -21.5
l45 -54q3 -5 5.5 -10t0.5 -12t-6 -13.5t-9 -10.5l-327 -269q-6 -4 -12 -7t-11 -3q-7 0 -11 3t-9 7z" />
    <glyph glyph-name="zcaron" unicode="&#x17e;" horiz-adv-x="1034" 
d="M317 923q6 27 26 43.5t49 16.5h710q25 0 40.5 -15t8.5 -45l-28 -134q-2 -7 -5 -16t-12 -19l-569 -505h418q28 0 41.5 -15t6.5 -47l-25 -121q-2 -12 -9 -23.5t-17 -21t-22.5 -15.5t-26.5 -6h-741q-25 0 -39 20.5t-9 45.5l22 106q2 11 6.5 21t15.5 21q64 57 140.5 123.5
t156 135.5t156.5 136t141 125h-413q-29 0 -42.5 15.5t-5.5 48.5zM564 1417q-2 3 -4.5 11t-0.5 14q1 10 9 16l33 27l74 58q24 19 43 -6l127 -163l186 155q10 8 21 13.5t18 5.5q11 0 21 -10.5t18 -21.5l45 -54q3 -5 5.5 -10t0.5 -12t-6 -13.5t-9 -10.5l-327 -269q-6 -4 -12 -7
t-11 -3q-7 0 -11 3t-9 7z" />
    <glyph glyph-name="florin" unicode="&#x192;" horiz-adv-x="618" 
d="M-36 -392q-21 0 -33 8.5t-17 22.5t-4 32.5t5 38.5l23 108q5 22 20.5 34.5t34.5 12.5q28 0 56.5 10.5t52.5 29t41.5 43.5t23.5 54l163 766h-91q-52 0 -40 57l28 131q11 52 63 52h91l11 54q21 97 68.5 176.5t115 136.5t151 90.5t176.5 38.5q25 -1 36 -14.5t6 -37.5
l-34 -159q-5 -23 -21.5 -37t-36.5 -14q-31 0 -59.5 -10.5t-51.5 -29t-39 -43t-22 -52.5l-21 -99h133q23 0 33.5 -13t5.5 -39l-28 -131q-5 -25 -22 -41t-40 -16h-133l-140 -657q-7 -33 -15.5 -64t-18.5 -60q-27 -78 -73 -144t-107.5 -115.5t-135 -81t-155.5 -38.5z" />
    <glyph glyph-name="AEacute" unicode="&#x1fc;" horiz-adv-x="2318" 
d="M377 42q-40 -42 -80 -42h-221q-20 0 -28.5 6t-5.5 22q2 9 10 19.5t13 16.5l-2 -2v1l56 58q158 156 287.5 283.5t236 233.5t192.5 192l157.5 157.5t131.5 132t113 114.5t102.5 105t101.5 104q14 14 36 28t48 14h942q26 0 37.5 -15t5.5 -43l-35 -162q-4 -19 -22 -37
t-46 -18h-707l-69 -323h566q23 0 35.5 -13t7.5 -40l-31 -147q-4 -17 -21.5 -34t-43.5 -17h-569l-77 -361h735q56 0 43 -55l-35 -165q-5 -26 -23.5 -40.5t-43.5 -14.5h-978q-53 0 -43 49q13 60 25 114.5t26 114.5h-592zM870 540h398l108 506zM1834 1720q-28 -42 -62 -42h-143
q-20 0 -25 6.5t-2 19.5q2 8 6.5 16.5t12.5 21.5l131 205q17 22 30.5 32t32.5 10h150q13 0 19.5 -4.5t4.5 -16.5q-2 -7 -5.5 -15.5t-13.5 -22.5z" />
    <glyph glyph-name="aeacute" unicode="&#x1fd;" horiz-adv-x="1830" 
d="M1342 1216q-28 -42 -62 -42h-143q-20 0 -25 6.5t-2 19.5q2 8 6.5 16.5t12.5 21.5l131 205q17 22 30.5 32t32.5 10h150q13 0 19.5 -4.5t4.5 -16.5q-2 -7 -5.5 -15.5t-13.5 -22.5zM822 55q2 19 3 37.5t2 37.5q-24 -27 -51.5 -53.5t-62 -48t-78 -34.5t-98.5 -13h-5
q-107 0 -187.5 39t-130 107t-65.5 161t7 200q23 109 78 202t133.5 161t175.5 107t205 39q56 0 97 -14t69.5 -37.5t47 -53.5t29.5 -62l39 97q7 16 13 27t13 17t16.5 8.5t23.5 2.5h108q23 0 37 -14.5t9 -39.5l-187 -878q-5 -24 -24.5 -37t-42.5 -13h-129q-30 0 -37.5 15
t-7.5 40zM417 486q-12 -55 -5 -103t31 -83.5t64 -56t94 -20.5q55 0 104 20t88 55t66.5 83t39.5 104q11 54 4.5 102.5t-30 85t-63.5 58t-97 21.5q-55 0 -104 -21t-87.5 -57.5t-65.5 -85t-39 -102.5zM1377 214q43 -1 88.5 12.5t89.5 35.5q18 8 34 18.5t27 10.5q16 0 28 -18
l53 -125q6 -14 4 -26q-3 -15 -15.5 -26.5t-26.5 -21.5q-73 -49 -157.5 -73.5t-169.5 -24.5q-105 0 -189 40t-139 109.5t-76 163t2 200.5q15 69 46.5 134t76 122t99 104t114.5 81t123 53t125 19q110 0 192 -39.5t132.5 -106.5t68 -154t-0.5 -181q-7 -36 -23 -58t-39 -34
t-51.5 -16.5t-59.5 -4.5h-542q-5 -43 10 -79t41.5 -61.5t62 -39.5t72.5 -14zM1659 580q8 42 -2 76.5t-34 58.5t-60 37t-81 13q-37 0 -76.5 -14.5t-74 -39.5t-62 -58.5t-40.5 -72.5h430z" />
    <glyph glyph-name="Oslashacute" unicode="&#x1fe;" horiz-adv-x="1706" 
d="M1398 1720q-28 -42 -62 -42h-143q-20 0 -25 6.5t-2 19.5q2 8 6.5 16.5t12.5 21.5l131 205q17 22 30.5 32t32.5 10h150q13 0 19.5 -4.5t4.5 -16.5q-2 -7 -5.5 -15.5t-13.5 -22.5zM1172 1506q45 0 87 -5.5t82 -16.5l95 145q14 23 32 34.5t44 11.5h197q22 0 34.5 -7t8.5 -22
q-2 -11 -9 -21l-22 -33q-14 -21 -33 -50t-39.5 -60t-40 -61t-34.5 -53q64 -51 111 -118.5t73.5 -148t31 -172t-16.5 -189.5q-23 -106 -71 -203t-115.5 -182t-152 -154.5t-180 -119t-199 -76.5t-209.5 -27q-43 0 -82.5 5t-77.5 14q-25 -35 -49 -70.5t-48 -70.5
q-15 -23 -28.5 -32.5t-34.5 -9.5h-216q-40 0 -35 26q1 4 10 20q41 63 82.5 124t82.5 124q-66 51 -114 119t-75.5 149t-32 173.5t16.5 191.5q23 105 71 203t115.5 183t152 155t180 119.5t199 77t209.5 27.5zM525 742q-22 -103 -4 -193t69 -156.5t131 -105t183 -38.5
q102 0 199 38.5t176.5 105t135.5 156.5t78 193q22 102 4 191.5t-69 156.5t-131.5 105.5t-182.5 38.5q-103 0 -199.5 -38.5t-176 -105.5t-135.5 -156.5t-78 -191.5z" />
    <glyph glyph-name="oslashacute" unicode="&#x1ff;" horiz-adv-x="1170" 
d="M964 1216q-28 -42 -62 -42h-143q-20 0 -25 6.5t-2 19.5q2 8 6.5 16.5t12.5 21.5l131 205q17 22 30.5 32t32.5 10h150q13 0 19.5 -4.5t4.5 -16.5q-2 -7 -5.5 -15.5t-13.5 -22.5zM254 93q-35 34 -60.5 77.5t-39 94t-14.5 107t12 116.5q15 71 47 136t76.5 121t100 101.5
t118.5 78t131.5 50t139.5 17.5q17 0 33 -1t33 -3l65 102q14 20 31 31.5t42 11.5h156q22 0 33 -7.5t7 -25.5q-1 -5 -4 -12.5t-4 -9.5l-117 -180q81 -69 115.5 -175t6.5 -235q-15 -71 -46.5 -136t-76.5 -121t-100.5 -102t-118.5 -78.5t-131 -50.5t-138 -18q-51 0 -94 9
q-18 -27 -35.5 -53t-33.5 -51q-14 -20 -27 -29.5t-33 -9.5h-173q-29 0 -33 16t7 33zM399 487q-12 -54 -2.5 -101.5t36 -83t68 -56t95.5 -20.5q53 0 103.5 20.5t92 56t71 83t41.5 101.5q11 53 1.5 100.5t-35.5 83.5t-68 57t-95 21q-54 0 -104.5 -21t-92 -57t-71 -83.5
t-40.5 -100.5z" />
    <glyph glyph-name="Scommaaccent" unicode="&#x218;" horiz-adv-x="1282" 
d="M1238 1089q-13 0 -23.5 6t-22.5 19q-16 18 -41 41t-57.5 43.5t-71.5 34.5t-83 14q-56 0 -101.5 -12.5t-79.5 -34t-55 -50.5t-28 -62q-8 -36 9 -63t51 -48.5t80.5 -39t97.5 -33.5q88 -29 171.5 -64.5t145 -86.5t90.5 -122.5t8 -172.5q-23 -109 -86 -197t-153.5 -150.5
t-202.5 -96t-232 -33.5q-77 0 -148.5 18t-134.5 51.5t-115.5 81t-91.5 105.5q-18 25 -12 46q4 20 33 43l17 15l23 18q17 13 38 29t40.5 29t36 22t25.5 9q14 0 24 -9.5t18 -20.5q26 -35 63 -65t78.5 -53t85 -36t83.5 -13q55 0 106 14t91.5 39.5t68 61.5t36.5 80t-10 75.5
t-56 55t-86 40.5t-99 32q-114 37 -196.5 80t-132 96.5t-66 120t1.5 149.5q20 93 74 169.5t134.5 131t184 85t223.5 30.5q91 0 179 -28.5t157 -78.5q20 -15 41.5 -34t38 -38.5t26.5 -38t7 -31.5t-11.5 -24.5t-19.5 -22.5l-37 -32v1q-18 -16 -38 -33t-38.5 -30.5t-33.5 -22.5
t-24 -9zM459 -298q7 33 25.5 62t44.5 50t57.5 33t63.5 12q34 0 60.5 -12t42.5 -34.5t21 -54t-3 -69.5q-18 -83 -47 -144.5t-60.5 -102t-60 -60.5t-43.5 -20q-10 0 -22.5 7t-23 18t-17 23.5t-4.5 24.5q2 10 12 22.5t21 26.5t21 27.5t12 24.5l2 9q-26 4 -47.5 18.5t-35.5 35.5
t-19.5 47.5t0.5 55.5z" />
    </font>
</defs>
</svg>
