<?xml version="1.0" encoding="utf-8"?>
<!-- Generator: Adobe Illustrator 15.1.0, SVG Export Plug-In . SVG Version: 6.00 Build 0)  -->
<!DOCTYPE svg PUBLIC "-//W3C//DTD SVG 1.1//EN" "http://www.w3.org/Graphics/SVG/1.1/DTD/svg11.dtd">
<svg version="1.1" id="Calque_1" xmlns="http://www.w3.org/2000/svg" xmlns:xlink="http://www.w3.org/1999/xlink" x="0px" y="0px"
	 width="300px" height="300px" viewBox="0 0 300 300" enable-background="new 0 0 300 300" xml:space="preserve">
<path fill="#AB926B" d="M223.306641,74.23584c-0.228516-2.179688-0.726562-4.295898-1.50293-6.313477
	c-0.086914-0.225586-0.174805-0.446777-0.268555-0.667969c-0.1875-0.441406-0.383789-0.877441-0.601562-1.30957
	c-0.233398-0.464844-0.479492-0.925781-0.745117-1.379883c-0.264648-0.450195-0.542969-0.897461-0.835938-1.33252
	c-2.34375-3.461914-5.476562-6.150879-9.205078-7.966797c-0.847656-0.409668-1.730469-0.774902-2.637695-1.092285
	c-0.545898-0.193848-1.09375-0.374512-1.658203-0.532227c-0.380859-0.107422-0.755859-0.207031-1.144531-0.295898
	c0.205078-0.698242,0.404297-1.407227,0.601562-2.130371c0.200195-0.725098,0.389648-1.458008,0.570312-2.20166
	c0.368164-1.482422,0.699219-2.98584,0.963867-4.476562c0.401367-2.270996,0.541992-4.513672,0.427734-6.69043
	c-0.029297-0.484375-0.063477-0.964844-0.116211-1.442871c-0.125-1.192383-0.337891-2.365234-0.620117-3.507812
	c-0.056641-0.229004-0.112305-0.45752-0.178711-0.682129c-0.12793-0.453613-0.260742-0.899902-0.417969-1.34668
	c-0.975586-2.884277-2.470703-5.563477-4.462891-7.942383c-0.1875-0.224121-0.37793-0.445312-0.574219-0.660645
	c-0.489258-0.539062-1.003906-1.053711-1.53418-1.544434c-0.105469-0.095703-0.208008-0.198242-0.317383-0.292969
	c-0.05957-0.052246-0.125-0.103516-0.18457-0.15625c-0.165039-0.146973-0.330078-0.287109-0.499023-0.425293
	c-0.077148-0.056641-0.146484-0.117188-0.223633-0.174805c-0.09375-0.071777-0.180664-0.146973-0.274414-0.218262
	c-0.09668-0.075195-0.199219-0.154297-0.305664-0.229004c-0.053711-0.04248-0.112305-0.085449-0.168945-0.129395
	c-0.126953-0.088867-0.251953-0.180664-0.373047-0.266602c-0.150391-0.10791-0.299805-0.213867-0.458984-0.316406
	c-0.170898-0.120117-0.342773-0.238281-0.522461-0.355469c-0.054688-0.039062-0.114258-0.077637-0.174805-0.114258
	c-0.079102-0.049316-0.15625-0.095703-0.236328-0.143066c-0.229492-0.143555-0.467773-0.277832-0.708984-0.409668
	c-0.15918-0.089355-0.320312-0.17627-0.484375-0.258789c-0.161133-0.085449-0.321289-0.169922-0.484375-0.25293
	c-0.730469-0.367676-1.479492-0.707031-2.24707-1.008301c-0.512695-0.197754-1.02832-0.385254-1.560547-0.552734
	c-0.791992-0.25293-1.600586-0.468262-2.431641-0.644043c-0.037109-0.006348-0.073242-0.014648-0.113281-0.023926
	c-0.227539-0.046387-0.461914-0.088867-0.692383-0.132324c-0.696289-0.124023-1.401367-0.22168-2.116211-0.292969
	c-0.478516-0.044922-0.960938-0.08252-1.442383-0.107422c-0.487305-0.023926-0.975586-0.036133-1.467773-0.036133
	c-0.295898,0-0.588867,0.003418-0.882812,0.015137c-1.760742,0.048828-3.538086,0.256348-5.313477,0.618164
	c-0.295898,0.060547-0.588867,0.125977-0.884766,0.191895l-0.007812-0.009766l-0.006836-0.004395
	c-2.530273-3.789551-4.933594-6.555176-7.595703-8.763184l-0.00293-0.003906c-0.276367-0.228516-0.558594-0.449707-0.84082-0.667969
	c-0.136719-0.109863-0.283203-0.212402-0.424805-0.321289c-0.129883-0.095215-0.258789-0.191406-0.391602-0.285645
	c-0.191406-0.134277-0.387695-0.270996-0.583008-0.399902c-0.06543-0.050293-0.135742-0.095703-0.206055-0.14209
	c-0.230469-0.151855-0.459961-0.30127-0.693359-0.447754c-0.753906-0.470215-1.529297-0.899414-2.321289-1.286133
	c-0.047852-0.024902-0.101562-0.052734-0.152344-0.077637c-0.227539-0.107422-0.457031-0.215332-0.68457-0.319336
	c-0.076172-0.03125-0.149414-0.067383-0.230469-0.100098c-0.222656-0.098145-0.454102-0.195801-0.676758-0.285645
	c-0.05957-0.024414-0.115234-0.044922-0.174805-0.068359c-0.462891-0.180664-0.926758-0.347168-1.394531-0.501465
	c-0.0625-0.023438-0.128906-0.046875-0.191406-0.068848c-0.195312-0.060547-0.394531-0.118164-0.586914-0.175781
	c-0.140625-0.038086-0.27832-0.081543-0.418945-0.120117c-0.180664-0.049805-0.361328-0.098145-0.546875-0.143555
	c-0.160156-0.039062-0.324219-0.077637-0.488281-0.118164c-0.167969-0.038086-0.334961-0.078125-0.503906-0.112793
	c-0.222656-0.04834-0.445312-0.091309-0.667969-0.129395c-0.166016-0.029297-0.326172-0.061035-0.489258-0.085938
	c-0.282227-0.046387-0.569336-0.088379-0.854492-0.128906c-0.129883-0.017578-0.258789-0.03125-0.391602-0.046875
	c-0.230469-0.024902-0.456055-0.04834-0.69043-0.071289c-0.131836-0.01123-0.267578-0.025391-0.405273-0.034668
	c-0.239258-0.018555-0.485352-0.032227-0.732422-0.043945c-0.113281-0.007324-0.231445-0.01416-0.347656-0.018555
	C150.730469,0.006348,150.367188,0,150.000977,0s-0.729492,0.006348-1.091309,0.02002
	c-0.115234,0.004395-0.233398,0.01123-0.348633,0.018555c-0.248047,0.011719-0.494629,0.025391-0.737793,0.043945
	c-0.135742,0.009277-0.266602,0.023438-0.401855,0.034668c-0.229492,0.022949-0.459961,0.046387-0.69043,0.071289
	c-0.128418,0.015625-0.260742,0.029297-0.390137,0.046875c-0.290039,0.040527-0.570312,0.08252-0.855469,0.128906
	c-0.160645,0.024902-0.325684,0.056641-0.486328,0.085938c-0.226074,0.038086-0.447754,0.081055-0.671875,0.129395
	c-0.168457,0.034668-0.334961,0.074707-0.505371,0.112793c-0.163574,0.040527-0.32373,0.079102-0.487793,0.118164
	c-0.184082,0.04541-0.364746,0.09375-0.546875,0.143555c-0.138672,0.038574-0.274414,0.082031-0.415039,0.120117
	c-0.196289,0.057617-0.391113,0.115234-0.585938,0.175781c-0.063477,0.021973-0.127441,0.04541-0.193359,0.068848
	c-0.470703,0.154297-0.935059,0.320801-1.39502,0.501465c-0.057617,0.023438-0.115234,0.043945-0.172852,0.068359
	c-0.229492,0.089844-0.453613,0.1875-0.680664,0.285645c-0.077148,0.032715-0.151855,0.068848-0.22998,0.100098
	c-0.229004,0.104004-0.456055,0.211914-0.682617,0.319336c-0.052734,0.024902-0.103027,0.052734-0.155273,0.077637
	c-0.23584,0.114258-0.467773,0.237305-0.70166,0.361816c-0.059082,0.02832-0.117188,0.05957-0.174805,0.092285
	c-0.192871,0.102539-0.384766,0.211914-0.575195,0.317871c-0.038574,0.024414-0.08252,0.046875-0.121582,0.068359
	c-0.250977,0.146484-0.5,0.292969-0.74707,0.445801c-0.22998,0.146484-0.460938,0.295898-0.69043,0.447754
	c-0.071777,0.046387-0.139648,0.091797-0.208496,0.14209c-0.063477,0.038574-0.126465,0.085449-0.189941,0.128906
	c-6.626465,4.397461-9.650391,10.310059-9.650391,10.310059s-0.006348,0.010254-0.01416,0.01709
	c-0.292969-0.065918-0.589355-0.131348-0.885254-0.191895c-0.221191-0.046875-0.444336-0.088867-0.666016-0.129883
	c-0.884766-0.160156-1.77002-0.281738-2.655762-0.367676c-0.221191-0.020508-0.442383-0.037109-0.663574-0.052734
	c-0.445312-0.032715-0.884766-0.056152-1.327148-0.067871c-0.292969-0.011719-0.585938-0.015137-0.878906-0.015137
	c-0.494141,0-0.981934,0.012207-1.468262,0.036133c-0.484863,0.024902-0.967773,0.0625-1.443848,0.107422
	c-0.718262,0.071289-1.421387,0.168945-2.116699,0.292969c-0.233398,0.043457-0.462891,0.085938-0.689941,0.132324
	c-0.039551,0.009277-0.07959,0.017578-0.117188,0.023926c-0.82959,0.175781-1.639648,0.391113-2.430176,0.644043
	c-0.52832,0.16748-1.050781,0.35498-1.562012,0.552734c-0.76709,0.30127-1.513184,0.640625-2.246094,1.008301
	c-0.160645,0.083008-0.325684,0.16748-0.486328,0.25293c-0.325684,0.169434-0.64209,0.344238-0.961914,0.524902
	c-0.157715,0.094238-0.310059,0.190918-0.464355,0.286621c-0.061035,0.036621-0.117188,0.075195-0.178223,0.114258
	c-0.175781,0.117188-0.350098,0.235352-0.524902,0.355469c-0.152344,0.102539-0.302246,0.208496-0.453613,0.316406
	c-0.124512,0.089355-0.250977,0.177734-0.370605,0.266602c-0.061035,0.043945-0.118652,0.086914-0.17627,0.129395
	c-0.099609,0.074707-0.203125,0.153809-0.304199,0.229004c-0.088379,0.071289-0.180664,0.146484-0.269531,0.218262
	c-0.074707,0.057617-0.149414,0.118164-0.225586,0.174805c-0.168457,0.138184-0.336914,0.27832-0.500977,0.425293
	c-0.060547,0.052734-0.124512,0.104004-0.185059,0.15625c-0.10791,0.094727-0.210938,0.197266-0.318359,0.292969
	c-0.52832,0.490723-1.04248,1.005371-1.528809,1.544434c-0.196289,0.215332-0.389648,0.436523-0.578613,0.660645
	c-1.990723,2.378906-3.486816,5.058105-4.46582,7.942383c-0.149414,0.446777-0.285156,0.893066-0.414551,1.34668
	c-0.060547,0.224609-0.120117,0.453125-0.177246,0.682129c-0.283691,1.142578-0.491211,2.31543-0.620605,3.507812
	c-0.048828,0.478027-0.088867,0.958496-0.112305,1.442871c-0.118164,2.176758,0.023438,4.419434,0.428223,6.69043
	c0.327637,1.861328,0.76416,3.753906,1.238281,5.584961c0.097656,0.363281,0.194336,0.728516,0.289551,1.093262
	c0.197754,0.723145,0.402344,1.432129,0.600098,2.130371c-0.381836,0.088867-0.76416,0.188477-1.13916,0.295898
	c-0.564453,0.157715-1.114258,0.338379-1.660156,0.532227c-0.904297,0.317383-1.786621,0.682617-2.637695,1.092285
	c-3.729492,1.815918-6.861328,4.504883-9.201172,7.966797c-0.589355,0.871094-1.117188,1.77832-1.583496,2.712402
	c-0.215332,0.432129-0.414551,0.868164-0.600098,1.30957c-0.09375,0.221191-0.186035,0.442383-0.270996,0.667969
	c-0.776367,2.017578-1.272461,4.133789-1.501465,6.313477c-0.099609,0.967773-0.149414,1.949707-0.146484,2.941406
	c0,0.44873,0.015625,0.902344,0.035156,1.356445c0.047363,0.906738,0.137695,1.821289,0.273438,2.739746
	c0.100098,0.689453,0.227539,1.378418,0.378418,2.073242c0.25293,1.148438,0.577148,2.306641,0.977539,3.45752
	c0.160645,0.462891,0.332031,0.925781,0.519043,1.382324c0.074707,0.188477,0.15332,0.378418,0.235352,0.564453
	c0.083008,0.189941,0.166992,0.378418,0.255859,0.564453c0.180664,0.378418,0.372559,0.756836,0.57959,1.13623
	c0.718262,1.324219,1.591797,2.657715,2.56543,3.972656c0.277832,0.376465,0.564941,0.75,0.85791,1.122559
	c0.295898,0.371094,0.595703,0.73877,0.902832,1.10498c0.303223,0.368164,0.620117,0.73291,0.933105,1.094727
	c0.474609,0.541992,0.961914,1.075195,1.452637,1.600586c1.966309,2.101562,4.026855,4.054199,5.92041,5.741211
	c0.214844,0.191406,0.433105,0.385254,0.648438,0.580078c0.213379,0.186523,0.427246,0.373535,0.631348,0.550781l0.00293,0.004883
	c-0.188965,0.178223-0.375488,0.363281-0.556641,0.548828c-1.284668,1.304688-2.39209,2.754395-3.306152,4.334961
	c-0.221191,0.375977-0.426758,0.757324-0.620117,1.145996c-0.779297,1.547363-1.35791,3.17041-1.739746,4.833008
	c-0.097656,0.416504-0.178711,0.835938-0.250488,1.258301c-0.174805,1.053711-0.275879,2.118652-0.296387,3.193848
	c-0.01709,0.86084,0.01709,1.725586,0.101562,2.59375c0.227051,2.380371,0.835449,4.77002,1.823242,7.087891
	c0.047363,0.105957,0.097168,0.209961,0.143555,0.313477c1.921875,4.345215,4.721191,7.788574,8.013184,10.588379
	c0.481934,0.411133,0.971191,0.807129,1.470703,1.189453c3.009766,2.302246,6.339355,4.135254,9.729492,5.686523
	c1.128418,0.51416,2.264648,0.996094,3.393555,1.455566c0.826172,0.333496,1.650879,0.671875,2.46582,0.983398
	c0.780762,0.295898,1.438477,0.54248,1.999512,0.76416c0.111328,0.044434,0.221191,0.088379,0.324707,0.129395
	c0.20752,0.085449,0.404785,0.168457,0.583008,0.243164c0.450195,0.191895,0.817871,0.367676,1.125488,0.54541
	c0.181641,0.104492,0.347168,0.209961,0.48877,0.317871c0.146484,0.11084,0.274414,0.219727,0.393066,0.344727
	c0.039551,0.041504,0.078125,0.081055,0.114258,0.126465c0.074707,0.079102,0.143555,0.166504,0.210449,0.26123
	c0.03418,0.04541,0.064941,0.09668,0.098145,0.146484c0.095215,0.146973,0.185059,0.307617,0.277344,0.485352
	c0.032227,0.059082,0.060547,0.118164,0.093262,0.180664c0.059082,0.125977,0.12207,0.264648,0.188965,0.405273
	c0.09668,0.216797,0.201172,0.453613,0.30957,0.710449c4.882324,11.171875,12.200684,18.033691,21.71875,20.552246
	c0.166016,0.044922,0.333496,0.095215,0.5,0.140625c0.496094,0.138672,0.993164,0.285156,1.513184,0.38623
	c0.157715,0.03125,0.3125,0.036133,0.468262,0.056152v32.933594h-4.035645c-0.999023,0-1.501465,0.495605-1.501465,1.493164
	v8.086914c0,0.949219,0.502441,1.424805,1.501465,1.424805h4.035645v72.02832v1.297852
	c0,3.041992,2.467285,5.501953,5.503906,5.501953c3.042969,0,5.505859-2.459961,5.505859-5.501953v-1.297852v-21.753906h11.234375
	c0,3.039062,2.464844,5.505859,5.504883,5.505859h17.886719c1.042969,0,1.569336-0.474609,1.569336-1.425781v-8.083984
	c0-1-0.526367-1.501953-1.569336-1.501953h-14.291016v-5.540039h10.609375c1.046875,0,1.571289-0.475586,1.571289-1.423828
	v-8.083984c0-1.000977-0.524414-1.5-1.571289-1.5h-10.609375v-5.545898h14.291016c1.042969,0,1.569336-0.499023,1.569336-1.499023
	v-8.083984c0-0.944336-0.526367-1.425781-1.569336-1.425781h-17.886719c-3.040039,0-5.504883,2.46582-5.504883,5.504883h-11.234375
	v-17.170898h3.961914c1.044922,0,1.571289-0.475586,1.571289-1.424805v-8.086914c0-0.997559-0.526367-1.493164-1.571289-1.493164
	h-3.961914v-32.922363c0.157227-0.021973,0.30957-0.036133,0.467773-0.067383c0.6875-0.132812,1.341797-0.348145,2.011719-0.526855
	c9.518555-2.518555,16.833008-9.380371,21.714844-20.552246c0.114258-0.256836,0.219727-0.493652,0.314453-0.710449
	c0.066406-0.140625,0.128906-0.279297,0.19043-0.405273c0.029297-0.0625,0.05957-0.121582,0.087891-0.180664
	c0.09375-0.177734,0.180664-0.338379,0.279297-0.485352c0.03125-0.049805,0.066406-0.101074,0.101562-0.146484
	c0.061523-0.094727,0.131836-0.182129,0.205078-0.26123c0.039062-0.04541,0.076172-0.084961,0.115234-0.126465
	c0.119141-0.125,0.248047-0.233887,0.394531-0.344727c0.146484-0.10791,0.307617-0.213379,0.491211-0.317871
	c0.241211-0.143555,0.526367-0.281738,0.862305-0.433594c0.25-0.108887,0.529297-0.227539,0.844727-0.35498
	c0.104492-0.041016,0.211914-0.084961,0.321289-0.129395c0.560547-0.22168,1.222656-0.468262,2.005859-0.76416
	c0.8125-0.311523,1.639648-0.649902,2.459961-0.983398c1.132812-0.459473,2.270508-0.941406,3.397461-1.455566
	c3.386719-1.55127,6.717773-3.384277,9.726562-5.686523c0.499023-0.382324,0.991211-0.77832,1.473633-1.189453
	c3.286133-2.799805,6.089844-6.243164,8.013672-10.588379c0.045898-0.103516,0.095703-0.20752,0.136719-0.313477
	c0.990234-2.317871,1.602539-4.70752,1.830078-7.087891c0.083008-0.868164,0.115234-1.73291,0.09668-2.59375
	c-0.005859-0.428223-0.02832-0.856934-0.05957-1.285645c-0.050781-0.63916-0.126953-1.276855-0.236328-1.908203
	c-0.070312-0.422363-0.15332-0.841797-0.250977-1.258301c-0.382812-1.662598-0.958984-3.285645-1.738281-4.833008
	c-0.19043-0.388672-0.40332-0.77002-0.617188-1.145996c-0.911133-1.580566-2.024414-3.030273-3.304688-4.334961
	c-0.1875-0.185547-0.375-0.370605-0.561523-0.548828l0.003906-0.004883c0.205078-0.177246,0.416992-0.364258,0.631836-0.550781
	c0.212891-0.194824,0.429688-0.388672,0.646484-0.580078c1.891602-1.687012,3.955078-3.639648,5.922852-5.741211
	c0.489258-0.525391,0.975586-1.058594,1.448242-1.600586c0.636719-0.72168,1.250977-1.45752,1.836914-2.199707
	c0.292969-0.372559,0.583008-0.746094,0.857422-1.122559c0.979492-1.314941,1.851562-2.648438,2.569336-3.972656
	c0.205078-0.379395,0.399414-0.757812,0.576172-1.13623c0.09082-0.186035,0.174805-0.374512,0.262695-0.564453
	c0.077148-0.186035,0.158203-0.375977,0.233398-0.564453c0.183594-0.456543,0.355469-0.919434,0.513672-1.382324
	c0.240234-0.689453,0.456055-1.382812,0.639648-2.077148c0.124023-0.459473,0.239258-0.920898,0.342773-1.380371
	c0.045898-0.232422,0.09668-0.462891,0.136719-0.694824c0.097656-0.460449,0.174805-0.916992,0.240234-1.378418
	c0.134766-0.918457,0.224609-1.833008,0.271484-2.739746c0.025391-0.454102,0.035156-0.907715,0.035156-1.356445
	C223.456055,76.185547,223.40918,75.203613,223.306641,74.23584z M213.844727,80.05127
	c-0.09375,0.615723-0.21875,1.22998-0.375,1.850098c-0.234375,0.930664-0.536133,1.861328-0.90918,2.797852
	c-0.063477,0.160645-0.133789,0.325195-0.209961,0.489746c-0.152344,0.336914-0.330078,0.679199-0.527344,1.028809
	c-0.098633,0.17627-0.202148,0.353516-0.307617,0.531738c-0.520508,0.868164-1.154297,1.775879-1.867188,2.703125
	c-0.290039,0.367676-0.595703,0.741699-0.919922,1.120117c-0.320312,0.378906-0.655273,0.757812-0.991211,1.13623
	c-0.167969,0.19043-0.302734,0.371094-0.473633,0.558105c-0.15332,0.166504-0.306641,0.331055-0.464844,0.496094
	c-0.470703,0.5-0.966797,0.997559-1.461914,1.493164c-0.28125,0.285156-0.540039,0.572266-0.823242,0.854004
	c-0.517578,0.503418-1.046875,0.993164-1.580078,1.482422c-0.177734,0.163574-0.352539,0.327637-0.530273,0.487793
	c-0.146484,0.132812-0.287109,0.27002-0.430664,0.405273c-0.143555,0.134277-0.283203,0.266602-0.430664,0.395996l-0.00293,0.008301
	l-0.005859,0.00293l-0.00293,0.00293c-0.109375,0.09668-0.21875,0.193359-0.318359,0.290039
	c-0.109375,0.099609-0.213867,0.196289-0.320312,0.292969h-0.00293v0.00293c-0.430664,0.375488-0.857422,0.735352-1.291016,1.100098
	c-0.0625,0.051758-0.12207,0.103516-0.180664,0.158203c-0.399414,0.331543-0.801758,0.681152-1.191406,1.002441
	c-0.794922,0.654297-1.583984,1.28418-2.362305,1.884277c-0.038086,0.027832-0.083008,0.063965-0.118164,0.091309
	l-0.009766,0.008301c-0.02832,0.020508-0.056641,0.049805-0.091797,0.071777l-4.301758,3.346191l-0.073242,0.058105
	l-0.076172,0.060547c-0.079102,0.11377-0.152344,0.240234-0.202148,0.375977
	c-0.047852,0.133789-0.076172,0.277344-0.076172,0.429688c0,0.061523,0.00293,0.119141,0.010742,0.177246
	c0.014648,0.112793,0.041992,0.221191,0.083984,0.32373c0.107422,0.258301,0.289062,0.472168,0.516602,0.634277l4.932617,2.499023
	c0.449219,0.221191,0.881836,0.461426,1.293945,0.726074c0.277344,0.171875,0.548828,0.356445,0.80957,0.54541
	c0.128906,0.095215,0.256836,0.193848,0.387695,0.292969c0.374023,0.296387,0.732422,0.615723,1.072266,0.947754
	c0.336914,0.336914,0.655273,0.686035,0.950195,1.050781c0.392578,0.489258,0.749023,1.003906,1.060547,1.543457
	c0.255859,0.432129,0.473633,0.875977,0.670898,1.33252c0.580078,1.36377,0.900391,2.826172,0.952148,4.325195
	c0.084961,2.001953-0.301758,4.070312-1.155273,6.064941c-0.230469,0.541016-0.486328,1.066406-0.763672,1.575195
	c-0.183594,0.334473-0.37793,0.665039-0.583008,0.987305c-0.203125,0.321777-0.415039,0.639648-0.639648,0.948242
	c-0.554688,0.77002-1.166016,1.499512-1.817383,2.187988c-0.264648,0.276367-0.533203,0.542969-0.807617,0.808594
	c-1.107422,1.049805-2.321289,2.003906-3.608398,2.878418c-0.321289,0.218262-0.648438,0.428711-0.980469,0.640625
	c-0.167969,0.102539-0.332031,0.20752-0.498047,0.307129c-0.334961,0.204102-0.673828,0.403809-1.020508,0.594727
	c-0.336914,0.19873-0.682617,0.387207-1.03125,0.572266c-0.520508,0.278809-1.050781,0.547363-1.580078,0.80957
	c-0.775391,0.376953-1.555664,0.735352-2.341797,1.080078c-0.704102,0.306641-1.412109,0.61084-2.12207,0.900879
	c-0.707031,0.293457-1.414062,0.571777-2.116211,0.839844c-0.481445,0.183105-0.864258,0.33252-1.294922,0.496094
	c-3.756836,1.448242-5.801758,2.383301-7.326172,4.133789c-0.449219,0.51416-0.857422,1.097168-1.259766,1.786133
	c-0.118164,0.201172-0.228516,0.404297-0.34375,0.617676c-0.40332,0.754395-0.811523,1.62207-1.256836,2.64209
	c-0.233398,0.541992-0.478516,1.070801-0.726562,1.583496c-0.248047,0.516113-0.504883,1.017578-0.766602,1.499512
	c-0.648438,1.214355-1.335938,2.344238-2.05957,3.37793c-0.288086,0.41748-0.581055,0.81543-0.884766,1.206543
	c-0.299805,0.388184-0.606445,0.760742-0.921875,1.124023c-0.470703,0.535645-0.952148,1.04834-1.448242,1.527344
	c-0.354492,0.341309-0.709961,0.669922-1.076172,0.977539c-0.552734,0.470215-1.118164,0.901855-1.699219,1.304199
	c-0.391602,0.262207-0.783203,0.513184-1.186523,0.746582c-1.005859,0.586426-2.055664,1.074219-3.147461,1.47168
	c-0.439453,0.154297-0.886719,0.300781-1.334961,0.422363c-0.116211,0.030762-0.239258,0.053223-0.349609,0.087402v-60.865234
	l23.05957-23.05957c0.705078-0.708984,0.723633-1.398438,0.053711-2.068359l-5.714844-5.717285
	c-0.708984-0.706543-1.416992-0.706543-2.124023,0l-15.274414,15.277344V45.741699c0-1.044434-0.478516-1.568359-1.422852-1.568359
	h-8.087402c-1.002441,0-1.499512,0.523926-1.499512,1.568359v24.350586l-15.23877-15.239258
	c-0.711914-0.709473-1.413086-0.709473-2.122559,0l-5.71582,5.718262c-0.672363,0.668945-0.65332,1.358398,0.054199,2.063965
	l23.022949,23.026367v27.513184l-15.23877-15.238281c-0.711914-0.708496-1.413086-0.708496-2.122559,0l-5.71582,5.71582
	c-0.672363,0.671875-0.65332,1.36084,0.054199,2.066895l23.022949,23.025879v38.922363
	c-0.117188-0.03418-0.23584-0.056641-0.347656-0.087402c-0.453613-0.121582-0.901367-0.268066-1.337891-0.422363
	c-1.097168-0.397461-2.145996-0.885254-3.151367-1.47168c-0.399414-0.233398-0.794922-0.484375-1.180176-0.746582
	c-0.583008-0.402344-1.151855-0.833984-1.702148-1.304199c-0.362793-0.307617-0.725098-0.63623-1.078125-0.977539
	c-0.496094-0.479004-0.979004-0.991699-1.447266-1.527344c-0.312988-0.363281-0.621094-0.73584-0.922852-1.124023
	c-0.298828-0.391113-0.59668-0.789062-0.883301-1.206543c-0.723633-1.033691-1.412598-2.163574-2.0625-3.37793
	c-0.261719-0.481934-0.51416-0.983398-0.763672-1.499512c-0.247559-0.512695-0.490723-1.041504-0.729492-1.583496
	c-0.572266-1.310059-1.080566-2.369629-1.597656-3.259766c-0.404297-0.688965-0.810059-1.271973-1.258301-1.786133
	c-1.527344-1.750488-3.572754-2.685547-7.325684-4.133789c-0.105957-0.039062-0.215332-0.078125-0.318359-0.120117
	c-0.311523-0.122559-0.618652-0.239746-0.978027-0.375977c-0.705078-0.268066-1.411133-0.546387-2.118652-0.839844
	c-0.708008-0.290039-1.416016-0.594238-2.12207-0.900879c-0.787109-0.344727-1.564941-0.703125-2.337891-1.080078
	c-0.531738-0.262207-1.05957-0.530762-1.582031-0.80957c-0.350098-0.185059-0.691895-0.373535-1.035156-0.572266
	c-0.344727-0.190918-0.683105-0.390625-1.016113-0.594727c-0.166992-0.099609-0.334961-0.20459-0.499023-0.307129
	c-0.333496-0.211914-0.657715-0.422363-0.980469-0.640625c-1.289062-0.874512-2.50293-1.828613-3.606934-2.878418
	c-0.278809-0.265625-0.54541-0.532227-0.807617-0.808594c-0.657715-0.688477-1.263672-1.417969-1.820312-2.187988
	c-0.222656-0.308594-0.433105-0.626465-0.637695-0.948242c-0.204102-0.322266-0.398926-0.652832-0.585938-0.987305
	c-0.273926-0.508789-0.531738-1.03418-0.760742-1.575195c-1.496582-3.495605-1.554199-7.203613-0.20459-10.390137
	c0.19873-0.456543,0.419922-0.900391,0.669434-1.33252c0.312988-0.539551,0.666992-1.054199,1.065918-1.543457
	c0.391602-0.489746,0.824707-0.947754,1.29541-1.374512c0.232422-0.218262,0.475586-0.422852,0.729492-0.624023
	c0.123047-0.099121,0.251953-0.197754,0.384766-0.292969c0.260742-0.188965,0.528809-0.373535,0.804199-0.54541
	c0.413086-0.264648,0.84668-0.504883,1.297363-0.726074l4.931641-2.499023c0.230957-0.162109,0.411621-0.375977,0.514648-0.634277
	c0.043457-0.102539,0.071289-0.210938,0.091797-0.32373c0.005859-0.058105,0.008789-0.115723,0.008789-0.177246
	c0-0.152344-0.029297-0.295898-0.077637-0.429688c-0.054688-0.135742-0.121582-0.262207-0.207031-0.375977l-0.074707-0.060547
	l-0.074707-0.058105l-4.302246-3.346191c-0.02832-0.021973-0.061035-0.05127-0.088867-0.071777l-0.007324-0.008301
	c-0.039551-0.027344-0.079102-0.063477-0.119141-0.091309c-0.777832-0.600098-1.571289-1.22998-2.364746-1.884277
	c-0.393066-0.321289-0.788574-0.670898-1.186035-1.002441c-0.05957-0.054688-0.119629-0.106445-0.185547-0.158203
	c-0.428711-0.364746-0.861328-0.724609-1.285645-1.100098l-0.003418-0.00293c-0.217773-0.19043-0.428711-0.389648-0.643555-0.583008
	l-0.003418-0.00293l-0.00293-0.00293l-0.003418-0.004395c-0.146484-0.133301-0.290039-0.265625-0.433594-0.399902
	c-0.139648-0.135254-0.281738-0.272461-0.425293-0.405273c-0.177246-0.160156-0.355469-0.324219-0.53125-0.487793
	c-0.536621-0.489258-1.064941-0.979004-1.579102-1.482422c-0.290039-0.281738-0.54541-0.568848-0.824707-0.854004
	c-0.494141-0.495605-0.993164-0.993164-1.464844-1.493164c-0.157715-0.165039-0.31543-0.32959-0.464844-0.496094
	c-0.171387-0.187012-0.304199-0.367676-0.470703-0.558105c-0.336426-0.378418-0.671875-0.757324-0.994141-1.13623
	c-0.321777-0.378418-0.631348-0.752441-0.918457-1.120117c-0.359863-0.466797-0.695312-0.922852-1.008301-1.374023
	c-0.313965-0.450195-0.600098-0.895996-0.858887-1.329102c-0.378906-0.628418-0.693848-1.231445-0.941406-1.803711
	c-0.034668-0.08252-0.070312-0.166992-0.106445-0.246582c-0.374023-0.936523-0.674805-1.867188-0.906738-2.797852
	c-0.15332-0.620117-0.279297-1.234375-0.374512-1.850098c-0.140625-0.918457-0.215332-1.828613-0.225586-2.724609
	c-0.029297-2.072754,0.288086-4.066406,0.975586-5.895508c0.157227-0.42041,0.335449-0.836426,0.53125-1.239258
	c0.074707-0.149414,0.149902-0.300293,0.229004-0.450195c0.23584-0.442383,0.497559-0.878906,0.780762-1.297852
	c2.77002-4.097168,7.291992-6.347656,13.07959-6.51123l2.179688-0.061035l1.628906-0.054688l0.773438-0.071289
	c0.055664,0,0.111816-0.003418,0.169922-0.010742c0.010254-0.00293,0.024414-0.00293,0.035156-0.006836
	c0.058105-0.010254,0.111328-0.02002,0.165527-0.03418v-0.004395c0.052734-0.01416,0.102539-0.036133,0.154297-0.061035
	c0.006348-0.003418,0.01709-0.006348,0.022949-0.010742c0.051758-0.024902,0.100098-0.053223,0.146484-0.084473
	c0.447754-0.398926,0.522949-0.844727,0.476074-1.206055l-0.121582-0.391113l0.007324-0.011719
	c0,0-0.043457-0.096191-0.121094-0.27832c0,0-7.109863-11.488281-4.80127-22.806641
	c0.406738-2.96582,1.557129-5.658203,3.40918-7.867188c0.241699-0.292969,0.498535-0.571777,0.76709-0.837891
	c7.806152-8.760742,21.384277-2.680176,21.384277-2.680176c0.077637,0.04541,0.163574,0.088867,0.257324,0.117188
	c0.010742,0.00293,0.021973,0.008301,0.035645,0.01123l0.009766,0.004395c0.429688,0.120117,0.869141,0.00293,1.176758-0.283691
	c0.030762-0.029297,0.060547-0.053223,0.085449-0.081055c0.061035-0.068359,0.11084-0.140137,0.155762-0.218262
	c0.262207-0.370605,0.585938-0.824707,0.94043-1.321777c0,0,1.678711-3.130371,4.711426-6.463867
	c-0.132324,0.171387-0.278809,0.378418-0.367676,0.504395c0.126465-0.16748,0.251465-0.347168,0.375977-0.507324
	c0.008789-0.01709,0.024902-0.035156,0.035645-0.050781l0.00293-0.00293c0.039062-0.049805,0.080078-0.09668,0.117188-0.141602
	c0.061035-0.068359,0.123047-0.135742,0.184082-0.201172c0.057617-0.067383,0.116699-0.135742,0.177734-0.207031l0.005859-0.003418
	c0.012695-0.01416,0.023438-0.024414,0.029297-0.040039c0.128418-0.149902,0.254883-0.274414,0.383789-0.420898l0.00293-0.00293
	c0.011719-0.01123,0.014648-0.017578,0.014648-0.017578c0.336426-0.383789,0.660645-0.758789,0.988281-1.104004
	c0.042969-0.047852,0.089844-0.098145,0.136719-0.143555l0.021973-0.022461c0.310059-0.317383,0.625488-0.621094,0.941406-0.907715
	c0.151367-0.135254,0.300781-0.27002,0.453125-0.398926c0.041016-0.033203,0.083008-0.071777,0.124023-0.102539l0.005859-0.005371
	c0.198242-0.164551,0.393066-0.321289,0.588867-0.472168c0.10791-0.081055,0.215332-0.155762,0.318359-0.230957
	c0.098145-0.071289,0.189941-0.143066,0.287109-0.211426c0.141602-0.099609,0.288086-0.194824,0.43457-0.295898
	c0.057617-0.034668,0.114258-0.075684,0.171387-0.11377c0.17334-0.111328,0.344727-0.213867,0.517578-0.319824
	c0.034668-0.02002,0.06543-0.037598,0.09668-0.05957c0.193359-0.110352,0.38623-0.216797,0.580078-0.325195
	c0.012695-0.006348,0.029297-0.01416,0.046875-0.025391c0.204102-0.107422,0.409668-0.213867,0.619629-0.312988l0.003418-0.003418
	c0.22168-0.109375,0.439941-0.20752,0.663086-0.300293c0.121094-0.053711,0.244141-0.10498,0.370605-0.153809
	c0.101074-0.039551,0.196289-0.083496,0.295898-0.118164c0.20459-0.079102,0.408691-0.149414,0.614258-0.218262
	c0.037598-0.013672,0.071777-0.02832,0.107422-0.040039c0.243652-0.081543,0.489746-0.157715,0.740234-0.225098l0.006836-0.00293
	c0.243164-0.068359,0.484375-0.12793,0.729492-0.185547c0.013672,0,0.024902-0.00293,0.038574-0.007812
	c0.232422-0.052734,0.467773-0.099609,0.70459-0.146484c0.024902-0.00293,0.04834-0.006348,0.074707-0.013672
	c0.221191-0.039551,0.442383-0.070312,0.669434-0.104004c0.036621-0.007324,0.077637-0.014648,0.116699-0.017578
	c0.209961-0.027832,0.42041-0.049805,0.635742-0.071777c0.053223-0.00293,0.104492-0.009766,0.157227-0.01709
	c0.206055-0.017578,0.414551-0.029297,0.623535-0.040039c0.059082-0.003906,0.115723-0.007324,0.174316-0.010254
	c0.191895-0.010742,0.383789-0.010742,0.577148-0.01416c0.07666,0,0.149902,0.003418,0.226074,0.003418
	c0.073242,0,0.149414-0.003418,0.227539-0.003418c0.195312,0.003418,0.383789,0.003418,0.575195,0.01416
	c0.056641,0.00293,0.116211,0.006348,0.174805,0.010254c0.208984,0.010742,0.416992,0.022461,0.620117,0.040039
	c0.056641,0.007324,0.109375,0.01416,0.157227,0.01709c0.216797,0.021973,0.428711,0.043945,0.642578,0.071777
	c0.037109,0.00293,0.073242,0.010254,0.115234,0.017578c0.223633,0.033691,0.449219,0.064453,0.668945,0.104004
	c0.025391,0.007324,0.049805,0.010742,0.078125,0.013672c0.234375,0.046875,0.46582,0.09375,0.699219,0.146484
	C153.970703,9.824707,153.985352,9.827637,154,9.827637c0.244141,0.057617,0.487305,0.117188,0.725586,0.185547l0.006836,0.00293
	c0.25,0.067383,0.498047,0.143555,0.738281,0.225098c0.039062,0.011719,0.073242,0.026367,0.112305,0.040039
	c0.206055,0.068848,0.408203,0.13916,0.611328,0.218262c0.101562,0.034668,0.202148,0.078613,0.298828,0.118164
	c0.123047,0.048828,0.248047,0.100098,0.374023,0.153809c0.216797,0.092773,0.44043,0.190918,0.651367,0.297363l0.011719,0.006348
	c0.208008,0.099121,0.414062,0.205566,0.620117,0.312988c0.018555,0.01123,0.033203,0.019043,0.049805,0.025391
	c0.191406,0.108398,0.383789,0.214844,0.575195,0.325195c0.03125,0.021973,0.0625,0.039551,0.098633,0.05957
	c0.168945,0.105957,0.34375,0.208496,0.515625,0.319824c0.055664,0.038086,0.115234,0.079102,0.174805,0.11377
	c0.143555,0.101074,0.290039,0.196289,0.431641,0.295898c0.094727,0.068359,0.191406,0.140137,0.287109,0.211426
	c0.103516,0.075195,0.211914,0.149902,0.317383,0.230957c0.195312,0.150879,0.394531,0.307617,0.588867,0.467773l0.00293,0.004395
	c0.045898,0.036133,0.084961,0.074707,0.129883,0.10791c0.143555,0.121582,0.285156,0.246094,0.428711,0.378418
	c0.324219,0.292969,0.645508,0.600098,0.966797,0.928223c0.007812,0.012207,0.013672,0.019531,0.021484,0.026367
	c0.048828,0.04541,0.09082,0.091797,0.135742,0.139648c0.330078,0.348145,0.665039,0.732422,0.998047,1.117676
	c0.128906,0.146484,0.260742,0.274902,0.385742,0.427734c0.013672,0.015625,0.025391,0.025879,0.036133,0.040039l0.00293,0.003418
	c0.121094,0.146484,0.240234,0.268066,0.360352,0.408203c0.037109,0.044922,0.082031,0.091797,0.121094,0.141602v0.00293
	c0.014648,0.015625,0.02832,0.036621,0.042969,0.053711c3.03418,3.333496,4.712891,6.463867,4.712891,6.463867
	c0.355469,0.49707,0.676758,0.951172,0.941406,1.321777c0.045898,0.078125,0.09375,0.149902,0.15332,0.218262
	c0.02832,0.027832,0.058594,0.051758,0.086914,0.081055c0.307617,0.286621,0.750977,0.403809,1.176758,0.283691h0.003906
	l0.009766-0.004395c0.009766-0.00293,0.020508-0.008301,0.035156-0.01123c0.089844-0.02832,0.174805-0.071777,0.253906-0.117188
	c0,0,13.578125-6.080566,21.382812,2.680176c0.267578,0.266113,0.526367,0.544922,0.774414,0.837891
	c1.848633,2.208984,2.996094,4.901367,3.407227,7.867188c2.307617,11.318359-4.806641,22.803223-4.806641,22.803223
	c-0.076172,0.185547-0.121094,0.281738-0.121094,0.281738l0.005859,0.011719l-0.118164,0.391113
	c-0.045898,0.361328,0.027344,0.807129,0.478516,1.206055c0.041992,0.03125,0.094727,0.05957,0.142578,0.084473
	c0,0,0.016602,0.007324,0.02832,0.010742c0.044922,0.024902,0.100586,0.046875,0.15332,0.061035v0.004395
	c0.047852,0.01416,0.108398,0.023926,0.160156,0.03418c0.013672,0.003906,0.024414,0.003906,0.039062,0.006836
	c0.055664,0.007324,0.110352,0.010742,0.169922,0.010742h0.004883l0.767578,0.071289l1.630859,0.054688l2.172852,0.061035
	c5.789062,0.163574,10.318359,2.414062,13.084961,6.51123c0.283203,0.418945,0.543945,0.855469,0.77832,1.297852
	c0.079102,0.149902,0.15625,0.300781,0.228516,0.450195c0.199219,0.402832,0.378906,0.818848,0.539062,1.239258
	c0.682617,1.829102,0.99707,3.822754,0.972656,5.895508C214.0625,78.222656,213.988281,79.132812,213.844727,80.05127z"/>
</svg>
