<?xml version="1.0" encoding="utf-8"?>
<!-- Generator: Adobe Illustrator 15.1.0, SVG Export Plug-In . SVG Version: 6.00 Build 0)  -->
<!DOCTYPE svg PUBLIC "-//W3C//DTD SVG 1.1//EN" "http://www.w3.org/Graphics/SVG/1.1/DTD/svg11.dtd">
<svg version="1.1" id="Calque_1" xmlns="http://www.w3.org/2000/svg" xmlns:xlink="http://www.w3.org/1999/xlink" x="0px" y="0px"
	 width="455px" height="195px" viewBox="0 0 455 195" enable-background="new 0 0 455 195" xml:space="preserve">
<g>
	<defs>
		<rect id="SVGID_1_" width="455" height="195"/>
	</defs>
	<clipPath id="SVGID_2_">
		<use xlink:href="#SVGID_1_"  overflow="visible"/>
	</clipPath>
	<path clip-path="url(#SVGID_2_)" fill="#FFFFFF" d="M0,107.933594c0-0.302734,0.100098-0.561523,0.301758-0.77832
		c0.199219-0.216797,0.483398-0.327148,0.852051-0.327148h5.119141c0.703125,0,1.072266,0.369141,1.10498,1.105469v29.375h16.723145
		c0.301758,0,0.561035,0.101562,0.777832,0.301758c0.217285,0.202148,0.327148,0.486328,0.327148,0.852539v4.569336
		c0,0.704102-0.369141,1.073242-1.10498,1.105469H1.10498c-0.737793,0-1.10498-0.366211-1.10498-1.105469V107.933594z"/>
	<path clip-path="url(#SVGID_2_)" fill="#FFFFFF" d="M36.619629,143.134766v-35.250977
		c0-0.670898,0.319336-1.005859,0.955078-1.005859h24.546875c0.668457,0,1.002441,0.334961,1.002441,1.005859v4.871094
		c0,0.667969-0.333984,1.00293-1.002441,1.00293H43.949707v7.582031h13.853027c0.73584,0,1.10498,0.336914,1.10498,1.004883
		v4.769531c0,0.670898-0.369141,1.005859-1.10498,1.005859H43.949707v9.1875h18.623047
		c0.703125,0,1.055176,0.336914,1.055176,1.005859v4.821289c0,0.667969-0.352051,1.00293-1.055176,1.00293H37.574707
		C36.938965,144.137695,36.619629,143.802734,36.619629,143.134766"/>
	<path clip-path="url(#SVGID_2_)" fill="#FFFFFF" d="M71.64502,138.462891c-0.26709-0.298828-0.469238-0.600586-0.601074-0.902344
		c-0.135254-0.302734-0.01709-0.636719,0.352051-1.005859l3.362793-3.311523c0.298828-0.270508,0.594238-0.362305,0.87793-0.277344
		c0.28418,0.082031,0.576172,0.259766,0.876953,0.526367c0.501953,0.503906,1.062988,1.012695,1.683105,1.53125
		c0.619141,0.518555,1.287109,0.987305,2.007812,1.40625c0.718262,0.418945,1.496094,0.75293,2.333008,1.005859
		c0.836426,0.25,1.723145,0.376953,2.661133,0.376953c1.003906,0,1.890137-0.135742,2.660156-0.402344
		c0.77002-0.269531,1.431152-0.62793,1.981934-1.080078c0.554199-0.454102,0.970215-0.969727,1.256836-1.555664
		c0.282227-0.585938,0.42627-1.197266,0.42627-1.833008c0-0.803711-0.244141-1.482422-0.728027-2.036133
		c-0.486328-0.550781-1.079102-1.020508-1.783203-1.404297c-0.703125-0.383789-1.462891-0.703125-2.282715-0.955078
		c-0.821289-0.25-1.563965-0.458984-2.234375-0.625977c-4.049805-1.207031-7.135742-2.688477-9.260742-4.444336
		c-2.125977-1.759766-3.188965-4.058594-3.188965-6.904297c0-1.541992,0.32666-2.946289,0.97998-4.217773
		c0.653809-1.272461,1.57373-2.370117,2.759766-3.290039c1.189941-0.919922,2.618164-1.631836,4.293945-2.135742
		c1.67334-0.500977,3.513184-0.75293,5.52002-0.75293c2.208984,0,4.326172,0.521484,6.351074,1.556641
		c2.023926,1.040039,3.789062,2.30957,5.294922,3.81543c0.601074,0.639648,0.583984,1.290039-0.049805,1.960938l-2.762207,2.960938
		c-0.333984,0.301758-0.650879,0.394531-0.952637,0.276367c-0.30127-0.117188-0.620117-0.308594-0.954102-0.576172
		c-0.401855-0.333984-0.86084-0.703125-1.378906-1.104492c-0.520996-0.401367-1.090332-0.77832-1.708008-1.129883
		c-0.619141-0.351562-1.271973-0.646484-1.957031-0.880859c-0.686035-0.231445-1.396973-0.351562-2.135254-0.351562
		c-0.635742,0-1.295898,0.052734-1.981934,0.152344s-1.303711,0.294922-1.856934,0.576172
		c-0.550781,0.286133-1.013184,0.688477-1.378906,1.207031c-0.369141,0.519531-0.554199,1.212891-0.554199,2.082031
		c0,0.637695,0.177246,1.19043,0.529297,1.657227c0.350586,0.470703,0.853027,0.879883,1.505859,1.232422
		c0.650879,0.351562,1.420898,0.675781,2.309082,0.977539c0.884766,0.300781,1.864746,0.603516,2.934082,0.905273
		c1.708008,0.500977,3.313965,1.0625,4.819824,1.680664c1.505859,0.621094,2.819824,1.381836,3.938965,2.285156
		c1.12207,0.90332,2.01709,1.975586,2.687988,3.214844c0.667969,1.237305,1.001953,2.729492,1.001953,4.466797
		c0,1.741211-0.383789,3.323242-1.153809,4.74707c-0.77002,1.422852-1.79834,2.636719-3.086914,3.639648
		c-1.289062,1.004883-2.777344,1.775391-4.468262,2.30957c-1.689941,0.536133-3.437988,0.804688-5.246094,0.804688
		c-2.60791,0-5.118652-0.567383-7.526855-1.708008C75.409668,141.794922,73.353027,140.305664,71.64502,138.462891"/>
	<path clip-path="url(#SVGID_2_)" fill="#FFFFFF" d="M232.332031,107.001953h-5.419922
		c-0.670898,0-1.004883,0.351562-1.004883,1.054688v35.199219c0,0.670898,0.333984,1.004883,1.004883,1.004883h5.419922
		c0.635742,0,0.955078-0.333984,0.955078-1.004883v-35.199219C233.287109,107.353516,232.967773,107.001953,232.332031,107.001953"
		/>
	<path clip-path="url(#SVGID_2_)" fill="#FFFFFF" d="M175.032715,97.542969l-2.09082,4.763672
		c-0.269043,0.700195-0.702148,1.052734-1.306152,1.053711l-3.611816,0.00293
		c-0.336914,0.000977-0.554199-0.048828-0.653809-0.149414c-0.100098-0.098633-0.150391-0.265625-0.150391-0.500977
		c0-0.134766,0.025391-0.268555,0.074219-0.401367c0.049805-0.134766,0.106934-0.319336,0.173828-0.553711l1.992188-4.61084
		c0.368164-0.703613,0.818848-1.055664,1.35498-1.055664l3.765137-0.003906c0.46582-0.000977,0.700684,0.166016,0.700684,0.5
		C175.281738,96.857422,175.199707,97.174316,175.032715,97.542969"/>
	<path clip-path="url(#SVGID_2_)" fill="#FFFFFF" d="M155.908691,143.258789v-35.250977
		c0-0.671875,0.319336-1.006836,0.955078-1.006836h24.547363c0.667969,0,1.001953,0.334961,1.001953,1.006836v4.870117
		c0,0.668945-0.333984,1.00293-1.001953,1.00293H163.23877v7.583008h13.853027c0.736328,0,1.10498,0.336914,1.10498,1.004883
		v4.768555c0,0.670898-0.368652,1.004883-1.10498,1.004883H163.23877v9.189453h18.623047
		c0.703125,0,1.055176,0.336914,1.055176,1.005859v4.821289c0,0.667969-0.352051,1.00293-1.055176,1.00293H156.86377
		C156.228027,144.261719,155.908691,143.926758,155.908691,143.258789"/>
	<path clip-path="url(#SVGID_2_)" fill="#FFFFFF" d="M190.82666,138.586914c-0.269043-0.298828-0.46875-0.601562-0.603027-0.90332
		c-0.134766-0.301758-0.018066-0.635742,0.351074-1.004883l3.36377-3.313477c0.30127-0.268555,0.593262-0.360352,0.877441-0.275391
		c0.284668,0.082031,0.578613,0.258789,0.879883,0.525391c0.501953,0.503906,1.062988,1.013672,1.680664,1.53125
		c0.618164,0.519531,1.289062,0.988281,2.007324,1.407227c0.720703,0.418945,1.499023,0.75293,2.335938,1.004883
		c0.835938,0.25,1.723145,0.376953,2.661133,0.376953c1.001953,0,1.889648-0.134766,2.659668-0.402344
		c0.768066-0.268555,1.429199-0.62793,1.981934-1.080078c0.55127-0.453125,0.970215-0.969727,1.254395-1.555664
		c0.284668-0.585938,0.426758-1.197266,0.426758-1.833008c0-0.802734-0.241699-1.481445-0.728027-2.036133
		c-0.483887-0.550781-1.080078-1.019531-1.780762-1.40332c-0.703125-0.384766-1.466309-0.703125-2.283203-0.955078
		c-0.820801-0.25-1.565918-0.458984-2.233887-0.625977c-4.049805-1.208008-7.13916-2.689453-9.263184-4.445312
		c-2.124023-1.758789-3.187012-4.057617-3.187012-6.904297c0-1.541992,0.327148-2.945312,0.978027-4.217773
		c0.65332-1.271484,1.573242-2.370117,2.762207-3.290039c1.187012-0.919922,2.618164-1.630859,4.291016-2.134766
		c1.672852-0.500977,3.512695-0.75293,5.522949-0.75293c2.207031,0,4.322754,0.520508,6.348145,1.555664
		c2.024902,1.040039,3.790039,2.310547,5.295898,3.816406c0.603027,0.638672,0.585938,1.290039-0.050293,1.960938
		l-2.759766,2.960938c-0.333984,0.300781-0.652832,0.393555-0.955078,0.275391
		c-0.298828-0.116211-0.618164-0.308594-0.952148-0.575195c-0.401855-0.333984-0.862793-0.703125-1.381836-1.105469
		c-0.518066-0.401367-1.086914-0.77832-1.705078-1.129883c-0.621094-0.350586-1.273926-0.646484-1.957031-0.879883
		c-0.688965-0.232422-1.398926-0.352539-2.134766-0.352539c-0.63623,0-1.295898,0.053711-1.981934,0.152344
		c-0.687988,0.099609-1.306152,0.294922-1.856934,0.577148c-0.554199,0.286133-1.013184,0.6875-1.382324,1.207031
		c-0.369141,0.518555-0.550781,1.211914-0.550781,2.082031c0,0.635742,0.174805,1.189453,0.525879,1.657227
		c0.352051,0.470703,0.853027,0.879883,1.505859,1.231445c0.654297,0.352539,1.421387,0.675781,2.309082,0.978516
		c0.888184,0.300781,1.865234,0.602539,2.937012,0.904297c1.706055,0.500977,3.313965,1.063477,4.819824,1.681641
		c1.506348,0.621094,2.817383,1.381836,3.939453,2.285156c1.119629,0.902344,2.014648,1.974609,2.685547,3.214844
		c0.668457,1.236328,1.004395,2.728516,1.004395,4.466797c0,1.741211-0.38623,3.323242-1.154297,4.74707
		c-0.77002,1.421875-1.799805,2.635742-3.086914,3.638672c-1.289062,1.004883-2.779785,1.776367-4.467773,2.310547
		c-1.689941,0.535156-3.437988,0.804688-5.246094,0.804688c-2.609863,0-5.121094-0.568359-7.530273-1.708008
		C194.591797,141.918945,192.531738,140.429688,190.82666,138.586914"/>
	<path clip-path="url(#SVGID_2_)" fill="#FFFFFF" d="M240.875977,143.258789v-35.250977
		c0-0.671875,0.333984-1.006836,1.003906-1.006836h11.996094c2.375977,0,4.695312,0.477539,6.954102,1.432617
		c2.255859,0.953125,4.266602,2.266602,6.021484,3.94043c1.757812,1.676758,3.170898,3.649414,4.244141,5.926758
		c1.068359,2.277344,1.604492,4.719727,1.604492,7.331055c0,2.511719-0.475586,4.878906-1.430664,7.105469
		c-0.952148,2.228516-2.276367,4.175781-3.963867,5.848633c-1.691406,1.676758-3.665039,3.013672-5.924805,4.018555
		c-2.258789,1.005859-4.692383,1.556641-7.302734,1.657227h-12.198242
		C241.209961,144.261719,240.875977,143.926758,240.875977,143.258789 M265.320312,125.631836
		c0-1.639648-0.308594-3.180664-0.927734-4.619141c-0.620117-1.44043-1.462891-2.694336-2.535156-3.767578
		c-1.070312-1.069336-2.351562-1.915039-3.839844-2.536133c-1.488281-0.618164-3.086914-0.927734-4.794922-0.927734h-4.969727
		v23.700195h4.969727c1.708008,0,3.306641-0.308594,4.794922-0.927734c1.488281-0.618164,2.769531-1.463867,3.839844-2.536133
		c1.072266-1.070312,1.915039-2.325195,2.535156-3.767578C265.011719,128.811523,265.320312,127.272461,265.320312,125.631836"/>
	<path clip-path="url(#SVGID_2_)" fill="#FFFFFF" d="M313.480469,108.106445c0-0.301758,0.091797-0.560547,0.276367-0.77832
		c0.18457-0.216797,0.461914-0.326172,0.828125-0.326172h5.874023c0.267578,0,0.542969,0.05957,0.828125,0.176758
		c0.28418,0.117188,0.493164,0.308594,0.62793,0.576172l16.513672,23.75293v-23.75293
		c0.099609-0.301758,0.258789-0.500977,0.475586-0.601562c0.219727-0.101562,0.428711-0.151367,0.628906-0.151367h5.069336
		c0.268555,0,0.536133,0.099609,0.804688,0.301758c0.266602,0.199219,0.401367,0.46875,0.401367,0.802734v35.048828
		c0,0.739258-0.401367,1.105469-1.206055,1.105469h-4.970703c-0.400391,0-0.692383-0.074219-0.876953-0.224609
		c-0.18457-0.151367-0.376953-0.34375-0.575195-0.578125l-17.418945-25.107422v24.804688
		c0.032227,0.739258-0.336914,1.105469-1.104492,1.105469h-5.071289c-0.735352,0-1.104492-0.366211-1.104492-1.105469V108.106445z"
		/>
	<path clip-path="url(#SVGID_2_)" fill="#FFFFFF" d="M379.977539,135.573242c0.670898-0.500977,1.207031-0.500977,1.608398,0
		l2.507812,4.270508c0.266602,0.299805,0.369141,0.560547,0.301758,0.777344
		c-0.067383,0.217773-0.251953,0.444336-0.550781,0.676758c-1.441406,1.072266-3.046875,1.925781-4.819336,2.561523
		c-1.776367,0.635742-3.799805,0.955078-6.074219,0.955078c-2.645508,0-5.138672-0.503906-7.479492-1.505859
		c-2.34082-1.004883-4.391602-2.376953-6.149414-4.118164c-1.756836-1.741211-3.135742-3.78418-4.140625-6.125977
		c-1.004883-2.344727-1.505859-4.838867-1.505859-7.483398c0-2.678711,0.500977-5.172852,1.505859-7.482422
		c1.004883-2.310547,2.383789-4.334961,4.140625-6.076172c1.757812-1.738281,3.808594-3.102539,6.149414-4.089844
		c2.34082-0.988281,4.833984-1.482422,7.479492-1.482422c2.274414,0,4.297852,0.30957,6.074219,0.928711
		c1.772461,0.620117,3.395508,1.463867,4.869141,2.535156c0.266602,0.235352,0.401367,0.469727,0.401367,0.704102
		s-0.03418,0.418945-0.102539,0.551758l-2.660156,4.519531c-0.298828,0.401367-0.767578,0.418945-1.40332,0.049805
		c-1.172852-0.735352-2.319336-1.304688-3.438477-1.706055c-1.12207-0.401367-2.369141-0.603516-3.740234-0.603516
		c-1.708008,0-3.280273,0.308594-4.719727,0.929688c-1.438477,0.619141-2.68457,1.479492-3.737305,2.583984
		c-1.054688,1.105469-1.882812,2.395508-2.485352,3.869141c-0.604492,1.47168-0.90332,3.063477-0.90332,4.768555
		c0,1.708984,0.298828,3.307617,0.90332,4.796875c0.602539,1.489258,1.430664,2.793945,2.485352,3.916016
		c1.052734,1.12207,2.298828,2.007812,3.737305,2.661133c1.439453,0.65332,3.011719,0.980469,4.719727,0.980469
		c1.371094,0,2.667969-0.226562,3.889648-0.677734C378.0625,136.805664,379.107422,136.244141,379.977539,135.573242"/>
	<path clip-path="url(#SVGID_2_)" fill="#FFFFFF" d="M392.543945,143.258789v-35.250977
		c0-0.671875,0.317383-1.006836,0.952148-1.006836h24.546875c0.667969,0,1.004883,0.334961,1.004883,1.006836v4.870117
		c0,0.668945-0.336914,1.00293-1.004883,1.00293H399.87207v7.583008h13.854492c0.736328,0,1.105469,0.336914,1.105469,1.004883
		v4.768555c0,0.670898-0.369141,1.004883-1.105469,1.004883H399.87207v9.189453h18.62207
		c0.704102,0,1.054688,0.336914,1.054688,1.005859v4.821289c0,0.667969-0.350586,1.00293-1.054688,1.00293h-24.998047
		C392.861328,144.261719,392.543945,143.926758,392.543945,143.258789"/>
	<path clip-path="url(#SVGID_2_)" fill="#FFFFFF" d="M427.341797,138.586914c-0.267578-0.298828-0.46875-0.601562-0.601562-0.90332
		c-0.134766-0.301758-0.016602-0.635742,0.352539-1.004883l3.363281-3.313477c0.298828-0.268555,0.59375-0.360352,0.87793-0.275391
		c0.283203,0.082031,0.576172,0.258789,0.876953,0.525391c0.501953,0.503906,1.0625,1.013672,1.682617,1.53125
		c0.619141,0.519531,1.287109,0.988281,2.007812,1.407227c0.71875,0.418945,1.496094,0.75293,2.333008,1.004883
		c0.835938,0.25,1.723633,0.376953,2.661133,0.376953c1.003906,0,1.890625-0.134766,2.660156-0.402344
		c0.770508-0.268555,1.430664-0.62793,1.982422-1.080078c0.553711-0.453125,0.969727-0.969727,1.256836-1.555664
		c0.282227-0.585938,0.425781-1.197266,0.425781-1.833008c0-0.802734-0.244141-1.481445-0.728516-2.036133
		c-0.485352-0.550781-1.078125-1.019531-1.782227-1.40332c-0.703125-0.384766-1.462891-0.703125-2.283203-0.955078
		c-0.821289-0.25-1.564453-0.458984-2.234375-0.625977c-4.049805-1.208008-7.135742-2.689453-9.260742-4.445312
		c-2.125977-1.758789-3.189453-4.057617-3.189453-6.904297c0-1.541992,0.327148-2.945312,0.980469-4.217773
		c0.654297-1.271484,1.574219-2.370117,2.759766-3.290039c1.19043-0.919922,2.618164-1.630859,4.293945-2.134766
		c1.672852-0.500977,3.513672-0.75293,5.520508-0.75293c2.208984,0,4.326172,0.520508,6.350586,1.555664
		c2.024414,1.040039,3.789062,2.310547,5.294922,3.816406c0.601562,0.638672,0.583984,1.290039-0.049805,1.960938
		l-2.761719,2.960938c-0.333984,0.300781-0.651367,0.393555-0.953125,0.275391
		c-0.300781-0.116211-0.620117-0.308594-0.954102-0.575195c-0.402344-0.333984-0.861328-0.703125-1.378906-1.105469
		c-0.521484-0.401367-1.089844-0.77832-1.708008-1.129883c-0.619141-0.350586-1.272461-0.646484-1.957031-0.879883
		c-0.685547-0.232422-1.397461-0.352539-2.134766-0.352539c-0.636719,0-1.295898,0.053711-1.982422,0.152344
		c-0.685547,0.099609-1.303711,0.294922-1.856445,0.577148c-0.551758,0.286133-1.013672,0.6875-1.378906,1.207031
		c-0.369141,0.518555-0.554688,1.211914-0.554688,2.082031c0,0.635742,0.176758,1.189453,0.529297,1.657227
		c0.350586,0.470703,0.852539,0.879883,1.505859,1.231445c0.651367,0.352539,1.420898,0.675781,2.30957,0.978516
		c0.884766,0.300781,1.864258,0.602539,2.933594,0.904297c1.708008,0.500977,3.313477,1.063477,4.820312,1.681641
		c1.505859,0.621094,2.819336,1.381836,3.938477,2.285156c1.12207,0.902344,2.017578,1.974609,2.688477,3.214844
		C454.666016,130.033203,455,131.525391,455,133.263672c0,1.741211-0.384766,3.323242-1.154297,4.74707
		c-0.771484,1.421875-1.797852,2.635742-3.086914,3.638672c-1.289062,1.004883-2.777344,1.776367-4.467773,2.310547
		c-1.69043,0.535156-3.438477,0.804688-5.246094,0.804688c-2.608398,0-5.119141-0.568359-7.527344-1.708008
		C431.106445,141.918945,429.049805,140.429688,427.341797,138.586914"/>
	<path clip-path="url(#SVGID_2_)" fill="#FFFFFF" d="M208.242676,193.443359v-35.202148
		c0-0.699219,0.333984-1.051758,1.004883-1.051758h5.419922c0.63623,0,0.955078,0.352539,0.955078,1.051758v35.202148
		c0,0.670898-0.318848,1.004883-0.955078,1.004883h-5.419922C208.57666,194.448242,208.242676,194.114258,208.242676,193.443359"/>
	<path clip-path="url(#SVGID_2_)" fill="#FFFFFF" d="M258.301758,193.443359v-35.202148
		c0-0.699219,0.333984-1.051758,1.005859-1.051758h5.419922c0.635742,0,0.955078,0.352539,0.955078,1.051758v35.202148
		c0,0.670898-0.319336,1.004883-0.955078,1.004883h-5.419922C258.635742,194.448242,258.301758,194.114258,258.301758,193.443359"/>
	<path clip-path="url(#SVGID_2_)" fill="#FFFFFF" d="M273.441406,158.269531c0-0.301758,0.099609-0.561523,0.301758-0.77832
		c0.199219-0.216797,0.483398-0.327148,0.852539-0.327148h5.118164c0.703125,0,1.072266,0.369141,1.105469,1.105469v29.375
		h16.722656c0.302734,0,0.561523,0.101562,0.77832,0.301758c0.216797,0.202148,0.327148,0.486328,0.327148,0.853516v4.568359
		c0,0.704102-0.369141,1.073242-1.105469,1.105469h-22.996094c-0.737305,0-1.104492-0.366211-1.104492-1.105469V158.269531z"/>
	<path clip-path="url(#SVGID_2_)" fill="#FFFFFF" d="M306.503906,158.269531c0-0.301758,0.099609-0.561523,0.301758-0.77832
		c0.199219-0.216797,0.483398-0.327148,0.851562-0.327148h5.119141c0.703125,0,1.072266,0.369141,1.105469,1.105469v29.375
		h16.722656c0.301758,0,0.561523,0.101562,0.77832,0.301758c0.216797,0.202148,0.327148,0.486328,0.327148,0.853516v4.568359
		c0,0.704102-0.369141,1.073242-1.105469,1.105469h-22.996094c-0.737305,0-1.104492-0.366211-1.104492-1.105469V158.269531z"/>
	<path clip-path="url(#SVGID_2_)" fill="#FFFFFF" d="M111.778809,185.760742c0.670898-0.500977,1.207031-0.500977,1.60791,0
		l2.508301,4.268555c0.26709,0.301758,0.368652,0.560547,0.301758,0.77832c-0.066895,0.21875-0.251953,0.443359-0.550781,0.677734
		c-1.440918,1.073242-3.046875,1.925781-4.819336,2.561523C109.050781,194.681641,107.026855,195,104.75293,195
		c-2.645996,0-5.13916-0.501953-7.47998-1.506836c-2.34082-1.001953-4.391113-2.376953-6.148926-4.118164
		c-1.757324-1.738281-3.13623-3.78125-4.141113-6.125977c-1.004883-2.341797-1.505859-4.835938-1.505859-7.479492
		c0-2.679688,0.500977-5.172852,1.505859-7.483398c1.004883-2.30957,2.383789-4.334961,4.141113-6.076172
		c1.757812-1.741211,3.808105-3.104492,6.148926-4.092773s4.833984-1.482422,7.47998-1.482422
		c2.273926,0,4.297852,0.310547,6.07373,0.931641c1.772461,0.618164,3.39502,1.463867,4.869141,2.53418
		c0.26709,0.233398,0.400879,0.46875,0.400879,0.702148c0,0.235352-0.033691,0.419922-0.101562,0.554688l-2.660156,4.519531
		c-0.298828,0.401367-0.768066,0.416016-1.404297,0.049805c-1.171875-0.735352-2.318848-1.306641-3.437988-1.708984
		c-1.121582-0.401367-2.368652-0.600586-3.739746-0.600586c-1.708008,0-3.28125,0.308594-4.720215,0.927734
		c-1.438965,0.621094-2.685059,1.481445-3.736816,2.585938c-1.055176,1.105469-1.882812,2.395508-2.48584,3.866211
		c-0.604004,1.475586-0.90332,3.063477-0.90332,4.772461c0,1.706055,0.299316,3.304688,0.90332,4.793945
		c0.603027,1.492188,1.430664,2.795898,2.48584,3.917969c1.051758,1.120117,2.297852,2.007812,3.736816,2.662109
		c1.438965,0.650391,3.012207,0.977539,4.720215,0.977539c1.371094,0,2.667969-0.226562,3.88916-0.678711
		C109.86377,186.991211,110.908691,186.432617,111.778809,185.760742"/>
	<path clip-path="url(#SVGID_2_)" fill="#FFFFFF" d="M147.318848,193.443359v-15.064453h-16.715332v15.064453
		c0,0.670898-0.368652,1.004883-1.10498,1.004883h-5.270996c-0.634766,0-0.95166-0.333984-0.95166-1.004883v-35.202148
		c0-0.298828,0.074707-0.550781,0.227051-0.75293c0.148926-0.198242,0.390625-0.298828,0.724609-0.298828h5.42334
		c0.199707,0,0.408691,0.067383,0.625977,0.199219c0.219727,0.134766,0.32666,0.402344,0.32666,0.803711v13.107422h16.715332
		v-13.058594c0-0.298828,0.074707-0.550781,0.227051-0.75293c0.148926-0.198242,0.390625-0.298828,0.727539-0.298828h5.42041
		c0.20166,0,0.401855,0.067383,0.604004,0.199219c0.19873,0.134766,0.298828,0.402344,0.298828,0.803711v35.250977
		c0,0.670898-0.349121,1.004883-1.051758,1.004883h-5.271484C147.637695,194.448242,147.318848,194.114258,147.318848,193.443359"/>
	<path clip-path="url(#SVGID_2_)" fill="#FFFFFF" d="M200.956543,175.819336c0,2.643555-0.500977,5.130859-1.505859,7.455078
		c-1.004883,2.328125-2.375977,4.352539-4.117188,6.076172c-1.739746,1.725586-3.781738,3.087891-6.123047,4.092773
		c-2.34375,1.005859-4.836914,1.506836-7.47998,1.506836s-5.128906-0.500977-7.453125-1.506836
		c-2.325684-1.004883-4.350586-2.367188-6.072754-4.092773c-1.726074-1.723633-3.080078-3.748047-4.066895-6.076172
		c-0.987305-2.324219-1.480957-4.811523-1.480957-7.455078c0-2.679688,0.493652-5.181641,1.480957-7.507812
		c0.986816-2.327148,2.34082-4.352539,4.066895-6.076172c1.722168-1.723633,3.74707-3.087891,6.072754-4.092773
		c2.324219-1.003906,4.810059-1.506836,7.453125-1.506836s5.13623,0.50293,7.47998,1.506836
		c2.341309,1.004883,4.383301,2.369141,6.123047,4.092773c1.741211,1.723633,3.112305,3.749023,4.117188,6.076172
		C200.455566,170.637695,200.956543,173.139648,200.956543,175.819336 M193.578613,175.819336
		c0-1.708984-0.302246-3.296875-0.904785-4.772461c-0.601074-1.470703-1.431152-2.75293-2.483398-3.84082
		c-1.054688-1.086914-2.301758-1.950195-3.739746-2.585938c-1.438965-0.635742-3.012207-0.953125-4.720215-0.953125
		c-1.672852,0-3.229004,0.317383-4.667969,0.953125c-1.437988,0.635742-2.685059,1.499023-3.739746,2.585938
		c-1.054199,1.087891-1.875,2.370117-2.458008,3.84082c-0.585938,1.475586-0.880371,3.063477-0.880371,4.772461
		c0,1.673828,0.294434,3.248047,0.880371,4.71875c0.583008,1.473633,1.403809,2.753906,2.458008,3.84082
		c1.054688,1.089844,2.301758,1.951172,3.739746,2.586914c1.438965,0.636719,2.995117,0.955078,4.667969,0.955078
		c1.708008,0,3.28125-0.318359,4.720215-0.955078c1.437988-0.635742,2.685059-1.49707,3.739746-2.586914
		c1.052246-1.086914,1.882324-2.367188,2.483398-3.84082C193.276367,179.067383,193.578613,177.493164,193.578613,175.819336"/>
	<path clip-path="url(#SVGID_2_)" fill="#FFFFFF" d="M223.238281,188.774414
		c-0.269043-0.301758-0.469238-0.604492-0.603027-0.905273c-0.135254-0.299805-0.018066-0.633789,0.351074-1.00293l3.36377-3.314453
		c0.30127-0.267578,0.593262-0.359375,0.877441-0.277344c0.28418,0.084961,0.579102,0.259766,0.879883,0.529297
		c0.501953,0.500977,1.0625,1.012695,1.680664,1.530273c0.618164,0.519531,1.289062,0.988281,2.006836,1.405273
		c0.72168,0.418945,1.499023,0.75293,2.335938,1.004883c0.835938,0.251953,1.723633,0.375977,2.661133,0.375977
		c1.001953,0,1.890625-0.131836,2.660156-0.400391c0.767578-0.267578,1.428711-0.629883,1.982422-1.080078
		c0.550781-0.452148,0.969727-0.970703,1.253906-1.557617c0.285156-0.585938,0.426758-1.196289,0.426758-1.833008
		c0-0.802734-0.242188-1.480469-0.728516-2.033203c-0.483398-0.552734-1.079102-1.019531-1.780273-1.405273
		c-0.703125-0.384766-1.46582-0.704102-2.283203-0.953125c-0.821289-0.251953-1.566406-0.461914-2.234375-0.628906
		c-4.049805-1.205078-7.138672-2.686523-9.262695-4.445312c-2.124023-1.755859-3.187012-4.057617-3.187012-6.904297
		c0-1.539062,0.327148-2.944336,0.978027-4.217773c0.652832-1.271484,1.573242-2.367188,2.761719-3.289062
		c1.1875-0.920898,2.618164-1.631836,4.291016-2.132812c1.672852-0.503906,3.513672-0.75293,5.523438-0.75293
		c2.207031,0,4.323242,0.517578,6.347656,1.555664c2.025391,1.038086,3.790039,2.310547,5.295898,3.816406
		c0.603516,0.635742,0.585938,1.290039-0.049805,1.958008l-2.759766,2.963867
		c-0.333984,0.300781-0.65332,0.393555-0.955078,0.276367c-0.298828-0.117188-0.618164-0.30957-0.952148-0.578125
		c-0.402344-0.333984-0.863281-0.704102-1.381836-1.105469s-1.086914-0.777344-1.705078-1.129883
		c-0.621094-0.351562-1.274414-0.643555-1.957031-0.87793c-0.689453-0.235352-1.399414-0.351562-2.134766-0.351562
		c-0.635742,0-1.295898,0.049805-1.982422,0.149414c-0.6875,0.102539-1.305664,0.293945-1.856445,0.579102
		c-0.554688,0.28418-1.013672,0.685547-1.382812,1.204102c-0.368164,0.518555-0.550781,1.214844-0.550781,2.084961
		c0,0.635742,0.174805,1.188477,0.526367,1.657227s0.852539,0.87793,1.505859,1.228516
		c0.654297,0.352539,1.420898,0.679688,2.308594,0.981445c0.888672,0.300781,1.865234,0.600586,2.9375,0.90332
		c1.706055,0.500977,3.313477,1.061523,4.820312,1.682617c1.505859,0.619141,2.816406,1.378906,3.938477,2.285156
		c1.120117,0.902344,2.014648,1.974609,2.686523,3.212891c0.667969,1.239258,1.003906,2.727539,1.003906,4.46875
		s-0.386719,3.323242-1.154297,4.744141c-0.771484,1.424805-1.799805,2.636719-3.086914,3.641602
		c-1.289062,1.005859-2.780273,1.773438-4.467773,2.310547c-1.69043,0.533203-3.438477,0.802734-5.246094,0.802734
		c-2.610352,0-5.121094-0.569336-7.530273-1.706055C227.00293,192.104492,224.943359,190.615234,223.238281,188.774414"/>
	<path clip-path="url(#SVGID_2_)" fill="#FFFFFF" d="M365.518555,187.619141h-18.62207v-9.188477h13.852539
		c0.736328,0,1.104492-0.333984,1.104492-1.004883v-4.772461c0-0.667969-0.368164-1.001953-1.104492-1.001953h-13.852539v-7.103516
		v-0.479492h9.219727h8.952148c0.667969,0,1.001953-0.333984,1.001953-1.004883v-4.871094
		c0-0.668945-0.333984-1.00293-1.001953-1.00293h-9.738281h-12.321289c-1.919922,0.129883-3.442383,1.712891-3.442383,3.666016
		v0.870117v1.816406v29.901367c0,0.670898,0.318359,1.004883,0.955078,1.004883h24.99707
		c0.703125,0,1.055664-0.333984,1.055664-1.004883v-4.821289C366.574219,187.953125,366.22168,187.619141,365.518555,187.619141"/>
	<path clip-path="url(#SVGID_2_)" fill="#FFFFFF" d="M148.394531,143.206055l-2.206055-4.381836l-0.633789-1.257812
		l-3.986328-7.916992c1.907227-1.105469,3.437988-2.585938,4.592285-4.445312c1.154785-1.857422,1.73291-3.84082,1.73291-5.951172
		c0-1.570312-0.293945-3.094727-0.879883-4.568359c-0.352051-0.885742-0.813965-1.691406-1.329102-2.456055
		c-0.341309-0.506836-0.690918-1.006836-1.104004-1.459961c-1.038086-1.137695-2.28418-2.050781-3.740234-2.737305
		c-1.452637-0.683594-3.029785-1.026367-4.730957-1.029297h-1.165039h-12.320801
		c-1.919922,0.130859-3.442871,1.713867-3.442871,3.666992v0.869141v1.817383v29.902344v0.000977
		c0,0.334961,0.080078,0.584961,0.23877,0.751953c0.15918,0.166992,0.395996,0.250977,0.713867,0.250977h5.373047
		c0.667969,0,1.001953-0.334961,1.001953-1.00293v-11.90332h0.002441h7.62793l3.011719,6.078125l2.961914,5.974609
		c0.266113,0.568359,0.65332,0.853516,1.154297,0.853516h3.871094h2.604004c0.333984,0,0.561035-0.118164,0.677734-0.352539
		C148.536621,143.677734,148.526367,143.442383,148.394531,143.206055 M126.508301,124.728516v-11.249023h7.831055
		c0.838379,0,1.611328,0.138672,2.324219,0.40332c0.026855,0.009766,0.058105,0.012695,0.084961,0.022461
		c0.73584,0.287109,1.380859,0.678711,1.932129,1.179688c0.553711,0.504883,0.97998,1.098633,1.281738,1.78418
		c0.299316,0.685547,0.451172,1.431641,0.451172,2.234375c0,0.87207-0.175293,1.655273-0.500977,2.361328
		c-0.288086,0.623047-0.689941,1.1875-1.231934,1.682617c-1.154297,1.051758-2.600098,1.581055-4.341309,1.581055H126.508301z"/>
	<path clip-path="url(#SVGID_2_)" fill="#FFFFFF" d="M305.019531,137.431641h-9.376953h-9.246094v-0.553711v-8.634766H300.25
		c0.736328,0,1.104492-0.333984,1.104492-1.005859v-4.768555c0-0.668945-0.368164-1.004883-1.104492-1.004883h-13.853516v-7.583008
		h18.172852c0.667969,0,1.001953-0.333984,1.001953-1.00293v-4.871094c0-0.670898-0.333984-1.004883-1.001953-1.004883h-24.547852
		c-0.635742,0-0.955078,0.333984-0.955078,1.004883v29.875977v1.818359v0.868164c0,2.039062,1.652344,3.691406,3.69043,3.691406
		h11.991211h10.271484c0.703125,0,1.055664-0.333984,1.055664-1.001953v-4.822266
		C306.075195,137.768555,305.722656,137.431641,305.019531,137.431641"/>
	<path clip-path="url(#SVGID_2_)" fill="#AB926B" d="M223.223633,4.993652c-0.001953,0.00293-0.003906,0.005859-0.006836,0.009277
		c0.000977,0,0.022949-0.030273,0.030762-0.041016c-0.006836,0.009766-0.014648,0.02002-0.021973,0.028809L223.223633,4.993652z"/>
	<path clip-path="url(#SVGID_2_)" fill="#AB926B" d="M248.019531,20.780273c-0.063477-0.609863-0.203125-1.202637-0.420898-1.76709
		c-0.024414-0.062988-0.048828-0.125-0.075195-0.187012c-0.051758-0.123535-0.107422-0.245605-0.167969-0.366699
		c-0.06543-0.129883-0.134766-0.259277-0.208984-0.38623c-0.074219-0.125977-0.151367-0.250977-0.233398-0.373047
		c-0.65625-0.96875-1.533203-1.72168-2.577148-2.22998c-0.237305-0.114746-0.484375-0.216797-0.738281-0.305664
		c-0.152344-0.054199-0.306641-0.10498-0.463867-0.148926c-0.106445-0.030273-0.211914-0.058105-0.320312-0.083008
		c0.057617-0.195312,0.113281-0.394043,0.167969-0.596191c0.055664-0.203125,0.109375-0.408203,0.160156-0.616211
		c0.102539-0.415039,0.195312-0.835938,0.269531-1.25293c0.112305-0.635742,0.151367-1.263672,0.119141-1.873047
		c-0.007812-0.135742-0.017578-0.27002-0.032227-0.403809c-0.035156-0.333984-0.09375-0.662109-0.173828-0.981934
		c-0.015625-0.063965-0.03125-0.12793-0.049805-0.190918c-0.035156-0.126953-0.073242-0.251953-0.116211-0.376953
		c-0.273438-0.807129-0.692383-1.557129-1.25-2.223145c-0.052734-0.062988-0.105469-0.125-0.160156-0.185059
		c-0.137695-0.150879-0.28125-0.294922-0.429688-0.432129c-0.029297-0.026855-0.058594-0.055664-0.088867-0.082031
		c-0.016602-0.014648-0.035156-0.028809-0.051758-0.043945c-0.045898-0.041016-0.092773-0.080078-0.139648-0.119141
		c-0.021484-0.015625-0.041016-0.032715-0.0625-0.048828c-0.026367-0.02002-0.050781-0.041016-0.077148-0.061035
		c-0.027344-0.020996-0.055664-0.042969-0.084961-0.063965c-0.015625-0.011719-0.032227-0.023926-0.047852-0.036133
		c-0.035156-0.024902-0.070312-0.050781-0.104492-0.074707c-0.041992-0.030273-0.083984-0.060059-0.12793-0.088867
		c-0.047852-0.033203-0.09668-0.066406-0.146484-0.099121c-0.015625-0.01123-0.032227-0.021973-0.048828-0.032227
		c-0.022461-0.013672-0.043945-0.026855-0.066406-0.040039c-0.064453-0.040039-0.130859-0.077637-0.198242-0.114746
		c-0.044922-0.024902-0.089844-0.049316-0.135742-0.072266c-0.044922-0.023926-0.089844-0.047852-0.135742-0.070801
		c-0.204102-0.103027-0.414062-0.198242-0.628906-0.282227c-0.143555-0.055664-0.288086-0.10791-0.436523-0.154785
		c-0.22168-0.070801-0.448242-0.130859-0.680664-0.180176c-0.010742-0.001953-0.020508-0.003906-0.032227-0.006836
		c-0.063477-0.013184-0.128906-0.024902-0.193359-0.037109c-0.195312-0.034668-0.392578-0.062012-0.592773-0.082031
		c-0.133789-0.012695-0.268555-0.022949-0.40332-0.029785c-0.136719-0.006836-0.273438-0.010254-0.411133-0.010254
		c-0.083008,0-0.165039,0.000977-0.24707,0.004395c-0.493164,0.013672-0.990234,0.071777-1.487305,0.172852
		c-0.083008,0.01709-0.165039,0.035156-0.248047,0.053711l-0.001953-0.00293l-0.001953-0.000977
		c-0.708008-1.061035-1.380859-1.834961-2.125977-2.453125l-0.000977-0.000977
		c-0.077148-0.063965-0.15625-0.125977-0.235352-0.187012c-0.038086-0.030762-0.079102-0.05957-0.119141-0.089844
		c-0.036133-0.026855-0.072266-0.053711-0.109375-0.080078c-0.053711-0.037598-0.108398-0.075684-0.163086-0.111816
		c-0.018555-0.01416-0.038086-0.026855-0.057617-0.040039c-0.064453-0.041992-0.128906-0.083984-0.194336-0.125
		c-0.210938-0.131836-0.427734-0.251953-0.649414-0.359863c-0.013672-0.007324-0.02832-0.015137-0.042969-0.021973
		c-0.063477-0.030273-0.12793-0.060059-0.191406-0.089355c-0.021484-0.008789-0.041992-0.019043-0.064453-0.027832
		c-0.0625-0.027832-0.126953-0.055176-0.189453-0.080078c-0.016602-0.006836-0.032227-0.012695-0.048828-0.019043
		c-0.129883-0.050781-0.259766-0.097656-0.390625-0.140625c-0.017578-0.006348-0.036133-0.013184-0.053711-0.019043
		c-0.054688-0.01709-0.110352-0.033203-0.164062-0.049316c-0.039062-0.010742-0.078125-0.022949-0.117188-0.033691
		c-0.050781-0.01416-0.101562-0.027344-0.15332-0.040039c-0.044922-0.01123-0.09082-0.021973-0.136719-0.033203
		c-0.046875-0.010742-0.09375-0.021973-0.140625-0.031738c-0.0625-0.013184-0.125-0.025391-0.1875-0.036133
		c-0.045898-0.008301-0.09082-0.01709-0.136719-0.023926c-0.079102-0.013184-0.15918-0.024902-0.239258-0.036133
		c-0.036133-0.004883-0.072266-0.008789-0.109375-0.013184c-0.064453-0.006836-0.12793-0.013672-0.193359-0.02002
		c-0.037109-0.00293-0.075195-0.006836-0.113281-0.009766c-0.067383-0.004883-0.135742-0.008789-0.205078-0.012207
		c-0.032227-0.001953-0.06543-0.003906-0.097656-0.004883c-0.101562-0.003906-0.203125-0.005859-0.305664-0.005859
		s-0.204102,0.001953-0.305664,0.005859c-0.032227,0.000977-0.06543,0.00293-0.097656,0.004883
		c-0.069336,0.003418-0.138184,0.007324-0.206055,0.012207c-0.038086,0.00293-0.074707,0.006836-0.112793,0.009766
		c-0.063965,0.006348-0.128906,0.013184-0.193359,0.02002c-0.035645,0.004395-0.072754,0.008301-0.108887,0.013184
		c-0.081055,0.01123-0.159668,0.022949-0.239746,0.036133c-0.044922,0.006836-0.091309,0.015625-0.13623,0.023926
		c-0.062988,0.010742-0.125,0.022949-0.187988,0.036133c-0.046875,0.009766-0.09375,0.020996-0.141113,0.031738
		c-0.045898,0.01123-0.09082,0.021973-0.136719,0.033203c-0.05127,0.012695-0.102051,0.025879-0.15332,0.040039
		c-0.038574,0.010742-0.07666,0.022949-0.115723,0.033691c-0.055176,0.016113-0.109863,0.032227-0.164062,0.049316
		c-0.018066,0.005859-0.036133,0.012695-0.054199,0.019043c-0.131836,0.042969-0.261719,0.089844-0.390625,0.140625
		c-0.016113,0.006348-0.032227,0.012207-0.04834,0.019043c-0.063965,0.024902-0.126953,0.052246-0.190918,0.080078
		c-0.020996,0.008789-0.041992,0.019043-0.063965,0.027832c-0.063965,0.029297-0.12793,0.059082-0.190918,0.089355
		c-0.015137,0.006836-0.028809,0.014648-0.043945,0.021973c-0.065918,0.031738-0.130859,0.065918-0.196289,0.101074
		c-0.016602,0.007812-0.032715,0.016602-0.048828,0.025879c-0.054199,0.028809-0.10791,0.059082-0.161133,0.088867
		c-0.010742,0.006836-0.022949,0.013184-0.033691,0.019043c-0.070312,0.041016-0.140137,0.082031-0.208984,0.125
		c-0.064941,0.041016-0.129395,0.083008-0.193359,0.125c-0.02002,0.013184-0.039551,0.025879-0.058594,0.040039
		c-0.018066,0.010742-0.035156,0.023926-0.053223,0.036133c-1.85498,1.230957-2.701172,2.885742-2.701172,2.885742
		s-0.001953,0.00293-0.003906,0.004883c-0.082031-0.018555-0.165039-0.036621-0.248047-0.053711
		c-0.062012-0.013184-0.124023-0.024902-0.186035-0.036133c-0.248047-0.044922-0.495605-0.079102-0.743652-0.103027
		c-0.062012-0.005859-0.124023-0.010742-0.186035-0.015137c-0.124023-0.008789-0.24707-0.015625-0.371094-0.018555
		c-0.082031-0.003418-0.164062-0.004395-0.246094-0.004395c-0.138184,0-0.274902,0.003418-0.411133,0.010254
		c-0.135742,0.006836-0.270996,0.01709-0.403809,0.029785c-0.201172,0.02002-0.397949,0.047363-0.592773,0.082031
		c-0.06543,0.012207-0.129395,0.023926-0.193359,0.037109c-0.010742,0.00293-0.021973,0.004883-0.032715,0.006836
		c-0.231934,0.049316-0.458984,0.109375-0.680176,0.180176c-0.147949,0.046875-0.293945,0.099121-0.437012,0.154785
		c-0.214844,0.083984-0.423828,0.179199-0.628906,0.282227c-0.044922,0.022949-0.091309,0.046875-0.13623,0.070801
		c-0.09082,0.047363-0.179688,0.096191-0.269043,0.146973c-0.043945,0.026367-0.086914,0.053223-0.129883,0.080078
		c-0.01709,0.010254-0.032715,0.020996-0.049805,0.032227c-0.049316,0.032715-0.098145,0.065918-0.146973,0.099121
		c-0.042969,0.028809-0.084961,0.058594-0.126953,0.088867c-0.035156,0.024902-0.070312,0.049805-0.104004,0.074707
		c-0.01709,0.012207-0.033203,0.024414-0.049316,0.036133c-0.027832,0.020996-0.056641,0.042969-0.084961,0.063965
		c-0.024902,0.02002-0.050781,0.041016-0.075684,0.061035c-0.020996,0.016113-0.041992,0.033203-0.062988,0.048828
		c-0.047363,0.039062-0.094238,0.078125-0.140137,0.119141c-0.01709,0.015137-0.035156,0.029297-0.052246,0.043945
		c-0.029785,0.026367-0.058594,0.055176-0.088867,0.082031c-0.147949,0.137207-0.291992,0.28125-0.427734,0.432129
		c-0.055176,0.060059-0.109375,0.12207-0.162109,0.185059c-0.557129,0.666016-0.976074,1.416016-1.25,2.223145
		c-0.041992,0.125-0.080078,0.25-0.116211,0.376953c-0.01709,0.062988-0.033691,0.126953-0.049805,0.190918
		c-0.079102,0.319824-0.137207,0.647949-0.17334,0.981934c-0.013672,0.133789-0.024902,0.268066-0.031738,0.403809
		c-0.033203,0.609375,0.006836,1.237305,0.120117,1.873047c0.091797,0.520996,0.213867,1.050293,0.34668,1.562988
		c0.027344,0.102051,0.054199,0.204102,0.081055,0.306152c0.055176,0.202148,0.112305,0.400879,0.167969,0.596191
		c-0.106934,0.024902-0.213867,0.052734-0.318848,0.083008c-0.158203,0.043945-0.312012,0.094727-0.464844,0.148926
		c-0.25293,0.088867-0.5,0.190918-0.738281,0.305664c-1.043945,0.508301-1.920898,1.26123-2.575684,2.22998
		c-0.165039,0.244141-0.312988,0.498047-0.443359,0.759277c-0.060059,0.121094-0.115723,0.243164-0.167969,0.366699
		c-0.025879,0.062012-0.051758,0.124023-0.075684,0.187012c-0.217285,0.564453-0.355957,1.157227-0.42041,1.76709
		c-0.027832,0.270996-0.041992,0.545898-0.041016,0.823242c0,0.125977,0.004395,0.25293,0.010254,0.379883
		c0.013184,0.253906,0.038086,0.509766,0.076172,0.76709c0.027832,0.192871,0.063965,0.385742,0.105957,0.580078
		c0.070801,0.321777,0.161621,0.645996,0.273926,0.967773c0.044922,0.129883,0.092773,0.259277,0.14502,0.387207
		c0.020996,0.052734,0.042969,0.105957,0.065918,0.157715c0.022949,0.053223,0.046875,0.105957,0.071777,0.158203
		c0.050293,0.105957,0.104004,0.211914,0.162109,0.317871c0.201172,0.371094,0.445312,0.744141,0.718262,1.112305
		c0.077637,0.10498,0.157715,0.209961,0.239746,0.313965c0.083008,0.104004,0.166992,0.207031,0.25293,0.30957
		c0.084961,0.103027,0.17334,0.205078,0.26123,0.306152c0.132812,0.151855,0.269043,0.30127,0.406738,0.448242
		c0.550293,0.587891,1.126953,1.134766,1.657227,1.606934c0.060059,0.053711,0.121094,0.10791,0.181152,0.162109
		c0.060059,0.052734,0.119629,0.10498,0.176758,0.154785l0.000977,0.000977c-0.052734,0.049805-0.10498,0.102051-0.155762,0.153809
		c-0.359375,0.365234-0.669922,0.770996-0.925293,1.213379c-0.062012,0.10498-0.119629,0.211914-0.173828,0.320801
		c-0.218262,0.433105-0.379883,0.887207-0.486816,1.353027c-0.027344,0.116211-0.050293,0.233887-0.070312,0.352051
		c-0.048828,0.294922-0.077148,0.592773-0.083008,0.894043c-0.004883,0.240723,0.004883,0.48291,0.02832,0.726074
		c0.063965,0.666016,0.233887,1.334961,0.510742,1.983887c0.013184,0.029785,0.026855,0.059082,0.040039,0.087891
		c0.538086,1.216309,1.321777,2.180176,2.243164,2.963867c0.134766,0.115234,0.271973,0.226074,0.411621,0.333008
		c0.842285,0.644043,1.774414,1.157227,2.723145,1.591309c0.315918,0.144043,0.634277,0.278809,0.950195,0.407715
		c0.230957,0.093262,0.461914,0.187988,0.689941,0.275391c0.21875,0.083008,0.402832,0.151855,0.560059,0.213867
		c0.030762,0.012695,0.062012,0.024902,0.09082,0.036133c0.058105,0.023926,0.113281,0.046875,0.163086,0.067871
		c0.125977,0.053711,0.229004,0.103027,0.314941,0.152832c0.05127,0.029297,0.097168,0.059082,0.137207,0.088867
		c0.041016,0.03125,0.07666,0.062012,0.109863,0.096191c0.010742,0.012207,0.021973,0.022949,0.031738,0.035156
		c0.020996,0.022949,0.040039,0.047852,0.059082,0.07373c0.009277,0.013184,0.018066,0.027344,0.027344,0.041016
		c0.026855,0.041016,0.051758,0.085938,0.077637,0.13623c0.009277,0.016113,0.01709,0.032715,0.026367,0.050781
		c0.016602,0.035156,0.033691,0.073242,0.052734,0.113281c0.026855,0.060059,0.056152,0.125977,0.086914,0.19873
		c1.366211,3.126953,3.415039,5.047852,6.079102,5.75293c0.046875,0.013184,0.093262,0.026367,0.140137,0.039062
		c0.138672,0.039062,0.277832,0.080078,0.423828,0.10791c0.043945,0.009277,0.086914,0.010254,0.130859,0.016113v9.218262h-1.129883
		c-0.279785,0-0.419922,0.138672-0.419922,0.418945v2.263672c0,0.265137,0.140137,0.397949,0.419922,0.397949h1.129883v20.162109
		v0.363281c0,0.851074,0.69043,1.540039,1.540527,1.540039c0.851562,0,1.541016-0.688965,1.541016-1.540039v-0.363281v-6.088867
		h3.144531c0,0.851074,0.69043,1.541016,1.541016,1.541016h5.006836c0.291992,0,0.439453-0.132812,0.439453-0.398926v-2.263184
		c0-0.279785-0.147461-0.419922-0.439453-0.419922h-4v-1.550781h2.969727c0.292969,0,0.439453-0.133301,0.439453-0.399414v-2.262695
		c0-0.280273-0.146484-0.419922-0.439453-0.419922h-2.969727v-1.55127h4c0.291992,0,0.439453-0.140137,0.439453-0.419922v-2.263184
		c0-0.264648-0.147461-0.398926-0.439453-0.398926h-5.006836c-0.850586,0-1.541016,0.689941-1.541016,1.541016h-3.144531v-4.807129
		h1.109375c0.291992,0,0.439453-0.132812,0.439453-0.397949v-2.263672c0-0.280273-0.147461-0.418945-0.439453-0.418945h-1.109375
		v-9.215332c0.043945-0.005859,0.086914-0.009766,0.130859-0.019043c0.192383-0.036621,0.375977-0.09668,0.563477-0.146973
		c2.664062-0.705078,4.711914-2.625977,6.078125-5.75293c0.032227-0.072754,0.061523-0.138672,0.087891-0.19873
		c0.018555-0.040039,0.036133-0.078125,0.053711-0.113281c0.007812-0.018066,0.016602-0.034668,0.024414-0.050781
		c0.026367-0.050293,0.050781-0.095215,0.078125-0.13623c0.008789-0.013672,0.018555-0.027832,0.02832-0.041016
		c0.017578-0.025879,0.037109-0.050781,0.057617-0.07373c0.010742-0.012207,0.021484-0.022949,0.032227-0.035156
		c0.033203-0.03418,0.069336-0.064941,0.110352-0.096191c0.041016-0.029785,0.085938-0.05957,0.137695-0.088867
		c0.067383-0.040039,0.147461-0.079102,0.241211-0.121094c0.070312-0.030762,0.148438-0.063965,0.236328-0.099609
		c0.029297-0.01123,0.05957-0.023438,0.089844-0.036133c0.157227-0.062012,0.342773-0.130859,0.561523-0.213867
		c0.227539-0.087402,0.458984-0.182129,0.688477-0.275391c0.317383-0.128906,0.635742-0.263672,0.951172-0.407715
		c0.948242-0.434082,1.880859-0.947266,2.722656-1.591309c0.139648-0.106934,0.277344-0.217773,0.413086-0.333008
		c0.919922-0.783691,1.704102-1.747559,2.242188-2.963867c0.013672-0.028809,0.027344-0.058105,0.039062-0.087891
		c0.277344-0.648926,0.448242-1.317871,0.511719-1.983887c0.023438-0.243164,0.032227-0.485352,0.027344-0.726074
		c-0.001953-0.120117-0.007812-0.240234-0.016602-0.359863c-0.013672-0.179199-0.036133-0.357422-0.066406-0.53418
		c-0.019531-0.118164-0.042969-0.23584-0.069336-0.352051c-0.107422-0.46582-0.269531-0.919922-0.487305-1.353027
		c-0.053711-0.108887-0.112305-0.21582-0.172852-0.320801c-0.254883-0.442383-0.566406-0.848145-0.924805-1.213379
		c-0.052734-0.051758-0.104492-0.104004-0.157227-0.153809l0.000977-0.000977
		c0.057617-0.049805,0.117188-0.102051,0.176758-0.154785c0.05957-0.054199,0.121094-0.108398,0.180664-0.162109
		c0.530273-0.472168,1.107422-1.019043,1.658203-1.606934c0.136719-0.146973,0.273438-0.296387,0.40625-0.448242
		c0.177734-0.202148,0.349609-0.407715,0.513672-0.615723c0.082031-0.104004,0.163086-0.208984,0.240234-0.313965
		c0.273438-0.368164,0.517578-0.741211,0.71875-1.112305c0.057617-0.105957,0.111328-0.211914,0.161133-0.317871
		c0.025391-0.052246,0.048828-0.10498,0.073242-0.158203c0.022461-0.051758,0.044922-0.10498,0.06543-0.157715
		c0.051758-0.12793,0.099609-0.257324,0.144531-0.387207c0.067383-0.192871,0.126953-0.386719,0.178711-0.581055
		c0.035156-0.128906,0.067383-0.257812,0.095703-0.386719c0.013672-0.064941,0.027344-0.129395,0.039062-0.194336
		c0.026367-0.128906,0.048828-0.256836,0.066406-0.385742c0.038086-0.257324,0.063477-0.513184,0.076172-0.76709
		c0.006836-0.126953,0.009766-0.253906,0.009766-0.379883C248.061523,21.326172,248.047852,21.05127,248.019531,20.780273
		 M245.371094,22.408203c-0.026367,0.172363-0.061523,0.344238-0.104492,0.518066
		c-0.06543,0.260254-0.150391,0.520996-0.254883,0.783203c-0.017578,0.044922-0.038086,0.09082-0.058594,0.136719
		c-0.042969,0.094238-0.092773,0.19043-0.147461,0.288086c-0.02832,0.049316-0.056641,0.099121-0.086914,0.148926
		c-0.145508,0.243164-0.322266,0.49707-0.522461,0.756348c-0.081055,0.103027-0.166992,0.208008-0.257812,0.313965
		c-0.089844,0.105957-0.182617,0.211914-0.277344,0.317871c-0.046875,0.053223-0.083984,0.104004-0.132812,0.15625
		c-0.041992,0.046875-0.084961,0.092773-0.129883,0.138672c-0.131836,0.140137-0.270508,0.279297-0.40918,0.417969
		c-0.078125,0.080078-0.150391,0.160156-0.230469,0.239258c-0.144531,0.141113-0.292969,0.277832-0.442383,0.415039
		c-0.049805,0.045898-0.098633,0.091797-0.148438,0.136719c-0.041016,0.037109-0.080078,0.075195-0.120117,0.113281
		c-0.040039,0.037598-0.079102,0.074707-0.120117,0.11084l-0.000977,0.001953l-0.001953,0.000977l-0.000977,0.000977
		c-0.030273,0.026855-0.060547,0.054199-0.088867,0.081055c-0.030273,0.027832-0.060547,0.055176-0.089844,0.082031h-0.000977
		v0.000977c-0.120117,0.10498-0.240234,0.206055-0.361328,0.308105c-0.017578,0.01416-0.03418,0.028809-0.050781,0.043945
		c-0.111328,0.092773-0.223633,0.190918-0.333008,0.280762c-0.222656,0.183105-0.443359,0.359375-0.661133,0.527344
		c-0.010742,0.007812-0.023438,0.018066-0.033203,0.025879l-0.00293,0.001953c-0.007812,0.005859-0.015625,0.01416-0.025391,0.02002
		l-1.204102,0.937012l-0.020508,0.016113l-0.021484,0.01709c-0.022461,0.031738-0.042969,0.066895-0.056641,0.10498
		c-0.013672,0.037598-0.021484,0.077637-0.021484,0.120605c0,0.01709,0.000977,0.033203,0.00293,0.049316
		c0.003906,0.031738,0.011719,0.062012,0.023438,0.09082c0.030273,0.072266,0.081055,0.131836,0.144531,0.177246l1.380859,0.699707
		c0.125977,0.062012,0.24707,0.128906,0.362305,0.203125c0.078125,0.047852,0.15332,0.100098,0.226562,0.152832
		c0.036133,0.026367,0.072266,0.054199,0.108398,0.082031c0.104492,0.083008,0.205078,0.172363,0.300781,0.265137
		c0.09375,0.094238,0.182617,0.191895,0.265625,0.293945c0.110352,0.137207,0.209961,0.28125,0.296875,0.432129
		c0.071289,0.121094,0.132812,0.245117,0.1875,0.373047c0.162109,0.381836,0.251953,0.791016,0.267578,1.210938
		c0.023438,0.560059-0.084961,1.13916-0.324219,1.697754c-0.064453,0.151367-0.135742,0.29834-0.213867,0.44043
		c-0.051758,0.09375-0.105469,0.186523-0.163086,0.276855c-0.056641,0.089844-0.116211,0.178711-0.178711,0.265137
		c-0.155273,0.21582-0.326172,0.419922-0.508789,0.612793c-0.074219,0.077148-0.149414,0.151855-0.226562,0.226074
		c-0.30957,0.293945-0.649414,0.561035-1.009766,0.805664c-0.089844,0.061035-0.181641,0.120117-0.274414,0.179199
		c-0.046875,0.028809-0.092773,0.058105-0.139648,0.085938c-0.09375,0.057129-0.188477,0.113281-0.285156,0.166992
		c-0.094727,0.055176-0.191406,0.10791-0.289062,0.160156c-0.145508,0.078125-0.293945,0.152832-0.442383,0.226074
		c-0.216797,0.105957-0.435547,0.206055-0.655273,0.302734c-0.197266,0.085938-0.395508,0.170898-0.59375,0.251953
		c-0.198242,0.082031-0.396484,0.160156-0.592773,0.235352c-0.134766,0.050781-0.242188,0.092773-0.362305,0.138672
		c-1.051758,0.405273-1.624023,0.666992-2.050781,1.157227c-0.125977,0.144043-0.240234,0.307129-0.352539,0.5
		c-0.033203,0.056152-0.064453,0.112793-0.09668,0.172852c-0.112305,0.210938-0.226562,0.454102-0.351562,0.739258
		c-0.06543,0.151855-0.133789,0.299805-0.203125,0.443848s-0.141602,0.28418-0.214844,0.419922
		c-0.181641,0.339844-0.374023,0.655273-0.576172,0.944824c-0.081055,0.117188-0.163086,0.229004-0.248047,0.337402
		c-0.083984,0.108887-0.169922,0.213867-0.257812,0.314941c-0.131836,0.150879-0.266602,0.293945-0.405273,0.427734
		c-0.099609,0.096191-0.199219,0.187012-0.301758,0.273926c-0.154297,0.131348-0.3125,0.252441-0.475586,0.364258
		c-0.109375,0.07373-0.21875,0.144043-0.332031,0.208984c-0.28125,0.165039-0.575195,0.301758-0.880859,0.412109
		c-0.123047,0.043945-0.248047,0.083984-0.374023,0.118652c-0.032227,0.009277-0.066406,0.015137-0.097656,0.024414V29.896484
		l6.455078-6.455078c0.197266-0.198242,0.202148-0.391113,0.014648-0.579102l-1.599609-1.600098
		c-0.198242-0.197754-0.396484-0.197754-0.594727,0l-4.275391,4.276367V12.804199c0-0.291992-0.133789-0.438965-0.398438-0.438965
		h-2.263672c-0.280273,0-0.419434,0.146973-0.419434,0.438965v6.816406l-4.265625-4.266113
		c-0.199219-0.198242-0.395996-0.198242-0.594238,0l-1.600098,1.601074c-0.187988,0.187012-0.182617,0.379883,0.015137,0.577637
		l6.444824,6.445312v7.70166l-4.265625-4.265625c-0.199219-0.198242-0.395996-0.198242-0.594238,0l-1.600098,1.600098
		c-0.187988,0.187988-0.182617,0.380859,0.015137,0.578613l6.444824,6.445312v10.89502
		c-0.032715-0.009277-0.065918-0.015137-0.097656-0.024414c-0.126953-0.034668-0.251953-0.074707-0.374023-0.118652
		c-0.307129-0.110352-0.601074-0.24707-0.882324-0.412109c-0.111816-0.064941-0.222656-0.135254-0.330566-0.208984
		c-0.163086-0.111816-0.322266-0.23291-0.476074-0.364258c-0.102051-0.086914-0.203125-0.177734-0.302246-0.273926
		c-0.138672-0.133789-0.273926-0.276855-0.404785-0.427734c-0.087891-0.101074-0.174316-0.206055-0.258301-0.314941
		c-0.083984-0.108398-0.166992-0.220215-0.247559-0.337402c-0.202148-0.289551-0.39502-0.60498-0.577148-0.944824
		c-0.073242-0.135742-0.144043-0.275879-0.213867-0.419922c-0.069336-0.144043-0.137207-0.291992-0.204102-0.443848
		c-0.160156-0.366211-0.302246-0.663086-0.447266-0.912109c-0.112793-0.192871-0.227051-0.355957-0.352051-0.5
		c-0.427734-0.490234-1-0.751953-2.050781-1.157227c-0.029785-0.010742-0.060059-0.021973-0.088867-0.033691
		c-0.087402-0.03418-0.17334-0.066895-0.273926-0.10498c-0.197266-0.075195-0.39502-0.15332-0.593262-0.235352
		c-0.197754-0.081055-0.395996-0.166016-0.59375-0.251953c-0.220215-0.09668-0.437988-0.196777-0.654297-0.302734
		c-0.148926-0.073242-0.296875-0.147949-0.442871-0.226074c-0.098145-0.052246-0.193848-0.10498-0.290039-0.160156
		c-0.096191-0.053711-0.190918-0.109863-0.28418-0.166992c-0.046875-0.027832-0.09375-0.057129-0.139648-0.085938
		c-0.093262-0.059082-0.184082-0.118164-0.274414-0.179199c-0.36084-0.244629-0.700684-0.511719-1.009766-0.805664
		c-0.078125-0.074219-0.152832-0.148926-0.226074-0.226074c-0.184082-0.192871-0.354004-0.396973-0.509766-0.612793
		c-0.062012-0.086426-0.121094-0.175293-0.178223-0.265137c-0.057129-0.090332-0.111816-0.183105-0.164062-0.276855
		c-0.07666-0.14209-0.148926-0.289062-0.212891-0.44043c-0.418945-0.979004-0.435059-2.016602-0.057129-2.908691
		c0.055176-0.12793,0.117188-0.251953,0.187012-0.373047c0.087891-0.150879,0.187012-0.294922,0.29834-0.432129
		c0.109863-0.136719,0.230957-0.265137,0.362793-0.384766c0.064941-0.061035,0.132812-0.118164,0.204102-0.174316
		c0.034668-0.027832,0.070801-0.055664,0.10791-0.082031c0.072754-0.052734,0.147949-0.10498,0.225098-0.152832
		c0.115723-0.074219,0.236816-0.141113,0.362793-0.203125l1.380859-0.699707c0.064453-0.04541,0.115234-0.10498,0.144043-0.177246
		c0.012207-0.028809,0.02002-0.059082,0.025391-0.09082c0.001953-0.016113,0.00293-0.032227,0.00293-0.049316
		c0-0.042969-0.008301-0.083008-0.021973-0.120605c-0.015137-0.038086-0.03418-0.073242-0.058105-0.10498l-0.020996-0.01709
		l-0.020996-0.016113l-1.204102-0.937012c-0.007812-0.005859-0.01709-0.01416-0.024902-0.02002l-0.001953-0.001953
		c-0.01123-0.007812-0.021973-0.018066-0.033203-0.025879c-0.217773-0.167969-0.439941-0.344238-0.662109-0.527344
		c-0.109863-0.089844-0.220703-0.187988-0.332031-0.280762c-0.016602-0.015137-0.033691-0.029785-0.051758-0.043945
		c-0.120117-0.102051-0.241211-0.203125-0.359863-0.308105l-0.000977-0.000977
		c-0.061035-0.053223-0.120117-0.108887-0.180176-0.163086l-0.000977-0.000977l-0.000977-0.000977l-0.000977-0.000977
		c-0.041016-0.037109-0.081055-0.074219-0.121094-0.111816c-0.039062-0.038086-0.079102-0.076172-0.119141-0.113281
		c-0.049805-0.044922-0.099609-0.09082-0.148926-0.136719c-0.149902-0.137207-0.297852-0.273926-0.441895-0.415039
		c-0.081055-0.079102-0.152832-0.15918-0.230957-0.239258c-0.138184-0.138672-0.277832-0.277832-0.410156-0.417969
		c-0.043945-0.045898-0.087891-0.091797-0.129883-0.138672c-0.047852-0.052246-0.084961-0.103027-0.131836-0.15625
		c-0.094238-0.105957-0.187988-0.211914-0.27832-0.317871c-0.089844-0.105957-0.176758-0.210938-0.256836-0.313965
		c-0.101074-0.130371-0.194824-0.258301-0.282227-0.384277c-0.087891-0.125977-0.167969-0.250977-0.240723-0.37207
		c-0.105957-0.175781-0.193848-0.344727-0.263184-0.504883c-0.009766-0.022949-0.02002-0.046875-0.029785-0.068848
		c-0.10498-0.262207-0.188965-0.522949-0.253906-0.783203c-0.042969-0.173828-0.078125-0.345703-0.10498-0.518066
		c-0.039062-0.256836-0.060059-0.511719-0.062988-0.762695c-0.008301-0.580078,0.080566-1.138184,0.272949-1.649902
		c0.043945-0.118164,0.09375-0.234375,0.148926-0.347168c0.020996-0.041992,0.041992-0.083984,0.063965-0.125977
		c0.065918-0.124023,0.13916-0.246094,0.21875-0.363281c0.775391-1.146973,2.041016-1.776855,3.661133-1.822754l0.609863-0.01709
		l0.456055-0.015137l0.216309-0.02002c0.015625,0,0.031738-0.000977,0.047852-0.00293
		c0.00293-0.000977,0.006836-0.000977,0.009766-0.001953c0.016113-0.00293,0.03125-0.005859,0.046387-0.009766v-0.000977
		c0.014648-0.003906,0.028809-0.010254,0.042969-0.01709c0.001953-0.000977,0.004883-0.001953,0.006836-0.00293
		c0.01416-0.007324,0.027832-0.015137,0.041016-0.023926c0.125-0.111328,0.145996-0.236328,0.132812-0.337402l-0.033691-0.109863
		l0.001953-0.00293c0,0-0.012207-0.026855-0.03418-0.078125c0,0-1.989746-3.21582-1.34375-6.383789
		c0.11377-0.830078,0.436035-1.583984,0.954102-2.202148c0.067871-0.082031,0.139648-0.160156,0.214844-0.234863
		c2.185059-2.452148,5.98584-0.75,5.98584-0.75c0.021973,0.012695,0.045898,0.024902,0.072266,0.032715
		c0.00293,0.000977,0.005859,0.002441,0.009766,0.003418l0.00293,0.000977c0.120117,0.033691,0.243164,0.000977,0.329102-0.079102
		c0.008789-0.008301,0.01709-0.015137,0.023926-0.022949c0.01709-0.019043,0.03125-0.039062,0.043945-0.061035
		c0.073242-0.104004,0.164062-0.230957,0.263184-0.370117c0,0,0.469727-0.875977,1.318848-1.809082
		c-0.037109,0.047852-0.078125,0.105957-0.103027,0.141113c0.035156-0.046875,0.070312-0.097168,0.10498-0.14209
		c0.00293-0.004883,0.007324-0.009766,0.010254-0.01416l0.000977-0.000977c0.010742-0.013672,0.021973-0.026855,0.032715-0.039551
		c0.01709-0.019043,0.03418-0.038086,0.05127-0.056152c0.016113-0.019043,0.032715-0.038086,0.049805-0.058105l0.001953-0.000977
		c0.003418-0.003906,0.006348-0.006836,0.008301-0.01123c0.035645-0.041992,0.070801-0.07666,0.106934-0.117676l0.000977-0.000977
		c0.00293-0.00293,0.003906-0.004883,0.003906-0.004883c0.094238-0.107422,0.185059-0.212402,0.276855-0.309082
		c0.012207-0.013184,0.025391-0.027344,0.038086-0.040039l0.006348-0.006348c0.086914-0.088867,0.174805-0.173828,0.263672-0.253906
		c0.041992-0.038086,0.083984-0.075684,0.126953-0.111816c0.01123-0.009277,0.022949-0.02002,0.03418-0.028809l0.001953-0.001465
		c0.055176-0.045898,0.109863-0.089844,0.165039-0.131836c0.029785-0.022949,0.060059-0.043945,0.088867-0.064941
		c0.027344-0.02002,0.053223-0.040039,0.080078-0.059082c0.040039-0.027832,0.081055-0.054688,0.12207-0.083008
		c0.016113-0.009766,0.031738-0.020996,0.047852-0.031738c0.04834-0.03125,0.096191-0.060059,0.14502-0.089355
		c0.009277-0.005859,0.018066-0.010742,0.026855-0.016602c0.054199-0.03125,0.108398-0.061035,0.162109-0.091309
		c0.003906-0.001953,0.008301-0.003906,0.013184-0.006836c0.057129-0.030273,0.114746-0.060059,0.173828-0.087891l0.000977-0.000977
		c0.062012-0.030273,0.123047-0.058105,0.185059-0.083984c0.03418-0.015137,0.068848-0.029297,0.104004-0.042969
		c0.02832-0.01123,0.055176-0.023438,0.083008-0.033203c0.057129-0.021973,0.114258-0.041992,0.171875-0.061035
		c0.010254-0.003906,0.02002-0.007812,0.030273-0.01123c0.067871-0.022949,0.136719-0.043945,0.207031-0.062988l0.001953-0.000977
		c0.067871-0.019043,0.135742-0.035645,0.204102-0.051758c0.003906,0,0.006836-0.000977,0.010742-0.001953
		c0.064941-0.015137,0.130859-0.02832,0.197266-0.041016c0.006836-0.000977,0.013672-0.001953,0.020996-0.003906
		c0.062012-0.01123,0.124023-0.02002,0.187012-0.029297c0.010742-0.001953,0.021973-0.003906,0.032715-0.004883
		c0.059082-0.007812,0.118164-0.01416,0.178223-0.02002c0.014648-0.000977,0.029297-0.00293,0.043945-0.004883
		c0.057617-0.004883,0.116211-0.008301,0.174805-0.01123c0.016602-0.000977,0.032227-0.001953,0.048828-0.00293
		c0.053711-0.00293,0.107422-0.00293,0.161133-0.003906c0.021484,0,0.041992,0.000977,0.063477,0.000977
		c0.020508,0,0.041992-0.000977,0.063477-0.000977c0.054688,0.000977,0.107422,0.000977,0.161133,0.003906
		c0.015625,0.000977,0.032227,0.001953,0.048828,0.00293c0.058594,0.00293,0.117188,0.006348,0.173828,0.01123
		c0.015625,0.001953,0.030273,0.003906,0.043945,0.004883c0.060547,0.005859,0.120117,0.012207,0.179688,0.02002
		c0.010742,0.000977,0.020508,0.00293,0.032227,0.004883c0.0625,0.009277,0.125977,0.018066,0.1875,0.029297
		c0.006836,0.001953,0.013672,0.00293,0.021484,0.003906c0.06543,0.012695,0.130859,0.025879,0.196289,0.041016
		c0.00293,0.000977,0.006836,0.001953,0.010742,0.001953c0.068359,0.016113,0.136719,0.032715,0.203125,0.051758l0.001953,0.000977
		c0.070312,0.019043,0.139648,0.040039,0.207031,0.062988c0.010742,0.003418,0.020508,0.007324,0.03125,0.01123
		c0.057617,0.019043,0.114258,0.039062,0.170898,0.061035c0.02832,0.009766,0.056641,0.021973,0.083984,0.033203
		c0.03418,0.013672,0.069336,0.027832,0.104492,0.042969c0.060547,0.025879,0.123047,0.053711,0.182617,0.083008l0.00293,0.001953
		c0.058594,0.027832,0.116211,0.057617,0.173828,0.087891c0.004883,0.00293,0.008789,0.004883,0.013672,0.006836
		c0.053711,0.030273,0.107422,0.060059,0.161133,0.091309c0.008789,0.005859,0.017578,0.010742,0.027344,0.016602
		c0.047852,0.029297,0.09668,0.058105,0.144531,0.089355c0.015625,0.010742,0.032227,0.021973,0.048828,0.031738
		c0.040039,0.02832,0.081055,0.055176,0.121094,0.083008c0.026367,0.019043,0.053711,0.039062,0.080078,0.059082
		c0.029297,0.020996,0.05957,0.041992,0.088867,0.064941c0.054688,0.041992,0.110352,0.085938,0.165039,0.130859l0.000977,0.000977
		c0.012695,0.010254,0.023438,0.020996,0.036133,0.030273c0.040039,0.03418,0.080078,0.068848,0.120117,0.105957
		c0.09082,0.082031,0.180664,0.167969,0.270508,0.259766c0.001953,0.003418,0.003906,0.005371,0.005859,0.007324
		c0.013672,0.012695,0.025391,0.025879,0.038086,0.039062c0.092773,0.097656,0.186523,0.205078,0.279297,0.312988
		c0.036133,0.041016,0.073242,0.07666,0.108398,0.119629c0.003906,0.004395,0.006836,0.007324,0.009766,0.01123l0.000977,0.000977
		c0.03418,0.041016,0.067383,0.075195,0.100586,0.114258c0.010742,0.012695,0.023438,0.025879,0.03418,0.039551v0.000977
		c0.003906,0.004395,0.007812,0.010254,0.011719,0.015137c0.849609,0.933105,1.319336,1.809082,1.319336,1.809082
		c0.099609,0.13916,0.189453,0.266113,0.263672,0.370117c0.012695,0.021973,0.026367,0.041992,0.042969,0.061035
		c0.007812,0.007812,0.016602,0.014648,0.024414,0.022949c0.085938,0.080078,0.209961,0.112793,0.329102,0.079102h0.000977
		l0.00293-0.000977c0.00293-0.000977,0.005859-0.002441,0.009766-0.003418c0.025391-0.007812,0.048828-0.02002,0.071289-0.032715
		c0,0,3.800781-1.702148,5.985352,0.75c0.075195,0.074707,0.147461,0.152832,0.216797,0.234863
		c0.517578,0.618164,0.838867,1.37207,0.954102,2.202148c0.645508,3.167969-1.345703,6.382812-1.345703,6.382812
		c-0.021484,0.052246-0.03418,0.079102-0.03418,0.079102l0.001953,0.00293l-0.033203,0.109863
		c-0.012695,0.101074,0.007812,0.226074,0.133789,0.337402c0.011719,0.008789,0.026367,0.016602,0.040039,0.023926
		c0,0,0.004883,0.001953,0.007812,0.00293c0.012695,0.006836,0.02832,0.013184,0.042969,0.01709v0.000977
		c0.013672,0.003906,0.030273,0.006836,0.044922,0.009766c0.003906,0.000977,0.006836,0.000977,0.010742,0.001953
		c0.015625,0.001953,0.03125,0.00293,0.047852,0.00293h0.000977l0.214844,0.02002l0.457031,0.015137l0.608398,0.01709
		c1.620117,0.045898,2.887695,0.675781,3.662109,1.822754c0.079102,0.117188,0.152344,0.239258,0.217773,0.363281
		c0.022461,0.041992,0.043945,0.083984,0.064453,0.125977c0.055664,0.112793,0.106445,0.229004,0.150391,0.347168
		c0.191406,0.511719,0.279297,1.069824,0.272461,1.649902C245.431641,21.896484,245.411133,22.151367,245.371094,22.408203"/>
</g>
</svg>
