<?xml version="1.0" encoding="utf-8"?>
<!-- Generator: Adobe Illustrator 15.1.0, SVG Export Plug-In . SVG Version: 6.00 Build 0)  -->
<!DOCTYPE svg PUBLIC "-//W3C//DTD SVG 1.1//EN" "http://www.w3.org/Graphics/SVG/1.1/DTD/svg11.dtd">
<svg version="1.1" id="Calque_1" xmlns="http://www.w3.org/2000/svg" xmlns:xlink="http://www.w3.org/1999/xlink" x="0px" y="0px"
	 width="25px" height="35px" viewBox="0 0 25 35" enable-background="new 0 0 25 35" xml:space="preserve">
<g>
	<path fill="#AF9664" d="M12.5,2c2.77832,0,5.407227,1.107422,7.401367,3.117188C21.899414,7.130859,23,9.789062,23,12.599609
		c0,4.175781-5.822266,12.792969-8.950195,17.423828c-0.547852,0.811523-1.051758,1.578125-1.527344,2.302734l-0.010742,0.015625
		c-0.451172-0.692383-0.958496-1.441406-1.561523-2.319336C7.821777,25.391602,2,16.775391,2,12.551758
		c0-2.810547,1.101074-5.467773,3.083984-7.467773C7.099121,3.095703,9.73291,2,12.5,2 M12.5,0
		C9.057129,0,5.942871,1.425781,3.679199,3.661133C1.415039,5.943359,0,9.081055,0,12.551758
		c0,4.754883,5.565918,13.074219,9.291992,18.588867c0.849121,1.236328,1.557129,2.282227,2.169922,3.28125
		C11.706055,34.790039,12.107422,35,12.512695,35c0.223633,0,0.447266-0.063477,0.647461-0.198242
		c0.141602-0.094727,0.283203-0.237305,0.37793-0.379883c0.660156-0.999023,1.368164-2.091797,2.169922-3.28125
		C19.433594,25.625977,25,17.353516,25,12.599609c0-3.47168-1.415039-6.608398-3.678711-8.891602
		C19.056641,1.425781,15.943359,0,12.5,0"/>
	<path fill="none" stroke="#AF9664" stroke-width="2" stroke-miterlimit="10" d="M12.518555,18.191406
		c-3.0625,0-5.552246-2.510742-5.552246-5.59668c0-3.084961,2.489746-5.595703,5.552246-5.595703
		c3.060547,0,5.550781,2.510742,5.550781,5.595703C18.069336,15.680664,15.579102,18.191406,12.518555,18.191406z"/>
</g>
</svg>
