<?xml version="1.0" encoding="utf-8"?>
<!-- Generator: Adobe Illustrator 15.1.0, SVG Export Plug-In . SVG Version: 6.00 Build 0)  -->
<!DOCTYPE svg PUBLIC "-//W3C//DTD SVG 1.1//EN" "http://www.w3.org/Graphics/SVG/1.1/DTD/svg11.dtd">
<svg version="1.1" id="Calque_1" xmlns="http://www.w3.org/2000/svg" xmlns:xlink="http://www.w3.org/1999/xlink" x="0px" y="0px"
	 width="750px" height="145px" viewBox="0 0 750 145" enable-background="new 0 0 750 145" xml:space="preserve">
<g>
	<defs>
		<rect id="SVGID_1_" width="750" height="145"/>
	</defs>
	<clipPath id="SVGID_2_">
		<use xlink:href="#SVGID_1_"  overflow="visible"/>
	</clipPath>
	<path clip-path="url(#SVGID_2_)" fill="#FFFFFF" d="M0,108.412109c0-0.298828,0.099121-0.556641,0.298828-0.771484
		c0.199219-0.214844,0.480957-0.324219,0.847168-0.324219h5.082031c0.697754,0,1.063965,0.366211,1.096191,1.095703v29.141602
		h16.602539c0.299316,0,0.556152,0.100586,0.772461,0.298828c0.214844,0.201172,0.32373,0.482422,0.32373,0.84668v4.533203
		c0,0.697266-0.365723,1.064453-1.096191,1.095703H1.097168C0.36377,144.328125,0,143.964844,0,143.232422V108.412109z"/>
	<path clip-path="url(#SVGID_2_)" fill="#FFFFFF" d="M36.354492,143.333984v-34.97168c0-0.665039,0.316895-0.99707,0.947754-0.99707
		h24.369141c0.663086,0,0.995117,0.332031,0.995117,0.99707v4.833008c0,0.663086-0.332031,0.995117-0.995117,0.995117H43.631348
		v7.522461h13.75293c0.72998,0,1.096191,0.333984,1.096191,0.99707v4.730469c0,0.666016-0.366211,0.99707-1.096191,0.99707
		h-13.75293v9.116211h18.488281c0.697754,0,1.046875,0.333984,1.046875,0.99707v4.783203
		c0,0.662109-0.349121,0.994141-1.046875,0.994141H37.302246C36.671387,144.328125,36.354492,143.996094,36.354492,143.333984"/>
	<path clip-path="url(#SVGID_2_)" fill="#FFFFFF" d="M71.125488,138.699219c-0.265137-0.296875-0.464844-0.59668-0.59668-0.896484
		c-0.133301-0.298828-0.01709-0.630859,0.348633-0.99707l3.340332-3.286133c0.296875-0.266602,0.588867-0.358398,0.870605-0.274414
		c0.282227,0.082031,0.572266,0.257812,0.871094,0.522461c0.498047,0.499023,1.055176,1.003906,1.670898,1.519531
		c0.614258,0.513672,1.277344,0.979492,1.993164,1.394531c0.711914,0.416016,1.484863,0.748047,2.315918,0.998047
		c0.830078,0.24707,1.710938,0.373047,2.641113,0.373047c0.998047,0,1.876953-0.132812,2.64209-0.397461
		c0.76416-0.267578,1.419922-0.624023,1.966797-1.072266c0.550293-0.450195,0.963379-0.961914,1.248047-1.543945
		c0.280273-0.581055,0.42334-1.1875,0.42334-1.818359c0-0.796875-0.242188-1.469727-0.723145-2.018555
		c-0.481934-0.546875-1.071289-1.012695-1.769043-1.394531c-0.698242-0.380859-1.453125-0.696289-2.268066-0.946289
		c-0.813965-0.248047-1.551758-0.455078-2.217773-0.621094c-4.019043-1.198242-7.083984-2.667969-9.193359-4.410156
		c-2.11084-1.744141-3.165039-4.025391-3.165039-6.849609c0-1.52832,0.324219-2.921875,0.972168-4.183594
		c0.648926-1.261719,1.562012-2.350586,2.740234-3.263672c1.180664-0.913086,2.598633-1.618164,4.262695-2.118164
		c1.661133-0.49707,3.487305-0.74707,5.47998-0.74707c2.192871,0,4.293945,0.516602,6.304199,1.543945
		c2.009766,1.032227,3.762695,2.291016,5.257812,3.786133c0.596191,0.632812,0.579102,1.279297-0.049805,1.945312
		l-2.742188,2.936523c-0.332031,0.298828-0.645996,0.390625-0.945801,0.274414
		c-0.299316-0.116211-0.616211-0.306641-0.948242-0.571289c-0.397949-0.332031-0.854004-0.698242-1.368652-1.095703
		c-0.51709-0.399414-1.081055-0.772461-1.695312-1.121094c-0.61377-0.349609-1.262695-0.641602-1.942871-0.874023
		c-0.681152-0.230469-1.38623-0.349609-2.119141-0.349609c-0.630859,0-1.287109,0.052734-1.967773,0.151367
		c-0.681152,0.098633-1.293945,0.291992-1.844238,0.572266c-0.546875,0.285156-1.004883,0.682617-1.368652,1.197266
		c-0.366211,0.514648-0.549316,1.202148-0.549316,2.066406c0,0.630859,0.175293,1.179688,0.523926,1.642578
		c0.350098,0.467773,0.847168,0.873047,1.496094,1.222656c0.645996,0.348633,1.410156,0.670898,2.291992,0.969727
		c0.87793,0.298828,1.851074,0.598633,2.913086,0.898438c1.695801,0.498047,3.290039,1.053711,4.785156,1.667969
		c1.494629,0.615234,2.798828,1.371094,3.910645,2.266602c1.113281,0.895508,2.001953,1.958984,2.667969,3.189453
		c0.663086,1.226562,0.995117,2.707031,0.995117,4.431641c0,1.726562-0.380859,3.295898-1.145996,4.708008
		c-0.765137,1.411133-1.784668,2.616211-3.064941,3.611328c-1.278809,0.99707-2.756836,1.760742-4.435059,2.291016
		c-1.677734,0.53125-3.414062,0.798828-5.208008,0.798828c-2.588867,0-5.082031-0.564453-7.472656-1.695312
		C74.86377,142.004883,72.821777,140.52832,71.125488,138.699219"/>
	<path clip-path="url(#SVGID_2_)" fill="#FFFFFF" d="M592.816406,143.429688v-34.920898
		c0-0.694336,0.332031-1.043945,0.998047-1.043945h5.380859c0.630859,0,0.948242,0.349609,0.948242,1.043945v34.920898
		c0,0.666016-0.317383,0.99707-0.948242,0.99707h-5.380859C593.148438,144.426758,592.816406,144.095703,592.816406,143.429688"/>
	<path clip-path="url(#SVGID_2_)" fill="#FFFFFF" d="M642.513672,143.429688v-34.920898
		c0-0.694336,0.331055-1.043945,0.99707-1.043945h5.381836c0.630859,0,0.947266,0.349609,0.947266,1.043945v34.920898
		c0,0.666016-0.316406,0.99707-0.947266,0.99707h-5.381836C642.844727,144.426758,642.513672,144.095703,642.513672,143.429688"/>
	<path clip-path="url(#SVGID_2_)" fill="#FFFFFF" d="M230.648438,107.488281h-5.381348
		c-0.666016,0-0.997559,0.348633-0.997559,1.046875v34.917969c0,0.666016,0.331543,0.99707,0.997559,0.99707h5.381348
		c0.630859,0,0.947754-0.331055,0.947754-0.99707v-34.917969C231.596191,107.836914,231.279297,107.488281,230.648438,107.488281"/>
	<path clip-path="url(#SVGID_2_)" fill="#FFFFFF" d="M173.764648,98.105469l-2.076172,4.724609
		c-0.26709,0.695312-0.697266,1.044922-1.295898,1.044922l-3.587402,0.003906c-0.333984,0-0.548828-0.048828-0.647949-0.147461
		c-0.098633-0.099609-0.148926-0.265625-0.148926-0.49707c-0.000977-0.134766,0.023926-0.267578,0.073242-0.399414
		c0.049805-0.132812,0.106934-0.316406,0.172852-0.548828l1.977051-4.574219c0.365723-0.698242,0.813965-1.046875,1.345703-1.047852
		l3.738281-0.003906c0.461914,0,0.694824,0.165039,0.695801,0.49707C174.01123,97.423828,173.929199,97.739258,173.764648,98.105469
		"/>
	<path clip-path="url(#SVGID_2_)" fill="#FFFFFF" d="M657.542969,108.536133c0-0.298828,0.098633-0.556641,0.298828-0.772461
		c0.198242-0.214844,0.480469-0.323242,0.84668-0.323242h5.082031c0.698242,0,1.063477,0.365234,1.095703,1.095703v29.140625
		h16.603516c0.298828,0,0.556641,0.101562,0.771484,0.299805c0.214844,0.200195,0.324219,0.482422,0.324219,0.84668v4.533203
		c0,0.696289-0.366211,1.063477-1.095703,1.095703h-22.830078c-0.733398,0-1.09668-0.364258-1.09668-1.095703V108.536133z"/>
	<path clip-path="url(#SVGID_2_)" fill="#FFFFFF" d="M690.365234,108.536133c0-0.298828,0.098633-0.556641,0.299805-0.772461
		c0.198242-0.214844,0.480469-0.323242,0.84668-0.323242h5.082031c0.697266,0,1.063477,0.365234,1.095703,1.095703v29.140625
		h16.602539c0.298828,0,0.557617,0.101562,0.772461,0.299805c0.214844,0.200195,0.324219,0.482422,0.324219,0.84668v4.533203
		c0,0.696289-0.366211,1.063477-1.09668,1.095703h-22.830078c-0.732422,0-1.09668-0.364258-1.09668-1.095703V108.536133z"/>
	<path clip-path="url(#SVGID_2_)" fill="#FFFFFF" d="M154.778809,143.456055v-34.970703
		c0-0.665039,0.317383-0.99707,0.948242-0.99707h24.369141c0.662598,0,0.994629,0.332031,0.994629,0.99707v4.833008
		c0,0.663086-0.332031,0.995117-0.994629,0.995117h-18.040039v7.521484h13.75293c0.72998,0,1.095703,0.333984,1.095703,0.99707
		v4.731445c0,0.665039-0.365723,0.996094-1.095703,0.996094h-13.75293v9.116211h18.487793
		c0.698242,0,1.046875,0.333984,1.046875,0.99707v4.783203c0,0.663086-0.348633,0.995117-1.046875,0.995117h-24.816895
		C155.096191,144.451172,154.778809,144.119141,154.778809,143.456055"/>
	<path clip-path="url(#SVGID_2_)" fill="#FFFFFF" d="M189.443848,138.821289c-0.26709-0.296875-0.464844-0.595703-0.599121-0.895508
		c-0.133789-0.299805-0.01709-0.631836,0.349121-0.99707l3.338867-3.286133c0.300293-0.267578,0.588867-0.359375,0.871094-0.275391
		c0.283203,0.082031,0.575195,0.257812,0.874023,0.523438c0.498047,0.499023,1.055176,1.003906,1.667969,1.518555
		c0.61377,0.514648,1.279785,0.980469,1.993164,1.395508c0.714844,0.416016,1.487793,0.748047,2.318848,0.998047
		c0.830078,0.24707,1.710938,0.373047,2.641113,0.373047c0.994629,0,1.876953-0.133789,2.64209-0.398438
		c0.761719-0.266602,1.417969-0.624023,1.966797-1.072266c0.546875-0.449219,0.962891-0.961914,1.245117-1.543945
		c0.282715-0.581055,0.423828-1.186523,0.423828-1.817383c0-0.796875-0.239746-1.470703-0.723145-2.019531
		c-0.47998-0.546875-1.071777-1.011719-1.766602-1.393555c-0.698242-0.380859-1.456055-0.697266-2.268066-0.947266
		c-0.813965-0.248047-1.554199-0.455078-2.218262-0.621094c-4.019043-1.198242-7.085938-2.667969-9.194824-4.410156
		c-2.108887-1.744141-3.163086-4.024414-3.163086-6.848633c0-1.529297,0.324219-2.921875,0.970215-4.18457
		c0.647949-1.261719,1.562012-2.350586,2.741699-3.263672c1.179199-0.913086,2.599121-1.618164,4.260254-2.118164
		c1.660645-0.49707,3.487793-0.74707,5.48291-0.74707c2.190918,0,4.291992,0.517578,6.301758,1.543945
		c2.010254,1.032227,3.762207,2.291016,5.257324,3.786133c0.598633,0.632812,0.582031,1.279297-0.049316,1.945312
		l-2.739746,2.936523c-0.332031,0.299805-0.648926,0.391602-0.948242,0.274414
		c-0.296875-0.116211-0.61377-0.305664-0.945801-0.571289c-0.397949-0.332031-0.855957-0.697266-1.371094-1.095703
		c-0.515137-0.399414-1.079102-0.771484-1.692871-1.121094c-0.617188-0.348633-1.265137-0.640625-1.942871-0.874023
		c-0.683105-0.229492-1.38916-0.348633-2.119141-0.348633c-0.630859,0-1.287109,0.051758-1.968262,0.150391
		c-0.682617,0.099609-1.296875,0.291992-1.84375,0.572266c-0.548828,0.285156-1.004883,0.683594-1.371094,1.198242
		c-0.367188,0.513672-0.546875,1.202148-0.546875,2.06543c0,0.631836,0.172852,1.180664,0.521973,1.643555
		c0.349121,0.466797,0.847168,0.873047,1.495117,1.22168c0.648926,0.349609,1.410645,0.670898,2.291992,0.970703
		c0.880859,0.298828,1.852051,0.598633,2.916016,0.897461c1.692871,0.498047,3.290039,1.053711,4.784668,1.667969
		c1.495117,0.616211,2.797363,1.371094,3.911133,2.266602c1.11084,0.895508,2,1.959961,2.665039,3.189453
		c0.664062,1.226562,0.998047,2.707031,0.998047,4.431641c0,1.727539-0.384277,3.295898-1.145996,4.708008
		c-0.765137,1.411133-1.787109,2.616211-3.064941,3.611328c-1.279297,0.99707-2.759277,1.760742-4.435059,2.291016
		c-1.678223,0.532227-3.414062,0.798828-5.208008,0.798828c-2.592285,0-5.083984-0.563477-7.475098-1.694336
		C193.181641,142.126953,191.136719,140.650391,189.443848,138.821289"/>
	<path clip-path="url(#SVGID_2_)" fill="#FFFFFF" d="M239.130371,143.456055v-34.970703
		c0-0.666016,0.331055-0.99707,0.99707-0.99707h11.90918c2.358887,0,4.659668,0.47168,6.902832,1.419922
		c2.240234,0.945312,4.234863,2.249023,5.978027,3.910156c1.745117,1.662109,3.147949,3.620117,4.212891,5.878906
		c1.062012,2.258789,1.594238,4.680664,1.594238,7.272461c0,2.491211-0.473145,4.839844-1.420898,7.049805
		c-0.946289,2.208984-2.260254,4.141602-3.936035,5.801758c-1.678223,1.663086-3.638184,2.989258-5.881348,3.986328
		c-2.241699,0.99707-4.657715,1.543945-7.25,1.642578h-12.108887
		C239.461426,144.450195,239.130371,144.119141,239.130371,143.456055 M263.397461,125.969727
		c0-1.625977-0.307129-3.155273-0.920898-4.583008c-0.616211-1.427734-1.453125-2.671875-2.51709-3.736328
		c-1.062012-1.060547-2.333984-1.900391-3.812012-2.515625c-1.478027-0.614258-3.063965-0.920898-4.759766-0.920898h-4.933105
		v23.511719h4.933105c1.695801,0,3.281738-0.307617,4.759766-0.920898s2.75-1.452148,3.812012-2.516602
		c1.063965-1.061523,1.900879-2.305664,2.51709-3.735352C263.090332,129.124023,263.397461,127.597656,263.397461,125.969727"/>
	<path clip-path="url(#SVGID_2_)" fill="#FFFFFF" d="M311.208496,108.583984c0-0.298828,0.091797-0.556641,0.274902-0.771484
		s0.458008-0.324219,0.822266-0.324219h5.831055c0.264648,0,0.539551,0.058594,0.821777,0.175781
		c0.281738,0.116211,0.489746,0.306641,0.624023,0.571289l16.393066,23.563477v-23.563477
		c0.099121-0.298828,0.257812-0.49707,0.472656-0.595703c0.218262-0.102539,0.42627-0.151367,0.624023-0.151367h5.032227
		c0.26709,0,0.532227,0.098633,0.799805,0.298828c0.26416,0.198242,0.398438,0.464844,0.398438,0.796875v34.770508
		c0,0.732422-0.398438,1.095703-1.198242,1.095703h-4.933105c-0.398926,0-0.687988-0.074219-0.871094-0.22168
		c-0.183594-0.151367-0.374023-0.341797-0.571777-0.574219l-17.291992-24.908203v24.608398
		c0.031738,0.732422-0.333984,1.095703-1.097168,1.095703h-5.033691c-0.730957,0-1.097168-0.363281-1.097168-1.095703V108.583984z"
		/>
	<path clip-path="url(#SVGID_2_)" fill="#FFFFFF" d="M377.223633,135.832031c0.666016-0.49707,1.198242-0.49707,1.59668,0
		l2.490234,4.236328c0.264648,0.296875,0.366211,0.556641,0.298828,0.772461c-0.066406,0.214844-0.25,0.44043-0.546875,0.670898
		c-1.430664,1.063477-3.024414,1.910156-4.785156,2.541016C374.515625,144.683594,372.505859,145,370.249023,145
		c-2.626465,0-5.102051-0.5-7.42627-1.494141c-2.32373-0.99707-4.358887-2.358398-6.104004-4.085938
		c-1.745117-1.726562-3.11377-3.753906-4.11084-6.076172c-0.998047-2.326172-1.495117-4.801758-1.495117-7.423828
		c0-2.657227,0.49707-5.131836,1.495117-7.423828c0.99707-2.291016,2.365723-4.299805,4.11084-6.026367
		c1.745117-1.725586,3.780273-3.078125,6.104004-4.058594c2.324219-0.979492,4.799805-1.469727,7.42627-1.469727
		c2.256836,0,4.266602,0.306641,6.02832,0.919922c1.760742,0.617188,3.37207,1.453125,4.834961,2.516602
		c0.264648,0.232422,0.398438,0.46582,0.398438,0.698242s-0.035156,0.415039-0.100586,0.546875l-2.641602,4.483398
		c-0.296875,0.398438-0.762695,0.416016-1.393555,0.049805c-1.163086-0.729492-2.301758-1.294922-3.413086-1.692383
		c-1.114258-0.398438-2.352051-0.599609-3.712891-0.599609c-1.696289,0-3.258301,0.307617-4.686035,0.922852
		c-1.428223,0.614258-2.666016,1.46875-3.710449,2.564453c-1.046875,1.095703-1.868652,2.375-2.467773,3.837891
		c-0.599121,1.458984-0.895996,3.038086-0.895996,4.730469c0,1.695312,0.296875,3.28125,0.895996,4.758789
		c0.599121,1.476562,1.420898,2.770508,2.467773,3.884766c1.044434,1.113281,2.282227,1.992188,3.710449,2.639648
		c1.427734,0.648438,2.989746,0.972656,4.686035,0.972656c1.36084,0,2.647949-0.225586,3.86084-0.673828
		C375.323242,137.054688,376.359375,136.498047,377.223633,135.832031"/>
	<path clip-path="url(#SVGID_2_)" fill="#FFFFFF" d="M389.699219,143.456055v-34.970703
		c0-0.665039,0.314453-0.99707,0.946289-0.99707h24.368164c0.663086,0,0.99707,0.332031,0.99707,0.99707v4.833008
		c0,0.663086-0.333984,0.995117-0.99707,0.995117h-18.039062v7.521484h13.754883c0.729492,0,1.095703,0.333984,1.095703,0.99707
		v4.731445c0,0.665039-0.366211,0.996094-1.095703,0.996094h-13.754883v9.116211h18.486328
		c0.698242,0,1.046875,0.333984,1.046875,0.99707v4.783203c0,0.663086-0.348633,0.995117-1.046875,0.995117h-24.81543
		C390.013672,144.451172,389.699219,144.119141,389.699219,143.456055"/>
	<path clip-path="url(#SVGID_2_)" fill="#FFFFFF" d="M424.245117,138.821289c-0.265625-0.296875-0.46582-0.595703-0.597656-0.895508
		c-0.132812-0.299805-0.016602-0.631836,0.349609-0.99707l3.339844-3.286133c0.296875-0.267578,0.588867-0.359375,0.871094-0.275391
		c0.282227,0.082031,0.571289,0.257812,0.871094,0.523438c0.498047,0.499023,1.054688,1.003906,1.670898,1.518555
		c0.614258,0.514648,1.276367,0.980469,1.992188,1.395508c0.712891,0.416016,1.485352,0.748047,2.316406,0.998047
		c0.830078,0.24707,1.710938,0.373047,2.641602,0.373047c0.998047,0,1.876953-0.133789,2.640625-0.398438
		c0.764648-0.266602,1.420898-0.624023,1.967773-1.072266c0.549805-0.449219,0.962891-0.961914,1.248047-1.543945
		c0.280273-0.581055,0.422852-1.186523,0.422852-1.817383c0-0.796875-0.241211-1.470703-0.722656-2.019531
		c-0.482422-0.546875-1.071289-1.011719-1.768555-1.393555c-0.698242-0.380859-1.453125-0.697266-2.268555-0.947266
		c-0.813477-0.248047-1.551758-0.455078-2.217773-0.621094c-4.019531-1.198242-7.083984-2.667969-9.193359-4.410156
		c-2.110352-1.744141-3.166016-4.024414-3.166016-6.848633c0-1.529297,0.325195-2.921875,0.973633-4.18457
		c0.648438-1.261719,1.561523-2.350586,2.739258-3.263672c1.181641-0.913086,2.599609-1.618164,4.263672-2.118164
		c1.660156-0.49707,3.486328-0.74707,5.479492-0.74707c2.193359,0,4.293945,0.517578,6.303711,1.543945
		c2.010742,1.032227,3.763672,2.291016,5.258789,3.786133c0.595703,0.632812,0.579102,1.279297-0.050781,1.945312
		l-2.741211,2.936523c-0.332031,0.299805-0.646484,0.391602-0.946289,0.274414
		c-0.298828-0.116211-0.616211-0.305664-0.948242-0.571289c-0.397461-0.332031-0.853516-0.697266-1.369141-1.095703
		c-0.516602-0.399414-1.081055-0.771484-1.694336-1.121094c-0.614258-0.348633-1.263672-0.640625-1.943359-0.874023
		c-0.680664-0.229492-1.385742-0.348633-2.119141-0.348633c-0.630859,0-1.287109,0.051758-1.967773,0.150391
		c-0.680664,0.099609-1.293945,0.291992-1.84375,0.572266c-0.546875,0.285156-1.004883,0.683594-1.369141,1.198242
		c-0.366211,0.513672-0.548828,1.202148-0.548828,2.06543c0,0.631836,0.174805,1.180664,0.523438,1.643555
		c0.349609,0.466797,0.847656,0.873047,1.496094,1.22168c0.646484,0.349609,1.410156,0.670898,2.291992,0.970703
		c0.87793,0.298828,1.851562,0.598633,2.913086,0.897461c1.696289,0.498047,3.290039,1.053711,4.785156,1.667969
		c1.495117,0.616211,2.798828,1.371094,3.911133,2.266602s2.001953,1.959961,2.667969,3.189453
		c0.663086,1.226562,0.995117,2.707031,0.995117,4.431641c0,1.727539-0.380859,3.295898-1.146484,4.708008
		c-0.764648,1.411133-1.785156,2.616211-3.064453,3.611328c-1.279297,0.99707-2.757812,1.760742-4.435547,2.291016
		c-1.677734,0.532227-3.414062,0.798828-5.208008,0.798828c-2.588867,0-5.082031-0.563477-7.472656-1.694336
		C427.982422,142.126953,425.94043,140.650391,424.245117,138.821289"/>
	<path clip-path="url(#SVGID_2_)" fill="#FFFFFF" d="M497.051758,135.808594c0.666016-0.49707,1.198242-0.49707,1.59668,0
		l2.490234,4.234375c0.263672,0.298828,0.366211,0.555664,0.298828,0.771484c-0.066406,0.217773-0.25,0.44043-0.546875,0.673828
		c-1.430664,1.063477-3.025391,1.90918-4.785156,2.541016c-1.761719,0.62793-3.771484,0.944336-6.02832,0.944336
		c-2.62793,0-5.102539-0.49707-7.426758-1.494141c-2.323242-0.994141-4.358398-2.357422-6.103516-4.085938
		c-1.745117-1.723633-3.114258-3.750977-4.111328-6.076172c-0.998047-2.323242-1.495117-4.798828-1.495117-7.420898
		c0-2.657227,0.49707-5.131836,1.495117-7.423828c0.99707-2.291016,2.366211-4.299805,4.111328-6.026367
		c1.745117-1.727539,3.780273-3.081055,6.103516-4.061523c2.324219-0.979492,4.798828-1.469727,7.426758-1.469727
		c2.256836,0,4.266602,0.306641,6.02832,0.922852c1.759766,0.614258,3.37207,1.453125,4.834961,2.513672
		c0.264648,0.233398,0.398438,0.466797,0.398438,0.698242c0,0.233398-0.035156,0.416016-0.101562,0.549805l-2.640625,4.483398
		c-0.297852,0.398438-0.762695,0.413086-1.393555,0.049805c-1.163086-0.729492-2.302734-1.296875-3.413086-1.695312
		c-1.114258-0.398438-2.352539-0.59668-3.712891-0.59668c-1.696289,0-3.258789,0.306641-4.686523,0.920898
		c-1.427734,0.616211-2.666016,1.469727-3.709961,2.566406c-1.046875,1.095703-1.869141,2.375-2.467773,3.834961
		c-0.599609,1.461914-0.896484,3.039062-0.896484,4.733398c0,1.692383,0.296875,3.27832,0.896484,4.755859
		c0.598633,1.479492,1.420898,2.773438,2.467773,3.887695c1.043945,1.111328,2.282227,1.992188,3.709961,2.639648
		c1.427734,0.646484,2.990234,0.969727,4.686523,0.969727c1.360352,0,2.647461-0.224609,3.860352-0.672852
		C495.150391,137.029297,496.1875,136.474609,497.051758,135.808594"/>
	<path clip-path="url(#SVGID_2_)" fill="#FFFFFF" d="M532.333984,143.429688v-14.944336h-16.59375v14.944336
		c0,0.666016-0.366211,0.99707-1.097656,0.99707h-5.231445c-0.630859,0-0.946289-0.331055-0.946289-0.99707v-34.920898
		c0-0.296875,0.074219-0.546875,0.224609-0.74707c0.149414-0.197266,0.389648-0.296875,0.72168-0.296875h5.382812
		c0.198242,0,0.40625,0.066406,0.62207,0.198242c0.216797,0.132812,0.324219,0.397461,0.324219,0.795898v13.00293h16.59375
		v-12.953125c0-0.296875,0.074219-0.546875,0.224609-0.74707c0.149414-0.197266,0.389648-0.296875,0.723633-0.296875h5.380859
		c0.201172,0,0.398438,0.066406,0.598633,0.198242c0.198242,0.132812,0.296875,0.397461,0.296875,0.795898v34.970703
		c0,0.666016-0.345703,0.99707-1.043945,0.99707h-5.232422C532.650391,144.426758,532.333984,144.095703,532.333984,143.429688"/>
	<path clip-path="url(#SVGID_2_)" fill="#FFFFFF" d="M585.583008,125.946289c0,2.623047-0.49707,5.089844-1.495117,7.395508
		c-0.99707,2.30957-2.359375,4.318359-4.085938,6.02832c-1.728516,1.711914-3.755859,3.0625-6.080078,4.05957
		c-2.326172,0.99707-4.802734,1.495117-7.425781,1.495117s-5.091797-0.498047-7.398438-1.495117
		c-2.308594-0.99707-4.319336-2.347656-6.030273-4.05957c-1.711914-1.709961-3.055664-3.71875-4.037109-6.02832
		c-0.979492-2.305664-1.469727-4.772461-1.469727-7.395508c0-2.658203,0.490234-5.139648,1.469727-7.448242
		c0.981445-2.30957,2.325195-4.318359,4.037109-6.02832c1.710938-1.708984,3.72168-3.0625,6.030273-4.05957
		c2.306641-0.995117,4.775391-1.495117,7.398438-1.495117s5.099609,0.5,7.425781,1.495117
		c2.324219,0.99707,4.351562,2.350586,6.080078,4.05957c1.726562,1.709961,3.088867,3.71875,4.085938,6.02832
		C585.085938,120.806641,585.583008,123.288086,585.583008,125.946289 M578.258789,125.946289
		c0-1.695312-0.298828-3.271484-0.898438-4.734375c-0.59668-1.458984-1.420898-2.731445-2.46582-3.80957
		c-1.046875-1.079102-2.28418-1.935547-3.712891-2.566406c-1.427734-0.630859-2.990234-0.945312-4.685547-0.945312
		c-1.660156,0-3.205078,0.314453-4.633789,0.945312c-1.427734,0.630859-2.666016,1.487305-3.712891,2.566406
		c-1.046875,1.078125-1.860352,2.350586-2.439453,3.80957c-0.582031,1.462891-0.874023,3.039062-0.874023,4.734375
		c0,1.65918,0.291992,3.22168,0.874023,4.681641c0.579102,1.461914,1.392578,2.731445,2.439453,3.80957
		c1.046875,1.081055,2.285156,1.935547,3.712891,2.566406c1.428711,0.630859,2.973633,0.948242,4.633789,0.948242
		c1.695312,0,3.257812-0.317383,4.685547-0.948242c1.428711-0.630859,2.666016-1.485352,3.712891-2.566406
		c1.044922-1.078125,1.869141-2.347656,2.46582-3.80957C577.959961,129.167969,578.258789,127.605469,578.258789,125.946289"/>
	<path clip-path="url(#SVGID_2_)" fill="#FFFFFF" d="M607.703125,138.797852
		c-0.266602-0.298828-0.464844-0.598633-0.598633-0.898438c-0.134766-0.296875-0.017578-0.628906,0.348633-0.994141
		l3.338867-3.288086c0.299805-0.265625,0.588867-0.357422,0.871094-0.275391c0.283203,0.083984,0.575195,0.256836,0.874023,0.525391
		c0.498047,0.49707,1.054688,1.003906,1.667969,1.518555c0.614258,0.513672,1.280273,0.980469,1.993164,1.393555
		c0.714844,0.416016,1.488281,0.74707,2.319336,0.99707c0.830078,0.25,1.710938,0.373047,2.640625,0.373047
		c0.995117,0,1.876953-0.130859,2.640625-0.398438c0.763672-0.263672,1.418945-0.623047,1.96875-1.071289
		c0.546875-0.448242,0.962891-0.962891,1.244141-1.543945c0.283203-0.582031,0.424805-1.1875,0.424805-1.818359
		c0-0.797852-0.240234-1.470703-0.723633-2.016602c-0.479492-0.549805-1.071289-1.011719-1.766602-1.395508
		c-0.699219-0.381836-1.456055-0.698242-2.268555-0.945312c-0.813477-0.25-1.553711-0.458008-2.217773-0.624023
		c-4.018555-1.195312-7.085938-2.665039-9.194336-4.40918c-2.109375-1.742188-3.164062-4.025391-3.164062-6.848633
		c0-1.527344,0.324219-2.922852,0.970703-4.18457c0.647461-1.261719,1.561523-2.348633,2.742188-3.263672
		c1.178711-0.913086,2.598633-1.618164,4.259766-2.116211c1.661133-0.5,3.488281-0.74707,5.482422-0.74707
		c2.19043,0,4.292969,0.515625,6.302734,1.543945c2.009766,1.029297,3.761719,2.291016,5.256836,3.786133
		c0.598633,0.630859,0.582031,1.279297-0.048828,1.942383l-2.740234,2.939453
		c-0.332031,0.299805-0.649414,0.391602-0.948242,0.274414c-0.296875-0.116211-0.613281-0.305664-0.945312-0.574219
		c-0.398438-0.331055-0.856445-0.697266-1.371094-1.095703c-0.515625-0.398438-1.079102-0.772461-1.693359-1.121094
		c-0.617188-0.348633-1.264648-0.637695-1.943359-0.871094c-0.682617-0.231445-1.388672-0.348633-2.119141-0.348633
		c-0.630859,0-1.286133,0.049805-1.967773,0.148438c-0.682617,0.101562-1.296875,0.291992-1.84375,0.574219
		c-0.548828,0.282227-1.004883,0.679688-1.371094,1.195312c-0.367188,0.514648-0.546875,1.205078-0.546875,2.068359
		c0,0.631836,0.172852,1.178711,0.522461,1.643555c0.348633,0.464844,0.84668,0.871094,1.494141,1.219727
		c0.649414,0.347656,1.411133,0.672852,2.291992,0.97168c0.881836,0.299805,1.852539,0.59668,2.916016,0.896484
		c1.693359,0.49707,3.290039,1.053711,4.785156,1.669922c1.495117,0.614258,2.796875,1.368164,3.910156,2.265625
		c1.112305,0.896484,2,1.959961,2.666016,3.188477c0.664062,1.228516,0.998047,2.707031,0.998047,4.433594
		c0,1.727539-0.383789,3.295898-1.145508,4.706055c-0.765625,1.413086-1.787109,2.615234-3.06543,3.613281
		c-1.279297,0.99707-2.758789,1.758789-4.43457,2.291016c-1.678711,0.529297-3.414062,0.796875-5.208984,0.796875
		c-2.591797,0-5.083984-0.564453-7.474609-1.693359C611.441406,142.100586,609.396484,140.624023,607.703125,138.797852"/>
	<path clip-path="url(#SVGID_2_)" fill="#FFFFFF" d="M748.953125,137.652344h-18.488281v-9.116211h13.75293
		c0.730469,0,1.095703-0.331055,1.095703-0.99707v-4.732422c0-0.664062-0.365234-0.995117-1.095703-0.995117h-13.75293v-7.046875
		v-0.475586h9.15332h8.886719c0.663086,0,0.995117-0.332031,0.995117-0.99707v-4.833008
		c0-0.663086-0.332031-0.995117-0.995117-0.995117h-9.667969h-12.231445c-1.905273,0.128906-3.417969,1.699219-3.417969,3.638672
		v0.861328v1.803711v29.663086c0,0.664062,0.317383,0.996094,0.948242,0.996094h24.817383
		c0.697266,0,1.046875-0.332031,1.046875-0.996094v-4.783203C750,137.984375,749.650391,137.652344,748.953125,137.652344"/>
	<path clip-path="url(#SVGID_2_)" fill="#FFFFFF" d="M147.319824,143.40332l-2.190918-4.34668l-0.629395-1.24707l-3.958008-7.853516
		c1.894043-1.09668,3.414062-2.566406,4.560059-4.40918c1.145996-1.84375,1.720215-3.811523,1.720215-5.904297
		c0-1.558594-0.291992-3.071289-0.874023-4.533203c-0.350098-0.87793-0.807129-1.676758-1.318848-2.435547
		c-0.339355-0.50293-0.686035-1-1.096191-1.449219c-1.029785-1.128906-2.268066-2.03418-3.712891-2.714844
		c-1.441895-0.677734-3.008301-1.019531-4.696289-1.020508h-1.156738h-12.231934
		c-1.90625,0.128906-3.417969,1.699219-3.417969,3.637695v0.861328v1.803711v29.663086v0.000977
		c0,0.332031,0.078613,0.581055,0.236816,0.74707c0.158203,0.165039,0.394043,0.248047,0.708984,0.248047h5.333984
		c0.663086,0,0.995117-0.332031,0.995117-0.995117v-11.808594h0.001953h7.571777l2.991211,6.029297l2.939941,5.927734
		c0.265137,0.564453,0.647949,0.84668,1.145996,0.84668h3.843262h2.584961c0.332031,0,0.556641-0.116211,0.672852-0.349609
		C147.460938,143.87207,147.450684,143.638672,147.319824,143.40332 M125.591797,125.073242v-11.15918h7.774902
		c0.832031,0,1.598145,0.137695,2.306152,0.399414c0.026855,0.009766,0.057617,0.013672,0.084961,0.024414
		c0.72998,0.28418,1.371094,0.672852,1.917969,1.169922c0.549805,0.5,0.973145,1.088867,1.271973,1.768555
		c0.296875,0.681641,0.447754,1.419922,0.447754,2.217773c0,0.864258-0.172852,1.641602-0.496582,2.341797
		c-0.286133,0.618164-0.686035,1.178711-1.223145,1.668945c-1.145996,1.043945-2.582031,1.568359-4.309082,1.568359H125.591797z"/>
	<path clip-path="url(#SVGID_2_)" fill="#FFFFFF" d="M302.80957,137.675781h-9.309082h-9.179199v-0.548828v-8.567383h13.753418
		c0.72998,0,1.095703-0.331055,1.095703-0.99707v-4.730469c0-0.663086-0.365723-0.99707-1.095703-0.99707h-13.753418V114.3125
		h18.040039c0.663086,0,0.995117-0.332031,0.995117-0.995117v-4.832031c0-0.666016-0.332031-0.99707-0.995117-0.99707h-24.368652
		c-0.631348,0-0.948242,0.331055-0.948242,0.99707v29.638672v1.801758v0.863281c0,2.021484,1.640137,3.662109,3.664062,3.662109
		h11.903809h10.197266c0.697754,0,1.046875-0.332031,1.046875-0.995117v-4.783203
		C303.856445,138.009766,303.507324,137.675781,302.80957,137.675781"/>
	<path clip-path="url(#SVGID_2_)" fill="#FFFFFF" d="M395.761719,21.026367c-0.06543-0.617676-0.206055-1.217773-0.425781-1.787598
		c-0.024414-0.063965-0.050781-0.126953-0.076172-0.188965c-0.052734-0.125977-0.110352-0.249023-0.169922-0.371094
		c-0.066406-0.132324-0.137695-0.263184-0.210938-0.391113c-0.075195-0.12793-0.154297-0.253906-0.238281-0.37793
		c-0.663086-0.97998-1.550781-1.742188-2.608398-2.255859c-0.239258-0.117188-0.489258-0.219238-0.74707-0.310059
		c-0.15332-0.054199-0.30957-0.105957-0.469727-0.151367c-0.106445-0.029785-0.213867-0.057617-0.323242-0.083008
		c0.057617-0.196777,0.114258-0.398926,0.169922-0.604004c0.055664-0.20459,0.110352-0.412598,0.161133-0.622559
		c0.104492-0.419434,0.198242-0.846191,0.272461-1.268066c0.115234-0.644043,0.155273-1.27832,0.12207-1.89502
		c-0.006836-0.137207-0.018555-0.272949-0.033203-0.408203c-0.036133-0.337891-0.09375-0.669922-0.174805-0.994141
		c-0.016602-0.064941-0.033203-0.128906-0.050781-0.192871c-0.035156-0.128906-0.075195-0.255859-0.117188-0.381836
		c-0.277344-0.816895-0.701172-1.576172-1.265625-2.249023c-0.053711-0.063965-0.107422-0.125977-0.164062-0.187988
		c-0.137695-0.152832-0.283203-0.297852-0.433594-0.437012c-0.030273-0.026855-0.058594-0.056152-0.089844-0.083008
		c-0.017578-0.015137-0.035156-0.028809-0.051758-0.043945c-0.046875-0.041016-0.094727-0.081055-0.142578-0.120117
		c-0.020508-0.01709-0.041992-0.033203-0.0625-0.049805c-0.026367-0.020996-0.051758-0.041016-0.078125-0.061035
		c-0.02832-0.021973-0.057617-0.043945-0.084961-0.064941c-0.017578-0.012207-0.033203-0.025391-0.049805-0.037109
		c-0.035156-0.024902-0.070312-0.05127-0.105469-0.076172c-0.042969-0.029785-0.085938-0.061035-0.128906-0.089844
		c-0.048828-0.033203-0.098633-0.066895-0.149414-0.100098c-0.015625-0.010742-0.032227-0.021973-0.049805-0.031738
		c-0.021484-0.01416-0.043945-0.027344-0.06543-0.041016c-0.066406-0.040039-0.133789-0.079102-0.201172-0.116211
		c-0.045898-0.024902-0.09082-0.049805-0.136719-0.074219c-0.046875-0.023926-0.092773-0.046875-0.138672-0.070801
		c-0.207031-0.104004-0.418945-0.200195-0.635742-0.285156c-0.145508-0.056641-0.292969-0.108887-0.442383-0.156738
		c-0.224609-0.072266-0.454102-0.133301-0.689453-0.182129c-0.009766-0.001953-0.021484-0.004883-0.032227-0.006836
		c-0.06543-0.013184-0.129883-0.026367-0.196289-0.038086c-0.196289-0.035156-0.396484-0.062012-0.599609-0.083008
		c-0.134766-0.013184-0.271484-0.022949-0.40918-0.030273c-0.137695-0.006836-0.276367-0.009766-0.416016-0.009766
		c-0.083008,0-0.166016,0.000977-0.249023,0.00293c-0.5,0.015137-1.00293,0.074219-1.504883,0.17627
		c-0.083984,0.016602-0.167969,0.034668-0.251953,0.053711c-0.000977-0.000977-0.001953-0.001953-0.00293-0.003906h-0.000977
		c-0.71582-1.072754-1.398438-1.855957-2.151367-2.481934h-0.000977c-0.079102-0.065918-0.158203-0.12793-0.237305-0.189941
		c-0.040039-0.03125-0.081055-0.061035-0.12207-0.091309c-0.036133-0.026855-0.073242-0.053711-0.110352-0.07959
		c-0.054688-0.039062-0.110352-0.077148-0.165039-0.115234c-0.018555-0.013184-0.039062-0.025879-0.058594-0.039062
		c-0.06543-0.042969-0.130859-0.085938-0.196289-0.126953c-0.213867-0.132812-0.43457-0.254883-0.657227-0.36377
		c-0.014648-0.008301-0.029297-0.015137-0.043945-0.021973c-0.063477-0.03125-0.128906-0.061035-0.194336-0.090332
		c-0.021484-0.009766-0.042969-0.019043-0.064453-0.028809c-0.064453-0.02832-0.12793-0.055176-0.193359-0.081055
		c-0.015625-0.006836-0.032227-0.013184-0.047852-0.019043c-0.130859-0.051758-0.262695-0.099121-0.395508-0.143066
		c-0.018555-0.005859-0.036133-0.012695-0.055664-0.019043c-0.054688-0.01709-0.109375-0.032715-0.166016-0.049805
		c-0.039062-0.01123-0.078125-0.022949-0.118164-0.03418c-0.050781-0.013672-0.102539-0.026855-0.15332-0.040039
		c-0.045898-0.011719-0.091797-0.022949-0.139648-0.033691c-0.046875-0.01123-0.094727-0.021973-0.142578-0.032227
		c-0.063477-0.013184-0.125977-0.024902-0.19043-0.037109c-0.045898-0.007812-0.09082-0.016602-0.137695-0.023926
		c-0.080078-0.012695-0.161133-0.025879-0.242188-0.036133c-0.037109-0.004883-0.073242-0.008789-0.110352-0.012695
		c-0.06543-0.008301-0.130859-0.015137-0.195312-0.020996c-0.038086-0.00293-0.076172-0.005859-0.114258-0.009277
		c-0.068359-0.005859-0.138672-0.009766-0.208984-0.012695c-0.033203-0.001953-0.06543-0.003906-0.098633-0.004883
		c-0.102539-0.004395-0.205078-0.007324-0.309082-0.007324s-0.207031,0.00293-0.309082,0.007324
		c-0.033203,0.000977-0.065918,0.00293-0.099121,0.004883c-0.069824,0.00293-0.13916,0.006836-0.208984,0.012695
		c-0.038086,0.003418-0.075684,0.006348-0.11377,0.009277c-0.064941,0.005859-0.130371,0.012695-0.195312,0.020996
		c-0.036621,0.003906-0.07373,0.007812-0.11084,0.012695c-0.081055,0.010254-0.162109,0.023438-0.242188,0.036133
		c-0.045898,0.007324-0.091797,0.016113-0.137695,0.023926c-0.063965,0.012207-0.126953,0.023926-0.189941,0.037109
		c-0.04834,0.010254-0.096191,0.020996-0.143066,0.032227c-0.047363,0.010742-0.093262,0.021973-0.13916,0.033691
		c-0.050781,0.013184-0.103027,0.026367-0.153809,0.040039c-0.040039,0.01123-0.079102,0.022949-0.118164,0.03418
		c-0.056152,0.01709-0.11084,0.032715-0.166016,0.049805c-0.019043,0.006348-0.037109,0.013184-0.055176,0.019043
		c-0.132812,0.043945-0.264648,0.091309-0.395996,0.143066c-0.015625,0.005859-0.031738,0.012207-0.047852,0.019043
		c-0.064941,0.025879-0.128906,0.052734-0.192871,0.081055c-0.021973,0.009766-0.042969,0.019043-0.064941,0.028809
		c-0.064941,0.029297-0.130371,0.059082-0.194336,0.090332c-0.014648,0.006836-0.028809,0.013672-0.043945,0.021973
		c-0.066895,0.031738-0.132812,0.066895-0.19873,0.101562c-0.016113,0.008301-0.033203,0.01709-0.049316,0.026367
		c-0.054688,0.028809-0.108887,0.060059-0.163574,0.09082c-0.01123,0.005859-0.022461,0.012207-0.033203,0.019043
		c-0.070801,0.041016-0.14209,0.083008-0.211914,0.125977c-0.065918,0.041016-0.130859,0.083984-0.196289,0.126953
		c-0.02002,0.013184-0.040039,0.025879-0.058594,0.039062c-0.018066,0.013184-0.036133,0.024902-0.054199,0.038086
		c-1.876953,1.245117-2.733887,2.919922-2.733887,2.919922c-0.000977,0.001953-0.001953,0.00293-0.00293,0.003906
		c-0.083984-0.019043-0.167969-0.037109-0.251953-0.053711c-0.0625-0.013184-0.125-0.025391-0.188477-0.036133
		c-0.250977-0.045898-0.50293-0.081055-0.75293-0.104004c-0.062988-0.005859-0.125977-0.012207-0.187988-0.016113
		c-0.125977-0.008789-0.250977-0.016113-0.375977-0.02002c-0.083008-0.001953-0.166016-0.00293-0.249023-0.00293
		c-0.139648,0-0.277832,0.00293-0.416016,0.009766c-0.137695,0.007324-0.273926,0.01709-0.408691,0.030273
		c-0.203125,0.020996-0.40332,0.047852-0.600098,0.083008c-0.065918,0.011719-0.130859,0.024902-0.195801,0.038086
		c-0.01123,0.001953-0.022461,0.004883-0.032227,0.006836c-0.234863,0.048828-0.464844,0.109863-0.689941,0.182129
		c-0.148926,0.047852-0.296875,0.100098-0.441895,0.156738c-0.217285,0.084961-0.429199,0.181152-0.63623,0.285156
		c-0.045898,0.023926-0.091797,0.046875-0.138184,0.070801c-0.09082,0.049316-0.181641,0.098145-0.271973,0.150391
		c-0.043945,0.025879-0.088867,0.052734-0.131836,0.081055c-0.01709,0.009766-0.03418,0.020996-0.049805,0.031738
		c-0.050293,0.033203-0.100098,0.066895-0.148926,0.100098c-0.043457,0.028809-0.086426,0.060059-0.128418,0.089844
		c-0.035645,0.024902-0.070801,0.05127-0.105957,0.076172c-0.01709,0.011719-0.032715,0.024902-0.048828,0.037109
		c-0.029297,0.020996-0.058105,0.042969-0.085938,0.064941c-0.025879,0.02002-0.052246,0.040039-0.078125,0.061035
		c-0.020996,0.015625-0.041992,0.032715-0.062988,0.049805c-0.047852,0.039062-0.095215,0.079102-0.14209,0.120117
		c-0.01709,0.015137-0.035156,0.028809-0.051758,0.043945c-0.03125,0.026855-0.060059,0.056152-0.090332,0.083008
		c-0.149902,0.13916-0.295898,0.28418-0.433594,0.437012c-0.056152,0.062012-0.110352,0.124023-0.164062,0.187988
		c-0.563965,0.672852-0.988281,1.432129-1.265137,2.249023c-0.041992,0.125977-0.082031,0.25293-0.117188,0.381836
		c-0.017578,0.063965-0.034668,0.12793-0.050781,0.192871c-0.081055,0.324219-0.13916,0.65625-0.174805,0.994141
		c-0.015137,0.135254-0.026367,0.270996-0.033203,0.408203c-0.033203,0.616699,0.006836,1.250977,0.12207,1.89502
		c0.092773,0.527832,0.21582,1.062012,0.351074,1.582031c0.026855,0.104004,0.054688,0.207031,0.082031,0.308594
		c0.055664,0.205078,0.112793,0.407227,0.170898,0.604004c-0.108887,0.025391-0.217285,0.053223-0.324219,0.083008
		c-0.159668,0.04541-0.315918,0.097168-0.469727,0.151367c-0.257324,0.09082-0.507324,0.192871-0.74707,0.310059
		c-1.057129,0.513672-1.945312,1.275879-2.60791,2.255859c-0.166992,0.248047-0.317383,0.503906-0.448242,0.769043
		c-0.061035,0.12207-0.118164,0.245117-0.170898,0.371094c-0.025879,0.062012-0.052246,0.125-0.076172,0.188965
		c-0.219727,0.569824-0.36084,1.169922-0.424805,1.787598c-0.029297,0.274414-0.042969,0.552246-0.041992,0.833008
		c0,0.127441,0.003906,0.256348,0.010742,0.384277c0.013184,0.256836,0.038086,0.516113,0.076172,0.775879
		c0.028809,0.195312,0.064941,0.391113,0.10791,0.586914c0.071289,0.326172,0.164062,0.65332,0.276855,0.97998
		c0.04541,0.131348,0.094238,0.26123,0.146484,0.39209c0.021973,0.053223,0.043945,0.105957,0.066895,0.15918
		c0.023926,0.052734,0.047852,0.106934,0.072754,0.160156c0.05127,0.106934,0.105957,0.213867,0.164062,0.321777
		c0.204102,0.375,0.451172,0.75293,0.727051,1.125c0.079102,0.105957,0.160156,0.211914,0.243164,0.316895
		c0.083008,0.105957,0.168945,0.209961,0.254883,0.313965c0.086914,0.104004,0.175781,0.207031,0.265137,0.310059
		c0.134766,0.152832,0.272949,0.305176,0.411621,0.453125c0.557129,0.595703,1.141113,1.148926,1.677246,1.625977
		c0.061035,0.055176,0.123047,0.109863,0.184082,0.164062c0.061035,0.053711,0.120605,0.106934,0.178711,0.156738l0.000977,0.000977
		c-0.053711,0.05127-0.106934,0.103027-0.158691,0.15625c-0.363281,0.369141-0.677246,0.779785-0.936035,1.227051
		c-0.062012,0.106934-0.121094,0.214844-0.17627,0.324707c-0.219727,0.437988-0.383789,0.896973-0.491699,1.369141
		c-0.02832,0.118164-0.05127,0.23584-0.071289,0.355957c-0.049805,0.297852-0.077637,0.601074-0.083984,0.905273
		c-0.004883,0.243652,0.004395,0.48877,0.02832,0.733887c0.064941,0.673828,0.236816,1.351074,0.516602,2.007812
		c0.013184,0.030273,0.027344,0.059082,0.041016,0.088867c0.544434,1.231445,1.338379,2.206055,2.27002,2.999023
		c0.13623,0.116211,0.276367,0.229004,0.417969,0.337402c0.851074,0.650879,1.79541,1.170898,2.755371,1.608887
		c0.319824,0.145996,0.640625,0.283691,0.961914,0.414062c0.23291,0.09375,0.466797,0.189941,0.697754,0.277832
		c0.221191,0.083984,0.408203,0.153809,0.567383,0.216797c0.031738,0.012207,0.062012,0.024414,0.091797,0.036133
		c0.059082,0.023926,0.114258,0.046875,0.165039,0.069336c0.12793,0.054688,0.231934,0.103516,0.318848,0.153809
		c0.052246,0.029785,0.098145,0.060059,0.13916,0.09082c0.041016,0.03125,0.078125,0.062988,0.11084,0.097168
		c0.01123,0.010742,0.021973,0.022949,0.033203,0.035156c0.020996,0.023926,0.040039,0.048828,0.059082,0.074707
		c0.008789,0.013184,0.019043,0.026855,0.027832,0.041016c0.026855,0.041992,0.053223,0.087891,0.079102,0.138184
		c0.007812,0.01709,0.01709,0.033691,0.025879,0.051758c0.01709,0.036133,0.035156,0.074219,0.053223,0.114258
		c0.027832,0.061035,0.056641,0.12793,0.088867,0.200684c1.381836,3.164062,3.456055,5.109375,6.151855,5.822266
		c0.047852,0.013184,0.095215,0.025879,0.14209,0.039062c0.141113,0.040039,0.281738,0.081055,0.429199,0.108887
		c0.118652,0.022949,0.23584,0.037109,0.351562,0.041992c0.039062,0.001953,0.078125,0.00293,0.117188,0.003906
		c0.016113,0,0.032227-0.001953,0.046875-0.00293c0.016113-0.001953,0.032227-0.00293,0.04834-0.003906
		c0.040039-0.000977,0.07959-0.00293,0.118652-0.005859c0.119141-0.009277,0.236328-0.027344,0.350098-0.052246
		c0.053223-0.010742,0.105957-0.022949,0.157227-0.038086c0.166016-0.046875,0.32666-0.10498,0.478027-0.183105
		c0.006836-0.003906,0.014648-0.005859,0.022949-0.009766h0.000977h0.000977c0.008301,0.003906,0.016113,0.005859,0.022949,0.009766
		c0.151367,0.078125,0.311523,0.13623,0.477539,0.183105c0.051758,0.015137,0.104492,0.027344,0.157227,0.038086
		c0.076172,0.01709,0.154297,0.029785,0.232422,0.040039c0.039062,0.004883,0.078125,0.008789,0.118164,0.012207
		c0.040039,0.00293,0.079102,0.004883,0.118164,0.005859c0.032227,0.000977,0.063477,0.006836,0.095703,0.006836
		c0.039062-0.000977,0.078125-0.001953,0.117188-0.003906c0.038086-0.001953,0.077148-0.003906,0.116211-0.007812
		c0.078125-0.007324,0.15625-0.018066,0.235352-0.03418c0.196289-0.037109,0.380859-0.098145,0.571289-0.147949
		c2.695312-0.712891,4.769531-2.658203,6.151367-5.822266c0.032227-0.072754,0.0625-0.139648,0.088867-0.200684
		c0.018555-0.040039,0.036133-0.078125,0.054688-0.114258c0.007812-0.018066,0.016602-0.034668,0.025391-0.051758
		c0.025391-0.050293,0.051758-0.096191,0.078125-0.138184c0.008789-0.01416,0.019531-0.027832,0.02832-0.041016
		c0.018555-0.025879,0.039062-0.050781,0.058594-0.074707c0.011719-0.012207,0.022461-0.024414,0.033203-0.035156
		c0.033203-0.03418,0.070312-0.065918,0.111328-0.097168c0.041016-0.030762,0.086914-0.061035,0.138672-0.09082
		c0.070312-0.040039,0.150391-0.080078,0.245117-0.12207c0.071289-0.031738,0.150391-0.064941,0.239258-0.101074
		c0.029297-0.011719,0.05957-0.023926,0.091797-0.036133c0.15918-0.062988,0.345703-0.132812,0.567383-0.216797
		c0.230469-0.087891,0.464844-0.184082,0.697266-0.277832c0.321289-0.130371,0.642578-0.268066,0.961914-0.414062
		c0.959961-0.437988,1.904297-0.958008,2.756836-1.608887c0.140625-0.108398,0.280273-0.221191,0.416992-0.337402
		c0.931641-0.792969,1.725586-1.767578,2.270508-2.999023c0.012695-0.029785,0.027344-0.058594,0.040039-0.088867
		c0.280273-0.656738,0.452148-1.333984,0.516602-2.007812c0.024414-0.245117,0.033203-0.490234,0.02832-0.733887
		c-0.001953-0.12207-0.007812-0.243164-0.016602-0.364258c-0.015625-0.182129-0.037109-0.361816-0.067383-0.541016
		c-0.019531-0.120117-0.042969-0.237793-0.070312-0.355957c-0.108398-0.472168-0.272461-0.931152-0.492188-1.369141
		c-0.055664-0.109863-0.114258-0.217773-0.176758-0.324707c-0.257812-0.447266-0.572266-0.85791-0.935547-1.227051
		c-0.051758-0.053223-0.105469-0.10498-0.15918-0.15625l0.000977-0.000977c0.057617-0.049805,0.118164-0.103027,0.178711-0.156738
		c0.061523-0.054199,0.123047-0.108887,0.18457-0.164062c0.536133-0.477051,1.120117-1.030273,1.676758-1.625977
		c0.138672-0.147949,0.277344-0.300293,0.412109-0.453125c0.178711-0.205078,0.352539-0.413086,0.519531-0.624023
		c0.083008-0.10498,0.164062-0.210938,0.243164-0.316895c0.276367-0.37207,0.523438-0.75,0.727539-1.125
		c0.057617-0.10791,0.112305-0.214844,0.164062-0.321777c0.024414-0.053223,0.048828-0.107422,0.072266-0.160156
		c0.023438-0.053223,0.044922-0.105957,0.067383-0.15918c0.051758-0.130859,0.100586-0.260742,0.146484-0.39209
		c0.067383-0.195801,0.128906-0.391602,0.180664-0.587891c0.036133-0.130859,0.068359-0.261719,0.095703-0.39209
		c0.015625-0.064941,0.02832-0.130859,0.041016-0.195801c0.026367-0.129883,0.047852-0.26123,0.067383-0.391113
		c0.038086-0.259766,0.0625-0.519043,0.077148-0.775879c0.005859-0.12793,0.009766-0.256836,0.009766-0.384277
		C395.803711,21.578613,395.790039,21.300781,395.761719,21.026367 M373.727539,47.558594L373.727539,47.558594l-0.001953-0.000977
		l-0.000977,0.001953c-0.132812-0.026855-0.263184-0.059082-0.391113-0.09375
		c-0.128906-0.036133-0.254883-0.076172-0.378906-0.121094c-0.310059-0.111328-0.60791-0.25-0.89209-0.416016
		c-0.11377-0.066895-0.226074-0.138184-0.335938-0.212891c-0.165039-0.112305-0.325195-0.235352-0.480957-0.367188
		c-0.104004-0.087891-0.206055-0.181152-0.306152-0.277832c-0.139648-0.13623-0.276855-0.280273-0.409668-0.433105
		c-0.089355-0.102051-0.17627-0.208008-0.26123-0.317871c-0.084961-0.110352-0.168945-0.224121-0.250977-0.341309
		c-0.205078-0.293945-0.399902-0.612793-0.583984-0.957031c-0.074219-0.136719-0.145996-0.278809-0.21582-0.424805
		c-0.071289-0.14502-0.140137-0.294922-0.207031-0.449219c-0.162109-0.371094-0.306152-0.670898-0.453125-0.921875
		c-0.114258-0.195801-0.22998-0.36084-0.355957-0.505859c-0.433105-0.496094-1.012207-0.762207-2.076172-1.170898
		c-0.030762-0.012207-0.060059-0.023438-0.089844-0.035156c-0.087891-0.03418-0.17627-0.067871-0.276855-0.105957
		c-0.200195-0.076172-0.400391-0.155273-0.600098-0.238281c-0.201172-0.082031-0.401855-0.167969-0.602051-0.254883
		c-0.222168-0.098145-0.442871-0.19873-0.662109-0.306152c-0.150879-0.07373-0.300781-0.149902-0.447754-0.229004
		c-0.099121-0.052734-0.197266-0.106934-0.294434-0.161621c-0.09668-0.055176-0.192871-0.111328-0.287598-0.168945
		c-0.047363-0.029297-0.094238-0.058105-0.141113-0.087402c-0.094238-0.058594-0.186035-0.119629-0.277832-0.181641
		c-0.365234-0.24707-0.709473-0.51709-1.021973-0.814941c-0.078125-0.074219-0.154297-0.151367-0.229492-0.229004
		c-0.18457-0.195312-0.35791-0.401367-0.514648-0.619141c-0.062988-0.087891-0.123047-0.177246-0.181152-0.269043
		c-0.058105-0.09082-0.112793-0.185059-0.165039-0.280273c-0.079102-0.143555-0.150879-0.291992-0.216797-0.445801
		c-0.42334-0.989746-0.439941-2.040039-0.057129-2.942871c0.055176-0.128906,0.118164-0.254883,0.188965-0.376953
		c0.088867-0.15332,0.189941-0.299316,0.30127-0.437012c0.111816-0.138184,0.234863-0.269043,0.367676-0.390137
		c0.065918-0.061035,0.135254-0.120117,0.207031-0.175781c0.035156-0.02832,0.072266-0.056152,0.108887-0.083008
		c0.073242-0.054199,0.150391-0.106445,0.228027-0.155273c0.118164-0.07373,0.240234-0.143066,0.368164-0.205078l1.396973-0.708008
		c0.063965-0.044922,0.116211-0.106934,0.145996-0.178711c0.012207-0.030273,0.02002-0.060059,0.024902-0.093262
		c0.001953-0.016113,0.00293-0.031738,0.00293-0.048828c0-0.043945-0.007812-0.084961-0.022949-0.123047
		c-0.013672-0.038086-0.033691-0.073242-0.058105-0.105957l-0.020508-0.01709l-0.021484-0.01709l-1.21875-0.947754
		c-0.007812-0.006348-0.01709-0.013184-0.024902-0.02002l-0.001953-0.000977c-0.01123-0.009277-0.022949-0.019043-0.03418-0.027344
		c-0.221191-0.169922-0.444824-0.347656-0.669922-0.532715c-0.11084-0.091309-0.224121-0.189941-0.335938-0.285156
		c-0.01709-0.015137-0.035156-0.029785-0.052246-0.044922c-0.12207-0.103027-0.243652-0.205078-0.364746-0.311035
		l-0.000977-0.000977c-0.061035-0.054199-0.121094-0.109863-0.182129-0.165039l-0.000977-0.000977l-0.000977-0.000977
		l-0.000977-0.000977c-0.041992-0.037109-0.082031-0.075195-0.12207-0.112793
		c-0.040039-0.038086-0.080078-0.076172-0.121094-0.114258c-0.050781-0.045898-0.101074-0.091797-0.150879-0.13916
		c-0.150879-0.137695-0.302246-0.277832-0.447266-0.419922c-0.081543-0.080078-0.154785-0.160645-0.233887-0.240723
		c-0.139648-0.141113-0.280762-0.282227-0.415039-0.42334c-0.044922-0.046875-0.088867-0.09375-0.131836-0.140625
		c-0.047852-0.053223-0.085938-0.10498-0.132812-0.158203c-0.095215-0.106934-0.19043-0.214844-0.28125-0.321777
		c-0.091797-0.107422-0.180176-0.213379-0.260742-0.318359c-0.102051-0.130859-0.197266-0.260742-0.285156-0.387695
		c-0.088867-0.12793-0.169922-0.254395-0.244141-0.376953c-0.106934-0.178223-0.195801-0.348145-0.266113-0.51123
		c-0.009766-0.022949-0.020996-0.046875-0.029785-0.069824c-0.106934-0.26416-0.191895-0.529297-0.257812-0.791992
		c-0.043945-0.175293-0.079102-0.350098-0.106445-0.523926c-0.039551-0.260254-0.060547-0.518066-0.063965-0.772461
		c-0.007812-0.586914,0.082031-1.150879,0.276367-1.669922c0.044922-0.118652,0.094727-0.23584,0.150879-0.351074
		c0.020996-0.041992,0.042969-0.084961,0.064941-0.126953c0.066895-0.125977,0.141113-0.249023,0.221191-0.366699
		c0.784668-1.161133,2.066895-1.79834,3.706055-1.845215l0.617676-0.01709l0.461914-0.015625l0.218262-0.019043
		c0.016113,0,0.031738-0.001953,0.047852-0.003906c0.003906,0,0.006836-0.001465,0.01123-0.001465
		c0.015625-0.00293,0.030762-0.005859,0.045898-0.010742s0.029785-0.01123,0.043945-0.018066
		c0.001953-0.000977,0.004883-0.001953,0.006836-0.00293c0.01416-0.006836,0.02832-0.015137,0.041016-0.023926
		c0.126953-0.112305,0.147949-0.239258,0.135254-0.342285l-0.03418-0.109863l0.001953-0.00293
		c0,0-0.011719-0.027832-0.033691-0.080078c0,0-2.015137-3.253906-1.361328-6.458984
		c0.115234-0.839844,0.440918-1.603027,0.965332-2.229004c0.068848-0.082031,0.142578-0.161133,0.217773-0.236816
		c2.211914-2.480957,6.059082-0.759277,6.059082-0.759277c0.022949,0.01416,0.046875,0.024902,0.072754,0.03418
		c0.003418,0.000977,0.007324,0.000977,0.010254,0.001953l0.00293,0.001953V7.246582
		c0.121094,0.035156,0.246094,0.000977,0.333984-0.079102c0.007812-0.007812,0.016113-0.014648,0.023926-0.023926
		c0.016113-0.019043,0.03125-0.039062,0.042969-0.062012c0.075195-0.10498,0.166992-0.23291,0.268066-0.374023
		c0,0,0.475098-0.886719,1.333984-1.830078c-0.047852,0.062988-0.131836,0.181152-0.134766,0.185059
		c0.001953-0.00293,0.003906-0.006836,0.006836-0.009766c0,0,0.000977-0.001953,0.001953-0.00293
		c0.041992-0.055176,0.085938-0.119141,0.12793-0.17334c0.00293-0.004883,0.007324-0.009766,0.01123-0.014648
		c0.010742-0.01416,0.022949-0.02832,0.033691-0.041016c0.01709-0.019043,0.03418-0.038086,0.05127-0.057129
		c0.01709-0.018066,0.03418-0.037109,0.050781-0.058105l0.001953-0.000977c0.003418-0.003906,0.006348-0.006836,0.009277-0.01123
		c0.036133-0.042969,0.070801-0.077637,0.106934-0.118652l0.001953-0.001953c0.001953-0.00293,0.003906-0.004395,0.004883-0.006348
		c0.093262-0.106934,0.186035-0.212891,0.279297-0.311035c0.011719-0.013672,0.024902-0.026855,0.038086-0.039551
		c0,0,0.003906-0.004395,0.005859-0.007324c0.088867-0.089844,0.177734-0.175781,0.26709-0.256836
		c0.042969-0.039062,0.085938-0.076172,0.128906-0.113281c0.011719-0.009766,0.022949-0.02002,0.034668-0.029785
		c0.001465-0.000977,0.002441-0.000977,0.002441-0.000977c0.054688-0.046875,0.11084-0.09082,0.166992-0.133789
		c0.029785-0.022461,0.060059-0.044434,0.089844-0.066406c0.026855-0.019043,0.053223-0.040039,0.081055-0.058594
		c0.041016-0.02832,0.082031-0.056152,0.123047-0.083008c0.016113-0.01123,0.032715-0.022461,0.048828-0.033203
		c0.047852-0.03125,0.097168-0.061035,0.145996-0.089844c0.010254-0.006348,0.019043-0.012207,0.027832-0.01709
		c0.054199-0.032227,0.109375-0.062012,0.163086-0.092285c0.005371-0.001953,0.009277-0.004883,0.01416-0.006836
		c0.058105-0.030762,0.117188-0.061035,0.175781-0.089844l0.001953-0.000977c0.062012-0.030273,0.124023-0.058105,0.186035-0.084961
		c0.035156-0.015137,0.070312-0.02832,0.10498-0.042969c0.029297-0.01123,0.057129-0.023438,0.084961-0.03418
		c0.057129-0.021973,0.115234-0.041992,0.17334-0.061035c0.010742-0.003906,0.020996-0.007812,0.030762-0.01123
		c0.069336-0.022949,0.13916-0.043945,0.208984-0.063965l0.00293-0.000977c0.068359-0.019043,0.137207-0.035645,0.207031-0.051758
		c0.003418-0.000977,0.007324-0.001953,0.010254-0.00293c0.065918-0.015137,0.131836-0.02832,0.19873-0.041016
		c0.007324-0.000977,0.01416-0.00293,0.022461-0.003906c0.061523-0.01123,0.125977-0.020996,0.188965-0.030273
		c0.010742-0.000977,0.021973-0.00293,0.033691-0.004883c0.059082-0.008301,0.119141-0.01416,0.180176-0.02002
		c0.015137-0.000977,0.028809-0.00293,0.043945-0.003906c0.059082-0.006348,0.118164-0.009277,0.177246-0.012207
		c0.016602-0.000977,0.032715-0.001953,0.049805-0.00293c0.053711-0.00293,0.10791-0.00293,0.163086-0.003906
		c0.020996,0,0.042969,0.000977,0.063965,0.000977s0.04248-0.000977,0.063965-0.000977
		c0.054688,0.000977,0.109375,0.000977,0.163086,0.003906c0.016602,0.000977,0.033203,0.001953,0.049805,0.00293
		c0.058594,0.00293,0.118164,0.005859,0.176758,0.012207c0.015625,0.000977,0.029297,0.00293,0.043945,0.003906
		c0.061523,0.005859,0.121094,0.011719,0.181641,0.02002c0.010742,0.001953,0.021484,0.003906,0.032227,0.004883
		c0.063477,0.009277,0.12793,0.019043,0.189453,0.030273c0.007812,0.000977,0.014648,0.00293,0.022461,0.003906
		c0.066406,0.012695,0.132812,0.025879,0.198242,0.041016c0.003906,0.000977,0.006836,0.001953,0.011719,0.00293
		c0.068359,0.016113,0.137695,0.032715,0.206055,0.051758l0.001953,0.000977c0.070312,0.02002,0.140625,0.041016,0.209961,0.063965
		c0.009766,0.003418,0.019531,0.007324,0.030273,0.01123c0.058594,0.019043,0.116211,0.039062,0.172852,0.061035
		c0.029297,0.010742,0.057617,0.022949,0.085938,0.035156c0.03418,0.013672,0.069336,0.026855,0.104492,0.041992
		c0.0625,0.026855,0.124023,0.054688,0.186523,0.084961L377.125,3.136719c0.05957,0.028809,0.117188,0.059082,0.176758,0.089844
		c0.003906,0.001953,0.007812,0.004883,0.012695,0.006836c0.053711,0.030273,0.109375,0.060059,0.163086,0.092285
		c0.008789,0.004883,0.017578,0.010742,0.02832,0.01709c0.048828,0.028809,0.097656,0.058594,0.145508,0.089844
		c0.016602,0.010742,0.033203,0.021973,0.048828,0.033203c0.041016,0.026855,0.083008,0.053711,0.123047,0.083008
		c0.02832,0.018555,0.054688,0.039551,0.081055,0.058594c0.030273,0.021973,0.060547,0.043945,0.089844,0.066406
		c0.056641,0.042969,0.112305,0.086914,0.166992,0.132812l0.000977,0.000977c0.013672,0.010742,0.025391,0.020996,0.036133,0.030762
		c0.041016,0.035156,0.081055,0.070312,0.12207,0.107422c0.091797,0.083008,0.183594,0.169922,0.274414,0.262695
		c0.001953,0.00293,0.004883,0.004883,0.006836,0.007324c0.011719,0.012695,0.025391,0.025879,0.037109,0.039551
		c0.094727,0.099121,0.188477,0.207031,0.283203,0.316406c0.037109,0.041992,0.073242,0.078613,0.109375,0.121582
		c0.00293,0.004395,0.005859,0.007324,0.010742,0.01123l0.000977,0.000977c0.033203,0.041016,0.067383,0.076172,0.101562,0.115234
		c0.010742,0.012695,0.023438,0.026855,0.03418,0.041016c0.003906,0.004883,0.007812,0.010742,0.012695,0.015625
		c0.859375,0.943359,1.333984,1.830078,1.333984,1.830078c0.102539,0.141113,0.193359,0.269043,0.268555,0.374023
		c0.011719,0.022949,0.026367,0.042969,0.042969,0.062012c0.007812,0.009277,0.015625,0.016113,0.024414,0.023926
		c0.086914,0.080078,0.211914,0.114258,0.333008,0.079102v0.000977l0.00293-0.001953
		c0.003906-0.000977,0.007812-0.000977,0.010742-0.001953c0.025391-0.009277,0.049805-0.02002,0.072266-0.03418
		c0,0,3.847656-1.72168,6.05957,0.759277c0.076172,0.075684,0.148438,0.154785,0.217773,0.236816
		c0.524414,0.625977,0.849609,1.38916,0.96582,2.229004c0.65332,3.205078-1.361328,6.458984-1.361328,6.458984
		c-0.021484,0.052246-0.03418,0.080078-0.03418,0.080078l0.001953,0.00293l-0.03418,0.109863
		c-0.012695,0.103027,0.007812,0.22998,0.134766,0.342285c0.012695,0.008789,0.027344,0.01709,0.041016,0.023926
		c0.001953,0.000977,0.004883,0.001953,0.006836,0.00293c0.014648,0.006836,0.029297,0.013184,0.043945,0.018066
		c0.015625,0.004883,0.030273,0.007812,0.045898,0.010742c0.004883,0,0.007812,0.001465,0.011719,0.001465
		c0.015625,0.001953,0.03125,0.003906,0.047852,0.003906l0.217773,0.019043l0.461914,0.015625l0.618164,0.01709
		c1.638672,0.046875,2.920898,0.684082,3.706055,1.845215c0.080078,0.117676,0.154297,0.240723,0.220703,0.366699
		c0.022461,0.041992,0.043945,0.084961,0.06543,0.126953c0.055664,0.115234,0.105469,0.232422,0.150391,0.351074
		c0.194336,0.519043,0.28418,1.083008,0.276367,1.669922c-0.00293,0.254395-0.024414,0.512207-0.063477,0.772461
		c-0.027344,0.173828-0.0625,0.348633-0.106445,0.523926c-0.066406,0.262695-0.151367,0.527832-0.257812,0.791992
		c-0.018555,0.045898-0.038086,0.092773-0.060547,0.139648c-0.042969,0.094238-0.092773,0.191406-0.147461,0.290039
		c-0.02832,0.050293-0.057617,0.100098-0.087891,0.151367c-0.147461,0.246582-0.326172,0.50293-0.529297,0.764648
		c-0.081055,0.10498-0.168945,0.210938-0.259766,0.318359c-0.091797,0.106934-0.1875,0.214844-0.282227,0.321777
		c-0.046875,0.053223-0.084961,0.10498-0.132812,0.158203c-0.042969,0.046875-0.086914,0.09375-0.131836,0.140625
		c-0.134766,0.141113-0.275391,0.282227-0.414062,0.42334c-0.080078,0.080078-0.15332,0.160645-0.235352,0.240723
		c-0.144531,0.14209-0.295898,0.282227-0.447266,0.419922c-0.049805,0.047363-0.099609,0.093262-0.150391,0.13916
		c-0.041016,0.038086-0.081055,0.076172-0.121094,0.114258c-0.040039,0.037598-0.080078,0.075684-0.121094,0.112793
		l-0.001953,0.000977l-0.000977,0.000977l-0.000977,0.000977c-0.03125,0.027832-0.061523,0.055176-0.09082,0.083008
		c-0.030273,0.027832-0.060547,0.055176-0.091797,0.082031l-0.000977,0.000977
		c-0.121094,0.105957-0.242188,0.208008-0.364258,0.311035c-0.017578,0.015137-0.035156,0.029785-0.052734,0.044922
		c-0.111328,0.095215-0.224609,0.193848-0.335938,0.285156c-0.224609,0.185059-0.448242,0.362793-0.669922,0.532715
		c-0.010742,0.008301-0.021484,0.018066-0.03418,0.027344l-0.001953,0.000977
		c-0.007812,0.006836-0.016602,0.013672-0.024414,0.02002l-1.21875,0.947754l-0.021484,0.01709l-0.020508,0.01709
		c-0.024414,0.032715-0.044922,0.067871-0.058594,0.105957c-0.014648,0.038086-0.022461,0.079102-0.022461,0.123047
		c0,0.01709,0.000977,0.032715,0.00293,0.048828c0.004883,0.033203,0.012695,0.062988,0.024414,0.093262
		c0.030273,0.071777,0.082031,0.133789,0.146484,0.178711l1.396484,0.708008c0.12793,0.062012,0.25,0.131348,0.368164,0.205078
		c0.078125,0.048828,0.155273,0.101074,0.228516,0.155273c0.036133,0.026855,0.073242,0.054688,0.108398,0.083008
		c0.107422,0.083984,0.208984,0.173828,0.305664,0.268555c0.095703,0.094238,0.185547,0.193359,0.269531,0.297363
		c0.111328,0.137695,0.211914,0.283691,0.300781,0.437012c0.071289,0.12207,0.133789,0.248047,0.189453,0.376953
		c0.164062,0.386719,0.254883,0.800781,0.270508,1.226074c0.023438,0.565918-0.085938,1.151855-0.328125,1.716797
		c-0.06543,0.153809-0.137695,0.302246-0.216797,0.445801c-0.051758,0.095215-0.106445,0.189453-0.165039,0.280273
		c-0.057617,0.091797-0.118164,0.181152-0.180664,0.269043c-0.157227,0.217773-0.330078,0.423828-0.514648,0.619141
		c-0.075195,0.077637-0.151367,0.154785-0.229492,0.229004c-0.313477,0.297852-0.657227,0.567871-1.022461,0.814941
		c-0.091797,0.062012-0.183594,0.123047-0.277344,0.181641c-0.046875,0.029297-0.09375,0.058105-0.141602,0.087402
		c-0.094727,0.057617-0.19043,0.11377-0.287109,0.168945c-0.097656,0.054688-0.195312,0.108887-0.293945,0.161621
		c-0.147461,0.079102-0.297852,0.155273-0.448242,0.229004c-0.219727,0.107422-0.439453,0.208008-0.662109,0.306152
		c-0.200195,0.086914-0.401367,0.172852-0.602539,0.254883c-0.199219,0.083008-0.399414,0.162109-0.598633,0.238281
		c-0.135742,0.050781-0.246094,0.09375-0.368164,0.141113c-1.063477,0.408691-1.642578,0.674805-2.076172,1.170898
		c-0.125977,0.14502-0.241211,0.310059-0.355469,0.505859c-0.033203,0.055176-0.06543,0.114258-0.098633,0.174805
		c-0.113281,0.213379-0.228516,0.458984-0.354492,0.74707c-0.067383,0.154297-0.135742,0.304199-0.206055,0.449219
		c-0.071289,0.145996-0.142578,0.288086-0.216797,0.424805c-0.18457,0.344238-0.378906,0.663086-0.583984,0.957031
		c-0.082031,0.117188-0.166016,0.230957-0.250977,0.341309c-0.084961,0.109863-0.171875,0.21582-0.261719,0.317871
		c-0.132812,0.152832-0.269531,0.296875-0.40918,0.433105c-0.100586,0.09668-0.202148,0.189941-0.306641,0.277832
		c-0.155273,0.131836-0.31543,0.254883-0.480469,0.367188c-0.110352,0.074707-0.222656,0.145996-0.335938,0.212891
		c-0.28418,0.166016-0.582031,0.304688-0.892578,0.416016c-0.124023,0.044922-0.25,0.084961-0.37793,0.121094
		c-0.128906,0.034668-0.258789,0.066895-0.391602,0.09375v-0.001953l-0.00293,0.000977H373.727539z"/>
	<path clip-path="url(#SVGID_2_)" fill="#FFFFFF" d="M378.119141,62.240723v-2.290039
		c0-0.282715-0.149414-0.424805-0.445312-0.424805h-5.384766c-0.283691,0-0.424805,0.14209-0.424805,0.424805v2.290039
		c0,0.269043,0.141113,0.40332,0.424805,0.40332h5.384766C377.969727,62.644043,378.119141,62.509766,378.119141,62.240723"/>
	<path clip-path="url(#SVGID_2_)" fill="#FFFFFF" d="M375.420898,30.810059l-1.620117-1.619141
		c-0.199707-0.200684-0.194824-0.405762,0.01416-0.614746l7.064941-7.062012c0.200195-0.200195,0.400391-0.200195,0.600586,0
		l1.619141,1.619629c0.19043,0.189453,0.186523,0.385254-0.014648,0.585449l-7.064453,7.061523
		C375.810547,30.990234,375.611328,31,375.420898,30.810059"/>
	<path clip-path="url(#SVGID_2_)" fill="#FFFFFF" d="M374.572754,24.832031l1.619629-1.618652
		c0.200195-0.201172,0.195312-0.40625-0.013672-0.615234l-7.064941-7.062012c-0.200195-0.199707-0.399902-0.199707-0.600098,0
		l-1.620117,1.620117c-0.189941,0.188965-0.185547,0.384766,0.015137,0.584961l7.063965,7.062012
		C374.182617,25.012207,374.382812,25.021973,374.572754,24.832031"/>
	<path clip-path="url(#SVGID_2_)" fill="#FFFFFF" d="M374.572754,37.034668l1.619629-1.619141
		c0.200195-0.200684,0.195312-0.405762-0.013672-0.614746l-7.064941-7.062012c-0.200195-0.200195-0.399902-0.200195-0.600098,0
		l-1.620117,1.620117c-0.189941,0.188965-0.185547,0.384766,0.015137,0.584961l7.063965,7.062012
		C374.182617,37.214844,374.382812,37.224609,374.572754,37.034668"/>
	<path clip-path="url(#SVGID_2_)" fill="#FFFFFF" d="M385.763672,73.351562v-2.290039
		c0-0.283203-0.148438-0.425293-0.445312-0.425293h-4.043945c-0.283203,0-0.424805,0.14209-0.424805,0.425293v2.290039
		c0,0.269043,0.141602,0.402832,0.424805,0.402832h4.043945C385.615234,73.754395,385.763672,73.620605,385.763672,73.351562"/>
	<path clip-path="url(#SVGID_2_)" fill="#FFFFFF" d="M386.362305,75.324219h-6.203125
		c-0.283203,0-0.423828,0.141602-0.423828,0.425781v0.766602v0.367188c0,0.861328,0.698242,1.558594,1.558594,1.558594h5.068359
		c0.295898,0,0.445312-0.134766,0.445312-0.402344V75.75C386.807617,75.46582,386.658203,75.324219,386.362305,75.324219"/>
	<path clip-path="url(#SVGID_2_)" fill="#FFFFFF" d="M386.362305,69.066895h-6.203125
		c-0.283203,0-0.423828-0.141113-0.423828-0.424805V67.875v-0.367188c0-0.86084,0.698242-1.558594,1.558594-1.558594h5.068359
		c0.295898,0,0.445312,0.134766,0.445312,0.402832v2.290039C386.807617,68.925781,386.658203,69.066895,386.362305,69.066895"/>
	<path clip-path="url(#SVGID_2_)" fill="#FFFFFF" d="M381.869141,67.507812h-6.203125
		c-0.283203,0-0.423828,0.141113-0.423828,0.425293v8.547363c0,0.268555,0.140625,0.40332,0.423828,0.40332h6.203125
		c0.295898,0,0.445312-0.134766,0.445312-0.40332v-8.547363C382.314453,67.648926,382.165039,67.507812,381.869141,67.507812"/>
	<path clip-path="url(#SVGID_2_)" fill="#FFFFFF" d="M373.432617,83.411133v-0.366211l-0.01416-6.004883l-0.001953,6.004883
		v0.366211c0,0.861328,0.697754,1.55957,1.559082,1.55957c0.00293,0,0.004883-0.001953,0.007812-0.001953
		C374.126465,84.964844,373.432617,84.269531,373.432617,83.411133"/>
	<path clip-path="url(#SVGID_2_)" fill="#FFFFFF" d="M376.535156,83.411133c0,0.858398-0.694336,1.553711-1.55127,1.557617
		c0.00293,0,0.004883,0.001953,0.008301,0.001953c0.860352,0,1.558594-0.698242,1.558594-1.55957v-0.366211l-0.001953-6.004883
		l-0.013672,6.004883V83.411133z"/>
	<path clip-path="url(#SVGID_2_)" fill="#FFFFFF" d="M375.983398,9.385254h-1.999512
		c-0.269043,0-0.533691,0.147949-0.533691,0.444824l-0.03125,67.209961l0.013184,6.003906v0.367188
		c0,0.859375,0.693848,1.552734,1.551758,1.557617c0.856934-0.004883,1.55127-0.698242,1.55127-1.557617v-0.367188
		l0.013672-6.003906l-0.03125-67.209961C376.517578,9.533203,376.251953,9.385254,375.983398,9.385254"/>
</g>
</svg>
