<?xml version="1.0" standalone="no"?>
<!DOCTYPE svg PUBLIC "-//W3C//DTD SVG 1.1//EN" "http://www.w3.org/Graphics/SVG/1.1/DTD/svg11.dtd" >
<svg xmlns="http://www.w3.org/2000/svg" xmlns:xlink="http://www.w3.org/1999/xlink" version="1.1">
<metadata>
Created by FontForge 20161013 at Fri Mar 24 19:59:20 2017
 By ,,,
Copyright (c) 2015 by Studio Kmzero. All rights reserved.
</metadata>
<defs>
<font id="coco-gothic-light" horiz-adv-x="0" >
  <font-face 
    font-family="Coco Gothic Light"
    font-weight="300"
    font-stretch="normal"
    units-per-em="2000"
    panose-1="2 0 5 3 2 0 0 2 0 3"
    ascent="1600"
    descent="-400"
    x-height="979"
    cap-height="1485"
    bbox="-940 -647 2518 2202"
    underline-thickness="100"
    underline-position="-300"
    unicode-range="U+0020-FB04"
  />
<missing-glyph horiz-adv-x="627" 
d="M844 250q-57 -48 -129 -77t-153 -29t-152 29t-128 77h562zM248 282q-50 57 -77 129t-27 153q0 77 24.5 143.5t69.5 122.5h556zM280 876q57 51 129 79.5t153 28.5t152.5 -29t125.5 -79h-560zM980 564q0 -77 -24.5 -144.5t-69.5 -123.5h-558l546 550q106 -131 106 -282z
M698 76q-66 -18 -136 -18q-108 0 -200.5 41t-160.5 110t-106.5 161t-38.5 194q0 108 41 201t110 161t161 107t194 39q109 0 202 -42t160.5 -112.5t105.5 -162t38 -191.5q0 -92 -29 -170.5t-79 -141.5t-117.5 -108t-144.5 -68zM684 1012q-54 18 -122 18q-101 0 -186 -38
t-146.5 -102t-96.5 -148.5t-35 -177.5q0 -94 35.5 -178.5t98 -149t147.5 -102.5t183 -38q96 0 181 36.5t148 100t100 148.5t37 183q0 85 -27.5 158.5t-74 131.5t-109.5 98t-133 60z" />
    <glyph glyph-name="ff" unicode="ff" horiz-adv-x="1236" 
d="M1151 983q17 0 28 -9.5t11 -30.5v-26q0 -20 -11 -31.5t-28 -11.5h-178v-837q0 -19 -12.5 -29t-29.5 -10h-37q-20 0 -29.5 11t-9.5 28v837h-124h-4h-371v-837q0 -19 -12.5 -29t-29.5 -10h-37q-20 0 -29.5 11t-9.5 28v837h-124q-40 0 -40 43v26q0 40 40 40h124v190
q0 75 21 133.5t61 99.5t97.5 62.5t129.5 21.5q20 0 30.5 -12t10.5 -31v-34q0 -17 -11.5 -28t-26.5 -11q-91 0 -142.5 -52.5t-51.5 -152.5v-186h369h6h124v190q0 75 21 133.5t61 99.5t97.5 62.5t129.5 21.5q20 0 30.5 -12t10.5 -31v-34q0 -17 -11.5 -28t-26.5 -11
q-91 0 -142.5 -52.5t-51.5 -152.5v-186h178z" />
    <glyph glyph-name="fi" unicode="fi" horiz-adv-x="1030" 
d="M769 874h-439v-837q0 -19 -12.5 -29t-29.5 -10h-37q-20 0 -29.5 11t-9.5 28v837h-124q-40 0 -40 43v26q0 40 40 40h124v190q0 75 21 133.5t61 99.5t97.5 62.5t129.5 21.5q20 0 30.5 -12t10.5 -31v-34q0 -17 -11.5 -28t-26.5 -11q-91 0 -142.5 -52.5t-51.5 -152.5v-186
h518q17 0 27 -10.5t10 -27.5v-909q0 -36 -37 -36h-41q-38 0 -38 36v838zM733 1265q0 19 7.5 36t20 30t29.5 20t36 7q39 0 66 -27t27 -66q0 -19 -7 -36t-20 -29.5t-30 -19.5t-36 -7t-36 7t-29.5 19.5t-20 29.5t-7.5 36z" />
    <glyph glyph-name="ffi" unicode="ffi" horiz-adv-x="1610" 
d="M1386 874h-258h-3h-178v-837q0 -19 -12.5 -29t-29.5 -10h-37q-20 0 -29.5 11t-9.5 28v837h-124h-4h-371v-837q0 -19 -12.5 -29t-29.5 -10h-37q-20 0 -29.5 11t-9.5 28v837h-124q-40 0 -40 43v26q0 40 40 40h124v190q0 75 21 133.5t61 99.5t97.5 62.5t129.5 21.5
q20 0 30.5 -12t10.5 -31v-34q0 -17 -11.5 -28t-26.5 -11q-91 0 -142.5 -52.5t-51.5 -152.5v-186h499v190q0 75 21 133.5t61 99.5t97.5 62.5t129.5 21.5q20 0 30.5 -12t10.5 -31v-34q0 -17 -11.5 -28t-26.5 -11q-91 0 -142.5 -52.5t-51.5 -152.5v-186h516q26 0 35 -21
q4 -7 4 -17v-28v-4v-877q0 -36 -37 -36h-41q-38 0 -38 36v838zM1350 1265q0 19 7.5 36t20 30t29.5 20t36 7q39 0 66 -27t27 -66q0 -19 -7 -36t-20 -29.5t-30 -19.5t-36 -7t-36 7t-29.5 19.5t-20 29.5t-7.5 36z" />
    <glyph glyph-name=".notdef" horiz-adv-x="627" 
d="M844 250q-57 -48 -129 -77t-153 -29t-152 29t-128 77h562zM248 282q-50 57 -77 129t-27 153q0 77 24.5 143.5t69.5 122.5h556zM280 876q57 51 129 79.5t153 28.5t152.5 -29t125.5 -79h-560zM980 564q0 -77 -24.5 -144.5t-69.5 -123.5h-558l546 550q106 -131 106 -282z
M698 76q-66 -18 -136 -18q-108 0 -200.5 41t-160.5 110t-106.5 161t-38.5 194q0 108 41 201t110 161t161 107t194 39q109 0 202 -42t160.5 -112.5t105.5 -162t38 -191.5q0 -92 -29 -170.5t-79 -141.5t-117.5 -108t-144.5 -68zM684 1012q-54 18 -122 18q-101 0 -186 -38
t-146.5 -102t-96.5 -148.5t-35 -177.5q0 -94 35.5 -178.5t98 -149t147.5 -102.5t183 -38q96 0 181 36.5t148 100t100 148.5t37 183q0 85 -27.5 158.5t-74 131.5t-109.5 98t-133 60z" />
    <glyph glyph-name=".null" 
 />
    <glyph glyph-name="nonmarkingreturn" horiz-adv-x="666" 
 />
    <glyph glyph-name="space" unicode=" " horiz-adv-x="626" 
 />
    <glyph glyph-name="exclam" unicode="!" horiz-adv-x="436" 
d="M161 1450q0 14 9 24.5t24 10.5h52q30 0 30 -35v-1020q0 -35 -27 -35h-62q-15 0 -20.5 9t-5.5 25v1021zM127 72q0 19 7 36t19.5 29.5t29.5 20t36 7.5q20 0 37 -7.5t29.5 -20t19.5 -29.5t7 -36t-7 -36t-19.5 -29.5t-29.5 -19.5t-37 -7q-19 0 -36 7t-29.5 19.5t-19.5 29.5
t-7 36z" />
    <glyph glyph-name="quotedbl" unicode="&#x22;" horiz-adv-x="832" 
d="M161 1448q0 37 37 37h42q36 0 36 -37v-318q0 -22 -10 -29.5t-27 -7.5h-41q-37 0 -37 37v318zM421 1448q0 37 36 37h42q36 0 36 -37v-318q0 -22 -10 -29.5t-27 -7.5h-41q-36 0 -36 37v318z" />
    <glyph glyph-name="numbersign" unicode="#" horiz-adv-x="1034" 
d="M330 551h273l31 395h-273zM673 1457q1 12 8.5 20t21.5 8h65q13 0 20.5 -7.5t6.5 -20.5l-31 -394h134q11 0 19 -7t7 -20l-6 -61q-1 -12 -8.5 -20.5t-19.5 -8.5h-134l-32 -395h135q11 0 18.5 -6.5t6.5 -20.5l-6 -59q0 -13 -8.5 -22t-19.5 -9h-135l-31 -406q-3 -28 -31 -28
h-64q-30 0 -27 28l32 406h-273l-31 -406q-2 -14 -9 -21t-24 -7h-62q-30 0 -27 28l31 406h-126q-31 0 -30 31l6 59q1 27 33 27h126l31 395h-126q-31 0 -30 29l6 61q2 27 32 27h126l32 394q1 12 8.5 20t21.5 8h63q13 0 21.5 -7.5t7.5 -20.5l-32 -394h273z" />
    <glyph glyph-name="dollar" unicode="$" horiz-adv-x="1282" 
d="M118 214q-10 12 -15.5 26.5t9.5 29.5l38 37q13 12 26.5 6t26.5 -20q37 -43 81.5 -79t98.5 -61.5t118.5 -39.5t141.5 -14q90 0 167.5 18t135 57t90.5 99.5t33 145.5q0 52 -20.5 91.5t-55 69t-79 50.5t-92.5 36.5t-96.5 26t-89.5 19.5q-125 26 -218 61.5t-155 84t-93 111
t-31 143.5q0 85 31 153.5t88.5 118t140 79.5t185.5 39v129q0 29 29 29h47q28 0 28 -29v-126q132 -3 240 -42.5t194 -131.5q11 -11 12 -25t-11 -28l-34 -36q-14 -15 -30 -7t-30 21q-37 31 -71 54.5t-73 39.5t-86.5 24.5t-111.5 10.5q-71 2 -145.5 -9.5t-135.5 -43.5
t-100 -86.5t-39 -137.5q0 -65 33.5 -111t89.5 -79t130 -55.5t154 -40.5q60 -14 122.5 -29.5t121 -36.5t110 -50t90 -69t60.5 -93.5t22 -123.5q0 -104 -39 -183.5t-107.5 -134.5t-162 -85t-202.5 -36v-139q0 -31 -29 -31h-47q-29 0 -29 31v140q-143 9 -257.5 66t-208.5 166z
" />
    <glyph glyph-name="percent" unicode="%" horiz-adv-x="1715" 
d="M99 1146q0 80 30 150.5t82.5 122.5t122.5 82t150 30t150 -30t122.5 -82t82.5 -122.5t30 -150.5t-30 -150t-82.5 -122.5t-122.5 -82.5t-150 -30t-150 30t-122.5 82.5t-82.5 122.5t-30 150zM187 1146q0 -63 23 -117t63 -94t94 -63t117 -23t116.5 23t93.5 63t62.5 94
t22.5 117t-22.5 116.5t-62.5 93.5t-93.5 62.5t-116.5 22.5t-117 -22.5t-94 -62.5t-63 -93.5t-23 -116.5zM848 367q0 80 30 150.5t82 122.5t122.5 82t150.5 30t150 -30t122.5 -82t82.5 -122.5t30 -150.5t-30 -150t-82.5 -122.5t-122.5 -82.5t-150 -30t-150.5 30t-122.5 82.5
t-82 122.5t-30 150zM936 367q0 -63 23 -117t62.5 -94t94 -63t117.5 -23t116.5 23t93 63t62 94t22.5 117t-22.5 117t-62 93.5t-93 62t-116.5 22.5t-117.5 -22.5t-94 -62t-62.5 -93.5t-23 -117zM1215 1451q12 20 22 27t33 7h48q23 0 26 -13t-9 -32l-877 -1409
q-9 -14 -16.5 -22.5t-25.5 -8.5h-57q-20 0 -23.5 11t8.5 31z" />
    <glyph glyph-name="ampersand" unicode="&#x26;" horiz-adv-x="1676" 
d="M640 547q60 32 128 45t140 -7l328 -89q42 -12 83.5 -6.5t77.5 26.5t64.5 54.5t43.5 76.5q7 17 18 26.5t30 1.5l44 -18q20 -8 19.5 -20t-6.5 -33q-20 -63 -61.5 -112t-96 -79t-119 -38.5t-130.5 9.5l-103 27q-9 -90 -51.5 -169.5t-108.5 -139t-151 -94t-178 -34.5
q-100 0 -187.5 34t-153 94.5t-103 144.5t-37.5 184q0 69 18.5 131.5t52.5 115t82.5 94.5t107.5 71q-71 45 -113.5 118t-42.5 168q0 78 30 143t81.5 112t119.5 73t145 26t145 -26t119 -73t80.5 -112t29.5 -143q0 -19 -5 -31.5t-26 -12.5h-48q-24 0 -29.5 12t-5.5 32
q0 56 -19.5 101t-54 77t-82.5 49t-104 17t-104 -17t-83.5 -49t-56 -77t-20.5 -101t19.5 -98.5t53.5 -72.5t80 -46t100 -19h11q19 0 31.5 -6t12.5 -26v-42q0 -25 -12 -30.5t-32 -5.5q-77 0 -144 -26t-117 -72.5t-79 -111t-29 -140.5q0 -77 29 -140.5t79 -109t117 -71
t144 -25.5q73 0 140 28t118.5 77t83.5 113.5t35 138.5l-110 29q-30 8 -54 9t-45.5 -2.5t-41 -11.5t-38.5 -18q-18 -11 -35 -12t-28 17l-21 38q-8 13 -1 28.5t26 25.5z" />
    <glyph glyph-name="quotesingle" unicode="'" horiz-adv-x="528" 
d="M162 1448q0 36 37 36h42q36 0 36 -36v-318q0 -23 -10 -30.5t-27 -7.5h-41q-37 0 -37 38v318z" />
    <glyph glyph-name="parenleft" unicode="(" horiz-adv-x="497" 
d="M114 747q0 151 23 291t62.5 265t91 233t108.5 196q9 13 20.5 14.5t22.5 -6.5l44 -35q12 -10 12 -20.5t-6 -18.5q-51 -78 -98 -182t-84 -223t-59 -250t-22 -263q0 -147 22 -282.5t58.5 -254.5t83.5 -220.5t98 -179.5q6 -8 6.5 -19.5t-12.5 -20.5l-45 -32
q-11 -7 -22.5 -6.5t-20.5 14.5q-54 89 -105 194t-90.5 228.5t-63.5 267t-24 310.5z" />
    <glyph glyph-name="parenright" unicode=")" horiz-adv-x="497" 
d="M398 747q0 -167 -24 -310.5t-63.5 -267t-90.5 -228.5t-105 -194q-9 -14 -20.5 -14.5t-22.5 6.5l-45 32q-13 9 -12.5 20.5t6.5 19.5q51 78 98 179.5t83.5 220.5t58.5 254.5t22 282.5q0 132 -22 263t-59 250t-84 223t-98 182q-6 8 -6 18.5t12 20.5l44 35q11 8 22.5 6.5
t20.5 -14.5q57 -88 108.5 -196t91 -233t62.5 -265t23 -291z" />
    <glyph glyph-name="asterisk" unicode="*" horiz-adv-x="982" 
d="M126 720q0 14 9.5 21.5t23.5 7.5l254 -7l-126 203q-7 11 -5.5 23t15.5 20l38 21q13 8 23.5 4t18.5 -17l106 -196l107 198q15 26 41 11l38 -21q11 -6 13.5 -18t-3.5 -23l-131 -208l253 9q13 1 22 -6.5t9 -22.5l-1 -44q0 -13 -9 -21.5t-22 -7.5l-240 10l137 -222
q6 -10 4 -21t-15 -19l-38 -22q-11 -5 -22.5 -2t-17.5 14l-124 238l-131 -241q-6 -11 -17 -16t-25 4l-37 22q-14 7 -16 19t5 23l137 221l-242 -8q-13 -1 -22.5 6t-9.5 24v44z" />
    <glyph glyph-name="plus" unicode="+" horiz-adv-x="900" 
d="M412 268q-14 0 -21.5 10t-7.5 24v275h-267q-13 0 -22.5 6t-9.5 22v60q0 14 9.5 21.5t23.5 7.5h266v264q0 13 7.5 21.5t22.5 8.5h58q11 0 20 -8.5t9 -22.5v-263h273q13 0 22 -7.5t9 -22.5v-60q0 -11 -9.5 -19t-22.5 -8h-272v-275q0 -14 -7 -24t-23 -10h-58z" />
    <glyph glyph-name="comma" unicode="," horiz-adv-x="528" 
d="M128 70q0 41 28 68.5t68 27.5q48 0 72.5 -32t24.5 -82q0 -51 -8.5 -86.5t-19.5 -59t-22 -36.5t-16 -18q-7 -7 -16 -11t-19 4l-31 25q-5 4 -6 9t0 9.5t3.5 8t3.5 5.5q8 15 17.5 28.5t9.5 32.5v11q-37 6 -63 32t-26 64z" />
    <glyph glyph-name="hyphen" unicode="-" horiz-adv-x="1034" 
d="M838 608q17 0 27.5 -9t10.5 -27v-42q0 -17 -10.5 -27t-27.5 -10h-640q-38 0 -38 37v42q0 36 38 36h640z" />
    <glyph glyph-name="period" unicode="." horiz-adv-x="528" 
d="M122 72q0 19 7 36t19.5 29.5t29.5 20t36 7.5q20 0 37 -7.5t29.5 -20t19.5 -29.5t7 -36t-7 -36t-19.5 -29.5t-29.5 -20t-37 -7.5q-19 0 -36 7.5t-29.5 20t-19.5 29.5t-7 36z" />
    <glyph glyph-name="slash" unicode="/" horiz-adv-x="836" 
d="M189 24q-6 -15 -14.5 -19.5t-16.5 -4.5h-57q-13 0 -24 9t-3 32l547 1419q6 16 14.5 20.5t16.5 4.5h66q7 0 13.5 -2.5t10.5 -8t5.5 -13t-2.5 -17.5z" />
    <glyph glyph-name="zero" unicode="0" horiz-adv-x="1706" 
d="M88 741q0 105 27 202.5t76.5 182.5t118.5 154.5t153.5 119.5t182 77.5t202.5 27.5t202.5 -27.5t182.5 -77.5t155 -119.5t120 -154.5t77.5 -182.5t27.5 -202.5t-27.5 -202.5t-77.5 -182t-120 -154t-155 -119.5t-182.5 -77t-202.5 -27t-202.5 27t-182 77t-153.5 119.5
t-118.5 154t-76.5 182t-27 202.5zM198 731q0 -135 51.5 -252.5t140.5 -203.5t208 -135.5t254 -49.5q90 0 173.5 24.5t156 68t131.5 103.5t101 131t65 151t23 163q0 95 -23 181t-65 159t-101 132.5t-131.5 101t-156 64t-173.5 22.5t-173.5 -23.5t-156 -67t-132.5 -103.5
t-102.5 -133.5t-66 -157.5t-23.5 -175z" />
    <glyph glyph-name="one" unicode="1" horiz-adv-x="482" 
d="M311 1485q26 0 26 -29v-1422q0 -15 -7.5 -24.5t-24.5 -9.5h-52q-16 0 -23.5 10t-7.5 24v1320l-144 -61q-14 -6 -27.5 -2t-13.5 22l-1 50q0 17 7.5 25t16.5 13l155 71q28 13 47 13h49z" />
    <glyph glyph-name="two" unicode="2" horiz-adv-x="1232" 
d="M156 1226q30 61 75 110t101.5 84t122.5 54t139 19q100 0 188 -30.5t153 -87.5t103 -137.5t38 -180.5q0 -91 -31 -170t-90 -135l-666 -637h797q18 0 28.5 -6.5t10.5 -27.5v-48q0 -18 -9.5 -25.5t-29.5 -7.5h-925q-15 0 -26 8.5t-11 28.5v45q0 6 4 16.5t14 19.5l690 664
q75 72 107.5 136t32.5 137q0 77 -30 138t-82 104t-120.5 65.5t-145.5 22.5q-56 0 -108 -15.5t-96 -43t-78 -66.5t-55 -85q-7 -15 -18.5 -21.5t-25.5 0.5l-49 25q-25 13 -8 47z" />
    <glyph glyph-name="three" unicode="3" horiz-adv-x="1066" 
d="M171 1224q15 58 49 106.5t82 83.5t107.5 54t124.5 19q77 0 145.5 -26t120 -72.5t81.5 -112t30 -143.5q0 -95 -42.5 -168t-114.5 -118q60 -29 108 -71t82.5 -94.5t53 -115t18.5 -131.5q0 -100 -38 -184t-103 -144.5t-153 -94.5t-188 -34q-83 0 -157 23.5t-134.5 66.5
t-104.5 103t-65 133q-5 16 0.5 30t24.5 18l39 9q16 5 29 -2t18 -24q15 -56 48.5 -101t79.5 -76.5t102.5 -48.5t119.5 -17q77 0 144.5 25t117.5 71t79 109t29 140q0 76 -29 140.5t-79 111t-117.5 72.5t-144.5 26q-20 0 -32 5t-12 23v53q0 19 13 24t31 5h11q54 3 100 19t80 46
t53.5 72.5t19.5 98.5t-20 101t-55.5 77t-84 49t-104.5 17q-48 0 -90.5 -13t-75.5 -37t-55.5 -58.5t-31.5 -77.5q-8 -35 -43 -27l-50 12q-18 5 -20 17.5t3 30.5z" />
    <glyph glyph-name="four" unicode="4" horiz-adv-x="1242" 
d="M155 272q-14 0 -24 6.5t-15 16.5t-4.5 22.5t8.5 24.5l755 1115q8 11 16 19.5t23 8.5h45q15 0 21 -9.5t6 -21.5l-2 -1072h119q35 0 35 -30v-43q0 -15 -8 -25.5t-28 -10.5h-118v-239q0 -13 -7 -23.5t-22 -10.5h-55q-18 0 -23 9.5t-5 24.5v238h-717zM873 385v851l-585 -851
h585z" />
    <glyph glyph-name="five" unicode="5" horiz-adv-x="1144" 
d="M168 364q16 8 27.5 0.5t19.5 -24.5q37 -78 84.5 -126.5t99.5 -76t105 -37.5t101 -10q94 0 166.5 36.5t122 93.5t75.5 127t26 138t-29 140t-81.5 131.5t-124.5 98t-157 38.5q-81 0 -147 -26.5t-126 -72.5q-20 -15 -35 -34t-27 -35t-23 -27t-23 -11h-42q-14 0 -25 8.5
t-9 28.5l60 728q1 16 10.5 24.5t24.5 8.5h698q21 0 30 -9t9 -25v-44q0 -34 -37 -34h-621l-52 -483q64 57 154 84.5t187 27.5q75 0 140.5 -20.5t120 -56.5t97.5 -85t73 -106t45.5 -119t16.5 -124q1 -103 -37.5 -195.5t-106 -163t-160 -112t-200.5 -41.5q-87 0 -161.5 22.5
t-135.5 64t-107.5 99.5t-76.5 129q-1 2 -3 8t-2 12.5t3 14t12 12.5z" />
    <glyph glyph-name="six" unicode="6" horiz-adv-x="1198" 
d="M578 1467q5 8 11.5 13t16.5 6h66q19 2 28 -9.5t-2 -29.5l-275 -475q45 23 95 28.5t109 6.5q99 0 188 -39t156.5 -105.5t107 -155t39.5 -188.5q0 -107 -38 -204t-104 -171t-156 -117.5t-195 -43.5q-108 0 -201.5 34t-164.5 96t-114.5 150t-50.5 195q-5 75 7.5 144
t50.5 134zM205 464q6 -82 44 -152t98 -120.5t136 -76.5t158 -21q81 5 148.5 40t116 91.5t75.5 129.5t27 154q0 83 -35 156t-93 126t-133.5 82t-156.5 24q-82 -5 -154 -42.5t-125 -97t-82 -135.5t-24 -158z" />
    <glyph glyph-name="seven" unicode="7" horiz-adv-x="1148" 
d="M1022 1483q15 0 23.5 -6t12 -15.5t2 -21.5t-8.5 -23l-723 -1397q-5 -10 -14 -15t-17 -5h-56q-21 0 -26.5 16.5t2.5 30.5l679 1326h-782q-16 0 -26 8t-10 25v46q0 15 9.5 23t26.5 8h908z" />
    <glyph glyph-name="eight" unicode="8" horiz-adv-x="1108" 
d="M171 1139q0 75 28.5 140.5t77.5 115t114.5 78t140.5 28.5t141 -28.5t115 -78t77.5 -115t28.5 -140.5q0 -95 -44.5 -174.5t-118.5 -128.5q56 -27 102.5 -69t80 -94.5t52 -114t18.5 -128.5q0 -93 -35.5 -175.5t-97 -143.5t-144 -96.5t-176.5 -35.5q-93 0 -175 35.5
t-143.5 96.5t-97 143.5t-35.5 175.5q0 67 18.5 128.5t52 114t80 94.5t102.5 70q-73 49 -117.5 128t-44.5 174zM188 432q0 -70 27.5 -132.5t74 -109t109 -74t132.5 -27.5t132.5 27.5t110 74t75 109t27.5 132.5t-27.5 132.5t-75 110t-110 75t-132.5 27.5t-132.5 -27.5
t-109 -75t-74 -110t-27.5 -132.5zM281 1137q0 -54 19 -100t52.5 -80.5t79 -54t98.5 -19.5q54 0 101 19.5t82 54t55 80.5t20 100q0 53 -20 100t-55 81.5t-82 54.5t-101 20q-53 0 -98.5 -20t-79 -54.5t-52.5 -81.5t-19 -100z" />
    <glyph glyph-name="nine" unicode="9" horiz-adv-x="1196" 
d="M627 18q-5 -8 -11 -13.5t-17 -6.5h-65q-19 -2 -28 10t2 29l275 475q-46 -23 -95.5 -28.5t-108.5 -6.5q-99 0 -188 39t-156.5 105.5t-107 155t-39.5 189.5q0 71 17 138t48.5 126.5t76 109.5t99.5 85.5t118.5 55.5t133.5 20q108 0 201 -34t163 -96.5t113 -150t50 -194.5
q5 -75 -11 -152.5t-60 -152.5zM996 1021q-5 82 -42.5 152t-96.5 120t-134.5 76.5t-157.5 21.5q-81 -5 -149 -40.5t-116.5 -91.5t-75.5 -129.5t-27 -154.5q0 -83 35 -156t93 -126t134 -82t157 -24q82 5 153.5 42.5t123.5 97t80 135.5t23 159z" />
    <glyph glyph-name="colon" unicode=":" horiz-adv-x="436" 
d="M120 71q0 19 7.5 36t20 29.5t29.5 20t36 7.5t36 -7.5t30 -20t20 -29.5t7 -36t-7 -36t-20 -29.5t-30 -20t-36 -7.5t-36 7.5t-29.5 20t-20 29.5t-7.5 36zM120 903q0 19 7.5 36t20 29.5t29.5 20t36 7.5t36 -7.5t30 -20t20 -29.5t7 -36t-7 -36t-20 -29.5t-30 -20t-36 -7.5
t-36 7.5t-29.5 20t-20 29.5t-7.5 36z" />
    <glyph glyph-name="semicolon" unicode=";" horiz-adv-x="441" 
d="M117 903q0 19 7.5 36t20 29.5t29.5 20t36 7.5t36 -7.5t30 -20t20 -29.5t7 -36t-7 -36t-20 -29.5t-30 -20t-36 -7.5t-36 7.5t-29.5 20t-20 29.5t-7.5 36zM116 70q0 41 28 68.5t68 27.5q48 0 72.5 -32t24.5 -82q0 -51 -8.5 -86.5t-19.5 -59t-22 -36.5t-16 -18
q-7 -7 -16 -11t-19 4l-31 25q-5 4 -6 9t0 9.5t3.5 8t3.5 5.5q8 15 17.5 28.5t9.5 32.5v11q-37 6 -63 32t-26 64z" />
    <glyph glyph-name="less" unicode="&#x3c;" horiz-adv-x="838" 
d="M107 553q0 6 10 16l452 453q9 9 21 12t23 -7l51 -44q10 -8 8 -20t-13 -22l-385 -388l385 -387q11 -11 13 -23t-8 -20l-51 -44q-11 -9 -23 -6.5t-21 11.5l-452 453q-6 6 -8 9t-2 7z" />
    <glyph glyph-name="equal" unicode="=" horiz-adv-x="1034" 
d="M178 387q-16 0 -24 9t-8 23v60q0 17 9 25t23 8h649q15 0 24 -8.5t9 -22.5v-61q0 -14 -8.5 -23.5t-24.5 -9.5h-649zM178 676q-16 0 -24 8.5t-8 22.5v61q0 17 9 25t23 8h649q15 0 24 -8.5t9 -22.5v-62q0 -13 -8.5 -22.5t-24.5 -9.5h-649z" />
    <glyph glyph-name="greater" unicode="&#x3e;" horiz-adv-x="838" 
d="M716 553q0 -4 -2 -7t-8 -9l-452 -453q-9 -9 -21 -11.5t-23 6.5l-51 44q-10 8 -8 20t13 23l385 387l-385 388q-11 10 -13 22t8 20l51 44q11 10 23 7t21 -12l452 -453q10 -10 10 -16z" />
    <glyph glyph-name="question" unicode="?" horiz-adv-x="1148" 
d="M592 336q0 -19 -10 -27.5t-23 -8.5h-62q-11 0 -19.5 9t-8.5 27v210q0 51 29.5 97.5t69.5 86t82 69t67 46.5q46 29 84 60.5t65 69.5t41.5 85t14.5 108q0 71 -31.5 127t-83 94.5t-117 59t-133.5 20.5q-78 0 -146 -28.5t-118.5 -77t-79.5 -114t-29 -140.5q0 -15 -5 -22.5
t-22 -7.5h-65q-11 0 -17.5 8t-6.5 21q0 104 38.5 191.5t104.5 150.5t155.5 98.5t191.5 35.5q103 0 190.5 -34.5t151 -92t99 -133t35.5 -156.5q0 -73 -13.5 -129.5t-41.5 -102.5t-70 -84t-99 -74q-35 -21 -73.5 -48t-70.5 -59.5t-53 -70.5t-21 -83v-181zM436 72q0 19 7 36
t19.5 29.5t29.5 20t36 7.5q20 0 37 -7.5t29.5 -20t19.5 -29.5t7 -36t-7 -36t-19.5 -29.5t-29.5 -20t-37 -7.5q-19 0 -36 7.5t-29.5 20t-19.5 29.5t-7 36z" />
    <glyph glyph-name="at" unicode="@" horiz-adv-x="1896" 
d="M1392 325q0 -75 27 -110t92 -35q41 0 78 23.5t65.5 70.5t45 119t16.5 169q0 96 -21.5 187t-63.5 171.5t-104 148.5t-143 116.5t-179.5 76t-214.5 27.5q-98 0 -192.5 -28t-179 -79t-156 -123.5t-123.5 -162.5t-81.5 -194t-29.5 -219q0 -116 32.5 -219.5t89 -191.5
t134 -158.5t166.5 -119.5t186 -75.5t194 -26.5q110 0 208 26.5t183 99.5q14 11 26 11.5t20 -6.5l30 -36q9 -8 9.5 -19.5t-10.5 -22.5q-46 -42 -100.5 -73t-114 -51.5t-121 -30.5t-122.5 -10q-124 0 -241 31.5t-219.5 89t-188.5 139t-147.5 181.5t-95.5 217t-34 245
q0 124 31.5 240.5t88.5 218.5t137 186t177.5 144.5t209.5 94t234 33.5q186 0 339.5 -61t264 -172t171 -266.5t60.5 -343.5q0 -16 -3 -57.5t-14 -94.5t-32 -111t-58 -106t-91.5 -79t-131.5 -31q-37 0 -72 11t-62.5 32t-44.5 51.5t-17 70.5v11q-26 -50 -62 -90.5t-80.5 -69.5
t-96.5 -44.5t-110 -15.5q-90 0 -168 36t-135.5 98t-90 143.5t-32.5 173.5t33.5 175t91.5 145.5t135.5 99.5t165.5 37q58 0 111 -16.5t97.5 -46.5t80.5 -71.5t61 -91.5v208q3 28 28 28h35q11 0 20 -7.5t9 -20.5v-599zM1268 483q0 73 -24.5 136.5t-67 110.5t-99.5 73.5
t-123 26.5t-123.5 -26t-100 -72.5t-67.5 -110t-25 -138.5q0 -74 26 -135.5t70 -105.5t101 -69t119 -25q70 0 127.5 25t99 70t64.5 106.5t23 133.5z" />
    <glyph glyph-name="A" unicode="A" horiz-adv-x="1432" 
d="M1353 43q10 -23 -1 -34t-25 -11h-60q-8 0 -16.5 5.5t-14.5 21.5l-142 346h-765l-142 -345q-7 -16 -14.5 -22t-15.5 -6h-62q-14 0 -24 11t-1 33l593 1417q6 15 15.5 20.5t18.5 5.5h38q9 0 18 -5.5t15 -20.5zM376 485h671l-334 813z" />
    <glyph glyph-name="B" unicode="B" horiz-adv-x="1356" 
d="M782 1485q82 0 153.5 -28.5t124.5 -79.5t83.5 -120.5t30.5 -151.5q0 -101 -47 -183t-125 -133q54 -22 99.5 -61t79 -89t52 -109t18.5 -121q0 -81 -30.5 -154.5t-83 -129.5t-124.5 -90t-154 -35h-666q-14 0 -22.5 8t-8.5 21v1418q0 17 7.5 27.5t25.5 10.5h587zM1135 408
q0 58 -23 113t-61.5 98t-90 68.5t-108.5 25.5h-575v-598h582q57 0 107 23.5t87.5 63.5t59.5 93.5t22 112.5zM1059 1104q0 59 -21.5 108t-59 84.5t-88 55t-109.5 19.5h-504v-545h504q58 0 109 21.5t88.5 59t59 88t21.5 109.5z" />
    <glyph glyph-name="C" unicode="C" horiz-adv-x="1410" 
d="M1250 234q13 9 27.5 10.5t22.5 -11.5l30 -46q10 -15 6 -24.5t-17 -20.5q-93 -77 -210 -120t-254 -43q-105 0 -203 27t-183.5 77t-155.5 119.5t-120 154.5t-77.5 183t-27.5 204t27.5 203.5t77.5 182t120 154t155.5 118.5t183 76t203.5 27q137 0 255 -45t213 -120
q10 -8 13.5 -15t3.5 -13.5t-1.5 -11t-2.5 -5.5l-33 -45q-4 -5 -17.5 -10t-31.5 9q-83 64 -182 103.5t-213 39.5q-89 0 -172 -23.5t-155.5 -66t-132 -101.5t-102.5 -131t-66.5 -154.5t-23.5 -171.5t23.5 -172t66 -155.5t101.5 -132.5t131 -103t154.5 -67t171.5 -24
q56 0 110 11t104 30t95.5 45.5t85.5 57.5z" />
    <glyph glyph-name="D" unicode="D" horiz-adv-x="1490" 
d="M162 1447q0 17 8.5 27.5t24.5 10.5h471q155 0 290 -58t235.5 -159t158 -236.5t57.5 -290.5q0 -103 -26.5 -198t-75.5 -177.5t-117 -149.5t-151.5 -115t-179 -74.5t-198.5 -26.5h-464q-18 0 -25.5 8.5t-7.5 25.5v1413zM665 113q88 0 169 23t151 65t127 100.5t97 129
t62 150.5t22 166q0 135 -50.5 249.5t-137.5 197.5t-202 130t-244 47h-382v-1258h388z" />
    <glyph glyph-name="E" unicode="E" horiz-adv-x="1284" 
d="M162 1453q0 32 32 32h972q15 0 25 -6t10 -22v-55q0 -17 -10 -24t-25 -7h-889v-537h714q17 0 27.5 -7.5t10.5 -24.5v-51q0 -17 -10.5 -25t-27.5 -8h-714v-603h903q16 0 25 -7.5t9 -18.5v-61q0 -28 -34 -28h-986q-32 0 -32 32v1421z" />
    <glyph glyph-name="F" unicode="F" horiz-adv-x="1254" 
d="M162 1453q0 32 31 32h970q29 0 29 -32v-49q0 -33 -29 -33h-889v-602h713q30 0 30 -32v-54q0 -17 -7.5 -23t-22.5 -6h-713v-622q0 -32 -31 -32h-50q-31 0 -31 32v1421z" />
    <glyph glyph-name="G" unicode="G" horiz-adv-x="1452" 
d="M852 96q51 0 103.5 9.5t101 26t91.5 39t75 48.5v403q0 16 8 25.5t25 9.5h53q31 0 31 -35v-438q0 -11 -3.5 -20t-12.5 -16q-94 -73 -214 -119.5t-256 -46.5q-108 0 -207 27t-184 76t-154.5 118.5t-118.5 154.5t-75.5 182t-26.5 203t27.5 203.5t77 181.5t119.5 153.5
t155 118.5t182.5 76t203.5 27q137 0 252.5 -44t212.5 -122q10 -8 13.5 -15t3.5 -13t-2 -10.5t-4 -6.5l-33 -44q-2 -2 -6 -5.5t-10.5 -5t-14.5 -0.5t-17 8q-83 61 -182 101t-212 40q-90 0 -173 -23t-155 -64.5t-131.5 -100.5t-102 -130.5t-65.5 -153.5t-23 -171
q0 -133 51 -250.5t139.5 -206t206 -139.5t251.5 -51z" />
    <glyph glyph-name="H" unicode="H" horiz-adv-x="1546" 
d="M1253 703h-976v-668q0 -16 -7 -25.5t-24 -9.5h-52q-16 0 -24 9.5t-8 25.5v1414q0 15 8 25.5t24 10.5h53q30 0 30 -35v-634h976v633q0 15 7 25.5t24 10.5h53q31 0 31 -35v-1415q0 -16 -8 -25.5t-25 -9.5h-51q-17 0 -24 9.5t-7 25.5v668z" />
    <glyph glyph-name="I" unicode="I" horiz-adv-x="436" 
d="M161 1449q0 36 37 36h41q18 0 27.5 -9.5t9.5 -26.5v-1413q0 -36 -37 -36h-41q-37 0 -37 36v1413z" />
    <glyph glyph-name="J" unicode="J" horiz-adv-x="800" 
d="M513 1450q0 17 8 26.5t22 9.5h52q17 0 24.5 -10.5t7.5 -27.5v-981v-79.5t-2 -78.5q-3 -69 -28.5 -128.5t-69 -103.5t-103.5 -69t-134 -25q-69 0 -133 23t-114 72l-10.5 10.5t-10.5 15t-4.5 17t7.5 16.5l41 42q14 13 27 6.5t22 -15.5q10 -10 26.5 -22.5t38.5 -24t48 -19.5
t55 -8q55 0 98 20.5t72 54t44.5 76t15.5 86.5v1117z" />
    <glyph glyph-name="K" unicode="K" horiz-adv-x="1468" 
d="M687 869l696 -824q13 -15 4.5 -30t-25.5 -15h-82q-8 0 -18 5t-21 19l-631 763l-328 -348v-404q0 -16 -6.5 -25.5t-23.5 -9.5h-54q-17 0 -24.5 9.5t-7.5 25.5v1415q0 15 8 25t24 10h53q14 0 22.5 -9.5t8.5 -25.5v-842l804 855q14 14 23.5 18t17.5 4h79q9 0 15.5 -4.5
t9.5 -11.5t1.5 -15.5t-7.5 -15.5z" />
    <glyph glyph-name="L" unicode="L" horiz-adv-x="1148" 
d="M162 1450q0 16 8 25.5t23 9.5h53q17 0 24 -9.5t7 -25.5v-1336h794q16 0 26 -6.5t10 -23.5v-51q0 -17 -10 -25t-26 -8h-878q-31 0 -31 32v1418z" />
    <glyph glyph-name="M" unicode="M" horiz-adv-x="1766" 
d="M334 1272l-110 -1240q-2 -17 -9 -24.5t-24 -7.5h-62q-17 0 -21 10t-2 26l137 1419q2 13 10.5 21.5t25.5 8.5h68q14 0 24 -21l527 -1179l521 1175q6 14 13.5 19.5t14.5 5.5h73q31 0 34 -30l135 -1421q3 -34 -29 -34h-53q-31 0 -34 30l-113 1238l-506 -1137
q-6 -13 -14 -16.5t-14 -3.5h-56q-6 0 -15 4t-14 16z" />
    <glyph glyph-name="N" unicode="N" horiz-adv-x="1542" 
d="M1287 1452q0 34 33 34h48q34 0 34 -32v-1425q0 -15 -9 -22t-23 -7h-52q-11 0 -20.5 6t-15.5 14l-1005 1273v-1257q0 -36 -37 -36h-42q-36 0 -36 36v1413q0 16 8 26t25 10h63q11 0 19 -10l1010 -1269v1246z" />
    <glyph glyph-name="O" unicode="O" horiz-adv-x="1706" 
d="M88 741q0 105 27 202.5t76.5 182t119 154.5t154.5 119.5t182 77t203 27.5q104 0 201.5 -27.5t182 -77t154 -119t119 -154.5t77 -183t27.5 -203t-27.5 -202t-77 -181.5t-119 -153.5t-154 -118.5t-182 -76.5t-202.5 -27t-202.5 27t-182 76.5t-154 119t-119 154t-76.5 181.5
t-27 202zM205 742q0 -134 50.5 -251t138 -204.5t205 -138t251.5 -50.5q88 0 170.5 23t154 65t130.5 100.5t101 130t65 154t23 171.5q0 133 -51 250t-138.5 204.5t-204.5 138.5t-250 51q-89 0 -171.5 -23t-154.5 -65t-130.5 -101t-100.5 -130.5t-65 -154t-23 -170.5z" />
    <glyph glyph-name="P" unicode="P" horiz-adv-x="1212" 
d="M162 1444q0 20 8 30.5t28 10.5h484q96 0 180 -36.5t146.5 -99t99 -146.5t36.5 -180t-36.5 -180t-99 -146.5t-146 -99t-178.5 -36.5h-407v-527q0 -17 -6 -25.5t-24 -8.5h-52q-22 0 -27.5 8.5t-5.5 25.5v1410zM1031 1023q0 73 -27.5 137t-74.5 112t-111 75.5t-136 27.5
h-405v-704h405q72 0 136 27.5t111 75.5t74.5 112t27.5 137z" />
    <glyph glyph-name="Q" unicode="Q" horiz-adv-x="1706" 
d="M88 741q0 105 27 202.5t76.5 182t119 154.5t154 119.5t182 77t202.5 27.5t202 -27.5t181.5 -77t154.5 -119t119.5 -154.5t77 -183t27.5 -203q0 -100 -25 -193t-70.5 -174.5t-109.5 -149.5t-142 -118.5t-168.5 -81.5t-188.5 -38v-233q0 -37 -38 -37h-41q-36 0 -36 38v232
q-148 10 -276.5 73t-223.5 164.5t-149.5 234.5t-54.5 284zM205 742q0 -134 50.5 -251t138 -204.5t204.5 -138t251 -50.5q133 0 250.5 50.5t205 138t138 204.5t50.5 251q0 88 -23 170.5t-65 154t-101 130.5t-130.5 101t-153.5 65t-171 23t-171.5 -23t-154 -65t-130 -101
t-100.5 -130.5t-65 -154t-23 -170.5z" />
    <glyph glyph-name="R" unicode="R" horiz-adv-x="1342" 
d="M770 1485q97 0 181.5 -37t147 -100t98.5 -148t36 -181q0 -71 -20 -136t-56.5 -120t-87 -98.5t-111.5 -70.5l253 -555q7 -14 1.5 -26.5t-23.5 -12.5h-70q-18 0 -26 19l-246 545q-20 -5 -40.5 -7.5t-46.5 -2.5h-487v-518q0 -36 -36 -36h-43q-36 0 -36 36v1414q0 19 10 27
t26 8h576zM737 669q75 0 144 24t121.5 69t84 110t31.5 147q0 72 -27 136t-74.5 112t-111.5 76t-138 28h-494v-702h464z" />
    <glyph glyph-name="S" unicode="S" horiz-adv-x="1282" 
d="M118 214q-11 12 -16 26.5t10 29.5l40 34q14 11 27 5.5t26 -19.5q37 -43 81.5 -79.5t98 -63t117.5 -41.5t141 -15q82 0 160 19.5t138.5 59.5t97 102t36.5 147q0 52 -21 91.5t-56 70t-80.5 52t-94 37t-97.5 26.5t-90 19q-125 27 -219 62.5t-157.5 83t-95.5 109t-32 142.5
q0 90 36 162t103 123t163.5 78.5t217.5 27.5q140 0 259.5 -47t210.5 -135q11 -11 12 -25.5t-11 -27.5l-34 -37q-17 -11 -31.5 -5t-29.5 20q-37 31 -74 56.5t-80 44t-93.5 29.5t-114.5 13q-71 2 -145 -10.5t-134 -44.5t-98.5 -87.5t-38.5 -138.5q0 -65 36 -111.5t95.5 -79.5
t136 -55.5t156.5 -39.5q60 -14 122 -29.5t119 -37t107.5 -50t87.5 -68.5t58.5 -93.5t21.5 -123.5q0 -110 -45 -192.5t-121 -137.5t-175 -82.5t-207 -27.5q-161 0 -291 56.5t-233 177.5z" />
    <glyph glyph-name="T" unicode="T" horiz-adv-x="1222" 
d="M1125 1485q17 0 28.5 -9t11.5 -27v-44q0 -36 -40 -36h-464v-1332q0 -37 -37 -37h-41q-37 0 -37 37v1332h-468q-36 0 -36 39v41q0 17 9.5 26.5t26.5 9.5h1047z" />
    <glyph glyph-name="U" unicode="U" horiz-adv-x="1504" 
d="M256 595q0 -106 36.5 -198.5t102 -160.5t156 -107.5t198.5 -39.5q110 0 201 39.5t156 108t101 160.5t36 198v854q0 16 10 26t28 10h38q17 0 28 -9.5t11 -26.5v-869q0 -131 -48 -241.5t-130.5 -191t-193.5 -126t-237 -45.5q-84 0 -162 21.5t-145.5 61.5t-123 95.5t-95 123
t-61.5 145.5t-22 162v864q0 14 9 25t26 11h44q14 0 25.5 -10t11.5 -26v-854z" />
    <glyph glyph-name="V" unicode="V" horiz-adv-x="1347" 
d="M730 26q-6 -15 -15 -20.5t-18 -5.5h-38q-9 0 -18.5 5.5t-15.5 20.5l-588 1415q-9 22 1 33t24 11h62q8 0 15.5 -6t14.5 -22l526 -1272l523 1273q6 16 14.5 21.5t16.5 5.5h60q14 0 24.5 -11t1.5 -34z" />
    <glyph glyph-name="W" unicode="W" horiz-adv-x="2047" 
d="M1033 740l-298 -714q-6 -16 -15.5 -21t-17.5 -5h-42q-8 0 -17.5 5t-15.5 21l-589 1419q-8 20 2.5 30.5t23.5 10.5h62q8 0 16 -5t14 -21l532 -1281l523 1281q7 17 15.5 21.5t16.5 4.5h62q14 0 21.5 -10.5t-0.5 -30.5l-232 -560l299 -710l526 1285q6 17 14 21.5t16 4.5h58
q14 0 24.5 -11t2.5 -30l-591 -1419q-7 -16 -16.5 -21t-17.5 -5h-42q-8 0 -17.5 5t-16.5 21z" />
    <glyph glyph-name="X" unicode="X" horiz-adv-x="1195" 
d="M664 740l471 -695q7 -10 6.5 -18.5t-4.5 -14.5t-11 -9t-13 -3h-63q-7 0 -16.5 3.5t-17.5 16.5l-419 620l-418 -619q-10 -15 -17.5 -18t-15.5 -3h-63q-7 0 -14 3.5t-10.5 9.5t-3.5 14.5t6 18.5l469 693l-473 701q-12 20 -3 32.5t23 12.5h65q7 0 15.5 -4t17.5 -16l423 -626
l424 626q8 13 16.5 16.5t16.5 3.5h64q6 0 12.5 -3.5t11 -9.5t4.5 -14t-6 -17z" />
    <glyph glyph-name="Y" unicode="Y" horiz-adv-x="1106" 
d="M20 1444q-12 19 -2 30t24 11h69q8 0 15 -3.5t16 -17.5l417 -696l423 695q8 14 15.5 18t15.5 4h62q14 0 22.5 -8.5t-2.5 -27.5l-476 -792v-620q0 -17 -5.5 -27t-22.5 -10h-61q-16 0 -21 10.5t-5 26.5v620z" />
    <glyph glyph-name="Z" unicode="Z" horiz-adv-x="1278" 
d="M1178 1485q30 0 30 -31v-49q0 -8 -7 -18l-976 -1272h944q34 0 34 -29v-56q0 -30 -34 -30h-1075q-30 0 -30 30v48q0 12 8 22l980 1269h-915q-17 0 -27 7t-10 23v56q0 16 10 23t26 7h1042z" />
    <glyph glyph-name="bracketleft" unicode="[" horiz-adv-x="496" 
d="M138 1697q0 31 31 31h272q13 0 21.5 -7t8.5 -22v-59q0 -11 -8.5 -20t-21.5 -9h-188v-1753h188q13 0 21.5 -7.5t8.5 -21.5v-58q0 -11 -8.5 -19.5t-21.5 -8.5h-272q-31 0 -31 33v1921z" />
    <glyph glyph-name="backslash" unicode="\" horiz-adv-x="930" 
d="M84 1444q-8 20 0.5 30.5t21.5 10.5h66q8 0 16.5 -4.5t14.5 -20.5l546 -1419q4 -11 3 -19t-5.5 -13t-11.5 -7t-13 -2h-53q-8 0 -16 4.5t-15 19.5z" />
    <glyph glyph-name="bracketright" unicode="]" horiz-adv-x="496" 
d="M333 -224q0 -33 -31 -33h-272q-13 0 -21.5 8.5t-8.5 19.5v58q0 14 8.5 21.5t21.5 7.5h188v1753h-188q-13 0 -21.5 9t-8.5 20v59q0 15 8.5 22t21.5 7h272q31 0 31 -31v-1921z" />
    <glyph glyph-name="asciicircum" unicode="^" horiz-adv-x="977" 
d="M807 1345q13 -12 19.5 -24.5t-9.5 -29.5l-34 -32q-15 -15 -29.5 -9t-28.5 20l-238 244l-239 -242q-15 -14 -29 -20.5t-30 10.5l-28 24q-15 17 -12 31.5t19 28.5l287 293q17 17 31.5 17t31.5 -17z" />
    <glyph glyph-name="underscore" unicode="_" horiz-adv-x="1205" 
d="M130 -41q0 15 9 22.5t23 7.5h883q12 0 21 -7.5t9 -22.5v-65q0 -12 -9 -20t-22 -8h-882q-14 0 -23 6t-9 22v65z" />
    <glyph glyph-name="grave" unicode="`" horiz-adv-x="516" 
d="M145 1440q-10 20 -1.5 32t23.5 12h50q10 0 17.5 -4.5t16.5 -21.5l104 -242q9 -19 4 -29t-21 -10h-56q-8 0 -16.5 4t-18.5 22z" />
    <glyph glyph-name="a" unicode="a" horiz-adv-x="1188" 
d="M1038 32q0 -17 -7.5 -24.5t-26.5 -7.5h-48q-20 0 -25.5 8.5t-5.5 27.5v176q-18 -56 -53 -99.5t-82.5 -73.5t-105.5 -46t-123 -16q-102 0 -190 40t-152.5 109t-101.5 162t-37 199t36.5 199.5t101 163.5t152.5 110t191 40q66 0 125.5 -17t107.5 -48t82 -73.5t49 -93.5
l4 170q1 20 8 30.5t27 10.5h43q18 0 24.5 -10.5t6.5 -30.5v-906zM924 486q0 82 -26.5 155t-74.5 128t-115 87t-147 32q-81 0 -148.5 -32t-116 -86.5t-76 -127.5t-27.5 -155t27.5 -154.5t76.5 -126.5t116.5 -85.5t147.5 -31.5q79 0 146 31t115 84.5t75 126t27 155.5z" />
    <glyph glyph-name="b" unicode="b" horiz-adv-x="1186" 
d="M162 1449q0 18 8 27t29 9h41q21 0 29 -9t8 -27v-680q23 48 57 90t79.5 73.5t103 49.5t126.5 18q98 0 183.5 -40t149.5 -109.5t100.5 -162.5t36.5 -199q0 -107 -36.5 -200t-100.5 -162t-149.5 -109t-183.5 -40q-88 0 -151.5 21t-106.5 51t-69 62t-39 55v-126
q0 -20 -8.5 -30.5t-29.5 -10.5h-41q-21 0 -28.5 10.5t-7.5 30.5v1408zM271 488q0 -82 29 -155t79 -127.5t116 -86t140 -31.5t140 31.5t115.5 86t78 127.5t28.5 155t-28.5 155t-78 127.5t-115.5 86t-140 31.5t-140 -31.5t-116 -86t-79 -127.5t-29 -155z" />
    <glyph glyph-name="c" unicode="c" horiz-adv-x="1022" 
d="M875 773q-26 22 -56.5 42.5t-65.5 36.5t-75 26t-85 10q-82 0 -156 -29t-129.5 -81.5t-88.5 -125t-33 -160.5q0 -91 33 -165t88.5 -126.5t129 -81t155.5 -29.5q68 0 144 30.5t140 87.5q11 10 21 6t13 -7l35 -50q2 -3 4.5 -12t-9.5 -21q-35 -34 -78 -61t-89.5 -45.5
t-94 -28t-91.5 -8.5q-66 1 -129.5 19t-120 50.5t-104 78t-82 102t-54 122.5t-19.5 139q0 106 40.5 199t110 161t163.5 107.5t202 39.5q51 0 100.5 -13t94.5 -34t84 -47t70 -51q10 -8 11.5 -18t-6.5 -20l-39 -43q-5 -8 -15.5 -7.5t-18.5 7.5z" />
    <glyph glyph-name="d" unicode="d" horiz-adv-x="1158" 
d="M1026 42q0 -20 -7 -30.5t-28 -10.5h-43q-21 0 -29 10.5t-8 30.5v125q-13 -23 -38.5 -55t-69 -62t-106.5 -51t-151 -21q-98 0 -183.5 40t-149.5 109t-100.5 162t-36.5 200q0 106 36.5 199t100.5 162.5t149.5 109.5t183.5 40q69 0 126.5 -18t102.5 -49.5t79 -73.5t57 -90
v676q0 18 8.5 28.5t29.5 10.5h41q21 0 28.5 -10.5t7.5 -28.5v-1403zM918 488q0 82 -29 155t-79 127.5t-116 86t-140 31.5t-140 -31.5t-115.5 -86t-78 -127.5t-28.5 -155t28.5 -155t78 -127.5t115.5 -86t140 -31.5t140 31.5t116 86t79 127.5t29 155z" />
    <glyph glyph-name="e" unicode="e" horiz-adv-x="1064" 
d="M568 -22q-100 0 -187.5 40.5t-152.5 110t-102.5 162t-37.5 197.5q0 106 37 199.5t101.5 163t150 109.5t183.5 40q93 0 176.5 -39t146.5 -105.5t99.5 -156.5t36.5 -192q0 -37 -22.5 -48.5t-56.5 -11.5h-736q4 -75 34.5 -139.5t79.5 -112.5t113 -76t136 -30h3
q85 0 159.5 33.5t129.5 89.5q13 14 28 14.5t23 -10.5l25 -33q13 -17 11 -29.5t-26 -33.5q-72 -63 -160 -102.5t-191 -39.5h-1zM557 887q-65 0 -123.5 -25t-104.5 -69t-77.5 -104.5t-43.5 -131.5h697q-9 70 -40.5 130.5t-78 105t-106 69.5t-123.5 25z" />
    <glyph glyph-name="f" unicode="f" horiz-adv-x="648" 
d="M522 983q17 0 28 -9.5t11 -30.5v-26q0 -20 -11 -31.5t-28 -11.5h-178v-835q0 -19 -12.5 -29t-29.5 -10h-37q-20 0 -28 11t-8 28v835h-127q-40 0 -40 43v26q0 40 40 40h127v190q0 75 20.5 133.5t60 99.5t96.5 62.5t129 21.5q20 0 30.5 -12t10.5 -31v-34q0 -17 -11.5 -28
t-26.5 -11q-91 0 -142.5 -52.5t-51.5 -152.5v-186h178z" />
    <glyph glyph-name="g" unicode="g" horiz-adv-x="1192" 
d="M1048 146q0 -135 -34.5 -236t-97.5 -169t-151.5 -102t-196.5 -34q-78 0 -140 19t-120 51q-12 7 -18 12.5t-6 14.5q0 5 6 15t13.5 21t14.5 20.5t9 12.5q6 9 13.5 11t16.5 0t19 -7.5t22 -10.5q38 -17 80.5 -29t84.5 -12q70 0 136.5 24t118 71.5t82.5 118.5t31 164v100
q-20 -53 -56.5 -95t-85.5 -70.5t-107 -43.5t-121 -15q-102 0 -190 40t-152.5 109t-101.5 162t-37 199t36.5 199.5t101 163.5t152.5 110t191 40q66 0 127 -17t110.5 -48t85.5 -73.5t51 -93.5l4 170q1 20 10 30.5t29 10.5h34q36 0 36 -41v-792zM934 486q0 82 -28 155t-78 128
t-118.5 87t-148.5 32q-81 0 -148.5 -32t-116 -86.5t-76 -127.5t-27.5 -155t27.5 -154.5t76.5 -126.5t116.5 -85.5t147.5 -31.5q79 0 147.5 31t118.5 84.5t78.5 126t28.5 155.5z" />
    <glyph glyph-name="h" unicode="h" horiz-adv-x="1132" 
d="M876 591q0 59 -20 112t-56.5 93.5t-87.5 64.5t-114 24q-60 0 -118 -22t-103 -61t-72.5 -91.5t-27.5 -113.5v-561q0 -36 -36 -36h-43q-36 0 -36 36v1411q0 17 7 27.5t25 10.5h49q17 0 25.5 -10.5t8.5 -27.5v-613q24 36 59 66.5t77.5 52.5t90.5 34.5t98 12.5q90 0 162 -34
t122.5 -92.5t77.5 -137t27 -167.5v-533q0 -36 -34 -36h-47q-18 0 -26 8t-8 28v555z" />
    <glyph glyph-name="i" unicode="i" horiz-adv-x="435" 
d="M161 942q0 37 37 37h41q17 0 27 -10t10 -27v-906q0 -36 -37 -36h-41q-37 0 -37 36v906zM124 1265q0 19 7.5 36t20 30t29.5 20t36 7q39 0 66 -27t27 -66q0 -19 -7 -36t-20 -29.5t-30 -19.5t-36 -7t-36 7t-29.5 19.5t-20 29.5t-7.5 36z" />
    <glyph glyph-name="j" unicode="j" horiz-adv-x="426" 
d="M123 939q0 20 7.5 30t27.5 10h45q20 0 27.5 -11t7.5 -29v-985q0 -63 -23.5 -119.5t-64 -98.5t-95.5 -66.5t-118 -24.5q-22 0 -34.5 7.5t-12.5 21.5v49q0 17 12.5 25t29.5 8h3q42 1 76.5 17t59 43.5t38.5 63.5t14 77v982zM87 1265q0 19 7.5 36t20 30t29.5 20t36 7
q39 0 66 -27t27 -66q0 -19 -7 -36t-20 -29.5t-30 -19.5t-36 -7t-36 7t-29.5 19.5t-20 29.5t-7.5 36z" />
    <glyph glyph-name="k" unicode="k" horiz-adv-x="1046" 
d="M711 960q8 8 17 13.5t28 5.5h77q20 0 23 -15t-10 -27l-321 -310l491 -579q17 -20 8.5 -34t-26.5 -14h-74q-13 0 -23.5 9t-20.5 20l-437 515l-166 -159v-349q0 -36 -38 -36h-41q-36 0 -36 36v1411q0 17 7 27.5t25 10.5h50q17 0 25 -10.5t8 -27.5v-909z" />
    <glyph glyph-name="l" unicode="l" horiz-adv-x="435" 
d="M161 1448q0 37 37 37h42q17 0 26.5 -10t9.5 -27l-1 -1412q0 -36 -36 -36h-42q-37 0 -37 36z" />
    <glyph glyph-name="m" unicode="m" horiz-adv-x="1689" 
d="M277 36q0 -36 -36 -36h-41q-38 0 -38 36v911q0 14 8 23t23 9h55q11 0 19.5 -7.5t8.5 -23.5l2 -105q22 31 49.5 58.5t61.5 47.5t73.5 32t85.5 12q57 0 107 -15.5t91.5 -43t73.5 -65t53 -82.5q21 46 52 84.5t70.5 66t87.5 42.5t103 15q93 0 161 -34.5t113 -89.5t67 -122
t22 -133v-576q0 -20 -11 -30t-29 -10h-36q-41 0 -41 39v580q0 54 -18.5 102t-52 83t-79.5 55.5t-100 20.5q-65 0 -115 -25.5t-84.5 -68t-52 -99t-17.5 -118.5v-529q0 -40 -38 -40h-40q-38 0 -38 39v583q0 54 -20 101t-55 82t-81.5 55t-100.5 20t-102 -20.5t-84 -56.5
t-56.5 -84t-20.5 -103v-580z" />
    <glyph glyph-name="n" unicode="n" horiz-adv-x="1132" 
d="M277 36q0 -17 -6.5 -26.5t-23.5 -9.5h-53q-19 0 -25.5 9.5t-6.5 26.5v916q0 27 31 27h56q15 0 20.5 -9t5.5 -19l3 -125q25 37 59 69t75 55.5t87.5 37t97.5 13.5q86 0 159.5 -32t127.5 -89.5t85 -137t31 -174.5v-528q0 -20 -6.5 -30t-24.5 -10h-53q-20 0 -26 9.5t-6 29.5
v551q0 62 -24 116t-64.5 94t-95 63t-115.5 23q-60 0 -116 -22t-98.5 -60.5t-68 -91t-25.5 -113.5v-563z" />
    <glyph glyph-name="o" unicode="o" horiz-adv-x="1167" 
d="M88 488q0 106 37.5 199.5t103.5 163t156.5 109.5t196.5 40q107 0 198 -40t157.5 -109.5t104 -163t37.5 -199.5t-37.5 -199t-104.5 -162.5t-158 -109.5t-197 -40q-105 0 -195.5 40t-157 109.5t-104 162.5t-37.5 199zM202 488q0 -82 28.5 -154.5t79.5 -127t121 -86
t153 -31.5q82 0 152 31.5t121 86t80 127t29 154.5t-29 155t-80 127.5t-121 86t-152 31.5q-83 0 -153 -31.5t-121 -86t-79.5 -127.5t-28.5 -155z" />
    <glyph glyph-name="p" unicode="p" horiz-adv-x="1182" 
d="M162 948q0 16 9.5 23.5t24.5 7.5h49q13 0 21 -8t8 -21l3 -130q13 22 39 54.5t69 62.5t106.5 51t151.5 21q98 0 183.5 -40t149.5 -109t100.5 -162.5t36.5 -199.5t-36.5 -199t-100.5 -162.5t-149.5 -109.5t-183.5 -40q-69 0 -126.5 18t-103 49.5t-79.5 73.5t-57 90v-571
q0 -14 -4.5 -23t-23.5 -9h-63q-14 0 -19 8.5t-5 22.5v1302zM271 499q0 -82 29 -155t79 -127.5t116 -86t140 -31.5t140 31.5t115.5 86t78 127.5t28.5 155t-28.5 155t-78 127.5t-115.5 86t-140 31.5t-140 -31.5t-116 -86t-79 -127.5t-29 -155z" />
    <glyph glyph-name="q" unicode="q" horiz-adv-x="1170" 
d="M1039 -354q0 -14 -5 -22.5t-19 -8.5h-63q-19 0 -23.5 9t-4.5 23v571q-23 -48 -57 -90t-79.5 -73.5t-103 -49.5t-126.5 -18q-98 0 -183.5 40t-149.5 109.5t-100.5 162.5t-36.5 199t36.5 199.5t100.5 162.5t149.5 109t183.5 40q88 0 151.5 -21t106.5 -51t69 -62.5t39 -54.5
l3 130q0 13 8 21t21 8h49q15 0 24.5 -7.5t9.5 -23.5v-1302zM930 499q0 82 -29 155t-79 127.5t-116 86t-140 31.5t-140 -31.5t-115.5 -86t-78 -127.5t-28.5 -155t28.5 -155t78 -127.5t115.5 -86t140 -31.5t140 31.5t116 86t79 127.5t29 155z" />
    <glyph glyph-name="r" unicode="r" horiz-adv-x="762" 
d="M162 933q0 23 7.5 34.5t25.5 11.5h50q17 0 22.5 -11t6.5 -28l3 -109q14 36 39 66.5t59 52t75 33.5t88 12q22 0 48 -4.5t51.5 -12t48.5 -18t40 -22.5q11 -8 21 -23.5t-1 -32.5l-30 -44q-8 -12 -21.5 -11t-19.5 5q-29 18 -67 33t-77 15q-56 0 -102.5 -25.5t-80 -68
t-52.5 -97t-19 -112.5v-541q0 -36 -37 -36h-41q-37 0 -37 34v899z" />
    <glyph glyph-name="s" unicode="s" horiz-adv-x="850" 
d="M624 778q-32 52 -85 84t-121 32q-42 0 -77.5 -12t-61 -33.5t-40 -51.5t-14.5 -66t18 -62.5t46 -46t61 -32t63 -20.5q176 -45 261 -121.5t85 -185.5q0 -68 -28 -121t-76 -89t-110.5 -55t-131.5 -19q-57 0 -109 13.5t-95.5 39t-76.5 63.5t-51 88q-5 14 0.5 27.5t20.5 20.5
l38 17q17 7 29 1t18 -20l5 -10q16 -32 42 -56.5t57 -41t63 -25t59 -8.5q35 0 75.5 10t75 31t57.5 54t23 78q0 42 -22.5 74t-58 55.5t-79 39t-85.5 25.5q-56 13 -108 37t-92 58.5t-63.5 79t-23.5 100.5q0 61 22 111.5t62 86.5t96.5 55.5t125.5 19.5q103 0 182.5 -41.5
t131.5 -135.5q8 -14 5.5 -27t-17.5 -23l-35 -21q-29 -18 -46 2q-4 4 -7 9t-8 12z" />
    <glyph glyph-name="t" unicode="t" horiz-adv-x="656" 
d="M504 102q17 0 29.5 -4.5t12.5 -24.5v-53q0 -19 -13.5 -24t-33.5 -5h-30q-51 0 -95 11t-76 41t-50.5 82t-18.5 134v613h-138q-20 0 -29.5 8t-9.5 28v37q0 20 9.5 28t29.5 8h138v295q0 30 33 35l50 7q20 3 26 -10.5t6 -31.5v-295h175q18 0 28.5 -9t10.5 -29v-33
q0 -20 -10.5 -29t-28.5 -9h-175v-586q0 -53 7.5 -87.5t22.5 -54.5t38 -29.5t55 -12.5h37z" />
    <glyph glyph-name="u" unicode="u" horiz-adv-x="1136" 
d="M120 946q0 14 8 23.5t22 9.5h50q21 0 29 -10t8 -30v-555q0 -62 24.5 -115t65.5 -92.5t96 -62t117 -22.5q61 0 116 23t96 62.5t65.5 93t24.5 115.5v556q0 37 37 37h41q39 0 39 -37v-906q0 -17 -10.5 -26.5t-27.5 -9.5h-33q-19 0 -27 10t-10 26l-9 117q-25 -38 -57.5 -70
t-71.5 -55.5t-85 -37t-97 -13.5q-85 0 -160 32t-130.5 88t-88 131t-32.5 161v557z" />
    <glyph glyph-name="v" unicode="v" horiz-adv-x="982" 
d="M817 964q7 15 27 15h64q17 0 24.5 -8.5t-3.5 -36.5l-380 -905q-6 -15 -15 -22t-26 -7h-30q-17 0 -26 7t-15 22l-380 905q-11 28 -3.5 36.5t24.5 8.5h64q20 0 27 -15l324 -778z" />
    <glyph glyph-name="w" unicode="w" horiz-adv-x="1546" 
d="M1364 964q7 15 27 15h64q17 0 24.5 -9t0.5 -26l-384 -915q-6 -15 -12.5 -22t-23.5 -7h-39q-17 0 -24 7t-13 22l-215 513l-214 -513q-6 -15 -13 -22t-24 -7h-38q-17 0 -24 7t-13 22l-380 905q-8 20 -2 32.5t23 12.5h64q10 0 17 -5.5t11 -13.5l323 -774l324 778q7 15 27 15
h69q34 0 19 -34l-107 -255l209 -504z" />
    <glyph glyph-name="x" unicode="x" horiz-adv-x="845" 
d="M157 30q-7 -10 -18 -20t-34 -10h-58q-9 0 -13.5 4t-5.5 9t0 10.5t3 8.5l327 487l-280 420q-10 15 -6 27.5t22 12.5h51q20 0 29 -6t17 -18l231 -341l236 346q8 12 15 15.5t15 3.5h74q17 0 20.5 -7.5t-0.5 -13.5l-296 -439l329 -491q3 -5 1 -16.5t-19 -11.5h-66
q-13 0 -21 6.5t-19 22.5l-269 398z" />
    <glyph glyph-name="y" unicode="y" horiz-adv-x="1002" 
d="M384 -358q-7 -16 -13 -21.5t-24 -5.5h-59q-6 0 -12.5 2t-10.5 6.5t-5 12t4 18.5l159 375l-380 911q-5 13 -0.5 26t24.5 13h53q18 0 25 -5.5t11 -13.5l334 -795l320 786q7 16 14.5 22t17.5 6h69q20 0 24 -11.5t-2 -25.5z" />
    <glyph glyph-name="z" unicode="z" horiz-adv-x="898" 
d="M78 0q-21 0 -34.5 6t-13.5 26v47q0 5 1.5 13t7.5 16l649 757h-627q-11 0 -19 6.5t-8 17.5v67q0 11 6.5 17t14.5 6h756q14 0 23.5 -8.5t9.5 -24.5v-48q0 -14 -4 -22.5t-9 -15.5l-638 -746h627q26 0 26 -26v-62q0 -10 -6 -18t-21 -8h-741z" />
    <glyph glyph-name="braceleft" unicode="{" horiz-adv-x="600" 
d="M559 1727q19 0 31.5 -6t12.5 -28v-42q0 -20 -12 -27t-32 -7q-44 0 -81.5 -20t-65.5 -53t-43.5 -75.5t-15.5 -86.5v-500q0 -17 -5.5 -36.5t-16.5 -40t-27.5 -40t-38.5 -35.5q42 -26 65 -67.5t23 -79.5v-508q0 -46 15.5 -89t43.5 -76t65.5 -53t81.5 -20q19 0 31.5 -6
t12.5 -28v-40q0 -20 -12 -27t-32 -7q-68 0 -126.5 27.5t-102 74.5t-68 110t-24.5 134v464q0 23 -12 47t-31.5 43.5t-43.5 31.5t-47 12h-22q-20 0 -32 7t-12 27v47q0 21 13 27.5t31 6.5h18q29 0 54 11t44 30t29.5 44.5t10.5 54.5v454q0 69 24.5 131.5t68 110t102 75.5
t126.5 28z" />
    <glyph glyph-name="bar" unicode="|" horiz-adv-x="502" 
d="M162 1514q0 18 11 31t33 13h24q18 0 32 -12t14 -32v-1923q0 -46 -46 -46h-24q-44 0 -44 46v1923z" />
    <glyph glyph-name="braceright" unicode="}" horiz-adv-x="600" 
d="M17 1727q68 0 126.5 -28t102 -75.5t68 -110t24.5 -131.5v-454q0 -29 10.5 -54.5t29.5 -44.5t44 -30t54 -11h18q18 0 31 -6.5t13 -27.5v-47q0 -20 -12 -27t-32 -7h-22q-23 0 -47 -12t-43.5 -31.5t-31.5 -43.5t-12 -47v-464q0 -71 -24.5 -134t-68 -110t-102 -74.5
t-126.5 -27.5q-20 0 -32 7t-12 27v40q0 22 12.5 28t31.5 6q44 0 81.5 20t65.5 53t43.5 76t15.5 89v508q0 38 23 79.5t65 67.5q-22 16 -38.5 35.5t-27.5 40t-16.5 40t-5.5 36.5v500q0 44 -15.5 86.5t-43.5 75.5t-65.5 53t-81.5 20q-20 0 -32 7t-12 27v42q0 22 12.5 28t31.5 6
z" />
    <glyph glyph-name="asciitilde" unicode="~" horiz-adv-x="1007" 
d="M240 474q-17 -20 -35 -19.5t-35 15.5l-18 20q-19 17 -17 30t19 33q51 61 103 93t118 32q42 0 81 -18.5t76.5 -40.5t74 -40.5t72.5 -18.5q20 0 37 7.5t31.5 19.5t27.5 26t24 27q19 23 37.5 26.5t33.5 -9.5l25 -26q17 -16 14 -31t-14 -30q-48 -66 -103.5 -99.5
t-123.5 -33.5q-42 0 -79.5 18.5t-73 41t-70 41.5t-70.5 19q-25 0 -43.5 -6.5t-33.5 -18t-29 -26.5t-29 -32z" />
    <glyph glyph-name="exclamdown" unicode="&#xa1;" horiz-adv-x="437" 
d="M160 544q0 16 5.5 25t20.5 9h62q27 0 27 -35v-1020q0 -35 -30 -35h-52q-15 0 -24 10.5t-9 24.5v1021zM126 901q0 19 7 36t19.5 29.5t29.5 19.5t36 7q20 0 37 -7t29.5 -19.5t19.5 -29.5t7 -36t-7 -36t-19.5 -29.5t-29.5 -20t-37 -7.5q-19 0 -36 7.5t-29.5 20t-19.5 29.5
t-7 36z" />
    <glyph glyph-name="cent" unicode="&#xa2;" horiz-adv-x="993" 
d="M500 945v184q0 18 11 31t33 13h24q18 0 32 -12t14 -32v-184h-114zM614 15v-179q0 -46 -46 -46h-24q-44 0 -44 46v179h114zM875 773q-26 22 -56.5 42.5t-65.5 36.5t-75 26t-85 10q-82 0 -156 -29t-129.5 -81.5t-88.5 -125t-33 -160.5q0 -91 33 -165t88.5 -126.5t129 -81
t155.5 -29.5q68 0 144 30.5t140 87.5q11 10 21 6t13 -7l35 -50q2 -3 4.5 -12t-9.5 -21q-35 -34 -78 -61t-89.5 -45.5t-94 -28t-91.5 -8.5q-66 1 -129.5 19t-120 50.5t-104 78t-82 102t-54 122.5t-19.5 139q0 106 40.5 199t110 161t163.5 107.5t202 39.5q51 0 100.5 -13
t94.5 -34t84 -47t70 -51q10 -8 11.5 -18t-6.5 -20l-39 -43q-5 -8 -15.5 -7.5t-18.5 7.5z" />
    <glyph glyph-name="sterling" unicode="&#xa3;" horiz-adv-x="1200" 
d="M295 750h324q13 0 22 -7.5t9 -22.5v-47q0 -11 -9 -19t-22 -8h-324v-535h789q16 0 26 -6.5t10 -23.5v-48q0 -17 -10 -25t-26 -8h-874q-31 0 -31 32v614h-56q-13 0 -23 6t-10 22v47q0 15 9.5 22t23.5 7h56v259q0 68 21 131.5t58 118t87 99t109 76.5t123.5 49.5t130.5 17.5
q43 0 89.5 -9t90.5 -24t84 -35t70 -42q6 -5 13.5 -10.5t12.5 -12.5t7 -15t-4 -17l-29 -45q-8 -14 -22 -12t-25 11q-21 17 -49.5 34.5t-64.5 32t-79 23.5t-91 9q-81 0 -156 -29.5t-133 -82t-92.5 -124.5t-34.5 -157v-246z" />
    <glyph glyph-name="currency" unicode="&#xa4;" horiz-adv-x="1078" 
d="M136 548q0 62 18.5 117t51.5 101l-72 74q-8 9 -8.5 21.5t7.5 20.5l41 37q10 11 21 9.5t21 -9.5l69 -72q47 35 102.5 54.5t117.5 19.5q60 0 114.5 -17.5t100.5 -49.5l65 65q10 8 21.5 9.5t21.5 -9.5l41 -37q8 -8 7 -20.5t-9 -21.5l-64 -66q37 -47 57.5 -104t20.5 -122
q0 -63 -20 -119t-56 -104l57 -57q11 -10 12.5 -21.5t-9.5 -22.5l-40 -37q-11 -12 -22.5 -9t-21.5 11l-58 57q-47 -32 -102 -50t-116 -18q-63 0 -119 20t-103 55l-63 -64q-10 -8 -21 -11t-23 9l-40 37q-10 11 -8.5 22.5t12.5 21.5l64 66q-32 45 -50 99.5t-18 114.5zM236 549
q0 -55 21 -104t57.5 -86t85 -58.5t104.5 -21.5q57 0 107 21.5t87.5 58.5t59 86t21.5 104q0 56 -21.5 105.5t-59 87t-87.5 59.5t-107 22q-56 0 -104.5 -21.5t-85 -59t-57.5 -87.5t-21 -106z" />
    <glyph glyph-name="yen" unicode="&#xa5;" horiz-adv-x="1126" 
d="M208 662q0 16 9.5 23.5t23.5 7.5h241l-439 749q-11 19 -3.5 31.5t19.5 12.5h82q8 1 15.5 -3.5t16.5 -18.5l391 -690l418 690q9 14 16 18.5t15 3.5h86q12 0 18 -12.5t-5 -31.5l-467 -749h261q13 0 21 -8t8 -24v-49q0 -11 -8 -20t-22 -9h-277v-138h278q13 0 21 -8t8 -22
v-50q0 -11 -8 -20t-22 -9h-277v-300q0 -36 -31 -36h-66q-17 0 -24 10t-7 26v300h-259q-14 0 -23.5 7t-9.5 23v49q0 15 9.5 22.5t23.5 7.5h259v138h-259q-14 0 -23.5 7t-9.5 24v48z" />
    <glyph glyph-name="brokenbar" unicode="&#xa6;" horiz-adv-x="496" 
d="M162 1484q0 16 9.5 26t27.5 10h41q16 0 27 -9.5t11 -26.5v-768q0 -36 -38 -36h-41q-37 0 -37 36v768zM162 385q0 16 9.5 26.5t27.5 10.5h41q16 0 27 -10t11 -27v-772q0 -36 -38 -36h-41q-37 0 -37 36v772z" />
    <glyph glyph-name="section" unicode="&#xa7;" horiz-adv-x="1108" 
d="M954 1316q2 -3 4 -13t-9 -19l-44 -33q-8 -6 -15.5 -6t-14.5 3.5t-13.5 8.5t-10.5 10q-62 70 -133.5 105.5t-157.5 35.5q-45 0 -93.5 -14t-88 -41t-65.5 -66.5t-26 -91.5q0 -38 20.5 -64.5t60 -47.5t98.5 -40t136 -42q85 -25 146 -54t100 -63.5t57 -76t18 -92.5
q0 -80 -43.5 -142t-125.5 -104q37 -19 68 -41.5t53.5 -50t35 -61t12.5 -74.5q0 -74 -31 -135.5t-85 -105.5t-126.5 -68.5t-155.5 -24.5q-59 0 -113 13.5t-102.5 38t-90.5 58t-76 72.5q-11 13 -12.5 27t12.5 26l37 31q9 7 17.5 8.5t16 -1.5t14.5 -8.5t12 -10.5
q32 -34 64 -60.5t67 -44.5t74.5 -27.5t86.5 -9.5q46 0 95 14t89 41.5t65.5 67.5t25.5 92q0 40 -21 68.5t-61.5 50t-99.5 39.5t-134 38q-99 26 -163 57.5t-101.5 67.5t-52.5 76t-15 83q0 78 46.5 139t125.5 103q-74 38 -119 93.5t-45 135.5q0 75 31 136.5t85 105.5t126.5 68
t156.5 24q53 0 110.5 -13.5t110 -40t96.5 -64.5t71 -86zM523 893q-62 0 -107.5 -15t-75.5 -39.5t-44.5 -56t-14.5 -63.5q0 -9 1.5 -25.5t10 -36.5t26 -41t49 -38t80 -28t118.5 -11q62 0 107 15t74 39.5t43 55t14 62.5q0 43 -22.5 76.5t-60.5 57t-89 36t-109 12.5z" />
    <glyph glyph-name="dieresis" unicode="&#xa8;" horiz-adv-x="884" 
d="M153 1249q0 36 25.5 61.5t61.5 25.5q38 0 63 -25.5t25 -61.5t-25 -61.5t-63 -25.5q-36 0 -61.5 25.5t-25.5 61.5zM517 1250q0 36 25.5 61.5t61.5 25.5q37 0 62 -25.5t25 -61.5t-25 -61.5t-62 -25.5q-36 0 -61.5 25.5t-25.5 61.5z" />
    <glyph glyph-name="copyright" unicode="&#xa9;" horiz-adv-x="1756" 
d="M1145 1103q14 -10 16 -22.5t-3 -20.5l-22 -37q-6 -10 -17.5 -12.5t-29.5 9.5q-51 34 -103 52t-107 18q-72 0 -135.5 -28t-111.5 -75.5t-75.5 -110.5t-27.5 -134t26.5 -134t73.5 -110.5t110 -76t137 -29.5q54 0 110 17.5t104 55.5q11 8 23 6t18 -10l21 -35q7 -10 6 -22
t-11 -21q-54 -45 -125 -69.5t-149 -24.5q-93 0 -175 35.5t-143.5 97t-97 144t-35.5 177.5q0 93 35.5 175.5t97 144t144 97t176.5 35.5q76 0 144.5 -23.5t125.5 -68.5zM101 743q0 105 27.5 202.5t77 182.5t119.5 155t155 119.5t183 77t204 27.5q104 0 201.5 -27.5t182.5 -77
t155 -119.5t120 -155t77.5 -182.5t27.5 -203.5q0 -105 -27.5 -202.5t-77.5 -182.5t-120 -154.5t-155 -119t-182.5 -77t-202.5 -27.5t-203 27t-183 77t-155 119.5t-119.5 154.5t-77 182.5t-27.5 203.5zM199 740q0 -91 24 -176t68 -159t105 -134.5t135 -103.5t158.5 -67
t175.5 -24q92 0 177.5 24.5t160 69t135.5 106t105 136t68 159t24 174.5q0 139 -53.5 260t-145 211t-212 141.5t-254.5 51.5q-93 0 -179.5 -24.5t-161 -69t-135.5 -106.5t-104.5 -136t-67 -158.5t-23.5 -174.5z" />
    <glyph glyph-name="ordfeminine" unicode="&#xaa;" horiz-adv-x="1030" 
d="M744 1456q0 29 29 29h51q11 0 19.5 -8.5t8.5 -20.5v-660q0 -24 -20 -24l-4 -4h-73q-28 0 -28 28v91q-35 -62 -100 -97t-151 -35q-77 0 -144.5 29t-118 79t-80 118t-29.5 145q0 78 29.5 145.5t80 118t118 79.5t144.5 29q91 0 156 -38.5t101 -106.5zM225 1126
q0 -53 20 -98.5t54.5 -79t80 -53t96.5 -19.5q52 0 97 19t78.5 52t53.5 77.5t22 95.5v6q0 51 -19.5 97t-53.5 80t-80 54t-98 20q-51 0 -96.5 -20t-80 -54t-54.5 -80t-20 -97z" />
    <glyph glyph-name="guillemotleft" unicode="&#xab;" horiz-adv-x="1379" 
d="M142 572q0 6 9 15l528 523q9 10 22 12t21 -6l34 -34q11 -9 11 -22.5t-11 -24.5l-470 -463l470 -464q11 -11 11 -24t-11 -24l-34 -33q-8 -8 -21 -5.5t-22 10.5l-528 523q-9 9 -9 17zM592 572q0 6 9 15l528 523q9 10 22 12t21 -6l34 -34q11 -9 11 -22.5t-11 -24.5
l-469 -463l469 -464q11 -11 11 -24t-11 -24l-34 -33q-8 -8 -21 -5.5t-22 10.5l-528 523q-9 9 -9 17z" />
    <glyph glyph-name="logicalnot" unicode="&#xac;" horiz-adv-x="1162" 
d="M933 398q0 -18 -11.5 -31t-32.5 -13h-24q-19 0 -33 12t-14 32v273h-545q-46 0 -46 46v24q0 44 46 44h616q18 0 31 -11t13 -33v-343z" />
    <glyph glyph-name="uni00AD" unicode="&#xad;" horiz-adv-x="1057" 
d="M858 594q18 0 31 -11t13 -33v-24q0 -18 -12 -32t-32 -14h-616q-46 0 -46 46v24q0 44 46 44h616z" />
    <glyph glyph-name="registered" unicode="&#xae;" horiz-adv-x="1756" 
d="M112 746q0 105 26.5 203t75 182.5t117 154t152 119.5t180 77t202.5 27q105 0 202.5 -27t182.5 -77t154.5 -119.5t119 -154t76.5 -182.5t27 -203t-27 -203t-76.5 -182.5t-119 -154t-154.5 -119.5t-182.5 -77t-202.5 -27q-106 0 -202.5 27t-180 77t-152 119.5t-117 154
t-75 182t-26.5 203.5zM225 743q0 -136 48 -254.5t133 -206t201 -138t253 -50.5q90 0 174 23t157.5 64.5t133.5 100.5t103.5 131.5t67 155.5t23.5 174q0 92 -23.5 176t-67 155.5t-103.5 129.5t-133.5 99.5t-157.5 63.5t-174 22q-132 0 -247.5 -50t-202 -137t-136 -205
t-49.5 -254zM953 609q-8 -2 -16 -2h-16h-246v-259q0 -14 -8.5 -20.5t-19.5 -6.5h-54q-11 0 -19 7t-8 20v812q0 17 19 17h341q56 0 106.5 -23t88 -61.5t59.5 -89t22 -104.5q0 -43 -11 -81.5t-31 -71.5t-47.5 -59.5t-60.5 -44.5l136 -278q7 -11 -1 -24t-22 -13h-55
q-5 0 -13 3.5t-13 12.5zM675 1072v-354h219q42 0 78.5 13t63 37t41.5 58t15 75t-15 73t-41.5 53.5t-63 33t-78.5 11.5h-219z" />
    <glyph glyph-name="macron" unicode="&#xaf;" horiz-adv-x="974" 
d="M725 1290q34 0 34 -32v-38q0 -14 -8.5 -24t-25.5 -10h-592q-33 0 -33 34v38q0 32 33 32h592z" />
    <glyph glyph-name="degree" unicode="&#xb0;" horiz-adv-x="650" 
d="M342 1275q49 0 91.5 -18.5t74.5 -50.5t50.5 -75t18.5 -92q0 -51 -18.5 -94t-50.5 -74.5t-75 -49.5t-91 -18q-49 0 -92 18t-75 49.5t-50.5 74.5t-18.5 94q0 49 18.5 92t50.5 75t75 50.5t92 18.5zM342 1198q-34 0 -63 -12.5t-50.5 -34.5t-33.5 -50.5t-12 -61.5
q0 -34 12 -63t33.5 -50.5t50.5 -33.5t63 -12q33 0 62 12t50.5 33.5t34 50.5t12.5 63q0 33 -12.5 61.5t-34 50.5t-50.5 34.5t-62 12.5z" />
    <glyph glyph-name="plusminus" unicode="&#xb1;" horiz-adv-x="994" 
d="M168 0q-37 0 -37 37v42q0 37 37 37h643q17 0 27 -9.5t10 -27.5v-42q0 -17 -10 -27t-27 -10h-643zM458 276q-14 0 -21.5 10t-7.5 24v275h-267q-13 0 -22.5 6t-9.5 22v60q0 14 9.5 21.5t23.5 7.5h266v264q0 13 7.5 21.5t22.5 8.5h58q11 0 20 -8.5t9 -22.5v-263h273
q13 0 22 -7.5t9 -22.5v-60q0 -11 -9.5 -19t-22.5 -8h-272v-275q0 -14 -7 -24t-23 -10h-58z" />
    <glyph glyph-name="twosuperior" unicode="&#xb2;" horiz-adv-x="836" 
d="M104 670q-11 0 -18.5 7.5t-7.5 18.5v52v7t3 7l372 367q33 32 44.5 58.5t11.5 58.5q0 31 -13 58t-35.5 47t-52 31.5t-63.5 11.5q-33 0 -62.5 -12.5t-51.5 -33.5t-34.5 -49.5t-12.5 -60.5t-6 -40t-26 -8h-51q-11 1 -17 5t-6 19v24q0 56 21.5 103t58 81t85 53t102.5 19
q56 0 106 -17.5t87.5 -49.5t59 -77t21.5 -101q0 -55 -21.5 -100t-53.5 -77l-306 -298h369q11 0 18.5 -5t7.5 -19v-54q0 -10 -7.5 -18t-18.5 -8h-503z" />
    <glyph glyph-name="threesuperior" unicode="&#xb3;" horiz-adv-x="757" 
d="M47 918q0 12 4.5 18.5t16.5 6.5h59q22 0 22 -24q0 -32 12.5 -60.5t34 -50t50 -34t60.5 -12.5t61 12.5t50.5 34t34.5 50t13 60.5t-13 61t-34.5 50.5t-50.5 34.5t-61 13q-24 0 -24 23v53q0 24 25 24q22 1 41.5 9.5t34.5 23t23.5 34t8.5 41.5t-8.5 42t-23 35t-34.5 23.5
t-43 8.5t-42 -8.5t-33.5 -23.5t-22.5 -35t-8 -42q0 -14 -5 -19t-17 -5h-61q-20 0 -20 25q0 43 16.5 81.5t45 67t66.5 45t81 16.5t81.5 -16.5t66.5 -45t44.5 -67t16.5 -81.5q0 -45 -17.5 -84t-47.5 -68q53 -35 84.5 -91.5t31.5 -125.5q0 -54 -20.5 -101t-55.5 -82
t-82.5 -55.5t-101.5 -20.5t-101 20.5t-82 55.5t-55.5 82t-20.5 101z" />
    <glyph glyph-name="acute" unicode="&#xb4;" horiz-adv-x="497" 
d="M315 1203q-10 -18 -18 -22t-17 -4h-60q-13 0 -17.5 9.5t5.5 28.5l104 243q8 17 16 21.5t18 4.5h67q14 0 17 -10.5t-5 -26.5z" />
    <glyph glyph-name="mu" unicode="&#xb5;" horiz-adv-x="1168" 
d="M577 -18q-49 0 -92.5 12t-81 33.5t-69 51.5t-56.5 65v-492q0 -17 -10 -27t-27 -10h-41q-19 0 -28.5 10t-9.5 27v1291q0 36 38 36h42q36 0 36 -36v-557q1 -61 25.5 -114.5t65 -93t94 -62.5t114.5 -23h4q61 0 116 23t96.5 62.5t66.5 93t27 115.5v557q0 36 37 36h41
q39 0 39 -36v-905q0 -15 -4 -23t-14 -11.5t-27.5 -4t-44.5 -0.5q-23 0 -23 22l-4 133q-25 -36 -58 -67.5t-72.5 -54.5t-85 -37t-94.5 -14z" />
    <glyph glyph-name="paragraph" unicode="&#xb6;" horiz-adv-x="1336" 
d="M1284 1485q14 0 22.5 -8t8.5 -23v-52q0 -32 -31 -32h-219v-1339q0 -31 -31 -31h-53q-31 0 -31 31v1339h-272v-1339q0 -31 -31 -31h-53q-31 0 -31 31v592q-29 0 -57.5 3t-57.5 8q-80 10 -149 46.5t-120 92.5t-80 127.5t-29 152.5q0 89 34 168t92.5 137.5t137 92.5
t167.5 34h783v0z" />
    <glyph glyph-name="glyph120" unicode="&#xb7;" horiz-adv-x="454" 
d="M110 554q0 19 7.5 36t20 30t29.5 20t36 7q39 0 66 -27t27 -66q0 -19 -7 -36t-20 -29.5t-30 -19.5t-36 -7t-36 7t-29.5 19.5t-20 29.5t-7.5 36z" />
    <glyph glyph-name="cedilla" unicode="&#xb8;" horiz-adv-x="556" 
d="M146 52h95q1 -5 1.5 -18t0.5 -27v-27v-18q0 -19 1 -31t3.5 -20t8 -12.5t14.5 -7.5q29 -10 55 -25t45.5 -37.5t31 -52t11.5 -68.5q0 -25 -12 -53.5t-38.5 -55.5t-67.5 -48.5t-98 -33.5q-9 -2 -18.5 0.5t-11.5 11.5l-11 47q-2 11 2 18.5t20 11.5q22 5 45.5 14.5t43 23
t32 31.5t12.5 40q0 21 -8 38t-22 30t-32.5 22.5t-38.5 15.5q-35 10 -49.5 33t-14.5 54v144z" />
    <glyph glyph-name="onesuperior" unicode="&#xb9;" horiz-adv-x="469" 
d="M248 1487q26 0 26 -24v-769q0 -24 -25 -24h-56q-25 0 -25 24v676l-68 -32q-15 -6 -22 -2t-7 14v65q0 18 20 27l98 45h59z" />
    <glyph glyph-name="ordmasculine" unicode="&#xba;" horiz-adv-x="974" 
d="M118 1138q0 77 29 144t79 117t117.5 79t144.5 29q76 0 143.5 -29t117 -79t78.5 -117t29 -144q0 -81 -30 -149t-80.5 -117t-117.5 -76t-140 -27q-77 0 -144.5 29t-117.5 79t-79 117t-29 144zM221 1138q0 -56 21 -104t57 -84t84.5 -56.5t103.5 -20.5t103.5 20.5t84 56.5
t56 84t20.5 104q0 54 -20.5 102.5t-56 84.5t-84 57t-103.5 21t-103.5 -21t-84.5 -57t-57 -84.5t-21 -102.5z" />
    <glyph glyph-name="guillemotright" unicode="&#xbb;" horiz-adv-x="1379" 
d="M1251 572q0 -8 -9 -17l-528 -523q-9 -8 -22 -10.5t-21 5.5l-34 33q-11 11 -11 24t11 24l470 464l-470 463q-11 11 -11 24.5t11 22.5l34 34q8 8 21 6t22 -12l528 -523q9 -9 9 -15zM801 572q0 -8 -9 -17l-528 -523q-9 -8 -22 -10.5t-21 5.5l-34 33q-11 11 -11 24t11 24
l469 464l-469 463q-11 11 -11 24.5t11 22.5l34 34q8 8 21 6t22 -12l528 -523q9 -9 9 -15z" />
    <glyph glyph-name="onequarter" unicode="&#xbc;" horiz-adv-x="1484" 
d="M686 135q-14 0 -21 6t-8.5 15t1.5 19t9 18q92 146 183 292l182 292q8 11 16 24.5t23 13.5h56q25 -1 25 -35v-539h67q29 0 29 -29v-50q0 -27 -29 -27h-67v-109q0 -28 -28 -28h-49q-28 0 -28 28v109h-361zM1047 241v367q-61 -92 -118.5 -183.5t-118.5 -183.5h237zM287 1487
q26 0 26 -24v-769q0 -24 -25 -24h-56q-25 0 -25 24v676l-68 -32q-5 -2 -8.5 -3t-6.5 -1q-14 0 -14 16v65q0 18 20 27l98 45h59zM901 1441q16 28 29.5 36t38.5 8h29q36 0 36 -16q-1 -6 -3.5 -15.5t-9.5 -21.5l-754 -1401q-19 -31 -53 -31h-42q-26 0 -26 16q0 9 9 26z" />
    <glyph glyph-name="onehalf" unicode="&#xbd;" horiz-adv-x="1484" 
d="M270 1487q11 0 17.5 -7t6.5 -19v-765q0 -28 -27 -28h-35q-14 0 -21 8t-7 20v694l-52 -24q-11 -5 -23 0t-15 16l-1 27q-2 10 1 20t16 17l83 36q12 5 26 5h31zM838 1q-14 0 -22 10t-8 21v20q0 20 17 37l368 355q35 33 52.5 64.5t17.5 69.5t-15 68.5t-40.5 52t-59 33
t-70.5 11.5q-41 0 -74.5 -15t-57 -40t-36 -59t-12.5 -71q0 -10 -3.5 -15.5t-8.5 -8.5t-10 -4t-8 -1h-26q-11 0 -19.5 7.5t-8.5 21.5q-1 51 17 99t52.5 85t84 59.5t111.5 22.5q54 0 103.5 -17t86.5 -49t59.5 -77t22.5 -100q0 -60 -21.5 -103.5t-49.5 -70.5l-343 -324h405
q12 0 21.5 -6.5t9.5 -19.5v-28q0 -11 -8 -19.5t-21 -8.5h-506zM1000 1466q8 17 28 17h61q20 0 25 -10t-2 -24l-772 -1433q-5 -11 -13 -13.5t-15 -2.5h-61q-17 0 -21.5 11.5t2.5 24.5z" />
    <glyph glyph-name="threequarters" unicode="&#xbe;" horiz-adv-x="1532" 
d="M26 935q0 12 4.5 18.5t16.5 6.5h59q22 0 22 -24q0 -32 12.5 -60.5t34 -50t50 -34t60.5 -12.5t61 12.5t50.5 34t34.5 50t13 60.5t-13 61t-34.5 50.5t-50.5 34.5t-61 13q-24 0 -24 23v53q0 24 25 24q22 1 41.5 9.5t34.5 23t23.5 34t8.5 41.5t-8.5 42t-23 35t-34.5 23.5
t-43 8.5t-42 -8.5t-33.5 -23.5t-22.5 -35t-8 -42q0 -14 -5 -19t-17 -5h-61q-20 0 -20 25q0 43 16.5 81.5t45 67t66.5 45t81 16.5t81.5 -16.5t66.5 -45t44.5 -67t16.5 -81.5q0 -45 -17.5 -84t-47.5 -68q53 -35 84.5 -91.5t31.5 -125.5q0 -54 -20.5 -101t-55.5 -82
t-82.5 -55.5t-101.5 -20.5t-101 20.5t-82 55.5t-55.5 82t-20.5 101zM727 137q-14 0 -21 6t-8.5 15t1.5 19t9 18q92 146 183 292l182 292q8 11 16 24.5t23 13.5h56q25 -1 25 -35v-539h67q29 0 29 -29v-50q0 -27 -29 -27h-67v-109q0 -28 -28 -28h-49q-28 0 -28 28v109h-361z
M1088 243v367q-61 -92 -118.5 -183.5t-118.5 -183.5h237zM1009 1441q16 28 29.5 36t38.5 8h29q36 0 36 -16q-1 -6 -3.5 -15.5t-9.5 -21.5l-754 -1401q-19 -31 -53 -31h-42q-26 0 -26 16q0 9 9 26z" />
    <glyph glyph-name="questiondown" unicode="&#xbf;" horiz-adv-x="1069" 
d="M522 772q0 19 10 27.5t23 8.5h62q11 0 19.5 -9t8.5 -27v-210q0 -51 -29.5 -97.5t-69.5 -86t-82 -69.5t-67 -46q-47 -29 -84.5 -60.5t-64.5 -69.5t-41.5 -85t-14.5 -108q0 -71 31.5 -127t83 -94.5t117 -59t133.5 -20.5q78 0 146 28.5t118.5 77t79.5 114t29 140.5
q0 15 5 22.5t22 7.5h65q11 0 17.5 -8t6.5 -21q0 -104 -38.5 -191.5t-104.5 -150.5t-155.5 -98.5t-191.5 -35.5q-103 0 -190.5 34.5t-151 92t-99 133t-35.5 156.5q0 73 13.5 129.5t41.5 102.5t70 84t99 74q35 21 73.5 48t70.5 59.5t53 70.5t21 83v181zM678 1036q0 -19 -7 -36
t-19.5 -29.5t-29.5 -20t-36 -7.5q-20 0 -37 7.5t-29.5 20t-19.5 29.5t-7 36t7 36t19.5 29.5t29.5 20t37 7.5q19 0 36 -7.5t29.5 -20t19.5 -29.5t7 -36z" />
    <glyph glyph-name="Agrave" unicode="&#xc0;" horiz-adv-x="1432" 
d="M1353 43q10 -23 -1 -34t-25 -11h-60q-8 0 -16.5 5.5t-14.5 21.5l-142 346h-765l-142 -345q-7 -16 -14.5 -22t-15.5 -6h-62q-14 0 -24 11t-1 33l593 1417q6 15 15.5 20.5t18.5 5.5h38q9 0 18 -5.5t15 -20.5zM376 485h671l-334 813zM550 1942q-10 20 -1.5 32t23.5 12h50
q10 0 17.5 -4.5t16.5 -21.5l104 -242q9 -19 4 -29t-21 -10h-56q-8 0 -16.5 4t-18.5 22z" />
    <glyph glyph-name="Aacute" unicode="&#xc1;" horiz-adv-x="1432" 
d="M1353 43q10 -23 -1 -34t-25 -11h-60q-8 0 -16.5 5.5t-14.5 21.5l-142 346h-765l-142 -345q-7 -16 -14.5 -22t-15.5 -6h-62q-14 0 -24 11t-1 33l593 1417q6 15 15.5 20.5t18.5 5.5h38q9 0 18 -5.5t15 -20.5zM376 485h671l-334 813zM821 1705q-10 -18 -18 -22t-17 -4h-60
q-13 0 -17.5 9.5t5.5 28.5l104 243q8 17 16 21.5t18 4.5h67q14 0 17 -10.5t-5 -26.5z" />
    <glyph glyph-name="Acircumflex" unicode="&#xc2;" horiz-adv-x="1432" 
d="M1353 43q10 -23 -1 -34t-25 -11h-60q-8 0 -16.5 5.5t-14.5 21.5l-142 346h-765l-142 -345q-7 -16 -14.5 -22t-15.5 -6h-62q-14 0 -24 11t-1 33l593 1417q6 15 15.5 20.5t18.5 5.5h38q9 0 18 -5.5t15 -20.5zM376 485h671l-334 813zM677 2007q23 26 48 1l228 -226
q23 -21 2 -44l-29 -28q-12 -13 -24 -9.5t-23 14.5l-178 175l-180 -179q-11 -11 -22.5 -12t-22.5 10l-30 32q-11 11 -8.5 21.5t11.5 19.5z" />
    <glyph glyph-name="Atilde" unicode="&#xc3;" horiz-adv-x="1432" 
d="M1353 43q10 -23 -1 -34t-25 -11h-60q-8 0 -16.5 5.5t-14.5 21.5l-142 346h-765l-142 -345q-7 -16 -14.5 -22t-15.5 -6h-62q-14 0 -24 11t-1 33l593 1417q6 15 15.5 20.5t18.5 5.5h38q9 0 18 -5.5t15 -20.5zM376 485h671l-334 813zM516 1711q-13 -15 -26.5 -14.5
t-26.5 11.5l-14 15q-14 13 -12.5 23t14.5 25q38 46 77.5 70.5t89.5 24.5q31 0 61 -14t58.5 -31t56 -31t54.5 -14q15 0 28 5.5t24 14.5t20.5 20t18.5 21q14 17 28.5 20t25.5 -7l19 -20q13 -12 10.5 -23.5t-10.5 -22.5q-36 -50 -78.5 -75.5t-93.5 -25.5q-32 0 -60.5 14
t-55.5 31.5t-53 31.5t-53 14q-19 0 -33 -5t-25.5 -13.5t-21.5 -20t-22 -24.5z" />
    <glyph glyph-name="Adieresis" unicode="&#xc4;" horiz-adv-x="1432" 
d="M1353 43q10 -23 -1 -34t-25 -11h-60q-8 0 -16.5 5.5t-14.5 21.5l-142 346h-765l-142 -345q-7 -16 -14.5 -22t-15.5 -6h-62q-14 0 -24 11t-1 33l593 1417q6 15 15.5 20.5t18.5 5.5h38q9 0 18 -5.5t15 -20.5zM376 485h671l-334 813zM459 1751q0 36 25.5 61.5t61.5 25.5
q38 0 63 -25.5t25 -61.5t-25 -61.5t-63 -25.5q-36 0 -61.5 25.5t-25.5 61.5zM823 1752q0 36 25.5 61.5t61.5 25.5q37 0 62 -25.5t25 -61.5t-25 -61.5t-62 -25.5q-36 0 -61.5 25.5t-25.5 61.5z" />
    <glyph glyph-name="Aring" unicode="&#xc5;" horiz-adv-x="1432" 
d="M1353 43q10 -23 -1 -34t-25 -11h-60q-8 0 -16.5 5.5t-14.5 21.5l-142 346h-765l-142 -345q-7 -16 -14.5 -22t-15.5 -6h-62q-14 0 -24 11t-1 33l593 1417q6 15 15.5 20.5t18.5 5.5h38q9 0 18 -5.5t15 -20.5zM376 485h671l-334 813zM728 2024q39 0 72.5 -14.5t59 -40
t40 -59t14.5 -71.5q0 -39 -14.5 -73t-40 -58.5t-59 -39t-72.5 -14.5t-73 14.5t-58.5 39t-39 58.5t-14.5 73q0 38 14.5 71.5t39 59t58.5 40t73 14.5zM621 1839q0 -46 30.5 -76.5t76.5 -30.5q22 0 41.5 8t34 22.5t22.5 34t8 42.5q0 22 -8 41.5t-22.5 34t-34 22.5t-41.5 8
q-23 0 -42.5 -8t-34 -22.5t-22.5 -34t-8 -41.5z" />
    <glyph glyph-name="AE" unicode="&#xc6;" horiz-adv-x="2302" 
d="M1192 371h-749l-266 -350q-11 -14 -18 -17.5t-16 -3.5h-71q-18 0 -24 16.5t8 33.5l1137 1421q5 6 12.5 10.5t18.5 4.5h932q16 0 25.5 -8t9.5 -24v-55q0 -17 -9.5 -24.5t-25.5 -7.5h-857v-561h690q16 0 27 -8t11 -24v-45q0 -17 -11 -25t-27 -8h-690v-576h878q15 0 25 -8.5
t10 -24.5v-55q0 -17 -10 -24.5t-25 -7.5h-953q-32 0 -32 32v339zM1192 488v807l-661 -807h661z" />
    <glyph glyph-name="Ccedilla" unicode="&#xc7;" horiz-adv-x="1410" 
d="M1250 234q13 9 27.5 10.5t22.5 -11.5l30 -46q10 -15 6 -24.5t-17 -20.5q-93 -77 -210 -120t-254 -43q-105 0 -203 27t-183.5 77t-155.5 119.5t-120 154.5t-77.5 183t-27.5 204t27.5 203.5t77.5 182t120 154t155.5 118.5t183 76t203.5 27q137 0 255 -45t213 -120
q10 -8 13.5 -15t3.5 -13.5t-1.5 -11t-2.5 -5.5l-33 -45q-4 -5 -17.5 -10t-31.5 9q-83 64 -182 103.5t-213 39.5q-89 0 -172 -23.5t-155.5 -66t-132 -101.5t-102.5 -131t-66.5 -154.5t-23.5 -171.5t23.5 -172t66 -155.5t101.5 -132.5t131 -103t154.5 -67t171.5 -24
q56 0 110 11t104 30t95.5 45.5t85.5 57.5zM786 52h95q1 -5 1.5 -18t0.5 -27v-27v-18q0 -19 1 -31t3.5 -20t8 -12.5t14.5 -7.5q29 -10 55 -25t45.5 -37.5t31 -52t11.5 -68.5q0 -25 -12 -53.5t-38.5 -55.5t-67.5 -48.5t-98 -33.5q-9 -2 -18.5 0.5t-11.5 11.5l-11 47
q-2 11 2 18.5t20 11.5q22 5 45.5 14.5t43 23t32 31.5t12.5 40q0 21 -8 38t-22 30t-32.5 22.5t-38.5 15.5q-35 10 -49.5 33t-14.5 54v144z" />
    <glyph glyph-name="Egrave" unicode="&#xc8;" horiz-adv-x="1284" 
d="M162 1453q0 32 32 32h972q15 0 25 -6t10 -22v-55q0 -17 -10 -24t-25 -7h-889v-537h714q17 0 27.5 -7.5t10.5 -24.5v-51q0 -17 -10.5 -25t-27.5 -8h-714v-603h903q16 0 25 -7.5t9 -18.5v-61q0 -28 -34 -28h-986q-32 0 -32 32v1421zM543 1942q-10 20 -1.5 32t23.5 12h50
q10 0 17.5 -4.5t16.5 -21.5l104 -242q9 -19 4 -29t-21 -10h-56q-8 0 -16.5 4t-18.5 22z" />
    <glyph glyph-name="Eacute" unicode="&#xc9;" horiz-adv-x="1284" 
d="M162 1453q0 32 32 32h972q15 0 25 -6t10 -22v-55q0 -17 -10 -24t-25 -7h-889v-537h714q17 0 27.5 -7.5t10.5 -24.5v-51q0 -17 -10.5 -25t-27.5 -8h-714v-603h903q16 0 25 -7.5t9 -18.5v-61q0 -28 -34 -28h-986q-32 0 -32 32v1421zM762 1705q-10 -18 -18 -22t-17 -4h-60
q-13 0 -17.5 9.5t5.5 28.5l104 243q8 17 16 21.5t18 4.5h67q14 0 17 -10.5t-5 -26.5z" />
    <glyph glyph-name="Ecircumflex" unicode="&#xca;" horiz-adv-x="1284" 
d="M162 1453q0 32 32 32h972q15 0 25 -6t10 -22v-55q0 -17 -10 -24t-25 -7h-889v-537h714q17 0 27.5 -7.5t10.5 -24.5v-51q0 -17 -10.5 -25t-27.5 -8h-714v-603h903q16 0 25 -7.5t9 -18.5v-61q0 -28 -34 -28h-986q-32 0 -32 32v1421zM679 2007q23 26 48 1l228 -226
q23 -21 2 -44l-29 -28q-12 -13 -24 -9.5t-23 14.5l-178 175l-180 -179q-11 -11 -22.5 -12t-22.5 10l-30 32q-11 11 -8.5 21.5t11.5 19.5z" />
    <glyph glyph-name="Edieresis" unicode="&#xcb;" horiz-adv-x="1284" 
d="M162 1453q0 32 32 32h972q15 0 25 -6t10 -22v-55q0 -17 -10 -24t-25 -7h-889v-537h714q17 0 27.5 -7.5t10.5 -24.5v-51q0 -17 -10.5 -25t-27.5 -8h-714v-603h903q16 0 25 -7.5t9 -18.5v-61q0 -28 -34 -28h-986q-32 0 -32 32v1421zM425 1771q0 36 25.5 61.5t61.5 25.5
q38 0 63 -25.5t25 -61.5t-25 -61.5t-63 -25.5q-36 0 -61.5 25.5t-25.5 61.5zM789 1772q0 36 25.5 61.5t61.5 25.5q37 0 62 -25.5t25 -61.5t-25 -61.5t-62 -25.5q-36 0 -61.5 25.5t-25.5 61.5z" />
    <glyph glyph-name="Igrave" unicode="&#xcc;" horiz-adv-x="436" 
d="M161 1449q0 36 37 36h41q18 0 27.5 -9.5t9.5 -26.5v-1413q0 -36 -37 -36h-41q-37 0 -37 36v1413zM57 1942q-10 20 -1.5 32t23.5 12h50q10 0 17.5 -4.5t16.5 -21.5l104 -242q9 -19 4 -29t-21 -10h-56q-8 0 -16.5 4t-18.5 22z" />
    <glyph glyph-name="Iacute" unicode="&#xcd;" horiz-adv-x="436" 
d="M161 1449q0 36 37 36h41q18 0 27.5 -9.5t9.5 -26.5v-1413q0 -36 -37 -36h-41q-37 0 -37 36v1413zM282 1705q-10 -18 -18 -22t-17 -4h-60q-13 0 -17.5 9.5t5.5 28.5l104 243q8 17 16 21.5t18 4.5h67q14 0 17 -10.5t-5 -26.5z" />
    <glyph glyph-name="Icircumflex" unicode="&#xce;" horiz-adv-x="436" 
d="M161 1449q0 36 37 36h41q18 0 27.5 -9.5t9.5 -26.5v-1413q0 -36 -37 -36h-41q-37 0 -37 36v1413zM197 2007q23 26 48 1l228 -226q23 -21 2 -44l-29 -28q-12 -13 -24 -9.5t-23 14.5l-178 175l-180 -179q-11 -11 -22.5 -12t-22.5 10l-30 32q-11 11 -8.5 21.5t11.5 19.5z
" />
    <glyph glyph-name="Idieresis" unicode="&#xcf;" horiz-adv-x="436" 
d="M161 1449q0 36 37 36h41q18 0 27.5 -9.5t9.5 -26.5v-1413q0 -36 -37 -36h-41q-37 0 -37 36v1413zM-50 1751q0 36 25.5 61.5t61.5 25.5q38 0 63 -25.5t25 -61.5t-25 -61.5t-63 -25.5q-36 0 -61.5 25.5t-25.5 61.5zM314 1752q0 36 25.5 61.5t61.5 25.5q37 0 62 -25.5
t25 -61.5t-25 -61.5t-62 -25.5q-36 0 -61.5 25.5t-25.5 61.5z" />
    <glyph glyph-name="Eth" unicode="&#xd0;" horiz-adv-x="1480" 
d="M486 789q15 0 26.5 -9t11.5 -29v-31q0 -15 -11 -27.5t-27 -12.5h-423q-41 0 -41 40v31q0 38 41 38h423zM159 1447q0 17 8.5 27.5t24.5 10.5h471q155 0 290 -58t235.5 -159t158 -236.5t57.5 -290.5q0 -103 -26.5 -198t-75.5 -177.5t-117 -149.5t-151.5 -115t-179 -74.5
t-198.5 -26.5h-464q-18 0 -25.5 8.5t-7.5 25.5v1413zM662 113q88 0 169 23t151 65t127 100.5t97 129t62 150.5t22 166q0 135 -50.5 249.5t-137.5 197.5t-202 130t-244 47h-382v-1258h388z" />
    <glyph glyph-name="Ntilde" unicode="&#xd1;" horiz-adv-x="1542" 
d="M1287 1452q0 34 33 34h48q34 0 34 -32v-1425q0 -15 -9 -22t-23 -7h-52q-11 0 -20.5 6t-15.5 14l-1005 1273v-1257q0 -36 -37 -36h-42q-36 0 -36 36v1413q0 16 8 26t25 10h63q11 0 19 -10l1010 -1269v1246zM569 1712q-13 -15 -26.5 -14.5t-26.5 11.5l-14 15
q-14 13 -12.5 23t14.5 25q38 46 77.5 70.5t89.5 24.5q31 0 61 -14t58.5 -31t56 -31t54.5 -14q15 0 28 5.5t24 14.5t20.5 20t18.5 21q14 17 28.5 20t25.5 -7l19 -20q13 -12 10.5 -23.5t-10.5 -22.5q-36 -50 -78.5 -75.5t-93.5 -25.5q-32 0 -60.5 14t-55.5 31.5t-53 31.5
t-53 14q-19 0 -33 -5t-25.5 -13.5t-21.5 -20t-22 -24.5z" />
    <glyph glyph-name="Ograve" unicode="&#xd2;" horiz-adv-x="1706" 
d="M88 741q0 105 27 202.5t76.5 182t119 154.5t154.5 119.5t182 77t203 27.5q104 0 201.5 -27.5t182 -77t154 -119t119 -154.5t77 -183t27.5 -203t-27.5 -202t-77 -181.5t-119 -153.5t-154 -118.5t-182 -76.5t-202.5 -27t-202.5 27t-182 76.5t-154 119t-119 154t-76.5 181.5
t-27 202zM205 742q0 -134 50.5 -251t138 -204.5t205 -138t251.5 -50.5q88 0 170.5 23t154 65t130.5 100.5t101 130t65 154t23 171.5q0 133 -51 250t-138.5 204.5t-204.5 138.5t-250 51q-89 0 -171.5 -23t-154.5 -65t-130.5 -101t-100.5 -130.5t-65 -154t-23 -170.5z
M691 1943q-10 20 -1.5 32t23.5 12h50q10 0 17.5 -4.5t16.5 -21.5l104 -242q9 -19 4 -29t-21 -10h-56q-8 0 -16.5 4t-18.5 22z" />
    <glyph glyph-name="Oacute" unicode="&#xd3;" horiz-adv-x="1706" 
d="M88 741q0 105 27 202.5t76.5 182t119 154.5t154.5 119.5t182 77t203 27.5q104 0 201.5 -27.5t182 -77t154 -119t119 -154.5t77 -183t27.5 -203t-27.5 -202t-77 -181.5t-119 -153.5t-154 -118.5t-182 -76.5t-202.5 -27t-202.5 27t-182 76.5t-154 119t-119 154t-76.5 181.5
t-27 202zM205 742q0 -134 50.5 -251t138 -204.5t205 -138t251.5 -50.5q88 0 170.5 23t154 65t130.5 100.5t101 130t65 154t23 171.5q0 133 -51 250t-138.5 204.5t-204.5 138.5t-250 51q-89 0 -171.5 -23t-154.5 -65t-130.5 -101t-100.5 -130.5t-65 -154t-23 -170.5z
M944 1706q-10 -18 -18 -22t-17 -4h-60q-13 0 -17.5 9.5t5.5 28.5l104 243q8 17 16 21.5t18 4.5h67q14 0 17 -10.5t-5 -26.5z" />
    <glyph glyph-name="Ocircumflex" unicode="&#xd4;" horiz-adv-x="1706" 
d="M88 741q0 105 27 202.5t76.5 182t119 154.5t154.5 119.5t182 77t203 27.5q104 0 201.5 -27.5t182 -77t154 -119t119 -154.5t77 -183t27.5 -203t-27.5 -202t-77 -181.5t-119 -153.5t-154 -118.5t-182 -76.5t-202.5 -27t-202.5 27t-182 76.5t-154 119t-119 154t-76.5 181.5
t-27 202zM205 742q0 -134 50.5 -251t138 -204.5t205 -138t251.5 -50.5q88 0 170.5 23t154 65t130.5 100.5t101 130t65 154t23 171.5q0 133 -51 250t-138.5 204.5t-204.5 138.5t-250 51q-89 0 -171.5 -23t-154.5 -65t-130.5 -101t-100.5 -130.5t-65 -154t-23 -170.5z
M801 2008q23 26 48 1l228 -226q23 -21 2 -44l-29 -28q-12 -13 -24 -9.5t-23 14.5l-178 175l-180 -179q-11 -11 -22.5 -12t-22.5 10l-30 32q-11 11 -8.5 21.5t11.5 19.5z" />
    <glyph glyph-name="Otilde" unicode="&#xd5;" horiz-adv-x="1706" 
d="M88 741q0 105 27 202.5t76.5 182t119 154.5t154.5 119.5t182 77t203 27.5q104 0 201.5 -27.5t182 -77t154 -119t119 -154.5t77 -183t27.5 -203t-27.5 -202t-77 -181.5t-119 -153.5t-154 -118.5t-182 -76.5t-202.5 -27t-202.5 27t-182 76.5t-154 119t-119 154t-76.5 181.5
t-27 202zM205 742q0 -134 50.5 -251t138 -204.5t205 -138t251.5 -50.5q88 0 170.5 23t154 65t130.5 100.5t101 130t65 154t23 171.5q0 133 -51 250t-138.5 204.5t-204.5 138.5t-250 51q-89 0 -171.5 -23t-154.5 -65t-130.5 -101t-100.5 -130.5t-65 -154t-23 -170.5z
M640 1712q-13 -15 -26.5 -14.5t-26.5 11.5l-14 15q-14 13 -12.5 23t14.5 25q38 46 77.5 70.5t89.5 24.5q31 0 61 -14t58.5 -31t56 -31t54.5 -14q15 0 28 5.5t24 14.5t20.5 20t18.5 21q14 17 28.5 20t25.5 -7l19 -20q13 -12 10.5 -23.5t-10.5 -22.5q-36 -50 -78.5 -75.5
t-93.5 -25.5q-32 0 -60.5 14t-55.5 31.5t-53 31.5t-53 14q-19 0 -33 -5t-25.5 -13.5t-21.5 -20t-22 -24.5z" />
    <glyph glyph-name="Odieresis" unicode="&#xd6;" horiz-adv-x="1706" 
d="M88 741q0 105 27 202.5t76.5 182t119 154.5t154.5 119.5t182 77t203 27.5q104 0 201.5 -27.5t182 -77t154 -119t119 -154.5t77 -183t27.5 -203t-27.5 -202t-77 -181.5t-119 -153.5t-154 -118.5t-182 -76.5t-202.5 -27t-202.5 27t-182 76.5t-154 119t-119 154t-76.5 181.5
t-27 202zM205 742q0 -134 50.5 -251t138 -204.5t205 -138t251.5 -50.5q88 0 170.5 23t154 65t130.5 100.5t101 130t65 154t23 171.5q0 133 -51 250t-138.5 204.5t-204.5 138.5t-250 51q-89 0 -171.5 -23t-154.5 -65t-130.5 -101t-100.5 -130.5t-65 -154t-23 -170.5z
M584 1752q0 36 25.5 61.5t61.5 25.5q38 0 63 -25.5t25 -61.5t-25 -61.5t-63 -25.5q-36 0 -61.5 25.5t-25.5 61.5zM948 1753q0 36 25.5 61.5t61.5 25.5q37 0 62 -25.5t25 -61.5t-25 -61.5t-62 -25.5q-36 0 -61.5 25.5t-25.5 61.5z" />
    <glyph glyph-name="multiply" unicode="&#xd7;" horiz-adv-x="892" 
d="M170 383q-11 10 -9.5 22t12.5 23l209 208l-207 207q-10 10 -12 21.5t9 22.5l35 35q11 11 22.5 9.5t22.5 -12.5l206 -207l212 211q8 9 19.5 10.5t22.5 -9.5l38 -38q8 -8 7.5 -20.5t-9.5 -21.5l-211 -210l211 -211q8 -9 9.5 -20.5t-8.5 -22.5l-36 -35q-8 -8 -20.5 -7
t-20.5 9l-211 211l-209 -210q-10 -9 -21.5 -11.5t-22.5 8.5z" />
    <glyph glyph-name="Oslash" unicode="&#xd8;" horiz-adv-x="1702" 
d="M526 52q-97 45 -177.5 115.5t-138.5 160t-90 194.5t-32 219q0 105 27 202.5t76.5 182t119 154.5t154.5 119.5t182 77t203 27.5q58 0 113.5 -8.5t109.5 -25.5l48 119q11 28 23.5 36t38.5 8h28q21 0 30 -4.5t9 -15.5q-2 -6 -3 -14t-5 -19l-62 -152q95 -47 174.5 -117.5
t136.5 -159.5t88.5 -193.5t31.5 -217.5q0 -105 -27.5 -202t-77 -181.5t-119 -153.5t-154 -118.5t-182 -76.5t-202.5 -27q-57 0 -111 8t-106 23l-47 -117q-12 -31 -48 -31h-42q-29 0 -29 21q0 8 5 21zM205 742q0 -134 50.5 -251t138 -204.5t205 -138t251.5 -50.5
q88 0 170.5 23t154 65t130.5 100.5t101 130t65 154t23 171.5q0 133 -51 250t-138.5 204.5t-204.5 138.5t-250 51q-89 0 -171.5 -23t-154.5 -65t-130.5 -101t-100.5 -130.5t-65 -154t-23 -170.5z" />
    <glyph glyph-name="Ugrave" unicode="&#xd9;" horiz-adv-x="1504" 
d="M256 595q0 -106 36.5 -198.5t102 -160.5t156 -107.5t198.5 -39.5q110 0 201 39.5t156 108t101 160.5t36 198v854q0 16 10 26t28 10h38q17 0 28 -9.5t11 -26.5v-869q0 -131 -48 -241.5t-130.5 -191t-193.5 -126t-237 -45.5q-84 0 -162 21.5t-145.5 61.5t-123 95.5t-95 123
t-61.5 145.5t-22 162v864q0 14 9 25t26 11h44q14 0 25.5 -10t11.5 -26v-854zM651 1943q-10 20 -1.5 32t23.5 12h50q10 0 17.5 -4.5t16.5 -21.5l104 -242q9 -19 4 -29t-21 -10h-56q-8 0 -16.5 4t-18.5 22z" />
    <glyph glyph-name="Uacute" unicode="&#xda;" horiz-adv-x="1504" 
d="M256 595q0 -106 36.5 -198.5t102 -160.5t156 -107.5t198.5 -39.5q110 0 201 39.5t156 108t101 160.5t36 198v854q0 16 10 26t28 10h38q17 0 28 -9.5t11 -26.5v-869q0 -131 -48 -241.5t-130.5 -191t-193.5 -126t-237 -45.5q-84 0 -162 21.5t-145.5 61.5t-123 95.5t-95 123
t-61.5 145.5t-22 162v864q0 14 9 25t26 11h44q14 0 25.5 -10t11.5 -26v-854zM845 1706q-10 -18 -18 -22t-17 -4h-60q-13 0 -17.5 9.5t5.5 28.5l104 243q8 17 16 21.5t18 4.5h67q14 0 17 -10.5t-5 -26.5z" />
    <glyph glyph-name="Ucircumflex" unicode="&#xdb;" horiz-adv-x="1504" 
d="M256 595q0 -106 36.5 -198.5t102 -160.5t156 -107.5t198.5 -39.5q110 0 201 39.5t156 108t101 160.5t36 198v854q0 16 10 26t28 10h38q17 0 28 -9.5t11 -26.5v-869q0 -131 -48 -241.5t-130.5 -191t-193.5 -126t-237 -45.5q-84 0 -162 21.5t-145.5 61.5t-123 95.5t-95 123
t-61.5 145.5t-22 162v864q0 14 9 25t26 11h44q14 0 25.5 -10t11.5 -26v-854zM734 2008q23 26 48 1l228 -226q23 -21 2 -44l-29 -28q-12 -13 -24 -9.5t-23 14.5l-178 175l-180 -179q-11 -11 -22.5 -12t-22.5 10l-30 32q-11 11 -8.5 21.5t11.5 19.5z" />
    <glyph glyph-name="Udieresis" unicode="&#xdc;" horiz-adv-x="1504" 
d="M256 595q0 -106 36.5 -198.5t102 -160.5t156 -107.5t198.5 -39.5q110 0 201 39.5t156 108t101 160.5t36 198v854q0 16 10 26t28 10h38q17 0 28 -9.5t11 -26.5v-869q0 -131 -48 -241.5t-130.5 -191t-193.5 -126t-237 -45.5q-84 0 -162 21.5t-145.5 61.5t-123 95.5t-95 123
t-61.5 145.5t-22 162v864q0 14 9 25t26 11h44q14 0 25.5 -10t11.5 -26v-854zM481 1752q0 36 25.5 61.5t61.5 25.5q38 0 63 -25.5t25 -61.5t-25 -61.5t-63 -25.5q-36 0 -61.5 25.5t-25.5 61.5zM845 1753q0 36 25.5 61.5t61.5 25.5q37 0 62 -25.5t25 -61.5t-25 -61.5
t-62 -25.5q-36 0 -61.5 25.5t-25.5 61.5z" />
    <glyph glyph-name="Yacute" unicode="&#xdd;" horiz-adv-x="1106" 
d="M20 1444q-12 19 -2 30t24 11h69q8 0 15 -3.5t16 -17.5l417 -696l423 695q8 14 15.5 18t15.5 4h62q14 0 22.5 -8.5t-2.5 -27.5l-476 -792v-620q0 -17 -5.5 -27t-22.5 -10h-61q-16 0 -21 10.5t-5 26.5v620zM634 1706q-10 -18 -18 -22t-17 -4h-60q-13 0 -17.5 9.5t5.5 28.5
l104 243q8 17 16 21.5t18 4.5h67q14 0 17 -10.5t-5 -26.5z" />
    <glyph glyph-name="Thorn" unicode="&#xde;" horiz-adv-x="1254" 
d="M162 1450q0 36 37 36h41q37 0 37 -36v-227h403q97 0 181.5 -37t146.5 -100t98 -147t36 -179q0 -94 -35.5 -177.5t-97.5 -146.5t-146 -99.5t-180 -36.5h-405v-264q0 -36 -37 -36h-43q-36 0 -36 36v1414zM680 414q72 0 135 27.5t110 74.5t74 110t27 135q0 71 -27 134.5
t-73.5 111t-109.5 75t-136 27.5h-402v-695h402z" />
    <glyph glyph-name="germandbls" unicode="&#xdf;" horiz-adv-x="1152" 
d="M551 -57q-15 0 -24 7t-9 21v68q0 8 7 16.5t31 8.5q85 0 158.5 27t126.5 75.5t83.5 116.5t30.5 150q0 76 -23 139.5t-71.5 110t-123.5 72.5t-180 26q-19 0 -29 9.5t-10 22.5v54q0 11 8.5 21.5t31.5 10.5q96 0 152.5 26t86 63.5t38.5 80.5t9 76q0 60 -23 107.5t-63 80
t-92.5 49.5t-111.5 17q-66 0 -117 -25t-86.5 -69.5t-54 -105t-18.5 -132.5v-1414q0 -35 -32 -35h-55q-11 0 -17.5 3.5t-9.5 9t-3.5 11.5t-0.5 11v1433q0 98 29.5 177.5t82.5 135.5t126.5 86.5t160.5 30.5q91 0 166 -30t128.5 -81t82.5 -118t29 -140q0 -94 -37.5 -170
t-102.5 -124q57 -24 104.5 -66.5t81.5 -98t52.5 -122t18.5 -137.5q0 -97 -34 -185t-101 -155t-166.5 -106.5t-229.5 -39.5z" />
    <glyph glyph-name="agrave" unicode="&#xe0;" horiz-adv-x="1188" 
d="M1038 32q0 -17 -7.5 -24.5t-26.5 -7.5h-48q-20 0 -25.5 8.5t-5.5 27.5v176q-18 -56 -53 -99.5t-82.5 -73.5t-105.5 -46t-123 -16q-102 0 -190 40t-152.5 109t-101.5 162t-37 199t36.5 199.5t101 163.5t152.5 110t191 40q66 0 125.5 -17t107.5 -48t82 -73.5t49 -93.5
l4 170q1 20 8 30.5t27 10.5h43q18 0 24.5 -10.5t6.5 -30.5v-906zM924 486q0 82 -26.5 155t-74.5 128t-115 87t-147 32q-81 0 -148.5 -32t-116 -86.5t-76 -127.5t-27.5 -155t27.5 -154.5t76.5 -126.5t116.5 -85.5t147.5 -31.5q79 0 146 31t115 84.5t75 126t27 155.5z
M419 1440q-10 20 -1.5 32t23.5 12h50q10 0 17.5 -4.5t16.5 -21.5l104 -242q9 -19 4 -29t-21 -10h-56q-8 0 -16.5 4t-18.5 22z" />
    <glyph glyph-name="aacute" unicode="&#xe1;" horiz-adv-x="1188" 
d="M1038 32q0 -17 -7.5 -24.5t-26.5 -7.5h-48q-20 0 -25.5 8.5t-5.5 27.5v176q-18 -56 -53 -99.5t-82.5 -73.5t-105.5 -46t-123 -16q-102 0 -190 40t-152.5 109t-101.5 162t-37 199t36.5 199.5t101 163.5t152.5 110t191 40q66 0 125.5 -17t107.5 -48t82 -73.5t49 -93.5
l4 170q1 20 8 30.5t27 10.5h43q18 0 24.5 -10.5t6.5 -30.5v-906zM924 486q0 82 -26.5 155t-74.5 128t-115 87t-147 32q-81 0 -148.5 -32t-116 -86.5t-76 -127.5t-27.5 -155t27.5 -154.5t76.5 -126.5t116.5 -85.5t147.5 -31.5q79 0 146 31t115 84.5t75 126t27 155.5z
M642 1203q-10 -18 -18 -22t-17 -4h-60q-13 0 -17.5 9.5t5.5 28.5l104 243q8 17 16 21.5t18 4.5h67q14 0 17 -10.5t-5 -26.5z" />
    <glyph glyph-name="acircumflex" unicode="&#xe2;" horiz-adv-x="1188" 
d="M1038 32q0 -17 -7.5 -24.5t-26.5 -7.5h-48q-20 0 -25.5 8.5t-5.5 27.5v176q-18 -56 -53 -99.5t-82.5 -73.5t-105.5 -46t-123 -16q-102 0 -190 40t-152.5 109t-101.5 162t-37 199t36.5 199.5t101 163.5t152.5 110t191 40q66 0 125.5 -17t107.5 -48t82 -73.5t49 -93.5
l4 170q1 20 8 30.5t27 10.5h43q18 0 24.5 -10.5t6.5 -30.5v-906zM924 486q0 82 -26.5 155t-74.5 128t-115 87t-147 32q-81 0 -148.5 -32t-116 -86.5t-76 -127.5t-27.5 -155t27.5 -154.5t76.5 -126.5t116.5 -85.5t147.5 -31.5q79 0 146 31t115 84.5t75 126t27 155.5z
M513 1505q23 26 48 1l228 -226q23 -21 2 -44l-29 -28q-12 -13 -24 -9.5t-23 14.5l-178 175l-180 -179q-11 -11 -22.5 -12t-22.5 10l-30 32q-11 11 -8.5 21.5t11.5 19.5z" />
    <glyph glyph-name="atilde" unicode="&#xe3;" horiz-adv-x="1188" 
d="M1038 32q0 -17 -7.5 -24.5t-26.5 -7.5h-48q-20 0 -25.5 8.5t-5.5 27.5v176q-18 -56 -53 -99.5t-82.5 -73.5t-105.5 -46t-123 -16q-102 0 -190 40t-152.5 109t-101.5 162t-37 199t36.5 199.5t101 163.5t152.5 110t191 40q66 0 125.5 -17t107.5 -48t82 -73.5t49 -93.5
l4 170q1 20 8 30.5t27 10.5h43q18 0 24.5 -10.5t6.5 -30.5v-906zM924 486q0 82 -26.5 155t-74.5 128t-115 87t-147 32q-81 0 -148.5 -32t-116 -86.5t-76 -127.5t-27.5 -155t27.5 -154.5t76.5 -126.5t116.5 -85.5t147.5 -31.5q79 0 146 31t115 84.5t75 126t27 155.5z
M358 1209q-13 -15 -26.5 -14.5t-26.5 11.5l-14 15q-14 13 -12.5 23t14.5 25q38 46 77.5 70.5t89.5 24.5q31 0 61 -14t58.5 -31t56 -31t54.5 -14q15 0 28 5.5t24 14.5t20.5 20t18.5 21q14 17 28.5 20t25.5 -7l19 -20q13 -12 10.5 -23.5t-10.5 -22.5q-36 -50 -78.5 -75.5
t-93.5 -25.5q-32 0 -60.5 14t-55.5 31.5t-53 31.5t-53 14q-19 0 -33 -5t-25.5 -13.5t-21.5 -20t-22 -24.5z" />
    <glyph glyph-name="adieresis" unicode="&#xe4;" horiz-adv-x="1188" 
d="M1038 32q0 -17 -7.5 -24.5t-26.5 -7.5h-48q-20 0 -25.5 8.5t-5.5 27.5v176q-18 -56 -53 -99.5t-82.5 -73.5t-105.5 -46t-123 -16q-102 0 -190 40t-152.5 109t-101.5 162t-37 199t36.5 199.5t101 163.5t152.5 110t191 40q66 0 125.5 -17t107.5 -48t82 -73.5t49 -93.5
l4 170q1 20 8 30.5t27 10.5h43q18 0 24.5 -10.5t6.5 -30.5v-906zM924 486q0 82 -26.5 155t-74.5 128t-115 87t-147 32q-81 0 -148.5 -32t-116 -86.5t-76 -127.5t-27.5 -155t27.5 -154.5t76.5 -126.5t116.5 -85.5t147.5 -31.5q79 0 146 31t115 84.5t75 126t27 155.5z
M277 1249q0 36 25.5 61.5t61.5 25.5q38 0 63 -25.5t25 -61.5t-25 -61.5t-63 -25.5q-36 0 -61.5 25.5t-25.5 61.5zM641 1250q0 36 25.5 61.5t61.5 25.5q37 0 62 -25.5t25 -61.5t-25 -61.5t-62 -25.5q-36 0 -61.5 25.5t-25.5 61.5z" />
    <glyph glyph-name="aring" unicode="&#xe5;" horiz-adv-x="1188" 
d="M1038 32q0 -17 -7.5 -24.5t-26.5 -7.5h-48q-20 0 -25.5 8.5t-5.5 27.5v176q-18 -56 -53 -99.5t-82.5 -73.5t-105.5 -46t-123 -16q-102 0 -190 40t-152.5 109t-101.5 162t-37 199t36.5 199.5t101 163.5t152.5 110t191 40q66 0 125.5 -17t107.5 -48t82 -73.5t49 -93.5
l4 170q1 20 8 30.5t27 10.5h43q18 0 24.5 -10.5t6.5 -30.5v-906zM924 486q0 82 -26.5 155t-74.5 128t-115 87t-147 32q-81 0 -148.5 -32t-116 -86.5t-76 -127.5t-27.5 -155t27.5 -154.5t76.5 -126.5t116.5 -85.5t147.5 -31.5q79 0 146 31t115 84.5t75 126t27 155.5z
M564 1522q39 0 72.5 -14.5t59 -40t40 -59t14.5 -71.5q0 -39 -14.5 -73t-40 -58.5t-59 -39t-72.5 -14.5t-73 14.5t-58.5 39t-39 58.5t-14.5 73q0 38 14.5 71.5t39 59t58.5 40t73 14.5zM457 1337q0 -46 30.5 -76.5t76.5 -30.5q22 0 41.5 8t34 22.5t22.5 34t8 42.5
q0 22 -8 41.5t-22.5 34t-34 22.5t-41.5 8q-23 0 -42.5 -8t-34 -22.5t-22.5 -34t-8 -41.5z" />
    <glyph glyph-name="ae" unicode="&#xe6;" horiz-adv-x="1934" 
d="M1036 32q0 -17 -7.5 -24.5t-26.5 -7.5h-48q-20 0 -25.5 8.5t-5.5 27.5v176q-18 -56 -53 -99.5t-82.5 -73.5t-105.5 -46t-123 -16q-102 0 -190 40t-152.5 109t-101.5 162t-37 199t36.5 199.5t101 163.5t152.5 110t191 40q66 0 125.5 -17t107.5 -48t82 -73.5t49 -93.5
l4 170q1 20 8 30.5t27 10.5h43q18 0 24.5 -10.5t6.5 -30.5v-906zM922 486q0 82 -26.5 155t-74.5 128t-115 87t-147 32q-81 0 -148.5 -32t-116 -86.5t-76 -127.5t-27.5 -155t27.5 -154.5t76.5 -126.5t116.5 -85.5t147.5 -31.5q79 0 146 31t115 84.5t75 126t27 155.5z
M1402 -22q-100 2 -187.5 43t-152.5 110t-102.5 160.5t-37.5 196.5q0 106 37 199.5t101.5 163t150 109.5t183.5 40q93 0 176.5 -39t146.5 -105.5t99.5 -156.5t36.5 -192q0 -37 -22.5 -48.5t-56.5 -11.5h-736q4 -75 34.5 -139.5t79.5 -112.5t113 -76t136 -30h3
q85 0 159.5 33.5t129.5 89.5q13 14 28 14.5t23 -10.5l25 -33q13 -17 11 -29.5t-26 -33.5q-72 -63 -160 -102.5t-191 -39.5h-1zM1391 887q-65 0 -123.5 -25t-104.5 -69t-77.5 -104.5t-43.5 -131.5h697q-9 70 -40.5 130.5t-78 105t-106 69.5t-123.5 25z" />
    <glyph glyph-name="ccedilla" unicode="&#xe7;" horiz-adv-x="1022" 
d="M875 773q-26 22 -56.5 42.5t-65.5 36.5t-75 26t-85 10q-82 0 -156 -29t-129.5 -81.5t-88.5 -125t-33 -160.5q0 -91 33 -165t88.5 -126.5t129 -81t155.5 -29.5q68 0 144 30.5t140 87.5q11 10 21 6t13 -7l35 -50q2 -3 4.5 -12t-9.5 -21q-35 -34 -78 -61t-89.5 -45.5
t-94 -28t-91.5 -8.5q-66 1 -129.5 19t-120 50.5t-104 78t-82 102t-54 122.5t-19.5 139q0 106 40.5 199t110 161t163.5 107.5t202 39.5q51 0 100.5 -13t94.5 -34t84 -47t70 -51q10 -8 11.5 -18t-6.5 -20l-39 -43q-5 -8 -15.5 -7.5t-18.5 7.5zM523 52h95q1 -5 1.5 -18t0.5 -27
v-27v-18q0 -19 1 -31t3.5 -20t8 -12.5t14.5 -7.5q29 -10 55 -25t45.5 -37.5t31 -52t11.5 -68.5q0 -25 -12 -53.5t-38.5 -55.5t-67.5 -48.5t-98 -33.5q-9 -2 -18.5 0.5t-11.5 11.5l-11 47q-2 11 2 18.5t20 11.5q22 5 45.5 14.5t43 23t32 31.5t12.5 40q0 21 -8 38t-22 30
t-32.5 22.5t-38.5 15.5q-35 10 -49.5 33t-14.5 54v144z" />
    <glyph glyph-name="egrave" unicode="&#xe8;" horiz-adv-x="1064" 
d="M568 -22q-100 0 -187.5 40.5t-152.5 110t-102.5 162t-37.5 197.5q0 106 37 199.5t101.5 163t150 109.5t183.5 40q93 0 176.5 -39t146.5 -105.5t99.5 -156.5t36.5 -192q0 -37 -22.5 -48.5t-56.5 -11.5h-736q4 -75 34.5 -139.5t79.5 -112.5t113 -76t136 -30h3
q85 0 159.5 33.5t129.5 89.5q13 14 28 14.5t23 -10.5l25 -33q13 -17 11 -29.5t-26 -33.5q-72 -63 -160 -102.5t-191 -39.5h-1zM557 887q-65 0 -123.5 -25t-104.5 -69t-77.5 -104.5t-43.5 -131.5h697q-9 70 -40.5 130.5t-78 105t-106 69.5t-123.5 25zM424 1440
q-10 20 -1.5 32t23.5 12h50q10 0 17.5 -4.5t16.5 -21.5l104 -242q9 -19 4 -29t-21 -10h-56q-8 0 -16.5 4t-18.5 22z" />
    <glyph glyph-name="eacute" unicode="&#xe9;" horiz-adv-x="1064" 
d="M568 -22q-100 0 -187.5 40.5t-152.5 110t-102.5 162t-37.5 197.5q0 106 37 199.5t101.5 163t150 109.5t183.5 40q93 0 176.5 -39t146.5 -105.5t99.5 -156.5t36.5 -192q0 -37 -22.5 -48.5t-56.5 -11.5h-736q4 -75 34.5 -139.5t79.5 -112.5t113 -76t136 -30h3
q85 0 159.5 33.5t129.5 89.5q13 14 28 14.5t23 -10.5l25 -33q13 -17 11 -29.5t-26 -33.5q-72 -63 -160 -102.5t-191 -39.5h-1zM557 887q-65 0 -123.5 -25t-104.5 -69t-77.5 -104.5t-43.5 -131.5h697q-9 70 -40.5 130.5t-78 105t-106 69.5t-123.5 25zM667 1203
q-10 -18 -18 -22t-17 -4h-60q-13 0 -17.5 9.5t5.5 28.5l104 243q8 17 16 21.5t18 4.5h67q14 0 17 -10.5t-5 -26.5z" />
    <glyph glyph-name="ecircumflex" unicode="&#xea;" horiz-adv-x="1064" 
d="M568 -22q-100 0 -187.5 40.5t-152.5 110t-102.5 162t-37.5 197.5q0 106 37 199.5t101.5 163t150 109.5t183.5 40q93 0 176.5 -39t146.5 -105.5t99.5 -156.5t36.5 -192q0 -37 -22.5 -48.5t-56.5 -11.5h-736q4 -75 34.5 -139.5t79.5 -112.5t113 -76t136 -30h3
q85 0 159.5 33.5t129.5 89.5q13 14 28 14.5t23 -10.5l25 -33q13 -17 11 -29.5t-26 -33.5q-72 -63 -160 -102.5t-191 -39.5h-1zM557 887q-65 0 -123.5 -25t-104.5 -69t-77.5 -104.5t-43.5 -131.5h697q-9 70 -40.5 130.5t-78 105t-106 69.5t-123.5 25zM521 1505q23 26 48 1
l228 -226q23 -21 2 -44l-29 -28q-12 -13 -24 -9.5t-23 14.5l-178 175l-180 -179q-11 -11 -22.5 -12t-22.5 10l-30 32q-11 11 -8.5 21.5t11.5 19.5z" />
    <glyph glyph-name="edieresis" unicode="&#xeb;" horiz-adv-x="1064" 
d="M568 -22q-100 0 -187.5 40.5t-152.5 110t-102.5 162t-37.5 197.5q0 106 37 199.5t101.5 163t150 109.5t183.5 40q93 0 176.5 -39t146.5 -105.5t99.5 -156.5t36.5 -192q0 -37 -22.5 -48.5t-56.5 -11.5h-736q4 -75 34.5 -139.5t79.5 -112.5t113 -76t136 -30h3
q85 0 159.5 33.5t129.5 89.5q13 14 28 14.5t23 -10.5l25 -33q13 -17 11 -29.5t-26 -33.5q-72 -63 -160 -102.5t-191 -39.5h-1zM557 887q-65 0 -123.5 -25t-104.5 -69t-77.5 -104.5t-43.5 -131.5h697q-9 70 -40.5 130.5t-78 105t-106 69.5t-123.5 25zM304 1249
q0 36 25.5 61.5t61.5 25.5q38 0 63 -25.5t25 -61.5t-25 -61.5t-63 -25.5q-36 0 -61.5 25.5t-25.5 61.5zM668 1250q0 36 25.5 61.5t61.5 25.5q37 0 62 -25.5t25 -61.5t-25 -61.5t-62 -25.5q-36 0 -61.5 25.5t-25.5 61.5z" />
    <glyph glyph-name="igrave" unicode="&#xec;" horiz-adv-x="435" 
d="M160 943q0 17 10.5 27t27.5 10h41q18 0 27.5 -10.5t9.5 -26.5v-907q0 -36 -36 -36h-41q-39 0 -39 36v907zM60 1440q-10 20 -1.5 32t23.5 12h50q10 0 17.5 -4.5t16.5 -21.5l104 -242q9 -19 4 -29t-21 -10h-56q-8 0 -16.5 4t-18.5 22z" />
    <glyph glyph-name="iacute" unicode="&#xed;" horiz-adv-x="435" 
d="M160 943q0 17 10.5 27t27.5 10h41q18 0 27.5 -10.5t9.5 -26.5v-907q0 -36 -36 -36h-41q-39 0 -39 36v907zM277 1203q-10 -18 -18 -22t-17 -4h-60q-13 0 -17.5 9.5t5.5 28.5l104 243q8 17 16 21.5t18 4.5h67q14 0 17 -10.5t-5 -26.5z" />
    <glyph glyph-name="icircumflex" unicode="&#xee;" horiz-adv-x="435" 
d="M160 943q0 17 10.5 27t27.5 10h41q18 0 27.5 -10.5t9.5 -26.5v-907q0 -36 -36 -36h-41q-39 0 -39 36v907zM194 1505q23 26 48 1l228 -226q23 -21 2 -44l-29 -28q-12 -13 -24 -9.5t-23 14.5l-178 175l-180 -179q-11 -11 -22.5 -12t-22.5 10l-30 32q-11 11 -8.5 21.5
t11.5 19.5z" />
    <glyph glyph-name="idieresis" unicode="&#xef;" horiz-adv-x="435" 
d="M160 943q0 17 10.5 27t27.5 10h41q18 0 27.5 -10.5t9.5 -26.5v-907q0 -36 -36 -36h-41q-39 0 -39 36v907zM-51 1249q0 36 25.5 61.5t61.5 25.5q38 0 63 -25.5t25 -61.5t-25 -61.5t-63 -25.5q-36 0 -61.5 25.5t-25.5 61.5zM313 1250q0 36 25.5 61.5t61.5 25.5
q37 0 62 -25.5t25 -61.5t-25 -61.5t-62 -25.5q-36 0 -61.5 25.5t-25.5 61.5z" />
    <glyph glyph-name="eth" unicode="&#xf0;" horiz-adv-x="1148" 
d="M1111 496q0 -107 -40 -200t-109.5 -163t-162.5 -110t-199 -40t-199.5 40t-163 110t-109.5 163t-40 200q0 106 40 199.5t109.5 163t163 109.5t199.5 40q48 0 94 -9t89 -25l-158 272l-128 -74q-33 -20 -55 14l-11 18q-18 33 15 54l128 74l-61 107q-11 19 -11 32q0 11 8 15
t28 4h40q25 0 37 -10.5t26 -33.5l32 -56l134 79q13 8 27.5 5t24.5 -20l10 -18q8 -14 5 -30t-17 -24l-134 -79l299 -518q42 -62 65.5 -135t23.5 -154zM999 496q0 82 -31.5 155t-86.5 127.5t-128 86t-155 31.5q-83 0 -155.5 -31.5t-127 -86t-86 -127.5t-31.5 -155
q0 -83 31.5 -155.5t86 -127.5t127 -86.5t155.5 -31.5q82 0 155 31.5t128 86.5t86.5 127.5t31.5 155.5z" />
    <glyph glyph-name="ntilde" unicode="&#xf1;" horiz-adv-x="1132" 
d="M277 36q0 -17 -6.5 -26.5t-23.5 -9.5h-53q-19 0 -25.5 9.5t-6.5 26.5v916q0 27 31 27h56q15 0 20.5 -9t5.5 -19l3 -125q25 37 59 69t75 55.5t87.5 37t97.5 13.5q86 0 159.5 -32t127.5 -89.5t85 -137t31 -174.5v-528q0 -20 -6.5 -30t-24.5 -10h-53q-20 0 -26 9.5t-6 29.5
v551q0 62 -24 116t-64.5 94t-95 63t-115.5 23q-60 0 -116 -22t-98.5 -60.5t-68 -91t-25.5 -113.5v-563zM350 1209q-13 -15 -26.5 -14.5t-26.5 11.5l-14 15q-14 13 -12.5 23t14.5 25q38 46 77.5 70.5t89.5 24.5q31 0 61 -14t58.5 -31t56 -31t54.5 -14q15 0 28 5.5t24 14.5
t20.5 20t18.5 21q14 17 28.5 20t25.5 -7l19 -20q13 -12 10.5 -23.5t-10.5 -22.5q-36 -50 -78.5 -75.5t-93.5 -25.5q-32 0 -60.5 14t-55.5 31.5t-53 31.5t-53 14q-19 0 -33 -5t-25.5 -13.5t-21.5 -20t-22 -24.5z" />
    <glyph glyph-name="ograve" unicode="&#xf2;" horiz-adv-x="1167" 
d="M88 488q0 106 37.5 199.5t103.5 163t156.5 109.5t196.5 40q107 0 198 -40t157.5 -109.5t104 -163t37.5 -199.5t-37.5 -199t-104.5 -162.5t-158 -109.5t-197 -40q-105 0 -195.5 40t-157 109.5t-104 162.5t-37.5 199zM202 488q0 -82 28.5 -154.5t79.5 -127t121 -86
t153 -31.5q82 0 152 31.5t121 86t80 127t29 154.5t-29 155t-80 127.5t-121 86t-152 31.5q-83 0 -153 -31.5t-121 -86t-79.5 -127.5t-28.5 -155zM466 1440q-10 20 -1.5 32t23.5 12h50q10 0 17.5 -4.5t16.5 -21.5l104 -242q9 -19 4 -29t-21 -10h-56q-8 0 -16.5 4t-18.5 22z
" />
    <glyph glyph-name="oacute" unicode="&#xf3;" horiz-adv-x="1167" 
d="M88 488q0 106 37.5 199.5t103.5 163t156.5 109.5t196.5 40q107 0 198 -40t157.5 -109.5t104 -163t37.5 -199.5t-37.5 -199t-104.5 -162.5t-158 -109.5t-197 -40q-105 0 -195.5 40t-157 109.5t-104 162.5t-37.5 199zM202 488q0 -82 28.5 -154.5t79.5 -127t121 -86
t153 -31.5q82 0 152 31.5t121 86t80 127t29 154.5t-29 155t-80 127.5t-121 86t-152 31.5q-83 0 -153 -31.5t-121 -86t-79.5 -127.5t-28.5 -155zM626 1203q-10 -18 -18 -22t-17 -4h-60q-13 0 -17.5 9.5t5.5 28.5l104 243q8 17 16 21.5t18 4.5h67q14 0 17 -10.5t-5 -26.5z" />
    <glyph glyph-name="ocircumflex" unicode="&#xf4;" horiz-adv-x="1167" 
d="M88 488q0 106 37.5 199.5t103.5 163t156.5 109.5t196.5 40q107 0 198 -40t157.5 -109.5t104 -163t37.5 -199.5t-37.5 -199t-104.5 -162.5t-158 -109.5t-197 -40q-105 0 -195.5 40t-157 109.5t-104 162.5t-37.5 199zM202 488q0 -82 28.5 -154.5t79.5 -127t121 -86
t153 -31.5q82 0 152 31.5t121 86t80 127t29 154.5t-29 155t-80 127.5t-121 86t-152 31.5q-83 0 -153 -31.5t-121 -86t-79.5 -127.5t-28.5 -155zM570 1505q23 26 48 1l228 -226q23 -21 2 -44l-29 -28q-12 -13 -24 -9.5t-23 14.5l-178 175l-180 -179q-11 -11 -22.5 -12
t-22.5 10l-30 32q-11 11 -8.5 21.5t11.5 19.5z" />
    <glyph glyph-name="otilde" unicode="&#xf5;" horiz-adv-x="1167" 
d="M88 488q0 106 37.5 199.5t103.5 163t156.5 109.5t196.5 40q107 0 198 -40t157.5 -109.5t104 -163t37.5 -199.5t-37.5 -199t-104.5 -162.5t-158 -109.5t-197 -40q-105 0 -195.5 40t-157 109.5t-104 162.5t-37.5 199zM202 488q0 -82 28.5 -154.5t79.5 -127t121 -86
t153 -31.5q82 0 152 31.5t121 86t80 127t29 154.5t-29 155t-80 127.5t-121 86t-152 31.5q-83 0 -153 -31.5t-121 -86t-79.5 -127.5t-28.5 -155zM394 1209q-13 -15 -26.5 -14.5t-26.5 11.5l-14 15q-14 13 -12.5 23t14.5 25q38 46 77.5 70.5t89.5 24.5q31 0 61 -14t58.5 -31
t56 -31t54.5 -14q15 0 28 5.5t24 14.5t20.5 20t18.5 21q14 17 28.5 20t25.5 -7l19 -20q13 -12 10.5 -23.5t-10.5 -22.5q-36 -50 -78.5 -75.5t-93.5 -25.5q-32 0 -60.5 14t-55.5 31.5t-53 31.5t-53 14q-19 0 -33 -5t-25.5 -13.5t-21.5 -20t-22 -24.5z" />
    <glyph glyph-name="odieresis" unicode="&#xf6;" horiz-adv-x="1167" 
d="M88 488q0 106 37.5 199.5t103.5 163t156.5 109.5t196.5 40q107 0 198 -40t157.5 -109.5t104 -163t37.5 -199.5t-37.5 -199t-104.5 -162.5t-158 -109.5t-197 -40q-105 0 -195.5 40t-157 109.5t-104 162.5t-37.5 199zM202 488q0 -82 28.5 -154.5t79.5 -127t121 -86
t153 -31.5q82 0 152 31.5t121 86t80 127t29 154.5t-29 155t-80 127.5t-121 86t-152 31.5q-83 0 -153 -31.5t-121 -86t-79.5 -127.5t-28.5 -155zM320 1249q0 36 25.5 61.5t61.5 25.5q38 0 63 -25.5t25 -61.5t-25 -61.5t-63 -25.5q-36 0 -61.5 25.5t-25.5 61.5zM684 1250
q0 36 25.5 61.5t61.5 25.5q37 0 62 -25.5t25 -61.5t-25 -61.5t-62 -25.5q-36 0 -61.5 25.5t-25.5 61.5z" />
    <glyph glyph-name="divide" unicode="&#xf7;" horiz-adv-x="902" 
d="M758 547q17 0 27.5 -10t10.5 -27v-42q0 -18 -10.5 -27t-27.5 -9h-640q-38 0 -38 36v42q0 37 38 37h640zM350 74q0 19 7 36t19.5 29.5t29.5 20t36 7.5q20 0 37 -7.5t29.5 -20t19.5 -29.5t7 -36t-7 -36t-19.5 -29.5t-29.5 -19.5t-37 -7q-19 0 -36 7t-29.5 19.5t-19.5 29.5
t-7 36zM350 906q0 19 7 36t19.5 29.5t29.5 20t36 7.5q20 0 37 -7.5t29.5 -20t19.5 -29.5t7 -36t-7 -36t-19.5 -29.5t-29.5 -20t-37 -7.5q-19 0 -36 7.5t-29.5 20t-19.5 29.5t-7 36z" />
    <glyph glyph-name="oslash" unicode="&#xf8;" horiz-adv-x="1167" 
d="M733 965l45 116q10 23 20.5 30t32.5 7h24q27 0 32 -9t-5 -36l-58 -148zM461 -1l-49 -127q-11 -27 -41 -27h-36q-17 0 -23 9t2 27l56 149zM88 488q0 106 37.5 199.5t103.5 163t156.5 109.5t196.5 40q107 0 198 -40t157.5 -109.5t104 -163t37.5 -199.5t-37.5 -199
t-104.5 -162.5t-158 -109.5t-197 -40q-105 0 -195.5 40t-157 109.5t-104 162.5t-37.5 199zM202 488q0 -82 28.5 -154.5t79.5 -127t121 -86t153 -31.5q82 0 152 31.5t121 86t80 127t29 154.5t-29 155t-80 127.5t-121 86t-152 31.5q-83 0 -153 -31.5t-121 -86t-79.5 -127.5
t-28.5 -155z" />
    <glyph glyph-name="ugrave" unicode="&#xf9;" horiz-adv-x="1136" 
d="M120 946q0 14 8 23.5t22 9.5h50q21 0 29 -10t8 -30v-555q0 -62 24.5 -115t65.5 -92.5t96 -62t117 -22.5q61 0 116 23t96 62.5t65.5 93t24.5 115.5v556q0 37 37 37h41q39 0 39 -37v-906q0 -17 -10.5 -26.5t-27.5 -9.5h-33q-19 0 -27 10t-10 26l-9 117q-25 -38 -57.5 -70
t-71.5 -55.5t-85 -37t-97 -13.5q-85 0 -160 32t-130.5 88t-88 131t-32.5 161v557zM397 1440q-10 20 -1.5 32t23.5 12h50q10 0 17.5 -4.5t16.5 -21.5l104 -242q9 -19 4 -29t-21 -10h-56q-8 0 -16.5 4t-18.5 22z" />
    <glyph glyph-name="uacute" unicode="&#xfa;" horiz-adv-x="1136" 
d="M120 946q0 14 8 23.5t22 9.5h50q21 0 29 -10t8 -30v-555q0 -62 24.5 -115t65.5 -92.5t96 -62t117 -22.5q61 0 116 23t96 62.5t65.5 93t24.5 115.5v556q0 37 37 37h41q39 0 39 -37v-906q0 -17 -10.5 -26.5t-27.5 -9.5h-33q-19 0 -27 10t-10 26l-9 117q-25 -38 -57.5 -70
t-71.5 -55.5t-85 -37t-97 -13.5q-85 0 -160 32t-130.5 88t-88 131t-32.5 161v557zM602 1203q-10 -18 -18 -22t-17 -4h-60q-13 0 -17.5 9.5t5.5 28.5l104 243q8 17 16 21.5t18 4.5h67q14 0 17 -10.5t-5 -26.5z" />
    <glyph glyph-name="ucircumflex" unicode="&#xfb;" horiz-adv-x="1136" 
d="M120 946q0 14 8 23.5t22 9.5h50q21 0 29 -10t8 -30v-555q0 -62 24.5 -115t65.5 -92.5t96 -62t117 -22.5q61 0 116 23t96 62.5t65.5 93t24.5 115.5v556q0 37 37 37h41q39 0 39 -37v-906q0 -17 -10.5 -26.5t-27.5 -9.5h-33q-19 0 -27 10t-10 26l-9 117q-25 -38 -57.5 -70
t-71.5 -55.5t-85 -37t-97 -13.5q-85 0 -160 32t-130.5 88t-88 131t-32.5 161v557zM496 1505q23 26 48 1l228 -226q23 -21 2 -44l-29 -28q-12 -13 -24 -9.5t-23 14.5l-178 175l-180 -179q-11 -11 -22.5 -12t-22.5 10l-30 32q-11 11 -8.5 21.5t11.5 19.5z" />
    <glyph glyph-name="udieresis" unicode="&#xfc;" horiz-adv-x="1136" 
d="M120 946q0 14 8 23.5t22 9.5h50q21 0 29 -10t8 -30v-555q0 -62 24.5 -115t65.5 -92.5t96 -62t117 -22.5q61 0 116 23t96 62.5t65.5 93t24.5 115.5v556q0 37 37 37h41q39 0 39 -37v-906q0 -17 -10.5 -26.5t-27.5 -9.5h-33q-19 0 -27 10t-10 26l-9 117q-25 -38 -57.5 -70
t-71.5 -55.5t-85 -37t-97 -13.5q-85 0 -160 32t-130.5 88t-88 131t-32.5 161v557zM278 1249q0 36 25.5 61.5t61.5 25.5q38 0 63 -25.5t25 -61.5t-25 -61.5t-63 -25.5q-36 0 -61.5 25.5t-25.5 61.5zM642 1250q0 36 25.5 61.5t61.5 25.5q37 0 62 -25.5t25 -61.5t-25 -61.5
t-62 -25.5q-36 0 -61.5 25.5t-25.5 61.5z" />
    <glyph glyph-name="yacute" unicode="&#xfd;" horiz-adv-x="1002" 
d="M384 -358q-7 -16 -13 -21.5t-24 -5.5h-59q-6 0 -12.5 2t-10.5 6.5t-5 12t4 18.5l159 375l-380 911q-5 13 -0.5 26t24.5 13h53q18 0 25 -5.5t11 -13.5l334 -795l320 786q7 16 14.5 22t17.5 6h69q20 0 24 -11.5t-2 -25.5zM552 1203q-10 -18 -18 -22t-17 -4h-60
q-13 0 -17.5 9.5t5.5 28.5l104 243q8 17 16 21.5t18 4.5h67q14 0 17 -10.5t-5 -26.5z" />
    <glyph glyph-name="thorn" unicode="&#xfe;" horiz-adv-x="1182" 
d="M164 31q-2 4 -2 15v1397q0 44 48 44h20q46 0 46 -44l2 -649q25 38 61 75t76 62q27 15 53.5 28.5t54.5 23t59 15t67 5.5q105 0 193.5 -40t152 -109.5t99 -163t35.5 -199.5q0 -107 -35.5 -200t-99 -163t-152 -110t-193.5 -40q-41 0 -74.5 5.5t-63.5 16.5t-58 26.5t-58 35.5
q-37 25 -65.5 54.5t-51.5 66.5v-526q0 -46 -46 -46h-24q-44 0 -44 46v374zM1017 491q0 82 -27 155t-76 127.5t-117.5 86t-150.5 31.5q-77 0 -140.5 -27.5t-111 -75.5t-77.5 -112.5t-39 -138.5v-88q7 -75 36.5 -140.5t77.5 -114t112.5 -76.5t141.5 -28q82 0 150.5 31.5
t117.5 86.5t76 127.5t27 155.5z" />
    <glyph glyph-name="ydieresis" unicode="&#xff;" horiz-adv-x="1002" 
d="M384 -358q-7 -16 -13 -21.5t-24 -5.5h-59q-6 0 -12.5 2t-10.5 6.5t-5 12t4 18.5l159 375l-380 911q-5 13 -0.5 26t24.5 13h53q18 0 25 -5.5t11 -13.5l334 -795l320 786q7 16 14.5 22t17.5 6h69q20 0 24 -11.5t-2 -25.5zM220 1249q0 36 25.5 61.5t61.5 25.5q38 0 63 -25.5
t25 -61.5t-25 -61.5t-63 -25.5q-36 0 -61.5 25.5t-25.5 61.5zM584 1250q0 36 25.5 61.5t61.5 25.5q37 0 62 -25.5t25 -61.5t-25 -61.5t-62 -25.5q-36 0 -61.5 25.5t-25.5 61.5z" />
    <glyph glyph-name="Amacron" unicode="&#x100;" horiz-adv-x="1432" 
d="M1353 43q10 -23 -1 -34t-25 -11h-60q-8 0 -16.5 5.5t-14.5 21.5l-142 346h-765l-142 -345q-7 -16 -14.5 -22t-15.5 -6h-62q-14 0 -24 11t-1 33l593 1417q6 15 15.5 20.5t18.5 5.5h38q9 0 18 -5.5t15 -20.5zM376 485h671l-334 813zM1008 1792q34 0 34 -32v-38
q0 -14 -8.5 -24t-25.5 -10h-592q-33 0 -33 34v38q0 32 33 32h592z" />
    <glyph glyph-name="amacron" unicode="&#x101;" horiz-adv-x="1188" 
d="M1038 32q0 -17 -7.5 -24.5t-26.5 -7.5h-48q-20 0 -25.5 8.5t-5.5 27.5v176q-18 -56 -53 -99.5t-82.5 -73.5t-105.5 -46t-123 -16q-102 0 -190 40t-152.5 109t-101.5 162t-37 199t36.5 199.5t101 163.5t152.5 110t191 40q66 0 125.5 -17t107.5 -48t82 -73.5t49 -93.5
l4 170q1 20 8 30.5t27 10.5h43q18 0 24.5 -10.5t6.5 -30.5v-906zM924 486q0 82 -26.5 155t-74.5 128t-115 87t-147 32q-81 0 -148.5 -32t-116 -86.5t-76 -127.5t-27.5 -155t27.5 -154.5t76.5 -126.5t116.5 -85.5t147.5 -31.5q79 0 146 31t115 84.5t75 126t27 155.5z
M857 1290q34 0 34 -32v-38q0 -14 -8.5 -24t-25.5 -10h-592q-33 0 -33 34v38q0 32 33 32h592z" />
    <glyph glyph-name="Abreve" unicode="&#x102;" horiz-adv-x="1432" 
d="M1353 43q10 -23 -1 -34t-25 -11h-60q-8 0 -16.5 5.5t-14.5 21.5l-142 346h-765l-142 -345q-7 -16 -14.5 -22t-15.5 -6h-62q-14 0 -24 11t-1 33l593 1417q6 15 15.5 20.5t18.5 5.5h38q9 0 18 -5.5t15 -20.5zM376 485h671l-334 813zM687 1732q-46 0 -85.5 16.5t-68 43.5
t-44.5 62t-16 73q0 14 3.5 27.5t22.5 13.5h46q15 0 19.5 -10.5t4.5 -27.5t8 -35t23 -33t37.5 -24.5t51.5 -9.5q27 0 49 10t37.5 25t23.5 33.5t8 35.5q0 16 4.5 26t18.5 10h58q16 0 17.5 -13.5t1.5 -26.5q0 -38 -17 -73.5t-47 -63t-70 -43.5t-86 -16z" />
    <glyph glyph-name="abreve" unicode="&#x103;" horiz-adv-x="1188" 
d="M1038 32q0 -17 -7.5 -24.5t-26.5 -7.5h-48q-20 0 -25.5 8.5t-5.5 27.5v176q-18 -56 -53 -99.5t-82.5 -73.5t-105.5 -46t-123 -16q-102 0 -190 40t-152.5 109t-101.5 162t-37 199t36.5 199.5t101 163.5t152.5 110t191 40q66 0 125.5 -17t107.5 -48t82 -73.5t49 -93.5
l4 170q1 20 8 30.5t27 10.5h43q18 0 24.5 -10.5t6.5 -30.5v-906zM924 486q0 82 -26.5 155t-74.5 128t-115 87t-147 32q-81 0 -148.5 -32t-116 -86.5t-76 -127.5t-27.5 -155t27.5 -154.5t76.5 -126.5t116.5 -85.5t147.5 -31.5q79 0 146 31t115 84.5t75 126t27 155.5z
M515 1230q-46 0 -85.5 16.5t-68 43.5t-44.5 62t-16 73q0 14 3.5 27.5t22.5 13.5h46q15 0 19.5 -10.5t4.5 -27.5t8 -35t23 -33t37.5 -24.5t51.5 -9.5q27 0 49 10t37.5 25t23.5 33.5t8 35.5q0 16 4.5 26t18.5 10h58q16 0 17.5 -13.5t1.5 -26.5q0 -38 -17 -73.5t-47 -63
t-70 -43.5t-86 -16z" />
    <glyph glyph-name="Aogonek" unicode="&#x104;" horiz-adv-x="1432" 
d="M1353 43q10 -23 -1 -34t-25 -11h-60q-8 0 -16.5 5.5t-14.5 21.5l-142 346h-765l-142 -345q-7 -16 -14.5 -22t-15.5 -6h-62q-14 0 -24 11t-1 33l593 1417q6 15 15.5 20.5t18.5 5.5h38q9 0 18 -5.5t15 -20.5zM376 485h671l-334 813zM1350 -125q0 -17 -1.5 -27.5t-6.5 -17.5
t-15 -12.5t-26 -11.5q-55 -21 -85.5 -46t-30.5 -66q0 -20 12.5 -37t32 -31t43 -24.5t45.5 -16.5q16 -5 21.5 -15.5t0.5 -21.5l-16 -40q-4 -10 -10 -13.5t-13 -2.5t-14.5 3.5l-13.5 4.5q-92 29 -141 79.5t-49 107.5q0 37 11.5 66.5t31 52t45.5 38.5t55 26q9 3 14 7.5t8 12.5
t4 20t1 31l2 90h95v-156z" />
    <glyph glyph-name="aogonek" unicode="&#x105;" horiz-adv-x="1188" 
d="M1038 32q0 -17 -7.5 -24.5t-26.5 -7.5h-48q-20 0 -25.5 8.5t-5.5 27.5v176q-18 -56 -53 -99.5t-82.5 -73.5t-105.5 -46t-123 -16q-102 0 -190 40t-152.5 109t-101.5 162t-37 199t36.5 199.5t101 163.5t152.5 110t191 40q66 0 125.5 -17t107.5 -48t82 -73.5t49 -93.5
l4 170q1 20 8 30.5t27 10.5h43q18 0 24.5 -10.5t6.5 -30.5v-906zM924 486q0 82 -26.5 155t-74.5 128t-115 87t-147 32q-81 0 -148.5 -32t-116 -86.5t-76 -127.5t-27.5 -155t27.5 -154.5t76.5 -126.5t116.5 -85.5t147.5 -31.5q79 0 146 31t115 84.5t75 126t27 155.5z
M1032 -104q0 -17 -1.5 -27.5t-6.5 -17.5t-15 -12.5t-26 -11.5q-55 -21 -85.5 -46t-30.5 -66q0 -20 12.5 -37t32 -31t43 -24.5t45.5 -16.5q16 -5 21.5 -15.5t0.5 -21.5l-16 -40q-4 -10 -10 -13.5t-13 -2.5t-14.5 3.5l-13.5 4.5q-92 29 -141 79.5t-49 107.5q0 37 11.5 66.5
t31 52t45.5 38.5t55 26q9 3 14 7.5t8 12.5t4 20t1 31l2 90h95v-156z" />
    <glyph glyph-name="Cacute" unicode="&#x106;" horiz-adv-x="1410" 
d="M1250 234q13 9 27.5 10.5t22.5 -11.5l30 -46q10 -15 6 -24.5t-17 -20.5q-93 -77 -210 -120t-254 -43q-105 0 -203 27t-183.5 77t-155.5 119.5t-120 154.5t-77.5 183t-27.5 204t27.5 203.5t77.5 182t120 154t155.5 118.5t183 76t203.5 27q137 0 255 -45t213 -120
q10 -8 13.5 -15t3.5 -13.5t-1.5 -11t-2.5 -5.5l-33 -45q-4 -5 -17.5 -10t-31.5 9q-83 64 -182 103.5t-213 39.5q-89 0 -172 -23.5t-155.5 -66t-132 -101.5t-102.5 -131t-66.5 -154.5t-23.5 -171.5t23.5 -172t66 -155.5t101.5 -132.5t131 -103t154.5 -67t171.5 -24
q56 0 110 11t104 30t95.5 45.5t85.5 57.5zM915 1705q-10 -18 -18 -22t-17 -4h-60q-13 0 -17.5 9.5t5.5 28.5l104 243q8 17 16 21.5t18 4.5h67q14 0 17 -10.5t-5 -26.5z" />
    <glyph glyph-name="cacute" unicode="&#x107;" horiz-adv-x="1022" 
d="M875 773q-26 22 -56.5 42.5t-65.5 36.5t-75 26t-85 10q-82 0 -156 -29t-129.5 -81.5t-88.5 -125t-33 -160.5q0 -91 33 -165t88.5 -126.5t129 -81t155.5 -29.5q68 0 144 30.5t140 87.5q11 10 21 6t13 -7l35 -50q2 -3 4.5 -12t-9.5 -21q-35 -34 -78 -61t-89.5 -45.5
t-94 -28t-91.5 -8.5q-66 1 -129.5 19t-120 50.5t-104 78t-82 102t-54 122.5t-19.5 139q0 106 40.5 199t110 161t163.5 107.5t202 39.5q51 0 100.5 -13t94.5 -34t84 -47t70 -51q10 -8 11.5 -18t-6.5 -20l-39 -43q-5 -8 -15.5 -7.5t-18.5 7.5zM666 1203q-10 -18 -18 -22
t-17 -4h-60q-13 0 -17.5 9.5t5.5 28.5l104 243q8 17 16 21.5t18 4.5h67q14 0 17 -10.5t-5 -26.5z" />
    <glyph glyph-name="Ccircumflex" unicode="&#x108;" horiz-adv-x="1410" 
d="M1250 234q13 9 27.5 10.5t22.5 -11.5l30 -46q10 -15 6 -24.5t-17 -20.5q-93 -77 -210 -120t-254 -43q-105 0 -203 27t-183.5 77t-155.5 119.5t-120 154.5t-77.5 183t-27.5 204t27.5 203.5t77.5 182t120 154t155.5 118.5t183 76t203.5 27q137 0 255 -45t213 -120
q10 -8 13.5 -15t3.5 -13.5t-1.5 -11t-2.5 -5.5l-33 -45q-4 -5 -17.5 -10t-31.5 9q-83 64 -182 103.5t-213 39.5q-89 0 -172 -23.5t-155.5 -66t-132 -101.5t-102.5 -131t-66.5 -154.5t-23.5 -171.5t23.5 -172t66 -155.5t101.5 -132.5t131 -103t154.5 -67t171.5 -24
q56 0 110 11t104 30t95.5 45.5t85.5 57.5zM814 2007q23 26 48 1l228 -226q23 -21 2 -44l-29 -28q-12 -13 -24 -9.5t-23 14.5l-178 175l-180 -179q-11 -11 -22.5 -12t-22.5 10l-30 32q-11 11 -8.5 21.5t11.5 19.5z" />
    <glyph glyph-name="ccircumflex" unicode="&#x109;" horiz-adv-x="1022" 
d="M875 773q-26 22 -56.5 42.5t-65.5 36.5t-75 26t-85 10q-82 0 -156 -29t-129.5 -81.5t-88.5 -125t-33 -160.5q0 -91 33 -165t88.5 -126.5t129 -81t155.5 -29.5q68 0 144 30.5t140 87.5q11 10 21 6t13 -7l35 -50q2 -3 4.5 -12t-9.5 -21q-35 -34 -78 -61t-89.5 -45.5
t-94 -28t-91.5 -8.5q-66 1 -129.5 19t-120 50.5t-104 78t-82 102t-54 122.5t-19.5 139q0 106 40.5 199t110 161t163.5 107.5t202 39.5q51 0 100.5 -13t94.5 -34t84 -47t70 -51q10 -8 11.5 -18t-6.5 -20l-39 -43q-5 -8 -15.5 -7.5t-18.5 7.5zM566 1463q23 26 48 1l228 -226
q23 -21 2 -44l-29 -28q-12 -13 -24 -9.5t-23 14.5l-178 175l-180 -179q-11 -11 -22.5 -12t-22.5 10l-30 32q-11 11 -8.5 21.5t11.5 19.5z" />
    <glyph glyph-name="Cdotaccent" unicode="&#x10a;" horiz-adv-x="1410" 
d="M1250 234q13 9 27.5 10.5t22.5 -11.5l30 -46q10 -15 6 -24.5t-17 -20.5q-93 -77 -210 -120t-254 -43q-105 0 -203 27t-183.5 77t-155.5 119.5t-120 154.5t-77.5 183t-27.5 204t27.5 203.5t77.5 182t120 154t155.5 118.5t183 76t203.5 27q137 0 255 -45t213 -120
q10 -8 13.5 -15t3.5 -13.5t-1.5 -11t-2.5 -5.5l-33 -45q-4 -5 -17.5 -10t-31.5 9q-83 64 -182 103.5t-213 39.5q-89 0 -172 -23.5t-155.5 -66t-132 -101.5t-102.5 -131t-66.5 -154.5t-23.5 -171.5t23.5 -172t66 -155.5t101.5 -132.5t131 -103t154.5 -67t171.5 -24
q56 0 110 11t104 30t95.5 45.5t85.5 57.5zM771 1770q0 19 7.5 36t20 30t29.5 20t36 7q39 0 66 -27t27 -66q0 -19 -7 -36t-20 -29.5t-30 -19.5t-36 -7t-36 7t-29.5 19.5t-20 29.5t-7.5 36z" />
    <glyph glyph-name="cdotaccent" unicode="&#x10b;" horiz-adv-x="1022" 
d="M875 773q-26 22 -56.5 42.5t-65.5 36.5t-75 26t-85 10q-82 0 -156 -29t-129.5 -81.5t-88.5 -125t-33 -160.5q0 -91 33 -165t88.5 -126.5t129 -81t155.5 -29.5q68 0 144 30.5t140 87.5q11 10 21 6t13 -7l35 -50q2 -3 4.5 -12t-9.5 -21q-35 -34 -78 -61t-89.5 -45.5
t-94 -28t-91.5 -8.5q-66 1 -129.5 19t-120 50.5t-104 78t-82 102t-54 122.5t-19.5 139q0 106 40.5 199t110 161t163.5 107.5t202 39.5q51 0 100.5 -13t94.5 -34t84 -47t70 -51q10 -8 11.5 -18t-6.5 -20l-39 -43q-5 -8 -15.5 -7.5t-18.5 7.5zM502 1268q0 19 7.5 36t20 30
t29.5 20t36 7q39 0 66 -27t27 -66q0 -19 -7 -36t-20 -29.5t-30 -19.5t-36 -7t-36 7t-29.5 19.5t-20 29.5t-7.5 36z" />
    <glyph glyph-name="Ccaron" unicode="&#x10c;" horiz-adv-x="1410" 
d="M1250 234q13 9 27.5 10.5t22.5 -11.5l30 -46q10 -15 6 -24.5t-17 -20.5q-93 -77 -210 -120t-254 -43q-105 0 -203 27t-183.5 77t-155.5 119.5t-120 154.5t-77.5 183t-27.5 204t27.5 203.5t77.5 182t120 154t155.5 118.5t183 76t203.5 27q137 0 255 -45t213 -120
q10 -8 13.5 -15t3.5 -13.5t-1.5 -11t-2.5 -5.5l-33 -45q-4 -5 -17.5 -10t-31.5 9q-83 64 -182 103.5t-213 39.5q-89 0 -172 -23.5t-155.5 -66t-132 -101.5t-102.5 -131t-66.5 -154.5t-23.5 -171.5t23.5 -172t66 -155.5t101.5 -132.5t131 -103t154.5 -67t171.5 -24
q56 0 110 11t104 30t95.5 45.5t85.5 57.5zM860 1686q-6 -5 -10.5 -8.5t-12.5 -3.5q-7 0 -11 2t-11 10l-229 229q-10 11 -13.5 20t7.5 21l39 36q10 11 19 6t19 -14l180 -182l180 180q10 10 19.5 13.5t20.5 -6.5l37 -34q13 -12 7.5 -21.5t-13.5 -20.5z" />
    <glyph glyph-name="ccaron" unicode="&#x10d;" horiz-adv-x="1022" 
d="M875 773q-26 22 -56.5 42.5t-65.5 36.5t-75 26t-85 10q-82 0 -156 -29t-129.5 -81.5t-88.5 -125t-33 -160.5q0 -91 33 -165t88.5 -126.5t129 -81t155.5 -29.5q68 0 144 30.5t140 87.5q11 10 21 6t13 -7l35 -50q2 -3 4.5 -12t-9.5 -21q-35 -34 -78 -61t-89.5 -45.5
t-94 -28t-91.5 -8.5q-66 1 -129.5 19t-120 50.5t-104 78t-82 102t-54 122.5t-19.5 139q0 106 40.5 199t110 161t163.5 107.5t202 39.5q51 0 100.5 -13t94.5 -34t84 -47t70 -51q10 -8 11.5 -18t-6.5 -20l-39 -43q-5 -8 -15.5 -7.5t-18.5 7.5zM629 1186q-6 -5 -10.5 -8.5
t-12.5 -3.5q-7 0 -11 2t-11 10l-229 229q-10 11 -13.5 20t7.5 21l39 36q10 11 19 6t19 -14l180 -182l180 180q10 10 19.5 13.5t20.5 -6.5l37 -34q13 -12 7.5 -21.5t-13.5 -20.5z" />
    <glyph glyph-name="Dcaron" unicode="&#x10e;" horiz-adv-x="1490" 
d="M162 1447q0 17 8.5 27.5t24.5 10.5h471q155 0 290 -58t235.5 -159t158 -236.5t57.5 -290.5q0 -103 -26.5 -198t-75.5 -177.5t-117 -149.5t-151.5 -115t-179 -74.5t-198.5 -26.5h-464q-18 0 -25.5 8.5t-7.5 25.5v1413zM665 113q88 0 169 23t151 65t127 100.5t97 129
t62 150.5t22 166q0 135 -50.5 249.5t-137.5 197.5t-202 130t-244 47h-382v-1258h388zM620 1686q-6 -5 -10.5 -8.5t-12.5 -3.5q-7 0 -11 2t-11 10l-229 229q-10 11 -13.5 20t7.5 21l39 36q10 11 19 6t19 -14l180 -182l180 180q10 10 19.5 13.5t20.5 -6.5l37 -34
q13 -12 7.5 -21.5t-13.5 -20.5z" />
    <glyph glyph-name="dcaron" unicode="&#x10f;" horiz-adv-x="1158" 
d="M1026 42q0 -20 -7 -30.5t-28 -10.5h-43q-21 0 -29 10.5t-8 30.5v125q-13 -23 -38.5 -55t-69 -62t-106.5 -51t-151 -21q-98 0 -183.5 40t-149.5 109t-100.5 162t-36.5 200q0 106 36.5 199t100.5 162.5t149.5 109.5t183.5 40q69 0 126.5 -18t102.5 -49.5t79 -73.5t57 -90
v676q0 18 8.5 28.5t29.5 10.5h41q21 0 28.5 -10.5t7.5 -28.5v-1403zM918 488q0 82 -29 155t-79 127.5t-116 86t-140 31.5t-140 -31.5t-115.5 -86t-78 -127.5t-28.5 -155t28.5 -155t78 -127.5t115.5 -86t140 -31.5t140 31.5t116 86t79 127.5t29 155zM1100 1406q0 41 28 68.5
t68 27.5q48 0 72.5 -32t24.5 -82q0 -51 -8.5 -86.5t-19.5 -59t-22 -36.5t-16 -18q-7 -7 -16 -11t-19 4l-31 25q-5 4 -6 9t0 9.5t3.5 8t3.5 5.5q8 15 17.5 28.5t9.5 32.5v11q-37 6 -63 32t-26 64z" />
    <glyph glyph-name="Dcroat" unicode="&#x110;" horiz-adv-x="1484" 
d="M510 789q34 0 34 -32v-38q0 -14 -8.5 -24t-25.5 -10h-453q-33 0 -33 34v38q0 32 33 32h453zM158 1447q0 17 8.5 27.5t24.5 10.5h471q155 0 290 -58t235.5 -159t158 -236.5t57.5 -290.5q0 -103 -26.5 -198t-75.5 -177.5t-117 -149.5t-151.5 -115t-179 -74.5t-198.5 -26.5
h-464q-18 0 -25.5 8.5t-7.5 25.5v1413zM661 113q88 0 169 23t151 65t127 100.5t97 129t62 150.5t22 166q0 135 -50.5 249.5t-137.5 197.5t-202 130t-244 47h-382v-1258h388z" />
    <glyph glyph-name="dcroat" unicode="&#x111;" horiz-adv-x="1158" 
d="M1164 1246q18 0 31 -6.5t13 -28.5v-38q0 -18 -12 -26.5t-32 -8.5h-484q-23 0 -34.5 6t-11.5 29v38q0 22 11.5 28.5t34.5 6.5h484zM1026 42q0 -20 -7 -30.5t-28 -10.5h-43q-21 0 -29 10.5t-8 30.5v125q-13 -23 -38.5 -55t-69 -62t-106.5 -51t-151 -21q-98 0 -183.5 40
t-149.5 109t-100.5 162t-36.5 200q0 106 36.5 199t100.5 162.5t149.5 109.5t183.5 40q69 0 126.5 -18t102.5 -49.5t79 -73.5t57 -90v676q0 18 8.5 28.5t29.5 10.5h41q21 0 28.5 -10.5t7.5 -28.5v-1403zM918 488q0 82 -29 155t-79 127.5t-116 86t-140 31.5t-140 -31.5
t-115.5 -86t-78 -127.5t-28.5 -155t28.5 -155t78 -127.5t115.5 -86t140 -31.5t140 31.5t116 86t79 127.5t29 155z" />
    <glyph glyph-name="Emacron" unicode="&#x112;" horiz-adv-x="1284" 
d="M162 1453q0 32 32 32h972q15 0 25 -6t10 -22v-55q0 -17 -10 -24t-25 -7h-889v-537h714q17 0 27.5 -7.5t10.5 -24.5v-51q0 -17 -10.5 -25t-27.5 -8h-714v-603h903q16 0 25 -7.5t9 -18.5v-61q0 -28 -34 -28h-986q-32 0 -32 32v1421zM1005 1792q34 0 34 -32v-38
q0 -14 -8.5 -24t-25.5 -10h-592q-33 0 -33 34v38q0 32 33 32h592z" />
    <glyph glyph-name="emacron" unicode="&#x113;" horiz-adv-x="1064" 
d="M568 -22q-100 0 -187.5 40.5t-152.5 110t-102.5 162t-37.5 197.5q0 106 37 199.5t101.5 163t150 109.5t183.5 40q93 0 176.5 -39t146.5 -105.5t99.5 -156.5t36.5 -192q0 -37 -22.5 -48.5t-56.5 -11.5h-736q4 -75 34.5 -139.5t79.5 -112.5t113 -76t136 -30h3
q85 0 159.5 33.5t129.5 89.5q13 14 28 14.5t23 -10.5l25 -33q13 -17 11 -29.5t-26 -33.5q-72 -63 -160 -102.5t-191 -39.5h-1zM557 887q-65 0 -123.5 -25t-104.5 -69t-77.5 -104.5t-43.5 -131.5h697q-9 70 -40.5 130.5t-78 105t-106 69.5t-123.5 25zM859 1290q34 0 34 -32
v-38q0 -14 -8.5 -24t-25.5 -10h-592q-33 0 -33 34v38q0 32 33 32h592z" />
    <glyph glyph-name="Ebreve" unicode="&#x114;" horiz-adv-x="1284" 
d="M162 1453q0 32 32 32h972q15 0 25 -6t10 -22v-55q0 -17 -10 -24t-25 -7h-889v-537h714q17 0 27.5 -7.5t10.5 -24.5v-51q0 -17 -10.5 -25t-27.5 -8h-714v-603h903q16 0 25 -7.5t9 -18.5v-61q0 -28 -34 -28h-986q-32 0 -32 32v1421zM709 1732q-46 0 -85.5 16.5t-68 43.5
t-44.5 62t-16 73q0 14 3.5 27.5t22.5 13.5h46q15 0 19.5 -10.5t4.5 -27.5t8 -35t23 -33t37.5 -24.5t51.5 -9.5q27 0 49 10t37.5 25t23.5 33.5t8 35.5q0 16 4.5 26t18.5 10h58q16 0 17.5 -13.5t1.5 -26.5q0 -38 -17 -73.5t-47 -63t-70 -43.5t-86 -16z" />
    <glyph glyph-name="ebreve" unicode="&#x115;" horiz-adv-x="1064" 
d="M568 -22q-100 0 -187.5 40.5t-152.5 110t-102.5 162t-37.5 197.5q0 106 37 199.5t101.5 163t150 109.5t183.5 40q93 0 176.5 -39t146.5 -105.5t99.5 -156.5t36.5 -192q0 -37 -22.5 -48.5t-56.5 -11.5h-736q4 -75 34.5 -139.5t79.5 -112.5t113 -76t136 -30h3
q85 0 159.5 33.5t129.5 89.5q13 14 28 14.5t23 -10.5l25 -33q13 -17 11 -29.5t-26 -33.5q-72 -63 -160 -102.5t-191 -39.5h-1zM557 887q-65 0 -123.5 -25t-104.5 -69t-77.5 -104.5t-43.5 -131.5h697q-9 70 -40.5 130.5t-78 105t-106 69.5t-123.5 25zM582 1211
q-46 0 -85.5 16.5t-68 43.5t-44.5 62t-16 73q0 14 3.5 27.5t22.5 13.5h46q15 0 19.5 -10.5t4.5 -27.5t8 -35t23 -33t37.5 -24.5t51.5 -9.5q27 0 49 10t37.5 25t23.5 33.5t8 35.5q0 16 4.5 26t18.5 10h58q16 0 17.5 -13.5t1.5 -26.5q0 -38 -17 -73.5t-47 -63t-70 -43.5
t-86 -16z" />
    <glyph glyph-name="Edotaccent" unicode="&#x116;" horiz-adv-x="1284" 
d="M162 1453q0 32 32 32h972q15 0 25 -6t10 -22v-55q0 -17 -10 -24t-25 -7h-889v-537h714q17 0 27.5 -7.5t10.5 -24.5v-51q0 -17 -10.5 -25t-27.5 -8h-714v-603h903q16 0 25 -7.5t9 -18.5v-61q0 -28 -34 -28h-986q-32 0 -32 32v1421zM632 1770q0 19 7.5 36t20 30t29.5 20
t36 7q39 0 66 -27t27 -66q0 -19 -7 -36t-20 -29.5t-30 -19.5t-36 -7t-36 7t-29.5 19.5t-20 29.5t-7.5 36z" />
    <glyph glyph-name="edotaccent" unicode="&#x117;" horiz-adv-x="1064" 
d="M568 -22q-100 0 -187.5 40.5t-152.5 110t-102.5 162t-37.5 197.5q0 106 37 199.5t101.5 163t150 109.5t183.5 40q93 0 176.5 -39t146.5 -105.5t99.5 -156.5t36.5 -192q0 -37 -22.5 -48.5t-56.5 -11.5h-736q4 -75 34.5 -139.5t79.5 -112.5t113 -76t136 -30h3
q85 0 159.5 33.5t129.5 89.5q13 14 28 14.5t23 -10.5l25 -33q13 -17 11 -29.5t-26 -33.5q-72 -63 -160 -102.5t-191 -39.5h-1zM557 887q-65 0 -123.5 -25t-104.5 -69t-77.5 -104.5t-43.5 -131.5h697q-9 70 -40.5 130.5t-78 105t-106 69.5t-123.5 25zM490 1268q0 19 7.5 36
t20 30t29.5 20t36 7q39 0 66 -27t27 -66q0 -19 -7 -36t-20 -29.5t-30 -19.5t-36 -7t-36 7t-29.5 19.5t-20 29.5t-7.5 36z" />
    <glyph glyph-name="Eogonek" unicode="&#x118;" horiz-adv-x="1284" 
d="M162 1453q0 32 32 32h972q15 0 25 -6t10 -22v-55q0 -17 -10 -24t-25 -7h-889v-537h714q17 0 27.5 -7.5t10.5 -24.5v-51q0 -17 -10.5 -25t-27.5 -8h-714v-603h903q16 0 25 -7.5t9 -18.5v-61q0 -28 -34 -28h-986q-32 0 -32 32v1421zM1214 -104q0 -17 -1.5 -27.5t-6.5 -17.5
t-15 -12.5t-26 -11.5q-55 -21 -85.5 -46t-30.5 -66q0 -20 12.5 -37t32 -31t43 -24.5t45.5 -16.5q16 -5 21.5 -15.5t0.5 -21.5l-16 -40q-4 -10 -10 -13.5t-13 -2.5t-14.5 3.5l-13.5 4.5q-92 29 -141 79.5t-49 107.5q0 37 11.5 66.5t31 52t45.5 38.5t55 26q9 3 14 7.5t8 12.5
t4 20t1 31l2 90h95v-156z" />
    <glyph glyph-name="eogonek" unicode="&#x119;" horiz-adv-x="1064" 
d="M568 -22q-100 0 -187.5 40.5t-152.5 110t-102.5 162t-37.5 197.5q0 106 37 199.5t101.5 163t150 109.5t183.5 40q93 0 176.5 -39t146.5 -105.5t99.5 -156.5t36.5 -192q0 -37 -22.5 -48.5t-56.5 -11.5h-736q4 -75 34.5 -139.5t79.5 -112.5t113 -76t136 -30h3
q85 0 159.5 33.5t129.5 89.5q13 14 28 14.5t23 -10.5l25 -33q13 -17 11 -29.5t-26 -33.5q-72 -63 -160 -102.5t-191 -39.5h-1zM557 887q-65 0 -123.5 -25t-104.5 -69t-77.5 -104.5t-43.5 -131.5h697q-9 70 -40.5 130.5t-78 105t-106 69.5t-123.5 25zM599 -113
q0 -17 -1.5 -27.5t-6.5 -17.5t-15 -12.5t-26 -11.5q-55 -21 -85.5 -46t-30.5 -66q0 -20 12.5 -37t32 -31t43 -24.5t45.5 -16.5q16 -5 21.5 -15.5t0.5 -21.5l-16 -40q-4 -10 -10 -13.5t-13 -2.5t-14.5 3.5l-13.5 4.5q-92 29 -141 79.5t-49 107.5q0 37 11.5 66.5t31 52
t45.5 38.5t55 26q9 3 14 7.5t8 12.5t4 20t1 31l2 90h95v-156z" />
    <glyph glyph-name="Ecaron" unicode="&#x11a;" horiz-adv-x="1284" 
d="M162 1453q0 32 32 32h972q15 0 25 -6t10 -22v-55q0 -17 -10 -24t-25 -7h-889v-537h714q17 0 27.5 -7.5t10.5 -24.5v-51q0 -17 -10.5 -25t-27.5 -8h-714v-603h903q16 0 25 -7.5t9 -18.5v-61q0 -28 -34 -28h-986q-32 0 -32 32v1421zM740 1686q-6 -5 -10.5 -8.5t-12.5 -3.5
q-7 0 -11 2t-11 10l-229 229q-10 11 -13.5 20t7.5 21l39 36q10 11 19 6t19 -14l180 -182l180 180q10 10 19.5 13.5t20.5 -6.5l37 -34q13 -12 7.5 -21.5t-13.5 -20.5z" />
    <glyph glyph-name="ecaron" unicode="&#x11b;" horiz-adv-x="1064" 
d="M568 -22q-100 0 -187.5 40.5t-152.5 110t-102.5 162t-37.5 197.5q0 106 37 199.5t101.5 163t150 109.5t183.5 40q93 0 176.5 -39t146.5 -105.5t99.5 -156.5t36.5 -192q0 -37 -22.5 -48.5t-56.5 -11.5h-736q4 -75 34.5 -139.5t79.5 -112.5t113 -76t136 -30h3
q85 0 159.5 33.5t129.5 89.5q13 14 28 14.5t23 -10.5l25 -33q13 -17 11 -29.5t-26 -33.5q-72 -63 -160 -102.5t-191 -39.5h-1zM557 887q-65 0 -123.5 -25t-104.5 -69t-77.5 -104.5t-43.5 -131.5h697q-9 70 -40.5 130.5t-78 105t-106 69.5t-123.5 25zM599 1184
q-6 -5 -10.5 -8.5t-12.5 -3.5q-7 0 -11 2t-11 10l-229 229q-10 11 -13.5 20t7.5 21l39 36q10 11 19 6t19 -14l180 -182l180 180q10 10 19.5 13.5t20.5 -6.5l37 -34q13 -12 7.5 -21.5t-13.5 -20.5z" />
    <glyph glyph-name="Gcircumflex" unicode="&#x11c;" horiz-adv-x="1452" 
d="M852 96q51 0 103.5 9.5t101 26t91.5 39t75 48.5v403q0 16 8 25.5t25 9.5h53q31 0 31 -35v-438q0 -11 -3.5 -20t-12.5 -16q-94 -73 -214 -119.5t-256 -46.5q-108 0 -207 27t-184 76t-154.5 118.5t-118.5 154.5t-75.5 182t-26.5 203t27.5 203.5t77 181.5t119.5 153.5
t155 118.5t182.5 76t203.5 27q137 0 252.5 -44t212.5 -122q10 -8 13.5 -15t3.5 -13t-2 -10.5t-4 -6.5l-33 -44q-2 -2 -6 -5.5t-10.5 -5t-14.5 -0.5t-17 8q-83 61 -182 101t-212 40q-90 0 -173 -23t-155 -64.5t-131.5 -100.5t-102 -130.5t-65.5 -153.5t-23 -171
q0 -133 51 -250.5t139.5 -206t206 -139.5t251.5 -51zM801 2007q23 26 48 1l228 -226q23 -21 2 -44l-29 -28q-12 -13 -24 -9.5t-23 14.5l-178 175l-180 -179q-11 -11 -22.5 -12t-22.5 10l-30 32q-11 11 -8.5 21.5t11.5 19.5z" />
    <glyph glyph-name="gcircumflex" unicode="&#x11d;" horiz-adv-x="1192" 
d="M1048 146q0 -135 -34.5 -236t-97.5 -169t-151.5 -102t-196.5 -34q-78 0 -140 19t-120 51q-12 7 -18 12.5t-6 14.5q0 5 6 15t13.5 21t14.5 20.5t9 12.5q6 9 13.5 11t16.5 0t19 -7.5t22 -10.5q38 -17 80.5 -29t84.5 -12q70 0 136.5 24t118 71.5t82.5 118.5t31 164v100
q-20 -53 -56.5 -95t-85.5 -70.5t-107 -43.5t-121 -15q-102 0 -190 40t-152.5 109t-101.5 162t-37 199t36.5 199.5t101 163.5t152.5 110t191 40q66 0 127 -17t110.5 -48t85.5 -73.5t51 -93.5l4 170q1 20 10 30.5t29 10.5h34q36 0 36 -41v-792zM934 486q0 82 -28 155t-78 128
t-118.5 87t-148.5 32q-81 0 -148.5 -32t-116 -86.5t-76 -127.5t-27.5 -155t27.5 -154.5t76.5 -126.5t116.5 -85.5t147.5 -31.5q79 0 147.5 31t118.5 84.5t78.5 126t28.5 155.5zM524 1505q23 26 48 1l228 -226q23 -21 2 -44l-29 -28q-12 -13 -24 -9.5t-23 14.5l-178 175
l-180 -179q-11 -11 -22.5 -12t-22.5 10l-30 32q-11 11 -8.5 21.5t11.5 19.5z" />
    <glyph glyph-name="Gbreve" unicode="&#x11e;" horiz-adv-x="1452" 
d="M852 96q51 0 103.5 9.5t101 26t91.5 39t75 48.5v403q0 16 8 25.5t25 9.5h53q31 0 31 -35v-438q0 -11 -3.5 -20t-12.5 -16q-94 -73 -214 -119.5t-256 -46.5q-108 0 -207 27t-184 76t-154.5 118.5t-118.5 154.5t-75.5 182t-26.5 203t27.5 203.5t77 181.5t119.5 153.5
t155 118.5t182.5 76t203.5 27q137 0 252.5 -44t212.5 -122q10 -8 13.5 -15t3.5 -13t-2 -10.5t-4 -6.5l-33 -44q-2 -2 -6 -5.5t-10.5 -5t-14.5 -0.5t-17 8q-83 61 -182 101t-212 40q-90 0 -173 -23t-155 -64.5t-131.5 -100.5t-102 -130.5t-65.5 -153.5t-23 -171
q0 -133 51 -250.5t139.5 -206t206 -139.5t251.5 -51zM853 1732q-46 0 -85.5 16.5t-68 43.5t-44.5 62t-16 73q0 14 3.5 27.5t22.5 13.5h46q15 0 19.5 -10.5t4.5 -27.5t8 -35t23 -33t37.5 -24.5t51.5 -9.5q27 0 49 10t37.5 25t23.5 33.5t8 35.5q0 16 4.5 26t18.5 10h58
q16 0 17.5 -13.5t1.5 -26.5q0 -38 -17 -73.5t-47 -63t-70 -43.5t-86 -16z" />
    <glyph glyph-name="gbreve" unicode="&#x11f;" horiz-adv-x="1192" 
d="M1048 146q0 -135 -34.5 -236t-97.5 -169t-151.5 -102t-196.5 -34q-78 0 -140 19t-120 51q-12 7 -18 12.5t-6 14.5q0 5 6 15t13.5 21t14.5 20.5t9 12.5q6 9 13.5 11t16.5 0t19 -7.5t22 -10.5q38 -17 80.5 -29t84.5 -12q70 0 136.5 24t118 71.5t82.5 118.5t31 164v100
q-20 -53 -56.5 -95t-85.5 -70.5t-107 -43.5t-121 -15q-102 0 -190 40t-152.5 109t-101.5 162t-37 199t36.5 199.5t101 163.5t152.5 110t191 40q66 0 127 -17t110.5 -48t85.5 -73.5t51 -93.5l4 170q1 20 10 30.5t29 10.5h34q36 0 36 -41v-792zM934 486q0 82 -28 155t-78 128
t-118.5 87t-148.5 32q-81 0 -148.5 -32t-116 -86.5t-76 -127.5t-27.5 -155t27.5 -154.5t76.5 -126.5t116.5 -85.5t147.5 -31.5q79 0 147.5 31t118.5 84.5t78.5 126t28.5 155.5zM553 1230q-46 0 -85.5 16.5t-68 43.5t-44.5 62t-16 73q0 14 3.5 27.5t22.5 13.5h46
q15 0 19.5 -10.5t4.5 -27.5t8 -35t23 -33t37.5 -24.5t51.5 -9.5q27 0 49 10t37.5 25t23.5 33.5t8 35.5q0 16 4.5 26t18.5 10h58q16 0 17.5 -13.5t1.5 -26.5q0 -38 -17 -73.5t-47 -63t-70 -43.5t-86 -16z" />
    <glyph glyph-name="Gdotaccent" unicode="&#x120;" horiz-adv-x="1452" 
d="M852 96q51 0 103.5 9.5t101 26t91.5 39t75 48.5v403q0 16 8 25.5t25 9.5h53q31 0 31 -35v-438q0 -11 -3.5 -20t-12.5 -16q-94 -73 -214 -119.5t-256 -46.5q-108 0 -207 27t-184 76t-154.5 118.5t-118.5 154.5t-75.5 182t-26.5 203t27.5 203.5t77 181.5t119.5 153.5
t155 118.5t182.5 76t203.5 27q137 0 252.5 -44t212.5 -122q10 -8 13.5 -15t3.5 -13t-2 -10.5t-4 -6.5l-33 -44q-2 -2 -6 -5.5t-10.5 -5t-14.5 -0.5t-17 8q-83 61 -182 101t-212 40q-90 0 -173 -23t-155 -64.5t-131.5 -100.5t-102 -130.5t-65.5 -153.5t-23 -171
q0 -133 51 -250.5t139.5 -206t206 -139.5t251.5 -51zM768 1770q0 19 7.5 36t20 30t29.5 20t36 7q39 0 66 -27t27 -66q0 -19 -7 -36t-20 -29.5t-30 -19.5t-36 -7t-36 7t-29.5 19.5t-20 29.5t-7.5 36z" />
    <glyph glyph-name="gdotaccent" unicode="&#x121;" horiz-adv-x="1192" 
d="M1048 146q0 -135 -34.5 -236t-97.5 -169t-151.5 -102t-196.5 -34q-78 0 -140 19t-120 51q-12 7 -18 12.5t-6 14.5q0 5 6 15t13.5 21t14.5 20.5t9 12.5q6 9 13.5 11t16.5 0t19 -7.5t22 -10.5q38 -17 80.5 -29t84.5 -12q70 0 136.5 24t118 71.5t82.5 118.5t31 164v100
q-20 -53 -56.5 -95t-85.5 -70.5t-107 -43.5t-121 -15q-102 0 -190 40t-152.5 109t-101.5 162t-37 199t36.5 199.5t101 163.5t152.5 110t191 40q66 0 127 -17t110.5 -48t85.5 -73.5t51 -93.5l4 170q1 20 10 30.5t29 10.5h34q36 0 36 -41v-792zM934 486q0 82 -28 155t-78 128
t-118.5 87t-148.5 32q-81 0 -148.5 -32t-116 -86.5t-76 -127.5t-27.5 -155t27.5 -154.5t76.5 -126.5t116.5 -85.5t147.5 -31.5q79 0 147.5 31t118.5 84.5t78.5 126t28.5 155.5zM490 1268q0 19 7.5 36t20 30t29.5 20t36 7q39 0 66 -27t27 -66q0 -19 -7 -36t-20 -29.5
t-30 -19.5t-36 -7t-36 7t-29.5 19.5t-20 29.5t-7.5 36z" />
    <glyph glyph-name="Gcommaaccent" unicode="&#x122;" horiz-adv-x="1452" 
d="M852 96q51 0 103.5 9.5t101 26t91.5 39t75 48.5v403q0 16 8 25.5t25 9.5h53q31 0 31 -35v-438q0 -11 -3.5 -20t-12.5 -16q-94 -73 -214 -119.5t-256 -46.5q-108 0 -207 27t-184 76t-154.5 118.5t-118.5 154.5t-75.5 182t-26.5 203t27.5 203.5t77 181.5t119.5 153.5
t155 118.5t182.5 76t203.5 27q137 0 252.5 -44t212.5 -122q10 -8 13.5 -15t3.5 -13t-2 -10.5t-4 -6.5l-33 -44q-2 -2 -6 -5.5t-10.5 -5t-14.5 -0.5t-17 8q-83 61 -182 101t-212 40q-90 0 -173 -23t-155 -64.5t-131.5 -100.5t-102 -130.5t-65.5 -153.5t-23 -171
q0 -133 51 -250.5t139.5 -206t206 -139.5t251.5 -51zM765 -220q0 40 27.5 67t66.5 27q47 0 71 -31.5t24 -80.5q0 -50 -8 -85t-19 -57.5t-22 -35t-16 -17.5q-6 -7 -15 -11t-19 4l-30 24q-5 4 -6 9t0 9.5t3.5 8t3.5 5.5q8 14 17 27.5t9 31.5v11q-36 6 -61.5 31t-25.5 63z" />
    <glyph glyph-name="gcommaaccent" unicode="&#x123;" horiz-adv-x="1192" 
d="M1048 146q0 -135 -34.5 -236t-97.5 -169t-151.5 -102t-196.5 -34q-78 0 -140 19t-120 51q-12 7 -18 12.5t-6 14.5q0 5 6 15t13.5 21t14.5 20.5t9 12.5q6 9 13.5 11t16.5 0t19 -7.5t22 -10.5q38 -17 80.5 -29t84.5 -12q70 0 136.5 24t118 71.5t82.5 118.5t31 164v100
q-20 -53 -56.5 -95t-85.5 -70.5t-107 -43.5t-121 -15q-102 0 -190 40t-152.5 109t-101.5 162t-37 199t36.5 199.5t101 163.5t152.5 110t191 40q66 0 127 -17t110.5 -48t85.5 -73.5t51 -93.5l4 170q1 20 10 30.5t29 10.5h34q36 0 36 -41v-792zM934 486q0 82 -28 155t-78 128
t-118.5 87t-148.5 32q-81 0 -148.5 -32t-116 -86.5t-76 -127.5t-27.5 -155t27.5 -154.5t76.5 -126.5t116.5 -85.5t147.5 -31.5q79 0 147.5 31t118.5 84.5t78.5 126t28.5 155.5zM670.016 1276.01q0 -40.9951 -27.9961 -68.4922q-27.9971 -27.4961 -67.9922 -27.4961
q-47.9941 0 -72.4912 31.9961t-24.4971 81.9893q0 50.9941 8.49902 86.4902q8.49902 35.4951 19.498 58.9922q10.998 23.4971 21.9971 36.4961q10.998 12.998 15.998 17.998q6.99902 6.99902 15.998 10.998q8.99902 4 18.998 -3.99902l30.9961 -24.9971
q4.99902 -4 5.99902 -8.99902t0 -9.49902q-1 -4.49902 -3.5 -7.99902q-2.49902 -3.49902 -3.49902 -5.49902q-7.99902 -14.998 -17.498 -28.4971q-9.49902 -13.498 -9.49902 -32.4961v-10.998q36.9951 -5.99902 62.9922 -31.9961t25.9971 -63.9922z" />
    <glyph glyph-name="Hcircumflex" unicode="&#x124;" horiz-adv-x="1542" 
d="M1253 703h-976v-668q0 -16 -7 -25.5t-24 -9.5h-52q-16 0 -24 9.5t-8 25.5v1414q0 15 8 25.5t24 10.5h53q30 0 30 -35v-634h976v633q0 15 7 25.5t24 10.5h53q31 0 31 -35v-1415q0 -16 -8 -25.5t-25 -9.5h-51q-17 0 -24 9.5t-7 25.5v668zM722 2007q23 26 48 1l228 -226
q23 -21 2 -44l-29 -28q-12 -13 -24 -9.5t-23 14.5l-178 175l-180 -179q-11 -11 -22.5 -12t-22.5 10l-30 32q-11 11 -8.5 21.5t11.5 19.5z" />
    <glyph glyph-name="hcircumflex" unicode="&#x125;" horiz-adv-x="1132" 
d="M876 591q0 59 -20 112t-56.5 93.5t-87.5 64.5t-114 24q-60 0 -118 -22t-103 -61t-72.5 -91.5t-27.5 -113.5v-561q0 -36 -36 -36h-43q-36 0 -36 36v1411q0 17 7 27.5t25 10.5h49q17 0 25.5 -10.5t8.5 -27.5v-613q24 36 59 66.5t77.5 52.5t90.5 34.5t98 12.5q90 0 162 -34
t122.5 -92.5t77.5 -137t27 -167.5v-533q0 -36 -34 -36h-47q-18 0 -26 8t-8 28v555zM566 1847q23 26 48 1l228 -226q23 -21 2 -44l-29 -28q-12 -13 -24 -9.5t-23 14.5l-178 175l-180 -179q-11 -11 -22.5 -12t-22.5 10l-30 32q-11 11 -8.5 21.5t11.5 19.5z" />
    <glyph glyph-name="Hbar" unicode="&#x126;" horiz-adv-x="1546" 
d="M258 1140q-33 0 -33 -32v-38q0 -34 33 -34h1035q17 0 25.5 10t8.5 24v38q0 32 -34 32h-1035zM1253 703h-976v-668q0 -16 -7 -25.5t-24 -9.5h-52q-16 0 -24 9.5t-8 25.5v1414q0 15 8 25.5t24 10.5h53q30 0 30 -35v-634h976v633q0 15 7 25.5t24 10.5h53q31 0 31 -35v-1415
q0 -16 -8 -25.5t-25 -9.5h-51q-17 0 -24 9.5t-7 25.5v668z" />
    <glyph glyph-name="hbar" unicode="&#x127;" horiz-adv-x="1131" 
d="M510 1315q34 0 34 -32v-33q0 -14 -8.5 -24t-25.5 -10h-512q-33 0 -33 34v33q0 32 33 32h512zM874 591q0 59 -20 112t-56.5 93.5t-87.5 64.5t-114 24q-60 0 -118 -22t-103 -61t-72.5 -91.5t-27.5 -113.5v-561q0 -36 -36 -36h-43q-36 0 -36 36v1411q0 17 7 27.5t25 10.5h49
q17 0 25.5 -10.5t8.5 -27.5v-613q24 36 59 66.5t77.5 52.5t90.5 34.5t98 12.5q90 0 162 -34t122.5 -92.5t77.5 -137t27 -167.5v-533q0 -36 -34 -36h-47q-18 0 -26 8t-8 28v555z" />
    <glyph glyph-name="Itilde" unicode="&#x128;" horiz-adv-x="436" 
d="M161 1449q0 36 37 36h41q18 0 27.5 -9.5t9.5 -26.5v-1413q0 -36 -37 -36h-41q-37 0 -37 36v1413zM7 1711q-13 -15 -26.5 -14.5t-26.5 11.5l-14 15q-14 13 -12.5 23t14.5 25q38 46 77.5 70.5t89.5 24.5q31 0 61 -14t58.5 -31t56 -31t54.5 -14q15 0 28 5.5t24 14.5t20.5 20
t18.5 21q14 17 28.5 20t25.5 -7l19 -20q13 -12 10.5 -23.5t-10.5 -22.5q-36 -50 -78.5 -75.5t-93.5 -25.5q-32 0 -60.5 14t-55.5 31.5t-53 31.5t-53 14q-19 0 -33 -5t-25.5 -13.5t-21.5 -20t-22 -24.5z" />
    <glyph glyph-name="itilde" unicode="&#x129;" horiz-adv-x="435" 
d="M160 943q0 17 10.5 27t27.5 10h41q18 0 27.5 -10.5t9.5 -26.5v-907q0 -36 -36 -36h-41q-39 0 -39 36v907zM6 1209q-13 -15 -26.5 -14.5t-26.5 11.5l-14 15q-14 13 -12.5 23t14.5 25q38 46 77.5 70.5t89.5 24.5q31 0 61 -14t58.5 -31t56 -31t54.5 -14q15 0 28 5.5t24 14.5
t20.5 20t18.5 21q14 17 28.5 20t25.5 -7l19 -20q13 -12 10.5 -23.5t-10.5 -22.5q-36 -50 -78.5 -75.5t-93.5 -25.5q-32 0 -60.5 14t-55.5 31.5t-53 31.5t-53 14q-19 0 -33 -5t-25.5 -13.5t-21.5 -20t-22 -24.5z" />
    <glyph glyph-name="Imacron" unicode="&#x12a;" horiz-adv-x="436" 
d="M161 1449q0 36 37 36h41q18 0 27.5 -9.5t9.5 -26.5v-1413q0 -36 -37 -36h-41q-37 0 -37 36v1413zM517 1792q34 0 34 -32v-38q0 -14 -8.5 -24t-25.5 -10h-592q-33 0 -33 34v38q0 32 33 32h592z" />
    <glyph glyph-name="imacron" unicode="&#x12b;" horiz-adv-x="435" 
d="M160 943q0 17 10.5 27t27.5 10h41q18 0 27.5 -10.5t9.5 -26.5v-907q0 -36 -36 -36h-41q-39 0 -39 36v907zM510 1290q34 0 34 -32v-38q0 -14 -8.5 -24t-25.5 -10h-592q-33 0 -33 34v38q0 32 33 32h592z" />
    <glyph glyph-name="Ibreve" unicode="&#x12c;" horiz-adv-x="436" 
d="M161 1449q0 36 37 36h41q18 0 27.5 -9.5t9.5 -26.5v-1413q0 -36 -37 -36h-41q-37 0 -37 36v1413zM216 1732q-46 0 -85.5 16.5t-68 43.5t-44.5 62t-16 73q0 14 3.5 27.5t22.5 13.5h46q15 0 19.5 -10.5t4.5 -27.5t8 -35t23 -33t37.5 -24.5t51.5 -9.5q27 0 49 10t37.5 25
t23.5 33.5t8 35.5q0 16 4.5 26t18.5 10h58q16 0 17.5 -13.5t1.5 -26.5q0 -38 -17 -73.5t-47 -63t-70 -43.5t-86 -16z" />
    <glyph glyph-name="ibreve" unicode="&#x12d;" horiz-adv-x="435" 
d="M160 943q0 17 10.5 27t27.5 10h41q18 0 27.5 -10.5t9.5 -26.5v-907q0 -36 -36 -36h-41q-39 0 -39 36v907zM212 1230q-46 0 -85.5 16.5t-68 43.5t-44.5 62t-16 73q0 14 3.5 27.5t22.5 13.5h46q15 0 19.5 -10.5t4.5 -27.5t8 -35t23 -33t37.5 -24.5t51.5 -9.5q27 0 49 10
t37.5 25t23.5 33.5t8 35.5q0 16 4.5 26t18.5 10h58q16 0 17.5 -13.5t1.5 -26.5q0 -38 -17 -73.5t-47 -63t-70 -43.5t-86 -16z" />
    <glyph glyph-name="Iogonek" unicode="&#x12e;" horiz-adv-x="436" 
d="M161 1449q0 36 37 36h41q18 0 27.5 -9.5t9.5 -26.5v-1413q0 -36 -37 -36h-41q-37 0 -37 36v1413zM266 -104q0 -17 -1.5 -27.5t-6.5 -17.5t-15 -12.5t-26 -11.5q-55 -21 -85.5 -46t-30.5 -66q0 -20 12.5 -37t32 -31t43 -24.5t45.5 -16.5q16 -5 21.5 -15.5t0.5 -21.5
l-16 -40q-4 -10 -10 -13.5t-13 -2.5t-14.5 3.5l-13.5 4.5q-92 29 -141 79.5t-49 107.5q0 37 11.5 66.5t31 52t45.5 38.5t55 26q9 3 14 7.5t8 12.5t4 20t1 31l2 90h95v-156z" />
    <glyph glyph-name="iogonek" unicode="&#x12f;" horiz-adv-x="435" 
d="M161 942q0 37 37 37h41q17 0 27 -10t10 -27v-906q0 -36 -37 -36h-41q-37 0 -37 36v906zM124 1265q0 19 7.5 36t20 30t29.5 20t36 7q39 0 66 -27t27 -66q0 -19 -7 -36t-20 -29.5t-30 -19.5t-36 -7t-36 7t-29.5 19.5t-20 29.5t-7.5 36zM266 -104q0 -17 -1.5 -27.5
t-6.5 -17.5t-15 -12.5t-26 -11.5q-55 -21 -85.5 -46t-30.5 -66q0 -20 12.5 -37t32 -31t43 -24.5t45.5 -16.5q16 -5 21.5 -15.5t0.5 -21.5l-16 -40q-4 -10 -10 -13.5t-13 -2.5t-14.5 3.5l-13.5 4.5q-92 29 -141 79.5t-49 107.5q0 37 11.5 66.5t31 52t45.5 38.5t55 26
q9 3 14 7.5t8 12.5t4 20t1 31l2 90h95v-156z" />
    <glyph glyph-name="Idotaccent" unicode="&#x130;" horiz-adv-x="436" 
d="M161 1449q0 36 37 36h41q18 0 27.5 -9.5t9.5 -26.5v-1413q0 -36 -37 -36h-41q-37 0 -37 36v1413zM126 1771q0 19 7.5 36t20 30t29.5 20t36 7q39 0 66 -27t27 -66q0 -19 -7 -36t-20 -29.5t-30 -19.5t-36 -7t-36 7t-29.5 19.5t-20 29.5t-7.5 36z" />
    <glyph glyph-name="dotlessi" unicode="&#x131;" horiz-adv-x="435" 
d="M160 943q0 17 10.5 27t27.5 10h41q18 0 27.5 -10.5t9.5 -26.5v-907q0 -36 -36 -36h-41q-39 0 -39 36v907z" />
    <glyph glyph-name="IJ" unicode="&#x132;" horiz-adv-x="877" 
d="M161 1449q0 36 37 36h42q17 0 26.5 -9.5t9.5 -26.5v-1413q0 -36 -36 -36h-42q-37 0 -37 36v1413zM600 1449q0 17 8 26.5t22 9.5h52q17 0 24.5 -10.5t7.5 -27.5v-1344v-79.5t-2 -78.5q-3 -69 -28.5 -128.5t-69 -103.5t-103.5 -69t-134 -25q-69 0 -133 23t-114 72
l-10.5 10.5t-10.5 15t-4.5 17t7.5 16.5l41 42q13 13 26.5 6.5t22.5 -15.5q10 -10 26.5 -22.5t38.5 -24t48 -19.5t55 -8q55 0 98 20.5t72 54t44.5 76t15.5 86.5v1480z" />
    <glyph glyph-name="ij" unicode="&#x133;" horiz-adv-x="806" 
d="M165 942q0 37 37 37h41q17 0 27 -10t10 -27v-906q0 -36 -37 -36h-41q-37 0 -37 36v906zM128 1265q0 19 7.5 36t20 30t29.5 20t36 7q39 0 66 -27t27 -66q0 -19 -7 -36t-20 -29.5t-30 -19.5t-36 -7t-36 7t-29.5 19.5t-20 29.5t-7.5 36zM562 939q0 20 7.5 30t27.5 10h45
q20 0 27.5 -11t7.5 -29v-985q0 -63 -23.5 -119.5t-64 -98.5t-95.5 -66.5t-118 -24.5q-22 0 -34.5 7.5t-12.5 21.5v49q0 17 12.5 25t29.5 8h3q42 1 76.5 17t59 43.5t38.5 63.5t14 77v982zM526 1265q0 19 7.5 36t20 30t29.5 20t36 7q39 0 66 -27t27 -66q0 -19 -7 -36
t-20 -29.5t-30 -19.5t-36 -7t-36 7t-29.5 19.5t-20 29.5t-7.5 36z" />
    <glyph glyph-name="Jcircumflex" unicode="&#x134;" horiz-adv-x="800" 
d="M513 1450q0 17 8 26.5t22 9.5h52q17 0 24.5 -10.5t7.5 -27.5v-981v-79.5t-2 -78.5q-3 -69 -28.5 -128.5t-69 -103.5t-103.5 -69t-134 -25q-69 0 -133 23t-114 72l-10.5 10.5t-10.5 15t-4.5 17t7.5 16.5l41 42q14 13 27 6.5t22 -15.5q10 -10 26.5 -22.5t38.5 -24t48 -19.5
t55 -8q55 0 98 20.5t72 54t44.5 76t15.5 86.5v1117zM536 2006q23 26 48 1l228 -226q23 -21 2 -44l-29 -28q-12 -13 -24 -9.5t-23 14.5l-178 175l-180 -179q-11 -11 -22.5 -12t-22.5 10l-30 32q-11 11 -8.5 21.5t11.5 19.5z" />
    <glyph glyph-name="jcircumflex" unicode="&#x135;" horiz-adv-x="426" 
d="M124 942q0 40 41 40h34q20 0 32 -14.5t12 -32.5l-3 -981q-1 -63 -24.5 -119.5t-64 -98.5t-95 -66.5t-117.5 -24.5q-22 0 -34.5 9.5t-12.5 29.5v33q0 20 12.5 29.5t29.5 9.5h3q42 1 76 17t59 43.5t38.5 63.5t13.5 77v985zM132 1505q23 26 48 1l228 -226q23 -21 2 -44
l-29 -28q-12 -13 -24 -9.5t-23 14.5l-178 175l-180 -179q-11 -11 -22.5 -12t-22.5 10l-30 32q-11 11 -8.5 21.5t11.5 19.5z" />
    <glyph glyph-name="Kcommaaccent" unicode="&#x136;" horiz-adv-x="1469" 
d="M687 869l696 -824q13 -15 4.5 -30t-25.5 -15h-82q-8 0 -18 5t-21 19l-631 763l-328 -348v-404q0 -16 -6.5 -25.5t-23.5 -9.5h-54q-17 0 -24.5 9.5t-7.5 25.5v1415q0 15 8 25t24 10h53q14 0 22.5 -9.5t8.5 -25.5v-842l804 855q14 14 23.5 18t17.5 4h79q9 0 15.5 -4.5
t9.5 -11.5t1.5 -15.5t-7.5 -15.5zM616 -320q0 40 27.5 67t66.5 27q47 0 71 -31.5t24 -80.5q0 -50 -8 -85t-19 -57.5t-22 -35t-16 -17.5q-6 -7 -15 -11t-19 4l-30 24q-5 4 -6 9t0 9.5t3.5 8t3.5 5.5q8 14 17 27.5t9 31.5v11q-36 6 -61.5 31t-25.5 63z" />
    <glyph glyph-name="kcommaaccent" unicode="&#x137;" horiz-adv-x="1046" 
d="M711 960q8 8 17 13.5t28 5.5h77q20 0 23 -15t-10 -27l-321 -310l491 -579q17 -20 8.5 -34t-26.5 -14h-74q-13 0 -23.5 9t-20.5 20l-437 515l-166 -159v-349q0 -36 -38 -36h-41q-36 0 -36 36v1411q0 17 7 27.5t25 10.5h50q17 0 25 -10.5t8 -27.5v-909zM435 -320
q0 40 27.5 67t66.5 27q47 0 71 -31.5t24 -80.5q0 -50 -8 -85t-19 -57.5t-22 -35t-16 -17.5q-6 -7 -15 -11t-19 4l-30 24q-5 4 -6 9t0 9.5t3.5 8t3.5 5.5q8 14 17 27.5t9 31.5v11q-36 6 -61.5 31t-25.5 63z" />
    <glyph glyph-name="kgreenlandic" unicode="&#x138;" horiz-adv-x="1046" 
d="M711 960q8 8 17 13.5t28 5.5h77q20 0 23 -15t-10 -27l-321 -310l491 -579q17 -20 8.5 -34t-26.5 -14h-74q-13 0 -23.5 9t-20.5 20l-437 515l-166 -159v-349q0 -36 -38 -36h-41q-36 0 -36 36v905q0 17 7 27.5t25 10.5h50q17 0 25 -10.5t8 -27.5v-403z" />
    <glyph glyph-name="Lacute" unicode="&#x139;" horiz-adv-x="1148" 
d="M162 1450q0 16 8 25.5t23 9.5h53q17 0 24 -9.5t7 -25.5v-1336h794q16 0 26 -6.5t10 -23.5v-51q0 -17 -10 -25t-26 -8h-878q-31 0 -31 32v1418zM294 1706q-10 -18 -18 -22t-17 -4h-60q-13 0 -17.5 9.5t5.5 28.5l104 243q8 17 16 21.5t18 4.5h67q14 0 17 -10.5t-5 -26.5z
" />
    <glyph glyph-name="lacute" unicode="&#x13a;" horiz-adv-x="435" 
d="M161 1448q0 37 37 37h42q17 0 26.5 -10t9.5 -27l-1 -1412q0 -36 -36 -36h-42q-37 0 -37 36zM282 1641q-10 -18 -18 -22t-17 -4h-60q-13 0 -17.5 9.5t5.5 28.5l104 243q8 17 16 21.5t18 4.5h67q14 0 17 -10.5t-5 -26.5z" />
    <glyph glyph-name="Lcommaaccent" unicode="&#x13b;" horiz-adv-x="1148" 
d="M162 1450q0 16 8 25.5t23 9.5h53q17 0 24 -9.5t7 -25.5v-1336h794q16 0 26 -6.5t10 -23.5v-51q0 -17 -10 -25t-26 -8h-878q-31 0 -31 32v1418zM476 -320q0 40 27.5 67t66.5 27q47 0 71 -31.5t24 -80.5q0 -50 -8 -85t-19 -57.5t-22 -35t-16 -17.5q-6 -7 -15 -11t-19 4
l-30 24q-5 4 -6 9t0 9.5t3.5 8t3.5 5.5q8 14 17 27.5t9 31.5v11q-36 6 -61.5 31t-25.5 63z" />
    <glyph glyph-name="lcommaaccent" unicode="&#x13c;" horiz-adv-x="435" 
d="M161 1448q0 37 37 37h42q17 0 26.5 -10t9.5 -27l-1 -1412q0 -36 -36 -36h-42q-37 0 -37 36zM121 -320q0 40 27.5 67t66.5 27q47 0 71 -31.5t24 -80.5q0 -50 -8 -85t-19 -57.5t-22 -35t-16 -17.5q-6 -7 -15 -11t-19 4l-30 24q-5 4 -6 9t0 9.5t3.5 8t3.5 5.5q8 14 17 27.5
t9 31.5v11q-36 6 -61.5 31t-25.5 63z" />
    <glyph glyph-name="Lcaron" unicode="&#x13d;" horiz-adv-x="1148" 
d="M162 1450q0 16 8 25.5t23 9.5h53q17 0 24 -9.5t7 -25.5v-1336h794q16 0 26 -6.5t10 -23.5v-51q0 -17 -10 -25t-26 -8h-878q-31 0 -31 32v1418zM558 1422q0 40 27.5 67t66.5 27q47 0 71 -31.5t24 -80.5q0 -50 -8 -85t-19 -57.5t-22 -35t-16 -17.5q-6 -7 -15 -11t-19 4
l-30 24q-5 4 -6 9t0 9.5t3.5 8t3.5 5.5q8 14 17 27.5t9 31.5v11q-36 6 -61.5 31t-25.5 63z" />
    <glyph glyph-name="lcaron" unicode="&#x13e;" horiz-adv-x="551" 
d="M159 1449q0 37 38 37h42q17 0 26.5 -10t9.5 -27v-1413q0 -36 -36 -36h-42q-38 0 -38 36v1413zM553 1394q0 -49 -10 -84.5t-23.5 -59t-28 -34.5t-24.5 -11q-8 0 -13 5l-7 6q-5 2 -13.5 10t-8.5 16t5 15t11 15t11 19t5 28v14h-1q-31 8 -52 29.5t-21 55.5q0 35 24.5 59.5
t59.5 24.5q43 0 64.5 -31t21.5 -77z" />
    <glyph glyph-name="Ldot" unicode="&#x13f;" horiz-adv-x="1148" 
d="M162 1450q0 16 8 25.5t23 9.5h53q17 0 24 -9.5t7 -25.5v-1336h794q16 0 26 -6.5t10 -23.5v-51q0 -17 -10 -25t-26 -8h-878q-31 0 -31 32v1418zM647 736q0 19 7.5 36t20 30t29.5 20t36 7q39 0 66 -27t27 -66q0 -19 -7 -36t-20 -29.5t-30 -19.5t-36 -7t-36 7t-29.5 19.5
t-20 29.5t-7.5 36z" />
    <glyph glyph-name="ldot" unicode="&#x140;" horiz-adv-x="464" 
d="M161 1448q0 37 37 37h42q17 0 26.5 -10t9.5 -27l-1 -1412q0 -36 -36 -36h-42q-37 0 -37 36zM341 684q0 19 7.5 36t20 30t29.5 20t36 7q39 0 66 -27t27 -66q0 -19 -7 -36t-20 -29.5t-30 -19.5t-36 -7t-36 7t-29.5 19.5t-20 29.5t-7.5 36z" />
    <glyph glyph-name="Lslash" unicode="&#x141;" horiz-adv-x="1148" 
d="M253 788l296 109q7 3 14 3q16 0 24 -20l12 -33q3 -8 3 -14q0 -9 -5.5 -17t-15.5 -11l-322 -120zM173 653l-164 -61q-5 -2 -13 -2q-20 0 -27 22l-12 33q-3 7 -3 14q0 17 23 26q22 9 47.5 18.5t52 19.5t52.5 19.5t49 17.5zM162 1450q0 16 8 25.5t23 9.5h53q17 0 24 -9.5
t7 -25.5v-1336h794q16 0 26 -6.5t10 -23.5v-51q0 -17 -10 -25t-26 -8h-878q-31 0 -31 32v1418z" />
    <glyph glyph-name="lslash" unicode="&#x142;" horiz-adv-x="435" 
d="M159 1449q0 37 38 37h42q17 0 26.5 -10t9.5 -27v-582q55 21 110 41t110 41q5 2 13 2q19 0 26 -20l12 -33q3 -8 3 -13q0 -20 -22 -28q-63 -24 -126 -47.5t-126 -46.5v-727q0 -36 -36 -36h-42q-38 0 -38 36v684q-51 -20 -102 -38.5t-102 -37.5q-8 -3 -14 -3q-19 0 -26 22
l-12 33q-3 7 -3 14q0 18 23 27l236 87v625z" />
    <glyph glyph-name="Nacute" unicode="&#x143;" horiz-adv-x="1542" 
d="M1287 1452q0 34 33 34h48q34 0 34 -32v-1425q0 -15 -9 -22t-23 -7h-52q-11 0 -20.5 6t-15.5 14l-1005 1273v-1257q0 -36 -37 -36h-42q-36 0 -36 36v1413q0 16 8 26t25 10h63q11 0 19 -10l1010 -1269v1246zM888 1706q-10 -18 -18 -22t-17 -4h-60q-13 0 -17.5 9.5t5.5 28.5
l104 243q8 17 16 21.5t18 4.5h67q14 0 17 -10.5t-5 -26.5z" />
    <glyph glyph-name="nacute" unicode="&#x144;" horiz-adv-x="1132" 
d="M277 36q0 -17 -6.5 -26.5t-23.5 -9.5h-53q-19 0 -25.5 9.5t-6.5 26.5v916q0 27 31 27h56q15 0 20.5 -9t5.5 -19l3 -125q25 37 59 69t75 55.5t87.5 37t97.5 13.5q86 0 159.5 -32t127.5 -89.5t85 -137t31 -174.5v-528q0 -20 -6.5 -30t-24.5 -10h-53q-20 0 -26 9.5t-6 29.5
v551q0 62 -24 116t-64.5 94t-95 63t-115.5 23q-60 0 -116 -22t-98.5 -60.5t-68 -91t-25.5 -113.5v-563zM643 1203q-10 -18 -18 -22t-17 -4h-60q-13 0 -17.5 9.5t5.5 28.5l104 243q8 17 16 21.5t18 4.5h67q14 0 17 -10.5t-5 -26.5z" />
    <glyph glyph-name="Ncommaaccent" unicode="&#x145;" horiz-adv-x="1542" 
d="M1287 1452q0 34 33 34h48q34 0 34 -32v-1425q0 -15 -9 -22t-23 -7h-52q-11 0 -20.5 6t-15.5 14l-1005 1273v-1257q0 -36 -37 -36h-42q-36 0 -36 36v1413q0 16 8 26t25 10h63q11 0 19 -10l1010 -1269v1246zM683 -320q0 40 27.5 67t66.5 27q47 0 71 -31.5t24 -80.5
q0 -50 -8 -85t-19 -57.5t-22 -35t-16 -17.5q-6 -7 -15 -11t-19 4l-30 24q-5 4 -6 9t0 9.5t3.5 8t3.5 5.5q8 14 17 27.5t9 31.5v11q-36 6 -61.5 31t-25.5 63z" />
    <glyph glyph-name="ncommaaccent" unicode="&#x146;" horiz-adv-x="1137" 
d="M277 36q0 -17 -6.5 -26.5t-23.5 -9.5h-53q-19 0 -25.5 9.5t-6.5 26.5v916q0 27 31 27h56q15 0 20.5 -9t5.5 -19l3 -125q25 37 59 69t75 55.5t87.5 37t97.5 13.5q86 0 159.5 -32t127.5 -89.5t85 -137t31 -174.5v-528q0 -20 -6.5 -30t-24.5 -10h-53q-20 0 -26 9.5t-6 29.5
v551q0 62 -24 116t-64.5 94t-95 63t-115.5 23q-60 0 -116 -22t-98.5 -60.5t-68 -91t-25.5 -113.5v-563zM465 -320q0 40 27.5 67t66.5 27q47 0 71 -31.5t24 -80.5q0 -50 -8 -85t-19 -57.5t-22 -35t-16 -17.5q-6 -7 -15 -11t-19 4l-30 24q-5 4 -6 9t0 9.5t3.5 8t3.5 5.5
q8 14 17 27.5t9 31.5v11q-36 6 -61.5 31t-25.5 63z" />
    <glyph glyph-name="Ncaron" unicode="&#x147;" horiz-adv-x="1542" 
d="M1287 1452q0 34 33 34h48q34 0 34 -32v-1425q0 -15 -9 -22t-23 -7h-52q-11 0 -20.5 6t-15.5 14l-1005 1273v-1257q0 -36 -37 -36h-42q-36 0 -36 36v1413q0 16 8 26t25 10h63q11 0 19 -10l1010 -1269v1246zM777 1687q-6 -5 -10.5 -8.5t-12.5 -3.5q-7 0 -11 2t-11 10
l-229 229q-10 11 -13.5 20t7.5 21l39 36q10 11 19 6t19 -14l180 -182l180 180q10 10 19.5 13.5t20.5 -6.5l37 -34q13 -12 7.5 -21.5t-13.5 -20.5z" />
    <glyph glyph-name="ncaron" unicode="&#x148;" horiz-adv-x="1132" 
d="M277 36q0 -17 -6.5 -26.5t-23.5 -9.5h-53q-19 0 -25.5 9.5t-6.5 26.5v916q0 27 31 27h56q15 0 20.5 -9t5.5 -19l3 -125q25 37 59 69t75 55.5t87.5 37t97.5 13.5q86 0 159.5 -32t127.5 -89.5t85 -137t31 -174.5v-528q0 -20 -6.5 -30t-24.5 -10h-53q-20 0 -26 9.5t-6 29.5
v551q0 62 -24 116t-64.5 94t-95 63t-115.5 23q-60 0 -116 -22t-98.5 -60.5t-68 -91t-25.5 -113.5v-563zM590 1184q-6 -5 -10.5 -8.5t-12.5 -3.5q-7 0 -11 2t-11 10l-229 229q-10 11 -13.5 20t7.5 21l39 36q10 11 19 6t19 -14l180 -182l180 180q10 10 19.5 13.5t20.5 -6.5
l37 -34q13 -12 7.5 -21.5t-13.5 -20.5z" />
    <glyph glyph-name="napostrophe" unicode="&#x149;" horiz-adv-x="1154" 
d="M299 36q0 -17 -6.5 -26.5t-23.5 -9.5h-53q-19 0 -25.5 9.5t-6.5 26.5v916q0 27 31 27h56q15 0 20.5 -9t5.5 -19l3 -125q25 37 59 69t75 55.5t87.5 37t97.5 13.5q86 0 159.5 -32t127.5 -89.5t85 -137t31 -174.5v-528q0 -20 -6.5 -30t-24.5 -10h-53q-20 0 -26 9.5t-6 29.5
v551q0 62 -24 116t-64.5 94t-95 63t-115.5 23q-60 0 -116 -22t-98.5 -60.5t-68 -91t-25.5 -113.5v-563zM-73 1394q0 40 27.5 67t66.5 27q47 0 71 -31.5t24 -80.5q0 -50 -8 -85t-19 -57.5t-22 -35t-16 -17.5q-6 -7 -15 -11t-19 4l-30 24q-5 4 -6 9t0 9.5t3.5 8t3.5 5.5
q8 14 17 27.5t9 31.5v11q-36 6 -61.5 31t-25.5 63z" />
    <glyph glyph-name="Eng" unicode="&#x14a;" horiz-adv-x="1542" 
d="M1402 43v-229q0 -74 -28 -136t-75.5 -106.5t-110.5 -69.5t-133 -25q-77 0 -147 25t-114 79q-5 0 -8.5 9.5t-3.5 12.5q0 6 4 12t10 12l32 33q8 8 14.5 9.5t9.5 1.5q10 0 27 -15q12 -12 27.5 -23.5t36.5 -21.5t48 -16t62 -6q51 0 93.5 19t73 50.5t47.5 73t19 85.5v226h116z
M1287 1452q0 34 33 34h48q34 0 34 -32v-1421q0 -33 -37 -33h-47q-20 0 -33 16l-1008 1277v-1257q0 -36 -37 -36h-42q-36 0 -36 36v1413q0 16 8 26t25 10h63q11 0 19 -10l1010 -1269v1246z" />
    <glyph glyph-name="eng" unicode="&#x14b;" horiz-adv-x="1182" 
d="M881 544q-1 23 -2.5 46t-4.5 46q-8 53 -34.5 98.5t-66 79t-89.5 52.5t-105 19q-60 0 -113 -22t-93 -60.5t-64.5 -91t-27.5 -113.5v-563q0 -17 -10.5 -26t-27.5 -9h-47q-34 0 -34 35v907q0 16 8 26t26 10h47q15 0 26.5 -9.5t11.5 -26.5v-130q26 38 59.5 72.5t73.5 60.5
t86 41t96 15q85 0 158 -32.5t126.5 -88.5t83.5 -131.5t30 -161.5v-715q0 -70 -27 -129t-72 -102.5t-104 -68t-124 -24.5h-3q-43 1 -43 46v24q0 44 45 44h1q46 0 84.5 18.5t67 48.5t44.5 68t18 78v669z" />
    <glyph glyph-name="Omacron" unicode="&#x14c;" horiz-adv-x="1706" 
d="M88 741q0 105 27 202.5t76.5 182t119 154.5t154.5 119.5t182 77t203 27.5q104 0 201.5 -27.5t182 -77t154 -119t119 -154.5t77 -183t27.5 -203t-27.5 -202t-77 -181.5t-119 -153.5t-154 -118.5t-182 -76.5t-202.5 -27t-202.5 27t-182 76.5t-154 119t-119 154t-76.5 181.5
t-27 202zM205 742q0 -134 50.5 -251t138 -204.5t205 -138t251.5 -50.5q88 0 170.5 23t154 65t130.5 100.5t101 130t65 154t23 171.5q0 133 -51 250t-138.5 204.5t-204.5 138.5t-250 51q-89 0 -171.5 -23t-154.5 -65t-130.5 -101t-100.5 -130.5t-65 -154t-23 -170.5z
M1144 1793q34 0 34 -32v-38q0 -14 -8.5 -24t-25.5 -10h-592q-33 0 -33 34v38q0 32 33 32h592z" />
    <glyph glyph-name="omacron" unicode="&#x14d;" horiz-adv-x="1167" 
d="M88 488q0 106 37.5 199.5t103.5 163t156.5 109.5t196.5 40q107 0 198 -40t157.5 -109.5t104 -163t37.5 -199.5t-37.5 -199t-104.5 -162.5t-158 -109.5t-197 -40q-105 0 -195.5 40t-157 109.5t-104 162.5t-37.5 199zM202 488q0 -82 28.5 -154.5t79.5 -127t121 -86
t153 -31.5q82 0 152 31.5t121 86t80 127t29 154.5t-29 155t-80 127.5t-121 86t-152 31.5q-83 0 -153 -31.5t-121 -86t-79.5 -127.5t-28.5 -155zM881 1290q34 0 34 -32v-38q0 -14 -8.5 -24t-25.5 -10h-592q-33 0 -33 34v38q0 32 33 32h592z" />
    <glyph glyph-name="Obreve" unicode="&#x14e;" horiz-adv-x="1706" 
d="M88 741q0 105 27 202.5t76.5 182t119 154.5t154.5 119.5t182 77t203 27.5q104 0 201.5 -27.5t182 -77t154 -119t119 -154.5t77 -183t27.5 -203t-27.5 -202t-77 -181.5t-119 -153.5t-154 -118.5t-182 -76.5t-202.5 -27t-202.5 27t-182 76.5t-154 119t-119 154t-76.5 181.5
t-27 202zM205 742q0 -134 50.5 -251t138 -204.5t205 -138t251.5 -50.5q88 0 170.5 23t154 65t130.5 100.5t101 130t65 154t23 171.5q0 133 -51 250t-138.5 204.5t-204.5 138.5t-250 51q-89 0 -171.5 -23t-154.5 -65t-130.5 -101t-100.5 -130.5t-65 -154t-23 -170.5z
M858 1733q-46 0 -85.5 16.5t-68 43.5t-44.5 62t-16 73q0 14 3.5 27.5t22.5 13.5h46q15 0 19.5 -10.5t4.5 -27.5t8 -35t23 -33t37.5 -24.5t51.5 -9.5q27 0 49 10t37.5 25t23.5 33.5t8 35.5q0 16 4.5 26t18.5 10h58q16 0 17.5 -13.5t1.5 -26.5q0 -38 -17 -73.5t-47 -63
t-70 -43.5t-86 -16z" />
    <glyph glyph-name="obreve" unicode="&#x14f;" horiz-adv-x="1167" 
d="M88 488q0 106 37.5 199.5t103.5 163t156.5 109.5t196.5 40q107 0 198 -40t157.5 -109.5t104 -163t37.5 -199.5t-37.5 -199t-104.5 -162.5t-158 -109.5t-197 -40q-105 0 -195.5 40t-157 109.5t-104 162.5t-37.5 199zM202 488q0 -82 28.5 -154.5t79.5 -127t121 -86
t153 -31.5q82 0 152 31.5t121 86t80 127t29 154.5t-29 155t-80 127.5t-121 86t-152 31.5q-83 0 -153 -31.5t-121 -86t-79.5 -127.5t-28.5 -155zM599 1230q-46 0 -85.5 16.5t-68 43.5t-44.5 62t-16 73q0 14 3.5 27.5t22.5 13.5h46q15 0 19.5 -10.5t4.5 -27.5t8 -35t23 -33
t37.5 -24.5t51.5 -9.5q27 0 49 10t37.5 25t23.5 33.5t8 35.5q0 16 4.5 26t18.5 10h58q16 0 17.5 -13.5t1.5 -26.5q0 -38 -17 -73.5t-47 -63t-70 -43.5t-86 -16z" />
    <glyph glyph-name="Ohungarumlaut" unicode="&#x150;" horiz-adv-x="1706" 
d="M88 741q0 105 27 202.5t76.5 182t119 154.5t154.5 119.5t182 77t203 27.5q104 0 201.5 -27.5t182 -77t154 -119t119 -154.5t77 -183t27.5 -203t-27.5 -202t-77 -181.5t-119 -153.5t-154 -118.5t-182 -76.5t-202.5 -27t-202.5 27t-182 76.5t-154 119t-119 154t-76.5 181.5
t-27 202zM205 742q0 -134 50.5 -251t138 -204.5t205 -138t251.5 -50.5q88 0 170.5 23t154 65t130.5 100.5t101 130t65 154t23 171.5q0 133 -51 250t-138.5 204.5t-204.5 138.5t-250 51q-89 0 -171.5 -23t-154.5 -65t-130.5 -101t-100.5 -130.5t-65 -154t-23 -170.5z
M780 1718q-10 -18 -18.5 -22t-16.5 -4h-65q-6 0 -13 3t-11.5 9t-5.5 14.5t5 19.5l108 214q8 17 18 21.5t20 4.5h59q7 0 13.5 -4t10.5 -11t4.5 -15.5t-4.5 -17.5zM1103 1718q-9 -18 -17.5 -22t-16.5 -4h-65q-6 0 -13 3t-11.5 9t-5.5 14.5t5 19.5l106 214q9 17 19.5 21.5
t20.5 4.5h58q14 -1 24.5 -14.5t-0.5 -33.5z" />
    <glyph glyph-name="ohungarumlaut" unicode="&#x151;" horiz-adv-x="1167" 
d="M88 488q0 106 37.5 199.5t103.5 163t156.5 109.5t196.5 40q107 0 198 -40t157.5 -109.5t104 -163t37.5 -199.5t-37.5 -199t-104.5 -162.5t-158 -109.5t-197 -40q-105 0 -195.5 40t-157 109.5t-104 162.5t-37.5 199zM202 488q0 -82 28.5 -154.5t79.5 -127t121 -86
t153 -31.5q82 0 152 31.5t121 86t80 127t29 154.5t-29 155t-80 127.5t-121 86t-152 31.5q-83 0 -153 -31.5t-121 -86t-79.5 -127.5t-28.5 -155zM462 1215q-10 -18 -18.5 -22t-16.5 -4h-65q-6 0 -13 3t-11.5 9t-5.5 14.5t5 19.5l108 214q8 17 18 21.5t20 4.5h59q7 0 13.5 -4
t10.5 -11t4.5 -15.5t-4.5 -17.5zM785 1215q-9 -18 -17.5 -22t-16.5 -4h-65q-6 0 -13 3t-11.5 9t-5.5 14.5t5 19.5l106 214q9 17 19.5 21.5t20.5 4.5h58q14 -1 24.5 -14.5t-0.5 -33.5z" />
    <glyph glyph-name="OE" unicode="&#x152;" horiz-adv-x="2570" 
d="M68 743q0 106 27.5 203.5t77 183t119.5 155.5t155 119.5t182.5 77t203.5 27.5q100 0 193.5 -25t175.5 -70.5t151 -109.5t120 -142v292q0 31 32 31h958q16 0 25.5 -7.5t9.5 -23.5v-51q0 -17 -9.5 -24.5t-25.5 -7.5h-866v-567h705q16 0 25.5 -6.5t9.5 -23.5v-46
q0 -34 -35 -34h-705v-580h886q16 0 25.5 -8t9.5 -23v-51q0 -17 -9.5 -24.5t-25.5 -7.5h-978q-32 0 -32 32v292q-51 -78 -120 -142t-151 -109t-175.5 -70t-193.5 -25q-106 0 -203.5 27.5t-182.5 77t-155 119.5t-119.5 155t-77 182.5t-27.5 203.5zM196 743q0 -133 49.5 -249.5
t136 -203.5t202.5 -137.5t249 -50.5q89 0 170.5 23t152.5 64.5t129 100t99.5 130t64 153t22.5 170.5t-22.5 171t-64 153.5t-99.5 130t-129 100t-152.5 64.5t-170.5 23t-170.5 -23t-152.5 -64.5t-129 -100t-99 -130t-63.5 -153.5t-22.5 -171z" />
    <glyph glyph-name="oe" unicode="&#x153;" horiz-adv-x="2044" 
d="M88 488q0 106 37.5 199.5t103.5 163t156.5 109.5t196.5 40q107 0 198 -40t157.5 -109.5t104 -163t37.5 -199.5t-37.5 -199t-104.5 -162.5t-158 -109.5t-197 -40q-105 0 -195.5 40t-157 109.5t-104 162.5t-37.5 199zM202 488q0 -82 28.5 -154.5t79.5 -127t121 -86
t153 -31.5q82 0 152 31.5t121 86t80 127t29 154.5t-29 155t-80 127.5t-121 86t-152 31.5q-83 0 -153 -31.5t-121 -86t-79.5 -127.5t-28.5 -155zM1446 -22q-100 0 -187.5 40.5t-152.5 110t-102.5 162t-37.5 197.5q0 106 37 199.5t101.5 163t150 109.5t183.5 40
q93 0 176.5 -39t146.5 -105.5t99.5 -156.5t36.5 -192q0 -37 -22.5 -48.5t-56.5 -11.5h-736q4 -75 34.5 -139.5t79.5 -112.5t113 -76t136 -30h3q85 0 159.5 33.5t129.5 89.5q13 14 28 14.5t23 -10.5l25 -33q13 -17 11 -29.5t-26 -33.5q-72 -63 -160 -102.5t-191 -39.5h-1z
M1435 887q-65 0 -123.5 -25t-104.5 -69t-77.5 -104.5t-43.5 -131.5h697q-9 70 -40.5 130.5t-78 105t-106 69.5t-123.5 25z" />
    <glyph glyph-name="Racute" unicode="&#x154;" horiz-adv-x="1342" 
d="M770 1485q97 0 181.5 -37t147 -100t98.5 -148t36 -181q0 -71 -20 -136t-56.5 -120t-87 -98.5t-111.5 -70.5l253 -555q7 -14 1.5 -26.5t-23.5 -12.5h-70q-18 0 -26 19l-246 545q-20 -5 -40.5 -7.5t-46.5 -2.5h-487v-518q0 -36 -36 -36h-43q-36 0 -36 36v1414q0 19 10 27
t26 8h576zM737 669q75 0 144 24t121.5 69t84 110t31.5 147q0 72 -27 136t-74.5 112t-111.5 76t-138 28h-494v-702h464zM657 1706q-10 -18 -18 -22t-17 -4h-60q-13 0 -17.5 9.5t5.5 28.5l104 243q8 17 16 21.5t18 4.5h67q14 0 17 -10.5t-5 -26.5z" />
    <glyph glyph-name="racute" unicode="&#x155;" horiz-adv-x="762" 
d="M162 933q0 23 7.5 34.5t25.5 11.5h50q17 0 22.5 -11t6.5 -28l3 -109q14 36 39 66.5t59 52t75 33.5t88 12q22 0 48 -4.5t51.5 -12t48.5 -18t40 -22.5q11 -8 21 -23.5t-1 -32.5l-30 -44q-8 -12 -21.5 -11t-19.5 5q-29 18 -67 33t-77 15q-56 0 -102.5 -25.5t-80 -68
t-52.5 -97t-19 -112.5v-541q0 -36 -37 -36h-41q-37 0 -37 34v899zM502 1203q-10 -18 -18 -22t-17 -4h-60q-13 0 -17.5 9.5t5.5 28.5l104 243q8 17 16 21.5t18 4.5h67q14 0 17 -10.5t-5 -26.5z" />
    <glyph glyph-name="Rcommaaccent" unicode="&#x156;" horiz-adv-x="1343" 
d="M770 1485q97 0 181.5 -37t147 -100t98.5 -148t36 -181q0 -71 -20 -136t-56.5 -120t-87 -98.5t-111.5 -70.5l253 -555q7 -14 1.5 -26.5t-23.5 -12.5h-70q-18 0 -26 19l-246 545q-20 -5 -40.5 -7.5t-46.5 -2.5h-487v-518q0 -36 -36 -36h-43q-36 0 -36 36v1414q0 19 10 27
t26 8h576zM737 669q75 0 144 24t121.5 69t84 110t31.5 147q0 72 -27 136t-74.5 112t-111.5 76t-138 28h-494v-702h464zM566 -320q0 40 27.5 67t66.5 27q47 0 71 -31.5t24 -80.5q0 -50 -8 -85t-19 -57.5t-22 -35t-16 -17.5q-6 -7 -15 -11t-19 4l-30 24q-5 4 -6 9t0 9.5t3.5 8
t3.5 5.5q8 14 17 27.5t9 31.5v11q-36 6 -61.5 31t-25.5 63z" />
    <glyph glyph-name="rcommaaccent" unicode="&#x157;" horiz-adv-x="762" 
d="M162 933q0 23 7.5 34.5t25.5 11.5h50q17 0 22.5 -11t6.5 -28l3 -109q14 36 39 66.5t59 52t75 33.5t88 12q22 0 48 -4.5t51.5 -12t48.5 -18t40 -22.5q11 -8 21 -23.5t-1 -32.5l-30 -44q-8 -12 -21.5 -11t-19.5 5q-29 18 -67 33t-77 15q-56 0 -102.5 -25.5t-80 -68
t-52.5 -97t-19 -112.5v-541q0 -36 -37 -36h-41q-37 0 -37 34v899zM133 -263q0 40 27.5 67t66.5 27q47 0 71 -31.5t24 -80.5q0 -50 -8 -85t-19 -57.5t-22 -35t-16 -17.5q-6 -7 -15 -11t-19 4l-30 24q-5 4 -6 9t0 9.5t3.5 8t3.5 5.5q8 14 17 27.5t9 31.5v11q-36 6 -61.5 31
t-25.5 63z" />
    <glyph glyph-name="Rcaron" unicode="&#x158;" horiz-adv-x="1342" 
d="M770 1485q97 0 181.5 -37t147 -100t98.5 -148t36 -181q0 -71 -20 -136t-56.5 -120t-87 -98.5t-111.5 -70.5l253 -555q7 -14 1.5 -26.5t-23.5 -12.5h-70q-18 0 -26 19l-246 545q-20 -5 -40.5 -7.5t-46.5 -2.5h-487v-518q0 -36 -36 -36h-43q-36 0 -36 36v1414q0 19 10 27
t26 8h576zM737 669q75 0 144 24t121.5 69t84 110t31.5 147q0 72 -27 136t-74.5 112t-111.5 76t-138 28h-494v-702h464zM660 1687q-6 -5 -10.5 -8.5t-12.5 -3.5q-7 0 -11 2t-11 10l-229 229q-10 11 -13.5 20t7.5 21l39 36q10 11 19 6t19 -14l180 -182l180 180
q10 10 19.5 13.5t20.5 -6.5l37 -34q13 -12 7.5 -21.5t-13.5 -20.5z" />
    <glyph glyph-name="rcaron" unicode="&#x159;" horiz-adv-x="762" 
d="M162 933q0 23 7.5 34.5t25.5 11.5h50q17 0 22.5 -11t6.5 -28l3 -109q14 36 39 66.5t59 52t75 33.5t88 12q22 0 48 -4.5t51.5 -12t48.5 -18t40 -22.5q11 -8 21 -23.5t-1 -32.5l-30 -44q-8 -12 -21.5 -11t-19.5 5q-29 18 -67 33t-77 15q-56 0 -102.5 -25.5t-80 -68
t-52.5 -97t-19 -112.5v-541q0 -36 -37 -36h-41q-37 0 -37 34v899zM397 1184q-6 -5 -10.5 -8.5t-12.5 -3.5q-7 0 -11 2t-11 10l-229 229q-10 11 -13.5 20t7.5 21l39 36q10 11 19 6t19 -14l180 -182l180 180q10 10 19.5 13.5t20.5 -6.5l37 -34q13 -12 7.5 -21.5t-13.5 -20.5z
" />
    <glyph glyph-name="Sacute" unicode="&#x15a;" horiz-adv-x="1282" 
d="M118 214q-11 12 -16 26.5t10 29.5l40 34q14 11 27 5.5t26 -19.5q37 -43 81.5 -79.5t98 -63t117.5 -41.5t141 -15q82 0 160 19.5t138.5 59.5t97 102t36.5 147q0 52 -21 91.5t-56 70t-80.5 52t-94 37t-97.5 26.5t-90 19q-125 27 -219 62.5t-157.5 83t-95.5 109t-32 142.5
q0 90 36 162t103 123t163.5 78.5t217.5 27.5q140 0 259.5 -47t210.5 -135q11 -11 12 -25.5t-11 -27.5l-34 -37q-17 -11 -31.5 -5t-29.5 20q-37 31 -74 56.5t-80 44t-93.5 29.5t-114.5 13q-71 2 -145 -10.5t-134 -44.5t-98.5 -87.5t-38.5 -138.5q0 -65 36 -111.5t95.5 -79.5
t136 -55.5t156.5 -39.5q60 -14 122 -29.5t119 -37t107.5 -50t87.5 -68.5t58.5 -93.5t21.5 -123.5q0 -110 -45 -192.5t-121 -137.5t-175 -82.5t-207 -27.5q-161 0 -291 56.5t-233 177.5zM728 1706q-10 -18 -18 -22t-17 -4h-60q-13 0 -17.5 9.5t5.5 28.5l104 243q8 17 16 21.5
t18 4.5h67q14 0 17 -10.5t-5 -26.5z" />
    <glyph glyph-name="sacute" unicode="&#x15b;" horiz-adv-x="850" 
d="M624 778q-32 52 -85 84t-121 32q-42 0 -77.5 -12t-61 -33.5t-40 -51.5t-14.5 -66t18 -62.5t46 -46t61 -32t63 -20.5q176 -45 261 -121.5t85 -185.5q0 -68 -28 -121t-76 -89t-110.5 -55t-131.5 -19q-57 0 -109 13.5t-95.5 39t-76.5 63.5t-51 88q-5 14 0.5 27.5t20.5 20.5
l38 17q17 7 29 1t18 -20l5 -10q16 -32 42 -56.5t57 -41t63 -25t59 -8.5q35 0 75.5 10t75 31t57.5 54t23 78q0 42 -22.5 74t-58 55.5t-79 39t-85.5 25.5q-56 13 -108 37t-92 58.5t-63.5 79t-23.5 100.5q0 61 22 111.5t62 86.5t96.5 55.5t125.5 19.5q103 0 182.5 -41.5
t131.5 -135.5q8 -14 5.5 -27t-17.5 -23l-35 -21q-29 -18 -46 2q-4 4 -7 9t-8 12zM496 1203q-10 -18 -18 -22t-17 -4h-60q-13 0 -17.5 9.5t5.5 28.5l104 243q8 17 16 21.5t18 4.5h67q14 0 17 -10.5t-5 -26.5z" />
    <glyph glyph-name="Scircumflex" unicode="&#x15c;" horiz-adv-x="1282" 
d="M118 214q-11 12 -16 26.5t10 29.5l40 34q14 11 27 5.5t26 -19.5q37 -43 81.5 -79.5t98 -63t117.5 -41.5t141 -15q82 0 160 19.5t138.5 59.5t97 102t36.5 147q0 52 -21 91.5t-56 70t-80.5 52t-94 37t-97.5 26.5t-90 19q-125 27 -219 62.5t-157.5 83t-95.5 109t-32 142.5
q0 90 36 162t103 123t163.5 78.5t217.5 27.5q140 0 259.5 -47t210.5 -135q11 -11 12 -25.5t-11 -27.5l-34 -37q-17 -11 -31.5 -5t-29.5 20q-37 31 -74 56.5t-80 44t-93.5 29.5t-114.5 13q-71 2 -145 -10.5t-134 -44.5t-98.5 -87.5t-38.5 -138.5q0 -65 36 -111.5t95.5 -79.5
t136 -55.5t156.5 -39.5q60 -14 122 -29.5t119 -37t107.5 -50t87.5 -68.5t58.5 -93.5t21.5 -123.5q0 -110 -45 -192.5t-121 -137.5t-175 -82.5t-207 -27.5q-161 0 -291 56.5t-233 177.5zM637 2008q23 26 48 1l228 -226q23 -21 2 -44l-29 -28q-12 -13 -24 -9.5t-23 14.5
l-178 175l-180 -179q-11 -11 -22.5 -12t-22.5 10l-30 32q-11 11 -8.5 21.5t11.5 19.5z" />
    <glyph glyph-name="scircumflex" unicode="&#x15d;" horiz-adv-x="850" 
d="M624 778q-32 52 -85 84t-121 32q-42 0 -77.5 -12t-61 -33.5t-40 -51.5t-14.5 -66t18 -62.5t46 -46t61 -32t63 -20.5q176 -45 261 -121.5t85 -185.5q0 -68 -28 -121t-76 -89t-110.5 -55t-131.5 -19q-57 0 -109 13.5t-95.5 39t-76.5 63.5t-51 88q-5 14 0.5 27.5t20.5 20.5
l38 17q17 7 29 1t18 -20l5 -10q16 -32 42 -56.5t57 -41t63 -25t59 -8.5q35 0 75.5 10t75 31t57.5 54t23 78q0 42 -22.5 74t-58 55.5t-79 39t-85.5 25.5q-56 13 -108 37t-92 58.5t-63.5 79t-23.5 100.5q0 61 22 111.5t62 86.5t96.5 55.5t125.5 19.5q103 0 182.5 -41.5
t131.5 -135.5q8 -14 5.5 -27t-17.5 -23l-35 -21q-29 -18 -46 2q-4 4 -7 9t-8 12zM373 1505q23 26 48 1l228 -226q23 -21 2 -44l-29 -28q-12 -13 -24 -9.5t-23 14.5l-178 175l-180 -179q-11 -11 -22.5 -12t-22.5 10l-30 32q-11 11 -8.5 21.5t11.5 19.5z" />
    <glyph glyph-name="Scedilla" unicode="&#x15e;" horiz-adv-x="1282" 
d="M118 214q-11 12 -16 26.5t10 29.5l40 34q14 11 27 5.5t26 -19.5q37 -43 81.5 -79.5t98 -63t117.5 -41.5t141 -15q82 0 160 19.5t138.5 59.5t97 102t36.5 147q0 52 -21 91.5t-56 70t-80.5 52t-94 37t-97.5 26.5t-90 19q-125 27 -219 62.5t-157.5 83t-95.5 109t-32 142.5
q0 90 36 162t103 123t163.5 78.5t217.5 27.5q140 0 259.5 -47t210.5 -135q11 -11 12 -25.5t-11 -27.5l-34 -37q-17 -11 -31.5 -5t-29.5 20q-37 31 -74 56.5t-80 44t-93.5 29.5t-114.5 13q-71 2 -145 -10.5t-134 -44.5t-98.5 -87.5t-38.5 -138.5q0 -65 36 -111.5t95.5 -79.5
t136 -55.5t156.5 -39.5q60 -14 122 -29.5t119 -37t107.5 -50t87.5 -68.5t58.5 -93.5t21.5 -123.5q0 -110 -45 -192.5t-121 -137.5t-175 -82.5t-207 -27.5q-161 0 -291 56.5t-233 177.5zM567 52h95q1 -5 1.5 -18t0.5 -27v-27v-18q0 -19 1 -31t3.5 -20t8 -12.5t14.5 -7.5
q29 -10 55 -25t45.5 -37.5t31 -52t11.5 -68.5q0 -25 -12 -53.5t-38.5 -55.5t-67.5 -48.5t-98 -33.5q-9 -2 -18.5 0.5t-11.5 11.5l-11 47q-2 11 2 18.5t20 11.5q22 5 45.5 14.5t43 23t32 31.5t12.5 40q0 21 -8 38t-22 30t-32.5 22.5t-38.5 15.5q-35 10 -49.5 33t-14.5 54v144
z" />
    <glyph glyph-name="scedilla" unicode="&#x15f;" horiz-adv-x="850" 
d="M624 778q-32 52 -85 84t-121 32q-42 0 -77.5 -12t-61 -33.5t-40 -51.5t-14.5 -66t18 -62.5t46 -46t61 -32t63 -20.5q176 -45 261 -121.5t85 -185.5q0 -68 -28 -121t-76 -89t-110.5 -55t-131.5 -19q-57 0 -109 13.5t-95.5 39t-76.5 63.5t-51 88q-5 14 0.5 27.5t20.5 20.5
l38 17q17 7 29 1t18 -20l5 -10q16 -32 42 -56.5t57 -41t63 -25t59 -8.5q35 0 75.5 10t75 31t57.5 54t23 78q0 42 -22.5 74t-58 55.5t-79 39t-85.5 25.5q-56 13 -108 37t-92 58.5t-63.5 79t-23.5 100.5q0 61 22 111.5t62 86.5t96.5 55.5t125.5 19.5q103 0 182.5 -41.5
t131.5 -135.5q8 -14 5.5 -27t-17.5 -23l-35 -21q-29 -18 -46 2q-4 4 -7 9t-8 12zM352 43h95q1 -5 1.5 -18t0.5 -27v-27v-18q0 -19 1 -31t3.5 -20t8 -12.5t14.5 -7.5q29 -10 55 -25t45.5 -37.5t31 -52t11.5 -68.5q0 -25 -12 -53.5t-38.5 -55.5t-67.5 -48.5t-98 -33.5
q-9 -2 -18.5 0.5t-11.5 11.5l-11 47q-2 11 2 18.5t20 11.5q22 5 45.5 14.5t43 23t32 31.5t12.5 40q0 21 -8 38t-22 30t-32.5 22.5t-38.5 15.5q-35 10 -49.5 33t-14.5 54v144z" />
    <glyph glyph-name="Scaron" unicode="&#x160;" horiz-adv-x="1282" 
d="M118 214q-11 12 -16 26.5t10 29.5l40 34q14 11 27 5.5t26 -19.5q37 -43 81.5 -79.5t98 -63t117.5 -41.5t141 -15q82 0 160 19.5t138.5 59.5t97 102t36.5 147q0 52 -21 91.5t-56 70t-80.5 52t-94 37t-97.5 26.5t-90 19q-125 27 -219 62.5t-157.5 83t-95.5 109t-32 142.5
q0 90 36 162t103 123t163.5 78.5t217.5 27.5q140 0 259.5 -47t210.5 -135q11 -11 12 -25.5t-11 -27.5l-34 -37q-17 -11 -31.5 -5t-29.5 20q-37 31 -74 56.5t-80 44t-93.5 29.5t-114.5 13q-71 2 -145 -10.5t-134 -44.5t-98.5 -87.5t-38.5 -138.5q0 -65 36 -111.5t95.5 -79.5
t136 -55.5t156.5 -39.5q60 -14 122 -29.5t119 -37t107.5 -50t87.5 -68.5t58.5 -93.5t21.5 -123.5q0 -110 -45 -192.5t-121 -137.5t-175 -82.5t-207 -27.5q-161 0 -291 56.5t-233 177.5zM688 1687q-6 -5 -10.5 -8.5t-12.5 -3.5q-7 0 -11 2t-11 10l-229 229q-10 11 -13.5 20
t7.5 21l39 36q10 11 19 6t19 -14l180 -182l180 180q10 10 19.5 13.5t20.5 -6.5l37 -34q13 -12 7.5 -21.5t-13.5 -20.5z" />
    <glyph glyph-name="scaron" unicode="&#x161;" horiz-adv-x="850" 
d="M624 778q-32 52 -85 84t-121 32q-42 0 -77.5 -12t-61 -33.5t-40 -51.5t-14.5 -66t18 -62.5t46 -46t61 -32t63 -20.5q176 -45 261 -121.5t85 -185.5q0 -68 -28 -121t-76 -89t-110.5 -55t-131.5 -19q-57 0 -109 13.5t-95.5 39t-76.5 63.5t-51 88q-5 14 0.5 27.5t20.5 20.5
l38 17q17 7 29 1t18 -20l5 -10q16 -32 42 -56.5t57 -41t63 -25t59 -8.5q35 0 75.5 10t75 31t57.5 54t23 78q0 42 -22.5 74t-58 55.5t-79 39t-85.5 25.5q-56 13 -108 37t-92 58.5t-63.5 79t-23.5 100.5q0 61 22 111.5t62 86.5t96.5 55.5t125.5 19.5q103 0 182.5 -41.5
t131.5 -135.5q8 -14 5.5 -27t-17.5 -23l-35 -21q-29 -18 -46 2q-4 4 -7 9t-8 12zM463 1184q-6 -5 -10.5 -8.5t-12.5 -3.5q-7 0 -11 2t-11 10l-229 229q-10 11 -13.5 20t7.5 21l39 36q10 11 19 6t19 -14l180 -182l180 180q10 10 19.5 13.5t20.5 -6.5l37 -34q13 -12 7.5 -21.5
t-13.5 -20.5z" />
    <glyph glyph-name="Tcommaaccent" unicode="&#x162;" horiz-adv-x="1222" 
d="M1125 1485q17 0 28.5 -9t11.5 -27v-44q0 -36 -40 -36h-464v-1332q0 -37 -37 -37h-41q-37 0 -37 37v1332h-468q-36 0 -36 39v41q0 17 9.5 26.5t26.5 9.5h1047zM515 -320q0 40 27.5 67t66.5 27q47 0 71 -31.5t24 -80.5q0 -50 -8 -85t-19 -57.5t-22 -35t-16 -17.5
q-6 -7 -15 -11t-19 4l-30 24q-5 4 -6 9t0 9.5t3.5 8t3.5 5.5q8 14 17 27.5t9 31.5v11q-36 6 -61.5 31t-25.5 63z" />
    <glyph glyph-name="tcommaaccent" unicode="&#x163;" horiz-adv-x="592" 
d="M504 102q17 0 29.5 -4.5t12.5 -24.5v-53q0 -19 -13.5 -24t-33.5 -5h-30q-51 0 -95 11t-76 41t-50.5 82t-18.5 134v613h-138q-20 0 -29.5 8t-9.5 28v37q0 20 9.5 28t29.5 8h138v295q0 30 33 35l50 7q20 3 26 -10.5t6 -31.5v-295h175q18 0 28.5 -9t10.5 -29v-33
q0 -20 -10.5 -29t-28.5 -9h-175v-586q0 -53 7.5 -87.5t22.5 -54.5t38 -29.5t55 -12.5h37zM152 -298q0 40 27.5 67t66.5 27q47 0 71 -31.5t24 -80.5q0 -50 -8 -85t-19 -57.5t-22 -35t-16 -17.5q-6 -7 -15 -11t-19 4l-30 24q-5 4 -6 9t0 9.5t3.5 8t3.5 5.5q8 14 17 27.5
t9 31.5v11q-36 6 -61.5 31t-25.5 63z" />
    <glyph glyph-name="Tcaron" unicode="&#x164;" horiz-adv-x="1222" 
d="M1125 1485q17 0 28.5 -9t11.5 -27v-44q0 -36 -40 -36h-464v-1332q0 -37 -37 -37h-41q-37 0 -37 37v1332h-468q-36 0 -36 39v41q0 17 9.5 26.5t26.5 9.5h1047zM629 1687q-6 -5 -10.5 -8.5t-12.5 -3.5q-7 0 -11 2t-11 10l-229 229q-10 11 -13.5 20t7.5 21l39 36q10 11 19 6
t19 -14l180 -182l180 180q10 10 19.5 13.5t20.5 -6.5l37 -34q13 -12 7.5 -21.5t-13.5 -20.5z" />
    <glyph glyph-name="tcaron" unicode="&#x165;" horiz-adv-x="592" 
d="M504 102q17 0 29.5 -4.5t12.5 -24.5v-53q0 -19 -13.5 -24t-33.5 -5h-30q-51 0 -95 11t-76 41t-50.5 82t-18.5 134v613h-138q-20 0 -29.5 8t-9.5 28v37q0 20 9.5 28t29.5 8h138v295q0 30 33 35l50 7q20 3 26 -10.5t6 -31.5v-295h175q18 0 28.5 -9t10.5 -29v-33
q0 -20 -10.5 -29t-28.5 -9h-175v-586q0 -53 7.5 -87.5t22.5 -54.5t38 -29.5t55 -12.5h37zM468 1387q0 40 27.5 67t66.5 27q47 0 71 -31.5t24 -80.5q0 -50 -8 -85t-19 -57.5t-22 -35t-16 -17.5q-6 -7 -15 -11t-19 4l-30 24q-5 4 -6 9t0 9.5t3.5 8t3.5 5.5q8 14 17 27.5
t9 31.5v11q-36 6 -61.5 31t-25.5 63z" />
    <glyph glyph-name="Tbar" unicode="&#x166;" horiz-adv-x="1222" 
d="M1125 1485q17 0 28.5 -9t11.5 -27v-44q0 -36 -40 -36h-464v-1332q0 -37 -37 -37h-41q-37 0 -37 37v1332h-468q-36 0 -36 39v41q0 17 9.5 26.5t26.5 9.5h1047zM905 947q34 0 34 -32v-38q0 -14 -8.5 -24t-25.5 -10h-592q-33 0 -33 34v38q0 32 33 32h592z" />
    <glyph glyph-name="tbar" unicode="&#x167;" horiz-adv-x="561" 
d="M457 657q34 0 34 -32v-38q0 -14 -8.5 -24t-25.5 -10h-353q-33 0 -33 34v38q0 32 33 32h353zM503 102q17 0 29.5 -4.5t12.5 -24.5v-53q0 -19 -13.5 -24t-33.5 -5h-30q-51 0 -95 11t-76 41t-50.5 82t-18.5 134v613h-138q-20 0 -29.5 8t-9.5 28v37q0 20 9.5 28t29.5 8h138
v295q0 30 33 35l50 7q20 3 26 -10.5t6 -31.5v-295h175q18 0 28.5 -9t10.5 -29v-33q0 -20 -10.5 -29t-28.5 -9h-175v-586q0 -53 7.5 -87.5t22.5 -54.5t38 -29.5t55 -12.5h37z" />
    <glyph glyph-name="Utilde" unicode="&#x168;" horiz-adv-x="1504" 
d="M256 595q0 -106 36.5 -198.5t102 -160.5t156 -107.5t198.5 -39.5q110 0 201 39.5t156 108t101 160.5t36 198v854q0 16 10 26t28 10h38q17 0 28 -9.5t11 -26.5v-869q0 -131 -48 -241.5t-130.5 -191t-193.5 -126t-237 -45.5q-84 0 -162 21.5t-145.5 61.5t-123 95.5t-95 123
t-61.5 145.5t-22 162v864q0 14 9 25t26 11h44q14 0 25.5 -10t11.5 -26v-854zM537 1712q-13 -15 -26.5 -14.5t-26.5 11.5l-14 15q-14 13 -12.5 23t14.5 25q38 46 77.5 70.5t89.5 24.5q31 0 61 -14t58.5 -31t56 -31t54.5 -14q15 0 28 5.5t24 14.5t20.5 20t18.5 21
q14 17 28.5 20t25.5 -7l19 -20q13 -12 10.5 -23.5t-10.5 -22.5q-36 -50 -78.5 -75.5t-93.5 -25.5q-32 0 -60.5 14t-55.5 31.5t-53 31.5t-53 14q-19 0 -33 -5t-25.5 -13.5t-21.5 -20t-22 -24.5z" />
    <glyph glyph-name="utilde" unicode="&#x169;" horiz-adv-x="1136" 
d="M120 946q0 14 8 23.5t22 9.5h50q21 0 29 -10t8 -30v-555q0 -62 24.5 -115t65.5 -92.5t96 -62t117 -22.5q61 0 116 23t96 62.5t65.5 93t24.5 115.5v556q0 37 37 37h41q39 0 39 -37v-906q0 -17 -10.5 -26.5t-27.5 -9.5h-33q-19 0 -27 10t-10 26l-9 117q-25 -38 -57.5 -70
t-71.5 -55.5t-85 -37t-97 -13.5q-85 0 -160 32t-130.5 88t-88 131t-32.5 161v557zM335 1209q-13 -15 -26.5 -14.5t-26.5 11.5l-14 15q-14 13 -12.5 23t14.5 25q38 46 77.5 70.5t89.5 24.5q31 0 61 -14t58.5 -31t56 -31t54.5 -14q15 0 28 5.5t24 14.5t20.5 20t18.5 21
q14 17 28.5 20t25.5 -7l19 -20q13 -12 10.5 -23.5t-10.5 -22.5q-36 -50 -78.5 -75.5t-93.5 -25.5q-32 0 -60.5 14t-55.5 31.5t-53 31.5t-53 14q-19 0 -33 -5t-25.5 -13.5t-21.5 -20t-22 -24.5z" />
    <glyph glyph-name="Umacron" unicode="&#x16a;" horiz-adv-x="1504" 
d="M256 595q0 -106 36.5 -198.5t102 -160.5t156 -107.5t198.5 -39.5q110 0 201 39.5t156 108t101 160.5t36 198v854q0 16 10 26t28 10h38q17 0 28 -9.5t11 -26.5v-869q0 -131 -48 -241.5t-130.5 -191t-193.5 -126t-237 -45.5q-84 0 -162 21.5t-145.5 61.5t-123 95.5t-95 123
t-61.5 145.5t-22 162v864q0 14 9 25t26 11h44q14 0 25.5 -10t11.5 -26v-854zM1058 1793q34 0 34 -32v-38q0 -14 -8.5 -24t-25.5 -10h-592q-33 0 -33 34v38q0 32 33 32h592z" />
    <glyph glyph-name="umacron" unicode="&#x16b;" horiz-adv-x="1136" 
d="M120 946q0 14 8 23.5t22 9.5h50q21 0 29 -10t8 -30v-555q0 -62 24.5 -115t65.5 -92.5t96 -62t117 -22.5q61 0 116 23t96 62.5t65.5 93t24.5 115.5v556q0 37 37 37h41q39 0 39 -37v-906q0 -17 -10.5 -26.5t-27.5 -9.5h-33q-19 0 -27 10t-10 26l-9 117q-25 -38 -57.5 -70
t-71.5 -55.5t-85 -37t-97 -13.5q-85 0 -160 32t-130.5 88t-88 131t-32.5 161v557zM842 1290q34 0 34 -32v-38q0 -14 -8.5 -24t-25.5 -10h-592q-33 0 -33 34v38q0 32 33 32h592z" />
    <glyph glyph-name="Ubreve" unicode="&#x16c;" horiz-adv-x="1504" 
d="M256 595q0 -106 36.5 -198.5t102 -160.5t156 -107.5t198.5 -39.5q110 0 201 39.5t156 108t101 160.5t36 198v854q0 16 10 26t28 10h38q17 0 28 -9.5t11 -26.5v-869q0 -131 -48 -241.5t-130.5 -191t-193.5 -126t-237 -45.5q-84 0 -162 21.5t-145.5 61.5t-123 95.5t-95 123
t-61.5 145.5t-22 162v864q0 14 9 25t26 11h44q14 0 25.5 -10t11.5 -26v-854zM744 1733q-46 0 -85.5 16.5t-68 43.5t-44.5 62t-16 73q0 14 3.5 27.5t22.5 13.5h46q15 0 19.5 -10.5t4.5 -27.5t8 -35t23 -33t37.5 -24.5t51.5 -9.5q27 0 49 10t37.5 25t23.5 33.5t8 35.5
q0 16 4.5 26t18.5 10h58q16 0 17.5 -13.5t1.5 -26.5q0 -38 -17 -73.5t-47 -63t-70 -43.5t-86 -16z" />
    <glyph glyph-name="ubreve" unicode="&#x16d;" horiz-adv-x="1136" 
d="M120 946q0 14 8 23.5t22 9.5h50q21 0 29 -10t8 -30v-555q0 -62 24.5 -115t65.5 -92.5t96 -62t117 -22.5q61 0 116 23t96 62.5t65.5 93t24.5 115.5v556q0 37 37 37h41q39 0 39 -37v-906q0 -17 -10.5 -26.5t-27.5 -9.5h-33q-19 0 -27 10t-10 26l-9 117q-25 -38 -57.5 -70
t-71.5 -55.5t-85 -37t-97 -13.5q-85 0 -160 32t-130.5 88t-88 131t-32.5 161v557zM535 1230q-46 0 -85.5 16.5t-68 43.5t-44.5 62t-16 73q0 14 3.5 27.5t22.5 13.5h46q15 0 19.5 -10.5t4.5 -27.5t8 -35t23 -33t37.5 -24.5t51.5 -9.5q27 0 49 10t37.5 25t23.5 33.5t8 35.5
q0 16 4.5 26t18.5 10h58q16 0 17.5 -13.5t1.5 -26.5q0 -38 -17 -73.5t-47 -63t-70 -43.5t-86 -16z" />
    <glyph glyph-name="Uring" unicode="&#x16e;" horiz-adv-x="1504" 
d="M256 595q0 -106 36.5 -198.5t102 -160.5t156 -107.5t198.5 -39.5q110 0 201 39.5t156 108t101 160.5t36 198v854q0 16 10 26t28 10h38q17 0 28 -9.5t11 -26.5v-869q0 -131 -48 -241.5t-130.5 -191t-193.5 -126t-237 -45.5q-84 0 -162 21.5t-145.5 61.5t-123 95.5t-95 123
t-61.5 145.5t-22 162v864q0 14 9 25t26 11h44q14 0 25.5 -10t11.5 -26v-854zM775 2025q39 0 72.5 -14.5t59 -40t40 -59t14.5 -71.5q0 -39 -14.5 -73t-40 -58.5t-59 -39t-72.5 -14.5t-73 14.5t-58.5 39t-39 58.5t-14.5 73q0 38 14.5 71.5t39 59t58.5 40t73 14.5zM668 1840
q0 -46 30.5 -76.5t76.5 -30.5q22 0 41.5 8t34 22.5t22.5 34t8 42.5q0 22 -8 41.5t-22.5 34t-34 22.5t-41.5 8q-23 0 -42.5 -8t-34 -22.5t-22.5 -34t-8 -41.5z" />
    <glyph glyph-name="uring" unicode="&#x16f;" horiz-adv-x="1136" 
d="M120 946q0 14 8 23.5t22 9.5h50q21 0 29 -10t8 -30v-555q0 -62 24.5 -115t65.5 -92.5t96 -62t117 -22.5q61 0 116 23t96 62.5t65.5 93t24.5 115.5v556q0 37 37 37h41q39 0 39 -37v-906q0 -17 -10.5 -26.5t-27.5 -9.5h-33q-19 0 -27 10t-10 26l-9 117q-25 -38 -57.5 -70
t-71.5 -55.5t-85 -37t-97 -13.5q-85 0 -160 32t-130.5 88t-88 131t-32.5 161v557zM547 1522q39 0 72.5 -14.5t59 -40t40 -59t14.5 -71.5q0 -39 -14.5 -73t-40 -58.5t-59 -39t-72.5 -14.5t-73 14.5t-58.5 39t-39 58.5t-14.5 73q0 38 14.5 71.5t39 59t58.5 40t73 14.5z
M440 1337q0 -46 30.5 -76.5t76.5 -30.5q22 0 41.5 8t34 22.5t22.5 34t8 42.5q0 22 -8 41.5t-22.5 34t-34 22.5t-41.5 8q-23 0 -42.5 -8t-34 -22.5t-22.5 -34t-8 -41.5z" />
    <glyph glyph-name="Uhungarumlaut" unicode="&#x170;" horiz-adv-x="1504" 
d="M256 595q0 -106 36.5 -198.5t102 -160.5t156 -107.5t198.5 -39.5q110 0 201 39.5t156 108t101 160.5t36 198v854q0 16 10 26t28 10h38q17 0 28 -9.5t11 -26.5v-869q0 -131 -48 -241.5t-130.5 -191t-193.5 -126t-237 -45.5q-84 0 -162 21.5t-145.5 61.5t-123 95.5t-95 123
t-61.5 145.5t-22 162v864q0 14 9 25t26 11h44q14 0 25.5 -10t11.5 -26v-854zM664 1718q-10 -18 -18.5 -22t-16.5 -4h-65q-6 0 -13 3t-11.5 9t-5.5 14.5t5 19.5l108 214q8 17 18 21.5t20 4.5h59q7 0 13.5 -4t10.5 -11t4.5 -15.5t-4.5 -17.5zM987 1718q-9 -18 -17.5 -22
t-16.5 -4h-65q-6 0 -13 3t-11.5 9t-5.5 14.5t5 19.5l106 214q9 17 19.5 21.5t20.5 4.5h58q14 -1 24.5 -14.5t-0.5 -33.5z" />
    <glyph glyph-name="uhungarumlaut" unicode="&#x171;" horiz-adv-x="1136" 
d="M120 946q0 14 8 23.5t22 9.5h50q21 0 29 -10t8 -30v-555q0 -62 24.5 -115t65.5 -92.5t96 -62t117 -22.5q61 0 116 23t96 62.5t65.5 93t24.5 115.5v556q0 37 37 37h41q39 0 39 -37v-906q0 -17 -10.5 -26.5t-27.5 -9.5h-33q-19 0 -27 10t-10 26l-9 117q-25 -38 -57.5 -70
t-71.5 -55.5t-85 -37t-97 -13.5q-85 0 -160 32t-130.5 88t-88 131t-32.5 161v557zM438 1215q-10 -18 -18.5 -22t-16.5 -4h-65q-6 0 -13 3t-11.5 9t-5.5 14.5t5 19.5l108 214q8 17 18 21.5t20 4.5h59q7 0 13.5 -4t10.5 -11t4.5 -15.5t-4.5 -17.5zM761 1215q-9 -18 -17.5 -22
t-16.5 -4h-65q-6 0 -13 3t-11.5 9t-5.5 14.5t5 19.5l106 214q9 17 19.5 21.5t20.5 4.5h58q14 -1 24.5 -14.5t-0.5 -33.5z" />
    <glyph glyph-name="Uogonek" unicode="&#x172;" horiz-adv-x="1504" 
d="M256 595q0 -106 36.5 -198.5t102 -160.5t156 -107.5t198.5 -39.5q110 0 201 39.5t156 108t101 160.5t36 198v854q0 16 10 26t28 10h38q17 0 28 -9.5t11 -26.5v-869q0 -131 -48 -241.5t-130.5 -191t-193.5 -126t-237 -45.5q-84 0 -162 21.5t-145.5 61.5t-123 95.5t-95 123
t-61.5 145.5t-22 162v864q0 14 9 25t26 11h44q14 0 25.5 -10t11.5 -26v-854zM833 -104q0 -17 -1.5 -27.5t-6.5 -17.5t-15 -12.5t-26 -11.5q-55 -21 -85.5 -46t-30.5 -66q0 -20 12.5 -37t32 -31t43 -24.5t45.5 -16.5q16 -5 21.5 -15.5t0.5 -21.5l-16 -40q-4 -10 -10 -13.5
t-13 -2.5t-14.5 3.5l-13.5 4.5q-92 29 -141 79.5t-49 107.5q0 37 11.5 66.5t31 52t45.5 38.5t55 26q9 3 14 7.5t8 12.5t4 20t1 31l2 90h95v-156z" />
    <glyph glyph-name="uogonek" unicode="&#x173;" horiz-adv-x="1137" 
d="M120 946q0 14 8 23.5t22 9.5h50q21 0 29 -10t8 -30v-555q0 -62 24.5 -115t65.5 -92.5t96 -62t117 -22.5q61 0 116 23t96 62.5t65.5 93t24.5 115.5v556q0 37 37 37h41q39 0 39 -37v-906q0 -17 -10.5 -26.5t-27.5 -9.5h-33q-19 0 -27 10t-10 26l-9 117q-25 -38 -57.5 -70
t-71.5 -55.5t-85 -37t-97 -13.5q-85 0 -160 32t-130.5 88t-88 131t-32.5 161v557zM955 -104q0 -17 -1.5 -27.5t-6.5 -17.5t-15 -12.5t-26 -11.5q-55 -21 -85.5 -46t-30.5 -66q0 -20 12.5 -37t32 -31t43 -24.5t45.5 -16.5q16 -5 21.5 -15.5t0.5 -21.5l-16 -40
q-4 -10 -10 -13.5t-13 -2.5t-14.5 3.5l-13.5 4.5q-92 29 -141 79.5t-49 107.5q0 37 11.5 66.5t31 52t45.5 38.5t55 26q9 3 14 7.5t8 12.5t4 20t1 31l2 90h95v-156z" />
    <glyph glyph-name="Wcircumflex" unicode="&#x174;" horiz-adv-x="2047" 
d="M1033 740l-298 -714q-6 -16 -15.5 -21t-17.5 -5h-42q-8 0 -17.5 5t-15.5 21l-589 1419q-8 20 2.5 30.5t23.5 10.5h62q8 0 16 -5t14 -21l532 -1281l523 1281q7 17 15.5 21.5t16.5 4.5h62q14 0 21.5 -10.5t-0.5 -30.5l-232 -560l299 -710l526 1285q6 17 14 21.5t16 4.5h58
q14 0 24.5 -11t2.5 -30l-591 -1419q-7 -16 -16.5 -21t-17.5 -5h-42q-8 0 -17.5 5t-16.5 21zM1053 2008q23 26 48 1l228 -226q23 -21 2 -44l-29 -28q-12 -13 -24 -9.5t-23 14.5l-178 175l-180 -179q-11 -11 -22.5 -12t-22.5 10l-30 32q-11 11 -8.5 21.5t11.5 19.5z" />
    <glyph glyph-name="wcircumflex" unicode="&#x175;" horiz-adv-x="1546" 
d="M1364 964q7 15 27 15h64q17 0 24.5 -9t0.5 -26l-384 -915q-6 -15 -12.5 -22t-23.5 -7h-39q-17 0 -24 7t-13 22l-215 513l-214 -513q-6 -15 -13 -22t-24 -7h-38q-17 0 -24 7t-13 22l-380 905q-8 20 -2 32.5t23 12.5h64q10 0 17 -5.5t11 -13.5l323 -774l324 778q7 15 27 15
h69q34 0 19 -34l-107 -255l209 -504zM747 1505q23 26 48 1l228 -226q23 -21 2 -44l-29 -28q-12 -13 -24 -9.5t-23 14.5l-178 175l-180 -179q-11 -11 -22.5 -12t-22.5 10l-30 32q-11 11 -8.5 21.5t11.5 19.5z" />
    <glyph glyph-name="Ycircumflex" unicode="&#x176;" horiz-adv-x="1106" 
d="M20 1444q-12 19 -2 30t24 11h69q8 0 15 -3.5t16 -17.5l417 -696l423 695q8 14 15.5 18t15.5 4h62q14 0 22.5 -8.5t-2.5 -27.5l-476 -792v-620q0 -17 -5.5 -27t-22.5 -10h-61q-16 0 -21 10.5t-5 26.5v620zM535 2008q23 26 48 1l228 -226q23 -21 2 -44l-29 -28
q-12 -13 -24 -9.5t-23 14.5l-178 175l-180 -179q-11 -11 -22.5 -12t-22.5 10l-30 32q-11 11 -8.5 21.5t11.5 19.5z" />
    <glyph glyph-name="ycircumflex" unicode="&#x177;" horiz-adv-x="1002" 
d="M384 -358q-7 -16 -13 -21.5t-24 -5.5h-59q-6 0 -12.5 2t-10.5 6.5t-5 12t4 18.5l159 375l-380 911q-5 13 -0.5 26t24.5 13h53q18 0 25 -5.5t11 -13.5l334 -795l320 786q7 16 14.5 22t17.5 6h69q20 0 24 -11.5t-2 -25.5zM474 1505q23 26 48 1l228 -226q23 -21 2 -44
l-29 -28q-12 -13 -24 -9.5t-23 14.5l-178 175l-180 -179q-11 -11 -22.5 -12t-22.5 10l-30 32q-11 11 -8.5 21.5t11.5 19.5z" />
    <glyph glyph-name="Ydieresis" unicode="&#x178;" horiz-adv-x="1106" 
d="M20 1444q-12 19 -2 30t24 11h69q8 0 15 -3.5t16 -17.5l417 -696l423 695q8 14 15.5 18t15.5 4h62q14 0 22.5 -8.5t-2.5 -27.5l-476 -792v-620q0 -17 -5.5 -27t-22.5 -10h-61q-16 0 -21 10.5t-5 26.5v620zM291 1752q0 36 25.5 61.5t61.5 25.5q38 0 63 -25.5t25 -61.5
t-25 -61.5t-63 -25.5q-36 0 -61.5 25.5t-25.5 61.5zM655 1753q0 36 25.5 61.5t61.5 25.5q37 0 62 -25.5t25 -61.5t-25 -61.5t-62 -25.5q-36 0 -61.5 25.5t-25.5 61.5z" />
    <glyph glyph-name="Zacute" unicode="&#x179;" horiz-adv-x="1278" 
d="M1178 1485q30 0 30 -31v-49q0 -8 -7 -18l-976 -1272h944q34 0 34 -29v-56q0 -30 -34 -30h-1075q-30 0 -30 30v48q0 12 8 22l980 1269h-915q-17 0 -27 7t-10 23v56q0 16 10 23t26 7h1042zM741 1706q-10 -18 -18 -22t-17 -4h-60q-13 0 -17.5 9.5t5.5 28.5l104 243
q8 17 16 21.5t18 4.5h67q14 0 17 -10.5t-5 -26.5z" />
    <glyph glyph-name="zacute" unicode="&#x17a;" horiz-adv-x="898" 
d="M78 0q-21 0 -34.5 6t-13.5 26v47q0 5 1.5 13t7.5 16l649 757h-627q-11 0 -19 6.5t-8 17.5v67q0 11 6.5 17t14.5 6h756q14 0 23.5 -8.5t9.5 -24.5v-48q0 -14 -4 -22.5t-9 -15.5l-638 -746h627q26 0 26 -26v-62q0 -10 -6 -18t-21 -8h-741zM480 1203q-10 -18 -18 -22t-17 -4
h-60q-13 0 -17.5 9.5t5.5 28.5l104 243q8 17 16 21.5t18 4.5h67q14 0 17 -10.5t-5 -26.5z" />
    <glyph glyph-name="Zdotaccent" unicode="&#x17b;" horiz-adv-x="1278" 
d="M1178 1485q30 0 30 -31v-49q0 -8 -7 -18l-976 -1272h944q34 0 34 -29v-56q0 -30 -34 -30h-1075q-30 0 -30 30v48q0 12 8 22l980 1269h-915q-17 0 -27 7t-10 23v56q0 16 10 23t26 7h1042zM546 1771q0 19 7.5 36t20 30t29.5 20t36 7q39 0 66 -27t27 -66q0 -19 -7 -36
t-20 -29.5t-30 -19.5t-36 -7t-36 7t-29.5 19.5t-20 29.5t-7.5 36z" />
    <glyph glyph-name="zdotaccent" unicode="&#x17c;" horiz-adv-x="898" 
d="M78 0q-21 0 -34.5 6t-13.5 26v47q0 5 1.5 13t7.5 16l649 757h-627q-11 0 -19 6.5t-8 17.5v67q0 11 6.5 17t14.5 6h756q14 0 23.5 -8.5t9.5 -24.5v-48q0 -14 -4 -22.5t-9 -15.5l-638 -746h627q26 0 26 -26v-62q0 -10 -6 -18t-21 -8h-741zM394 1268q0 19 7.5 36t20 30
t29.5 20t36 7q39 0 66 -27t27 -66q0 -19 -7 -36t-20 -29.5t-30 -19.5t-36 -7t-36 7t-29.5 19.5t-20 29.5t-7.5 36z" />
    <glyph glyph-name="Zcaron" unicode="&#x17d;" horiz-adv-x="1278" 
d="M1178 1485q30 0 30 -31v-49q0 -8 -7 -18l-976 -1272h944q34 0 34 -29v-56q0 -30 -34 -30h-1075q-30 0 -30 30v48q0 12 8 22l980 1269h-915q-17 0 -27 7t-10 23v56q0 16 10 23t26 7h1042zM685 1687q-6 -5 -10.5 -8.5t-12.5 -3.5q-7 0 -11 2t-11 10l-229 229
q-10 11 -13.5 20t7.5 21l39 36q10 11 19 6t19 -14l180 -182l180 180q10 10 19.5 13.5t20.5 -6.5l37 -34q13 -12 7.5 -21.5t-13.5 -20.5z" />
    <glyph glyph-name="zcaron" unicode="&#x17e;" horiz-adv-x="898" 
d="M78 0q-21 0 -34.5 6t-13.5 26v47q0 5 1.5 13t7.5 16l649 757h-627q-11 0 -19 6.5t-8 17.5v67q0 11 6.5 17t14.5 6h756q14 0 23.5 -8.5t9.5 -24.5v-48q0 -14 -4 -22.5t-9 -15.5l-638 -746h627q26 0 26 -26v-62q0 -10 -6 -18t-21 -8h-741zM482 1184q-6 -5 -10.5 -8.5
t-12.5 -3.5q-7 0 -11 2t-11 10l-229 229q-10 11 -13.5 20t7.5 21l39 36q10 11 19 6t19 -14l180 -182l180 180q10 10 19.5 13.5t20.5 -6.5l37 -34q13 -12 7.5 -21.5t-13.5 -20.5z" />
    <glyph glyph-name="florin" unicode="&#x192;" horiz-adv-x="618" 
d="M342 915v-926q0 -69 -18.5 -136.5t-57 -121t-99 -86.5t-144.5 -33q-18 0 -27.5 4t-14 9.5t-5 11t-0.5 7.5v47q0 2 1 7t5 10.5t12 10t23 4.5q58 0 98.5 21.5t65 58t35.5 86.5t11 107v919h-159q-14 0 -23.5 8t-9.5 23v56q0 16 9.5 23t23.5 7h159v126q0 56 19 118
t59.5 113.5t105 85.5t154.5 34q14 0 22 -4t12 -9t5 -11t1 -10v-46q0 -5 -1.5 -10t-6 -10t-13 -8t-22.5 -3q-63 0 -105 -25.5t-67.5 -63t-36.5 -79t-11 -74.5v-124h204q33 0 33 -30v-56q0 -31 -33 -31h-204z" />
    <glyph glyph-name="AEacute" unicode="&#x1fc;" horiz-adv-x="2318" 
d="M1191 371h-749l-266 -350q-11 -14 -18 -17.5t-16 -3.5h-71q-18 0 -24 16.5t8 33.5l1137 1421q5 6 12.5 10.5t18.5 4.5h932q16 0 25.5 -8t9.5 -24v-55q0 -17 -9.5 -24.5t-25.5 -7.5h-857v-561h690q16 0 27 -8t11 -24v-45q0 -17 -11 -25t-27 -8h-690v-576h878q15 0 25 -8.5
t10 -24.5v-55q0 -17 -10 -24.5t-25 -7.5h-953q-32 0 -32 32v339zM1191 488v807l-661 -807h661zM1660 1705q-10 -18 -18 -22t-17 -4h-60q-13 0 -17.5 9.5t5.5 28.5l104 243q8 17 16 21.5t18 4.5h67q14 0 17 -10.5t-5 -26.5z" />
    <glyph glyph-name="aeacute" unicode="&#x1fd;" horiz-adv-x="1934" 
d="M1036 32q0 -17 -7.5 -24.5t-26.5 -7.5h-48q-20 0 -25.5 8.5t-5.5 27.5v176q-18 -56 -53 -99.5t-82.5 -73.5t-105.5 -46t-123 -16q-102 0 -190 40t-152.5 109t-101.5 162t-37 199t36.5 199.5t101 163.5t152.5 110t191 40q66 0 125.5 -17t107.5 -48t82 -73.5t49 -93.5
l4 170q1 20 8 30.5t27 10.5h43q18 0 24.5 -10.5t6.5 -30.5v-906zM922 486q0 82 -26.5 155t-74.5 128t-115 87t-147 32q-81 0 -148.5 -32t-116 -86.5t-76 -127.5t-27.5 -155t27.5 -154.5t76.5 -126.5t116.5 -85.5t147.5 -31.5q79 0 146 31t115 84.5t75 126t27 155.5z
M1402 -22q-100 2 -187.5 43t-152.5 110t-102.5 160.5t-37.5 196.5q0 106 37 199.5t101.5 163t150 109.5t183.5 40q93 0 176.5 -39t146.5 -105.5t99.5 -156.5t36.5 -192q0 -37 -22.5 -48.5t-56.5 -11.5h-736q4 -75 34.5 -139.5t79.5 -112.5t113 -76t136 -30h3
q85 0 159.5 33.5t129.5 89.5q13 14 28 14.5t23 -10.5l25 -33q13 -17 11 -29.5t-26 -33.5q-72 -63 -160 -102.5t-191 -39.5h-1zM1391 887q-65 0 -123.5 -25t-104.5 -69t-77.5 -104.5t-43.5 -131.5h697q-9 70 -40.5 130.5t-78 105t-106 69.5t-123.5 25zM1047 1203
q-10 -18 -18 -22t-17 -4h-60q-13 0 -17.5 9.5t5.5 28.5l104 243q8 17 16 21.5t18 4.5h67q14 0 17 -10.5t-5 -26.5z" />
    <glyph glyph-name="Oslashacute" unicode="&#x1fe;" horiz-adv-x="1706" 
d="M940 1706q-10 -18 -18 -22t-17 -4h-60q-13 0 -17.5 9.5t5.5 28.5l104 243q8 17 16 21.5t18 4.5h67q14 0 17 -10.5t-5 -26.5zM528 52q-97 45 -177.5 115.5t-138.5 160t-90 194.5t-32 219q0 105 27 202.5t76.5 182t119 154.5t154.5 119.5t182 77t203 27.5q58 0 113.5 -8.5
t109.5 -25.5l48 119q11 28 23.5 36t38.5 8h28q21 0 30 -4.5t9 -15.5q-2 -6 -3 -14t-5 -19l-62 -152q95 -47 174.5 -117.5t136.5 -159.5t88.5 -193.5t31.5 -217.5q0 -105 -27.5 -202t-77 -181.5t-119 -153.5t-154 -118.5t-182 -76.5t-202.5 -27q-57 0 -111 8t-106 23
l-47 -117q-12 -31 -48 -31h-42q-29 0 -29 21q0 8 5 21zM207 742q0 -134 50.5 -251t138 -204.5t205 -138t251.5 -50.5q88 0 170.5 23t154 65t130.5 100.5t101 130t65 154t23 171.5q0 133 -51 250t-138.5 204.5t-204.5 138.5t-250 51q-89 0 -171.5 -23t-154.5 -65t-130.5 -101
t-100.5 -130.5t-65 -154t-23 -170.5z" />
    <glyph glyph-name="oslashacute" unicode="&#x1ff;" horiz-adv-x="1167" 
d="M665 1203q-10 -18 -18 -22t-17 -4h-60q-13 0 -17.5 9.5t5.5 28.5l104 243q8 17 16 21.5t18 4.5h67q14 0 17 -10.5t-5 -26.5zM733 965l45 116q10 23 20.5 30t32.5 7h24q27 0 32 -9t-5 -36l-58 -148zM461 -1l-49 -127q-11 -27 -41 -27h-36q-17 0 -23 9t2 27l56 149zM88 488
q0 106 37.5 199.5t103.5 163t156.5 109.5t196.5 40q107 0 198 -40t157.5 -109.5t104 -163t37.5 -199.5t-37.5 -199t-104.5 -162.5t-158 -109.5t-197 -40q-105 0 -195.5 40t-157 109.5t-104 162.5t-37.5 199zM202 488q0 -82 28.5 -154.5t79.5 -127t121 -86t153 -31.5
q82 0 152 31.5t121 86t80 127t29 154.5t-29 155t-80 127.5t-121 86t-152 31.5q-83 0 -153 -31.5t-121 -86t-79.5 -127.5t-28.5 -155z" />
    <glyph glyph-name="Scommaaccent" unicode="&#x218;" horiz-adv-x="1282" 
d="M118 214q-11 12 -16 26.5t10 29.5l40 34q14 11 27 5.5t26 -19.5q37 -43 81.5 -79.5t98 -63t117.5 -41.5t141 -15q82 0 160 19.5t138.5 59.5t97 102t36.5 147q0 52 -21 91.5t-56 70t-80.5 52t-94 37t-97.5 26.5t-90 19q-125 27 -219 62.5t-157.5 83t-95.5 109t-32 142.5
q0 90 36 162t103 123t163.5 78.5t217.5 27.5q140 0 259.5 -47t210.5 -135q11 -11 12 -25.5t-11 -27.5l-34 -37q-17 -11 -31.5 -5t-29.5 20q-37 31 -74 56.5t-80 44t-93.5 29.5t-114.5 13q-71 2 -145 -10.5t-134 -44.5t-98.5 -87.5t-38.5 -138.5q0 -65 36 -111.5t95.5 -79.5
t136 -55.5t156.5 -39.5q60 -14 122 -29.5t119 -37t107.5 -50t87.5 -68.5t58.5 -93.5t21.5 -123.5q0 -110 -45 -192.5t-121 -137.5t-175 -82.5t-207 -27.5q-161 0 -291 56.5t-233 177.5zM557 -273q0 40 27.5 67t66.5 27q47 0 71 -31.5t24 -80.5q0 -50 -8 -85t-19 -57.5
t-22 -35t-16 -17.5q-6 -7 -15 -11t-19 4l-30 24q-5 4 -6 9t0 9.5t3.5 8t3.5 5.5q8 14 17 27.5t9 31.5v11q-36 6 -61.5 31t-25.5 63z" />
    <glyph glyph-name="scommaaccent" unicode="&#x219;" horiz-adv-x="850" 
d="M624 778q-32 52 -85 84t-121 32q-42 0 -77.5 -12t-61 -33.5t-40 -51.5t-14.5 -66t18 -62.5t46 -46t61 -32t63 -20.5q176 -45 261 -121.5t85 -185.5q0 -68 -28 -121t-76 -89t-110.5 -55t-131.5 -19q-57 0 -109 13.5t-95.5 39t-76.5 63.5t-51 88q-5 14 0.5 27.5t20.5 20.5
l38 17q17 7 29 1t18 -20l5 -10q16 -32 42 -56.5t57 -41t63 -25t59 -8.5q35 0 75.5 10t75 31t57.5 54t23 78q0 42 -22.5 74t-58 55.5t-79 39t-85.5 25.5q-56 13 -108 37t-92 58.5t-63.5 79t-23.5 100.5q0 61 22 111.5t62 86.5t96.5 55.5t125.5 19.5q103 0 182.5 -41.5
t131.5 -135.5q8 -14 5.5 -27t-17.5 -23l-35 -21q-29 -18 -46 2q-4 4 -7 9t-8 12zM303 -320q0 40 27.5 67t66.5 27q47 0 71 -31.5t24 -80.5q0 -50 -8 -85t-19 -57.5t-22 -35t-16 -17.5q-6 -7 -15 -11t-19 4l-30 24q-5 4 -6 9t0 9.5t3.5 8t3.5 5.5q8 14 17 27.5t9 31.5v11
q-36 6 -61.5 31t-25.5 63z" />
    <glyph glyph-name="uni021A" unicode="&#x21a;" horiz-adv-x="1267" 
d="M1156 1485q17 0 27.5 -9t12.5 -27v-41q0 -17 -10 -28t-30 -11h-464v-1332q0 -37 -37 -37h-41q-37 0 -37 37v1332h-468q-36 0 -36 39v41q0 17 9.5 26.5t26.5 9.5h1047zM554 -242q0 40 23 64.5t62 24.5q47 0 71 -31.5t24 -80.5q0 -46 -8 -78.5t-18.5 -54t-21 -33.5
t-15.5 -17q-6 -7 -15 -11t-19 4l-26 22q-5 4 -6 9.5t0.5 10t4 8t3.5 5.5q9 14 16.5 26t7.5 30v11q-36 6 -59.5 29.5t-23.5 61.5z" />
    <glyph glyph-name="uni021B" unicode="&#x21b;" horiz-adv-x="592" 
d="M243 -218q0 40 23 64.5t62 24.5q47 0 71 -31.5t24 -80.5q0 -46 -8 -78.5t-18.5 -54t-21 -33.5t-15.5 -17q-6 -7 -15 -11t-19 4l-26 22q-5 4 -6 9.5t0.5 10t4 8t3.5 5.5q9 14 16.5 26t7.5 30v11q-36 6 -59.5 29.5t-23.5 61.5zM504 102q17 0 29.5 -4.5t12.5 -24.5v-53
q0 -19 -13.5 -24t-33.5 -5h-30q-51 0 -95 11t-76 41t-50.5 82t-18.5 134v613h-138q-20 0 -29.5 8t-9.5 28v37q0 20 9.5 28t29.5 8h138v295q0 30 33 35l50 7q20 3 26 -10.5t6 -31.5v-295h175q18 0 28.5 -9t10.5 -29v-33q0 -20 -10.5 -29t-28.5 -9h-175v-586q0 -53 7.5 -87.5
t22.5 -54.5t38 -29.5t55 -12.5h37z" />
    <glyph glyph-name="dotlessj" unicode="&#x237;" horiz-adv-x="437" 
d="M159 942q0 40 41 40h34q20 0 32 -14.5t12 -32.5l-3 -981q-1 -63 -24.5 -119.5t-64 -98.5t-95 -66.5t-117.5 -24.5q-22 0 -34.5 9.5t-12.5 29.5v33q0 20 12.5 29.5t29.5 9.5h3q42 1 76 17t59 43.5t38.5 63.5t13.5 77v985z" />
    <glyph glyph-name="circumflex" unicode="&#x2c6;" horiz-adv-x="748" 
d="M320 1505q23 26 48 1l228 -226q23 -21 2 -44l-29 -28q-12 -13 -24 -9.5t-23 14.5l-178 175l-180 -179q-11 -11 -22.5 -12t-22.5 10l-30 32q-11 11 -8.5 21.5t11.5 19.5z" />
    <glyph glyph-name="caron" unicode="&#x2c7;" horiz-adv-x="736" 
d="M367 1184q-6 -5 -10.5 -8.5t-12.5 -3.5q-7 0 -11 2t-11 10l-229 229q-10 11 -13.5 20t7.5 21l39 36q10 11 19 6t19 -14l180 -182l180 180q10 10 19.5 13.5t20.5 -6.5l37 -34q13 -12 7.5 -21.5t-13.5 -20.5z" />
    <glyph glyph-name="uni02C9" unicode="&#x2c9;" horiz-adv-x="981" 
 />
    <glyph glyph-name="breve" unicode="&#x2d8;" horiz-adv-x="652" 
d="M290 1230q-46 0 -85.5 16.5t-68 43.5t-44.5 62t-16 73q0 14 3.5 27.5t22.5 13.5h46q15 0 19.5 -10.5t4.5 -27.5t8 -35t23 -33t37.5 -24.5t51.5 -9.5q27 0 49 10t37.5 25t23.5 33.5t8 35.5q0 16 4.5 26t18.5 10h58q16 0 17.5 -13.5t1.5 -26.5q0 -38 -17 -73.5t-47 -63
t-70 -43.5t-86 -16z" />
    <glyph glyph-name="dotaccent" unicode="&#x2d9;" horiz-adv-x="517" 
d="M155 1268q0 19 7.5 36t20 30t29.5 20t36 7q39 0 66 -27t27 -66q0 -19 -7 -36t-20 -29.5t-30 -19.5t-36 -7t-36 7t-29.5 19.5t-20 29.5t-7.5 36z" />
    <glyph glyph-name="ring" unicode="&#x2da;" horiz-adv-x="518" 
d="M234 1522q39 0 72.5 -14.5t59 -40t40 -59t14.5 -71.5q0 -39 -14.5 -73t-40 -58.5t-59 -39t-72.5 -14.5t-73 14.5t-58.5 39t-39 58.5t-14.5 73q0 38 14.5 71.5t39 59t58.5 40t73 14.5zM127 1337q0 -46 30.5 -76.5t76.5 -30.5q22 0 41.5 8t34 22.5t22.5 34t8 42.5
q0 22 -8 41.5t-22.5 34t-34 22.5t-41.5 8q-23 0 -42.5 -8t-34 -22.5t-22.5 -34t-8 -41.5z" />
    <glyph glyph-name="ogonek" unicode="&#x2db;" horiz-adv-x="554" 
d="M349 -104q0 -17 -1.5 -27.5t-6.5 -17.5t-15 -12.5t-26 -11.5q-55 -21 -85.5 -46t-30.5 -66q0 -20 12.5 -37t32 -31t43 -24.5t45.5 -16.5q16 -5 21.5 -15.5t0.5 -21.5l-16 -40q-4 -10 -10 -13.5t-13 -2.5t-14.5 3.5l-13.5 4.5q-92 29 -141 79.5t-49 107.5q0 37 11.5 66.5
t31 52t45.5 38.5t55 26q9 3 14 7.5t8 12.5t4 20t1 31l2 90h95v-156z" />
    <glyph glyph-name="tilde" unicode="&#x2dc;" horiz-adv-x="707" 
d="M107 1209q-13 -15 -26.5 -14.5t-26.5 11.5l-14 15q-14 13 -12.5 23t14.5 25q38 46 77.5 70.5t89.5 24.5q31 0 61 -14t58.5 -31t56 -31t54.5 -14q15 0 28 5.5t24 14.5t20.5 20t18.5 21q14 17 28.5 20t25.5 -7l19 -20q13 -12 10.5 -23.5t-10.5 -22.5q-36 -50 -78.5 -75.5
t-93.5 -25.5q-32 0 -60.5 14t-55.5 31.5t-53 31.5t-53 14q-19 0 -33 -5t-25.5 -13.5t-21.5 -20t-22 -24.5z" />
    <glyph glyph-name="hungarumlaut" unicode="&#x2dd;" horiz-adv-x="948" 
d="M333 1215q-10 -18 -18.5 -22t-16.5 -4h-65q-6 0 -13 3t-11.5 9t-5.5 14.5t5 19.5l108 214q8 17 18 21.5t20 4.5h59q7 0 13.5 -4t10.5 -11t4.5 -15.5t-4.5 -17.5zM656 1215q-9 -18 -17.5 -22t-16.5 -4h-65q-6 0 -13 3t-11.5 9t-5.5 14.5t5 19.5l106 214q9 17 19.5 21.5
t20.5 4.5h58q14 -1 24.5 -14.5t-0.5 -33.5z" />
    <glyph glyph-name="uni037E" unicode="&#x37e;" horiz-adv-x="528" 
d="M117 903q0 19 7.5 36t20 29.5t29.5 20t36 7.5t36 -7.5t30 -20t20 -29.5t7 -36t-7 -36t-20 -29.5t-30 -20t-36 -7.5t-36 7.5t-29.5 20t-20 29.5t-7.5 36zM116 70q0 41 28 68.5t68 27.5q48 0 72.5 -32t24.5 -82q0 -51 -8.5 -86.5t-19.5 -59t-22 -36.5t-16 -18
q-7 -7 -16 -11t-19 4l-31 25q-5 4 -6 9t0 9.5t3.5 8t3.5 5.5q8 15 17.5 28.5t9.5 32.5v11q-37 6 -63 32t-26 64z" />
    <glyph glyph-name="tonos" unicode="&#x384;" horiz-adv-x="517" 
d="M260 1148q-22 0 -35.5 16t-15.5 37l-11 240q-1 17 9 30.5t28 13.5h49q17 0 26.5 -14t8.5 -28l-13 -242q0 -20 -13 -36.5t-33 -16.5z" />
    <glyph glyph-name="dieresistonos" unicode="&#x385;" horiz-adv-x="860" 
d="M375 1188q-22 0 -36 16t-15 37l-11 240q-1 17 9 30.5t28 13.5h49q17 0 26.5 -14t8.5 -28l-13 -242q-1 -20 -13.5 -36.5t-32.5 -16.5zM78 1249q0 36 25.5 61.5t61.5 25.5q38 0 63 -25.5t25 -61.5t-25 -61.5t-63 -25.5q-36 0 -61.5 25.5t-25.5 61.5zM482 1250
q0 36 25.5 61.5t61.5 25.5q37 0 62 -25.5t25 -61.5t-25 -61.5t-62 -25.5q-36 0 -61.5 25.5t-25.5 61.5z" />
    <glyph glyph-name="Alphatonos" unicode="&#x386;" horiz-adv-x="1425" 
d="M1353 43q10 -23 -1 -34t-25 -11h-60q-8 0 -16.5 5.5t-14.5 21.5l-142 346h-765l-142 -345q-7 -16 -14.5 -22t-15.5 -6h-62q-14 0 -24 11t-1 33l593 1417q6 15 15.5 20.5t18.5 5.5h38q9 0 18 -5.5t15 -20.5zM376 485h671l-334 813zM217 1148q-22 0 -35.5 16t-15.5 37
l-11 240q-1 17 9 30.5t28 13.5h49q17 0 26.5 -14t8.5 -28l-13 -242q0 -20 -13 -36.5t-33 -16.5z" />
    <glyph glyph-name="anoteleia" unicode="&#x387;" horiz-adv-x="454" 
d="M110 554q0 19 7.5 36t20 30t29.5 20t36 7q39 0 66 -27t27 -66q0 -19 -7 -36t-20 -29.5t-30 -19.5t-36 -7t-36 7t-29.5 19.5t-20 29.5t-7.5 36z" />
    <glyph glyph-name="Epsilontonos" unicode="&#x388;" horiz-adv-x="1284" 
d="M157 1453q0 32 32 32h972q15 0 25 -6t10 -22v-55q0 -17 -10 -24t-25 -7h-889v-537h714q17 0 27.5 -7.5t10.5 -24.5v-51q0 -17 -10.5 -25t-27.5 -8h-714v-603h903q16 0 25 -7.5t9 -18.5v-61q0 -28 -34 -28h-986q-32 0 -32 32v1421zM11 1152q-22 0 -35.5 16t-15.5 37
l-11 240q-1 17 9 30.5t28 13.5h49q17 0 26.5 -14t8.5 -28l-13 -242q0 -20 -13 -36.5t-33 -16.5z" />
    <glyph glyph-name="Etatonos" unicode="&#x389;" horiz-adv-x="1652" 
d="M1274 703h-976v-668q0 -16 -7 -25.5t-24 -9.5h-52q-16 0 -24 9.5t-8 25.5v1414q0 15 8 25.5t24 10.5h53q30 0 30 -35v-634h976v633q0 15 7 25.5t24 10.5h53q31 0 31 -35v-1415q0 -16 -8 -25.5t-25 -9.5h-51q-17 0 -24 9.5t-7 25.5v668zM15 1148q-22 0 -35.5 16t-15.5 37
l-11 240q-1 17 9 30.5t28 13.5h49q17 0 26.5 -14t8.5 -28l-13 -242q0 -20 -13 -36.5t-33 -16.5z" />
    <glyph glyph-name="Iotatonos" unicode="&#x38a;" horiz-adv-x="436" 
d="M161 1449q0 36 37 36h41q18 0 27.5 -9.5t9.5 -26.5v-1413q0 -36 -37 -36h-41q-37 0 -37 36v1413zM-8 1148q-22 0 -35.5 16t-15.5 37l-11 240q-1 17 9 30.5t28 13.5h49q17 0 26.5 -14t8.5 -28l-13 -242q0 -20 -13 -36.5t-33 -16.5z" />
    <glyph glyph-name="Omicrontonos" unicode="&#x38c;" horiz-adv-x="1758" 
d="M111 741q0 105 27 202.5t76.5 182t119 154.5t154.5 119.5t182 77t203 27.5q104 0 201.5 -27.5t182 -77t154 -119t119 -154.5t77 -183t27.5 -203t-27.5 -202t-77 -181.5t-119 -153.5t-154 -118.5t-182 -76.5t-202.5 -27t-202.5 27t-182 76.5t-154 119t-119 154
t-76.5 181.5t-27 202zM228 742q0 -134 50.5 -251t138 -204.5t205 -138t251.5 -50.5q88 0 170.5 23t154 65t130.5 100.5t101 130t65 154t23 171.5q0 133 -51 250t-138.5 204.5t-204.5 138.5t-250 51q-89 0 -171.5 -23t-154.5 -65t-130.5 -101t-100.5 -130.5t-65 -154
t-23 -170.5zM59 1148q-22 0 -35.5 16t-15.5 37l-11 240q-1 17 9 30.5t28 13.5h49q17 0 26.5 -14t8.5 -28l-13 -242q0 -20 -13 -36.5t-33 -16.5z" />
    <glyph glyph-name="Upsilontonos" unicode="&#x38e;" horiz-adv-x="1257" 
d="M143 1444q-12 19 -2 30t24 11h69q8 0 15 -3.5t16 -17.5l417 -696l423 695q8 14 15.5 18t15.5 4h62q14 0 22.5 -8.5t-2.5 -27.5l-476 -792v-620q0 -17 -5.5 -27t-22.5 -10h-61q-16 0 -21 10.5t-5 26.5v620zM25 1148q-22 0 -35.5 16t-15.5 37l-11 240q-1 17 9 30.5t28 13.5
h49q17 0 26.5 -14t8.5 -28l-13 -242q0 -20 -13 -36.5t-33 -16.5z" />
    <glyph glyph-name="Omegatonos" unicode="&#x38f;" horiz-adv-x="1500" 
d="M901 0q-14 0 -23 8.5t-9 20.5v287q0 12 8.5 19t21 12t26.5 9t25 10q69 33 125 82.5t96 112.5t62 136.5t22 153.5q0 111 -42 208.5t-115 170.5t-170.5 115t-208.5 42t-208.5 -42t-169.5 -115t-114 -170.5t-42 -208.5q0 -87 23 -164t68.5 -141.5t112.5 -115t154 -83.5
q11 -5 20.5 -12t9.5 -19v-287q0 -11 -9 -20t-24 -9h-394q-38 0 -38 37v42q0 36 38 36h311v135q-89 37 -161.5 98t-125 139t-81 170t-28.5 192q0 136 51.5 255.5t141 208.5t209 141t255.5 52t255.5 -51.5t208.5 -141t141 -209t52 -255.5q0 -99 -28.5 -191t-79.5 -169.5
t-122.5 -138.5t-158.5 -98v-137h302q17 0 27.5 -9t10.5 -27v-42q0 -17 -10.5 -27t-27.5 -10h-387zM39 1148q-22 0 -35.5 16t-15.5 37l-11 240q-1 17 9 30.5t28 13.5h49q17 0 26.5 -14t8.5 -28l-13 -242q0 -20 -13 -36.5t-33 -16.5z" />
    <glyph glyph-name="iotadieresistonos" unicode="&#x390;" horiz-adv-x="434" 
d="M160 943q0 17 10.5 27t27.5 10h41q18 0 27.5 -10.5t9.5 -26.5v-907q0 -36 -36 -36h-41q-39 0 -39 36v907zM226 1188q-22 0 -36 16t-15 37l-11 240q-1 17 9 30.5t28 13.5h49q17 0 26.5 -14t8.5 -28l-13 -242q-1 -20 -13.5 -36.5t-32.5 -16.5zM-71 1249q0 36 25.5 61.5
t61.5 25.5q38 0 63 -25.5t25 -61.5t-25 -61.5t-63 -25.5q-36 0 -61.5 25.5t-25.5 61.5zM333 1250q0 36 25.5 61.5t61.5 25.5q37 0 62 -25.5t25 -61.5t-25 -61.5t-62 -25.5q-36 0 -61.5 25.5t-25.5 61.5z" />
    <glyph glyph-name="Alpha" unicode="&#x391;" horiz-adv-x="1432" 
d="M1353 43q10 -23 -1 -34t-25 -11h-60q-8 0 -16.5 5.5t-14.5 21.5l-142 346h-765l-142 -345q-7 -16 -14.5 -22t-15.5 -6h-62q-14 0 -24 11t-1 33l593 1417q6 15 15.5 20.5t18.5 5.5h38q9 0 18 -5.5t15 -20.5zM376 485h671l-334 813z" />
    <glyph glyph-name="Beta" unicode="&#x392;" horiz-adv-x="1356" 
d="M782 1485q82 0 153.5 -28.5t124.5 -79.5t83.5 -120.5t30.5 -151.5q0 -101 -47 -183t-125 -133q54 -22 99.5 -61t79 -89t52 -109t18.5 -121q0 -81 -30.5 -154.5t-83 -129.5t-124.5 -90t-154 -35h-666q-14 0 -22.5 8t-8.5 21v1418q0 17 7.5 27.5t25.5 10.5h587zM1135 408
q0 58 -23 113t-61.5 98t-90 68.5t-108.5 25.5h-575v-598h582q57 0 107 23.5t87.5 63.5t59.5 93.5t22 112.5zM1059 1104q0 59 -21.5 108t-59 84.5t-88 55t-109.5 19.5h-504v-545h504q58 0 109 21.5t88.5 59t59 88t21.5 109.5z" />
    <glyph glyph-name="Gamma" unicode="&#x393;" horiz-adv-x="1210" 
d="M278 1371v-1338q0 -17 -6.5 -25t-23.5 -8h-54q-32 0 -32 33v1418q0 34 32 34h925q16 0 24.5 -6.5t8.5 -23.5v-59q0 -16 -8.5 -20.5t-24.5 -4.5h-841z" />
    <glyph glyph-name="Delta" unicode="&#x394;" horiz-adv-x="1470" 
d="M677 1458q7 16 16.5 21.5t17.5 5.5h58q7 0 17 -5.5t16 -21.5l583 -1416q8 -20 -2 -31t-24 -11h-1238q-17 0 -26 11t-1 31zM251 111h975l-486 1216z" />
    <glyph glyph-name="Epsilon" unicode="&#x395;" horiz-adv-x="1284" 
d="M162 1453q0 32 32 32h972q15 0 25 -6t10 -22v-55q0 -17 -10 -24t-25 -7h-889v-537h714q17 0 27.5 -7.5t10.5 -24.5v-51q0 -17 -10.5 -25t-27.5 -8h-714v-603h903q16 0 25 -7.5t9 -18.5v-61q0 -28 -34 -28h-986q-32 0 -32 32v1421z" />
    <glyph glyph-name="Zeta" unicode="&#x396;" horiz-adv-x="1364" 
d="M1178 1485q30 0 30 -31v-49q0 -8 -7 -18l-976 -1272h944q34 0 34 -29v-56q0 -30 -34 -30h-1075q-30 0 -30 30v48q0 12 8 22l980 1269h-915q-17 0 -27 7t-10 23v56q0 16 10 23t26 7h1042z" />
    <glyph glyph-name="Eta" unicode="&#x397;" horiz-adv-x="1546" 
d="M1253 703h-976v-668q0 -16 -7 -25.5t-24 -9.5h-52q-16 0 -24 9.5t-8 25.5v1414q0 15 8 25.5t24 10.5h53q30 0 30 -35v-634h976v633q0 15 7 25.5t24 10.5h53q31 0 31 -35v-1415q0 -16 -8 -25.5t-25 -9.5h-51q-17 0 -24 9.5t-7 25.5v668z" />
    <glyph glyph-name="Theta" unicode="&#x398;" horiz-adv-x="1706" 
d="M88 741q0 105 27 202.5t76.5 182t119 154.5t154 119.5t182 77t202.5 27.5t202 -27.5t181.5 -77t154.5 -119t119.5 -154.5t77 -183t27.5 -203t-27.5 -202t-77 -181.5t-119 -153.5t-154.5 -118.5t-182.5 -76.5t-202.5 -27q-158 0 -296.5 59.5t-241.5 163t-162.5 241.5
t-59.5 296zM205 742q0 -134 50.5 -251t138 -204.5t204.5 -138t251 -50.5q88 0 170.5 23t154 65t130.5 100.5t101 130t65 154t23 171.5q0 133 -51 250t-138.5 204.5t-204.5 138.5t-250 51q-89 0 -171.5 -23t-154 -65t-130 -101t-100.5 -130.5t-65 -154t-23 -170.5zM1155 812
q15 0 24 -7.5t9 -23.5v-52q0 -15 -8.5 -24.5t-24.5 -9.5h-650q-33 0 -33 34v52q0 31 33 31h650z" />
    <glyph glyph-name="Iota" unicode="&#x399;" horiz-adv-x="436" 
d="M161 1449q0 36 37 36h41q18 0 27.5 -9.5t9.5 -26.5v-1413q0 -36 -37 -36h-41q-37 0 -37 36v1413z" />
    <glyph glyph-name="Kappa" unicode="&#x39a;" horiz-adv-x="1468" 
d="M683 869l696 -824q13 -15 4.5 -30t-25.5 -15h-82q-8 0 -18 5t-21 19l-631 763l-328 -348v-404q0 -16 -6.5 -25.5t-23.5 -9.5h-54q-17 0 -24.5 9.5t-7.5 25.5v1415q0 15 8 25t24 10h53q14 0 22.5 -9.5t8.5 -25.5v-842l804 855q14 14 23.5 18t17.5 4h79q9 0 15.5 -4.5
t9.5 -11.5t1.5 -15.5t-7.5 -15.5z" />
    <glyph glyph-name="Lambda" unicode="&#x39b;" horiz-adv-x="1436" 
d="M1376 42q9 -23 -1.5 -34.5t-24.5 -11.5h-71q-8 0 -16.5 5.5t-14.5 21.5l-512 1266l-520 -1265q-6 -16 -14 -22t-16 -6h-69q-13 0 -23.5 11t-1.5 34l593 1419q6 15 15.5 20.5t18.5 5.5h38q9 0 18 -5.5t15 -20.5z" />
    <glyph glyph-name="Mu" unicode="&#x39c;" horiz-adv-x="1719" 
d="M334 1272l-110 -1240q-2 -17 -9 -24.5t-24 -7.5h-62q-17 0 -21 10t-2 26l137 1419q2 13 10.5 21.5t25.5 8.5h68q14 0 24 -21l527 -1179l521 1175q6 14 13.5 19.5t14.5 5.5h73q31 0 34 -30l135 -1421q3 -34 -29 -34h-53q-31 0 -34 30l-113 1238l-506 -1137
q-6 -13 -14 -16.5t-14 -3.5h-56q-6 0 -15 4t-14 16z" />
    <glyph glyph-name="Nu" unicode="&#x39d;" horiz-adv-x="1542" 
d="M1287 1452q0 34 33 34h48q34 0 34 -32v-1425q0 -15 -9 -22t-23 -7h-52q-11 0 -20.5 6t-15.5 14l-1005 1273v-1257q0 -36 -37 -36h-42q-36 0 -36 36v1413q0 16 8 26t25 10h63q11 0 19 -10l1010 -1269v1246z" />
    <glyph glyph-name="Xi" unicode="&#x39e;" horiz-adv-x="1238" 
d="M905 793q15 0 24 -7.5t9 -24.5v-52q0 -15 -8.5 -24t-24.5 -9h-630q-16 0 -24 9t-8 24v52q0 32 32 32h630zM1103 117q34 0 34 -33v-52q0 -32 -33 -32h-1022q-32 0 -32 32v52q0 33 33 33h1020zM1074 1485q33 0 33 -33v-50q0 -15 -8.5 -24t-25.5 -9h-966q-17 0 -25.5 9
t-8.5 24v50q0 33 33 33h968z" />
    <glyph glyph-name="Omicron" unicode="&#x39f;" horiz-adv-x="1706" 
d="M88 741q0 105 27 202.5t76.5 182t119 154.5t154.5 119.5t182 77t203 27.5q104 0 201.5 -27.5t182 -77t154 -119t119 -154.5t77 -183t27.5 -203t-27.5 -202t-77 -181.5t-119 -153.5t-154 -118.5t-182 -76.5t-202.5 -27t-202.5 27t-182 76.5t-154 119t-119 154t-76.5 181.5
t-27 202zM205 742q0 -134 50.5 -251t138 -204.5t205 -138t251.5 -50.5q88 0 170.5 23t154 65t130.5 100.5t101 130t65 154t23 171.5q0 133 -51 250t-138.5 204.5t-204.5 138.5t-250 51q-89 0 -171.5 -23t-154.5 -65t-130.5 -101t-100.5 -130.5t-65 -154t-23 -170.5z" />
    <glyph glyph-name="Pi" unicode="&#x3a0;" horiz-adv-x="1328" 
d="M1086 1368h-809v-1338q0 -16 -5 -23t-22 -7h-53q-31 0 -31 30v1422q0 33 31 33h970q12 0 21.5 -8t9.5 -23v-1423q0 -31 -33 -31h-52q-16 0 -21.5 7.5t-5.5 23.5v1337z" />
    <glyph glyph-name="Rho" unicode="&#x3a1;" horiz-adv-x="1258" 
d="M162 1444q0 20 8 30.5t28 10.5h484q96 0 180 -36.5t146.5 -99t99 -146.5t36.5 -180t-36.5 -180t-99 -146.5t-146 -99t-178.5 -36.5h-407v-527q0 -17 -6 -25.5t-24 -8.5h-52q-22 0 -27.5 8.5t-5.5 25.5v1410zM1031 1023q0 73 -27.5 137t-74.5 112t-111 75.5t-136 27.5
h-405v-704h405q72 0 136 27.5t111 75.5t74.5 112t27.5 137z" />
    <glyph glyph-name="Sigma" unicode="&#x3a3;" horiz-adv-x="1216" 
d="M121 78q0 16 11 30l545 636l-550 635q-11 13 -11 30v45q0 16 9 23.5t23 7.5h975q32 0 32 -31v-55q0 -32 -32 -32h-830l519 -599q8 -10 9 -22t-9 -22l-517 -607h847q33 0 33 -31v-54q0 -32 -33 -32h-990q-31 0 -31 32v46z" />
    <glyph glyph-name="Tau" unicode="&#x3a4;" horiz-adv-x="1222" 
d="M1125 1485q17 0 28.5 -9t11.5 -27v-44q0 -36 -40 -36h-464v-1332q0 -37 -37 -37h-41q-37 0 -37 37v1332h-468q-36 0 -36 39v41q0 17 9.5 26.5t26.5 9.5h1047z" />
    <glyph glyph-name="Upsilon" unicode="&#x3a5;" horiz-adv-x="1106" 
d="M20 1444q-12 19 -2 30t24 11h69q8 0 15 -3.5t16 -17.5l417 -696l423 695q8 14 15.5 18t15.5 4h62q14 0 22.5 -8.5t-2.5 -27.5l-476 -792v-620q0 -17 -5.5 -27t-22.5 -10h-61q-16 0 -21 10.5t-5 26.5v620z" />
    <glyph glyph-name="Phi" unicode="&#x3a6;" horiz-adv-x="1542" 
d="M74 741q0 124 49.5 234.5t136 196t203 139.5t251.5 65v79q0 31 32 31h52q15 0 24 -8t9 -23v-79q90 -7 172.5 -33.5t154 -69.5t130 -100.5t100 -126t64.5 -146t23 -160.5q0 -125 -50 -235.5t-137 -195.5t-204.5 -139t-252.5 -64v-75q0 -31 -33 -31h-52q-32 0 -32 31v76
q-135 10 -251.5 63.5t-203 138.5t-136 196t-49.5 236zM1359 741q0 104 -40.5 194.5t-111.5 159t-167.5 111.5t-208.5 52v-1034q112 10 208.5 53t167.5 111.5t111.5 158.5t40.5 194zM190 741q0 -104 40 -194t110.5 -158.5t166 -111.5t207.5 -53v1033q-111 -9 -207 -52
t-166.5 -111t-110.5 -158.5t-40 -194.5z" />
    <glyph glyph-name="Chi" unicode="&#x3a7;" horiz-adv-x="1240" 
d="M677 740l471 -695q7 -10 6.5 -18.5t-4.5 -14.5t-11 -9t-13 -3h-63q-7 0 -16.5 3.5t-17.5 16.5l-419 620l-418 -619q-10 -15 -17.5 -18t-15.5 -3h-63q-7 0 -14 3.5t-10.5 9.5t-3.5 14.5t6 18.5l469 693l-473 701q-12 20 -3 32.5t23 12.5h65q7 0 15.5 -4t17.5 -16l423 -626
l424 626q8 13 16.5 16.5t16.5 3.5h64q6 0 12.5 -3.5t11 -9.5t4.5 -14t-6 -17z" />
    <glyph glyph-name="Psi" unicode="&#x3a8;" horiz-adv-x="1328" 
d="M91 1456q0 13 8.5 22t22.5 9h55q14 0 23.5 -8.5t9.5 -22.5v-353q0 -88 28 -165.5t78.5 -137t121 -98.5t156.5 -51v804q0 31 32 31h52q15 0 24 -8.5t9 -22.5v-806q89 11 161 50t123 99.5t78.5 138t27.5 166.5v352q0 14 8 21.5t20 7.5h59q14 0 22 -8t8 -20v-308
q0 -30 -1 -58.5t-4 -57.5q-10 -101 -52 -187t-109 -151.5t-154 -106.5t-187 -51v-505q0 -31 -33 -31h-52q-32 0 -32 31v505q-106 12 -197.5 59.5t-159.5 121.5t-107 169.5t-39 202.5v367z" />
    <glyph glyph-name="Iotadieresis" unicode="&#x3aa;" horiz-adv-x="436" 
d="M161 1449q0 36 37 36h41q18 0 27.5 -9.5t9.5 -26.5v-1413q0 -36 -37 -36h-41q-37 0 -37 36v1413zM-44 1692q0 36 25.5 61.5t61.5 25.5q38 0 63 -25.5t25 -61.5t-25 -61.5t-63 -25.5q-36 0 -61.5 25.5t-25.5 61.5zM320 1693q0 36 25.5 61.5t61.5 25.5q37 0 62 -25.5
t25 -61.5t-25 -61.5t-62 -25.5q-36 0 -61.5 25.5t-25.5 61.5z" />
    <glyph glyph-name="Upsilondieresis" unicode="&#x3ab;" horiz-adv-x="1106" 
d="M20 1444q-12 19 -2 30t24 11h69q8 0 15 -3.5t16 -17.5l417 -696l423 695q8 14 15.5 18t15.5 4h62q14 0 22.5 -8.5t-2.5 -27.5l-476 -792v-620q0 -17 -5.5 -27t-22.5 -10h-61q-16 0 -21 10.5t-5 26.5v620zM291 1750q0 36 25.5 61.5t61.5 25.5q38 0 63 -25.5t25 -61.5
t-25 -61.5t-63 -25.5q-36 0 -61.5 25.5t-25.5 61.5zM655 1751q0 36 25.5 61.5t61.5 25.5q37 0 62 -25.5t25 -61.5t-25 -61.5t-62 -25.5q-36 0 -61.5 25.5t-25.5 61.5z" />
    <glyph glyph-name="alphatonos" unicode="&#x3ac;" horiz-adv-x="1188" 
d="M567 1148q-22 0 -35.5 16t-15.5 37l-11 240q-1 17 9 30.5t28 13.5h49q17 0 26.5 -14t8.5 -28l-13 -242q0 -20 -13 -36.5t-33 -16.5zM1038 32q0 -17 -7.5 -24.5t-26.5 -7.5h-48q-20 0 -25.5 8.5t-5.5 27.5v176q-18 -56 -53 -99.5t-82.5 -73.5t-105.5 -46t-123 -16
q-102 0 -190 40t-152.5 109t-101.5 162t-37 199t36.5 199.5t101 163.5t152.5 110t191 40q66 0 125.5 -17t107.5 -48t82 -73.5t49 -93.5l4 170q1 20 8 30.5t27 10.5h43q18 0 24.5 -10.5t6.5 -30.5v-906zM924 486q0 82 -26.5 155t-74.5 128t-115 87t-147 32q-81 0 -148.5 -32
t-116 -86.5t-76 -127.5t-27.5 -155t27.5 -154.5t76.5 -126.5t116.5 -85.5t147.5 -31.5q79 0 146 31t115 84.5t75 126t27 155.5z" />
    <glyph glyph-name="epsilontonos" unicode="&#x3ad;" horiz-adv-x="874" 
d="M459 1148q-22 0 -35.5 16t-15.5 37l-11 240q-1 17 9 30.5t28 13.5h49q17 0 26.5 -14t8.5 -28l-13 -242q0 -20 -13 -36.5t-33 -16.5zM718 809q-6 -8 -17.5 -10t-19.5 6q-26 22 -53 37t-54 24t-53 12.5t-48 3.5h-22q-88 0 -131.5 -43t-43.5 -117q0 -31 12 -59t33 -49
t49 -33.5t61 -12.5h111q33 0 39.5 -10t6.5 -26v-54q0 -8 -6 -14t-14 -6h-158q-36 0 -67.5 -14.5t-55.5 -38.5t-37.5 -56t-13.5 -67q0 -37 14 -69.5t39.5 -56.5t61.5 -38t80 -14h22q76 0 135.5 18t104.5 69q6 8 16 8.5t19 -8.5l42 -42q12 -12 1.5 -32t-27.5 -34
q-31 -26 -61 -43t-64 -27.5t-73.5 -14.5t-90.5 -4q-69 0 -131 20.5t-108 58t-73 90.5t-27 118q0 77 38.5 138.5t101.5 102.5q-45 33 -72.5 87t-27.5 114q0 65 24 115.5t66.5 84.5t101 51.5t127.5 17.5q58 0 116 -15t126 -58q8 -6 17 -13.5t15 -16t6.5 -18.5t-6.5 -20z" />
    <glyph glyph-name="etatonos" unicode="&#x3ae;" horiz-adv-x="1182" 
d="M277 36q0 -36 -37 -36h-41q-37 0 -37 36v916q0 14 7.5 23t22.5 9h59q9 0 15.5 -6t7.5 -16l3 -136q25 37 59 69t75 55.5t87.5 37t97.5 13.5q86 0 159.5 -32t127.5 -88t85 -131.5t31 -161.5v-933q0 -20 -10.5 -30t-28.5 -10h-41q-20 0 -28 9.5t-8 29.5v936q0 62 -24 116
t-64.5 94t-95 63t-115.5 23q-60 0 -114.5 -22t-96.5 -60.5t-67.5 -91t-28.5 -113.5v-563zM589 1148q-22 0 -35.5 16t-15.5 37l-11 240q-1 17 9 30.5t28 13.5h49q17 0 26.5 -14t8.5 -28l-13 -242q0 -20 -13 -36.5t-33 -16.5z" />
    <glyph glyph-name="iotatonos" unicode="&#x3af;" horiz-adv-x="435" 
d="M160 943q0 17 10.5 27t27.5 10h41q18 0 27.5 -10.5t9.5 -26.5v-907q0 -36 -36 -36h-41q-39 0 -39 36v907zM218 1148q-22 0 -35.5 16t-15.5 37l-11 240q-1 17 9 30.5t28 13.5h49q17 0 26.5 -14t8.5 -28l-13 -242q0 -20 -13 -36.5t-33 -16.5z" />
    <glyph glyph-name="upsilondieresistonos" unicode="&#x3b0;" horiz-adv-x="1136" 
d="M972 389q0 -86 -33 -161t-90 -130.5t-133.5 -88t-163.5 -32.5t-163.5 32.5t-133.5 88t-90 130.5t-33 161v553q0 37 37 37h50q20 0 28 -9t8 -27v-559q0 -59 23.5 -112t64 -93t94.5 -63.5t115 -23.5t115 22.5t94.5 62t64 93t23.5 114.5v559q0 18 8 27t28 9h50q37 0 37 -37
v-553zM568 1188q-22 0 -36 16t-15 37l-11 240q-1 17 9 30.5t28 13.5h49q17 0 26.5 -14t8.5 -28l-13 -242q-1 -20 -13.5 -36.5t-32.5 -16.5zM271 1249q0 36 25.5 61.5t61.5 25.5q38 0 63 -25.5t25 -61.5t-25 -61.5t-63 -25.5q-36 0 -61.5 25.5t-25.5 61.5zM675 1250
q0 36 25.5 61.5t61.5 25.5q37 0 62 -25.5t25 -61.5t-25 -61.5t-62 -25.5q-36 0 -61.5 25.5t-25.5 61.5z" />
    <glyph glyph-name="alpha" unicode="&#x3b1;" horiz-adv-x="1188" 
d="M1038 32q0 -17 -7.5 -24.5t-26.5 -7.5h-48q-20 0 -25.5 8.5t-5.5 27.5v176q-18 -56 -53 -99.5t-82.5 -73.5t-105.5 -46t-123 -16q-102 0 -190 40t-152.5 109t-101.5 162t-37 199t36.5 199.5t101 163.5t152.5 110t191 40q66 0 125.5 -17t107.5 -48t82 -73.5t49 -93.5
l4 170q1 20 8 30.5t27 10.5h43q18 0 24.5 -10.5t6.5 -30.5v-906zM924 486q0 82 -26.5 155t-74.5 128t-115 87t-147 32q-81 0 -148.5 -32t-116 -86.5t-76 -127.5t-27.5 -155t27.5 -154.5t76.5 -126.5t116.5 -85.5t147.5 -31.5q79 0 146 31t115 84.5t75 126t27 155.5z" />
    </font>
</defs>
</svg>
