<svg version="1.1" id="Calque_1" xmlns="http://www.w3.org/2000/svg" xmlns:xlink="http://www.w3.org/1999/xlink" x="0px" y="0px"
	 width="11px" height="15px" viewBox="0 0 11 15" enable-background="new 0 0 11 15" xml:space="preserve">
<path fill="#FFFFFF" d="M3.392578,14.853516C3.290039,14.951172,3.150391,15,2.972656,15s-0.331055-0.058594-0.461914-0.172852
	l-2.239258-2.117188c-0.067383-0.0625-0.113281-0.128906-0.140625-0.199219c-0.027344-0.071289-0.051758-0.140625-0.070312-0.211914
	c0.018555-0.061523,0.040039-0.12793,0.063477-0.199219c0.023438-0.069336,0.063477-0.140625,0.118164-0.210938l4.578125-4.355469
	L0.242188,3.177734C0.121094,3.019531,0.060547,2.880859,0.060547,2.767578c0-0.168945,0.075195-0.323242,0.224609-0.464844
	l2.294922-2.116211C2.693359,0.0625,2.824219,0,2.972656,0c0.15918,0,0.303711,0.0625,0.433594,0.186523l7.322266,6.949707
	c0.140625,0.131836,0.210938,0.259766,0.210938,0.383789c0,0.141113-0.070312,0.27832-0.210938,0.410156L3.392578,14.853516z"/>
</svg>
