<?xml version="1.0" standalone="no"?>
<!DOCTYPE svg PUBLIC "-//W3C//DTD SVG 1.1//EN" "http://www.w3.org/Graphics/SVG/1.1/DTD/svg11.dtd" >
<svg xmlns="http://www.w3.org/2000/svg" xmlns:xlink="http://www.w3.org/1999/xlink" version="1.1">
<metadata>
Created by FontForge 20170731 at Sun Mar 26 11:32:50 2017
 By ,,,
Copyright (c) 2015 by Studio Kmzero. All rights reserved.
</metadata>
<defs>
<font id="coco-gothic-bold" horiz-adv-x="0" >
  <font-face 
    font-family="Coco Gothic"
    font-weight="700"
    font-stretch="normal"
    units-per-em="1000"
    panose-1="2 0 5 3 2 0 0 2 0 3"
    ascent="800"
    descent="-200"
    x-height="490"
    cap-height="742"
    bbox="-470 -387 1321 1121"
    underline-thickness="50"
    underline-position="-200"
    unicode-range="U+000D-FB04"
  />
<missing-glyph horiz-adv-x="313" 
d="M141 125h281q-63 -53 -141 -53q-77 0 -140 53zM397 415l-273 -274q-52 60 -52 141q0 75 47 133h278zM420 438h-280q60 54 141 54q80 0 139 -54zM490 282q0 -76 -47 -134h-279l273 275q53 -67 53 -141zM349 38q-33 -9 -68 -9q-107 0 -180 75t-73 178q0 107 75 180.5
t178 73.5q107 0 180 -76t73 -178q0 -89 -52.5 -154.5t-132.5 -89.5zM342 506q-27 9 -61 9q-99 0 -165.5 -69t-66.5 -164t67.5 -164.5t164.5 -69.5q96 0 164.5 68.5t68.5 165.5q0 82 -49 143t-123 81z" />
    <glyph glyph-name="ff" unicode="ff" horiz-adv-x="618" 
d="M403 492v86q0 79 54.5 125t136.5 46q28 0 28 -28v-69q0 -14 -8 -19.5t-21 -7.5t-18 -5q-41 -10 -41 -56v-72h52q27 0 27 -28v-52q0 -13 -7.5 -21t-19.5 -8h-52v-358q0 -11 -8 -18t-18 -7h-79q-11 0 -18.5 7t-7.5 18v358h-43h-136v-358q0 -11 -8 -18t-19 -7h-78
q-11 0 -18.5 7t-7.5 18v358h-39q-27 0 -27 29v52q0 28 27 28h39v86q0 79 54.5 125t136.5 46q27 0 27 -28v-69q0 -26 -22 -26q-65 0 -65 -62v-72h134h45z" />
    <glyph glyph-name="fi" unicode="fi" horiz-adv-x="573" 
d="M399 23v360h-176v-358q0 -11 -8 -18t-18 -7h-79q-11 0 -18.5 7t-7.5 18v358h-39q-27 0 -27 29v52q0 27 27 27h39v72q0 86 52.5 136t138.5 50q28 0 28 -28v-69q0 -11 -6.5 -18.5t-16.5 -7.5q-29 0 -47 -15.5t-18 -46.5v-73h283q25 0 25 -25v-443q0 -23 -25 -23h-83
q-24 0 -24 23zM387 637q0 32 22.5 54.5t54.5 22.5q33 0 55 -22.5t22 -54.5t-22 -54t-55 -22q-32 0 -54.5 22.5t-22.5 53.5z" />
    <glyph glyph-name="ffi" unicode="ffi" horiz-adv-x="897" 
d="M714 23v359h-174v-357q0 -11 -8 -18t-18 -7h-79q-11 0 -18.5 7t-7.5 18v357h-186v-357q0 -11 -8 -18t-18 -7h-79q-11 0 -18.5 7t-7.5 18v357h-39q-27 0 -27 30v52q0 27 27 27h39v87q0 79 54.5 125t136.5 46q28 0 28 -28v-69q0 -11 -6.5 -18.5t-16.5 -7.5q-29 0 -47 -15.5
t-18 -46.5v-73h186v74q0 85 52.5 134.5t138.5 49.5q28 0 28 -28v-69q0 -11 -6.5 -18.5t-16.5 -7.5q-29 0 -47 -15.5t-18 -46.5v-73h279q27 0 27 -27v-2v-439q0 -23 -25 -23h-83q-24 0 -24 23zM702 637q0 32 22 54.5t54 22.5q33 0 55 -22.5t22 -54.5t-22 -54t-55 -22
q-32 0 -54 22.5t-22 53.5z" />
    <glyph glyph-name=".notdef" horiz-adv-x="313" 
d="M141 125h281q-63 -53 -141 -53q-77 0 -140 53zM397 415l-273 -274q-52 60 -52 141q0 75 47 133h278zM420 438h-280q60 54 141 54q80 0 139 -54zM490 282q0 -76 -47 -134h-279l273 275q53 -67 53 -141zM349 38q-33 -9 -68 -9q-107 0 -180 75t-73 178q0 107 75 180.5
t178 73.5q107 0 180 -76t73 -178q0 -89 -52.5 -154.5t-132.5 -89.5zM342 506q-27 9 -61 9q-99 0 -165.5 -69t-66.5 -164t67.5 -164.5t164.5 -69.5q96 0 164.5 68.5t68.5 165.5q0 82 -49 143t-123 81z" />
    <glyph glyph-name=".null" 
 />
    <glyph glyph-name="nonmarkingreturn" horiz-adv-x="333" 
 />
    <glyph glyph-name="NULL" 
 />
    <glyph glyph-name="NULL" 
 />
    <glyph glyph-name="CR" unicode="&#xd;" horiz-adv-x="250" 
 />
    <glyph glyph-name="space" unicode=" " horiz-adv-x="313" 
 />
    <glyph glyph-name="exclam" unicode="!" horiz-adv-x="307" 
d="M227 715v-470q0 -27 -27 -27h-91q-12 0 -20 7.5t-8 19.5v470q0 27 28 27h91q27 0 27 -27zM73 68q0 34 24 57.5t57 23.5q34 0 57.5 -23.5t23.5 -57.5q0 -33 -23.5 -57t-57.5 -24q-33 0 -57 24t-24 57z" />
    <glyph glyph-name="quotedbl" unicode="&#x22;" horiz-adv-x="416" 
d="M81 552v168q0 22 22 22h70q22 0 22 -22v-168q0 -22 -23 -22h-69q-22 0 -22 22zM266 552v168q0 22 22 22h70q22 0 22 -22v-168q0 -22 -23 -22h-69q-22 0 -22 22z" />
    <glyph glyph-name="numbersign" unicode="#" horiz-adv-x="579" 
d="M451 554h65q21 0 21 -22l-3 -66q0 -9 -7 -16.5t-16 -7.5h-65l-11 -144h65q21 0 21 -21q0 -22 -2 -66q-1 -9 -8 -16.5t-16 -7.5h-65l-11 -165q-1 -22 -25 -22h-66q-21 0 -21 19v3l11 165h-88l-11 -165q-1 -22 -25 -22h-66q-20 0 -20 19v3l11 165h-59q-21 0 -21 21
q0 2 3 68q0 22 24 22h58l11 144h-59q-21 0 -21 21v3l3 66q2 22 24 22h58l11 166q0 22 23 22h66q9 0 15.5 -6.5t6.5 -15.5l-11 -166h88l11 166q2 22 24 22h66q9 0 15.5 -6.5t6.5 -15.5zM246 442l-11 -144h88l11 144h-88z" />
    <glyph glyph-name="dollar" unicode="$" horiz-adv-x="641" 
d="M504 544q-10 0 -25 12l-1 1q-24 24 -62.5 45t-78.5 21q-54 0 -84.5 -22.5t-30.5 -56.5q0 -32 35 -51.5t104 -40.5q45 -14 75.5 -25.5t67.5 -31t59 -41.5t37.5 -54t15.5 -71q0 -89 -58 -151t-152 -80v-69q0 -22 -24 -22h-90q-22 0 -22 22v67q-127 22 -212 121v-1l-1 2
q-11 14 -11 23q0 10 12 22l17 16q48 45 60 45q10 0 23 -13l2 -2q36 -35 85 -59.5t87 -24.5q56 0 93.5 27t37.5 71q0 21 -11.5 37t-37 28.5t-44.5 19t-54 16.5q-126 38 -185 90t-59 133q0 79 53 133.5t145 69.5v70q0 22 22 22h90q8 0 16 -6.5t8 -15.5v-73q57 -14 109 -45
q71 -46 71 -71q0 -12 -10 -24l-15 -16v1q-44 -48 -57 -48z" />
    <glyph glyph-name="percent" unicode="%" horiz-adv-x="928" 
d="M48 564q0 81 56.5 138t137.5 57q82 0 138.5 -57t56.5 -138t-56.5 -138t-138.5 -57q-81 0 -137.5 57t-56.5 138zM523 184q0 82 51.5 138.5t131.5 56.5q82 0 144.5 -57.5t62.5 -137.5q0 -81 -56.5 -138t-137.5 -57q-82 0 -139 57t-57 138zM639 184q0 -34 23 -57t57 -23
q33 0 56.5 23t23.5 57q0 36 -24 57.5t-56 21.5q-34 0 -57 -23t-23 -56zM161 564q0 -34 23.5 -57.5t57.5 -23.5t57.5 23.5t23.5 57.5t-23.5 57t-57.5 23t-57.5 -23t-23.5 -57zM245 28l322 689q12 25 35 25h76q28 0 28 -19q0 -1 -0.5 -4t-0.5 -5l-1 -2q-116 -246 -173 -369
l-67 -143q-56 -120 -83 -178q-12 -22 -30 -22h-85q-24 0 -24 17l2 8v-1q0 3 1 4z" />
    <glyph glyph-name="ampersand" unicode="&#x26;" horiz-adv-x="838" 
d="M374 263l22 92q1 7 5 11.5t10 3.5l236 -50q16 -1 27.5 -2.5t20.5 4t14 9t9 12t5.5 12.5t3 11.5t1.5 8.5q5 14 19 10l90 -18q6 -1 9 -7t1 -13q-3 -13 -9 -28.5t-18 -37.5t-28 -38.5t-39.5 -32t-53 -18t-68.5 2.5l-36 7q-15 -104 -91 -158.5t-179 -54.5q-104 0 -182 68.5
t-78 168.5q0 130 105 196q-52 55 -52 139q0 81 60.5 135t144.5 54q95 0 149.5 -54t54.5 -139q0 -29 -13 -29l-89 -1q-16 0 -16 14q0 81 -78 81q-39 0 -60.5 -21t-21.5 -51q0 -37 23.5 -62t58.5 -28q7 -1 13 -6t5 -14l-17 -81q-1 -7 -6 -10t-9 -3t-13 1.5t-11 1.5
q-38 2 -62.5 -26.5t-24.5 -80.5q0 -55 36 -88t89 -33q57 0 91.5 29t37.5 80l-70 17q-18 3 -16 16z" />
    <glyph glyph-name="quotesingle" unicode="'" horiz-adv-x="264" 
d="M81 552v168q0 22 22 22h70q22 0 22 -22v-168q0 -22 -23 -22h-69q-22 0 -22 22z" />
    <glyph glyph-name="parenleft" unicode="(" horiz-adv-x="321" 
d="M211 -153q-149 238 -149 522q0 285 149 522q12 20 30 6l81 -54q9 -6 10.5 -15t-4.5 -16q-126 -201 -126 -443q0 -122 31 -231q32 -110 95 -211q13 -18 -6 -32l-81 -53q-18 -14 -30 5z" />
    <glyph glyph-name="parenright" unicode=")" horiz-adv-x="329" 
d="M123 -153q-12 -19 -30 -5l-81 53q-19 14 -6 32q63 101 95 211q31 109 31 231q0 242 -126 443q-6 7 -4.5 16t10.5 15l81 54q18 14 30 -6q149 -237 149 -522q0 -284 -149 -522z" />
    <glyph glyph-name="asterisk" unicode="*" horiz-adv-x="491" 
d="M63 278v72q0 8 4.5 12.5t11.5 3.5l103 -10l-61 83q-7 14 6 21l63 37q15 8 22 -6l40 -89l41 88q5 14 21 5l63 -36q13 -8 5 -22l-62 -83l106 11q7 1 10.5 -3t4.5 -12v-73q0 -16 -17 -16l-101 13l61 -85q10 -12 -5 -21l-64 -36q-15 -9 -21 6l-42 101l-45 -103q-7 -13 -21 -6
l-62 36q-14 8 -7 23l61 84l-100 -11q-15 0 -15 16z" />
    <glyph glyph-name="plus" unicode="+" horiz-adv-x="450" 
d="M297 243v-101q0 -27 -27 -27h-75q-10 0 -19.5 8t-9.5 19v101h-97q-27 0 -27 28v70q0 27 27 27h97v101q0 26 29 26h75q27 0 27 -26v-101h98q12 0 19.5 -7.5t7.5 -19.5v-70q0 -10 -8 -19t-19 -9h-98z" />
    <glyph glyph-name="comma" unicode="," horiz-adv-x="264" 
d="M60 66q0 35 24 59t58 24q36 0 59.5 -25t23.5 -64q0 -51 -15 -91.5t-31.5 -58t-28.5 -17.5q-7 0 -17 6l-24 18q-6 5 -6 14q0 8 5 13l7 10q11 14 11 31q-27 5 -46.5 29t-19.5 52z" />
    <glyph glyph-name="hyphen" unicode="-" horiz-adv-x="517" 
d="M106 347h326q12 0 19.5 -7t7.5 -19v-71q0 -10 -8 -19t-19 -9h-326q-26 0 -26 28v71q0 26 26 26z" />
    <glyph glyph-name="period" unicode="." horiz-adv-x="264" 
d="M60 68q0 34 23.5 57.5t56.5 23.5q34 0 57.5 -23.5t23.5 -57.5q0 -33 -23.5 -57t-57.5 -24q-33 0 -56.5 24t-23.5 57z" />
    <glyph glyph-name="slash" unicode="/" horiz-adv-x="497" 
d="M500 721l-303 -703q-8 -18 -26 -18h-98q-9 0 -12.5 5.5t0.5 15.5l304 703q8 18 26 18h97q21 0 12 -21z" />
    <glyph glyph-name="zero" unicode="0" horiz-adv-x="853" 
d="M44 370q0 158 111 269.5t269 111.5q157 0 271.5 -112t114.5 -269t-114.5 -268.5t-271.5 -111.5q-158 0 -269 111t-111 269zM187 371q0 -101 69 -171.5t168 -70.5q100 0 171.5 71t71.5 171t-71.5 171t-171.5 71q-99 0 -168 -71t-69 -171z" />
    <glyph glyph-name="one" unicode="1" horiz-adv-x="341" 
d="M203 742h94q15 0 15 -18v-704q0 -20 -21 -20h-101q-20 0 -20 19v580l-76 -35q-15 -7 -17 6v100q-2 17 12 22l71 38q24 12 43 12z" />
    <glyph glyph-name="two" unicode="2" horiz-adv-x="616" 
d="M300 625q-73 -4 -118 -76q-7 -11 -19 -11q-8 0 -22 7l-56 28q-9 5 -11 16q0 19 25 54q35 49 89.5 78t116.5 29q101 0 176.5 -64t77.5 -164q0 -84 -58 -150q-19 -22 -58.5 -63t-101 -102t-81.5 -81h285q24 0 24 -22v-80q0 -9 -7 -16.5t-17 -7.5q-75 0 -229 0.5t-230 -0.5
q-9 0 -16.5 7t-7.5 17v57q0 7 3 13l320 338q39 40 39 83q0 49 -35 79.5t-89 30.5z" />
    <glyph glyph-name="three" unicode="3" horiz-adv-x="533" 
d="M273 110q54 0 90.5 32.5t36.5 87.5q0 49 -35.5 83t-89.5 34q-23 0 -23 21v75q0 21 23 21q36 0 59.5 25t23.5 56q0 35 -22.5 59.5t-60.5 24.5q-22 0 -44 -10q-24 -12 -46 -47q-7 -11 -15 -11q-9 0 -23 9q-1 0 -9.5 4.5l-17 9t-17.5 10.5t-15 12t-6 10q0 10 6 17
q77 116 191 116q82 0 141 -57.5t59 -138.5q0 -44 -12.5 -73t-48.5 -60q115 -74 115 -192q0 -101 -73 -170t-176 -69q-145 0 -223 110q-22 33 -26 55q-2 4 -2 8q0 11 11 16q9 4 28.5 12.5t29.5 12.5q19 7 22 7q4 0 7 -1t5 -2t4.5 -3.5l3.5 -3.5t3.5 -5t3.5 -6q47 -79 122 -79
z" />
    <glyph glyph-name="four" unicode="4" horiz-adv-x="621" 
d="M412 121h-331q-19 0 -23.5 17t6.5 36l349 552q10 17 26 17l91 -1q18 0 18 -21v-475h59q20 0 20 -19v-79q0 -27 -22 -27h-57v-104q0 -17 -15 -17h-105q-16 0 -16 17v104zM259 247h155v247z" />
    <glyph glyph-name="five" unicode="5" horiz-adv-x="572" 
d="M66 186l71 27q4 2 12 2q9 0 20 -20q17 -34 50.5 -58t69.5 -24q54 0 92 36t38 94q0 54 -40 93t-95 39q-14 0 -29 -3t-24.5 -6t-27 -9.5t-28.5 -10.5q-26 -8 -46 -8h-44q-22 0 -23 24q12 119 34 357q0 23 23 23h358q22 0 22 -23v-82q0 -22 -24 -22h-261q-5 -51 -13 -140
q48 21 93 21q109 0 181.5 -74.5t72.5 -176.5q0 -106 -76.5 -181t-179.5 -75q-137 0 -213 117q-27 40 -27 65q0 7 14 15z" />
    <glyph glyph-name="six" unicode="6" horiz-adv-x="599" 
d="M301 -10q-103 0 -180 73t-77 176q0 76 35 136l196 345q12 22 33 22h102q13 0 17.5 -6.5t-1.5 -18.5l-128 -225q10 2 16 2q101 0 173 -74t72 -176q0 -106 -75.5 -180t-182.5 -74zM180 243q0 -54 34 -90.5t86 -36.5t85.5 36.5t33.5 90.5q0 53 -33.5 90.5t-85.5 37.5
t-86 -37.5t-34 -90.5z" />
    <glyph glyph-name="seven" unicode="7" horiz-adv-x="574" 
d="M60 742h489q21 0 26 -16t-5 -30l-354 -682q-8 -14 -23 -14h-122q-12 0 -14.5 8.5t1.5 13.5l301 586h-299q-21 0 -21 20v94q0 20 21 20z" />
    <glyph glyph-name="eight" unicode="8" horiz-adv-x="554" 
d="M226 550q0 -34 23.5 -57t56.5 -23q32 0 55.5 23.5t23.5 56.5q0 31 -23.5 54.5t-55.5 23.5q-33 0 -56.5 -23t-23.5 -55zM188 236q0 -49 34 -83t83 -34t81.5 34t32.5 84q0 49 -32.5 83.5t-81.5 34.5q-50 0 -83.5 -35t-33.5 -84zM105 554q0 80 59 138t141 58q85 0 145 -64.5
t51 -149.5q-6 -66 -53 -111q51 -31 80 -81.5t29 -110.5q0 -103 -71.5 -172.5t-180.5 -69.5q-96 0 -164 54t-84 140q-13 70 14 134t89 106q-55 50 -55 129z" />
    <glyph glyph-name="nine" unicode="9" horiz-adv-x="598" 
d="M302 752q103 0 180 -73t77 -176q0 -75 -35 -136l-196 -345q-12 -22 -33 -22h-102q-13 0 -17.5 6.5t1.5 18.5l128 225q-5 -1 -16 -1q-102 0 -173.5 74t-71.5 176q0 106 75.5 179.5t182.5 73.5zM423 499q0 54 -34 90.5t-86 36.5t-85.5 -36.5t-33.5 -90.5q0 -53 33.5 -90
t85.5 -37t86 37t34 90z" />
    <glyph glyph-name="colon" unicode=":" horiz-adv-x="248" 
d="M60 420q0 34 23.5 57.5t56.5 23.5q34 0 57.5 -23.5t23.5 -57.5q0 -33 -23.5 -56.5t-57.5 -23.5q-33 0 -56.5 23.5t-23.5 56.5zM60 68q0 34 23.5 57.5t56.5 23.5q34 0 57.5 -23.5t23.5 -57.5q0 -33 -23.5 -57t-57.5 -24q-33 0 -56.5 24t-23.5 57z" />
    <glyph glyph-name="semicolon" unicode=";" horiz-adv-x="292" 
d="M58 65q0 35 24 59t59 24t59 -24t24 -59q0 -117 -71 -169q-14 -11 -25 -1l-26 24q-13 10 2 25q18 19 27 39q-31 4 -52 27t-21 55zM60 420q0 34 24 57.5t57 23.5q35 0 58 -23.5t23 -57.5q0 -33 -23.5 -56.5t-57.5 -23.5q-33 0 -57 23.5t-24 56.5z" />
    <glyph glyph-name="less" unicode="&#x3c;" horiz-adv-x="438" 
d="M61 295l262 262q7 5 16 5t16 -6l64 -64q7 -7 7 -15q0 -4 -6 -16l-181 -181l181 -181q6 -10 6 -15q0 -8 -8 -18l-65 -63q-6 -7 -14 -7q-9 0 -16 7l-262 262q-7 8 -7 15q0 8 7 15z" />
    <glyph glyph-name="equal" unicode="=" horiz-adv-x="517" 
d="M73 162v72q0 22 23 22h330q22 0 22 -22v-72q0 -9 -6 -16t-16 -7h-330q-23 0 -23 23zM73 339v72q0 22 23 22h330q22 0 22 -22v-72q0 -9 -6 -16t-16 -7h-330q-23 0 -23 23z" />
    <glyph glyph-name="greater" unicode="&#x3e;" horiz-adv-x="485" 
d="M83 472l63 64q8 6 17 6q7 0 15 -5l262 -262q8 -7 8 -15q0 -7 -8 -15l-262 -262q-6 -7 -15 -7q-10 0 -14 7l-65 63q-9 9 -9 18t6 15l182 181l-182 181q-5 10 -5 16q0 9 7 15z" />
    <glyph glyph-name="question" unicode="?" horiz-adv-x="574" 
d="M358 284v-65q0 -11 -7 -18t-16 -7h-95q-11 0 -17 7.5t-6 17.5v84q0 36 18.5 64t44.5 47t52 37t44.5 44.5t18.5 59.5q0 42 -33.5 75t-78.5 33q-44 0 -76 -33.5t-32 -77.5v-15q0 -22 -23 -22h-96q-22 0 -22 20v17q0 103 73 170.5t176 67.5q105 0 179.5 -68t74.5 -171
q0 -53 -18.5 -92t-44.5 -60t-52.5 -37.5t-45 -35t-18.5 -42.5zM207 66q0 34 23.5 57.5t56.5 23.5q35 0 58 -23.5t23 -57.5q0 -33 -23 -56.5t-58 -23.5q-33 0 -56.5 23.5t-23.5 56.5z" />
    <glyph glyph-name="at" unicode="@" horiz-adv-x="948" 
d="M692 -60q20 12 27 1l44 -64q4 -5 1.5 -12.5t-8.5 -11.5q-125 -66 -237 -66q-126 0 -232.5 62t-168.5 169.5t-62 233.5q0 94 37 180.5t99 150t148.5 101t181.5 37.5q107 0 201 -47.5t154 -138.5t60 -206q0 -311 -212 -311q-63 0 -98 45q-44 -49 -143 -49q-102 0 -169 69.5
t-67 170.5q0 100 67 169t165 69q86 0 128 -71l11 41q4 15 8 19t19 4h43q26 0 26 -23v-294q0 -21 7 -26.5t22 -5.5q47 0 68.5 53t21.5 135q0 123 -89 207.5t-217 84.5q-157 0 -264 -107t-107 -258q0 -147 108.5 -253.5t252.5 -106.5q89 0 174 49zM374 253q0 -47 32.5 -79.5
t78.5 -32.5q47 0 78.5 32t31.5 80q0 46 -31.5 79t-78.5 33q-45 0 -78 -33t-33 -79z" />
    <glyph glyph-name="A" unicode="A" horiz-adv-x="716" 
d="M15 21l282 702q9 19 25 19h84q18 0 25 -19l282 -702q4 -10 0 -15.5t-14 -5.5h-109q-18 0 -25 18l-48 120h-307l-47 -120q-7 -18 -25 -18h-110q-22 0 -13 21zM364 550l-107 -283h212z" />
    <glyph glyph-name="B" unicode="B" horiz-adv-x="678" 
d="M81 20v703q0 19 19 19h323q85 0 143.5 -60t58.5 -147q0 -88 -57 -138q43 -28 67.5 -77t24.5 -105q0 -87 -60 -151t-144 -64h-356q-19 0 -19 20zM414 326h-187v-204h189q44 0 69.5 30t25.5 69q0 44 -29 74.5t-68 30.5zM385 622h-158v-181h157q44 0 70 24.5t26 66.5
q0 40 -26 65t-69 25z" />
    <glyph glyph-name="C" unicode="C" horiz-adv-x="705" 
d="M568 173q20 15 32 0l50 -85q13 -16 -5 -29q-93 -70 -217 -70q-159 0 -271.5 112t-112.5 271t112.5 270t271.5 111q123 0 218 -69q14 -12 6 -25l-53 -90q-9 -12 -28 -1q-75 46 -143 46q-101 0 -168.5 -70t-67.5 -172t68 -174t168 -72q79 0 140 47z" />
    <glyph glyph-name="D" unicode="D" horiz-adv-x="745" 
d="M81 20v702q0 20 20 20h239q94 0 180 -48.5t140.5 -135t54.5 -187.5q0 -150 -107.5 -258t-263.5 -113h-243q-20 0 -20 20zM568 371q0 99 -69.5 167.5t-171.5 68.5h-99v-472h99q102 0 171.5 68.5t69.5 167.5z" />
    <glyph glyph-name="E" unicode="E" horiz-adv-x="642" 
d="M81 20v702q0 20 19 20h489q20 0 20 -20v-97q0 -20 -20 -20h-362v-151h276q22 0 22 -20v-95q0 -20 -22 -20h-276v-183h371q21 0 21 -20v-96q0 -20 -21 -20h-498q-19 0 -19 20z" />
    <glyph glyph-name="F" unicode="F" horiz-adv-x="627" 
d="M81 20v702q0 20 19 20h479q20 0 20 -20v-97q0 -20 -20 -20h-352v-196h269q19 0 19 -20v-92q0 -20 -19 -20h-269v-257q0 -20 -20 -20h-107q-19 0 -19 20z" />
    <glyph glyph-name="G" unicode="G" horiz-adv-x="726" 
d="M428 125q69 0 114 34v153q0 20 20 20h89q19 0 19 -20v-227q0 -13 -10 -22q-107 -73 -232 -73q-159 0 -271.5 112t-112.5 271q0 158 111.5 269t270.5 111q126 0 224 -75q16 -12 5 -26l-59 -85q-12 -14 -28 -3q-66 49 -140 49q-104 0 -173.5 -69t-69.5 -171q0 -103 71 -176
t172 -72z" />
    <glyph glyph-name="H" unicode="H" horiz-adv-x="773" 
d="M560 20v300h-333v-300q0 -20 -22 -20h-105q-19 0 -19 20v701q0 21 19 21h108q19 0 19 -20v-261h333v260q0 21 19 21h108q18 0 18 -20v-702q0 -20 -21 -20h-105q-19 0 -19 20z" />
    <glyph glyph-name="I" unicode="I" horiz-adv-x="309" 
d="M81 20v701q0 21 20 21h108q19 0 19 -21v-701q0 -20 -19 -20h-108q-20 0 -20 20z" />
    <glyph glyph-name="J" unicode="J" horiz-adv-x="455" 
d="M171 -11q-100 0 -172 77q-12 12 0 26l59 65q16 18 29 7q1 -1 12 -9.5t17 -12.5t20 -8.5t30 -4.5q29 0 49.5 20t20.5 48v519q0 26 25 26h94q29 0 29 -29v-494q0 -110 -64 -170t-149 -60z" />
    <glyph glyph-name="K" unicode="K" horiz-adv-x="734" 
d="M672 719l-257 -292l309 -404q7 -9 4 -16t-13 -7h-145q-14 0 -27 18l-226 298l-90 -97v-199q0 -20 -19 -20h-108q-19 0 -19 20v702q0 20 19 20h106q7 0 14 -5.5t7 -14.5v-309l277 315q13 14 31 14h129q11 0 13 -8t-5 -15z" />
    <glyph glyph-name="L" unicode="L" horiz-adv-x="574" 
d="M81 22v699q0 9 6.5 15.5t16.5 6.5h102q21 0 22 -22v-585h292q9 0 15.5 -6.5t6.5 -16.5v-91q0 -21 -22 -22h-417q-22 0 -22 22z" />
    <glyph glyph-name="M" unicode="M" horiz-adv-x="926" 
d="M414 33l-167 459l-53 -472q-2 -20 -20 -20h-102q-21 0 -19 20l76 703q2 20 21 20h130q12 0 18 -18l179 -495l176 494q7 19 19 19h133q19 0 21 -20l75 -703q3 -20 -19 -20h-102q-17 0 -20 19l-51 473l-170 -459q-7 -18 -21 -18h-84q-14 0 -20 18z" />
    <glyph glyph-name="N" unicode="N" horiz-adv-x="793" 
d="M81 22v698q0 22 22 22h117q22 0 29 -15l329 -473v473q5 15 22 15h101q8 0 16 -6.5t8 -15.5v-698q0 -22 -24 -22h-99q-15 0 -29 16l-347 500v-494q1 -22 -22 -22h-101q-22 0 -22 22z" />
    <glyph glyph-name="O" unicode="O" horiz-adv-x="853" 
d="M807 371q0 -158 -112.5 -269.5t-270.5 -111.5t-269 111.5t-111 269.5q0 159 111 270.5t269 111.5q159 0 271 -111.5t112 -270.5zM660 371q0 102 -67.5 172t-168.5 70q-100 0 -167 -70t-67 -172q0 -101 67 -171t167 -70q101 0 168.5 70t67.5 171z" />
    <glyph glyph-name="P" unicode="P" horiz-adv-x="629" 
d="M81 20v702q0 20 19 20h291q99 0 165 -72t66 -167q0 -94 -67.5 -165t-165.5 -71h-163v-247q0 -20 -20 -20h-106q-19 0 -19 20zM362 615h-136v-222h136q49 0 80.5 31.5t31.5 78.5t-31.5 79.5t-80.5 32.5z" />
    <glyph glyph-name="Q" unicode="Q" horiz-adv-x="853" 
d="M44 370q0 159 111.5 271t270.5 112q158 0 270 -112t112 -271q0 -141 -87.5 -246.5t-222.5 -128.5v-128q0 -22 -24 -22h-101q-22 0 -22 22v128q-134 24 -220.5 129t-86.5 246zM192 370q0 -102 66 -172.5t167 -70.5q100 0 166.5 70.5t66.5 172.5q0 103 -66.5 174t-166.5 71
q-101 0 -167 -71t-66 -174z" />
    <glyph glyph-name="R" unicode="R" horiz-adv-x="671" 
d="M81 20v702q0 20 19 20h318q100 0 167.5 -73.5t67.5 -170.5q0 -62 -34.5 -118t-91.5 -89l136 -270q4 -7 0 -14t-13 -7h-129q-15 0 -23 17l-119 240h-152v-237q0 -20 -20 -20h-107q-19 0 -19 20zM383 613h-156v-224h156q52 0 86.5 31.5t34.5 80.5q0 47 -34.5 79.5
t-86.5 32.5z" />
    <glyph glyph-name="S" unicode="S" horiz-adv-x="641" 
d="M65 113q-21 22 -5 38l67 66q14 13 35 -5q86 -86 173 -86q57 0 91.5 29t34.5 68q0 23 -13 40t-39 29t-42 17.5t-46 13.5q-126 37 -187 90t-61 136q0 92 74.5 149.5t195.5 57.5q62 0 123.5 -29.5t108.5 -77.5q18 -19 -1 -39l-55 -59q-14 -13 -38 6q-82 69 -143 69
q-115 0 -115 -80q0 -35 34.5 -54.5t110.5 -40.5q57 -17 96.5 -34.5t77 -44t56 -65t18.5 -88.5q0 -101 -82.5 -165t-195.5 -64q-76 0 -149 33.5t-124 89.5z" />
    <glyph glyph-name="T" unicode="T" horiz-adv-x="611" 
d="M21 628v95q0 19 19 19h525q20 0 20 -19v-95q0 -20 -20 -20h-192v-588q0 -20 -19 -20h-108q-19 0 -19 20v588h-187q-19 0 -19 20z" />
    <glyph glyph-name="U" unicode="U" horiz-adv-x="752" 
d="M217 720v-427q0 -71 45 -120.5t114 -49.5t113.5 49.5t44.5 120.5v427q0 9 6.5 15.5t16.5 6.5h99q9 0 17 -6.5t8 -15.5v-427q0 -126 -89.5 -215.5t-215.5 -89.5q-127 0 -216.5 89.5t-89.5 215.5v427q0 8 6 15t15 7h103q8 0 15.5 -6.5t7.5 -15.5z" />
    <glyph glyph-name="V" unicode="V" horiz-adv-x="718" 
d="M703 720l-276 -702q-7 -19 -25 -19h-84q-19 0 -26 19l-276 703q-9 21 13 21h114q18 0 25 -19l191 -518l191 518q6 19 24 19h116q22 0 13 -22z" />
    <glyph glyph-name="W" unicode="W" horiz-adv-x="1065" 
d="M644 18l-105 253l-98 -253q-8 -18 -26 -18h-84q-18 0 -25 18l-277 702q-4 10 0.5 16t13.5 6h113q18 0 25 -19l191 -516l191 516q7 19 24 19h117q9 0 13 -6.5t1 -15.5l-107 -266l97 -246l196 515q7 19 25 19h117q10 0 14 -6t0 -16l-285 -702q-7 -18 -25 -18h-80
q-18 0 -26 18z" />
    <glyph glyph-name="X" unicode="X" horiz-adv-x="667" 
d="M646 721l-231 -344l239 -355q6 -10 2 -16t-13 -6h-122q-16 0 -27 17l-160 240l-161 -240q-11 -17 -26 -17h-121q-10 0 -14 6t2 16l238 355l-229 343q-6 9 -3 15.5t13 6.5h124q14 0 26 -18l151 -225l152 226q12 18 26 18h122q10 0 14 -7t-2 -15z" />
    <glyph glyph-name="Y" unicode="Y" horiz-adv-x="659" 
d="M284 21v291l-239 408q-5 10 -1 16t14 6h123q15 0 25 -18l151 -291l150 291q10 18 25 18h124q10 0 14 -6t-1 -16l-239 -407v-292q0 -21 -19 -21h-108q-19 0 -19 21z" />
    <glyph glyph-name="Z" unicode="Z" horiz-adv-x="639" 
d="M55 742h555q18 0 18 -18v-83q0 -10 -6 -19l-388 -486h374q18 0 18 -18v-101q0 -17 -18 -17h-558q-18 0 -18 17v86q0 10 6 18l389 484h-372q-19 0 -19 18v101q0 18 19 18z" />
    <glyph glyph-name="bracketleft" unicode="[" horiz-adv-x="296" 
d="M80 -122v942q0 20 19 20h196q15 0 15 -15v-97q0 -15 -16 -15h-79v-727h80q15 0 15 -15v-97q0 -15 -16 -15h-195q-19 0 -19 19z" />
    <glyph glyph-name="backslash" unicode="\" horiz-adv-x="527" 
d="M335 18l-303 703q-9 21 13 21h96q18 0 26 -18l305 -703q8 -21 -13 -21h-98q-18 0 -26 18z" />
    <glyph glyph-name="bracketright" unicode="]" horiz-adv-x="323" 
d="M260 820v-942q0 -19 -20 -19h-194q-17 0 -17 15v97q0 15 16 15h79v727h-78q-17 0 -17 15v97q0 15 16 15h195q20 0 20 -20z" />
    <glyph glyph-name="asciicircum" unicode="^" horiz-adv-x="488" 
d="M76 643l164 165q19 19 38 0l163 -163q22 -20 1 -38l-45 -45q-18 -20 -38 0l-102 101l-101 -101q-18 -18 -37 -1l-44 44q-19 19 1 38z" />
    <glyph glyph-name="underscore" unicode="_" horiz-adv-x="451" 
d="M26 -39h403q26 0 26 -27v-65q0 -11 -7.5 -20t-18.5 -9h-403q-26 0 -26 29v65q0 27 26 27z" />
    <glyph glyph-name="grave" unicode="`" horiz-adv-x="258" 
d="M117 608l-46 105q-5 11 -5 19q0 10 14 10h75q16 0 27 -21l44 -102q5 -15 5 -19q0 -13 -16 -13h-72q-18 0 -26 21z" />
    <glyph glyph-name="a" unicode="a" horiz-adv-x="594" 
d="M419 27q-1 7 -3 17t-3 16q-22 -33 -50.5 -51.5t-78.5 -18.5h-2q-105 0 -173.5 73t-68.5 181q0 110 67.5 182t174.5 72q48 0 77.5 -18t57.5 -53l10 38q4 17 9 22.5t19 5.5l56 -2q12 0 20.5 -7.5t8.5 -19.5v-439q0 -11 -8.5 -18t-20.5 -7h-64q-23 0 -28 27zM170 243
q0 -56 33.5 -94t86.5 -38q55 0 88 37t33 94t-33 95.5t-88 38.5q-53 0 -86.5 -38.5t-33.5 -94.5z" />
    <glyph glyph-name="b" unicode="b" horiz-adv-x="593" 
d="M81 25v692q0 25 23 25h88q25 0 25 -25v-280q47 60 127 60q101 0 167 -73.5t66 -180.5q0 -106 -67.5 -179.5t-165.5 -73.5q-90 0 -137 69q-7 -35 -8 -37q-2 -8 -7 -13t-16.5 -7t-14.5 -2h-18h-38q-24 2 -24 25zM204 241q0 -54 35.5 -92.5t84.5 -38.5t84 38.5t35 93.5
t-33.5 94t-82.5 39q-50 0 -86.5 -39.5t-36.5 -93.5v-1z" />
    <glyph glyph-name="c" unicode="c" horiz-adv-x="511" 
d="M292 114q40 1 98 28q10 5 14 5q7 0 15 -11l43 -62q4 -8 4 -11q0 -11 -17 -23q-77 -51 -154 -51q-106 0 -181 74.5t-75 180.5t75 181.5t181 75.5q73 0 149 -49h-1q18 -11 18 -25q0 -8 -3 -11l-39 -67q-6 -10 -16 -10q-4 0 -16 7q-40 31 -91 31q-55 0 -93 -40t-38 -95
q0 -56 36 -92t91 -36z" />
    <glyph glyph-name="d" unicode="d" horiz-adv-x="579" 
d="M535 717v-692q0 -24 -25 -25h-44q-19 0 -34 3q-5 1 -9 4.5t-6.5 10.5t-3.5 12t-2.5 14.5t-2.5 14.5q-25 -37 -56 -53t-81 -16q-102 0 -167.5 73t-65.5 180q0 108 65 181t170 73q79 0 125 -58v278q0 25 26 25h82q12 0 20.5 -7t8.5 -18zM411 242q0 56 -34 94.5t-86 38.5
q-55 0 -87 -38t-32 -95t32 -94.5t87 -37.5q52 0 85.5 38t34.5 93v1z" />
    <glyph glyph-name="e" unicode="e" horiz-adv-x="572" 
d="M296 107q40 -1 84 24q4 2 10 5.5t10 6t8 2.5q9 0 15 -9l37 -59q5 -8 5 -13q0 -10 -16 -24q-68 -52 -150 -52q-105 0 -180 75t-75 181q0 104 74 180.5t175 76.5q97 0 166.5 -67t69.5 -161q0 -41 -7 -57.5t-28 -16.5h-311q4 -41 38.5 -66.5t74.5 -25.5zM183 295h215
q-2 38 -33 65t-75 27q-37 0 -69.5 -27t-37.5 -65z" />
    <glyph glyph-name="f" unicode="f" horiz-adv-x="324" 
d="M283 749q27 0 27 -28v-69q0 -26 -22 -26q-65 0 -65 -62v-73h52q26 0 26 -27v-52q0 -29 -26 -29h-52v-358q0 -11 -8 -18t-19 -7h-78q-11 0 -18.5 7t-7.5 18v358h-39q-27 0 -27 29v52q0 27 27 27h39v87q0 79 54.5 124.5t136.5 46.5z" />
    <glyph glyph-name="g" unicode="g" horiz-adv-x="596" 
d="M395 -10q7 24 7 69q-38 -68 -121 -68q-104 0 -172.5 73.5t-68.5 180.5t68.5 179.5t172.5 72.5q76 0 137 -69l9 36q5 16 9.5 21t18.5 5h58q11 0 20.5 -7.5t9.5 -20.5v-423q0 -116 -71.5 -182t-182.5 -66q-47 0 -96.5 14t-80.5 42q-13 9 -13 25q0 12 7 20l40 54
q11 11 20 11t21 -9q31 -29 98 -29q36 0 68.5 19.5t41.5 51.5zM171 243q0 -56 33.5 -94t86.5 -38q55 0 88 37t33 94t-33 95.5t-88 38.5q-53 0 -86.5 -38.5t-33.5 -94.5z" />
    <glyph glyph-name="h" unicode="h" horiz-adv-x="627" 
d="M212 718v-286q17 26 63 46t92 20q88 0 139.5 -59t54.5 -151q0 -7 1 -11v-252q0 -25 -25 -25h-83q-24 0 -24 24v253q0 40 -27.5 68.5t-67.5 28.5q-41 0 -82 -30t-41 -68v-254q0 -22 -31 -22h-74q-26 0 -26 23v695q0 24 24 24h82q25 0 25 -24z" />
    <glyph glyph-name="i" unicode="i" horiz-adv-x="288" 
d="M207 467v-444q0 -23 -25 -23h-87q-23 0 -23 23v444q0 24 23 24h87q9 0 17 -7t8 -17zM59 637q0 32 22.5 54.5t54.5 22.5q33 0 55 -22.5t22 -54.5t-22 -54t-55 -22q-32 0 -54.5 22.5t-22.5 53.5z" />
    <glyph glyph-name="j" unicode="j" horiz-adv-x="282" 
d="M12 -206q-27 0 -27 26v66q0 25 24 25h3q25 2 42.5 21.5t17.5 46.5v486q0 26 27 26h79q12 0 19 -7.5t7 -18.5v-455q0 -31 -2 -45q-7 -75 -60 -122.5t-130 -48.5zM60 637q0 32 22 54.5t54 22.5q33 0 55 -22.5t22 -54.5t-22 -54t-55 -22q-32 0 -54 22.5t-22 53.5z" />
    <glyph glyph-name="k" unicode="k" horiz-adv-x="570" 
d="M74 25v688q0 29 22 29h88q25 0 25 -25v-394l138 154q10 11 24 11h118q21 0 21 -16q0 -8 -7 -15l-158 -167l199 -255h-1q10 -10 10 -20q0 -15 -20 -15h-130q-11 0 -25 20l-125 178l-43 -44v-128q0 -26 -23 -26h-88q-25 0 -25 25z" />
    <glyph glyph-name="l" unicode="l" horiz-adv-x="282" 
d="M75 22v698q0 22 21 22h93q22 0 22 -22v-698q0 -22 -22 -22h-93q-21 0 -21 22z" />
    <glyph glyph-name="m" unicode="m" horiz-adv-x="873" 
d="M101 491h66q24 0 35 -64q58 68 137 68q49 0 87.5 -21.5t59.5 -55.5q24 35 66 57.5t86 22.5q96 0 143 -57t50 -151v-45v-221q0 -24 -30 -24h-76q-32 0 -32 23v254q0 40 -17.5 65t-51.5 25q-36 0 -67.5 -26.5t-31.5 -62.5v-254q0 -24 -30 -24h-82q-15 0 -21.5 5t-6.5 18
v259q0 40 -20.5 62.5t-56.5 22.5q-35 0 -65 -26t-30 -61v-259q0 -21 -25 -21h-86q-28 0 -28 22v438q0 13 8.5 22t18.5 9z" />
    <glyph glyph-name="n" unicode="n" horiz-adv-x="627" 
d="M165 491q12 0 19 -3t11.5 -10t6 -13t4 -18.5t4.5 -19.5q25 29 65 49.5t85 20.5q91 0 143 -55t52 -143v-275q0 -24 -24 -24h-92q-15 0 -19 4.5t-4 18.5v253q0 40 -26 65t-65 25q-34 0 -67 -26t-38 -61v-257q0 -13 -5 -17.5t-20 -4.5h-90q-15 0 -19.5 5t-4.5 17v439
q0 30 30 30h54z" />
    <glyph glyph-name="o" unicode="o" horiz-adv-x="578" 
d="M30 244q0 107 75.5 182t183.5 75q107 0 183 -75.5t76 -181.5t-76 -180.5t-183 -74.5q-108 0 -183.5 74.5t-75.5 180.5zM163 243q0 -54 36.5 -92t89.5 -38t90 38t37 92t-37 92.5t-90 38.5t-89.5 -38.5t-36.5 -92.5z" />
    <glyph glyph-name="p" unicode="p" horiz-adv-x="591" 
d="M76 -169v631q0 27 28 29h49q13 0 19.5 -1t14 -6.5t10.5 -17.5l6 -32q53 68 131 68q98 0 165.5 -73.5t67.5 -179.5q0 -107 -67 -180t-168 -73q-70 0 -117 51v-216q0 -13 -8 -21.5t-23 -8.5h-76q-13 0 -22.5 8.5t-9.5 21.5zM201 252q0 -53 33.5 -90t80.5 -37
q46 0 78.5 36.5t32.5 88.5t-32.5 88t-78.5 36t-79.5 -36t-34.5 -86z" />
    <glyph glyph-name="q" unicode="q" horiz-adv-x="585" 
d="M535 461v-629q0 -12 -9.5 -20.5t-22.5 -8.5h-76q-31 0 -31 29v215q-47 -51 -117 -51q-101 0 -168 73t-67 180q0 106 67.5 179.5t165.5 73.5q78 0 131 -68l6 31q5 17 15 21.5t29 4.5h49q28 -2 28 -30zM410 252q-1 50 -34.5 86t-79.5 36t-78.5 -36t-32.5 -88t32.5 -88.5
t78.5 -36.5q47 0 80.5 37t33.5 90z" />
    <glyph glyph-name="r" unicode="r" horiz-adv-x="474" 
d="M189 463q1 -3 5 -19l5 -20q55 73 125 73q13 0 19 -1q30 -3 67 -22.5t37 -35.5q0 -6 -5 -14l-40 -65q-9 -14 -21 -14q-5 0 -29 12q-26 18 -49 18q-42 0 -68 -30t-26 -67v-253q0 -25 -27 -25h-83q-26 0 -26 25v438q0 12 8 19t18 7h64q18 0 26 -26z" />
    <glyph glyph-name="s" unicode="s" horiz-adv-x="446" 
d="M24 85q-2 3 -2 10q0 9 7 14l61 49q3 5 11 5q5 0 16 -7q2 -2 12.5 -11t15 -12.5t15 -11t18 -10.5t17.5 -6t20 -3q59 0 59 48q0 32 -75 53q-87 23 -126 60t-39 95q0 59 52 100.5t135 41.5q93 0 160 -60q18 -18 18 -30q0 -9 -35 -37t-43 -28t-17 9q-42 35 -81 35
q-52 0 -52 -33q0 -17 18 -27t59 -23q85 -28 127 -64t42 -98q0 -73 -58.5 -114.5t-142.5 -41.5q-109 0 -177 73q-11 13 -15 24z" />
    <glyph glyph-name="t" unicode="t" horiz-adv-x="328" 
d="M82 491v135q0 26 31 29l74 11q2 1 7 1q24 0 24 -30v-146h60q27 0 27 -29v-55q0 -31 -27 -31h-60v-347q0 -29 -27 -29h-84q-25 0 -25 29v347h-27q-29 0 -29 31v55q0 29 29 29h27z" />
    <glyph glyph-name="u" unicode="u" horiz-adv-x="568" 
d="M453 0q-12 0 -19.5 2t-12 9.5t-6.5 11t-5 18.5t-4 19q-25 -28 -67.5 -47t-89.5 -19q-91 0 -140 54t-49 143v270q0 14 8.5 22t20.5 8h82q28 0 28 -29v-248q0 -40 23.5 -64.5t62.5 -24.5q37 0 75.5 25.5t38.5 60.5v252q0 28 29 28h81q29 0 29 -28v-433q0 -30 -31 -30h-54z
" />
    <glyph glyph-name="v" unicode="v" horiz-adv-x="527" 
d="M165 468l99 -276l98 277q10 22 34 22h89q27 0 27 -23q0 -3 -2 -8l-1 -5l-173 -424q-14 -31 -35 -31h-74q-11 0 -19.5 7t-11.5 13.5t-9 20.5l-82 202q-7 17 -38 93.5t-47 114.5q-4 16 -4 18q0 22 26 22h91q24 0 32 -23z" />
    <glyph glyph-name="w" unicode="w" horiz-adv-x="800" 
d="M166 467l39 -113q7 -19 18 -51t20 -56.5t17 -46.5l95 264q10 27 35 27h80q28 0 28 -24q0 -2 -0.5 -6t-0.5 -5l-31 -87q31 -92 63 -170l28 77q10 28 21 59.5t24.5 70t20.5 59.5q9 26 34 26h91q27 0 27 -21q0 -8 -3 -14l-171 -427q-15 -29 -35 -29h-72q-8 0 -14 2.5t-9.5 6
t-6.5 9t-4.5 9t-3 8.5t-1.5 6l-43 107q-1 3 -7 17.5t-10 24.5l-20 -48q-3 -11 -11 -30t-11 -26l-22 -55q-1 0 -1 -2l-1 -3q-13 -26 -32 -26h-74q-12 0 -20 7t-11 12.5t-8 18.5q-64 157 -166 419q-2 6 -2 12q0 22 26 22h91q23 0 33 -24z" />
    <glyph glyph-name="x" unicode="x" horiz-adv-x="527" 
d="M146 0h-118q-14 0 -14 8q0 6 5 14l3 6q8 12 13 18q47 70 145 210l-145 207q-8 12 -8 17q0 10 19 10h90q22 0 33 -6t23 -27q17 -26 68 -112q15 21 40 63q3 5 9 16t10 17t9.5 14.5t10 14t10 10.5t11 7.5t11.5 2.5h107q18 0 18 -10q0 -4 -6 -14q-67 -93 -149 -210l156 -227
q7 -11 9 -20q0 -9 -15 -9h-117q-5 0 -8.5 1t-6.5 2.5t-6 5t-5 5.5t-6 8l-6 9q-12 21 -37.5 61t-38.5 61l-84 -134q-13 -19 -30 -19z" />
    <glyph glyph-name="y" unicode="y" horiz-adv-x="559" 
d="M534 448l-244 -624q-10 -22 -32 -22h-81q-28 0 -28 21q0 5 2 13l63 169l-182 446q-4 8 -4 17q0 22 27 22h87q25 0 32 -23l109 -292l108 293q7 22 33 22h86q28 0 28 -24q0 -6 -4 -18z" />
    <glyph glyph-name="z" unicode="z" horiz-adv-x="517" 
d="M61 398v62q0 14 8.5 22t22.5 8h355q13 0 22 -8t9 -22v-67q0 -11 -5 -17l-231 -252h209q31 0 31 -31v-60q0 -13 -8.5 -23t-22.5 -10h-370q-13 0 -22 10t-9 23v53q0 14 6 21q32 35 118.5 126.5t123.5 132.5h-206q-31 0 -31 32z" />
    <glyph glyph-name="braceleft" unicode="{" horiz-adv-x="357" 
d="M54 298v105q0 16 19 16q22 0 34 2.5t21.5 13t9.5 31.5v177q0 46 11.5 83.5t28.5 60.5t42 39.5t45 24t45 12t35 5t22 0.5q15 0 15 -15v-117q0 -15 -16 -15q-87 0 -87 -76v-215q0 -45 -35 -80q35 -35 35 -79v-214q0 -77 87 -77q16 0 16 -15v-117q0 -15 -15 -15
q-18 0 -35.5 1.5t-56 13.5t-66 33.5t-49.5 67.5t-22 109v177q0 31 -16.5 39.5t-50.5 8.5q-17 0 -17 15z" />
    <glyph glyph-name="bar" unicode="|" horiz-adv-x="293" 
d="M79 -174v897q0 19 20 19h80q20 0 20 -19v-897q0 -19 -20 -19h-80q-20 0 -20 19z" />
    <glyph glyph-name="braceright" unicode="}" horiz-adv-x="360" 
d="M359 403v-105q0 -15 -17 -15q-34 0 -50 -8.5t-16 -39.5v-177q0 -63 -22 -109t-49.5 -67.5t-66 -33.5t-56 -13.5t-35.5 -1.5q-15 0 -15 15v117q0 15 16 15q86 0 86 77v214q0 43 36 79q-36 36 -36 80v215q0 76 -86 76q-16 0 -16 15v117q0 15 15 15q12 0 22 -0.5t35 -5
t45 -12t45 -24t42 -39.5t28.5 -60.5t11.5 -83.5v-177q0 -30 16 -38.5t49 -8.5q18 0 18 -16z" />
    <glyph glyph-name="asciitilde" unicode="~" horiz-adv-x="659" 
d="M151 199q-6 -6 -16 -2q-17 8 -43.5 27.5t-26.5 31.5q0 8 9 19l15 20q59 75 151 75q51 0 104 -35q3 -2 13.5 -9.5t14.5 -10t13.5 -8t15 -7.5t14 -4t15.5 -2q39 0 78 55q4 7 15 7q9 0 43.5 -24t34.5 -37q0 -8 -12 -24q-38 -47 -75.5 -68.5t-88.5 -21.5q-52 0 -103 35
l-42 28q-23 13 -44 13q-32 0 -52 -22q-24 -27 -33 -36z" />
    <glyph glyph-name="exclamdown" unicode="&#xa1;" horiz-adv-x="248" 
d="M70 -235v470q0 27 27 27h91q12 0 20.5 -7.5t8.5 -19.5v-470q0 -27 -29 -27h-91q-27 0 -27 27zM224 413q0 -34 -23.5 -57.5t-56.5 -23.5q-34 0 -57.5 23.5t-23.5 57.5q0 33 23.5 56.5t57.5 23.5q33 0 56.5 -23.5t23.5 -56.5z" />
    <glyph glyph-name="cent" unicode="&#xa2;" horiz-adv-x="488" 
d="M277 116q47 0 91 25q19 11 23 11q11 0 17 -5.5t16 -21.5q32 -48 32 -56q0 -20 -41 -42t-82 -32v-61q0 -26 -25 -26h-78q-26 0 -26 26v71q-73 24 -119 90t-46 151t45.5 150t119.5 93v64q0 11 7 18t18 7h79q10 0 17.5 -7.5t7.5 -17.5v-57q40 -8 82 -28t42 -42q0 -6 -6 -17
l-35 -58q-10 -14 -20 -14q-6 0 -25 13q-40 27 -84 27q-48 0 -82 -39t-34 -93q0 -51 30.5 -90t75.5 -39z" />
    <glyph glyph-name="sterling" unicode="&#xa3;" horiz-adv-x="600" 
d="M191 499v-87h136q15 0 15 -16v-92q0 -15 -16 -15h-135v-153h313q20 0 20 -20v-96q0 -20 -20 -20h-440q-19 0 -19 20v482q0 107 81.5 179.5t184.5 72.5q111 0 193 -61q28 -17 18 -35l-44 -70q-15 -24 -38 -5q-56 41 -120 41q-48 0 -88.5 -38.5t-40.5 -86.5z" />
    <glyph glyph-name="currency" unicode="&#xa4;" horiz-adv-x="539" 
d="M93 338q0 43 18 79l-43 46q-12 12 0 22l66 62q10 10 22 0l42 -43q39 18 80 18t78 -17l41 42q11 11 22 0l66 -62q12 -10 0 -22l-41 -42q19 -40 19 -83q0 -44 -19 -81l40 -40q13 -13 0 -22l-65 -62q-11 -11 -22 0l-40 39q-36 -18 -79 -18q-42 0 -82 19l-40 -40
q-12 -10 -22 0l-66 62q-12 10 0 22l42 42q-17 37 -17 79zM192 340q0 -35 24 -60t59 -25t59.5 25.5t24.5 59.5q0 35 -24.5 60.5t-59.5 25.5t-59 -25t-24 -61z" />
    <glyph glyph-name="yen" unicode="&#xa5;" horiz-adv-x="650" 
d="M148 309v56q0 18 16 18h70l-198 337q-6 10 -1.5 16t14.5 6h124q15 0 25 -18l149 -287l153 287q10 18 24 18h125q10 0 14 -6t-1 -16l-201 -337h77q16 0 16 -17v-57q0 -16 -17 -16h-116v-52h117q16 0 16 -16v-57q0 -16 -17 -16h-116v-132q0 -20 -20 -20h-107q-20 0 -20 20
v132h-110q-16 0 -16 16v56q0 17 16 17h110v52h-110q-16 0 -16 16z" />
    <glyph glyph-name="brokenbar" unicode="&#xa6;" horiz-adv-x="248" 
d="M81 365v373q0 22 22 22h85q9 0 16.5 -6.5t7.5 -15.5v-373q0 -22 -24 -22h-85q-22 0 -22 22zM81 -187v373q0 22 22 22h85q9 0 16.5 -6.5t7.5 -15.5v-373q0 -22 -24 -22h-85q-22 0 -22 22z" />
    <glyph glyph-name="section" unicode="&#xa7;" horiz-adv-x="538" 
d="M408 608q-49 65 -126 65q-39 0 -69 -21.5t-30 -57.5q0 -9 3.5 -17t12 -14.5t15.5 -11t22 -10t22 -7.5t26 -7t24 -7q88 -26 128 -62.5t40 -92.5q0 -78 -72 -119q67 -46 67 -118q0 -74 -60 -119.5t-144 -45.5q-53 0 -107.5 28.5t-87.5 85.5q-3 6 -3 11q0 8 6 10l44 32
q6 4 11 4q9 0 15 -10q19 -32 53 -53t71 -21q39 0 73 21t34 59q0 47 -112 77q-90 23 -136 60.5t-46 94.5q0 83 73 120q-68 44 -68 115q0 73 57 118t139 45q67 0 111.5 -26t79.5 -80q7 -8 7 -15q0 -6 -8 -11l-42 -29q-4 -2 -6 -2q-9 0 -17 11zM180 363q0 -29 34 -48t69 -19
q36 0 65 16.5t29 51.5q0 30 -30 49.5t-68 19.5t-68.5 -17t-30.5 -53z" />
    <glyph glyph-name="dieresis" unicode="&#xa8;" horiz-adv-x="442" 
d="M69 633q0 30 20.5 50.5t49.5 20.5q31 0 51 -20.5t20 -50.5q0 -29 -20.5 -49.5t-50.5 -20.5q-29 0 -49.5 20.5t-20.5 49.5zM272 634q0 30 20.5 51t49.5 21q30 0 50.5 -21t20.5 -51q0 -29 -20.5 -49.5t-50.5 -20.5q-29 0 -49.5 20.5t-20.5 49.5z" />
    <glyph glyph-name="copyright" unicode="&#xa9;" horiz-adv-x="865" 
d="M609 564q19 -13 11 -26l-33 -59q-9 -15 -24 -6q-41 23 -85 23q-55 0 -91.5 -38t-36.5 -90q0 -56 37.5 -91t91.5 -36q48 0 84 23q13 9 22 -5l33 -54q10 -17 -6 -28q-60 -43 -141 -43q-98 0 -166.5 68.5t-68.5 167.5q0 97 69 166t167 69q78 0 137 -41zM57 373
q0 168 119.5 287.5t288.5 119.5q168 0 287.5 -119.5t119.5 -288.5q0 -168 -119.5 -287.5t-288.5 -119.5q-168 0 -287.5 119.5t-119.5 288.5zM152 368q0 -128 92.5 -218t218.5 -90q131 0 223 96t92 220q0 129 -93 217.5t-215 88.5q-134 0 -226 -95.5t-92 -218.5z" />
    <glyph glyph-name="ordfeminine" unicode="&#xaa;" horiz-adv-x="469" 
d="M354 391v38q-12 -17 -20 -26t-35 -21.5t-64 -12.5q-79 0 -134.5 55.5t-55.5 134.5t55 135.5t132 55.5q78 0 127 -65l5 43q3 15 17 15h46q16 0 16 -15l1 -338q0 -15 -14 -15h-61q-15 0 -15 16zM136 560q0 -42 28.5 -70.5t69.5 -28.5t70 28.5t29 70.5q0 40 -29 69.5
t-70 29.5t-69.5 -29t-28.5 -70z" />
    <glyph glyph-name="guillemotleft" unicode="&#xab;" horiz-adv-x="689" 
d="M73 262q-7 7 -7 19q0 10 8 18l255 256q14 7 21 7q11 0 20 -7l49 -50q7 -11 7 -18q0 -13 -6 -19l-187 -188l187 -187q6 -8 6 -20t-8 -20l-51 -50q-9 -7 -17 -7q-12 0 -28 16l-99 99q-3 3 -10.5 11t-17 17t-10.5 10zM344 262q-7 7 -7 19q0 10 8 18l256 256q14 7 20 7
q11 0 20 -7l49 -50q7 -11 7 -18q0 -13 -6 -19l-187 -188l187 -187q6 -8 6 -20t-8 -20l-51 -50q-9 -7 -17 -7q-11 0 -27 16l-100 99l-64 65z" />
    <glyph glyph-name="logicalnot" unicode="&#xac;" horiz-adv-x="581" 
d="M523 378v-216q0 -10 -6.5 -17t-17.5 -7h-60q-10 0 -18 7t-8 17v130h-317q-25 0 -25 25v61q0 24 25 24h403q24 0 24 -24z" />
    <glyph glyph-name="uni00AD" unicode="&#xad;" horiz-adv-x="528" 
d="M111 347h326q12 0 19.5 -7t7.5 -19v-71q0 -10 -8 -19t-19 -9h-326q-26 0 -26 28v71q0 26 26 26z" />
    <glyph glyph-name="registered" unicode="&#xae;" horiz-adv-x="878" 
d="M57 375q0 171 121 292t291 121q172 0 292.5 -121t120.5 -292t-120.5 -292t-292.5 -121q-170 0 -291 121t-121 292zM165 374q0 -129 86.5 -219t213.5 -90q128 0 219 90.5t91 218.5q0 135 -90 221.5t-220 86.5q-127 0 -213.5 -89.5t-86.5 -218.5zM311 176v400q0 11 11 11
h193q57 0 95 -41.5t38 -97.5q0 -39 -22.5 -72.5t-58.5 -50.5l76 -147q1 -3 1 -6t-3 -5.5t-7 -2.5h-73q-9 0 -15 10l-69 136h-68v-134q0 -13 -13 -13h-72q-13 0 -13 13zM489 511h-80v-117h80q26 0 43 16.5t17 41.5q0 24 -17 41.5t-43 17.5z" />
    <glyph glyph-name="macron" unicode="&#xaf;" horiz-adv-x="487" 
d="M50 618v50q0 18 17 18h363q18 0 18 -18v-50q0 -7 -5 -13.5t-13 -6.5h-363q-17 0 -17 20z" />
    <glyph glyph-name="degree" unicode="&#xb0;" horiz-adv-x="325" 
d="M166 675q47 0 79 -32.5t32 -80.5t-32.5 -80t-78.5 -32q-47 0 -80 32t-33 80t32.5 80.5t80.5 32.5zM166 610q-21 0 -34.5 -14t-13.5 -34t13.5 -34t34.5 -14q20 0 33.5 14t13.5 34t-14 34t-33 14z" />
    <glyph glyph-name="plusminus" unicode="&#xb1;" horiz-adv-x="497" 
d="M320 282v-100q0 -27 -27 -27h-75q-10 0 -19.5 8t-9.5 19v100h-97q-27 0 -27 29v70q0 27 27 27h97v100q0 27 29 27h75q27 0 27 -27v-100h98q27 0 27 -27v-70q0 -10 -8 -19.5t-19 -9.5h-98zM97 117h322q27 0 27 -26v-63q0 -12 -7.5 -20t-19.5 -8h-322q-27 0 -27 28v63
q0 26 27 26z" />
    <glyph glyph-name="twosuperior" unicode="&#xb2;" horiz-adv-x="418" 
d="M115 630l-6 -9q-3 -7 -11 -7q-6 0 -11 3l-45 21q-8 3 -8 11q0 5 2 9q43 92 131 92q57 0 100 -37t44 -94q0 -47 -36 -88l-110 -115h134q14 0 14 -14v-54q0 -15 -14 -15h-252q-15 0 -15 15v41q0 1 2 7l172 183q15 16 15 32q0 22 -15.5 38.5t-38.5 16.5q-38 0 -52 -36z" />
    <glyph glyph-name="threesuperior" unicode="&#xb3;" horiz-adv-x="378" 
d="M155 410q23 0 39.5 14.5t16.5 38.5q0 23 -16.5 38.5t-42.5 15.5q-13 0 -13 12v52q0 14 14 14q16 0 26.5 12t10.5 24q0 15 -9.5 26.5t-27.5 11.5q-20 0 -36 -21t-20 -21t-10 4l-39 22q-8 5 -8 11q0 3 4 11q15 33 45.5 53t67.5 20q44 0 79 -32.5t35 -78.5q0 -38 -31 -71
q61 -41 61 -104q0 -56 -40.5 -94.5t-99.5 -38.5q-55 0 -93.5 29t-50.5 77q-1 2 -1 8q0 9 9 13l46 13q6 2 11 2t7 -2t5 -11q23 -48 61 -48z" />
    <glyph glyph-name="acute" unicode="&#xb4;" horiz-adv-x="248" 
d="M241 713l-46 -105q-8 -21 -26 -21h-72q-16 0 -16 13q0 4 5 19l44 102q11 21 27 21h75q14 0 14 -10q0 -8 -5 -19z" />
    <glyph glyph-name="mu" unicode="&#xb5;" horiz-adv-x="584" 
d="M212 59v-230q0 -24 -25 -24h-82q-24 0 -24 24v639q0 23 26 23h74q31 0 31 -22v-254q0 -44 40 -71t83 -27q40 0 67.5 28.5t27.5 68.5v253q0 24 24 24h83q25 0 25 -25v-252q-1 -4 -1 -11q-3 -92 -54.5 -151t-139.5 -59q-44 0 -88 20.5t-67 45.5z" />
    <glyph glyph-name="paragraph" unicode="&#xb6;" horiz-adv-x="668" 
d="M245 742h403q24 0 24 -18v-70q0 -19 -25 -19h-72v-619q0 -16 -15 -16h-80q-16 0 -16 15v620h-105v-620q0 -15 -14 -15h-83q-14 0 -14 15v321q-95 0 -154 55.5t-59 148.5q0 87 61 144.5t149 57.5z" />
    <glyph glyph-name="periodcentered" unicode="&#xb7;" horiz-adv-x="227" 
d="M55 280q0 34 23.5 57.5t56.5 23.5q35 0 58 -23t23 -58q0 -33 -23 -56.5t-58 -23.5q-33 0 -56.5 23.5t-23.5 56.5z" />
    <glyph glyph-name="cedilla" unicode="&#xb8;" horiz-adv-x="278" 
d="M119 -265h-3h-2q-3 0 -5 1q-12 3 -21.5 24.5t-9.5 34.5q0 5 2 9l1 2q1 0 2 1l2 2l5 1q88 23 88 53q0 15 -16.5 29.5t-36 25.5t-36 29t-16.5 38v21h84q0 -16 17.5 -32.5t38.5 -29.5t38.5 -34.5t17.5 -46.5q0 -40 -32 -71t-118 -57z" />
    <glyph glyph-name="onesuperior" unicode="&#xb9;" horiz-adv-x="234" 
d="M22 647v54q0 11 14 20l44 20q9 3 20 3h50q14 0 14 -13v-383q0 -13 -13 -13h-64q-14 0 -14 12v303l-33 -15q-7 0 -7 -2q-11 0 -11 14z" />
    <glyph glyph-name="ordmasculine" unicode="&#xba;" horiz-adv-x="487" 
d="M59 557q0 81 57 138t138 57t138 -57t57 -138q0 -82 -57.5 -138t-137.5 -56q-81 0 -138 57t-57 137zM157 557q0 -40 28 -68t68 -28t68 28t28 68t-28 68t-68 28t-68 -28t-28 -68z" />
    <glyph glyph-name="guillemotright" unicode="&#xbb;" horiz-adv-x="691" 
d="M695 260q-48 -49 -143 -144l-107 -107q-15 -15 -28 -15q-10 0 -17 7l-50 49q-8 12 -8 21q0 13 6 19l188 187l-187 188q-7 7 -7 19q0 9 7 18l49 50q9 7 19 7q13 0 20 -5l257 -258q8 -8 8 -18q0 -11 -7 -18zM424 260l-143 -144l-107 -107q-15 -15 -28 -15q-10 0 -17 7
l-50 49q-8 12 -8 21q0 13 6 19l187 187l-186 188q-7 7 -7 19q0 9 7 18l49 50q9 7 19 7q13 0 20 -5l257 -258q8 -8 8 -18q0 -11 -7 -18z" />
    <glyph glyph-name="onequarter" unicode="&#xbc;" horiz-adv-x="742" 
d="M555 63h-172q-16 0 -16 17q0 9 5 16l185 311q6 9 16 9h56q13 -2 13 -14v-251h36q15 0 15 -13v-60q0 -14 -15 -14h-36v-49q0 -13 -15 -13h-59q-13 0 -13 13v48zM494 151h63v109zM55 647v54q0 11 14 20l44 20q9 3 20 3h50q14 0 14 -13v-383q0 -13 -13 -13h-64q-14 0 -14 12
v303l-33 -15q-7 0 -7 -2q-11 0 -11 14zM107 20l381 709q6 13 21 13h81q13 0 15.5 -8.5t-3.5 -15.5l-380 -705q-8 -13 -22 -13h-85q-8 0 -10 7t2 13z" />
    <glyph glyph-name="onehalf" unicode="&#xbd;" horiz-adv-x="742" 
d="M60 20l381 709q7 13 21 13h81q13 0 15.5 -8.5t-3.5 -15.5l-380 -705q-8 -13 -22 -13h-85q-8 0 -10 7t2 13zM56 647v54q0 11 14 20l45 20q9 3 19 3h51q14 0 14 -13v-383q0 -13 -14 -13h-64q-13 0 -13 12v303l-34 -15q-6 -1 -6 -2q-12 0 -12 14zM473 299l-5 -10
q-5 -7 -12 -7q-2 0 -11 3l-45 21q-8 4 -8 12q0 4 3 9l-1 -1q44 92 132 92q57 0 99.5 -36.5t43.5 -94.5q1 -48 -35 -87q-20 -22 -111 -115h135q14 0 14 -14v-55q0 -15 -14 -15h-252q-6 0 -11 4.5t-5 10.5v41q0 2 2 8l173 183q15 15 15 32q0 22 -16 38t-39 16q-36 0 -52 -35z
" />
    <glyph glyph-name="threequarters" unicode="&#xbe;" horiz-adv-x="766" 
d="M173 20l382 709q7 13 21 13h80q14 0 16.5 -8.5t-3.5 -15.5l-380 -705q-8 -13 -22 -13h-85q-8 0 -10.5 7t1.5 13zM152 421q23 0 39.5 14.5t16.5 38.5q0 23 -16.5 38.5t-42.5 15.5q-13 0 -13 12v52q0 14 14 14q16 0 26.5 12t10.5 24q0 15 -9.5 26.5t-27.5 11.5
q-20 0 -36 -21t-20 -21t-10 4l-39 22q-8 5 -8 11q0 3 4 11q15 33 45.5 53t67.5 20q44 0 79 -32.5t35 -78.5q0 -38 -31 -71q61 -41 61 -104q0 -56 -40.5 -94.5t-99.5 -38.5q-55 0 -93.5 29t-50.5 77q-1 2 -1 8q0 9 9 13l46 13q6 2 11 2t7 -2t5 -11q23 -48 61 -48zM604 64
h-172q-16 0 -16 17q0 9 5 16l185 311q6 9 16 9h56q13 -2 13 -14v-251h36q15 0 15 -13v-60q0 -14 -15 -14h-36v-49q0 -13 -15 -13h-59q-13 0 -13 13v48zM543 152h63v109z" />
    <glyph glyph-name="questiondown" unicode="&#xbf;" horiz-adv-x="512" 
d="M219 205v65q0 10 7 17t16 7h95q10 0 16.5 -7.5t6.5 -16.5v-85q0 -36 -18.5 -64t-44.5 -47t-52 -37t-44.5 -44.5t-18.5 -59.5q0 -42 33.5 -75t78.5 -33q44 0 75.5 34t31.5 78v15q0 10 6.5 16t16.5 6h97q22 0 22 -21v-16q0 -103 -73.5 -170.5t-175.5 -67.5
q-105 0 -179.5 68t-74.5 171q0 53 18.5 92t45 60t52.5 37.5t44.5 35t18.5 42.5zM370 422q0 33 -24 56.5t-57 23.5q-35 0 -58 -23.5t-23 -56.5q0 -34 23 -57.5t58 -23.5q33 0 57 23.5t24 57.5z" />
    <glyph glyph-name="Agrave" unicode="&#xc0;" horiz-adv-x="716" 
d="M15 21l282 702q9 19 25 19h84q18 0 25 -19l282 -702q4 -10 0 -15.5t-14 -5.5h-109q-18 0 -25 18l-48 120h-307l-47 -120q-7 -18 -25 -18h-110q-22 0 -13 21zM364 550l-107 -283h212zM303 860l-46 105q-5 11 -5 19q0 10 14 10h75q16 0 27 -21l44 -102q5 -15 5 -19
q0 -13 -16 -13h-72q-18 0 -26 21z" />
    <glyph glyph-name="Aacute" unicode="&#xc1;" horiz-adv-x="716" 
d="M15 21l282 702q9 19 25 19h84q18 0 25 -19l282 -702q4 -10 0 -15.5t-14 -5.5h-109q-18 0 -25 18l-48 120h-307l-47 -120q-7 -18 -25 -18h-110q-22 0 -13 21zM364 550l-107 -283h212zM482 965l-46 -105q-8 -21 -26 -21h-72q-16 0 -16 13q0 4 5 19l44 102q11 21 27 21h75
q14 0 14 -10q0 -8 -5 -19z" />
    <glyph glyph-name="Acircumflex" unicode="&#xc2;" horiz-adv-x="716" 
d="M15 21l282 702q9 19 25 19h84q18 0 25 -19l282 -702q4 -10 0 -15.5t-14 -5.5h-109q-18 0 -25 18l-48 120h-307l-47 -120q-7 -18 -25 -18h-110q-22 0 -13 21zM364 550l-107 -283h212zM228 894l134 135q5 5 11 5q5 0 10 -5l135 -135q5 -5 5 -12q0 -5 -5 -10l-28 -28
q-19 -16 -24 -16q-7 0 -17 10l-76 77l-78 -77q-7 -9 -17 -9q-6 0 -23 15l-27 27q-6 5 -6 15q2 5 6 8z" />
    <glyph glyph-name="Atilde" unicode="&#xc3;" horiz-adv-x="716" 
d="M15 21l282 702q9 19 25 19h84q18 0 25 -19l282 -702q4 -10 0 -15.5t-14 -5.5h-109q-18 0 -25 18l-48 120h-307l-47 -120q-7 -18 -25 -18h-110q-22 0 -13 21zM364 550l-107 -283h212zM266 832h-3l-2 -1q-1 0 -2 0.5t-2 0.5q-47 34 -47 48q0 4 6 12l10 13q39 51 99 51
q35 -2 69 -24l27 -18q13 -9 26 -9q22 0 35 14q1 1 7 9.5t11 12.5t10 4t10 -4l37 -35q5 -7 5 -12t-5 -10l-14 -18q-40 -46 -96 -46q-35 0 -69 24q-42 27 -55 27q-21 0 -35.5 -18.5t-21.5 -20.5z" />
    <glyph glyph-name="Adieresis" unicode="&#xc4;" horiz-adv-x="716" 
d="M15 21l282 702q9 19 25 19h84q18 0 25 -19l282 -702q4 -10 0 -15.5t-14 -5.5h-109q-18 0 -25 18l-48 120h-307l-47 -120q-7 -18 -25 -18h-110q-22 0 -13 21zM364 550l-107 -283h212zM218 885q0 30 20.5 50.5t49.5 20.5q31 0 51 -20.5t20 -50.5q0 -29 -20.5 -49.5
t-50.5 -20.5q-28 0 -49 20.5t-21 49.5zM421 886q0 30 20.5 51t49.5 21q30 0 50.5 -21t20.5 -51q0 -29 -20.5 -49.5t-50.5 -20.5q-29 0 -49.5 20.5t-20.5 49.5z" />
    <glyph glyph-name="Aring" unicode="&#xc5;" horiz-adv-x="716" 
d="M15 21l282 702q9 19 25 19h84q18 0 25 -19l282 -702q4 -10 0 -15.5t-14 -5.5h-109q-18 0 -25 18l-48 120h-307l-47 -120q-7 -18 -25 -18h-110q-22 0 -13 21zM364 550l-107 -283h212zM372 1028q44 0 75 -31t31 -75q0 -43 -31 -73.5t-75 -30.5t-74 30t-30 74t30.5 75
t73.5 31zM373 964q-18 0 -29.5 -12t-11.5 -30q0 -17 11.5 -28.5t29.5 -11.5q17 0 29 11.5t12 28.5q0 18 -12 30t-29 12z" />
    <glyph glyph-name="AE" unicode="&#xc6;" horiz-adv-x="1151" 
d="M277 139l-92 -118q-17 -21 -36 -21h-111q-19 0 -19 14q0 4 7 18l-1 -1l22 29l521 661q16 21 37 21h471q28 0 28 -29v-81q0 -10 -8 -18.5t-21 -8.5h-353v-162h283q27 0 27 -26v-74q0 -9 -7.5 -17t-19.5 -8h-285v-181h368q27 0 27 -27v-83q0 -27 -28 -27h-489q-26 0 -26 24
q0 75 1 115h-296zM577 523l-199 -253h199v253z" />
    <glyph glyph-name="Ccedilla" unicode="&#xc7;" horiz-adv-x="705" 
d="M568 173q20 15 32 0l50 -85q13 -16 -5 -29q-93 -70 -217 -70q-159 0 -271.5 112t-112.5 271t112.5 270t271.5 111q123 0 218 -69q14 -12 6 -25l-53 -90q-9 -12 -28 -1q-75 46 -143 46q-101 0 -168.5 -70t-67.5 -172t68 -174t168 -72q79 0 140 47zM422 -265h-3h-2
q-3 0 -5 1q-12 3 -21.5 24.5t-9.5 34.5q0 5 2 9l1 2l2 1q2 1 2 2l5 1q88 23 88 53q0 15 -16.5 29.5t-36 25.5t-36 29t-16.5 38v21h84q0 -16 17.5 -32.5t38.5 -29.5t38.5 -34.5t17.5 -46.5q0 -40 -32 -71t-118 -57z" />
    <glyph glyph-name="Egrave" unicode="&#xc8;" horiz-adv-x="642" 
d="M81 20v702q0 20 19 20h489q20 0 20 -20v-97q0 -20 -20 -20h-362v-151h276q22 0 22 -20v-95q0 -20 -22 -20h-276v-183h371q21 0 21 -20v-96q0 -20 -21 -20h-498q-19 0 -19 20zM312 860l-46 105q-5 11 -5 19q0 10 14 10h75q16 0 27 -21l44 -102q5 -15 5 -19q0 -13 -16 -13
h-72q-18 0 -26 21z" />
    <glyph glyph-name="Eacute" unicode="&#xc9;" horiz-adv-x="642" 
d="M81 20v702q0 20 19 20h489q20 0 20 -20v-97q0 -20 -20 -20h-362v-151h276q22 0 22 -20v-95q0 -20 -22 -20h-276v-183h371q21 0 21 -20v-96q0 -20 -21 -20h-498q-19 0 -19 20zM462 965l-46 -105q-8 -21 -26 -21h-72q-16 0 -16 13q0 4 5 19l44 102q11 21 27 21h75
q14 0 14 -10q0 -8 -5 -19z" />
    <glyph glyph-name="Ecircumflex" unicode="&#xca;" horiz-adv-x="642" 
d="M81 20v702q0 20 19 20h489q20 0 20 -20v-97q0 -20 -20 -20h-362v-151h276q22 0 22 -20v-95q0 -20 -22 -20h-276v-183h371q21 0 21 -20v-96q0 -20 -21 -20h-498q-19 0 -19 20zM202 894l134 135q5 5 11 5q5 0 10 -5l135 -135q5 -5 5 -12q0 -5 -5 -10l-28 -28
q-19 -16 -24 -16q-7 0 -17 10l-76 77l-78 -77q-7 -9 -17 -9q-6 0 -23 15l-27 27q-6 5 -6 15q2 5 6 8z" />
    <glyph glyph-name="Edieresis" unicode="&#xcb;" horiz-adv-x="642" 
d="M81 20v702q0 20 19 20h489q20 0 20 -20v-97q0 -20 -20 -20h-362v-151h276q22 0 22 -20v-95q0 -20 -22 -20h-276v-183h371q21 0 21 -20v-96q0 -20 -21 -20h-498q-19 0 -19 20zM188 879q0 30 20.5 50.5t49.5 20.5q31 0 51 -20.5t20 -50.5q0 -29 -20.5 -49.5t-50.5 -20.5
q-28 0 -49 20.5t-21 49.5zM391 880q0 30 20.5 51t49.5 21q30 0 50.5 -21t20.5 -51q0 -29 -20.5 -49.5t-50.5 -20.5q-29 0 -49.5 20.5t-20.5 49.5z" />
    <glyph glyph-name="Igrave" unicode="&#xcc;" horiz-adv-x="309" 
d="M81 20v701q0 21 20 21h108q19 0 19 -21v-701q0 -20 -19 -20h-108q-20 0 -20 20zM103 860l-46 105q-5 11 -5 19q0 10 14 10h75q16 0 27 -21l44 -102q5 -15 5 -19q0 -13 -16 -13h-72q-18 0 -26 21z" />
    <glyph glyph-name="Iacute" unicode="&#xcd;" horiz-adv-x="309" 
d="M81 20v701q0 21 20 21h108q19 0 19 -21v-701q0 -20 -19 -20h-108q-20 0 -20 20zM263 965l-46 -105q-8 -21 -26 -21h-72q-16 0 -16 13q0 4 5 19l44 102q11 21 27 21h75q14 0 14 -10q0 -8 -5 -19z" />
    <glyph glyph-name="Icircumflex" unicode="&#xce;" horiz-adv-x="309" 
d="M81 20v701q0 21 20 21h108q19 0 19 -21v-701q0 -20 -19 -20h-108q-20 0 -20 20zM11 894l134 135q5 5 11 5q5 0 10 -5l135 -135q5 -5 5 -12q0 -5 -5 -10l-28 -28q-19 -16 -24 -16q-7 0 -17 10l-76 77l-78 -77q-7 -9 -17 -9q-5 0 -23 15l-27 27q-6 5 -6 15q2 5 6 8z" />
    <glyph glyph-name="Idieresis" unicode="&#xcf;" horiz-adv-x="307" 
d="M80 20v701q0 21 20 21h108q19 0 19 -21v-701q0 -20 -19 -20h-108q-20 0 -20 20zM-18 884q0 30 20.5 50.5t49.5 20.5q31 0 51 -20.5t20 -50.5q0 -29 -20.5 -49.5t-50.5 -20.5q-28 0 -49 21t-21 49zM185 885q0 30 20.5 51t49.5 21q30 0 50.5 -21t20.5 -51
q0 -29 -20.5 -49.5t-50.5 -20.5q-29 0 -49.5 20.5t-20.5 49.5z" />
    <glyph glyph-name="Eth" unicode="&#xd0;" horiz-adv-x="740" 
d="M77 424v290q0 28 28 28h237q159 0 268.5 -107.5t109.5 -264.5q0 -155 -110.5 -262.5t-267.5 -107.5h-237q-28 0 -28 26v280h-44q-22 0 -22 24v74q0 20 22 20h44zM230 145h42q49 0 74 1q95 3 158.5 68.5t63.5 158.5t-61.5 155t-151.5 67q-30 2 -45 2h-80v-452z" />
    <glyph glyph-name="Ntilde" unicode="&#xd1;" horiz-adv-x="793" 
d="M81 22v698q0 22 22 22h117q22 0 29 -15l329 -473v473q5 15 22 15h101q8 0 16 -6.5t8 -15.5v-698q0 -22 -24 -22h-99q-15 0 -29 16l-347 500v-494q1 -22 -22 -22h-101q-22 0 -22 22zM291 832q7 2 21.5 20.5t35.5 18.5q13 0 55 -27q34 -24 69 -24q56 0 96 46l14 18
q5 5 5 10t-5 12l-37 35q-5 4 -10 4t-10 -4t-11 -12.5t-7 -9.5q-13 -14 -35 -14q-12 0 -26 9l-27 18q-34 22 -69 24q-60 0 -99 -51l-10 -13q-6 -8 -6 -12q0 -14 47 -48h2l2 -1l2 1h3z" />
    <glyph glyph-name="Ograve" unicode="&#xd2;" horiz-adv-x="853" 
d="M807 371q0 -158 -112.5 -269.5t-270.5 -111.5t-269 111.5t-111 269.5q0 159 111 270.5t269 111.5q159 0 271 -111.5t112 -270.5zM660 371q0 102 -67.5 172t-168.5 70q-100 0 -167 -70t-67 -172q0 -101 67 -171t167 -70q101 0 168.5 70t67.5 171zM328 965l46 -105
q8 -21 26 -21h72q16 0 16 13q0 4 -5 19l-44 102q-11 21 -27 21h-75q-14 0 -14 -10q0 -8 5 -19z" />
    <glyph glyph-name="Oacute" unicode="&#xd3;" horiz-adv-x="853" 
d="M807 371q0 -158 -112.5 -269.5t-270.5 -111.5t-269 111.5t-111 269.5q0 159 111 270.5t269 111.5q159 0 271 -111.5t112 -270.5zM660 371q0 102 -67.5 172t-168.5 70q-100 0 -167 -70t-67 -172q0 -101 67 -171t167 -70q101 0 168.5 70t67.5 171zM483 860l46 105
q5 11 5 19q0 10 -14 10h-75q-16 0 -27 -21l-44 -102q-5 -15 -5 -19q0 -13 16 -13h72q18 0 26 21z" />
    <glyph glyph-name="Ocircumflex" unicode="&#xd4;" horiz-adv-x="853" 
d="M807 371q0 -158 -112.5 -269.5t-270.5 -111.5t-269 111.5t-111 269.5q0 159 111 270.5t269 111.5q159 0 271 -111.5t112 -270.5zM660 371q0 102 -67.5 172t-168.5 70q-100 0 -167 -70t-67 -172q0 -101 67 -171t167 -70q101 0 168.5 70t67.5 171zM417 1029l-134 -135
q-4 -3 -6 -8q0 -10 6 -15l27 -27q18 -15 23 -15q10 0 17 9l78 77l76 -77q10 -10 17 -10q5 0 24 16l28 28q5 5 5 10q0 7 -5 12l-135 135q-5 5 -10 5q-6 0 -11 -5z" />
    <glyph glyph-name="Otilde" unicode="&#xd5;" horiz-adv-x="853" 
d="M807 371q0 -158 -112.5 -269.5t-270.5 -111.5t-269 111.5t-111 269.5q0 159 111 270.5t269 111.5q159 0 271 -111.5t112 -270.5zM660 371q0 102 -67.5 172t-168.5 70q-100 0 -167 -70t-67 -172q0 -101 67 -171t167 -70q101 0 168.5 70t67.5 171zM321 832q7 2 21.5 20.5
t35.5 18.5q13 0 55 -27q34 -24 69 -24q56 0 96 46l14 18q5 5 5 10t-5 12l-37 35q-5 4 -10 4t-10 -4t-11 -12.5t-7 -9.5q-13 -14 -35 -14q-12 0 -26 9l-27 18q-34 22 -69 24q-60 0 -99 -51l-10 -13q-6 -8 -6 -12q0 -14 47 -48h2l2 -1l2 1h3z" />
    <glyph glyph-name="Odieresis" unicode="&#xd6;" horiz-adv-x="853" 
d="M807 371q0 -158 -112.5 -269.5t-270.5 -111.5t-269 111.5t-111 269.5q0 159 111 270.5t269 111.5q159 0 271 -111.5t112 -270.5zM660 371q0 102 -67.5 172t-168.5 70q-100 0 -167 -70t-67 -172q0 -101 67 -171t167 -70q101 0 168.5 70t67.5 171zM242 875q0 -29 21 -49.5
t49 -20.5q30 0 50.5 20.5t20.5 49.5q0 30 -20 50.5t-51 20.5q-29 0 -49.5 -20.5t-20.5 -50.5zM445 876q0 -29 20.5 -49.5t49.5 -20.5q30 0 50.5 20.5t20.5 49.5q0 30 -20.5 51t-50.5 21q-29 0 -49.5 -21t-20.5 -51z" />
    <glyph glyph-name="multiply" unicode="&#xd7;" horiz-adv-x="446" 
d="M410 383l-70 -70l72 -72q8 -10 8 -20q0 -11 -9 -20l-52 -52q-9 -9 -22 -9q-10 0 -17 7l-73 73l-70 -70q-9 -9 -19 -9q-11 0 -20 9l-49 49q-10 10 -10 21q0 10 9 19l70 70l-72 71q-8 8 -8 20q0 9 10 19l52 54q9 9 20 9q10 0 19 -9v1l71 -72l70 70q7 8 19 8q11 0 21 -8
l49 -51q8 -7 8 -19t-7 -19z" />
    <glyph glyph-name="Oslash" unicode="&#xd8;" horiz-adv-x="851" 
d="M44 371q0 159 112 270.5t270 111.5q39 0 84 -10l27 60q8 21 28 21h118q25 0 14 -23l-51 -118q74 -53 117.5 -135t43.5 -177q0 -158 -111 -269.5t-270 -111.5q-37 0 -79 8l-29 -66q-9 -20 -29 -20h-119q-23 0 -14 23l55 121q-77 52 -122 135t-45 180zM190 371
q0 -101 68 -171t168 -70t167.5 70t67.5 171q0 102 -67 172t-168 70q-100 0 -168 -70t-68 -172z" />
    <glyph glyph-name="Ugrave" unicode="&#xd9;" horiz-adv-x="752" 
d="M217 720v-427q0 -71 45 -120.5t114 -49.5t113.5 49.5t44.5 120.5v427q0 9 6.5 15.5t16.5 6.5h99q9 0 17 -6.5t8 -15.5v-427q0 -126 -89.5 -215.5t-215.5 -89.5q-127 0 -216.5 89.5t-89.5 215.5v427q0 8 6 15t15 7h103q8 0 15.5 -6.5t7.5 -15.5zM324 860l-46 105
q-5 11 -5 19q0 10 14 10h75q16 0 27 -21l44 -102q5 -15 5 -19q0 -13 -16 -13h-72q-18 0 -26 21z" />
    <glyph glyph-name="Uacute" unicode="&#xda;" horiz-adv-x="752" 
d="M217 720v-427q0 -71 45 -120.5t114 -49.5t113.5 49.5t44.5 120.5v427q0 9 6.5 15.5t16.5 6.5h99q9 0 17 -6.5t8 -15.5v-427q0 -126 -89.5 -215.5t-215.5 -89.5q-127 0 -216.5 89.5t-89.5 215.5v427q0 8 6 15t15 7h103q8 0 15.5 -6.5t7.5 -15.5zM487 965l-46 -105
q-8 -21 -26 -21h-72q-16 0 -16 13q0 4 5 19l44 102q11 21 27 21h75q14 0 14 -10q0 -8 -5 -19z" />
    <glyph glyph-name="Ucircumflex" unicode="&#xdb;" horiz-adv-x="752" 
d="M217 720v-427q0 -71 45 -120.5t114 -49.5t113.5 49.5t44.5 120.5v427q0 9 6.5 15.5t16.5 6.5h99q9 0 17 -6.5t8 -15.5v-427q0 -126 -89.5 -215.5t-215.5 -89.5q-127 0 -216.5 89.5t-89.5 215.5v427q0 8 6 15t15 7h103q8 0 15.5 -6.5t7.5 -15.5zM228 894l134 135q5 5 11 5
q5 0 10 -5l135 -135q5 -5 5 -12q0 -5 -5 -10l-28 -28q-19 -16 -24 -16q-7 0 -17 10l-76 77l-78 -77q-7 -9 -17 -9q-6 0 -23 15l-27 27q-6 5 -6 15q2 5 6 8z" />
    <glyph glyph-name="Udieresis" unicode="&#xdc;" horiz-adv-x="752" 
d="M217 720v-427q0 -71 45 -120.5t114 -49.5t113.5 49.5t44.5 120.5v427q0 9 6.5 15.5t16.5 6.5h99q9 0 17 -6.5t8 -15.5v-427q0 -126 -89.5 -215.5t-215.5 -89.5q-127 0 -216.5 89.5t-89.5 215.5v427q0 8 6 15t15 7h103q8 0 15.5 -6.5t7.5 -15.5zM217 875q0 30 20.5 50.5
t49.5 20.5q31 0 51 -20.5t20 -50.5q0 -29 -20.5 -49.5t-50.5 -20.5q-29 0 -49.5 20.5t-20.5 49.5zM420 876q0 30 20.5 51t49.5 21q30 0 50.5 -21t20.5 -51q0 -29 -20.5 -49.5t-50.5 -20.5q-29 0 -49.5 20.5t-20.5 49.5z" />
    <glyph glyph-name="Yacute" unicode="&#xdd;" horiz-adv-x="659" 
d="M284 21v291l-239 408q-5 10 -1 16t14 6h123q15 0 25 -18l151 -291l150 291q10 18 25 18h124q10 0 14 -6t-1 -16l-239 -407v-292q0 -21 -19 -21h-108q-19 0 -19 21zM440 965l-46 -105q-8 -21 -26 -21h-72q-16 0 -16 13q0 4 5 19l44 102q11 21 27 21h75q14 0 14 -10
q0 -8 -5 -19z" />
    <glyph glyph-name="Thorn" unicode="&#xde;" horiz-adv-x="627" 
d="M81 20v703q0 19 19 19h107q19 0 19 -19v-115h159q98 0 164.5 -70t66.5 -165t-65 -166t-163 -71h-162v-116q0 -20 -20 -20h-106q-19 0 -19 20zM355 481h-129v-219h129q49 0 80.5 32.5t31.5 79.5q0 46 -31 76.5t-81 30.5z" />
    <glyph glyph-name="germandbls" unicode="&#xdf;" horiz-adv-x="576" 
d="M284 -7q-21 0 -21 23v75q0 29 29 29q111 0 111 112q0 51 -32.5 81.5t-85.5 30.5q-22 0 -22 20v80q0 21 24 21q68 0 68 76q-2 81 -75 81q-72 0 -72 -117v-673q0 -23 -19 -23h-103q-10 0 -15 3.5t-5.5 7.5t-0.5 13v686q0 229 221 229q91 0 149.5 -55t58.5 -134
q0 -98 -54 -139q56 -31 84.5 -85t28.5 -118q0 -101 -71 -162.5t-198 -61.5z" />
    <glyph glyph-name="agrave" unicode="&#xe0;" horiz-adv-x="594" 
d="M419 27q-1 7 -3 17t-3 16q-22 -33 -50.5 -51.5t-78.5 -18.5h-2q-105 0 -173.5 73t-68.5 181q0 110 67.5 182t174.5 72q48 0 77.5 -18t57.5 -53l10 38q4 17 9 22.5t19 5.5l56 -2q12 0 20.5 -7.5t8.5 -19.5v-439q0 -11 -8.5 -18t-20.5 -7h-64q-23 0 -28 27zM170 243
q0 -56 33.5 -94t86.5 -38q55 0 88 37t33 94t-33 95.5t-88 38.5q-53 0 -86.5 -38.5t-33.5 -94.5zM249 608l-46 105q-5 11 -5 19q0 10 14 10h75q16 0 27 -21l44 -102q5 -15 5 -19q0 -13 -16 -13h-72q-18 0 -26 21z" />
    <glyph glyph-name="aacute" unicode="&#xe1;" horiz-adv-x="594" 
d="M419 27q-1 7 -3 17t-3 16q-22 -33 -50.5 -51.5t-78.5 -18.5h-2q-105 0 -173.5 73t-68.5 181q0 110 67.5 182t174.5 72q48 0 77.5 -18t57.5 -53l10 38q4 17 9 22.5t19 5.5l56 -2q12 0 20.5 -7.5t8.5 -19.5v-439q0 -11 -8.5 -18t-20.5 -7h-64q-23 0 -28 27zM170 243
q0 -56 33.5 -94t86.5 -38q55 0 88 37t33 94t-33 95.5t-88 38.5q-53 0 -86.5 -38.5t-33.5 -94.5zM394 713l-46 -105q-8 -21 -26 -21h-72q-16 0 -16 13q0 4 5 19l44 102q11 21 27 21h75q14 0 14 -10q0 -8 -5 -19z" />
    <glyph glyph-name="acircumflex" unicode="&#xe2;" horiz-adv-x="594" 
d="M419 27q-1 7 -3 17t-3 16q-22 -33 -50.5 -51.5t-78.5 -18.5h-2q-105 0 -173.5 73t-68.5 181q0 110 67.5 182t174.5 72q48 0 77.5 -18t57.5 -53l10 38q4 17 9 22.5t19 5.5l56 -2q12 0 20.5 -7.5t8.5 -19.5v-439q0 -11 -8.5 -18t-20.5 -7h-64q-23 0 -28 27zM170 243
q0 -56 33.5 -94t86.5 -38q55 0 88 37t33 94t-33 95.5t-88 38.5q-53 0 -86.5 -38.5t-33.5 -94.5zM138 642l134 135q5 5 11 5q5 0 10 -5l135 -135q5 -5 5 -12q0 -5 -5 -10l-28 -28q-19 -16 -24 -16q-7 0 -17 10l-76 77l-78 -77q-7 -9 -17 -9q-6 0 -23 15l-27 27q-6 5 -6 15
q2 5 6 8z" />
    <glyph glyph-name="atilde" unicode="&#xe3;" horiz-adv-x="594" 
d="M419 27q-1 7 -3 17t-3 16q-22 -33 -50.5 -51.5t-78.5 -18.5h-2q-105 0 -173.5 73t-68.5 181q0 110 67.5 182t174.5 72q48 0 77.5 -18t57.5 -53l10 38q4 17 9 22.5t19 5.5l56 -2q12 0 20.5 -7.5t8.5 -19.5v-439q0 -11 -8.5 -18t-20.5 -7h-64q-23 0 -28 27zM170 243
q0 -56 33.5 -94t86.5 -38q55 0 88 37t33 94t-33 95.5t-88 38.5q-53 0 -86.5 -38.5t-33.5 -94.5zM176 568h-3l-2 -1q-1 0 -2 0.5t-2 0.5q-47 34 -47 48q0 4 6 12l10 13q39 51 99 51q35 -2 69 -24l27 -18q13 -9 26 -9q22 0 35 14q1 1 7 9.5t11 12.5t10 4t10 -4l37 -35
q5 -7 5 -12t-5 -10l-14 -18q-40 -46 -96 -46q-35 0 -69 24q-42 27 -55 27q-21 0 -35.5 -18.5t-21.5 -20.5z" />
    <glyph glyph-name="adieresis" unicode="&#xe4;" horiz-adv-x="594" 
d="M419 27q-1 7 -3 17t-3 16q-22 -33 -50.5 -51.5t-78.5 -18.5h-2q-105 0 -173.5 73t-68.5 181q0 110 67.5 182t174.5 72q48 0 77.5 -18t57.5 -53l10 38q4 17 9 22.5t19 5.5l56 -2q12 0 20.5 -7.5t8.5 -19.5v-439q0 -11 -8.5 -18t-20.5 -7h-64q-23 0 -28 27zM170 243
q0 -56 33.5 -94t86.5 -38q55 0 88 37t33 94t-33 95.5t-88 38.5q-53 0 -86.5 -38.5t-33.5 -94.5zM122 633q0 30 20.5 50.5t49.5 20.5q31 0 51 -20.5t20 -50.5q0 -29 -20.5 -49.5t-50.5 -20.5q-28 0 -49 20.5t-21 49.5zM325 634q0 30 20.5 51t49.5 21q30 0 50.5 -21t20.5 -51
q0 -29 -20.5 -49.5t-50.5 -20.5q-29 0 -49.5 20.5t-20.5 49.5z" />
    <glyph glyph-name="aring" unicode="&#xe5;" horiz-adv-x="594" 
d="M419 27q-1 7 -3 17t-3 16q-22 -33 -50.5 -51.5t-78.5 -18.5h-2q-105 0 -173.5 73t-68.5 181q0 110 67.5 182t174.5 72q48 0 77.5 -18t57.5 -53l10 38q4 17 9 22.5t19 5.5l56 -2q12 0 20.5 -7.5t8.5 -19.5v-439q0 -11 -8.5 -18t-20.5 -7h-64q-23 0 -28 27zM170 243
q0 -56 33.5 -94t86.5 -38q55 0 88 37t33 94t-33 95.5t-88 38.5q-53 0 -86.5 -38.5t-33.5 -94.5zM282 807q44 0 75 -31.5t31 -74.5t-31 -73.5t-75 -30.5t-74 30.5t-30 73.5q0 44 30.5 75t73.5 31zM283 743q-18 0 -29.5 -12t-11.5 -30q0 -17 11.5 -28.5t29.5 -11.5
q17 0 29 11.5t12 28.5q0 18 -12 30t-29 12z" />
    <glyph glyph-name="ae" unicode="&#xe6;" horiz-adv-x="967" 
d="M418 27q-1 7 -3 17t-3 16q-22 -33 -50.5 -51.5t-78.5 -18.5h-2q-105 0 -173.5 73t-68.5 181q0 110 67.5 182t174.5 72q48 0 77.5 -18t57.5 -53l10 38q4 17 9 22.5t19 5.5l56 -2q12 0 20.5 -7.5t8.5 -19.5v-439q0 -11 -8.5 -18t-20.5 -7h-64q-23 0 -28 27zM169 243
q0 -56 33.5 -94t86.5 -38q55 0 88 37t33 94t-33 95.5t-88 38.5q-53 0 -86.5 -38.5t-33.5 -94.5zM681 107q40 -1 84 24q4 2 10 5.5t10 6t8 2.5q9 0 15 -9l37 -59q5 -8 5 -13q0 -10 -16 -24q-68 -52 -150 -52q-105 0 -180 75t-75 181q0 104 74 180.5t175 76.5q97 0 166.5 -67
t69.5 -161q0 -41 -7 -57.5t-28 -16.5h-311q4 -41 38.5 -66.5t74.5 -25.5zM568 295h215q-2 38 -33 65t-75 27q-37 0 -69.5 -27t-37.5 -65z" />
    <glyph glyph-name="ccedilla" unicode="&#xe7;" horiz-adv-x="511" 
d="M292 114q40 1 98 28q10 5 14 5q7 0 15 -11l43 -62q4 -8 4 -11q0 -11 -17 -23q-77 -51 -154 -51q-106 0 -181 74.5t-75 180.5t75 181.5t181 75.5q73 0 149 -49h-1q18 -11 18 -25q0 -8 -3 -11l-39 -67q-6 -10 -16 -10q-4 0 -16 7q-40 31 -91 31q-55 0 -93 -40t-38 -95
q0 -56 36 -92t91 -36zM284 -265h-3h-2q-3 0 -5 1q-12 3 -21.5 24.5t-9.5 34.5q0 5 2 9l1 2q1 1 4 3l5 1q88 23 88 53q0 15 -16.5 29.5t-36 25.5t-36 29t-16.5 38v21h84q0 -16 17.5 -32.5t38.5 -29.5t38.5 -34.5t17.5 -46.5q0 -40 -32 -71t-118 -57z" />
    <glyph glyph-name="egrave" unicode="&#xe8;" horiz-adv-x="572" 
d="M296 107q40 -1 84 24q4 2 10 5.5t10 6t8 2.5q9 0 15 -9l37 -59q5 -8 5 -13q0 -10 -16 -24q-68 -52 -150 -52q-105 0 -180 75t-75 181q0 104 74 180.5t175 76.5q97 0 166.5 -67t69.5 -161q0 -41 -7 -57.5t-28 -16.5h-311q4 -41 38.5 -66.5t74.5 -25.5zM183 295h215
q-2 38 -33 65t-75 27q-37 0 -69.5 -27t-37.5 -65zM239 608l-46 105q-5 11 -5 19q0 10 14 10h75q16 0 27 -21l44 -102q5 -15 5 -19q0 -13 -16 -13h-72q-18 0 -26 21z" />
    <glyph glyph-name="eacute" unicode="&#xe9;" horiz-adv-x="572" 
d="M296 107q40 -1 84 24q4 2 10 5.5t10 6t8 2.5q9 0 15 -9l37 -59q5 -8 5 -13q0 -10 -16 -24q-68 -52 -150 -52q-105 0 -180 75t-75 181q0 104 74 180.5t175 76.5q97 0 166.5 -67t69.5 -161q0 -41 -7 -57.5t-28 -16.5h-311q4 -41 38.5 -66.5t74.5 -25.5zM183 295h215
q-2 38 -33 65t-75 27q-37 0 -69.5 -27t-37.5 -65zM409 713l-46 -105q-8 -21 -26 -21h-72q-16 0 -16 13q0 4 5 19l44 102q11 21 27 21h75q14 0 14 -10q0 -8 -5 -19z" />
    <glyph glyph-name="ecircumflex" unicode="&#xea;" horiz-adv-x="572" 
d="M296 107q40 -1 84 24q4 2 10 5.5t10 6t8 2.5q9 0 15 -9l37 -59q5 -8 5 -13q0 -10 -16 -24q-68 -52 -150 -52q-105 0 -180 75t-75 181q0 104 74 180.5t175 76.5q97 0 166.5 -67t69.5 -161q0 -41 -7 -57.5t-28 -16.5h-311q4 -41 38.5 -66.5t74.5 -25.5zM183 295h215
q-2 38 -33 65t-75 27q-37 0 -69.5 -27t-37.5 -65zM144 642l134 135q5 5 11 5q5 0 10 -5l135 -135q5 -5 5 -12q0 -5 -5 -10l-28 -28q-19 -16 -24 -16q-7 0 -17 10l-76 77l-78 -77q-7 -9 -17 -9q-6 0 -23 15l-27 27q-6 5 -6 15q2 5 6 8z" />
    <glyph glyph-name="edieresis" unicode="&#xeb;" horiz-adv-x="572" 
d="M296 107q40 -1 84 24q4 2 10 5.5t10 6t8 2.5q9 0 15 -9l37 -59q5 -8 5 -13q0 -10 -16 -24q-68 -52 -150 -52q-105 0 -180 75t-75 181q0 104 74 180.5t175 76.5q97 0 166.5 -67t69.5 -161q0 -41 -7 -57.5t-28 -16.5h-311q4 -41 38.5 -66.5t74.5 -25.5zM183 295h215
q-2 38 -33 65t-75 27q-37 0 -69.5 -27t-37.5 -65zM126 633q0 30 20.5 50.5t49.5 20.5q31 0 51 -20.5t20 -50.5q0 -29 -20.5 -49.5t-50.5 -20.5q-28 0 -49 20.5t-21 49.5zM329 634q0 30 20.5 51t49.5 21q30 0 50.5 -21t20.5 -51q0 -29 -20.5 -49.5t-50.5 -20.5
q-29 0 -49.5 20.5t-20.5 49.5z" />
    <glyph glyph-name="igrave" unicode="&#xec;" horiz-adv-x="288" 
d="M207 467v-444q0 -23 -25 -23h-87q-23 0 -23 23v444q0 24 23 24h87q9 0 17 -7t8 -17zM71 608l-46 105q-5 11 -5 19q0 10 14 10h75q16 0 27 -21l44 -102q5 -15 5 -19q0 -13 -16 -13h-72q-18 0 -26 21z" />
    <glyph glyph-name="iacute" unicode="&#xed;" horiz-adv-x="288" 
d="M207 467v-444q0 -23 -25 -23h-87q-23 0 -23 23v444q0 24 23 24h87q9 0 17 -7t8 -17zM240 713l-46 -105q-8 -21 -26 -21h-72q-16 0 -16 13q0 4 5 19l44 102q11 21 27 21h75q14 0 14 -10q0 -8 -5 -19z" />
    <glyph glyph-name="icircumflex" unicode="&#xee;" horiz-adv-x="288" 
d="M207 467v-444q0 -23 -25 -23h-87q-23 0 -23 23v444q0 24 23 24h87q9 0 17 -7t8 -17zM-14 635l134 135q5 5 11 5q5 0 10 -5l135 -135q5 -5 5 -12q0 -5 -5 -10l-28 -28q-19 -16 -24 -16q-7 0 -17 10l-76 77l-78 -77q-7 -9 -17 -9q-6 0 -23 15l-27 27q-6 5 -6 15q2 5 6 8z
" />
    <glyph glyph-name="idieresis" unicode="&#xef;" horiz-adv-x="288" 
d="M207 467v-444q0 -23 -25 -23h-87q-23 0 -23 23v444q0 24 23 24h87q9 0 17 -7t8 -17zM-30 633q0 30 20.5 50.5t49.5 20.5q31 0 51 -20.5t20 -50.5q0 -29 -20.5 -49.5t-50.5 -20.5q-28 0 -49 20.5t-21 49.5zM173 634q0 30 20.5 51t49.5 21q30 0 50.5 -21t20.5 -51
q0 -29 -20.5 -49.5t-50.5 -20.5q-29 0 -49.5 20.5t-20.5 49.5z" />
    <glyph glyph-name="eth" unicode="&#xf0;" horiz-adv-x="574" 
d="M559 229q-5 -102 -79.5 -170.5t-177.5 -68.5q-107 0 -182.5 74t-75.5 180q0 101 71.5 175t172.5 74q16 0 24 -1q-3 5 -36 62l-48 -28q-8 -4 -12 -4q-14 0 -26 23q-23 41 -23 46q0 11 36 28l28 15l-48 84q-4 8 -4 14q0 10 19 10h97q21 0 33 -22l13 -24l39 22q20 10 25 10
q6 0 13 -10q31 -48 31 -57q0 -7 -21 -21l-41 -24q23 -41 69.5 -121.5t69.5 -121.5q35 -61 33 -129v-15zM429 243q0 55 -36 94t-90 39t-89.5 -38.5t-35.5 -94.5q0 -55 35.5 -93t89.5 -38t90 38t36 93z" />
    <glyph glyph-name="ntilde" unicode="&#xf1;" horiz-adv-x="627" 
d="M165 491q12 0 19 -3t11.5 -10t6 -13t4 -18.5t4.5 -19.5q25 29 65 49.5t85 20.5q91 0 143 -55t52 -143v-275q0 -24 -24 -24h-92q-15 0 -19 4.5t-4 18.5v253q0 40 -26 65t-65 25q-34 0 -67 -26t-38 -61v-257q0 -13 -5 -17.5t-20 -4.5h-90q-15 0 -19.5 5t-4.5 17v439
q0 30 30 30h54zM212 576h-3l-2 -1q-1 0 -2 0.5t-2 0.5q-47 34 -47 48q0 4 6 12l10 13q39 51 99 51q35 -2 69 -24l27 -18q13 -9 26 -9q22 0 35 14q1 1 7 9.5t11 12.5t10 4t10 -4l37 -35q5 -7 5 -12t-5 -10l-14 -18q-40 -46 -96 -46q-35 0 -69 24q-42 27 -55 27
q-21 0 -35.5 -18.5t-21.5 -20.5z" />
    <glyph glyph-name="ograve" unicode="&#xf2;" horiz-adv-x="578" 
d="M30 244q0 107 75.5 182t183.5 75q107 0 183 -75.5t76 -181.5t-76 -180.5t-183 -74.5q-108 0 -183.5 74.5t-75.5 180.5zM163 243q0 -54 36.5 -92t89.5 -38t90 38t37 92t-37 92.5t-90 38.5t-89.5 -38.5t-36.5 -92.5zM233 608l-46 105q-5 11 -5 19q0 10 14 10h75
q16 0 27 -21l44 -102q5 -15 5 -19q0 -13 -16 -13h-72q-18 0 -26 21z" />
    <glyph glyph-name="oacute" unicode="&#xf3;" horiz-adv-x="578" 
d="M30 244q0 107 75.5 182t183.5 75q107 0 183 -75.5t76 -181.5t-76 -180.5t-183 -74.5q-108 0 -183.5 74.5t-75.5 180.5zM163 243q0 -54 36.5 -92t89.5 -38t90 38t37 92t-37 92.5t-90 38.5t-89.5 -38.5t-36.5 -92.5zM394 713l-46 -105q-8 -21 -26 -21h-72q-16 0 -16 13
q0 4 5 19l44 102q11 21 27 21h75q14 0 14 -10q0 -8 -5 -19z" />
    <glyph glyph-name="ocircumflex" unicode="&#xf4;" horiz-adv-x="578" 
d="M30 244q0 107 75.5 182t183.5 75q107 0 183 -75.5t76 -181.5t-76 -180.5t-183 -74.5q-108 0 -183.5 74.5t-75.5 180.5zM163 243q0 -54 36.5 -92t89.5 -38t90 38t37 92t-37 92.5t-90 38.5t-89.5 -38.5t-36.5 -92.5zM140 642l134 135q5 5 11 5q5 0 10 -5l135 -135
q5 -5 5 -12q0 -5 -5 -10l-28 -28q-19 -16 -24 -16q-7 0 -17 10l-76 77l-78 -77q-7 -9 -17 -9q-6 0 -23 15l-27 27q-6 5 -6 15q2 5 6 8z" />
    <glyph glyph-name="otilde" unicode="&#xf5;" horiz-adv-x="578" 
d="M30 244q0 107 75.5 182t183.5 75q107 0 183 -75.5t76 -181.5t-76 -180.5t-183 -74.5q-108 0 -183.5 74.5t-75.5 180.5zM163 243q0 -54 36.5 -92t89.5 -38t90 38t37 92t-37 92.5t-90 38.5t-89.5 -38.5t-36.5 -92.5zM180 578h-3l-2 -1q-1 0 -2 0.5t-2 0.5q-47 34 -47 48
q0 4 6 12l10 13q39 51 99 51q35 -2 69 -24l27 -18q13 -9 26 -9q22 0 35 14q1 1 7 9.5t11 12.5t10 4t10 -4l37 -35q5 -7 5 -12t-5 -10l-14 -18q-40 -46 -96 -46q-35 0 -69 24q-42 27 -55 27q-21 0 -35.5 -18.5t-21.5 -20.5z" />
    <glyph glyph-name="odieresis" unicode="&#xf6;" horiz-adv-x="578" 
d="M30 244q0 107 75.5 182t183.5 75q107 0 183 -75.5t76 -181.5t-76 -180.5t-183 -74.5q-108 0 -183.5 74.5t-75.5 180.5zM163 243q0 -54 36.5 -92t89.5 -38t90 38t37 92t-37 92.5t-90 38.5t-89.5 -38.5t-36.5 -92.5zM115 633q0 30 20.5 50.5t49.5 20.5q31 0 51 -20.5
t20 -50.5q0 -29 -20.5 -49.5t-50.5 -20.5q-29 0 -49.5 20.5t-20.5 49.5zM318 634q0 30 20.5 51t49.5 21q30 0 50.5 -21t20.5 -51q0 -29 -20.5 -49.5t-50.5 -20.5q-29 0 -49.5 20.5t-20.5 49.5z" />
    <glyph glyph-name="divide" unicode="&#xf7;" horiz-adv-x="451" 
d="M157 464q0 31 22 53t53 22q32 0 53.5 -22t21.5 -53q0 -32 -21.5 -53.5t-53.5 -21.5q-31 0 -53 22t-22 53zM154 59q0 31 22 53t53 22q32 0 53.5 -21.5t21.5 -53.5q0 -31 -21.5 -53t-53.5 -22q-31 0 -53 22t-22 53zM389 195h-317q-28 0 -28 28v78q0 28 28 28h317
q11 0 19 -8t8 -20v-78q0 -12 -8 -20t-19 -8z" />
    <glyph glyph-name="oslash" unicode="&#xf8;" horiz-adv-x="578" 
d="M81 -53v1l42 98q-93 75 -93 198q0 106 73.5 179t179.5 73q11 0 33 -2l22 51q10 21 32 21h78q23 0 23 -16q0 -9 -2 -11l-39 -90q49 -35 77 -88.5t28 -116.5q0 -106 -73.5 -179.5t-178.5 -73.5q-28 0 -48 4q-22 -49 -23 -52q-10 -19 -26 -19h-87q-20 0 -20 14q0 2 1 5z
M153 243q0 -54 36.5 -92t89.5 -38t90 38t37 92t-37 92.5t-90 38.5t-89.5 -38.5t-36.5 -92.5z" />
    <glyph glyph-name="ugrave" unicode="&#xf9;" horiz-adv-x="568" 
d="M453 0q-12 0 -19.5 2t-12 9.5t-6.5 11t-5 18.5t-4 19q-25 -28 -67.5 -47t-89.5 -19q-91 0 -140 54t-49 143v270q0 14 8.5 22t20.5 8h82q28 0 28 -29v-248q0 -40 23.5 -64.5t62.5 -24.5q37 0 75.5 25.5t38.5 60.5v252q0 28 29 28h81q29 0 29 -28v-433q0 -30 -31 -30h-54z
M266 608l-46 105q-5 11 -5 19q0 10 14 10h75q16 0 27 -21l44 -102q5 -15 5 -19q0 -13 -16 -13h-72q-18 0 -26 21z" />
    <glyph glyph-name="uacute" unicode="&#xfa;" horiz-adv-x="568" 
d="M453 0q-12 0 -19.5 2t-12 9.5t-6.5 11t-5 18.5t-4 19q-25 -28 -67.5 -47t-89.5 -19q-91 0 -140 54t-49 143v270q0 14 8.5 22t20.5 8h82q28 0 28 -29v-248q0 -40 23.5 -64.5t62.5 -24.5q37 0 75.5 25.5t38.5 60.5v252q0 28 29 28h81q29 0 29 -28v-433q0 -30 -31 -30h-54z
M388 713l-46 -105q-8 -21 -26 -21h-72q-16 0 -16 13q0 4 5 19l44 102q11 21 27 21h75q14 0 14 -10q0 -8 -5 -19z" />
    <glyph glyph-name="ucircumflex" unicode="&#xfb;" horiz-adv-x="568" 
d="M453 0q-12 0 -19.5 2t-12 9.5t-6.5 11t-5 18.5t-4 19q-25 -28 -67.5 -47t-89.5 -19q-91 0 -140 54t-49 143v270q0 14 8.5 22t20.5 8h82q28 0 28 -29v-248q0 -40 23.5 -64.5t62.5 -24.5q37 0 75.5 25.5t38.5 60.5v252q0 28 29 28h81q29 0 29 -28v-433q0 -30 -31 -30h-54z
M149 642l134 135q5 5 11 5q5 0 10 -5l135 -135q5 -5 5 -12q0 -5 -5 -10l-28 -28q-19 -16 -24 -16q-7 0 -17 10l-76 77l-78 -77q-7 -9 -17 -9q-5 0 -23 15l-27 27q-6 5 -6 15q2 5 6 8z" />
    <glyph glyph-name="udieresis" unicode="&#xfc;" horiz-adv-x="568" 
d="M453 0q-12 0 -19.5 2t-12 9.5t-6.5 11t-5 18.5t-4 19q-25 -28 -67.5 -47t-89.5 -19q-91 0 -140 54t-49 143v270q0 14 8.5 22t20.5 8h82q28 0 28 -29v-248q0 -40 23.5 -64.5t62.5 -24.5q37 0 75.5 25.5t38.5 60.5v252q0 28 29 28h81q29 0 29 -28v-433q0 -30 -31 -30h-54z
M123 633q0 30 20.5 50.5t49.5 20.5q31 0 51 -20.5t20 -50.5q0 -29 -20.5 -49.5t-50.5 -20.5q-29 0 -49.5 20.5t-20.5 49.5zM326 634q0 30 20.5 51t49.5 21q30 0 50.5 -21t20.5 -51q0 -29 -20.5 -49.5t-50.5 -20.5q-29 0 -49.5 20.5t-20.5 49.5z" />
    <glyph glyph-name="yacute" unicode="&#xfd;" horiz-adv-x="559" 
d="M534 448l-244 -624q-10 -22 -32 -22h-81q-28 0 -28 21q0 5 2 13l63 169l-182 446q-4 8 -4 17q0 22 27 22h87q25 0 32 -23l109 -292l108 293q7 22 33 22h86q28 0 28 -24q0 -6 -4 -18zM383 713l-46 -105q-8 -21 -26 -21h-72q-16 0 -16 13q0 4 5 19l44 102q11 21 27 21h75
q14 0 14 -10q0 -8 -5 -19z" />
    <glyph glyph-name="thorn" unicode="&#xfe;" horiz-adv-x="591" 
d="M438 247q0 55 -33 93.5t-82 38.5q-47 0 -80.5 -35.5t-36.5 -87.5v-16q2 -53 35.5 -89.5t81.5 -36.5q49 0 82 39t33 94zM109 -194q-11 0 -19.5 7t-8.5 19v865q0 11 7.5 17.5t17.5 6.5h83q24 0 24 -24v-257q44 61 123 61q102 0 168.5 -73t66.5 -180v-2q1 -107 -66 -180.5
t-169 -73.5q-79 0 -123 60v-220q0 -26 -27 -26h-77z" />
    <glyph glyph-name="ydieresis" unicode="&#xff;" horiz-adv-x="559" 
d="M534 448l-244 -624q-10 -22 -32 -22h-81q-28 0 -28 21q0 5 2 13l63 169l-182 446q-4 8 -4 17q0 22 27 22h87q25 0 32 -23l109 -292l108 293q7 22 33 22h86q28 0 28 -24q0 -6 -4 -18zM111 633q0 30 20.5 50.5t49.5 20.5q31 0 51 -20.5t20 -50.5q0 -29 -20.5 -49.5
t-50.5 -20.5q-29 0 -49.5 20.5t-20.5 49.5zM314 634q0 30 20.5 51t49.5 21q30 0 50.5 -21t20.5 -51q0 -29 -20.5 -49.5t-50.5 -20.5q-29 0 -49.5 20.5t-20.5 49.5z" />
    <glyph glyph-name="Amacron" unicode="&#x100;" horiz-adv-x="716" 
d="M15 21l282 702q9 19 25 19h84q18 0 25 -19l282 -702q4 -10 0 -15.5t-14 -5.5h-109q-18 0 -25 18l-48 120h-307l-47 -120q-7 -18 -25 -18h-110q-22 0 -13 21zM364 550l-107 -283h212zM179 870v50q0 18 17 18h363q18 0 18 -18v-50q0 -7 -5 -13.5t-13 -6.5h-363
q-17 0 -17 20z" />
    <glyph glyph-name="amacron" unicode="&#x101;" horiz-adv-x="594" 
d="M419 27q-1 7 -3 17t-3 16q-22 -33 -50.5 -51.5t-78.5 -18.5h-2q-105 0 -173.5 73t-68.5 181q0 110 67.5 182t174.5 72q48 0 77.5 -18t57.5 -53l10 38q4 17 9 22.5t19 5.5l56 -2q12 0 20.5 -7.5t8.5 -19.5v-439q0 -11 -8.5 -18t-20.5 -7h-64q-23 0 -28 27zM170 243
q0 -56 33.5 -94t86.5 -38q55 0 88 37t33 94t-33 95.5t-88 38.5q-53 0 -86.5 -38.5t-33.5 -94.5zM118 618v50q0 18 17 18h363q18 0 18 -18v-50q0 -7 -5 -13.5t-13 -6.5h-363q-17 0 -17 20z" />
    <glyph glyph-name="Abreve" unicode="&#x102;" horiz-adv-x="716" 
d="M15 21l282 702q9 19 25 19h84q18 0 25 -19l282 -702q4 -10 0 -15.5t-14 -5.5h-109q-18 0 -25 18l-48 120h-307l-47 -120q-7 -18 -25 -18h-110q-22 0 -13 21zM364 550l-107 -283h212zM376 856q-55 1 -93 37.5t-38 83.5q0 8 5.5 13.5t13.5 5.5h53q16 0 16 -16q0 -15 12 -26
t33 -11q19 0 30.5 10.5t11.5 24.5q0 18 15 18h51q23 0 23 -19q0 -48 -39 -84t-94 -37z" />
    <glyph glyph-name="abreve" unicode="&#x103;" horiz-adv-x="594" 
d="M419 27q-1 7 -3 17t-3 16q-22 -33 -50.5 -51.5t-78.5 -18.5h-2q-105 0 -173.5 73t-68.5 181q0 110 67.5 182t174.5 72q48 0 77.5 -18t57.5 -53l10 38q4 17 9 22.5t19 5.5l56 -2q12 0 20.5 -7.5t8.5 -19.5v-439q0 -11 -8.5 -18t-20.5 -7h-64q-23 0 -28 27zM170 243
q0 -56 33.5 -94t86.5 -38q55 0 88 37t33 94t-33 95.5t-88 38.5q-53 0 -86.5 -38.5t-33.5 -94.5zM281 604q-55 1 -93 37.5t-38 83.5q0 8 5.5 13.5t13.5 5.5h53q16 0 16 -16q0 -15 12 -26t33 -11q19 0 30.5 10.5t11.5 24.5q0 18 15 18h51q23 0 23 -19q0 -48 -39 -84t-94 -37z
" />
    <glyph glyph-name="Aogonek" unicode="&#x104;" horiz-adv-x="716" 
d="M15 21l282 702q9 19 25 19h84q18 0 25 -19l282 -702q4 -10 0 -15.5t-14 -5.5h-109q-18 0 -25 18l-48 120h-307l-47 -120q-7 -18 -25 -18h-110q-22 0 -13 21zM364 550l-107 -283h212zM678 -259h-3q-86 26 -118 57t-32 71q0 25 17.5 46t38.5 33.5t38.5 29.5t17.5 34h84v-21
q0 -20 -16.5 -38t-36 -29t-36 -25.5t-16.5 -29.5q0 -30 88 -53l5 -1q1 -1 4 -3l1 -2q2 -4 2 -9q0 -13 -9.5 -34.5t-21.5 -24.5q-2 -1 -5 -1h-2z" />
    <glyph glyph-name="aogonek" unicode="&#x105;" horiz-adv-x="594" 
d="M419 27q-1 7 -3 17t-3 16q-22 -33 -50.5 -51.5t-78.5 -18.5h-2q-105 0 -173.5 73t-68.5 181q0 110 67.5 182t174.5 72q48 0 77.5 -18t57.5 -53l10 38q4 17 9 22.5t19 5.5l56 -2q12 0 20.5 -7.5t8.5 -19.5v-439q0 -11 -8.5 -18t-20.5 -7h-64q-23 0 -28 27zM170 243
q0 -56 33.5 -94t86.5 -38q55 0 88 37t33 94t-33 95.5t-88 38.5q-53 0 -86.5 -38.5t-33.5 -94.5zM474 -256h-3q-86 26 -118 57t-32 71q0 25 17.5 46t38.5 33.5t38.5 29.5t17.5 34h84v-21q0 -20 -16.5 -38t-36 -29t-36 -25.5t-16.5 -29.5q0 -30 88 -53l5 -1q1 -1 4 -3l1 -2
q2 -4 2 -9q0 -13 -9.5 -34.5t-21.5 -24.5q-2 -1 -5 -1h-2z" />
    <glyph glyph-name="Cacute" unicode="&#x106;" horiz-adv-x="705" 
d="M568 173q20 15 32 0l50 -85q13 -16 -5 -29q-93 -70 -217 -70q-159 0 -271.5 112t-112.5 271t112.5 270t271.5 111q123 0 218 -69q14 -12 6 -25l-53 -90q-9 -12 -28 -1q-75 46 -143 46q-101 0 -168.5 -70t-67.5 -172t68 -174t168 -72q79 0 140 47zM506 859l46 105
q5 11 5 19q0 10 -14 10h-75q-16 0 -27 -21l-44 -102q-5 -15 -5 -19q0 -13 16 -13h72q18 0 26 21z" />
    <glyph glyph-name="cacute" unicode="&#x107;" horiz-adv-x="511" 
d="M292 114q40 1 98 28q10 5 14 5q7 0 15 -11l43 -62q4 -8 4 -11q0 -11 -17 -23q-77 -51 -154 -51q-106 0 -181 74.5t-75 180.5t75 181.5t181 75.5q73 0 149 -49h-1q18 -11 18 -25q0 -8 -3 -11l-39 -67q-6 -10 -16 -10q-4 0 -16 7q-40 31 -91 31q-55 0 -93 -40t-38 -95
q0 -56 36 -92t91 -36zM337 608l46 105q5 11 5 19q0 10 -14 10h-75q-16 0 -27 -21l-44 -102q-5 -15 -5 -19q0 -13 16 -13h72q18 0 26 21z" />
    <glyph glyph-name="Ccircumflex" unicode="&#x108;" horiz-adv-x="705" 
d="M568 173q20 15 32 0l50 -85q13 -16 -5 -29q-93 -70 -217 -70q-159 0 -271.5 112t-112.5 271t112.5 270t271.5 111q123 0 218 -69q14 -12 6 -25l-53 -90q-9 -12 -28 -1q-75 46 -143 46q-101 0 -168.5 -70t-67.5 -172t68 -174t168 -72q79 0 140 47zM403 1028l-134 -135
q-4 -3 -6 -8q0 -10 6 -15l27 -27q18 -15 23 -15q10 0 17 9l78 77l76 -77q10 -10 17 -10q5 0 24 16l28 28q5 5 5 10q0 7 -5 12l-135 135q-5 5 -10 5q-6 0 -11 -5z" />
    <glyph glyph-name="ccircumflex" unicode="&#x109;" horiz-adv-x="511" 
d="M292 114q40 1 98 28q10 5 14 5q7 0 15 -11l43 -62q4 -8 4 -11q0 -11 -17 -23q-77 -51 -154 -51q-106 0 -181 74.5t-75 180.5t75 181.5t181 75.5q73 0 149 -49h-1q18 -11 18 -25q0 -8 -3 -11l-39 -67q-6 -10 -16 -10q-4 0 -16 7q-40 31 -91 31q-55 0 -93 -40t-38 -95
q0 -56 36 -92t91 -36zM286 758l-134 -135q-4 -3 -6 -8q0 -10 6 -15l27 -27q18 -15 23 -15q10 0 17 9l78 77l76 -77q10 -10 17 -10q5 0 24 16l28 28q5 5 5 10q0 7 -5 12l-135 135q-5 5 -10 5q-6 0 -11 -5z" />
    <glyph glyph-name="Cdotaccent" unicode="&#x10a;" horiz-adv-x="705" 
d="M568 173q20 15 32 0l50 -85q13 -16 -5 -29q-93 -70 -217 -70q-159 0 -271.5 112t-112.5 271t112.5 270t271.5 111q123 0 218 -69q14 -12 6 -25l-53 -90q-9 -12 -28 -1q-75 46 -143 46q-101 0 -168.5 -70t-67.5 -172t68 -174t168 -72q79 0 140 47zM355 885q0 -29 20.5 -50
t49.5 -21q30 0 50.5 20.5t20.5 50.5t-20.5 50.5t-50.5 20.5q-29 0 -49.5 -21t-20.5 -50z" />
    <glyph glyph-name="cdotaccent" unicode="&#x10b;" horiz-adv-x="511" 
d="M292 114q40 1 98 28q10 5 14 5q7 0 15 -11l43 -62q4 -8 4 -11q0 -11 -17 -23q-77 -51 -154 -51q-106 0 -181 74.5t-75 180.5t75 181.5t181 75.5q73 0 149 -49h-1q18 -11 18 -25q0 -8 -3 -11l-39 -67q-6 -10 -16 -10q-4 0 -16 7q-40 31 -91 31q-55 0 -93 -40t-38 -95
q0 -56 36 -92t91 -36zM181 655q0 -33 23.5 -57t56.5 -24q34 0 57.5 24t23.5 57q0 34 -23.5 57.5t-57.5 23.5q-33 0 -56.5 -23.5t-23.5 -57.5z" />
    <glyph glyph-name="Ccaron" unicode="&#x10c;" horiz-adv-x="705" 
d="M568 173q20 15 32 0l50 -85q13 -16 -5 -29q-93 -70 -217 -70q-159 0 -271.5 112t-112.5 271t112.5 270t271.5 111q123 0 218 -69q14 -12 6 -25l-53 -90q-9 -12 -28 -1q-75 46 -143 46q-101 0 -168.5 -70t-67.5 -172t68 -174t168 -72q79 0 140 47zM269 958l134 -135
q10 -5 11 -5t11 5l135 135q5 5 5 12q0 3 -6 11l-28 27q-16 16 -23 16q-9 0 -17 -10l-77 -77l-77 77l-9 8q-2 0 -4 1.5t-4 1.5q-5 0 -9 -4l-31 -29l-13 -13q-3 -3 -3 -8q0 -11 5 -13z" />
    <glyph glyph-name="ccaron" unicode="&#x10d;" horiz-adv-x="511" 
d="M292 114q40 1 98 28q10 5 14 5q7 0 15 -11l43 -62q4 -8 4 -11q0 -11 -17 -23q-77 -51 -154 -51q-106 0 -181 74.5t-75 180.5t75 181.5t181 75.5q73 0 149 -49h-1q18 -11 18 -25q0 -8 -3 -11l-39 -67q-6 -10 -16 -10q-4 0 -16 7q-40 31 -91 31q-55 0 -93 -40t-38 -95
q0 -56 36 -92t91 -36zM131 707l134 -135q10 -5 11 -5t11 5l135 135q5 5 5 12q0 3 -6 11l-28 27q-16 16 -23 16q-9 0 -17 -10l-77 -77l-77 77l-9 8q-2 0 -4 1.5t-4 1.5q-5 0 -9 -4l-31 -29l-13 -13q-3 -3 -3 -8q0 -11 5 -13z" />
    <glyph glyph-name="Dcaron" unicode="&#x10e;" horiz-adv-x="745" 
d="M81 20v702q0 20 20 20h239q94 0 180 -48.5t140.5 -135t54.5 -187.5q0 -150 -107.5 -258t-263.5 -113h-243q-20 0 -20 20zM568 371q0 99 -69.5 167.5t-171.5 68.5h-99v-472h99q102 0 171.5 68.5t69.5 167.5zM332 824l-134 135q-5 2 -5 13q0 5 3 8l13 13l31 29q4 4 9 4
q2 0 4 -1.5t4 -1.5l9 -8l77 -77l77 77q8 10 17 10q7 0 23 -16l28 -27q6 -8 6 -11q0 -7 -5 -12l-135 -135q-10 -5 -11 -5t-11 5z" />
    <glyph glyph-name="dcaron" unicode="&#x10f;" horiz-adv-x="579" 
d="M535 717v-692q0 -24 -25 -25h-44q-19 0 -34 3q-5 1 -9 4.5t-6.5 10.5t-3.5 12t-2.5 14.5t-2.5 14.5q-25 -37 -56 -53t-81 -16q-102 0 -167.5 73t-65.5 180q0 108 65 181t170 73q79 0 125 -58v278q0 25 26 25h82q12 0 20.5 -7t8.5 -18zM411 242q0 56 -34 94.5t-86 38.5
q-55 0 -87 -38t-32 -95t32 -94.5t87 -37.5q52 0 85.5 38t34.5 93v1zM543 740q0 31 21.5 53t51.5 22q32 0 53 -22.5t21 -57.5q0 -46 -13 -82.5t-28 -52t-26 -15.5q-3 0 -15 5l-21 16q-6 4 -6 13q0 7 5 12l6 9q10 10 10 28q-24 5 -41.5 26t-17.5 46z" />
    <glyph glyph-name="Dcroat" unicode="&#x110;" horiz-adv-x="740" 
d="M108 423v-117h-71q-26 0 -26 28v65q0 24 26 24h71zM196 306v117h88q25 0 25 -24v-65q0 -10 -7 -19t-18 -9h-88zM81 20v702q0 20 20 20h239q94 0 180 -48.5t140.5 -135t54.5 -187.5q0 -150 -107.5 -258t-263.5 -113h-243q-20 0 -20 20zM568 371q0 99 -69.5 167.5
t-171.5 68.5h-99v-472h99q102 0 171.5 68.5t69.5 167.5z" />
    <glyph glyph-name="dcroat" unicode="&#x111;" horiz-adv-x="579" 
d="M535 717v-692q0 -24 -25 -25h-44q-19 0 -34 3q-5 1 -9 4.5t-6.5 10.5t-3.5 12t-2.5 14.5t-2.5 14.5q-25 -37 -56 -53t-81 -16q-102 0 -167.5 73t-65.5 180q0 108 65 181t170 73q79 0 125 -58v278q0 25 26 25h82q12 0 20.5 -7t8.5 -18zM411 242q0 56 -34 94.5t-86 38.5
q-55 0 -87 -38t-32 -95t32 -94.5t87 -37.5q52 0 85.5 38t34.5 93v1zM306 655h269q23 0 23 -21v-55q0 -8 -7 -15t-16 -7h-269q-21 0 -21 22v55q0 21 21 21z" />
    <glyph glyph-name="Emacron" unicode="&#x112;" horiz-adv-x="642" 
d="M81 20v702q0 20 19 20h489q20 0 20 -20v-97q0 -20 -20 -20h-362v-151h276q22 0 22 -20v-95q0 -20 -22 -20h-276v-183h371q21 0 21 -20v-96q0 -20 -21 -20h-498q-19 0 -19 20zM153 870v50q0 18 17 18h363q18 0 18 -18v-50q0 -7 -5 -13.5t-13 -6.5h-363q-17 0 -17 20z" />
    <glyph glyph-name="emacron" unicode="&#x113;" horiz-adv-x="572" 
d="M296 107q40 -1 84 24q4 2 10 5.5t10 6t8 2.5q9 0 15 -9l37 -59q5 -8 5 -13q0 -10 -16 -24q-68 -52 -150 -52q-105 0 -180 75t-75 181q0 104 74 180.5t175 76.5q97 0 166.5 -67t69.5 -161q0 -41 -7 -57.5t-28 -16.5h-311q4 -41 38.5 -66.5t74.5 -25.5zM183 295h215
q-2 38 -33 65t-75 27q-37 0 -69.5 -27t-37.5 -65zM104 618v50q0 18 17 18h363q18 0 18 -18v-50q0 -7 -5 -13.5t-13 -6.5h-363q-17 0 -17 20z" />
    <glyph glyph-name="Ebreve" unicode="&#x114;" horiz-adv-x="642" 
d="M81 20v702q0 20 19 20h489q20 0 20 -20v-97q0 -20 -20 -20h-362v-151h276q22 0 22 -20v-95q0 -20 -22 -20h-276v-183h371q21 0 21 -20v-96q0 -20 -21 -20h-498q-19 0 -19 20zM356 856q-55 1 -93 37.5t-38 83.5q0 8 5.5 13.5t13.5 5.5h53q16 0 16 -16q0 -15 12 -26t33 -11
q19 0 30.5 10.5t11.5 24.5q0 18 15 18h51q23 0 23 -19q0 -48 -39 -84t-94 -37z" />
    <glyph glyph-name="ebreve" unicode="&#x115;" horiz-adv-x="572" 
d="M296 107q40 -1 84 24q4 2 10 5.5t10 6t8 2.5q9 0 15 -9l37 -59q5 -8 5 -13q0 -10 -16 -24q-68 -52 -150 -52q-105 0 -180 75t-75 181q0 104 74 180.5t175 76.5q97 0 166.5 -67t69.5 -161q0 -41 -7 -57.5t-28 -16.5h-311q4 -41 38.5 -66.5t74.5 -25.5zM183 295h215
q-2 38 -33 65t-75 27q-37 0 -69.5 -27t-37.5 -65zM294 604q-55 1 -93 37.5t-38 83.5q0 8 5.5 13.5t13.5 5.5h53q16 0 16 -16q0 -15 12 -26t33 -11q19 0 30.5 10.5t11.5 24.5q0 18 15 18h51q23 0 23 -19q0 -48 -39 -84t-94 -37z" />
    <glyph glyph-name="Edotaccent" unicode="&#x116;" horiz-adv-x="642" 
d="M81 20v702q0 20 19 20h489q20 0 20 -20v-97q0 -20 -20 -20h-362v-151h276q22 0 22 -20v-95q0 -20 -22 -20h-276v-183h371q21 0 21 -20v-96q0 -20 -21 -20h-498q-19 0 -19 20zM278 896q0 29 20.5 50t49.5 21q30 0 50.5 -20.5t20.5 -50.5t-20.5 -50.5t-50.5 -20.5
q-29 0 -49.5 21t-20.5 50z" />
    <glyph glyph-name="edotaccent" unicode="&#x117;" horiz-adv-x="572" 
d="M296 107q40 -1 84 24q4 2 10 5.5t10 6t8 2.5q9 0 15 -9l37 -59q5 -8 5 -13q0 -10 -16 -24q-68 -52 -150 -52q-105 0 -180 75t-75 181q0 104 74 180.5t175 76.5q97 0 166.5 -67t69.5 -161q0 -41 -7 -57.5t-28 -16.5h-311q4 -41 38.5 -66.5t74.5 -25.5zM183 295h215
q-2 38 -33 65t-75 27q-37 0 -69.5 -27t-37.5 -65zM216 655q0 34 23.5 57.5t56.5 23.5q34 0 57.5 -23.5t23.5 -57.5q0 -33 -23.5 -57t-57.5 -24q-33 0 -56.5 24t-23.5 57z" />
    <glyph glyph-name="Eogonek" unicode="&#x118;" horiz-adv-x="642" 
d="M81 20v702q0 20 19 20h489q20 0 20 -20v-97q0 -20 -20 -20h-362v-151h276q22 0 22 -20v-95q0 -20 -22 -20h-276v-183h371q21 0 21 -20v-96q0 -20 -21 -20h-498q-19 0 -19 20zM574 -253h-3q-86 26 -118 57t-32 71q0 25 17.5 46t38.5 33.5t38.5 29.5t17.5 34h84v-21
q0 -20 -16.5 -38t-36 -29t-36 -25.5t-16.5 -29.5q0 -30 88 -53l5 -1l2 -2t2 -1l1 -2q2 -4 2 -9q0 -13 -9.5 -34.5t-21.5 -24.5q-2 -1 -5 -1h-2z" />
    <glyph glyph-name="eogonek" unicode="&#x119;" horiz-adv-x="572" 
d="M296 107q40 -1 84 24q4 2 10 5.5t10 6t8 2.5q9 0 15 -9l37 -59q5 -8 5 -13q0 -10 -16 -24q-68 -52 -150 -52q-105 0 -180 75t-75 181q0 104 74 180.5t175 76.5q97 0 166.5 -67t69.5 -161q0 -41 -7 -57.5t-28 -16.5h-311q4 -41 38.5 -66.5t74.5 -25.5zM183 295h215
q-2 38 -33 65t-75 27q-37 0 -69.5 -27t-37.5 -65zM326 -265h-3q-86 26 -118 57t-32 71q0 25 17.5 46t38.5 33.5t38.5 29.5t17.5 34h84v-21q0 -20 -16.5 -38t-36 -29t-36 -25.5t-16.5 -29.5q0 -30 88 -53l5 -1l2 -2t2 -1l1 -2q2 -4 2 -9q0 -13 -9.5 -34.5t-21.5 -24.5
q-2 -1 -5 -1h-2z" />
    <glyph glyph-name="Ecaron" unicode="&#x11a;" horiz-adv-x="642" 
d="M81 20v702q0 20 19 20h489q20 0 20 -20v-97q0 -20 -20 -20h-362v-151h276q22 0 22 -20v-95q0 -20 -22 -20h-276v-183h371q21 0 21 -20v-96q0 -20 -21 -20h-498q-19 0 -19 20zM346 824l-134 135q-5 2 -5 13q0 5 3 8l13 13l31 29q4 4 9 4q2 0 4 -1.5t4 -1.5l9 -8l77 -77
l77 77q8 10 17 10q7 0 23 -16l28 -27q6 -8 6 -11q0 -7 -5 -12l-135 -135q-10 -5 -11 -5t-11 5z" />
    <glyph glyph-name="ecaron" unicode="&#x11b;" horiz-adv-x="572" 
d="M296 107q40 -1 84 24q4 2 10 5.5t10 6t8 2.5q9 0 15 -9l37 -59q5 -8 5 -13q0 -10 -16 -24q-68 -52 -150 -52q-105 0 -180 75t-75 181q0 104 74 180.5t175 76.5q97 0 166.5 -67t69.5 -161q0 -41 -7 -57.5t-28 -16.5h-311q4 -41 38.5 -66.5t74.5 -25.5zM183 295h215
q-2 38 -33 65t-75 27q-37 0 -69.5 -27t-37.5 -65zM278 572l-134 135q-5 2 -5 13q0 5 3 8l13 13l31 29q4 4 9 4q2 0 4 -1.5t4 -1.5l9 -8l77 -77l77 77q8 10 17 10q7 0 23 -16l28 -27q6 -8 6 -11q0 -7 -5 -12l-135 -135q-10 -5 -11 -5t-11 5z" />
    <glyph glyph-name="Gcircumflex" unicode="&#x11c;" horiz-adv-x="726" 
d="M428 125q69 0 114 34v153q0 20 20 20h89q19 0 19 -20v-227q0 -13 -10 -22q-107 -73 -232 -73q-159 0 -271.5 112t-112.5 271q0 158 111.5 269t270.5 111q126 0 224 -75q16 -12 5 -26l-59 -85q-12 -14 -28 -3q-66 49 -140 49q-104 0 -173.5 -69t-69.5 -171q0 -103 71 -176
t172 -72zM268 894l134 135q5 5 11 5q5 0 10 -5l135 -135q5 -5 5 -12q0 -5 -5 -10l-28 -28q-19 -16 -24 -16q-7 0 -17 10l-76 77l-78 -77q-7 -9 -17 -9q-6 0 -23 15l-27 27q-6 5 -6 15q2 5 6 8z" />
    <glyph glyph-name="gcircumflex" unicode="&#x11d;" horiz-adv-x="596" 
d="M395 -10q7 24 7 69q-38 -68 -121 -68q-104 0 -172.5 73.5t-68.5 180.5t68.5 179.5t172.5 72.5q76 0 137 -69l9 36q5 16 9.5 21t18.5 5h58q11 0 20.5 -7.5t9.5 -20.5v-423q0 -116 -71.5 -182t-182.5 -66q-47 0 -96.5 14t-80.5 42q-13 9 -13 25q0 12 7 20l40 54
q11 11 20 11t21 -9q31 -29 98 -29q36 0 68.5 19.5t41.5 51.5zM171 243q0 -56 33.5 -94t86.5 -38q55 0 88 37t33 94t-33 95.5t-88 38.5q-53 0 -86.5 -38.5t-33.5 -94.5zM272 767l-134 -135q-4 -3 -6 -8q0 -10 6 -15l27 -27q18 -15 23 -15q10 0 17 9l78 77l76 -77
q10 -10 17 -10q5 0 24 16l28 28q5 5 5 10q0 7 -5 12l-135 135q-5 5 -10 5q-6 0 -11 -5z" />
    <glyph glyph-name="Gbreve" unicode="&#x11e;" horiz-adv-x="726" 
d="M428 125q69 0 114 34v153q0 20 20 20h89q19 0 19 -20v-227q0 -13 -10 -22q-107 -73 -232 -73q-159 0 -271.5 112t-112.5 271q0 158 111.5 269t270.5 111q126 0 224 -75q16 -12 5 -26l-59 -85q-12 -14 -28 -3q-66 49 -140 49q-104 0 -173.5 -69t-69.5 -171q0 -103 71 -176
t172 -72zM417 856q-55 1 -93 37.5t-38 83.5q0 8 5.5 13.5t13.5 5.5h53q16 0 16 -16q0 -15 12 -26t33 -11q19 0 30.5 10.5t11.5 24.5q0 18 15 18h51q23 0 23 -19q0 -48 -39 -84t-94 -37z" />
    <glyph glyph-name="gbreve" unicode="&#x11f;" horiz-adv-x="596" 
d="M395 -10q7 24 7 69q-38 -68 -121 -68q-104 0 -172.5 73.5t-68.5 180.5t68.5 179.5t172.5 72.5q76 0 137 -69l9 36q5 16 9.5 21t18.5 5h58q11 0 20.5 -7.5t9.5 -20.5v-423q0 -116 -71.5 -182t-182.5 -66q-47 0 -96.5 14t-80.5 42q-13 9 -13 25q0 12 7 20l40 54
q11 11 20 11t21 -9q31 -29 98 -29q36 0 68.5 19.5t41.5 51.5zM171 243q0 -56 33.5 -94t86.5 -38q55 0 88 37t33 94t-33 95.5t-88 38.5q-53 0 -86.5 -38.5t-33.5 -94.5zM279 604q55 1 94 37t39 84q0 19 -23 19h-51q-15 0 -15 -18q0 -14 -11.5 -24.5t-30.5 -10.5q-21 0 -33 11
t-12 26q0 16 -16 16h-53q-8 0 -13.5 -5.5t-5.5 -13.5q0 -47 38 -83.5t93 -37.5z" />
    <glyph glyph-name="Gdotaccent" unicode="&#x120;" horiz-adv-x="726" 
d="M428 125q69 0 114 34v153q0 20 20 20h89q19 0 19 -20v-227q0 -13 -10 -22q-107 -73 -232 -73q-159 0 -271.5 112t-112.5 271q0 158 111.5 269t270.5 111q126 0 224 -75q16 -12 5 -26l-59 -85q-12 -14 -28 -3q-66 49 -140 49q-104 0 -173.5 -69t-69.5 -171q0 -103 71 -176
t172 -72zM354 908q0 34 23.5 57.5t56.5 23.5q34 0 57.5 -23.5t23.5 -57.5q0 -33 -23.5 -57t-57.5 -24q-33 0 -56.5 24t-23.5 57z" />
    <glyph glyph-name="gdotaccent" unicode="&#x121;" horiz-adv-x="596" 
d="M395 -10q7 24 7 69q-38 -68 -121 -68q-104 0 -172.5 73.5t-68.5 180.5t68.5 179.5t172.5 72.5q76 0 137 -69l9 36q5 16 9.5 21t18.5 5h58q11 0 20.5 -7.5t9.5 -20.5v-423q0 -116 -71.5 -182t-182.5 -66q-47 0 -96.5 14t-80.5 42q-13 9 -13 25q0 12 7 20l40 54
q11 11 20 11t21 -9q31 -29 98 -29q36 0 68.5 19.5t41.5 51.5zM171 243q0 -56 33.5 -94t86.5 -38q55 0 88 37t33 94t-33 95.5t-88 38.5q-53 0 -86.5 -38.5t-33.5 -94.5zM203 655q0 -33 23.5 -57t56.5 -24q34 0 57.5 24t23.5 57q0 34 -23.5 57.5t-57.5 23.5q-33 0 -56.5 -23.5
t-23.5 -57.5z" />
    <glyph glyph-name="Gcommaaccent" unicode="&#x122;" horiz-adv-x="726" 
d="M428 125q69 0 114 34v153q0 20 20 20h89q19 0 19 -20v-227q0 -13 -10 -22q-107 -73 -232 -73q-159 0 -271.5 112t-112.5 271q0 158 111.5 269t270.5 111q126 0 224 -75q16 -12 5 -26l-59 -85q-12 -14 -28 -3q-66 49 -140 49q-104 0 -173.5 -69t-69.5 -171q0 -103 71 -176
t172 -72zM361 -149q0 33 23 55.5t55 22.5q35 0 57 -23.5t22 -61.5q0 -51 -14 -90.5t-29.5 -56t-27.5 -16.5q-10 0 -25.5 12.5t-15.5 23.5q0 6 11.5 24.5t10.5 26.5v4q-27 5 -47 28t-20 51z" />
    <glyph glyph-name="gcommaaccent" unicode="&#x123;" horiz-adv-x="596" 
d="M395 -10q7 24 7 69q-38 -68 -121 -68q-104 0 -172.5 73.5t-68.5 180.5t68.5 179.5t172.5 72.5q76 0 137 -69l9 36q5 16 9.5 21t18.5 5h58q11 0 20.5 -7.5t9.5 -20.5v-423q0 -116 -71.5 -182t-182.5 -66q-47 0 -96.5 14t-80.5 42q-13 9 -13 25q0 12 7 20l40 54
q11 11 20 11t21 -9q31 -29 98 -29q36 0 68.5 19.5t41.5 51.5zM171 243q0 -56 33.5 -94t86.5 -38q55 0 88 37t33 94t-33 95.5t-88 38.5q-53 0 -86.5 -38.5t-33.5 -94.5zM379 637q0 28 -20 51t-47 28v4q-1 8 10.5 26.5t11.5 24.5q0 11 -15.5 23.5t-25.5 12.5
q-12 0 -27.5 -16.5t-29.5 -56t-14 -90.5q0 -38 22 -61.5t57 -23.5q32 0 55 22.5t23 55.5z" />
    <glyph glyph-name="Hcircumflex" unicode="&#x124;" horiz-adv-x="793" 
d="M560 20v300h-333v-300q0 -20 -22 -20h-105q-19 0 -19 20v701q0 21 19 21h108q19 0 19 -20v-261h333v260q0 21 19 21h108q18 0 18 -20v-702q0 -20 -21 -20h-105q-19 0 -19 20zM242 894l134 135q5 5 11 5q5 0 10 -5l135 -135q5 -5 5 -12q0 -5 -5 -10l-28 -28
q-19 -16 -24 -16q-7 0 -17 10l-76 77l-78 -77q-7 -9 -17 -9q-6 0 -23 15l-27 27q-6 5 -6 15q2 5 6 8z" />
    <glyph glyph-name="hcircumflex" unicode="&#x125;" horiz-adv-x="627" 
d="M212 718v-286q17 26 63 46t92 20q88 0 139.5 -59t54.5 -151q0 -7 1 -11v-252q0 -25 -25 -25h-83q-24 0 -24 24v253q0 40 -27.5 68.5t-67.5 28.5q-41 0 -82 -30t-41 -68v-254q0 -22 -31 -22h-74q-26 0 -26 23v695q0 24 24 24h82q25 0 25 -24zM238 622l134 135q5 5 11 5
q5 0 10 -5l135 -135q5 -5 5 -12q0 -5 -5 -10l-28 -28q-19 -16 -24 -16q-7 0 -17 10l-76 77l-78 -77q-7 -9 -17 -9q-6 0 -23 15l-27 27q-6 5 -6 15q2 5 6 8z" />
    <glyph glyph-name="Hbar" unicode="&#x126;" horiz-adv-x="775" 
d="M229 715v-131h330v131q0 11 7.5 19t19.5 8h92q12 0 20.5 -7t8.5 -19v-689q0 -27 -28 -27h-93q-27 0 -27 27v230h-330v-230q0 -27 -30 -27h-92q-26 0 -26 25v690q0 27 26 27h94q10 0 19 -8t9 -19zM559 387v73h-330v-73h330z" />
    <glyph glyph-name="hbar" unicode="&#x127;" horiz-adv-x="627" 
d="M212 23q0 -23 -31 -23h-74q-26 0 -26 23v525h-58q-22 0 -22 25v53q0 22 22 22h58v70q0 24 24 24h81q26 0 26 -24v-70h62q22 0 22 -22v-53q0 -8 -6.5 -16.5t-15.5 -8.5h-62v-116q22 24 69 45t86 21q88 0 139.5 -59t54.5 -151q1 -18 1 -55v-208q0 -25 -25 -25h-83
q-24 0 -24 24v253q0 18 -7 31q-7 29 -32 47.5t-56 18.5q-39 0 -79.5 -27.5t-43.5 -65.5v-258z" />
    <glyph glyph-name="Itilde" unicode="&#x128;" horiz-adv-x="309" 
d="M81 20v701q0 21 20 21h108q19 0 19 -21v-701q0 -20 -19 -20h-108q-20 0 -20 20zM23 832h-3l-2 -1l-2 1h-2q-47 34 -47 48q0 4 6 12l10 13q39 51 99 51q35 -2 69 -24l27 -18q14 -9 26 -9q22 0 35 14q1 1 7 9.5t11 12.5t10 4t10 -4l37 -35q5 -7 5 -12t-5 -10l-14 -18
q-40 -46 -96 -46q-35 0 -69 24q-42 27 -55 27q-21 0 -35.5 -18.5t-21.5 -20.5z" />
    <glyph glyph-name="itilde" unicode="&#x129;" horiz-adv-x="288" 
d="M207 467v-444q0 -23 -25 -23h-87q-23 0 -23 23v444q0 24 23 24h87q9 0 17 -7t8 -17zM13 580h-3l-2 -1l-2 1h-2q-47 34 -47 48q0 4 6 12l10 13q39 51 99 51q35 -2 69 -24l27 -18q14 -9 26 -9q22 0 35 14q1 1 7 9.5t11 12.5t10 4t10 -4l37 -35q5 -7 5 -12t-5 -10l-14 -18
q-40 -46 -96 -46q-35 0 -69 24q-42 27 -55 27q-21 0 -35.5 -18.5t-21.5 -20.5z" />
    <glyph glyph-name="Imacron" unicode="&#x12a;" horiz-adv-x="309" 
d="M81 20v701q0 21 20 21h108q19 0 19 -21v-701q0 -20 -19 -20h-108q-20 0 -20 20zM-45 870v50q0 18 17 18h363q18 0 18 -18v-50q0 -7 -5 -13.5t-13 -6.5h-363q-17 0 -17 20z" />
    <glyph glyph-name="imacron" unicode="&#x12b;" horiz-adv-x="288" 
d="M207 467v-444q0 -23 -25 -23h-87q-23 0 -23 23v444q0 24 23 24h87q9 0 17 -7t8 -17zM-75 618v50q0 18 17 18h363q18 0 18 -18v-50q0 -7 -5 -13.5t-13 -6.5h-363q-17 0 -17 20z" />
    <glyph glyph-name="Ibreve" unicode="&#x12c;" horiz-adv-x="309" 
d="M81 20v701q0 21 20 21h108q19 0 19 -21v-701q0 -20 -19 -20h-108q-20 0 -20 20zM135 856q-55 1 -93 37.5t-38 83.5q0 8 5.5 13.5t13.5 5.5h53q16 0 16 -16q0 -15 12 -26t33 -11q19 0 30.5 10.5t11.5 24.5q0 18 15 18h51q23 0 23 -19q0 -48 -39 -84t-94 -37z" />
    <glyph glyph-name="ibreve" unicode="&#x12d;" horiz-adv-x="288" 
d="M207 467v-444q0 -23 -25 -23h-87q-23 0 -23 23v444q0 24 23 24h87q9 0 17 -7t8 -17zM125 604q-55 1 -93 37.5t-38 83.5q0 8 5.5 13.5t13.5 5.5h53q16 0 16 -16q0 -15 12 -26t33 -11q19 0 30.5 10.5t11.5 24.5q0 18 15 18h51q23 0 23 -19q0 -48 -39 -84t-94 -37z" />
    <glyph glyph-name="Iogonek" unicode="&#x12e;" horiz-adv-x="309" 
d="M81 20v701q0 21 20 21h108q19 0 19 -21v-701q0 -20 -19 -20h-108q-20 0 -20 20zM151 -266h-3q-86 26 -118 57t-32 71q0 25 17.5 46t38.5 33.5t38.5 29.5t17.5 34h84v-21q0 -20 -16.5 -38t-36 -29t-36 -25.5t-16.5 -29.5q0 -30 88 -53l5 -1l2 -1q2 -1 2 -2l1 -2q2 -4 2 -9
q0 -13 -9.5 -34.5t-21.5 -24.5q-2 -1 -5 -1h-2z" />
    <glyph glyph-name="iogonek" unicode="&#x12f;" horiz-adv-x="309" 
d="M207 467v-444q0 -23 -25 -23h-87q-23 0 -23 23v444q0 24 23 24h87q9 0 17 -7t8 -17zM59 637q0 32 22.5 54.5t54.5 22.5q33 0 55 -22.5t22 -54.5t-22 -54t-55 -22q-32 0 -54.5 22.5t-22.5 53.5zM136 -264h-3q-86 26 -118 57t-32 71q0 25 17.5 46t38.5 33.5t38.5 29.5
t17.5 34h84v-21q0 -20 -16.5 -38t-36 -29t-36 -25.5t-16.5 -29.5q0 -30 88 -53l5 -1q1 0 2 -1l2 -2l1 -2q2 -4 2 -9q0 -13 -9.5 -34.5t-21.5 -24.5q-2 -1 -5 -1h-2z" />
    <glyph glyph-name="Idotaccent" unicode="&#x130;" horiz-adv-x="309" 
d="M81 20v701q0 21 20 21h108q19 0 19 -21v-701q0 -20 -19 -20h-108q-20 0 -20 20zM70 907q0 34 23.5 57.5t56.5 23.5q34 0 57.5 -23.5t23.5 -57.5q0 -33 -23.5 -57t-57.5 -24q-33 0 -56.5 24t-23.5 57z" />
    <glyph glyph-name="dotlessi" unicode="&#x131;" horiz-adv-x="288" 
d="M207 467v-444q0 -23 -25 -23h-87q-23 0 -23 23v444q0 24 23 24h87q9 0 17 -7t8 -17z" />
    <glyph glyph-name="IJ" unicode="&#x132;" horiz-adv-x="599" 
d="M81 20v701q0 21 20 21h106q19 0 19 -21v-701q0 -20 -19 -20h-106q-20 0 -20 20zM384 20v703q0 20 19 20h104q22 0 22 -24v-676q0 -31 -3 -58q-12 -76 -74.5 -129t-143.5 -53q-45 0 -91 19t-74 53q-20 27 -7 39l62 58q4 3 7 5t6.5 2h5.5t5 -2.5t4.5 -3t4.5 -4t4 -3.5
q32 -26 65 -26q34 0 59 24t25 56z" />
    <glyph glyph-name="ij" unicode="&#x133;" horiz-adv-x="548" 
d="M278 -206q-27 0 -27 26v66q0 25 24 25h3q25 2 42.5 21.5t17.5 46.5v486q0 26 27 26h79q12 0 19 -7.5t7 -18.5v-455q0 -31 -2 -45q-7 -75 -60 -122.5t-130 -48.5zM326 637q0 32 22 54.5t54 22.5q33 0 55 -22.5t22 -54.5t-22 -54t-55 -22q-32 0 -54 22.5t-22 53.5zM208 467
v-444q0 -23 -25 -23h-87q-23 0 -23 23v444q0 24 23 24h87q9 0 17 -7t8 -17zM60 637q0 32 22.5 54.5t54.5 22.5q33 0 55 -22.5t22 -54.5t-22 -54t-55 -22q-32 0 -54.5 22.5t-22.5 53.5z" />
    <glyph glyph-name="Jcircumflex" unicode="&#x134;" horiz-adv-x="455" 
d="M171 -11q-100 0 -172 77q-12 12 0 26l59 65q16 18 29 7q1 -1 12 -9.5t17 -12.5t20 -8.5t30 -4.5q29 0 49.5 20t20.5 48v519q0 26 25 26h94q29 0 29 -29v-494q0 -110 -64 -170t-149 -60zM167 894l134 135q5 5 11 5q5 0 10 -5l135 -135q5 -5 5 -12q0 -5 -5 -10l-28 -28
q-19 -16 -24 -16q-7 0 -17 10l-76 77l-78 -77q-7 -9 -17 -9q-5 0 -23 15l-27 27q-6 5 -6 15q2 5 6 8z" />
    <glyph glyph-name="jcircumflex" unicode="&#x135;" horiz-adv-x="282" 
d="M-2 638l134 135q5 5 11 5q5 0 10 -5l135 -135q5 -5 5 -12q0 -5 -5 -10l-28 -28q-19 -16 -24 -16q-7 0 -17 10l-76 77l-78 -77q-7 -9 -17 -9q-5 0 -23 15l-27 27q-6 5 -6 15q2 5 6 8zM11 -204q-27 0 -27 26v64q0 25 25 25h2q25 2 43 21.5t18 46.5v486q0 26 26 26h79
q12 0 19.5 -7.5t7.5 -18.5v-455q0 -17 -2 -45q-7 -75 -60.5 -121.5t-130.5 -47.5z" />
    <glyph glyph-name="Kcommaaccent" unicode="&#x136;" horiz-adv-x="752" 
d="M672 719l-257 -292l309 -404q7 -9 4 -16t-13 -7h-145q-14 0 -27 18l-226 298l-90 -97v-199q0 -20 -19 -20h-108q-19 0 -19 20v702q0 20 19 20h106q7 0 14 -5.5t7 -14.5v-309l277 315q13 14 31 14h129q11 0 13 -8t-5 -15zM297 -120q0 33 23 55.5t55 22.5q35 0 57 -23.5
t22 -61.5q0 -51 -14 -90.5t-29.5 -56t-27.5 -16.5q-10 0 -25.5 12.5t-15.5 23.5q0 6 11.5 24.5t10.5 26.5v4q-27 5 -47 28t-20 51z" />
    <glyph glyph-name="kcommaaccent" unicode="&#x137;" horiz-adv-x="570" 
d="M74 25v688q0 29 22 29h88q25 0 25 -25v-394l138 154q10 11 24 11h118q21 0 21 -16q0 -8 -7 -15l-158 -167l199 -255h-1q10 -10 10 -20q0 -15 -20 -15h-130q-11 0 -25 20l-125 178l-43 -44v-128q0 -26 -23 -26h-88q-25 0 -25 25zM213 -149q0 33 23 55.5t55 22.5
q35 0 57 -23.5t22 -61.5q0 -51 -14 -90.5t-29.5 -56t-27.5 -16.5q-10 0 -25.5 12.5t-15.5 23.5q0 6 11.5 24.5t10.5 26.5v4q-27 5 -47 28t-20 51z" />
    <glyph glyph-name="kgreenlandic" unicode="&#x138;" horiz-adv-x="570" 
d="M74 25v436q0 11 1 16t8 9.5t21 4.5h83q25 0 25 -26v-142l138 154q10 11 24 11h118q21 0 21 -16q0 -8 -7 -15l-158 -167l199 -255h-1q10 -10 10 -20q0 -15 -20 -15h-130q-11 0 -25 20l-125 178l-43 -44v-125q0 -9 -6 -19t-20 -10h-88q-8 0 -14.5 6.5t-8.5 11.5t-2 7z" />
    <glyph glyph-name="Lacute" unicode="&#x139;" horiz-adv-x="574" 
d="M81 22v699q0 9 6.5 15.5t16.5 6.5h102q21 0 22 -22v-585h292q9 0 15.5 -6.5t6.5 -16.5v-91q0 -21 -22 -22h-417q-22 0 -22 22zM204 860l46 105q5 11 5 19q0 10 -14 10h-75q-16 0 -27 -21l-44 -102q-5 -15 -5 -19q0 -13 16 -13h72q18 0 26 21z" />
    <glyph glyph-name="lacute" unicode="&#x13a;" horiz-adv-x="282" 
d="M76 22v698q0 22 21 22h93q22 0 22 -22v-698q0 -22 -22 -22h-93q-21 0 -21 22zM251 929l-46 -105q-8 -21 -26 -21h-72q-16 0 -16 13q0 4 5 19l44 102q11 21 27 21h75q14 0 14 -10q0 -8 -5 -19z" />
    <glyph glyph-name="Lcommaaccent" unicode="&#x13b;" horiz-adv-x="574" 
d="M81 22v699q0 9 6.5 15.5t16.5 6.5h102q21 0 22 -22v-585h292q9 0 15.5 -6.5t6.5 -16.5v-91q0 -21 -22 -22h-417q-22 0 -22 22zM242 -149q0 33 23 55.5t55 22.5q35 0 57 -23.5t22 -61.5q0 -51 -14 -90.5t-29.5 -56t-27.5 -16.5q-10 0 -25.5 12.5t-15.5 23.5q0 6 11.5 24.5
t10.5 26.5v4q-27 5 -47 28t-20 51z" />
    <glyph glyph-name="lcommaaccent" unicode="&#x13c;" horiz-adv-x="282" 
d="M75 22v698q0 22 21 22h93q22 0 22 -22v-698q0 -22 -22 -22h-93q-21 0 -21 22zM69 -149q0 33 23 55.5t55 22.5q35 0 57 -23.5t22 -61.5q0 -51 -14 -90.5t-29.5 -56t-27.5 -16.5q-10 0 -25.5 12.5t-15.5 23.5q0 6 11.5 24.5t10.5 26.5v4q-27 5 -47 28t-20 51z" />
    <glyph glyph-name="Lcaron" unicode="&#x13d;" horiz-adv-x="574" 
d="M81 22v699q0 9 6.5 15.5t16.5 6.5h102q21 0 22 -22v-585h292q9 0 15.5 -6.5t6.5 -16.5v-91q0 -21 -22 -22h-417q-22 0 -22 22zM320 712q0 -28 19.5 -52t46.5 -29q0 -17 -11 -31l-7 -10q-5 -5 -5 -13q0 -9 6 -14l24 -18q10 -6 17 -6q12 0 28.5 17.5t31.5 58t15 91.5
q0 39 -23.5 64t-59.5 25q-34 0 -58 -24t-24 -59z" />
    <glyph glyph-name="lcaron" unicode="&#x13e;" horiz-adv-x="302" 
d="M75 22v698q0 22 21 22h93q22 0 22 -22v-698q0 -22 -22 -22h-93q-21 0 -21 22zM219 753q0 31 21.5 53t51.5 22q33 0 54 -22.5t21 -57.5q0 -46 -13 -82.5t-28 -52t-26 -15.5q-4 0 -16 5l-21 17q-6 3 -6 12q0 7 5 12l6 9q10 10 10 28q-24 5 -41.5 26t-17.5 46z" />
    <glyph glyph-name="Ldot" unicode="&#x13f;" horiz-adv-x="574" 
d="M81 22v699q0 9 6.5 15.5t16.5 6.5h102q21 0 22 -22v-585h292q9 0 15.5 -6.5t6.5 -16.5v-91q0 -21 -22 -22h-417q-22 0 -22 22zM330 372q0 34 23.5 57.5t56.5 23.5q35 0 58 -23t23 -58q0 -33 -23 -56.5t-58 -23.5q-33 0 -56.5 23.5t-23.5 56.5z" />
    <glyph glyph-name="ldot" unicode="&#x140;" horiz-adv-x="342" 
d="M72 22v698q0 22 21 22h93q22 0 22 -22v-698q0 -22 -22 -22h-93q-21 0 -21 22zM234 352q0 34 23.5 57.5t56.5 23.5q35 0 58 -23t23 -58q0 -33 -23 -56.5t-58 -23.5q-33 0 -56.5 23.5t-23.5 56.5z" />
    <glyph glyph-name="Lslash" unicode="&#x141;" horiz-adv-x="679" 
d="M334 137h288q11 0 18.5 -7.5t7.5 -19.5v-83q0 -11 -7.5 -19t-18.5 -8h-415q-26 0 -26 27v275l-24 -9l-30 -11q-4 -2 -9 -2t-8 1t-5.5 4.5t-3.5 6t-3.5 9t-4.5 10.5l-2 5q-10 22 -10 32q0 15 15 20q17 7 48.5 18.5t36.5 13.5v316q0 11 7.5 19t19.5 8h99q12 0 19.5 -7.5
t7.5 -19.5v-263q14 5 40 14.5t40 13.5l1 1h2q12 -2 18 -14l5 -12q13 -30 13 -42q0 -11 -15 -20l-52 -19q-9 -3 -26 -10t-26 -10v-218z" />
    <glyph glyph-name="lslash" unicode="&#x142;" horiz-adv-x="282" 
d="M10 388l64 23v302q0 29 28 29h80q10 0 19.5 -8.5t9.5 -20.5v-254l60 21h2q2 1 3 1q7 0 9 -10l1 -57q0 -15 -15 -20l-60 -21v-346q0 -27 -29 -27h-80q-28 0 -28 27v297l-64 -22q-4 -2 -7 -2q-9 0 -9 12l-1 56q2 14 17 20z" />
    <glyph glyph-name="Nacute" unicode="&#x143;" horiz-adv-x="793" 
d="M81 22v698q0 22 22 22h117q22 0 29 -15l329 -473v473q5 15 22 15h101q8 0 16 -6.5t8 -15.5v-698q0 -22 -24 -22h-99q-15 0 -29 16l-347 500v-494q1 -22 -22 -22h-101q-22 0 -22 22zM477 860l46 105q5 11 5 19q0 10 -14 10h-75q-16 0 -27 -21l-44 -102q-5 -15 -5 -19
q0 -13 16 -13h72q18 0 26 21z" />
    <glyph glyph-name="nacute" unicode="&#x144;" horiz-adv-x="627" 
d="M165 491q12 0 19 -3t11.5 -10t6 -13t4 -18.5t4.5 -19.5q25 29 65 49.5t85 20.5q91 0 143 -55t52 -143v-275q0 -24 -24 -24h-92q-15 0 -19 4.5t-4 18.5v253q0 40 -26 65t-65 25q-34 0 -67 -26t-38 -61v-257q0 -13 -5 -17.5t-20 -4.5h-90q-15 0 -19.5 5t-4.5 17v439
q0 30 30 30h54zM415 710l-46 -105q-8 -21 -26 -21h-72q-16 0 -16 13q0 4 5 19l44 102q11 21 27 21h75q14 0 14 -10q0 -8 -5 -19z" />
    <glyph glyph-name="Ncommaaccent" unicode="&#x145;" horiz-adv-x="793" 
d="M81 22v698q0 22 22 22h117q22 0 29 -15l329 -473v473q5 15 22 15h101q8 0 16 -6.5t8 -15.5v-698q0 -22 -24 -22h-99q-15 0 -29 16l-347 500v-494q1 -22 -22 -22h-101q-22 0 -22 22zM329 -149q0 33 23 55.5t55 22.5q35 0 57 -23.5t22 -61.5q0 -51 -14 -90.5t-29.5 -56
t-27.5 -16.5q-10 0 -25.5 12.5t-15.5 23.5q0 6 11.5 24.5t10.5 26.5v4q-27 5 -47 28t-20 51z" />
    <glyph glyph-name="ncommaaccent" unicode="&#x146;" horiz-adv-x="627" 
d="M165 491q12 0 19 -3t11.5 -10t6 -13t4 -18.5t4.5 -19.5q25 29 65 49.5t85 20.5q91 0 143 -55t52 -143v-275q0 -24 -24 -24h-92q-15 0 -19 4.5t-4 18.5v253q0 40 -26 65t-65 25q-34 0 -67 -26t-38 -61v-257q0 -13 -5 -17.5t-20 -4.5h-90q-15 0 -19.5 5t-4.5 17v439
q0 30 30 30h54zM240 -149q0 33 23 55.5t55 22.5q35 0 57 -23.5t22 -61.5q0 -51 -14 -90.5t-29.5 -56t-27.5 -16.5q-10 0 -25.5 12.5t-15.5 23.5q0 6 11.5 24.5t10.5 26.5v4q-27 5 -47 28t-20 51z" />
    <glyph glyph-name="Ncaron" unicode="&#x147;" horiz-adv-x="793" 
d="M81 22v698q0 22 22 22h117q22 0 29 -15l329 -473v473q5 15 22 15h101q8 0 16 -6.5t8 -15.5v-698q0 -22 -24 -22h-99q-15 0 -29 16l-347 500v-494q1 -22 -22 -22h-101q-22 0 -22 22zM253 959l134 -135q10 -5 11 -5t11 5l135 135q5 5 5 12q0 3 -6 11l-28 27q-16 16 -23 16
q-9 0 -17 -10l-77 -77l-77 77l-9 8q-2 0 -4 1.5t-4 1.5q-5 0 -9 -4l-31 -29l-13 -13q-3 -3 -3 -8q0 -11 5 -13z" />
    <glyph glyph-name="ncaron" unicode="&#x148;" horiz-adv-x="627" 
d="M165 491q12 0 19 -3t11.5 -10t6 -13t4 -18.5t4.5 -19.5q25 29 65 49.5t85 20.5q91 0 143 -55t52 -143v-275q0 -24 -24 -24h-92q-15 0 -19 4.5t-4 18.5v253q0 40 -26 65t-65 25q-34 0 -67 -26t-38 -61v-257q0 -13 -5 -17.5t-20 -4.5h-90q-15 0 -19.5 5t-4.5 17v439
q0 30 30 30h54zM316 572l-134 135q-5 2 -5 13q0 5 3 8l13 13l31 29q4 4 9 4q2 0 4 -1.5t4 -1.5l9 -8l77 -77l77 77q8 10 17 10q7 0 23 -16l28 -27q6 -8 6 -11q0 -7 -5 -12l-135 -135q-10 -5 -11 -5t-11 5z" />
    <glyph glyph-name="napostrophe" unicode="&#x149;" horiz-adv-x="592" 
d="M156 491q12 0 19 -3t11.5 -10t6 -13t4 -18.5t4.5 -19.5q25 29 65 49.5t85 20.5q91 0 143 -55t52 -143v-275q0 -24 -24 -24h-92q-15 0 -19 4.5t-4 18.5v253q0 40 -26 65t-65 25q-34 0 -67 -26t-38 -61v-257q0 -13 -5 -17.5t-20 -4.5h-90q-14 0 -19 5t-5 17v439q0 30 30 30
h54zM-27 666q0 33 23 55.5t55 22.5q35 0 57 -23.5t22 -61.5q0 -51 -14 -90.5t-29.5 -56t-27.5 -16.5q-10 0 -25.5 12.5t-15.5 23.5q0 6 11.5 24.5t10.5 26.5v4q-27 5 -47 28t-20 51z" />
    <glyph glyph-name="Eng" unicode="&#x14a;" horiz-adv-x="793" 
d="M81 20v703q0 19 19 19h117q17 0 30 -18l335 -483v482q2 19 20 19h100q8 0 14.5 -5t6.5 -14v-721q0 -88 -64.5 -153t-157.5 -65q-101 0 -164 70l-5 6q-6 6 -8 8.5t-1.5 8.5t6.5 12l64 63q4 5 8 7t6.5 2t6 -1.5t5.5 -3t5.5 -5l4.5 -4.5q29 -25 65 -25q34 0 58 23.5t25 54.5
v7l-355 519v-506q0 -20 -22 -20h-100q-19 0 -19 20z" />
    <glyph glyph-name="eng" unicode="&#x14b;" horiz-adv-x="627" 
d="M165 491q12 0 19 -3t11.5 -10t6 -13t4 -18.5t4.5 -19.5q60 70 145 70q91 0 143 -55t52 -143v-325q0 -79 -54.5 -126t-137.5 -47q-31 0 -31 32v68q0 30 26 30q58 0 58 56v289q0 40 -26 65t-65 25q-33 0 -64 -26t-36 -61v-252q0 -27 -30 -27h-80q-29 0 -29 27v434
q0 30 30 30h54z" />
    <glyph glyph-name="Omacron" unicode="&#x14c;" horiz-adv-x="853" 
d="M807 371q0 -158 -112.5 -269.5t-270.5 -111.5t-269 111.5t-111 269.5q0 159 111 270.5t269 111.5q159 0 271 -111.5t112 -270.5zM660 371q0 102 -67.5 172t-168.5 70q-100 0 -167 -70t-67 -172q0 -101 67 -171t167 -70q101 0 168.5 70t67.5 171zM233 910v-50
q0 -20 17 -20h363q8 0 13 6.5t5 13.5v50q0 18 -18 18h-363q-17 0 -17 -18z" />
    <glyph glyph-name="omacron" unicode="&#x14d;" horiz-adv-x="578" 
d="M30 244q0 107 75.5 182t183.5 75q107 0 183 -75.5t76 -181.5t-76 -180.5t-183 -74.5q-108 0 -183.5 74.5t-75.5 180.5zM163 243q0 -54 36.5 -92t89.5 -38t90 38t37 92t-37 92.5t-90 38.5t-89.5 -38.5t-36.5 -92.5zM89 618v50q0 18 17 18h363q18 0 18 -18v-50
q0 -7 -5 -13.5t-13 -6.5h-363q-17 0 -17 20z" />
    <glyph glyph-name="Obreve" unicode="&#x14e;" horiz-adv-x="853" 
d="M807 371q0 -158 -112.5 -269.5t-270.5 -111.5t-269 111.5t-111 269.5q0 159 111 270.5t269 111.5q159 0 271 -111.5t112 -270.5zM660 371q0 102 -67.5 172t-168.5 70q-100 0 -167 -70t-67 -172q0 -101 67 -171t167 -70q101 0 168.5 70t67.5 171zM433 856q55 1 94 37
t39 84q0 19 -23 19h-51q-15 0 -15 -18q0 -14 -11.5 -24.5t-30.5 -10.5q-21 0 -33 11t-12 26q0 16 -16 16h-53q-8 0 -13.5 -5.5t-5.5 -13.5q0 -47 38 -83.5t93 -37.5z" />
    <glyph glyph-name="obreve" unicode="&#x14f;" horiz-adv-x="578" 
d="M30 244q0 107 75.5 182t183.5 75q107 0 183 -75.5t76 -181.5t-76 -180.5t-183 -74.5q-108 0 -183.5 74.5t-75.5 180.5zM163 243q0 -54 36.5 -92t89.5 -38t90 38t37 92t-37 92.5t-90 38.5t-89.5 -38.5t-36.5 -92.5zM283 604q-55 1 -93 37.5t-38 83.5q0 8 5.5 13.5
t13.5 5.5h53q16 0 16 -16q0 -15 12 -26t33 -11q19 0 30.5 10.5t11.5 24.5q0 18 15 18h51q23 0 23 -19q0 -48 -39 -84t-94 -37z" />
    <glyph glyph-name="Ohungarumlaut" unicode="&#x150;" horiz-adv-x="853" 
d="M807 371q0 -158 -112.5 -269.5t-270.5 -111.5t-269 111.5t-111 269.5q0 159 111 270.5t269 111.5q159 0 271 -111.5t112 -270.5zM660 371q0 102 -67.5 172t-168.5 70q-100 0 -167 -70t-67 -172q0 -101 67 -171t167 -70q101 0 168.5 70t67.5 171zM626 860l46 105q4 7 4 18
t-13 11h-79q-16 0 -27 -21l-44 -102q-3 -4 -6 -18q0 -14 17 -14h76q18 0 26 21zM425 860l45 105q5 7 5 18t-13 11h-80q-16 0 -27 -21l-44 -102q-1 -2 -5 -18q0 -14 16 -14h76q17 0 27 21z" />
    <glyph glyph-name="ohungarumlaut" unicode="&#x151;" horiz-adv-x="578" 
d="M30 244q0 107 75.5 182t183.5 75q107 0 183 -75.5t76 -181.5t-76 -180.5t-183 -74.5q-108 0 -183.5 74.5t-75.5 180.5zM163 243q0 -54 36.5 -92t89.5 -38t90 38t37 92t-37 92.5t-90 38.5t-89.5 -38.5t-36.5 -92.5zM498 713l-46 -105q-8 -21 -26 -21h-76q-17 0 -17 14
q3 14 6 18l44 102q11 21 27 21h79q13 0 13 -11t-4 -18zM296 713l-45 -105q-10 -21 -27 -21h-76q-16 0 -16 14q4 16 5 18l44 102q11 21 27 21h80q13 0 13 -11t-5 -18z" />
    <glyph glyph-name="OE" unicode="&#x152;" horiz-adv-x="1253" 
d="M650 19v51q-103 -79 -234 -79q-159 0 -270.5 111.5t-111.5 269.5q0 159 111.5 271t270.5 112q130 0 234 -80v42q0 24 22 24h482q24 0 24 -26v-88q0 -9 -7 -16t-18 -7h-356v-152h274q10 1 16 -4.5t6 -17.5v-90q0 -23 -21 -23h-275v-182h369q23 0 23 -25v-91q0 -21 -22 -21
h-495q-22 0 -22 21zM182 372q0 -102 66 -172.5t167 -70.5q100 0 166.5 70.5t66.5 172.5q0 103 -66.5 174t-166.5 71q-101 0 -167 -71t-66 -174z" />
    <glyph glyph-name="oe" unicode="&#x153;" horiz-adv-x="929" 
d="M545 297h208q-7 36 -36.5 60t-68.5 24q-37 0 -66 -22.5t-37 -61.5zM653 107q49 0 90 32q18 10 24 10q12 0 20 -12l37 -50q7 -8 7 -18q0 -14 -18 -27q-67 -52 -159 -52q-105 0 -177 77q-73 -76 -180 -76q-106 0 -179.5 73.5t-73.5 179.5t73.5 179t179.5 73q105 0 179 -74
q70 76 172 76q96 0 164.5 -68.5t68.5 -166.5v-3q0 -36 -17 -49.5t-56 -13.5h-264l-1 -6q12 -38 43 -61t67 -23zM167 243q0 -54 36 -92t90 -38q53 0 89.5 38t36.5 92t-36.5 92.5t-89.5 38.5t-89.5 -38.5t-36.5 -92.5z" />
    <glyph glyph-name="Racute" unicode="&#x154;" horiz-adv-x="671" 
d="M81 20v702q0 20 19 20h318q100 0 167.5 -73.5t67.5 -170.5q0 -62 -34.5 -118t-91.5 -89l136 -270q4 -7 0 -14t-13 -7h-129q-15 0 -23 17l-119 240h-152v-237q0 -20 -20 -20h-107q-19 0 -19 20zM383 613h-156v-224h156q52 0 86.5 31.5t34.5 80.5q0 47 -34.5 79.5
t-86.5 32.5zM422 965l-46 -105q-8 -21 -26 -21h-72q-16 0 -16 13q0 4 5 19l44 102q11 21 27 21h75q14 0 14 -10q0 -8 -5 -19z" />
    <glyph glyph-name="racute" unicode="&#x155;" horiz-adv-x="474" 
d="M336 712l-46 -105q-8 -21 -26 -21h-72q-16 0 -16 13q0 4 5 19l44 102q11 21 27 21h75q14 0 14 -10q0 -8 -5 -19zM189 463q1 -3 5 -19l5 -20q55 73 125 73q13 0 19 -1q30 -3 67 -22.5t37 -35.5q0 -6 -5 -14l-40 -65q-9 -14 -21 -14q-5 0 -29 12q-26 18 -49 18
q-42 0 -68 -30t-26 -67v-253q0 -25 -27 -25h-83q-26 0 -26 25v438q0 12 8 19t18 7h64q18 0 26 -26z" />
    <glyph glyph-name="Rcommaaccent" unicode="&#x156;" horiz-adv-x="687" 
d="M81 20v702q0 20 19 20h318q100 0 167.5 -73.5t67.5 -170.5q0 -62 -34.5 -118t-91.5 -89l136 -270q4 -7 0 -14t-13 -7h-129q-15 0 -23 17l-119 240h-152v-237q0 -20 -20 -20h-107q-19 0 -19 20zM383 613h-156v-224h156q52 0 86.5 31.5t34.5 80.5q0 47 -34.5 79.5
t-86.5 32.5zM270 -119q0 33 23 55.5t55 22.5q35 0 57 -23.5t22 -61.5q0 -51 -14 -90.5t-29.5 -56t-27.5 -16.5q-10 0 -25.5 12.5t-15.5 23.5q0 6 11.5 24.5t10.5 26.5v4q-27 5 -47 28t-20 51z" />
    <glyph glyph-name="rcommaaccent" unicode="&#x157;" horiz-adv-x="474" 
d="M204 463q0 -3 5 -19t5 -20q55 73 125 73q13 0 19 -1q30 -3 67 -22.5t37 -35.5q0 -6 -5 -14l-40 -65q-9 -14 -21 -14q-5 0 -29 12q-26 18 -49 18q-42 0 -68 -30t-26 -67v-253q0 -25 -27 -25h-83q-26 0 -26 25v438q0 12 8 19t18 7h64q18 0 26 -26zM73 -149q0 33 23 55.5
t55 22.5q35 0 57 -23.5t22 -61.5q0 -51 -14 -90.5t-29.5 -56t-27.5 -16.5q-10 0 -25.5 12.5t-15.5 23.5q0 6 11.5 24.5t10.5 26.5v4q-27 5 -47 28t-20 51z" />
    <glyph glyph-name="Rcaron" unicode="&#x158;" horiz-adv-x="671" 
d="M81 20v702q0 20 19 20h318q100 0 167.5 -73.5t67.5 -170.5q0 -62 -34.5 -118t-91.5 -89l136 -270q4 -7 0 -14t-13 -7h-129q-15 0 -23 17l-119 240h-152v-237q0 -20 -20 -20h-107q-19 0 -19 20zM383 613h-156v-224h156q52 0 86.5 31.5t34.5 80.5q0 47 -34.5 79.5
t-86.5 32.5zM316 824l-134 135q-5 2 -5 13q0 5 3 8l13 13l31 29q4 4 9 4q2 0 4 -1.5t4 -1.5l9 -8l77 -77l77 77q8 10 17 10q7 0 23 -16l28 -27q6 -8 6 -11q0 -7 -5 -12l-135 -135q-10 -5 -11 -5t-11 5z" />
    <glyph glyph-name="rcaron" unicode="&#x159;" horiz-adv-x="474" 
d="M189 463q1 -3 5 -19l5 -20q55 73 125 73q13 0 19 -1q30 -3 67 -22.5t37 -35.5q0 -6 -5 -14l-40 -65q-9 -14 -21 -14q-5 0 -29 12q-26 18 -49 18q-42 0 -68 -30t-26 -67v-253q0 -25 -27 -25h-83q-26 0 -26 25v438q0 12 8 19t18 7h64q18 0 26 -26zM224 572l-134 135
q-5 2 -5 13q0 5 3 8l13 13l31 29q4 4 9 4q2 0 4 -1.5t4 -1.5l9 -8l77 -77l77 77q8 10 17 10q7 0 23 -16l28 -27q6 -8 6 -11q0 -7 -5 -12l-135 -135q-10 -5 -11 -5t-11 5z" />
    <glyph glyph-name="Sacute" unicode="&#x15a;" horiz-adv-x="641" 
d="M65 113q-21 22 -5 38l67 66q14 13 35 -5q86 -86 173 -86q57 0 91.5 29t34.5 68q0 23 -13 40t-39 29t-42 17.5t-46 13.5q-126 37 -187 90t-61 136q0 92 74.5 149.5t195.5 57.5q62 0 123.5 -29.5t108.5 -77.5q18 -19 -1 -39l-55 -59q-14 -13 -38 6q-82 69 -143 69
q-115 0 -115 -80q0 -35 34.5 -54.5t110.5 -40.5q57 -17 96.5 -34.5t77 -44t56 -65t18.5 -88.5q0 -101 -82.5 -165t-195.5 -64q-76 0 -149 33.5t-124 89.5zM448 965l-46 -105q-8 -21 -26 -21h-72q-16 0 -16 13q0 4 5 19l44 102q11 21 27 21h75q14 0 14 -10q0 -8 -5 -19z" />
    <glyph glyph-name="sacute" unicode="&#x15b;" horiz-adv-x="446" 
d="M24 85q-2 3 -2 10q0 9 7 14l61 49q3 5 11 5q5 0 16 -7q2 -2 12.5 -11t15 -12.5t15 -11t18 -10.5t17.5 -6t20 -3q59 0 59 48q0 32 -75 53q-87 23 -126 60t-39 95q0 59 52 100.5t135 41.5q93 0 160 -60q18 -18 18 -30q0 -9 -35 -37t-43 -28t-17 9q-42 35 -81 35
q-52 0 -52 -33q0 -17 18 -27t59 -23q85 -28 127 -64t42 -98q0 -73 -58.5 -114.5t-142.5 -41.5q-109 0 -177 73q-11 13 -15 24zM294 607l46 105q5 11 5 19q0 10 -14 10h-75q-16 0 -27 -21l-44 -102q-5 -15 -5 -19q0 -13 16 -13h72q18 0 26 21z" />
    <glyph glyph-name="Scircumflex" unicode="&#x15c;" horiz-adv-x="641" 
d="M65 113q-21 22 -5 38l67 66q14 13 35 -5q86 -86 173 -86q57 0 91.5 29t34.5 68q0 23 -13 40t-39 29t-42 17.5t-46 13.5q-126 37 -187 90t-61 136q0 92 74.5 149.5t195.5 57.5q62 0 123.5 -29.5t108.5 -77.5q18 -19 -1 -39l-55 -59q-14 -13 -38 6q-82 69 -143 69
q-115 0 -115 -80q0 -35 34.5 -54.5t110.5 -40.5q57 -17 96.5 -34.5t77 -44t56 -65t18.5 -88.5q0 -101 -82.5 -165t-195.5 -64q-76 0 -149 33.5t-124 89.5zM177 894l134 135q5 5 11 5q5 0 10 -5l135 -135q5 -5 5 -12q0 -5 -5 -10l-28 -28q-19 -16 -24 -16q-7 0 -17 10l-76 77
l-78 -77q-7 -9 -17 -9q-5 0 -23 15l-27 27q-6 5 -6 15q2 5 6 8z" />
    <glyph glyph-name="scircumflex" unicode="&#x15d;" horiz-adv-x="446" 
d="M24 85q-2 3 -2 10q0 9 7 14l61 49q3 5 11 5q5 0 16 -7q2 -2 12.5 -11t15 -12.5t15 -11t18 -10.5t17.5 -6t20 -3q59 0 59 48q0 32 -75 53q-87 23 -126 60t-39 95q0 59 52 100.5t135 41.5q93 0 160 -60q18 -18 18 -30q0 -9 -35 -37t-43 -28t-17 9q-42 35 -81 35
q-52 0 -52 -33q0 -17 18 -27t59 -23q85 -28 127 -64t42 -98q0 -73 -58.5 -114.5t-142.5 -41.5q-109 0 -177 73q-11 13 -15 24zM213 777l-134 -135q-4 -3 -6 -8q0 -10 6 -15l27 -27q18 -15 23 -15q10 0 17 9l78 77l76 -77q10 -10 17 -10q5 0 24 16l28 28q5 5 5 10q0 7 -5 12
l-135 135q-5 5 -10 5q-6 0 -11 -5z" />
    <glyph glyph-name="Scedilla" unicode="&#x15e;" horiz-adv-x="641" 
d="M65 113q-21 22 -5 38l67 66q14 13 35 -5q86 -86 173 -86q57 0 91.5 29t34.5 68q0 23 -13 40t-39 29t-42 17.5t-46 13.5q-126 37 -187 90t-61 136q0 92 74.5 149.5t195.5 57.5q62 0 123.5 -29.5t108.5 -77.5q18 -19 -1 -39l-55 -59q-14 -13 -38 6q-82 69 -143 69
q-115 0 -115 -80q0 -35 34.5 -54.5t110.5 -40.5q57 -17 96.5 -34.5t77 -44t56 -65t18.5 -88.5q0 -101 -82.5 -165t-195.5 -64q-76 0 -149 33.5t-124 89.5zM323 -265h3q86 26 118 57t32 71q0 25 -17.5 46.5t-38.5 34.5t-38.5 29.5t-17.5 32.5h-84v-21q0 -20 16.5 -38t36 -29
t36 -25.5t16.5 -29.5q0 -30 -88 -53l-5 -1q0 -1 -2 -2l-2 -1l-1 -2q-2 -4 -2 -9q0 -13 9.5 -34.5t21.5 -24.5q2 -1 5 -1h2z" />
    <glyph glyph-name="scedilla" unicode="&#x15f;" horiz-adv-x="446" 
d="M24 85q-2 3 -2 10q0 9 7 14l61 49q3 5 11 5q5 0 16 -7q2 -2 12.5 -11t15 -12.5t15 -11t18 -10.5t17.5 -6t20 -3q59 0 59 48q0 32 -75 53q-87 23 -126 60t-39 95q0 59 52 100.5t135 41.5q93 0 160 -60q18 -18 18 -30q0 -9 -35 -37t-43 -28t-17 9q-42 35 -81 35
q-52 0 -52 -33q0 -17 18 -27t59 -23q85 -28 127 -64t42 -98q0 -73 -58.5 -114.5t-142.5 -41.5q-109 0 -177 73q-11 13 -15 24zM212 -265h-3h-2q-3 0 -5 1q-12 3 -21.5 24.5t-9.5 34.5q0 5 2 9l1 2l2 1q2 1 2 2l5 1q88 23 88 53q0 15 -16.5 29.5t-36 25.5t-36 29t-16.5 38v21
h84q0 -16 17.5 -32.5t38.5 -29.5t38.5 -34.5t17.5 -46.5q0 -40 -32 -71t-118 -57z" />
    <glyph glyph-name="Scaron" unicode="&#x160;" horiz-adv-x="641" 
d="M65 113q-21 22 -5 38l67 66q14 13 35 -5q86 -86 173 -86q57 0 91.5 29t34.5 68q0 23 -13 40t-39 29t-42 17.5t-46 13.5q-126 37 -187 90t-61 136q0 92 74.5 149.5t195.5 57.5q62 0 123.5 -29.5t108.5 -77.5q18 -19 -1 -39l-55 -59q-14 -13 -38 6q-82 69 -143 69
q-115 0 -115 -80q0 -35 34.5 -54.5t110.5 -40.5q57 -17 96.5 -34.5t77 -44t56 -65t18.5 -88.5q0 -101 -82.5 -165t-195.5 -64q-76 0 -149 33.5t-124 89.5zM311 824l-134 135q-5 2 -5 13q0 5 3 8l13 13l31 29q4 4 9 4q2 0 4 -1.5t4 -1.5l9 -8l77 -77l77 77q8 10 17 10
q7 0 23 -16l28 -27q6 -8 6 -11q0 -7 -5 -12l-135 -135q-10 -5 -11 -5t-11 5z" />
    <glyph glyph-name="scaron" unicode="&#x161;" horiz-adv-x="446" 
d="M24 85q-2 3 -2 10q0 9 7 14l61 49q3 5 11 5q5 0 16 -7q2 -2 12.5 -11t15 -12.5t15 -11t18 -10.5t17.5 -6t20 -3q59 0 59 48q0 32 -75 53q-87 23 -126 60t-39 95q0 59 52 100.5t135 41.5q93 0 160 -60q18 -18 18 -30q0 -9 -35 -37t-43 -28t-17 9q-42 35 -81 35
q-52 0 -52 -33q0 -17 18 -27t59 -23q85 -28 127 -64t42 -98q0 -73 -58.5 -114.5t-142.5 -41.5q-109 0 -177 73q-11 13 -15 24zM90 707l134 -135q10 -5 11 -5t11 5l135 135q5 5 5 12q0 3 -6 11l-28 27q-16 16 -23 16q-9 0 -17 -10l-77 -77l-77 77l-9 8q-2 0 -4 1.5t-4 1.5
q-5 0 -9 -4l-31 -29l-13 -13q-3 -3 -3 -8q0 -11 5 -13z" />
    <glyph glyph-name="Tcommaaccent" unicode="&#x162;" horiz-adv-x="611" 
d="M21 628v95q0 19 19 19h525q20 0 20 -19v-95q0 -20 -20 -20h-192v-588q0 -20 -19 -20h-108q-19 0 -19 20v588h-187q-19 0 -19 20zM210 -149q0 33 23 55.5t55 22.5q35 0 57 -23.5t22 -61.5q0 -51 -14 -90.5t-29.5 -56t-27.5 -16.5q-10 0 -25.5 12.5t-15.5 23.5
q0 6 11.5 24.5t10.5 26.5v4q-27 5 -47 28t-20 51z" />
    <glyph glyph-name="tcommaaccent" unicode="&#x163;" horiz-adv-x="328" 
d="M82 491v135q0 26 31 29l74 11q2 1 7 1q24 0 24 -30v-146h60q27 0 27 -29v-55q0 -31 -27 -31h-60v-347q0 -29 -27 -29h-84q-25 0 -25 29v347h-27q-29 0 -29 31v55q0 29 29 29h27zM72 -149q0 33 23 55.5t55 22.5q35 0 57 -23.5t22 -61.5q0 -51 -14 -90.5t-29.5 -56
t-27.5 -16.5q-10 0 -25.5 12.5t-15.5 23.5q0 6 11.5 24.5t10.5 26.5v4q-27 5 -47 28t-20 51z" />
    <glyph glyph-name="Tcaron" unicode="&#x164;" horiz-adv-x="611" 
d="M21 628v95q0 19 19 19h525q20 0 20 -19v-95q0 -20 -20 -20h-192v-588q0 -20 -19 -20h-108q-19 0 -19 20v588h-187q-19 0 -19 20zM289 824l-134 135q-5 2 -5 13q0 5 3 8l13 13l31 29q4 4 9 4q2 0 4 -1.5t4 -1.5l9 -8l77 -77l77 77q8 10 17 10q7 0 23 -16l28 -27
q6 -8 6 -11q0 -7 -5 -12l-135 -135q-10 -5 -11 -5t-11 5z" />
    <glyph glyph-name="tcaron" unicode="&#x165;" horiz-adv-x="328" 
d="M82 491v135q0 26 31 29l74 11q2 1 7 1q24 0 24 -30v-146h60q27 0 27 -29v-55q0 -31 -27 -31h-60v-347q0 -29 -27 -29h-84q-25 0 -25 29v347h-27q-29 0 -29 31v55q0 29 29 29h27zM239 712q0 -28 19.5 -52t46.5 -29q0 -17 -11 -31l-7 -10q-5 -5 -5 -13q0 -9 6 -14l24 -18
q10 -6 17 -6q12 0 28.5 17.5t31.5 58t15 91.5q0 39 -23.5 64t-59.5 25q-34 0 -58 -24t-24 -59z" />
    <glyph glyph-name="Tbar" unicode="&#x166;" horiz-adv-x="611" 
d="M306 358v120h127q16 0 16 -17v-86q0 -6 -4.5 -11.5t-11.5 -5.5h-127zM254 478v-120h-76q-17 0 -17 17v86q0 17 17 17h76zM21 628v95q0 19 19 19h525q20 0 20 -19v-95q0 -20 -20 -20h-192v-588q0 -20 -19 -20h-108q-19 0 -19 20v588h-187q-19 0 -19 20z" />
    <glyph glyph-name="tbar" unicode="&#x167;" horiz-adv-x="328" 
d="M49 291h221q16 0 16 -16v-69q0 -7 -4.5 -12t-11.5 -5h-221q-17 0 -17 17v69q0 16 17 16zM82 491v135q0 26 31 29l74 11q2 1 7 1q24 0 24 -30v-146h60q27 0 27 -29v-55q0 -31 -27 -31h-60v-347q0 -29 -27 -29h-84q-25 0 -25 29v347h-27q-29 0 -29 31v55q0 29 29 29h27z
" />
    <glyph glyph-name="Utilde" unicode="&#x168;" horiz-adv-x="752" 
d="M217 720v-427q0 -71 45 -120.5t114 -49.5t113.5 49.5t44.5 120.5v427q0 9 6.5 15.5t16.5 6.5h99q9 0 17 -6.5t8 -15.5v-427q0 -126 -89.5 -215.5t-215.5 -89.5q-127 0 -216.5 89.5t-89.5 215.5v427q0 8 6 15t15 7h103q8 0 15.5 -6.5t7.5 -15.5zM254 832h-3l-2 -1
q-1 0 -2 0.5t-2 0.5q-47 34 -47 48q0 4 6 12l10 13q39 51 99 51q35 -2 69 -24l27 -18q13 -9 26 -9q22 0 35 14q1 1 7 9.5t11 12.5t10 4t10 -4l37 -35q5 -7 5 -12t-5 -10l-14 -18q-40 -46 -96 -46q-35 0 -69 24q-42 27 -55 27q-21 0 -35.5 -18.5t-21.5 -20.5z" />
    <glyph glyph-name="utilde" unicode="&#x169;" horiz-adv-x="568" 
d="M453 0q-12 0 -19.5 2t-12 9.5t-6.5 11t-5 18.5t-4 19q-25 -28 -67.5 -47t-89.5 -19q-91 0 -140 54t-49 143v270q0 14 8.5 22t20.5 8h82q28 0 28 -29v-248q0 -40 23.5 -64.5t62.5 -24.5q37 0 75.5 25.5t38.5 60.5v252q0 28 29 28h81q29 0 29 -28v-433q0 -30 -31 -30h-54z
M179 580h-3l-2 -1l-2 1h-2q-47 34 -47 48q0 4 6 12l10 13q39 51 99 51q35 -2 69 -24l27 -18q13 -9 26 -9q22 0 35 14q1 1 7 9.5t11 12.5t10 4t10 -4l37 -35q5 -7 5 -12t-5 -10l-14 -18q-40 -46 -96 -46q-35 0 -69 24q-42 27 -55 27q-21 0 -35.5 -18.5t-21.5 -20.5z" />
    <glyph glyph-name="Umacron" unicode="&#x16a;" horiz-adv-x="752" 
d="M217 720v-427q0 -71 45 -120.5t114 -49.5t113.5 49.5t44.5 120.5v427q0 9 6.5 15.5t16.5 6.5h99q9 0 17 -6.5t8 -15.5v-427q0 -126 -89.5 -215.5t-215.5 -89.5q-127 0 -216.5 89.5t-89.5 215.5v427q0 8 6 15t15 7h103q8 0 15.5 -6.5t7.5 -15.5zM178 860v50q0 18 17 18
h363q18 0 18 -18v-50q0 -7 -5 -13.5t-13 -6.5h-363q-17 0 -17 20z" />
    <glyph glyph-name="umacron" unicode="&#x16b;" horiz-adv-x="568" 
d="M453 0q-12 0 -19.5 2t-12 9.5t-6.5 11t-5 18.5t-4 19q-25 -28 -67.5 -47t-89.5 -19q-91 0 -140 54t-49 143v270q0 14 8.5 22t20.5 8h82q28 0 28 -29v-248q0 -40 23.5 -64.5t62.5 -24.5q37 0 75.5 25.5t38.5 60.5v252q0 28 29 28h81q29 0 29 -28v-433q0 -30 -31 -30h-54z
M92 618v50q0 18 17 18h363q18 0 18 -18v-50q0 -7 -5 -13.5t-13 -6.5h-363q-17 0 -17 20z" />
    <glyph glyph-name="Ubreve" unicode="&#x16c;" horiz-adv-x="752" 
d="M217 720v-427q0 -71 45 -120.5t114 -49.5t113.5 49.5t44.5 120.5v427q0 9 6.5 15.5t16.5 6.5h99q9 0 17 -6.5t8 -15.5v-427q0 -126 -89.5 -215.5t-215.5 -89.5q-127 0 -216.5 89.5t-89.5 215.5v427q0 8 6 15t15 7h103q8 0 15.5 -6.5t7.5 -15.5zM378 856q-55 1 -93 37.5
t-38 83.5q0 8 5.5 13.5t13.5 5.5h53q16 0 16 -16q0 -15 12 -26t33 -11q19 0 30.5 10.5t11.5 24.5q0 18 15 18h51q23 0 23 -19q0 -48 -39 -84t-94 -37z" />
    <glyph glyph-name="ubreve" unicode="&#x16d;" horiz-adv-x="568" 
d="M453 0q-12 0 -19.5 2t-12 9.5t-6.5 11t-5 18.5t-4 19q-25 -28 -67.5 -47t-89.5 -19q-91 0 -140 54t-49 143v270q0 14 8.5 22t20.5 8h82q28 0 28 -29v-248q0 -40 23.5 -64.5t62.5 -24.5q37 0 75.5 25.5t38.5 60.5v252q0 28 29 28h81q29 0 29 -28v-433q0 -30 -31 -30h-54z
M291 604q-55 1 -93 37.5t-38 83.5q0 8 5.5 13.5t13.5 5.5h53q16 0 16 -16q0 -15 12 -26t33 -11q19 0 30.5 10.5t11.5 24.5q0 18 15 18h51q23 0 23 -19q0 -48 -39 -84t-94 -37z" />
    <glyph glyph-name="Uring" unicode="&#x16e;" horiz-adv-x="752" 
d="M217 720v-427q0 -71 45 -120.5t114 -49.5t113.5 49.5t44.5 120.5v427q0 9 6.5 15.5t16.5 6.5h99q9 0 17 -6.5t8 -15.5v-427q0 -126 -89.5 -215.5t-215.5 -89.5q-127 0 -216.5 89.5t-89.5 215.5v427q0 8 6 15t15 7h103q8 0 15.5 -6.5t7.5 -15.5zM371 1028q43 0 74.5 -31
t31.5 -75q0 -43 -31 -73.5t-75 -30.5q-43 0 -73.5 30t-30.5 74t30.5 75t73.5 31zM372 964q-18 0 -29.5 -12t-11.5 -30q0 -17 11.5 -28.5t29.5 -11.5q17 0 29 11.5t12 28.5q0 18 -12 30t-29 12z" />
    <glyph glyph-name="uring" unicode="&#x16f;" horiz-adv-x="568" 
d="M453 0q-12 0 -19.5 2t-12 9.5t-6.5 11t-5 18.5t-4 19q-25 -28 -67.5 -47t-89.5 -19q-91 0 -140 54t-49 143v270q0 14 8.5 22t20.5 8h82q28 0 28 -29v-248q0 -40 23.5 -64.5t62.5 -24.5q37 0 75.5 25.5t38.5 60.5v252q0 28 29 28h81q29 0 29 -28v-433q0 -30 -31 -30h-54z
M296 756q44 0 75 -31t31 -75q0 -43 -31 -73.5t-75 -30.5t-74 30t-30 74t30.5 75t73.5 31zM297 692q-18 0 -29.5 -12t-11.5 -30q0 -17 11.5 -28.5t29.5 -11.5q17 0 29 11.5t12 28.5q0 18 -12 30t-29 12z" />
    <glyph glyph-name="Uhungarumlaut" unicode="&#x170;" horiz-adv-x="752" 
d="M217 720v-427q0 -71 45 -120.5t114 -49.5t113.5 49.5t44.5 120.5v427q0 9 6.5 15.5t16.5 6.5h99q9 0 17 -6.5t8 -15.5v-427q0 -126 -89.5 -215.5t-215.5 -89.5q-127 0 -216.5 89.5t-89.5 215.5v427q0 8 6 15t15 7h103q8 0 15.5 -6.5t7.5 -15.5zM578 965l-46 -105
q-8 -21 -26 -21h-76q-17 0 -17 14q3 14 6 18l44 102q11 21 27 21h79q13 0 13 -11t-4 -18zM376 965l-45 -105q-10 -21 -27 -21h-76q-16 0 -16 14q4 16 5 18l44 102q11 21 27 21h80q13 0 13 -11t-5 -18z" />
    <glyph glyph-name="uhungarumlaut" unicode="&#x171;" horiz-adv-x="568" 
d="M453 0q-12 0 -19.5 2t-12 9.5t-6.5 11t-5 18.5t-4 19q-25 -28 -67.5 -47t-89.5 -19q-91 0 -140 54t-49 143v270q0 14 8.5 22t20.5 8h82q28 0 28 -29v-248q0 -40 23.5 -64.5t62.5 -24.5q37 0 75.5 25.5t38.5 60.5v252q0 28 29 28h81q29 0 29 -28v-433q0 -30 -31 -30h-54z
M504 713l-46 -105q-8 -21 -26 -21h-76q-17 0 -17 14q3 14 6 18l44 102q11 21 27 21h79q13 0 13 -11t-4 -18zM302 713l-45 -105q-10 -21 -27 -21h-76q-16 0 -16 14q4 16 5 18l44 102q11 21 27 21h80q13 0 13 -11t-5 -18z" />
    <glyph glyph-name="Uogonek" unicode="&#x172;" horiz-adv-x="752" 
d="M217 720v-427q0 -71 45 -120.5t114 -49.5t113.5 49.5t44.5 120.5v427q0 9 6.5 15.5t16.5 6.5h99q9 0 17 -6.5t8 -15.5v-427q0 -126 -89.5 -215.5t-215.5 -89.5q-127 0 -216.5 89.5t-89.5 215.5v427q0 8 6 15t15 7h103q8 0 15.5 -6.5t7.5 -15.5zM381 -265h-3
q-86 26 -118 57t-32 71q0 25 17.5 46t38.5 33.5t38.5 29.5t17.5 34h84v-21q0 -20 -16.5 -38t-36 -29t-36 -25.5t-16.5 -29.5q0 -30 88 -53l5 -1q1 -1 4 -3l1 -2q2 -4 2 -9q0 -13 -9.5 -34.5t-21.5 -24.5q-2 -1 -5 -1h-2z" />
    <glyph glyph-name="uogonek" unicode="&#x173;" horiz-adv-x="566" 
d="M453 0q-12 0 -19.5 2t-12 9.5t-6.5 11t-5 18.5t-4 19q-25 -28 -67.5 -47t-89.5 -19q-91 0 -140 54t-49 143v270q0 14 8.5 22t20.5 8h82q28 0 28 -29v-248q0 -40 23.5 -64.5t62.5 -24.5q37 0 75.5 25.5t38.5 60.5v252q0 28 29 28h81q29 0 29 -28v-433q0 -30 -31 -30h-54z
M473 -258h-3q-86 26 -118 57t-32 71q0 25 17.5 46t38.5 33.5t38.5 29.5t17.5 34h84v-21q0 -20 -16.5 -38t-36 -29t-36 -25.5t-16.5 -29.5q0 -30 88 -53l5 -1l2 -1q2 -1 2 -2l1 -2q2 -4 2 -9q0 -13 -9.5 -34.5t-21.5 -24.5q-2 -1 -5 -1h-2z" />
    <glyph glyph-name="Wcircumflex" unicode="&#x174;" horiz-adv-x="1065" 
d="M644 18l-105 253l-98 -253q-8 -18 -26 -18h-84q-18 0 -25 18l-277 702q-4 10 0.5 16t13.5 6h113q18 0 25 -19l191 -516l191 516q7 19 24 19h117q9 0 13 -6.5t1 -15.5l-107 -266l97 -246l196 515q7 19 25 19h117q10 0 14 -6t0 -16l-285 -702q-7 -18 -25 -18h-80
q-18 0 -26 18zM384 894l134 135q5 5 11 5q5 0 10 -5l135 -135q5 -5 5 -12q0 -5 -5 -10l-28 -28q-19 -16 -24 -16q-7 0 -17 10l-76 77l-78 -77q-7 -9 -17 -9q-6 0 -23 15l-27 27q-6 5 -6 15q2 5 6 8z" />
    <glyph glyph-name="wcircumflex" unicode="&#x175;" horiz-adv-x="800" 
d="M166 467l39 -113q7 -19 18 -51t20 -56.5t17 -46.5l95 264q10 27 35 27h80q28 0 28 -24q0 -2 -0.5 -6t-0.5 -5l-31 -87q31 -92 63 -170l28 77q10 28 21 59.5t24.5 70t20.5 59.5q9 26 34 26h91q27 0 27 -21q0 -8 -3 -14l-171 -427q-15 -29 -35 -29h-72q-8 0 -14 2.5t-9.5 6
t-6.5 9t-4.5 9t-3 8.5t-1.5 6l-43 107q-1 3 -7 17.5t-10 24.5l-20 -48q-3 -11 -11 -30t-11 -26l-22 -55q-1 0 -1 -2l-1 -3q-13 -26 -32 -26h-74q-12 0 -20 7t-11 12.5t-8 18.5q-64 157 -166 419q-2 6 -2 12q0 22 26 22h91q23 0 33 -24zM246 642l134 135q5 5 11 5q5 0 10 -5
l135 -135q5 -5 5 -12q0 -5 -5 -10l-28 -28q-19 -16 -24 -16q-7 0 -17 10l-76 77l-78 -77q-7 -9 -17 -9q-6 0 -23 15l-27 27q-6 5 -6 15q2 5 6 8z" />
    <glyph glyph-name="Ycircumflex" unicode="&#x176;" horiz-adv-x="659" 
d="M284 21v291l-239 408q-5 10 -1 16t14 6h123q15 0 25 -18l151 -291l150 291q10 18 25 18h124q10 0 14 -6t-1 -16l-239 -407v-292q0 -21 -19 -21h-108q-19 0 -19 21zM165 894l134 135q5 5 11 5q5 0 10 -5l135 -135q5 -5 5 -12q0 -5 -5 -10l-28 -28q-19 -16 -24 -16
q-7 0 -17 10l-76 77l-78 -77q-7 -9 -17 -9q-5 0 -23 15l-27 27q-6 5 -6 15q2 5 6 8z" />
    <glyph glyph-name="ycircumflex" unicode="&#x177;" horiz-adv-x="559" 
d="M534 448l-244 -624q-10 -22 -32 -22h-81q-28 0 -28 21q0 5 2 13l63 169l-182 446q-4 8 -4 17q0 22 27 22h87q25 0 32 -23l109 -292l108 293q7 22 33 22h86q28 0 28 -24q0 -6 -4 -18zM138 642l134 135q5 5 11 5q5 0 10 -5l135 -135q5 -5 5 -12q0 -5 -5 -10l-28 -28
q-19 -16 -24 -16q-7 0 -17 10l-76 77l-78 -77q-7 -9 -17 -9q-6 0 -23 15l-27 27q-6 5 -6 15q2 5 6 8z" />
    <glyph glyph-name="Ydieresis" unicode="&#x178;" horiz-adv-x="659" 
d="M284 21v291l-239 408q-5 10 -1 16t14 6h123q15 0 25 -18l151 -291l150 291q10 18 25 18h124q10 0 14 -6t-1 -16l-239 -407v-292q0 -21 -19 -21h-108q-19 0 -19 21zM150 875q0 30 20.5 50.5t49.5 20.5q31 0 51 -20.5t20 -50.5q0 -29 -20.5 -49.5t-50.5 -20.5
q-28 0 -49 20.5t-21 49.5zM353 876q0 30 20.5 51t49.5 21q30 0 50.5 -21t20.5 -51q0 -29 -20.5 -49.5t-50.5 -20.5q-29 0 -49.5 20.5t-20.5 49.5z" />
    <glyph glyph-name="Zacute" unicode="&#x179;" horiz-adv-x="639" 
d="M55 742h555q18 0 18 -18v-83q0 -10 -6 -19l-388 -486h374q18 0 18 -18v-101q0 -17 -18 -17h-558q-18 0 -18 17v86q0 10 6 18l389 484h-372q-19 0 -19 18v101q0 18 19 18zM420 965l-46 -105q-8 -21 -26 -21h-72q-16 0 -16 13q0 4 5 19l44 102q11 21 27 21h75q14 0 14 -10
q0 -8 -5 -19z" />
    <glyph glyph-name="zacute" unicode="&#x17a;" horiz-adv-x="517" 
d="M61 398v62q0 14 8.5 22t22.5 8h355q13 0 22 -8t9 -22v-67q0 -11 -5 -17l-231 -252h209q31 0 31 -31v-60q0 -13 -8.5 -23t-22.5 -10h-370q-13 0 -22 10t-9 23v53q0 14 6 21q32 35 118.5 126.5t123.5 132.5h-206q-31 0 -31 32zM317 608l46 105q5 11 5 19q0 10 -14 10h-75
q-16 0 -27 -21l-44 -102q-5 -15 -5 -19q0 -13 16 -13h72q18 0 26 21z" />
    <glyph glyph-name="Zdotaccent" unicode="&#x17b;" horiz-adv-x="639" 
d="M55 742h555q18 0 18 -18v-83q0 -10 -6 -19l-388 -486h374q18 0 18 -18v-101q0 -17 -18 -17h-558q-18 0 -18 17v86q0 10 6 18l389 484h-372q-19 0 -19 18v101q0 18 19 18zM266 907q0 34 23.5 57.5t56.5 23.5q34 0 57.5 -23.5t23.5 -57.5q0 -33 -23.5 -57t-57.5 -24
q-33 0 -56.5 24t-23.5 57z" />
    <glyph glyph-name="zdotaccent" unicode="&#x17c;" horiz-adv-x="517" 
d="M61 398v62q0 14 8.5 22t22.5 8h355q13 0 22 -8t9 -22v-67q0 -11 -5 -17l-231 -252h209q31 0 31 -31v-60q0 -13 -8.5 -23t-22.5 -10h-370q-13 0 -22 10t-9 23v53q0 14 6 21q32 35 118.5 126.5t123.5 132.5h-206q-31 0 -31 32zM209 655q0 -33 23.5 -57t56.5 -24
q34 0 57.5 24t23.5 57q0 34 -23.5 57.5t-57.5 23.5q-33 0 -56.5 -23.5t-23.5 -57.5z" />
    <glyph glyph-name="Zcaron" unicode="&#x17d;" horiz-adv-x="639" 
d="M55 742h555q18 0 18 -18v-83q0 -10 -6 -19l-388 -486h374q18 0 18 -18v-101q0 -17 -18 -17h-558q-18 0 -18 17v86q0 10 6 18l389 484h-372q-19 0 -19 18v101q0 18 19 18zM331 824l-134 135q-5 2 -5 13q0 5 3 8l13 13l31 29q4 4 9 4q2 0 4 -1.5t4 -1.5l9 -8l77 -77l77 77
q8 10 17 10q7 0 23 -16l28 -27q6 -8 6 -11q0 -7 -5 -12l-135 -135q-10 -5 -11 -5t-11 5z" />
    <glyph glyph-name="zcaron" unicode="&#x17e;" horiz-adv-x="517" 
d="M61 398v62q0 14 8.5 22t22.5 8h355q13 0 22 -8t9 -22v-67q0 -11 -5 -17l-231 -252h209q31 0 31 -31v-60q0 -13 -8.5 -23t-22.5 -10h-370q-13 0 -22 10t-9 23v53q0 14 6 21q32 35 118.5 126.5t123.5 132.5h-206q-31 0 -31 32zM132 708l134 -135q10 -5 11 -5t11 5l135 135
q5 5 5 12q0 3 -6 11l-28 27q-16 16 -23 16q-9 0 -17 -10l-77 -77l-77 77l-9 8q-2 0 -4 1.5t-4 1.5q-5 0 -9 -4l-31 -29l-13 -13q-3 -3 -3 -8q0 -11 5 -13z" />
    <glyph glyph-name="florin" unicode="&#x192;" horiz-adv-x="309" 
d="M23 -196q-35 0 -35 51v54q0 10 6.5 16.5t15.5 6.5q29 0 51 20t22 49v383h-45q-26 0 -26 28v66q0 26 26 26h45v27q0 96 58 156t151 65q26 -2 26 -26v-80q0 -11 -6.5 -18t-16.5 -7q-31 0 -51.5 -19.5t-20.5 -48.5v-49h66q25 0 25 -26v-66q0 -28 -25 -28h-66v-329
q0 -22 -4 -62q-11 -78 -63.5 -130t-132.5 -59z" />
    <glyph glyph-name="AEacute" unicode="&#x1fc;" horiz-adv-x="1159" 
d="M276 139l-92 -118q-16 -21 -36 -21h-111q-19 0 -19 14q0 4 7 18l-1 -1l22 29l521 661q16 21 37 21h471q28 0 28 -29v-81q0 -10 -8 -18.5t-21 -8.5h-353v-162h283q27 0 27 -26v-74q0 -9 -7.5 -17t-19.5 -8h-285v-181h368q27 0 27 -27v-83q0 -27 -28 -27h-489q-26 0 -26 24
q0 75 1 115h-296zM576 523l-199 -253h199v253zM781 965l-46 -105q-8 -21 -26 -21h-72q-16 0 -16 13q0 4 5 19l44 102q11 21 27 21h75q14 0 14 -10q0 -8 -5 -19z" />
    <glyph glyph-name="aeacute" unicode="&#x1fd;" horiz-adv-x="967" 
d="M602 713l-46 -105q-8 -21 -26 -21h-72q-16 0 -16 13q0 4 5 19l44 102q11 21 27 21h75q14 0 14 -10q0 -8 -5 -19zM418 27q-1 7 -3 17t-3 16q-22 -33 -50.5 -51.5t-78.5 -18.5h-2q-105 0 -173.5 73t-68.5 181q0 110 67.5 182t174.5 72q48 0 77.5 -18t57.5 -53l10 38
q4 17 9 22.5t19 5.5l56 -2q12 0 20.5 -7.5t8.5 -19.5v-439q0 -11 -8.5 -18t-20.5 -7h-64q-23 0 -28 27zM169 243q0 -56 33.5 -94t86.5 -38q55 0 88 37t33 94t-33 95.5t-88 38.5q-53 0 -86.5 -38.5t-33.5 -94.5zM681 107q40 -1 84 24q4 2 10 5.5t10 6t8 2.5q9 0 15 -9l37 -59
q5 -8 5 -13q0 -10 -16 -24q-68 -52 -150 -52q-105 0 -180 75t-75 181q0 104 74 180.5t175 76.5q97 0 166.5 -67t69.5 -161q0 -41 -7 -57.5t-28 -16.5h-311q4 -41 38.5 -66.5t74.5 -25.5zM568 295h215q-2 38 -33 65t-75 27q-37 0 -69.5 -27t-37.5 -65z" />
    <glyph glyph-name="Oslashacute" unicode="&#x1fe;" horiz-adv-x="853" 
d="M564 965l-46 -105q-8 -21 -26 -21h-72q-16 0 -16 13q0 4 5 19l44 102q11 21 27 21h75q14 0 14 -10q0 -8 -5 -19zM44 371q0 159 112 270.5t270 111.5q39 0 84 -10l27 60q8 21 28 21h118q25 0 14 -23l-51 -118q74 -53 117.5 -135t43.5 -177q0 -158 -111 -269.5t-270 -111.5
q-37 0 -79 8l-29 -66q-9 -20 -29 -20h-119q-23 0 -14 23l55 121q-77 52 -122 135t-45 180zM190 371q0 -101 68 -171t168 -70t167.5 70t67.5 171q0 102 -67 172t-168 70q-100 0 -168 -70t-68 -172z" />
    <glyph glyph-name="oslashacute" unicode="&#x1ff;" horiz-adv-x="578" 
d="M357 608l46 105q5 11 5 19q0 10 -14 10h-75q-16 0 -27 -21l-44 -102q-5 -15 -5 -19q0 -13 16 -13h72q18 0 26 21zM81 -53v1l42 98q-93 75 -93 198q0 106 73.5 179t179.5 73q11 0 33 -2l22 51q10 21 32 21h78q23 0 23 -16q0 -9 -2 -11l-39 -90q49 -35 77 -88.5t28 -116.5
q0 -106 -73.5 -179.5t-178.5 -73.5q-28 0 -48 4q-22 -49 -23 -52q-10 -19 -26 -19h-87q-20 0 -20 14q0 2 1 5zM153 243q0 -54 36.5 -92t89.5 -38t90 38t37 92t-37 92.5t-90 38.5t-89.5 -38.5t-36.5 -92.5z" />
    <glyph glyph-name="Scommaaccent" unicode="&#x218;" horiz-adv-x="641" 
d="M65 113q-21 22 -5 38l67 66q14 13 35 -5q86 -86 173 -86q57 0 91.5 29t34.5 68q0 23 -13 40t-39 29t-42 17.5t-46 13.5q-126 37 -187 90t-61 136q0 92 74.5 149.5t195.5 57.5q62 0 123.5 -29.5t108.5 -77.5q18 -19 -1 -39l-55 -59q-14 -13 -38 6q-82 69 -143 69
q-115 0 -115 -80q0 -35 34.5 -54.5t110.5 -40.5q57 -17 96.5 -34.5t77 -44t56 -65t18.5 -88.5q0 -101 -82.5 -165t-195.5 -64q-76 0 -149 33.5t-124 89.5zM261 -149q0 33 23 55.5t55 22.5q35 0 57 -23.5t22 -61.5q0 -51 -14 -90.5t-29.5 -56t-27.5 -16.5q-10 0 -25.5 12.5
t-15.5 23.5q0 6 11.5 24.5t10.5 26.5v4q-27 5 -47 28t-20 51z" />
    <glyph glyph-name="scommaaccent" unicode="&#x219;" horiz-adv-x="446" 
d="M24 85q-2 3 -2 10q0 9 7 14l61 49q3 5 11 5q5 0 16 -7q2 -2 12.5 -11t15 -12.5t15 -11t18 -10.5t17.5 -6t20 -3q59 0 59 48q0 32 -75 53q-87 23 -126 60t-39 95q0 59 52 100.5t135 41.5q93 0 160 -60q18 -18 18 -30q0 -9 -35 -37t-43 -28t-17 9q-42 35 -81 35
q-52 0 -52 -33q0 -17 18 -27t59 -23q85 -28 127 -64t42 -98q0 -73 -58.5 -114.5t-142.5 -41.5q-109 0 -177 73q-11 13 -15 24zM140 -149q0 33 23 55.5t55 22.5q35 0 57 -23.5t22 -61.5q0 -51 -14 -90.5t-29.5 -56t-27.5 -16.5q-10 0 -25.5 12.5t-15.5 23.5q0 6 11.5 24.5
t10.5 26.5v4q-27 5 -47 28t-20 51z" />
    <glyph glyph-name="uni021A" unicode="&#x21a;" horiz-adv-x="616" 
d="M26 637v83q0 22 23 22h526q23 0 24 -22v-83q0 -10 -6.5 -17t-17.5 -7h-193v-590q0 -23 -23 -23h-94q-9 0 -16 6.5t-7 16.5v590h-193q-23 0 -23 24zM232 -149q0 33 23 55.5t56 22.5q34 0 56.5 -23.5t22.5 -61.5q0 -39 -8 -71.5t-20 -51.5t-23.5 -29.5t-19.5 -10.5
q-10 0 -25.5 12.5t-15.5 23.5q0 6 11 24.5t11 26.5v4q-27 5 -47.5 28t-20.5 51z" />
    <glyph glyph-name="uni021B" unicode="&#x21b;" horiz-adv-x="328" 
d="M82 491v135q0 26 31 29l74 11q2 1 7 1q24 0 24 -30v-146h60q27 0 27 -29v-55q0 -31 -27 -31h-60v-347q0 -29 -27 -29h-84q-25 0 -25 29v347h-27q-29 0 -29 31v55q0 29 29 29h27zM69 -149q0 33 23 55.5t55 22.5q35 0 57 -23.5t22 -61.5q0 -51 -14 -90.5t-29.5 -56
t-27.5 -16.5q-10 0 -25.5 12.5t-15.5 23.5q0 6 11.5 24.5t10.5 26.5v4q-27 5 -47 28t-20 51z" />
    <glyph glyph-name="dotlessj" unicode="&#x237;" horiz-adv-x="282" 
d="M14 -204q-27 0 -27 26v64q0 25 25 25h2q25 2 43 21.5t18 46.5v486q0 26 26 26h79q12 0 19.5 -7.5t7.5 -18.5v-455q0 -17 -2 -45q-7 -75 -60.5 -121.5t-130.5 -47.5z" />
    <glyph glyph-name="circumflex" unicode="&#x2c6;" horiz-adv-x="374" 
d="M43 642l134 135q5 5 11 5q5 0 10 -5l135 -135q5 -5 5 -12q0 -5 -5 -10l-28 -28q-19 -16 -24 -16q-7 0 -17 10l-76 77l-78 -77q-7 -9 -17 -9q-5 0 -23 15l-27 27q-6 5 -6 15q2 5 6 8z" />
    <glyph glyph-name="caron" unicode="&#x2c7;" horiz-adv-x="368" 
d="M175 572l-134 135q-5 2 -5 13q0 5 3 8l13 13l31 29q4 4 9 4q2 0 4 -1.5t4 -1.5l9 -8l77 -77l77 77q8 10 17 10q7 0 23 -16l28 -27q6 -8 6 -11q0 -7 -5 -12l-135 -135q-10 -5 -11 -5t-11 5z" />
    <glyph glyph-name="uni02C9" unicode="&#x2c9;" horiz-adv-x="490" 
d="M51 639v38q0 18 18 18h350q18 0 18 -18v-38q0 -20 -18 -20h-350q-18 0 -18 20z" />
    <glyph glyph-name="breve" unicode="&#x2d8;" horiz-adv-x="326" 
d="M169 604q-55 1 -93 37.5t-38 83.5q0 8 5.5 13.5t13.5 5.5h53q16 0 16 -16q0 -15 12 -26t33 -11q19 0 30.5 10.5t11.5 24.5q0 18 15 18h51q23 0 23 -19q0 -48 -39 -84t-94 -37z" />
    <glyph glyph-name="dotaccent" unicode="&#x2d9;" horiz-adv-x="258" 
d="M63 650q0 29 20.5 50t49.5 21q30 0 50.5 -20.5t20.5 -50.5t-20.5 -50.5t-50.5 -20.5q-29 0 -49.5 21t-20.5 50z" />
    <glyph glyph-name="ring" unicode="&#x2da;" horiz-adv-x="259" 
d="M128 776q44 0 75 -31t31 -75q0 -43 -31 -73.5t-75 -30.5t-74 30t-30 74t30.5 75t73.5 31zM129 712q-18 0 -29.5 -12t-11.5 -30q0 -17 11.5 -28.5t29.5 -11.5q17 0 29 11.5t12 28.5q0 18 -12 30t-29 12z" />
    <glyph glyph-name="ogonek" unicode="&#x2db;" horiz-adv-x="277" 
d="M194 -265h-3q-86 26 -118 57t-32 71q0 25 17.5 46t38.5 33.5t38.5 29.5t17.5 34h84v-21q0 -20 -16.5 -38t-36 -29t-36 -25.5t-16.5 -29.5q0 -30 88 -53l5 -1q1 -1 4 -3l1 -2q2 -4 2 -9q0 -13 -9.5 -34.5t-21.5 -24.5q-2 -1 -5 -1h-2z" />
    <glyph glyph-name="tilde" unicode="&#x2dc;" horiz-adv-x="353" 
d="M67 580h-3l-2 -1l-2 1h-2q-47 34 -47 48q0 4 6 12l10 13q39 51 99 51q35 -2 69 -24l27 -18q14 -9 26 -9q22 0 35 14q1 1 7 9.5t11 12.5t10 4t10 -4l37 -35q5 -7 5 -12t-5 -10l-14 -18q-40 -46 -96 -46q-35 0 -69 24q-42 27 -55 27q-21 0 -35.5 -18.5t-21.5 -20.5z" />
    <glyph glyph-name="hungarumlaut" unicode="&#x2dd;" horiz-adv-x="474" 
d="M462 713l-46 -105q-8 -21 -26 -21h-76q-17 0 -17 14q4 14 6 18l44 102q11 21 27 21h79q13 0 13 -11t-4 -18zM260 713l-45 -105q-10 -21 -27 -21h-76q-16 0 -16 14q4 16 5 18l44 102q11 21 27 21h80q13 0 13 -11t-5 -18z" />
    <glyph glyph-name="uni037E" unicode="&#x37e;" horiz-adv-x="264" 
d="M59 458q0 33 24 57t57 24q34 0 57.5 -24t23.5 -57q0 -34 -23.5 -57.5t-57.5 -23.5q-33 0 -57 23.5t-24 57.5zM58 66q0 35 24 59t58 24q36 0 59.5 -25t23.5 -64q0 -51 -15 -91.5t-31.5 -58t-28.5 -17.5q-7 0 -17 6l-21 15q-8 12 -8 20q0 5 6 15l6 10q10 8 10 25v1
q-27 5 -46.5 29t-19.5 52z" />
    <glyph glyph-name="tonos" unicode="&#x384;" horiz-adv-x="258" 
d="M153 564h-43q-18 2 -18 18l-17 149q0 12 13 12h84q16 0 13 -14l-15 -147q-4 -18 -17 -18z" />
    <glyph glyph-name="dieresistonos" unicode="&#x385;" horiz-adv-x="430" 
d="M39 634v22q0 24 9.5 33t31.5 9h22q43 0 43 -42v-22q0 -23 -10 -32.5t-33 -9.5h-22q-22 0 -31.5 10t-9.5 32zM284 634v22q0 24 9 33t33 9h22q41 0 41 -42v-22q0 -22 -9.5 -32t-31.5 -10h-22q-23 0 -32.5 9.5t-9.5 32.5zM199 589q-25 2 -28 26l-16 145q0 9 6.5 16t15.5 7
h70q9 0 16 -8t7 -18l-15 -142q-2 -10 -9.5 -18t-17.5 -8h-29z" />
    <glyph glyph-name="Alphatonos" unicode="&#x386;" horiz-adv-x="766" 
d="M15 21l282 702q9 19 25 19h84q18 0 25 -19l282 -702q4 -10 0 -15.5t-14 -5.5h-109q-18 0 -25 18l-48 120h-307l-47 -120q-7 -18 -25 -18h-110q-22 0 -13 21zM364 550l-107 -283h212zM142 565h-43q-18 2 -18 18l-17 149q0 12 13 12h84q7 0 10.5 -4t2.5 -10l-15 -147
q-4 -18 -17 -18z" />
    <glyph glyph-name="anoteleia" unicode="&#x387;" horiz-adv-x="227" 
d="M55 280q0 34 23.5 57.5t56.5 23.5q35 0 58 -23t23 -58q0 -33 -23 -56.5t-58 -23.5q-33 0 -56.5 23.5t-23.5 56.5z" />
    <glyph glyph-name="Epsilontonos" unicode="&#x388;" horiz-adv-x="642" 
d="M104 20v702q0 20 19 20h489q20 0 20 -20v-97q0 -20 -20 -20h-362v-151h276q22 0 22 -20v-95q0 -20 -22 -20h-276v-183h371q21 0 21 -20v-96q0 -20 -21 -20h-498q-19 0 -19 20zM52 564h-43q-18 2 -18 18l-17 149q0 12 13 12h84q7 0 10.5 -4t2.5 -10l-15 -147
q-4 -18 -17 -18z" />
    <glyph glyph-name="Etatonos" unicode="&#x389;" horiz-adv-x="826" 
d="M611 20v300h-333v-300q0 -20 -22 -20h-105q-19 0 -19 20v701q0 21 19 21h108q19 0 19 -20v-261h333v260q0 21 19 21h108q18 0 18 -20v-702q0 -20 -21 -20h-105q-19 0 -19 20zM54 565h-43q-18 2 -18 18l-17 149q0 12 13 12h84q7 0 10.5 -4t2.5 -10l-15 -147
q-4 -18 -17 -18z" />
    <glyph glyph-name="Iotatonos" unicode="&#x38a;" horiz-adv-x="309" 
d="M81 20v701q0 21 20 21h108q19 0 19 -21v-701q0 -20 -19 -20h-108q-20 0 -20 20zM41 563h-43q-18 2 -18 18l-17 150q0 12 13 12h84q16 0 13 -15l-15 -147q-4 -18 -17 -18z" />
    <glyph glyph-name="Omicrontonos" unicode="&#x38c;" horiz-adv-x="856" 
d="M817 371q0 -158 -112.5 -269.5t-270.5 -111.5t-269 111.5t-111 269.5q0 159 111 270.5t269 111.5q159 0 271 -111.5t112 -270.5zM670 371q0 102 -67.5 172t-168.5 70q-100 0 -167 -70t-67 -172q0 -101 67 -171t167 -70q101 0 168.5 70t67.5 171zM65 564h-42q-19 2 -19 18
l-17 150q2 12 13 12h84q17 0 14 -15l-16 -147q-2 -18 -17 -18z" />
    <glyph glyph-name="Upsilontonos" unicode="&#x38e;" horiz-adv-x="687" 
d="M342 21v291l-239 408q-5 10 -1 16t14 6h123q15 0 25 -18l151 -291l150 291q10 18 25 18h124q10 0 14 -6t-1 -16l-239 -407v-292q0 -21 -19 -21h-108q-19 0 -19 21zM29 564h-43q-18 2 -18 18l-17 149q0 12 13 12h84q16 0 13 -14l-15 -147q-4 -18 -17 -18z" />
    <glyph glyph-name="Omegatonos" unicode="&#x38f;" horiz-adv-x="780" 
d="M326 -1h-232q-18 0 -18 16v87q0 18 18 18h115v40q-64 41 -102 110.5t-38 151.5q0 134 96.5 232.5t233.5 98.5t234 -97t97 -234q0 -81 -38 -150.5t-102 -111.5v-40h113q17 0 17 -17v-87q0 -17 -17 -17h-232q-18 0 -18 16v211q0 13 13 15q57 20 92 70t35 112
q0 82 -57.5 139.5t-138.5 57.5t-138 -57.5t-57 -139.5q0 -62 35 -112t92 -70q14 -5 14 -15v-210q0 -17 -17 -17zM66 565h-43q-18 2 -18 18l-17 149q0 12 13 12h84q7 0 10.5 -4t2.5 -10l-15 -147q-4 -18 -17 -18z" />
    <glyph glyph-name="iotadieresistonos" unicode="&#x390;" horiz-adv-x="247" 
d="M185 467v-444q0 -23 -25 -23h-87q-24 0 -24 23v444q0 24 24 24h87q9 0 17 -7t8 -17zM142 666h-42q-19 2 -19 18l-17 150q2 12 13 12h84q17 0 14 -15l-16 -147q-2 -18 -17 -18zM-64 624q0 30 20.5 50.5t49.5 20.5q31 0 51 -20.5t20 -50.5q0 -29 -20.5 -49.5t-50.5 -20.5
q-28 0 -49 21t-21 49zM139 625q0 30 20.5 51t49.5 21q30 0 50.5 -21t20.5 -51q0 -29 -20.5 -49.5t-50.5 -20.5q-29 0 -49.5 20.5t-20.5 49.5z" />
    <glyph glyph-name="Alpha" unicode="&#x391;" horiz-adv-x="716" 
d="M15 21l282 702q9 19 25 19h84q18 0 25 -19l282 -702q4 -10 0 -15.5t-14 -5.5h-109q-18 0 -25 18l-48 120h-307l-47 -120q-7 -18 -25 -18h-110q-22 0 -13 21zM364 550l-107 -283h212z" />
    <glyph glyph-name="Beta" unicode="&#x392;" horiz-adv-x="678" 
d="M81 20v703q0 19 19 19h323q85 0 143.5 -60t58.5 -147q0 -88 -57 -138q43 -28 67.5 -77t24.5 -105q0 -87 -60 -151t-144 -64h-356q-19 0 -19 20zM414 326h-187v-204h189q44 0 69.5 30t25.5 69q0 44 -29 74.5t-68 30.5zM385 622h-158v-181h157q44 0 70 24.5t26 66.5
q0 40 -26 65t-69 25z" />
    <glyph glyph-name="Gamma" unicode="&#x393;" horiz-adv-x="605" 
d="M81 19v703q0 20 20 20h462q20 0 20 -21v-91q0 -20 -20 -20h-341v-591q0 -19 -21 -19h-100q-20 0 -20 19z" />
    <glyph glyph-name="Delta" unicode="&#x394;" horiz-adv-x="735" 
d="M390 550l-160 -430h320zM719 0h-659q-21 0 -14 20l281 712q4 10 19 10h92q11 0 16 -12l282 -709q4 -9 -1.5 -15t-15.5 -6z" />
    <glyph glyph-name="Epsilon" unicode="&#x395;" horiz-adv-x="642" 
d="M81 20v702q0 20 19 20h489q20 0 20 -20v-97q0 -20 -20 -20h-362v-151h276q22 0 22 -20v-95q0 -20 -22 -20h-276v-183h371q21 0 21 -20v-96q0 -20 -21 -20h-498q-19 0 -19 20z" />
    <glyph glyph-name="Zeta" unicode="&#x396;" horiz-adv-x="682" 
d="M55 742h555q18 0 18 -18v-83q0 -10 -6 -19l-388 -486h374q18 0 18 -18v-101q0 -17 -18 -17h-558q-18 0 -18 17v86q0 10 6 18l389 484h-372q-19 0 -19 18v101q0 18 19 18z" />
    <glyph glyph-name="Eta" unicode="&#x397;" horiz-adv-x="773" 
d="M560 20v300h-333v-300q0 -20 -22 -20h-105q-19 0 -19 20v701q0 21 19 21h108q19 0 19 -20v-261h333v260q0 21 19 21h108q18 0 18 -20v-702q0 -20 -21 -20h-105q-19 0 -19 20z" />
    <glyph glyph-name="Theta" unicode="&#x398;" horiz-adv-x="853" 
d="M267 441h329q17 0 17 -17v-97q0 -8 -5 -13.5t-12 -5.5h-329q-18 0 -18 19v97q0 17 18 17zM807 371q0 -158 -112.5 -269.5t-270.5 -111.5t-269 111.5t-111 269.5q0 159 111 270.5t269 111.5q159 0 271 -111.5t112 -270.5zM660 371q0 102 -67.5 172t-168.5 70
q-100 0 -167 -70t-67 -172q0 -101 67 -171t167 -70q101 0 168.5 70t67.5 171z" />
    <glyph glyph-name="Iota" unicode="&#x399;" horiz-adv-x="309" 
d="M81 20v701q0 21 20 21h108q19 0 19 -21v-701q0 -20 -19 -20h-108q-20 0 -20 20z" />
    <glyph glyph-name="Kappa" unicode="&#x39a;" horiz-adv-x="734" 
d="M672 719l-257 -292l309 -404q7 -9 4 -16t-13 -7h-145q-14 0 -27 18l-226 298l-90 -97v-199q0 -20 -19 -20h-108q-19 0 -19 20v702q0 20 19 20h106q7 0 14 -5.5t7 -14.5v-309l277 315q13 14 31 14h129q11 0 13 -8t-5 -15z" />
    <glyph glyph-name="Lambda" unicode="&#x39b;" horiz-adv-x="718" 
d="M58 22l276 702q7 19 25 19h84q19 0 26 -19l276 -703q9 -21 -13 -21h-114q-18 0 -25 19l-191 518l-191 -518q-6 -19 -24 -19h-116q-22 0 -13 22z" />
    <glyph glyph-name="Mu" unicode="&#x39c;" horiz-adv-x="926" 
d="M414 33l-167 459l-53 -472q-2 -20 -20 -20h-102q-21 0 -19 20l76 703q2 20 21 20h130q12 0 18 -18l179 -495l176 494q7 19 19 19h133q19 0 21 -20l75 -703q3 -20 -19 -20h-102q-17 0 -20 19l-51 473l-170 -459q-7 -18 -21 -18h-84q-14 0 -20 18z" />
    <glyph glyph-name="Nu" unicode="&#x39d;" horiz-adv-x="793" 
d="M81 22v698q0 22 22 22h117q22 0 29 -15l329 -473v473q5 15 22 15h101q8 0 16 -6.5t8 -15.5v-698q0 -22 -24 -22h-99q-15 0 -29 16l-347 500v-494q1 -22 -22 -22h-101q-22 0 -22 22z" />
    <glyph glyph-name="Xi" unicode="&#x39e;" horiz-adv-x="682" 
d="M620 0h-527q-20 0 -20 20v88q0 21 20 21h526q20 0 20 -21v-88q0 -8 -5 -14t-14 -6zM613 612h-514q-21 0 -21 21v88q0 21 21 21h515q20 0 20 -21v-88q0 -8 -6 -14.5t-15 -6.5zM535 315h-355q-19 0 -19 21v76q0 20 19 20h355q19 0 19 -20v-76q0 -8 -5 -14.5t-14 -6.5z" />
    <glyph glyph-name="Omicron" unicode="&#x39f;" horiz-adv-x="853" 
d="M807 371q0 -158 -112.5 -269.5t-270.5 -111.5t-269 111.5t-111 269.5q0 159 111 270.5t269 111.5q159 0 271 -111.5t112 -270.5zM660 371q0 102 -67.5 172t-168.5 70q-100 0 -167 -70t-67 -172q0 -101 67 -171t167 -70q101 0 168.5 70t67.5 171z" />
    <glyph glyph-name="Pi" unicode="&#x3a0;" horiz-adv-x="714" 
d="M518 19v591h-295v-592q0 -18 -21 -18h-102q-19 0 -19 18v704q0 20 19 20h539q8 0 15 -5.5t7 -13.5v-704q0 -19 -22 -19h-101q-20 0 -20 19z" />
    <glyph glyph-name="Rho" unicode="&#x3a1;" horiz-adv-x="629" 
d="M81 20v702q0 20 19 20h291q99 0 165 -72t66 -167q0 -94 -67.5 -165t-165.5 -71h-163v-247q0 -20 -20 -20h-106q-19 0 -19 20zM362 615h-136v-222h136q49 0 80.5 31.5t31.5 78.5t-31.5 79.5t-80.5 32.5z" />
    <glyph glyph-name="Sigma" unicode="&#x3a3;" horiz-adv-x="655" 
d="M59 20v75q0 14 8 22l228 259l-229 252q-8 8 -8 19v76q0 19 19 19h528q20 0 20 -19v-91q0 -20 -20 -20h-352l200 -218q14 -15 1 -28l-1 -1l-195 -230h356q20 0 20 -20v-95q0 -20 -20 -20h-536q-19 0 -19 20z" />
    <glyph glyph-name="Tau" unicode="&#x3a4;" horiz-adv-x="611" 
d="M21 628v95q0 19 19 19h525q20 0 20 -19v-95q0 -20 -20 -20h-192v-588q0 -20 -19 -20h-108q-19 0 -19 20v588h-187q-19 0 -19 20z" />
    <glyph glyph-name="Upsilon" unicode="&#x3a5;" horiz-adv-x="659" 
d="M284 21v291l-239 408q-5 10 -1 16t14 6h123q15 0 25 -18l151 -291l150 291q10 18 25 18h124q10 0 14 -6t-1 -16l-239 -407v-292q0 -21 -19 -21h-108q-19 0 -19 21z" />
    <glyph glyph-name="Phi" unicode="&#x3a6;" horiz-adv-x="771" 
d="M317 20v38q-121 23 -200.5 110t-79.5 202q0 114 79.5 201.5t200.5 110.5v40q0 20 19 20h107q20 0 20 -20v-41q120 -23 199 -110.5t79 -200.5q0 -114 -79 -201.5t-199 -110.5v-38q0 -20 -20 -20h-107q-19 0 -19 20zM180 370q0 -60 37.5 -107.5t99.5 -67.5v349
q-62 -20 -99.5 -67.5t-37.5 -106.5zM598 370q0 59 -37.5 106t-97.5 67v-347q61 20 98 67t37 107z" />
    <glyph glyph-name="Chi" unicode="&#x3a7;" horiz-adv-x="673" 
d="M627 721l-231 -344l239 -355q6 -10 2 -16t-13 -6h-122q-16 0 -27 17l-160 240l-161 -240q-11 -17 -26 -17h-121q-10 0 -14 6t2 16l238 355l-229 343q-6 9 -3 15.5t13 6.5h124q14 0 26 -18l151 -225l152 226q12 18 26 18h122q10 0 14 -7t-2 -15z" />
    <glyph glyph-name="Psi" unicode="&#x3a8;" horiz-adv-x="760" 
d="M574 598v125q0 8 7 14t15 6h97q7 0 12.5 -6t5.5 -14v-131q0 -145 -71.5 -227.5t-193.5 -98.5v-247q0 -19 -20 -19h-94q-22 0 -22 19v248q-124 12 -194.5 93.5t-70.5 232.5v130q0 8 6.5 14t15.5 6h93q9 0 14.5 -6t5.5 -14v-124q0 -174 130 -202v326q0 8 7 13.5t15 5.5h94
q20 0 20 -19v-325q128 32 128 200z" />
    <glyph glyph-name="Omega" unicode="&#x3a9;" horiz-adv-x="743" 
d="M296 -1h-233q-17 0 -17 16v87q0 18 17 18h116v40q-64 41 -102 110.5t-38 151.5q0 134 96 232.5t233 98.5t234 -97t97 -234q0 -81 -37.5 -150.5t-101.5 -111.5v-40h113q16 0 16 -17v-87q0 -17 -16 -17h-233q-17 0 -17 16v211q0 14 13 15q57 20 92 70t35 112
q0 82 -57.5 139.5t-138.5 57.5t-138 -57.5t-57 -139.5q0 -62 35 -112t92 -70q14 -5 14 -15v-210q0 -17 -17 -17z" />
    <glyph glyph-name="Iotadieresis" unicode="&#x3aa;" horiz-adv-x="309" 
d="M81 20v701q0 21 20 21h108q19 0 19 -21v-701q0 -20 -19 -20h-108q-20 0 -20 20zM-21 886q0 29 21 50t50 21q30 0 50.5 -21t20.5 -50t-20.5 -50t-50.5 -21q-29 0 -50 21t-21 50zM182 887q0 29 21 50t50 21q30 0 50.5 -21t20.5 -50t-20.5 -49.5t-50.5 -20.5q-29 0 -50 20.5
t-21 49.5z" />
    <glyph glyph-name="Upsilondieresis" unicode="&#x3ab;" horiz-adv-x="659" 
d="M284 21v291l-239 408q-5 10 -1 16t14 6h123q15 0 25 -18l151 -291l150 291q10 18 25 18h124q10 0 14 -6t-1 -16l-239 -407v-292q0 -21 -19 -21h-108q-19 0 -19 21zM162 842q0 30 21 50.5t50 20.5q30 0 50.5 -20.5t20.5 -50.5q0 -29 -20.5 -49.5t-50.5 -20.5
q-29 0 -50 20.5t-21 49.5zM365 843q0 30 21 51t50 21q30 0 50.5 -21t20.5 -51q0 -29 -20.5 -49.5t-50.5 -20.5q-29 0 -50 20.5t-21 49.5z" />
    <glyph glyph-name="alphatonos" unicode="&#x3ac;" horiz-adv-x="594" 
d="M419 27q-1 7 -3 17t-3 16q-22 -33 -50.5 -51.5t-78.5 -18.5h-2q-105 0 -173.5 73t-68.5 181q0 110 67.5 182t174.5 72q48 0 77.5 -18t57.5 -53l10 38q4 17 9 22.5t19 5.5l56 -2q12 0 20.5 -7.5t8.5 -19.5v-439q0 -11 -8.5 -18t-20.5 -7h-64q-23 0 -28 27zM170 243
q0 -56 33.5 -94t86.5 -38q55 0 88 37t33 94t-33 95.5t-88 38.5q-53 0 -86.5 -38.5t-33.5 -94.5zM326 564h-42q-19 2 -19 18l-17 149q2 12 13 12h84q7 0 11 -4t3 -10l-16 -147q-2 -18 -17 -18z" />
    <glyph glyph-name="epsilontonos" unicode="&#x3ad;" horiz-adv-x="437" 
d="M256 564h-42q-19 2 -19 18l-17 149q2 12 13 12h84q7 0 11 -4t3 -10l-16 -147q-2 -18 -17 -18zM248 -9q-79 0 -134.5 46.5t-55.5 114.5q0 59 47 106q-35 40 -35 89q0 70 53 113.5t133 43.5q73 0 133 -35q30 -19 30 -33q0 -8 -7 -19l-42 -59q-5 -7 -12 -7q-4 0 -11 4
q-53 34 -90 34q-23 0 -39.5 -13t-16.5 -31q0 -19 14 -30.5t36 -11.5h57q16 0 16 -17v-71q0 -15 -16 -15h-67q-26 0 -38 -15t-12 -32q0 -20 19 -34.5t43 -14.5q53 0 100 35q5 4 11 4t12 -8q34 -44 50 -66q5 -5 5 -11q0 -8 -19 -20q-66 -47 -154 -47h-10z" />
    <glyph glyph-name="etatonos" unicode="&#x3ae;" horiz-adv-x="627" 
d="M107 491h35q8 0 15 -1t12 -4t9 -4.5t7.5 -7.5t5 -8.5t4 -10.5t3 -9.5t2.5 -11.5t2 -11q23 29 64.5 52t84.5 23q91 0 141.5 -51.5t55.5 -142.5q2 -38 2 -59v-413q0 -26 -25 -26h-83q-24 0 -24 25v446q0 12 -5 24q-16 72 -93 72q-37 0 -70.5 -26.5t-36.5 -65.5v-258
q0 -23 -25 -23h-82q-25 0 -25 23v442q0 26 26 26zM326 564h-43q-18 2 -18 18l-17 149q0 12 13 12h84q7 0 10.5 -4t2.5 -10l-15 -147q-4 -18 -17 -18z" />
    <glyph glyph-name="iotatonos" unicode="&#x3af;" horiz-adv-x="288" 
d="M147 565h-42q-19 2 -19 18l-17 149q2 12 13 12h84q7 0 11 -4t3 -10l-16 -147q-2 -18 -17 -18zM207 467v-444q0 -23 -25 -23h-87q-23 0 -23 23v444q0 24 23 24h87q9 0 17 -7t8 -17z" />
    <glyph glyph-name="upsilondieresistonos" unicode="&#x3b0;" horiz-adv-x="568" 
d="M86 629q0 30 20.5 50.5t49.5 20.5q31 0 51 -20.5t20 -50.5q0 -29 -20.5 -49.5t-50.5 -20.5q-28 0 -49 20.5t-21 49.5zM378 630q0 30 20.5 51t49.5 21q30 0 50.5 -21t20.5 -51q0 -29 -20.5 -49.5t-50.5 -20.5q-29 0 -49.5 20.5t-20.5 49.5zM341 606h-42q-19 2 -19 18
l-17 149q2 12 13 12h84q7 0 11 -4t3 -10l-16 -147q-2 -18 -17 -18zM284 120q40 0 65.5 24.5t25.5 64.5v253q0 29 28 29h82q12 0 20.5 -8t8.5 -22v-270q0 -85 -68.5 -143.5t-162.5 -58.5t-161.5 58.5t-67.5 143.5v270q0 14 8.5 22t20.5 8h82q28 0 28 -29v-253
q0 -40 25.5 -64.5t65.5 -24.5z" />
    <glyph glyph-name="alpha" unicode="&#x3b1;" horiz-adv-x="594" 
d="M419 27q-1 7 -3 17t-3 16q-22 -33 -50.5 -51.5t-78.5 -18.5h-2q-105 0 -173.5 73t-68.5 181q0 110 67.5 182t174.5 72q48 0 77.5 -18t57.5 -53l10 38q4 17 9 22.5t19 5.5l56 -2q12 0 20.5 -7.5t8.5 -19.5v-439q0 -11 -8.5 -18t-20.5 -7h-64q-23 0 -28 27zM170 243
q0 -56 33.5 -94t86.5 -38q55 0 88 37t33 94t-33 95.5t-88 38.5q-53 0 -86.5 -38.5t-33.5 -94.5z" />
    <glyph glyph-name="beta" unicode="&#x3b2;" horiz-adv-x="570" 
d="M299 -7q-21 0 -21 23v75q0 29 29 29q111 0 111 112q0 51 -32.5 81.5t-85.5 30.5q-22 0 -22 20v80q0 21 24 21q68 0 68 76q-2 81 -75 81q-72 0 -72 -117v-673q0 -23 -19 -23h-103q-10 0 -15 3.5t-5.5 7.5t-0.5 13v686q0 229 221 229q91 0 149.5 -55t58.5 -134
q0 -98 -54 -139q56 -31 84.5 -85t28.5 -118q0 -101 -71 -162.5t-198 -61.5z" />
    <glyph glyph-name="gamma" unicode="&#x3b3;" horiz-adv-x="511" 
d="M210 -169v193q-108 263 -178 439v-1q-2 8 -2 13q0 15 20 15h98q19 0 26 -19l5 -14q96 -280 99 -287l17 53q9 28 26 78.5t31 92t27 78.5q7 19 27 19h96q23 0 23 -18q0 -1 -0.5 -3.5t-0.5 -3.5l-93 -226q-10 -24 -27.5 -67.5t-32 -79t-27.5 -66.5v-196q0 -22 -24 -22h-88
q-22 0 -22 22z" />
    <glyph glyph-name="delta" unicode="&#x3b4;" horiz-adv-x="578" 
d="M30 244q0 85 53 153t137 91q-22 22 -54 55.5t-72 73.5l-21 21q-2 4 -2 37v49q0 21 21 21h380q8 0 14 -6t6 -15v-75q0 -21 -20 -21h-208l211 -206q31 -33 50.5 -80t19.5 -95v-2q0 -104 -75.5 -178.5t-184.5 -74.5q-104 0 -179.5 72.5t-75.5 179.5zM160 243q0 -56 35 -93.5
t89 -37.5q53 0 90 37.5t37 91.5q0 55 -36.5 94.5t-90.5 39.5q-53 0 -88.5 -38.5t-35.5 -93.5z" />
    <glyph glyph-name="epsilon" unicode="&#x3b5;" horiz-adv-x="437" 
d="M248 -9q-79 0 -134.5 46.5t-55.5 114.5q0 59 47 106q-35 40 -35 89q0 70 53 113.5t133 43.5q73 0 133 -35q30 -19 30 -33q0 -8 -7 -19l-42 -59q-5 -7 -12 -7q-4 0 -11 4q-53 34 -90 34q-23 0 -39.5 -13t-16.5 -31q0 -19 14 -30.5t36 -11.5h57q16 0 16 -17v-71
q0 -15 -16 -15h-67q-26 0 -38 -15t-12 -32q0 -20 19 -34.5t43 -14.5q53 0 100 35q5 4 11 4t12 -8q34 -44 50 -66q5 -5 5 -11q0 -8 -19 -20q-66 -47 -154 -47h-10z" />
    <glyph glyph-name="zeta" unicode="&#x3b6;" horiz-adv-x="588" 
d="M549 -64q0 -73 -43 -131v-1q-9 -11 -21 -11q-5 0 -30 14l-28 20q-24 17 -25 32q0 10 10 33.5t10 34.5q0 24 -11.5 44.5t-31.5 20.5h-41q-103 0 -175 68t-72 170q0 89 79 187l170 207h-209q-23 0 -23 23v75q0 10 6.5 16.5t16.5 6.5h362q9 0 16 -6.5t7 -16.5v-68
q0 -10 -10 -21q-36 -41 -109 -135t-94 -120q-6 -7 -41 -49q-39 -50 -39 -99q0 -48 35 -82t84 -34h24q22 0 33 -1q64 -7 107 -57t43 -120z" />
    <glyph glyph-name="eta" unicode="&#x3b7;" horiz-adv-x="627" 
d="M107 491h35q8 0 15 -1t12 -4t9 -4.5t7.5 -7.5t5 -8.5t4 -10.5t3 -9.5t2.5 -11.5t2 -11q23 29 64.5 52t84.5 23q91 0 141.5 -51.5t55.5 -142.5q2 -38 2 -59v-413q0 -26 -25 -26h-83q-24 0 -24 25v446q0 12 -5 24q-16 72 -93 72q-37 0 -70.5 -26.5t-36.5 -65.5v-258
q0 -23 -25 -23h-82q-25 0 -25 23v442q0 26 26 26z" />
    <glyph glyph-name="theta" unicode="&#x3b8;" horiz-adv-x="577" 
d="M312 758q112 0 188 -100.5t76 -285.5q0 -183 -76 -283t-189 -100q-110 0 -186.5 100.5t-76.5 283.5q0 185 76 285t188 100zM310 610q-43 0 -75.5 -50.5t-43.5 -129.5h239q-11 78 -44.5 129t-75.5 51zM310 133q42 0 75 49.5t44 125.5h-237q11 -77 43.5 -126t74.5 -49z" />
    <glyph glyph-name="iota" unicode="&#x3b9;" horiz-adv-x="277" 
d="M214 467v-444q0 -23 -25 -23h-87q-24 0 -24 23v444q0 24 24 24h87q9 0 17 -7t8 -17z" />
    <glyph glyph-name="kappa" unicode="&#x3ba;" horiz-adv-x="547" 
d="M81 22v445q0 24 24 24h84q10 0 17 -7t7 -16v-155l153 165q12 13 39 13h107q22 0 22 -22v-70q0 -9 -6.5 -16.5t-15.5 -7.5h-80q-11 -12 -24 -25.5t-28.5 -29t-23.5 -24.5q171 -211 214 -265q9 -9 9 -18q0 -13 -18 -13h-114q-18 0 -29 18v-1l-153 194l-52 -55v-133
q0 -23 -24 -23h-85q-23 0 -23 22z" />
    <glyph glyph-name="lambda" unicode="&#x3bb;" horiz-adv-x="516" 
d="M104 760q133 0 184 -122l14 -33q30 -76 107 -272.5t109 -277.5l12 -30v-7q0 -19 -23 -19h-93q-20 0 -27 18l-114 317q-23 -59 -68 -182.5t-49 -133.5q-7 -19 -25 -19h-96q-20 0 -20 16q0 10 2 12v-1l190 467l-35 92q-3 10 -10 21q-9 17 -24 26t-27.5 10t-22 6.5
t-9.5 17.5v69q0 25 25 25z" />
    <glyph glyph-name="uni03BC" unicode="&#x3bc;" horiz-adv-x="589" 
d="M310 117q5 0 19 4q34 5 61 30t29 59v258q0 24 25 24h82q25 0 25 -24v-441q0 -26 -26 -26h-49q-12 0 -20.5 5.5t-13 17.5t-6 20t-3.5 24q-19 -22 -32 -35t-39.5 -27t-54.5 -14q-48 0 -96 46v-206q0 -25 -26 -25h-34q-56 0 -63 6t-7 21v387v30v216q0 24 24 24h84
q23 0 23 -23v-257q2 -41 28.5 -67t69.5 -27z" />
    <glyph glyph-name="nu" unicode="&#x3bd;" horiz-adv-x="506" 
d="M165 468l99 -276l98 277q10 22 34 22h89q27 0 27 -23q0 -3 -2 -8l-1 -5l-173 -424q-14 -31 -35 -31h-74q-11 0 -19.5 7t-11.5 13.5t-9 20.5l-82 202q-7 17 -38 93.5t-47 114.5q-4 16 -4 18q0 22 26 22h91q24 0 32 -23z" />
    <glyph glyph-name="xi" unicode="&#x3be;" horiz-adv-x="484" 
d="M69 742h337q19 0 19 -20v-76q0 -8 -5.5 -15t-13.5 -7h-83q-41 0 -70 -27t-29 -67q0 -44 27 -70t69 -24h62q17 0 17 -17v-86q0 -20 -17 -20h-92q-52 -3 -81 -32.5t-29 -78.5q0 -51 33.5 -82t84.5 -31h23q71 0 123 -52t52 -126q0 -45 -21.5 -94.5t-48.5 -49.5
q-48 31 -61 39l-13 10q-8 6 -8 17q0 14 8 28q14 24 14 42q0 25 -17 44t-53 19q-106 0 -176 64t-70 166q0 72 29 115.5t84 77.5q-69 60 -69 147q0 50 46 88h-71q-20 0 -20 22v76q0 20 20 20z" />
    <glyph glyph-name="omicron" unicode="&#x3bf;" horiz-adv-x="578" 
d="M30 244q0 106 75 179.5t183 73.5t183 -73.5t75 -179.5t-75.5 -180t-182.5 -74t-182.5 74t-75.5 180zM162 243q0 -56 36 -94t91 -38q54 0 89.5 38t35.5 94q0 55 -36 94t-89 39q-55 0 -91 -39t-36 -94z" />
    <glyph glyph-name="pi" unicode="&#x3c0;" horiz-adv-x="631" 
d="M403 19v353h-150v-353q0 -19 -21 -19h-92q-19 0 -19 19v353h-61q-20 0 -20 22v77q0 19 20 19h536q19 0 19 -19v-77q0 -8 -5.5 -15t-13.5 -7h-61v-353q0 -19 -21 -19h-91q-20 0 -20 19z" />
    <glyph glyph-name="rho" unicode="&#x3c1;" horiz-adv-x="591" 
d="M76 238v5q0 108 72.5 182.5t177.5 74.5q104 0 177.5 -74t73.5 -180t-73.5 -180t-177.5 -74q-65 0 -118 36v-197q0 -24 -25 -24h-84q-23 0 -23 24v407zM207 250q0 -57 34 -97.5t86 -40.5q50 0 85 39t35 94t-35 94t-85 39q-49 0 -83.5 -37t-36.5 -91z" />
    <glyph glyph-name="uni03C2" unicode="&#x3c2;" horiz-adv-x="521" 
d="M322 116q32 0 56 -4q59 -9 98.5 -57.5t39.5 -114.5q0 -74 -44 -130h1q-9 -12 -21 -12q-8 0 -17 6l-13 8l-32 24l-12 10q-8 8 -8 18q0 6 8 27q9 18 9 37q0 67 -79 67q-103 0 -176 73.5t-73 178.5t73 177.5t176 72.5q81 0 149 -46q15 -12 15 -26q0 -6 -2 -8
q-38 -78 -54 -78q-6 0 -10 3q-48 34 -96 34q-51 0 -86 -38.5t-35 -91.5q0 -60 37.5 -95t95.5 -35z" />
    <glyph glyph-name="sigma" unicode="&#x3c3;" horiz-adv-x="596" 
d="M49 249q0 106 72 178.5t178 72.5q40 0 99 -13h193q13 0 13 -12v-101q0 -15 -13 -15h-79q1 -1 7.5 -12t7.5 -12.5t6 -10.5t5.5 -12.5t3.5 -12t3.5 -15t1.5 -15.5t1 -20q0 -106 -72 -181t-177 -75q-106 0 -178 75t-72 181zM182 248q0 -56 32.5 -95t84.5 -39t84.5 39
t32.5 95q0 55 -32 93t-85 38t-85 -38t-32 -93z" />
    <glyph glyph-name="tau" unicode="&#x3c4;" horiz-adv-x="421" 
d="M15 386v85q0 19 18 19h354q19 0 19 -19v-85q0 -7 -5 -14t-14 -7h-105v-342q0 -23 -25 -23h-96q-23 0 -23 23v342h-105q-18 0 -18 21z" />
    <glyph glyph-name="upsilon" unicode="&#x3c5;" horiz-adv-x="568" 
d="M284 120q40 0 65.5 24.5t25.5 64.5v253q0 29 28 29h82q12 0 20.5 -8t8.5 -22v-270q0 -85 -68.5 -143.5t-162.5 -58.5t-161.5 58.5t-67.5 143.5v270q0 14 8.5 22t20.5 8h82q28 0 28 -29v-253q0 -40 25.5 -64.5t65.5 -24.5z" />
    <glyph glyph-name="phi" unicode="&#x3c6;" horiz-adv-x="603" 
d="M371 0v-164q0 -28 -29 -28h-83q-27 0 -27 28v164q-81 23 -132 90t-51 154t51 153.5t132 88.5v158q0 12 7.5 20t19.5 8h83q10 0 19.5 -8.5t9.5 -19.5v-158q80 -22 131.5 -89t51.5 -153q0 -87 -51.5 -154t-131.5 -90zM189 244q0 -52 30.5 -86.5t81.5 -34.5q49 0 78.5 34.5
t29.5 86.5q0 51 -29.5 86.5t-78.5 35.5q-50 0 -81 -35.5t-31 -86.5z" />
    <glyph glyph-name="chi" unicode="&#x3c7;" horiz-adv-x="631" 
d="M418 153q74 -109 224 -327q7 -10 7 -16t-9 -6h-123q-15 0 -25 17l-151 221l-151 -221q-10 -17 -25 -17h-123q-9 0 -9 6q0 7 11 22l10 15l211 306q-105 155 -198 288l-21 31q-6 8 -6 13t15 5h114q17 0 30 -19l142 -206q24 35 71.5 103.5t70.5 102.5q15 19 31 19h110
q18 0 18 -6q0 -1 -13 -23v1q-102 -147 -211 -309z" />
    <glyph glyph-name="psi" unicode="&#x3c8;" horiz-adv-x="679" 
d="M270 -173v167q-98 9 -161 69t-63 156v248q0 23 23 23h86q24 0 24 -22v-256q0 -83 91 -94v541q0 21 21 21h89q8 0 15.5 -6t7.5 -15v-541q90 11 90 94v256q0 22 23 22h86q23 0 23 -23v-248q0 -95 -63 -155.5t-159 -69.5v-167q0 -21 -23 -21h-89q-21 0 -21 21z" />
    <glyph glyph-name="omega" unicode="&#x3c9;" horiz-adv-x="672" 
d="M63 179v118q0 53 13 101q9 33 27 68t31 35q5 0 10 -4l32 -17h-1q4 -3 12 -9.5t14 -11t12.5 -10.5t10 -11t3.5 -8t-4 -9q-34 -49 -36 -124v-115q0 -27 17 -43.5t38 -16.5t38 15t17 36v148q0 15 16 15h90q15 0 15 -15v-148q0 -21 17.5 -36t37.5 -15q21 0 37.5 17t16.5 44
v114q0 30 -9.5 66.5t-25.5 57.5q-4 0 -4 11q0 5 5 10l78 55q5 4 10 4q3 0 7.5 -3t5.5 -6q58 -79 58 -194v-119l-1 -15q-7 -73 -58.5 -123t-117.5 -50q-67 0 -117 44q-53 -43 -118 -43q-69 0 -122.5 55t-54.5 132z" />
    <glyph glyph-name="iotadieresis" unicode="&#x3ca;" horiz-adv-x="288" 
d="M-41 629q0 30 20.5 50.5t49.5 20.5q31 0 51 -20.5t20 -50.5q0 -29 -20.5 -49.5t-50.5 -20.5q-29 0 -49.5 20.5t-20.5 49.5zM162 630q0 30 20.5 51t49.5 21q30 0 50.5 -21t20.5 -51q0 -29 -20.5 -49.5t-50.5 -20.5q-29 0 -49.5 20.5t-20.5 49.5zM207 467v-444
q0 -23 -25 -23h-87q-23 0 -23 23v444q0 24 23 24h87q9 0 17 -7t8 -17z" />
    <glyph glyph-name="upsilondieresis" unicode="&#x3cb;" horiz-adv-x="568" 
d="M284 120q40 0 65.5 24.5t25.5 64.5v253q0 29 28 29h82q12 0 20.5 -8t8.5 -22v-270q0 -85 -68.5 -143.5t-162.5 -58.5t-161.5 58.5t-67.5 143.5v270q0 14 8.5 22t20.5 8h82q28 0 28 -29v-253q0 -40 25.5 -64.5t65.5 -24.5zM129 629q0 30 20.5 50.5t49.5 20.5
q31 0 51 -20.5t20 -50.5q0 -29 -20.5 -49.5t-50.5 -20.5q-29 0 -49.5 20.5t-20.5 49.5zM332 630q0 30 20.5 51t49.5 21q30 0 50.5 -21t20.5 -51q0 -29 -20.5 -49.5t-50.5 -20.5q-29 0 -49.5 20.5t-20.5 49.5z" />
    <glyph glyph-name="omicrontonos" unicode="&#x3cc;" horiz-adv-x="578" 
d="M389 713l-45 -105q-10 -21 -27 -21h-71q-17 0 -17 13q2 10 6 19l44 102q11 21 27 21h75q14 0 14 -10q0 -8 -6 -19zM30 244q0 106 75 179.5t183 73.5t183 -73.5t75 -179.5t-75.5 -180t-182.5 -74t-182.5 74t-75.5 180zM162 243q0 -56 36 -94t91 -38q54 0 89.5 38t35.5 94
q0 55 -36 94t-89 39q-55 0 -91 -39t-36 -94z" />
    <glyph glyph-name="upsilontonos" unicode="&#x3cd;" horiz-adv-x="568" 
d="M330 564h-42q-19 2 -19 18l-17 149q2 12 13 12h84q7 0 11 -4t3 -10l-16 -147q-2 -18 -17 -18zM284 120q40 0 65.5 24.5t25.5 64.5v253q0 29 28 29h82q12 0 20.5 -8t8.5 -22v-270q0 -85 -68.5 -143.5t-162.5 -58.5t-161.5 58.5t-67.5 143.5v270q0 14 8.5 22t20.5 8h82
q28 0 28 -29v-253q0 -40 25.5 -64.5t65.5 -24.5z" />
    <glyph glyph-name="omegatonos" unicode="&#x3ce;" horiz-adv-x="674" 
d="M65 179v118q0 53 13 101q9 33 27 68t31 35q5 0 10 -4l32 -17h-1q4 -3 12 -9.5t14 -11t12.5 -10.5t10 -11t3.5 -8t-4 -9q-34 -49 -36 -124v-115q0 -27 17 -43.5t38 -16.5t38 15t17 36v148q0 15 16 15h90q15 0 15 -15v-148q0 -21 17.5 -36t37.5 -15q21 0 37.5 17t16.5 44
v114q0 30 -9.5 66.5t-25.5 57.5q-4 0 -4 11q0 5 5 10l78 55q5 4 10 4q3 0 7.5 -3t5.5 -6q58 -79 58 -194v-119l-1 -15q-7 -73 -58.5 -123t-117.5 -50q-67 0 -117 44q-53 -43 -118 -43q-69 0 -122.5 55t-54.5 132zM397 564h-42q-19 2 -19 18l-17 149q2 12 13 12h84q7 0 11 -4
t3 -10l-16 -147q-2 -18 -17 -18z" />
    <glyph glyph-name="uni03D0" unicode="&#x3d0;" horiz-adv-x="568" 
d="M80 177v391q0 83 62 131t146 48q88 0 149.5 -55t61.5 -146q0 -77 -63 -126q116 -62 116 -201q0 -111 -69 -170.5t-190 -59.5q-91 0 -152 55t-61 133zM216 560v-365q1 -34 24.5 -57.5t63.5 -23.5h5q113 4 113 123q0 52 -36 80.5t-90 28.5q-20 0 -20 19q0 13 -0.5 40.5
t-0.5 40.5q0 19 20 19q35 0 56.5 22.5t21.5 56.5q0 30 -19.5 58t-59.5 28q-37 0 -57.5 -19.5t-20.5 -50.5z" />
    <glyph glyph-name="uni03D1" unicode="&#x3d1;" horiz-adv-x="537" 
d="M189 196v-4q0 -26 18.5 -44.5t44.5 -18.5q23 0 43 17.5t20 38.5v175h-65q-80 0 -136.5 56.5t-56.5 136.5t56.5 137t136.5 57q81 0 137.5 -56.5t56.5 -137.5v-62h35q20 0 20 -19v-91q0 -8 -5.5 -14.5t-14.5 -6.5h-35v-169q0 -81 -56 -138t-136 -57t-137 56.5t-57 138.5v5
q0 21 21 21h91q19 0 19 -21zM250 491h65v64q0 28 -19 47t-46 19t-46 -19t-19 -47q0 -27 18.5 -45.5t46.5 -18.5z" />
    <glyph glyph-name="uni03F0" unicode="&#x3f0;" horiz-adv-x="519" 
d="M520 470l-147 -207l-11 -16l18 -41q27 -36 35.5 -46t23 -19t32.5 -9q3 0 7 0.5t7 0.5q16 0 18 -19l-1 -43v-51v-3q0 -23 -41 -23q-63 0 -104.5 37t-75.5 106q-2 -3 -6 -8.5t-6 -8.5l-66 -102q-10 -18 -27 -18h-122q-10 0 -10 6q0 4 4 11l6 11l159 222q-33 65 -53.5 87
t-49.5 22q-3 0 -7 -0.5t-6 -0.5q-16 0 -18 19q0 15 0.5 46t0.5 47v4q0 10 7 15.5t14 6t21 0.5q60 0 96 -33.5t75 -102.5l78 110q14 20 31 20h109q15 0 15 -7q0 -5 -6 -14v1z" />
    <glyph glyph-name="afii10023" unicode="&#x401;" horiz-adv-x="642" 
d="M81 20v702q0 20 19 20h489q20 0 20 -20v-97q0 -20 -20 -20h-362v-151h276q22 0 22 -20v-95q0 -20 -22 -20h-276v-183h371q21 0 21 -20v-96q0 -20 -21 -20h-498q-19 0 -19 20zM201 883q0 30 20.5 50.5t49.5 20.5q31 0 51 -20.5t20 -50.5q0 -29 -20.5 -49.5t-50.5 -20.5
q-29 0 -49.5 20.5t-20.5 49.5zM404 884q0 30 20.5 51t49.5 21q30 0 50.5 -21t20.5 -51q0 -29 -20.5 -49.5t-50.5 -20.5q-29 0 -49.5 20.5t-20.5 49.5z" />
    <glyph glyph-name="afii10051" unicode="&#x402;" horiz-adv-x="726" 
d="M571 256q0 60 -29 88t-69 28q-43 0 -74 -33t-31 -81v-245q0 -4 -3.5 -9t-10.5 -5h-118q-5 0 -9.5 4t-4.5 10v603h-176q-5 0 -9.5 3.5t-4.5 10.5v98q0 14 14 14h505q15 0 15 -14v-98q0 -14 -15 -14h-181v-180q47 62 121 62q105 0 165 -63t60 -175v-110q0 -56 -21.5 -97
t-55.5 -61.5t-66.5 -30t-62.5 -9.5q-26 0 -26 19v81q0 18 20 18q67 0 67 72v114z" />
    <glyph glyph-name="afii10052" unicode="&#x403;" horiz-adv-x="571" 
d="M81 21v699q0 22 22 22h417q22 -1 22 -22v-91q0 -10 -6.5 -16.5t-15.5 -6.5h-292v-585q-1 -22 -22 -22h-102q-10 0 -16.5 6.5t-6.5 15.5zM429 912l-45 -105q-10 -21 -27 -21h-71q-17 0 -17 13q2 10 6 19l44 102q11 21 27 21h75q14 0 14 -10q0 -8 -6 -19z" />
    <glyph glyph-name="afii10053" unicode="&#x404;" horiz-adv-x="685" 
d="M200 433h285q9 0 14.5 -6t5.5 -14v-80q0 -8 -5.5 -14.5t-14.5 -6.5h-286q17 -79 79 -130.5t145 -51.5q81 0 148 52q16 12 31 -8l60 -77q14 -17 -10 -33q-109 -75 -227 -75q-158 0 -269 111.5t-111 269.5q0 159 111 271t269 112q125 0 223 -73q25 -18 12 -32l-64 -82
q-13 -15 -27 -3q-69 49 -146 49q-93 0 -153.5 -57t-69.5 -122z" />
    <glyph glyph-name="afii10054" unicode="&#x405;" horiz-adv-x="641" 
d="M65 113q-21 22 -5 38l67 66q14 13 35 -5q86 -86 173 -86q57 0 91.5 29t34.5 68q0 23 -13 40t-39 29t-42 17.5t-46 13.5q-126 37 -187 90t-61 136q0 92 74.5 149.5t195.5 57.5q62 0 123.5 -29.5t108.5 -77.5q18 -19 -1 -39l-55 -59q-14 -13 -38 6q-82 69 -143 69
q-115 0 -115 -80q0 -35 34.5 -54.5t110.5 -40.5q57 -17 96.5 -34.5t77 -44t56 -65t18.5 -88.5q0 -101 -82.5 -165t-195.5 -64q-76 0 -149 33.5t-124 89.5z" />
    <glyph glyph-name="afii10055" unicode="&#x406;" horiz-adv-x="309" 
d="M81 20v701q0 21 20 21h108q19 0 19 -21v-701q0 -20 -19 -20h-108q-20 0 -20 20z" />
    <glyph glyph-name="afii10056" unicode="&#x407;" horiz-adv-x="309" 
d="M81 20v701q0 21 20 21h108q19 0 19 -21v-701q0 -20 -19 -20h-108q-20 0 -20 20zM0 905q0 30 20.5 50.5t49.5 20.5q31 0 51 -20.5t20 -50.5q0 -29 -20.5 -49.5t-50.5 -20.5q-28 0 -49 20.5t-21 49.5zM203 906q0 30 20.5 51t49.5 21q30 0 50.5 -21t20.5 -51
q0 -29 -20.5 -49.5t-50.5 -20.5q-29 0 -49.5 20.5t-20.5 49.5z" />
    <glyph glyph-name="afii10057" unicode="&#x408;" horiz-adv-x="455" 
d="M171 -11q-100 0 -172 77q-12 12 0 26l59 65q16 18 29 7q1 -1 12 -9.5t17 -12.5t20 -8.5t30 -4.5q29 0 49.5 20t20.5 48v519q0 26 25 26h94q29 0 29 -29v-494q0 -110 -64 -170t-149 -60z" />
    <glyph glyph-name="afii10058" unicode="&#x409;" horiz-adv-x="1054" 
d="M113 719q0 23 21 23h499q14 0 19.5 -8.5t5.5 -33.5v-224h148q98 0 163.5 -71t65.5 -166q0 -96 -66.5 -167.5t-165.5 -71.5h-274q-18 0 -18 22v585h-252v-404q0 -62 -23 -106.5t-59.5 -65.5t-70 -29.5t-66.5 -8.5q-27 0 -27 19v98q0 18 20 18q37 1 58.5 23.5t21.5 60.5
v507zM774 355h-116v-234h116q48 0 80 35.5t32 82.5q0 48 -32 82t-80 34z" />
    <glyph glyph-name="afii10059" unicode="&#x40a;" horiz-adv-x="1073" 
d="M81 20v704q0 6 4.5 12t14.5 6h107q20 0 20 -21v-245h265v246q0 20 20 20h106q20 0 20 -20v-246h145q98 -1 163 -71.5t65 -165.5q0 -99 -73 -169.5t-199 -70.5l-228 1q-19 0 -19 20v321h-265v-321q0 -20 -22 -20h-105q-19 0 -19 20zM750 355h-112v-234h112q49 0 81 35
t32 82q0 48 -32 82.5t-81 34.5z" />
    <glyph glyph-name="afii10060" unicode="&#x40b;" horiz-adv-x="736" 
d="M356 13q0 -4 -3.5 -9t-10.5 -5h-117q-5 0 -9.5 4t-4.5 10v603h-166q-5 0 -9.5 3.5t-4.5 10.5v98q0 14 14 14h479q6 0 10.5 -4.5t4.5 -9.5v-98q0 -6 -5 -10t-10 -4h-167v-180q17 27 51.5 44.5t74.5 17.5q105 0 165 -63t60 -175v-247q0 -4 -4 -9t-11 -5h-117q-5 0 -9 4
t-4 10v238q0 59 -29.5 90t-70.5 31q-47 0 -77 -33t-30 -93v-233z" />
    <glyph glyph-name="afii10061" unicode="&#x40c;" horiz-adv-x="734" 
d="M481 914l-45 -105q-10 -21 -27 -21h-71q-17 0 -17 13q2 12 6 19l44 103q12 21 27 21h75q14 0 14 -11q0 -7 -6 -19zM81 17v706q0 19 20 19h110q17 0 17 -20v-294q16 0 37.5 19t31.5 32t29 40l85 119q76 105 212 105q17 0 17 -18v-95q0 -18 -18 -18q-57 0 -112 -75
l-108 -146l297 -368q6 -8 2 -15.5t-12 -7.5h-134q-17 0 -28 15l-223 282q-33 -31 -76 -31v-249q0 -6 -4.5 -11.5t-12.5 -5.5h-110q-20 0 -20 17z" />
    <glyph glyph-name="afii10062" unicode="&#x40e;" horiz-adv-x="554" 
d="M271 826q-55 1 -93 37.5t-38 83.5q0 8 6 13.5t14 5.5h52q16 0 16 -16q0 -15 12 -26t33 -11q19 0 31 10.5t12 24.5q0 18 15 18h51q9 0 15.5 -5t6.5 -14q0 -48 -39 -84t-94 -37zM550 713l-221 -568q-65 -171 -215 -171q-25 0 -25 18v94q0 7 5.5 13t14.5 6q41 0 62.5 21.5
t37.5 64.5l19 50l-194 471q-11 30 18 30h105q18 0 24 -18l112 -333l108 333q5 18 25 18h106q28 0 18 -29z" />
    <glyph glyph-name="afii10145" unicode="&#x40f;" horiz-adv-x="620" 
d="M272 -120v120h-172q-20 0 -20 19v704q0 18 20 18h91q20 0 20 -18v-595h250v594q0 19 20 19h92q20 0 20 -19v-703q0 -8 -6 -13.5t-14 -5.5h-167v-120q0 -23 -24 -23h-88q-22 0 -22 23z" />
    <glyph glyph-name="afii10017" unicode="&#x410;" horiz-adv-x="716" 
d="M-10 21l282 702q9 19 25 19h84q18 0 25 -19l282 -702q4 -10 0 -15.5t-14 -5.5h-109q-18 0 -25 18l-48 120h-307l-47 -120q-7 -18 -25 -18h-110q-22 0 -13 21zM339 550l-107 -283h212z" />
    <glyph glyph-name="afii10018" unicode="&#x411;" horiz-adv-x="678" 
d="M100 742h450q19 0 19 -20v-86q0 -20 -20 -20h-328v-149h185q97 0 162 -70.5t65 -163.5q0 -94 -66 -163.5t-164 -69.5h-303q-19 0 -19 19v704q0 19 19 19zM492 232q0 45 -32 79.5t-78 34.5h-161v-225h161q47 0 78.5 33.5t31.5 77.5z" />
    <glyph glyph-name="afii10019" unicode="&#x412;" horiz-adv-x="678" 
d="M81 21v698q0 23 22 23h306q87 0 147.5 -59t60.5 -146q0 -84 -57 -139q42 -30 67.5 -78t25.5 -101q0 -89 -62 -154t-150 -65h-338q-22 0 -22 21zM510 223q0 37 -24 67t-59 35q-20 3 -42 3h-164v-212h164q16 0 42 4q35 5 59 35t24 68zM477 535q0 40 -26.5 65.5t-68.5 25.5
h-161v-188h160q42 0 69 27.5t27 69.5z" />
    <glyph glyph-name="afii10020" unicode="&#x413;" horiz-adv-x="570" 
d="M81 21v699q0 22 22 22h417q22 -1 22 -22v-91q0 -10 -6.5 -16.5t-15.5 -6.5h-292v-585q-1 -22 -22 -22h-102q-10 0 -16.5 6.5t-6.5 15.5z" />
    <glyph glyph-name="afii10021" unicode="&#x414;" horiz-adv-x="762" 
d="M608 -125v125h-460v-126q0 -15 -18 -15h-92q-16 0 -16 15v240q0 20 19 20h51q56 94 81.5 186t29.5 230q0 27 1 85t1 90q0 17 16 17h417q18 0 18 -16v-592h64q8 0 14 -5t6 -14v-240q0 -16 -18 -16h-98q-16 0 -16 16zM337 609q0 -52 -5 -122q-7 -182 -89 -353h272v475h-178
z" />
    <glyph glyph-name="afii10022" unicode="&#x415;" horiz-adv-x="642" 
d="M81 20v702q0 20 19 20h489q20 0 20 -20v-97q0 -20 -20 -20h-362v-151h276q22 0 22 -20v-95q0 -20 -22 -20h-276v-183h371q21 0 21 -20v-96q0 -20 -21 -20h-498q-19 0 -19 20z" />
    <glyph glyph-name="afii10024" unicode="&#x416;" horiz-adv-x="1035" 
d="M584 723v-296q47 0 94 94l30 57q46 85 94 125t135 40q18 0 18 -20v-89q0 -19 -18 -19q-48 0 -88 -66q-15 -22 -55 -90.5t-59 -88.5q204 -258 274 -350q5 -5 5 -13q0 -7 -10 -7h-142q-14 0 -29 22q-34 44 -101.5 132.5t-100.5 132.5q-21 -9 -47 -9v-259q0 -19 -19 -19
h-100q-20 0 -20 19v259q-30 0 -48 10l-202 -266q-15 -22 -30 -22h-141q-11 0 -11 7q0 6 5 13q69 92 275 351q-8 9 -18 23.5t-17 26t-20 34.5t-20 34q-43 72 -68 99t-58 27q-16 0 -18 19v89q0 20 18 20q30 0 56.5 -6.5t45 -13.5t39 -26t31 -30t29 -41t25 -42t26.5 -49
q27 -55 50.5 -81.5t50.5 -26.5v296q0 8 6 13.5t14 5.5h100q19 0 19 -19z" />
    <glyph glyph-name="afii10025" unicode="&#x417;" horiz-adv-x="625" 
d="M434 413q52 -26 89 -77t37 -119q0 -103 -70.5 -165.5t-177.5 -62.5h-26q-116 0 -216 81q-14 11 -4 24l54 74q11 13 28 2q62 -59 133 -59h26q42 0 75 34.5t33 82.5q0 51 -33.5 81t-81.5 30h-50q-20 0 -20 16v80q0 20 20 20h51q39 0 67 24t28 61q0 39 -27.5 62.5
t-71.5 24.5h-23q-69 -2 -109 -43q-13 -11 -22 0l-51 68q-10 15 4 28q23 27 75.5 48t111.5 21h25q41 0 77 -9t70 -29t53.5 -58.5t19.5 -91.5q0 -93 -94 -148z" />
    <glyph glyph-name="afii10026" unicode="&#x418;" horiz-adv-x="793" 
d="M715 720v-698q0 -22 -22 -22h-101q-23 0 -22 22v494l-347 -500q-14 -16 -29 -16h-99q-24 0 -24 22v698q0 9 8 15.5t16 6.5h101q17 0 22 -15v-473l329 473q7 15 29 15h117q22 0 22 -22z" />
    <glyph glyph-name="afii10027" unicode="&#x419;" horiz-adv-x="793" 
d="M725 720v-698q0 -22 -22 -22h-101q-23 0 -22 22v494l-347 -500q-14 -16 -29 -16h-99q-24 0 -24 22v698q0 9 8 15.5t16 6.5h101q17 0 22 -15v-473l329 473q7 15 29 15h117q22 0 22 -22zM414 830q-55 1 -93 37t-38 83q0 8 6 13.5t14 5.5h52q16 0 16 -15t12 -26t33 -11
q19 0 31 10.5t12 24.5q0 17 15 17h51q22 0 22 -19q0 -48 -38.5 -83.5t-94.5 -36.5z" />
    <glyph glyph-name="afii10028" unicode="&#x41a;" horiz-adv-x="734" 
d="M81 17v706q0 19 20 19h110q17 0 17 -20v-294q16 0 37.5 19t31.5 32t29 40l85 119q76 105 212 105q17 0 17 -18v-95q0 -18 -18 -18q-57 0 -112 -75l-108 -146l297 -368q6 -8 2 -15.5t-12 -7.5h-134q-17 0 -28 15l-223 282q-33 -31 -76 -31v-249q0 -6 -4.5 -11.5
t-12.5 -5.5h-110q-20 0 -20 17z" />
    <glyph glyph-name="afii10029" unicode="&#x41b;" horiz-adv-x="740" 
d="M109 206v503q0 33 30 33h520q23 0 23 -19v-703q0 -20 -17 -20h-111q-19 0 -19 20v587h-279v-401q0 -84 -61.5 -148.5t-160.5 -64.5q-20 0 -20 23v100q0 15 19 15q32 0 54 22t22 53z" />
    <glyph glyph-name="afii10030" unicode="&#x41c;" horiz-adv-x="926" 
d="M414 33l-167 459l-53 -472q-2 -20 -20 -20h-102q-21 0 -19 20l76 703q2 20 21 20h130q12 0 18 -18l179 -495l176 494q7 19 19 19h133q19 0 21 -20l75 -703q3 -20 -19 -20h-102q-17 0 -20 19l-51 473l-170 -459q-7 -18 -21 -18h-84q-14 0 -20 18z" />
    <glyph glyph-name="afii10031" unicode="&#x41d;" horiz-adv-x="773" 
d="M560 20v300h-333v-300q0 -20 -22 -20h-105q-19 0 -19 20v701q0 21 19 21h108q19 0 19 -20v-261h333v260q0 21 19 21h108q18 0 18 -20v-702q0 -20 -21 -20h-105q-19 0 -19 20z" />
    <glyph glyph-name="afii10032" unicode="&#x41e;" horiz-adv-x="853" 
d="M807 371q0 -158 -112.5 -269.5t-270.5 -111.5t-269 111.5t-111 269.5q0 159 111 270.5t269 111.5q159 0 271 -111.5t112 -270.5zM660 371q0 102 -67.5 172t-168.5 70q-100 0 -167 -70t-67 -172q0 -101 67 -171t167 -70q101 0 168.5 70t67.5 171z" />
    <glyph glyph-name="afii10033" unicode="&#x41f;" horiz-adv-x="717" 
d="M99 742h541q20 0 20 -20v-701q0 -21 -22 -21h-98q-9 0 -15.5 6t-6.5 15v589h-296v-589q0 -21 -23 -21h-98q-21 0 -21 20v702q0 20 19 20z" />
    <glyph glyph-name="afii10034" unicode="&#x420;" horiz-adv-x="629" 
d="M81 20v702q0 20 19 20h291q99 0 165 -72t66 -167q0 -94 -67.5 -165t-165.5 -71h-163v-247q0 -20 -20 -20h-106q-19 0 -19 20zM362 615h-136v-222h136q49 0 80.5 31.5t31.5 78.5t-31.5 79.5t-80.5 32.5z" />
    <glyph glyph-name="afii10035" unicode="&#x421;" horiz-adv-x="705" 
d="M568 173q20 15 32 0l50 -85q13 -16 -5 -29q-93 -70 -217 -70q-159 0 -271.5 112t-112.5 271t112.5 270t271.5 111q123 0 218 -69q14 -12 6 -25l-53 -90q-9 -12 -28 -1q-75 46 -143 46q-101 0 -168.5 -70t-67.5 -172t68 -174t168 -72q79 0 140 47z" />
    <glyph glyph-name="afii10036" unicode="&#x422;" horiz-adv-x="611" 
d="M21 628v95q0 19 19 19h525q20 0 20 -19v-95q0 -20 -20 -20h-192v-588q0 -20 -19 -20h-108q-19 0 -19 20v588h-187q-19 0 -19 20z" />
    <glyph glyph-name="afii10037" unicode="&#x423;" horiz-adv-x="560" 
d="M537 713l-221 -568q-65 -171 -215 -171q-25 0 -25 18v94q0 7 5.5 13t14.5 6q41 0 62.5 21.5t37.5 64.5l19 50l-194 471q-11 30 18 30h105q18 0 24 -18l112 -333l108 333q5 18 25 18h106q28 0 18 -29z" />
    <glyph glyph-name="afii10038" unicode="&#x424;" horiz-adv-x="787" 
d="M333 730q0 20 19 20h89q18 0 18 -20v-42q132 -13 221.5 -103.5t89.5 -211.5q0 -122 -89.5 -212t-221.5 -103v-43q0 -15 -16 -15h-94q-16 0 -16 15v43q-132 13 -221.5 103t-89.5 212q0 121 90 211.5t221 103.5v42zM157 375q0 -71 49.5 -123t127.5 -66v379
q-77 -14 -127 -66.5t-50 -123.5zM635 375q0 71 -49.5 123.5t-126.5 66.5v-379q77 14 126.5 66t49.5 123z" />
    <glyph glyph-name="afii10039" unicode="&#x425;" horiz-adv-x="686" 
d="M631 721l-231 -344l239 -355q6 -10 2 -16t-13 -6h-122q-16 0 -27 17l-160 240l-161 -240q-11 -17 -26 -17h-121q-10 0 -14 6t2 16l238 355l-229 343q-6 9 -3 15.5t13 6.5h124q14 0 26 -18l151 -225l152 226q12 18 26 18h122q10 0 14 -7t-2 -15z" />
    <glyph glyph-name="afii10040" unicode="&#x426;" horiz-adv-x="733" 
d="M726 103v-223q0 -22 -23 -22h-95q-22 0 -22 22v120h-494q-9 0 -15 6t-6 16v699q0 9 6 15t15 6h96q9 0 16 -6t7 -15v-590h296v589q0 22 21 22h95q9 0 16 -6t7 -15v-594h55q9 0 17 -7t8 -17z" />
    <glyph glyph-name="afii10041" unicode="&#x427;" horiz-adv-x="648" 
d="M584 721v-700q0 -9 -6.5 -15t-16.5 -6h-95q-22 0 -22 21v219q-57 -59 -141 -59q-113 0 -184.5 66.5t-79.5 185.5q-2 40 -2 63v225q0 8 6 15t14 7h97q8 0 15.5 -6.5t7.5 -14.5v-268q0 -65 40 -104.5t96 -39.5q53 0 91 38.5t40 99.5v274q0 20 21 21h96q8 0 15.5 -6.5
t7.5 -15.5z" />
    <glyph glyph-name="afii10042" unicode="&#x428;" horiz-adv-x="965" 
d="M894 721q0 -466 1 -699q0 -22 -24 -22h-780q-9 0 -15 6t-6 16v699q0 9 6 15t16 6h96q9 0 15.5 -6t6.5 -15v-590h202v590q0 9 6 15t15 6h96q9 0 16 -6t7 -15v-590h202v589q0 9 6 15.5t16 6.5h95q9 0 16 -6t7 -15z" />
    <glyph glyph-name="afii10043" unicode="&#x429;" horiz-adv-x="980" 
d="M968 109v-229q0 -22 -24 -22h-94q-22 0 -22 22v120h-742q-9 0 -15 6t-6 16v699q0 9 6 15t16 6h96q9 0 15.5 -6t6.5 -15v-590h202v590q0 9 6 15t15 6h96q9 0 16 -6t7 -15v-590h202v589q0 9 6 15.5t16 6.5h95q9 0 16 -6t7 -15v-588h54q9 0 17 -7t8 -17z" />
    <glyph glyph-name="afii10044" unicode="&#x42a;" horiz-adv-x="667" 
d="M228 470h186q97 -1 162 -71t65 -163q0 -95 -66 -165.5t-164 -70.5h-303q-20 0 -20 19v594h-66q-21 0 -21 22v87q0 20 20 20h187q20 0 20 -19v-253zM500 235q0 45 -32 79.5t-78 34.5h-162v-228h162q47 0 78.5 35t31.5 79z" />
    <glyph glyph-name="afii10045" unicode="&#x42b;" horiz-adv-x="904" 
d="M690 721v-701q0 -20 20 -20h108q19 0 19 20v701q0 21 -19 21h-108q-20 0 -20 -21zM71 20v702q0 20 19 20h106q20 0 20 -20v-247h163q98 0 165.5 -71t67.5 -165q0 -95 -66 -167t-165 -72h-291q-19 0 -19 20zM216 127h136q49 0 80.5 32.5t31.5 79.5t-31.5 78.5t-80.5 31.5
h-136v-222z" />
    <glyph glyph-name="afii10046" unicode="&#x42c;" horiz-adv-x="629" 
d="M81 20v702q0 20 19 20h106q20 0 20 -20v-247h163q98 0 165.5 -71t67.5 -165q0 -95 -66 -167t-165 -72h-291q-19 0 -19 20zM226 127h136q49 0 80.5 32.5t31.5 79.5t-31.5 78.5t-80.5 31.5h-136v-222z" />
    <glyph glyph-name="afii10047" unicode="&#x42d;" horiz-adv-x="717" 
d="M231 310q-9 0 -14 6.5t-5 14.5v82q0 19 19 19h290q-19 80 -84.5 132.5t-154.5 52.5q-80 -3 -141 -48q-5 -5 -13 -5t-14 10v-1l-45 68q-14 19 -13 24q0 11 11 19q102 69 219 69q159 0 270.5 -112t111.5 -271q0 -158 -111.5 -269.5t-269.5 -111.5q-120 0 -220 68
q-12 9 -12 17q0 1 2 11l57 85q8 10 14 10q4 0 12 -5l11 -7q63 -43 139 -43q84 0 149 51.5t83 133.5h-291z" />
    <glyph glyph-name="afii10048" unicode="&#x42e;" horiz-adv-x="1075" 
d="M211 720v-287h72q23 137 129.5 228.5t247.5 91.5q158 0 270 -112t112 -271q0 -158 -112 -269.5t-271 -111.5q-144 0 -250.5 94t-126.5 234h-71v-295q0 -22 -24 -22h-94q-22 0 -22 22v698q0 22 22 22h94q9 0 16.5 -6.5t7.5 -15.5zM418 371q0 -104 70 -175.5t172 -71.5
t172 71.5t70 175.5q0 102 -70 174t-172 72t-172 -71.5t-70 -174.5z" />
    <glyph glyph-name="afii10049" unicode="&#x42f;" horiz-adv-x="690" 
d="M624 722v-702q0 -20 -20 -20h-107q-19 0 -19 20v237h-152l-119 -240q-9 -17 -24 -17h-129q-9 0 -12.5 7t-0.5 14l137 270q-57 34 -92 89.5t-35 117.5q0 97 67.5 170.5t168.5 73.5h317q20 0 20 -20zM478 613h-156q-52 0 -86.5 -32t-34.5 -80q0 -49 34 -80.5t87 -31.5h156
v224z" />
    <glyph glyph-name="afii10065" unicode="&#x430;" horiz-adv-x="594" 
d="M419 27q-1 7 -3 19.5t-3 18.5q-23 -35 -51 -55t-78 -20h-2q-105 0 -173.5 73t-68.5 181q0 110 67.5 182t174.5 72q92 0 139 -83l9 48q4 17 8.5 22.5t18.5 5.5h54q12 0 20.5 -7.5t8.5 -19.5v-439q0 -11 -8.5 -18t-20.5 -7h-64q-23 0 -28 27zM170 243q0 -56 33.5 -94
t86.5 -38q55 0 88 37t33 94t-33 95.5t-88 38.5q-53 0 -86.5 -38.5t-33.5 -94.5z" />
    <glyph glyph-name="afii10066" unicode="&#x431;" horiz-adv-x="586" 
d="M176 244q0 -53 36.5 -93t87.5 -40q50 0 86.5 40.5t36.5 92.5t-36.5 92t-86.5 40q-51 0 -87.5 -39.5t-36.5 -92.5zM299 749q144 8 175 16q19 4 23 -9q2 -4 10 -43.5t9 -41.5q4 -7 0.5 -12t-6 -6t-10.5 -4q-16 -4 -37 -7t-37 -4.5t-53 -3.5t-61 -4q-116 -8 -136 -182
q55 50 126 50q103 0 177 -75t74 -177q0 -103 -73 -179.5t-177 -76.5q-91 0 -154.5 49.5t-88.5 131.5q-16 53 -16 186q0 85 10.5 148.5t37 120.5t78.5 88t129 35z" />
    <glyph glyph-name="afii10067" unicode="&#x432;" horiz-adv-x="513" 
d="M73 470q0 21 20 21h228q62 0 108.5 -43.5t46.5 -102.5q0 -46 -30 -80q50 -39 50 -114q0 -62 -48.5 -106.5t-115.5 -44.5h-239q-20 0 -20 19v451zM347 158q0 17 -12.5 34.5t-30.5 17.5h-94v-103h87q23 0 36.5 15.5t13.5 35.5zM209 304h77q19 0 31 13t12 30q0 18 -13 31.5
t-34 13.5h-73v-88z" />
    <glyph glyph-name="afii10068" unicode="&#x433;" horiz-adv-x="461" 
d="M436 364h-228v-344q0 -20 -20 -20h-95q-8 0 -14 5.5t-6 13.5v451q0 20 20 20h343q20 0 20 -20v-85q0 -21 -20 -21z" />
    <glyph glyph-name="afii10069" unicode="&#x434;" horiz-adv-x="624" 
d="M24 -95v177q0 20 19 20h37q49 74 71 137.5t23 169.5q1 21 1 67q0 15 16 15h330q18 0 18 -14v-375h44q8 0 14 -5.5t6 -14.5v-176q0 -17 -18 -17h-88q-16 0 -16 17v76h-338v-77q0 -16 -18 -16h-85q-16 0 -16 16zM301 370q0 -148 -74 -268h179v268h-105z" />
    <glyph glyph-name="afii10070" unicode="&#x435;" horiz-adv-x="572" 
d="M296 107q40 -1 84 24q4 2 10 5.5t10 6t8 2.5q9 0 15 -9l37 -59q5 -8 5 -13q0 -10 -16 -24q-68 -52 -150 -52q-105 0 -180 75t-75 181q0 104 74 180.5t175 76.5q97 0 166.5 -67t69.5 -161q0 -41 -7 -57.5t-28 -16.5h-311q4 -41 38.5 -66.5t74.5 -25.5zM183 295h215
q-2 38 -33 65t-75 27q-37 0 -69.5 -27t-37.5 -65z" />
    <glyph glyph-name="afii10072" unicode="&#x436;" horiz-adv-x="746" 
d="M425 0h-91q-20 0 -20 20v122q-27 5 -57 22l-97 -148q-9 -16 -22 -16h-117q-13 0 -13 7q0 6 7 16l153 224q-29 38 -53 81q-21 34 -39 47t-42 13q-18 0 -18 19v76q0 22 20 22q80 0 128 -40t85 -121q16 -35 30 -47.5t35 -13.5v187q0 21 21 21h90q20 0 20 -20v-188
q20 0 34 13.5t31 47.5q37 80 85 120.5t128 40.5q20 0 20 -22v-76q0 -19 -18 -19q-46 0 -81 -60q-23 -41 -52 -81q16 -24 152 -224q8 -11 8 -16q0 -7 -13 -7h-118q-13 0 -22 16q-64 98 -97 148q-30 -17 -57 -22v-121q0 -21 -20 -21z" />
    <glyph glyph-name="afii10073" unicode="&#x437;" horiz-adv-x="446" 
d="M204 498h37q79 -1 132 -41t53 -106q0 -30 -9.5 -50t-31.5 -44q44 -49 44 -103q0 -68 -56 -114t-134 -46h-42q-58 0 -98 12.5t-78 42.5q-8 6 -8 12t4 11l6 10l25 37q1 1 5.5 7t7 8.5l6.5 6.5t7 6t6 2t19 -9q43 -30 101 -30h34q28 0 45 13.5t17 33.5t-14.5 33t-36.5 13h-79
q-15 0 -15 14v72q0 16 15 16h79q23 0 37 10.5t14 29.5q0 37 -60 37h-30q-51 0 -100 -35q-4 -4 -10 -4t-12 7l-51 70q-4 5 -4 11q4 10 17 18q70 49 158 49z" />
    <glyph glyph-name="afii10074" unicode="&#x438;" horiz-adv-x="607" 
d="M185 0h-90q-25 0 -25 23v444q0 10 7.5 16.5t17.5 6.5h91q19 0 22 -20v-252l204 261q8 11 22 11h95q23 0 23 -24v-443q0 -23 -23 -23h-93q-24 0 -24 23v255l-208 -267q-9 -11 -19 -11z" />
    <glyph glyph-name="afii10075" unicode="&#x439;" horiz-adv-x="599" 
d="M185 0h-90q-25 0 -25 23v444q0 10 7.5 16.5t17.5 6.5h91q19 0 22 -20v-252l204 261q8 11 22 11h95q23 0 23 -24v-443q0 -23 -23 -23h-93q-24 0 -24 23v255l-208 -267q-9 -11 -19 -11zM309 604q55 1 94 37t39 84q0 9 -6.5 14t-15.5 5h-51q-15 0 -15 -18q0 -14 -12 -24.5
t-31 -10.5q-21 0 -33 11t-12 26q0 16 -16 16h-52q-8 0 -14 -5.5t-6 -13.5q0 -47 38 -83.5t93 -37.5z" />
    <glyph glyph-name="afii10076" unicode="&#x43a;" horiz-adv-x="552" 
d="M71 20v450q0 21 21 21h90q9 0 14.5 -6t5.5 -14v-188q24 0 37 13t36 58q40 75 85 111.5t120 36.5q20 0 20 -22v-76q0 -19 -18 -19q-48 0 -88 -66q-23 -43 -46 -72q107 -134 178 -224q7 -10 7 -16q0 -7 -13 -7h-132q-13 0 -22 16l-107 148q-30 -17 -57 -22v-121
q0 -21 -20 -21h-91q-20 0 -20 20z" />
    <glyph glyph-name="afii10077" unicode="&#x43b;" horiz-adv-x="610" 
d="M119 181v289q0 21 19 21h405q21 0 21 -19v-453q0 -19 -20 -19h-93q-20 0 -20 19v347h-179v-131q0 -115 -43.5 -179t-147.5 -64q-20 0 -20 22v84q0 21 20 21q27 0 42.5 17.5t15.5 44.5z" />
    <glyph glyph-name="afii10078" unicode="&#x43c;" horiz-adv-x="712" 
d="M523 293q-16 -41 -50.5 -124t-50.5 -123q-10 -19 -21 -19h-88q-9 0 -22 20l-101 248q-2 -52 -8 -146.5t-8 -125.5q-2 -23 -24 -23h-94q-23 0 -23 23q4 42 34 444q2 23 23 23h141q17 0 22 -19l104 -256q17 43 51.5 128t52.5 128q5 19 22 19h141q21 0 23 -23q0 -4 34 -444
q0 -23 -23 -23h-94q-22 0 -24 23l-15 242q0 6 -2 28z" />
    <glyph glyph-name="afii10079" unicode="&#x43d;" horiz-adv-x="590" 
d="M397 323v144q0 10 6.5 16.5t16.5 6.5h85q10 0 17.5 -6.5t7.5 -16.5v-444q0 -23 -25 -23h-85q-23 0 -23 23v172h-189v-172q0 -23 -25 -23h-85q-23 0 -23 23v444q0 10 6.5 16.5t16.5 6.5h86q10 0 17 -6.5t7 -16.5v-144h189z" />
    <glyph glyph-name="afii10080" unicode="&#x43e;" horiz-adv-x="578" 
d="M30 244q0 107 72 180.5t179 73.5t179 -73.5t72 -180.5t-72 -181t-179 -74t-179 74t-72 181zM162 243q0 -57 32.5 -95t87.5 -38q53 0 86 38.5t33 94.5t-33 94.5t-86 38.5q-55 0 -87.5 -38t-32.5 -95z" />
    <glyph glyph-name="afii10081" unicode="&#x43f;" horiz-adv-x="607" 
d="M404 19v342h-198v-343q0 -18 -21 -18h-92q-19 0 -19 18v452q0 20 19 20h422q8 0 14.5 -5.5t6.5 -13.5v-452q0 -19 -21 -19h-91q-20 0 -20 19z" />
    <glyph glyph-name="afii10082" unicode="&#x440;" horiz-adv-x="591" 
d="M76 -169v631q0 27 28 29h49q13 0 19.5 -1t14 -6.5t10.5 -17.5l6 -32q53 68 131 68q98 0 165.5 -73.5t67.5 -179.5q0 -107 -67 -180t-168 -73q-70 0 -117 51v-216q0 -13 -8 -21.5t-23 -8.5h-76q-13 0 -22.5 8.5t-9.5 21.5zM201 252q0 -53 33.5 -90t80.5 -37
q46 0 78.5 36.5t32.5 88.5t-32.5 88t-78.5 36t-79.5 -36t-34.5 -86z" />
    <glyph glyph-name="afii10083" unicode="&#x441;" horiz-adv-x="497" 
d="M292 114q40 1 98 28q10 5 14 5q7 0 15 -11l43 -62q4 -8 4 -11q0 -11 -17 -23q-77 -51 -154 -51q-106 0 -181 74.5t-75 180.5t75 181.5t181 75.5q73 0 149 -49h-1q18 -11 18 -25q0 -8 -3 -11l-39 -67q-6 -10 -16 -10q-4 0 -16 7q-40 31 -91 31q-55 0 -93 -40t-38 -95
q0 -56 36 -92t91 -36z" />
    <glyph glyph-name="afii10084" unicode="&#x442;" horiz-adv-x="466" 
d="M37 376v95q0 19 18 19h354q19 0 19 -19v-95q0 -7 -5 -14t-14 -7h-110v-332q0 -23 -25 -23h-86q-23 0 -23 23v332h-110q-18 0 -18 21z" />
    <glyph glyph-name="afii10085" unicode="&#x443;" horiz-adv-x="559" 
d="M534 448l-244 -624q-10 -22 -32 -22h-81q-28 0 -28 21q0 5 2 13l63 169l-182 446q-4 8 -4 17q0 22 27 22h87q25 0 32 -23l109 -292l108 293q7 22 33 22h86q28 0 28 -24q0 -6 -4 -18z" />
    <glyph glyph-name="afii10086" unicode="&#x444;" horiz-adv-x="658" 
d="M267 -180v173q-106 1 -179.5 73.5t-73.5 177.5q0 104 73.5 176.5t179.5 73.5v182q0 17 16 17h99q7 0 12.5 -5t5.5 -12v-182q103 -2 175 -74.5t72 -175.5t-71.5 -176t-175.5 -75v-173q0 -16 -18 -16h-99q-16 0 -16 16zM147 243q0 -55 34 -94t86 -40v269q-52 -1 -86 -41
t-34 -94zM515 243q0 52 -33 92t-82 43v-269q49 2 82 41.5t33 92.5z" />
    <glyph glyph-name="afii10087" unicode="&#x445;" horiz-adv-x="504" 
d="M134 0h-118q-14 0 -14 8q0 6 5 14l3 6q8 12 13 18q47 70 145 210l-145 207q-8 12 -8 17q0 10 19 10h90q22 0 33 -6t23 -27q17 -26 68 -112q15 21 40 63q3 5 9 16t10 17t9.5 14.5t10 14t10 10.5t11 7.5t11.5 2.5h107q18 0 18 -10q0 -4 -6 -14q-67 -93 -149 -210l156 -227
q7 -11 9 -20q0 -9 -15 -9h-117q-5 0 -8.5 1t-6.5 2.5t-6 5t-5 5.5t-6 8l-6 9q-12 21 -37.5 61t-38.5 61l-84 -134q-13 -19 -30 -19z" />
    <glyph glyph-name="afii10088" unicode="&#x446;" horiz-adv-x="610" 
d="M476 0h-385q-19 0 -19 20v450q0 20 20 20h91q21 0 21 -20v-348h199v347q0 21 20 21h91q21 0 21 -20v-350h51q9 0 15.5 -6t6.5 -16v-179q0 -20 -22 -20h-90q-20 0 -20 21v80z" />
    <glyph glyph-name="afii10089" unicode="&#x447;" horiz-adv-x="582" 
d="M516 468v-444q0 -24 -25 -24h-81q-26 0 -26 24v146q-14 -17 -28 -25q-40 -31 -84 -31q-97 0 -159 66t-62 163v125q0 24 24 24h83q24 0 24 -23v-135q0 -40 30 -68t70 -28q38 0 69 27t33 65v139q0 23 31 23h75q26 0 26 -24z" />
    <glyph glyph-name="afii10090" unicode="&#x448;" horiz-adv-x="798" 
d="M335 121v350q0 19 20 19h92q21 0 21 -19v-350h134v349q0 20 20 20h92q21 0 21 -20v-452q-1 -18 -21 -18h-624q-20 0 -20 20v451q0 19 20 19h92q21 0 21 -19v-350h131h1z" />
    <glyph glyph-name="afii10091" unicode="&#x449;" horiz-adv-x="838" 
d="M337 121v350q0 19 20 19h92q21 0 21 -19v-350h134v349q0 20 20 20h92q21 0 21 -20v-350h47q8 0 15 -6t7 -16v-179q0 -20 -22 -20h-90q-21 0 -21 21v40l-1 40h-580q-20 0 -20 20v451q0 19 20 19h92q21 0 21 -19v-350h131h1z" />
    <glyph glyph-name="afii10092" unicode="&#x44a;" horiz-adv-x="534" 
d="M27 490h171q19 0 19 -19v-134h129q66 0 111.5 -51t45.5 -117q0 -68 -46 -118.5t-113 -50.5h-234q-19 0 -19 18v356h-63q-18 0 -18 17v81q0 18 17 18zM380 169q0 26 -19 45t-44 19h-100v-131h100q26 0 44.5 20t18.5 47z" />
    <glyph glyph-name="afii10093" unicode="&#x44b;" horiz-adv-x="744" 
d="M102 490h87q19 0 19 -19v-134h112q65 0 111 -51t46 -117q0 -68 -46.5 -118.5t-112.5 -50.5h-217q-19 0 -19 18v451q0 21 20 21zM354 169q0 26 -19 45t-44 19h-83v-131h83q26 0 44.5 20t18.5 47zM543 23v444q0 23 22 23h88q9 0 17 -6.5t8 -16.5v-444q0 -23 -25 -23h-88
q-22 0 -22 23z" />
    <glyph glyph-name="afii10094" unicode="&#x44c;" horiz-adv-x="512" 
d="M93 490h86q20 0 20 -19v-134h129q65 0 111 -51t46 -117q0 -68 -46.5 -118.5t-113.5 -50.5h-233q-20 0 -20 18v451q0 21 21 21zM362 169q0 26 -19 45t-44 19h-100v-131h100q26 0 44.5 20t18.5 47z" />
    <glyph glyph-name="afii10095" unicode="&#x44d;" horiz-adv-x="500" 
d="M96 148q5 0 8 -2q44 -40 93 -40q41 0 71 23t46 61h-135q-18 0 -18 20v69q0 19 18 19h134q-16 37 -45.5 59.5t-69.5 22.5q-21 0 -40.5 -7t-41 -20.5t-23.5 -14.5q-7 0 -13 7q-11 11 -28 40t-17 39q0 16 15 26q68 47 150 47q105 0 178.5 -73.5t73.5 -179.5t-73.5 -180
t-178.5 -74q-83 0 -156 53q-14 10 -14 20q1 9 3 11l31 47q16 28 26 28q4 0 6 -1z" />
    <glyph glyph-name="afii10096" unicode="&#x44e;" horiz-adv-x="838" 
d="M205 469v-166h86q20 85 89.5 140t158.5 55q108 0 184 -73.5t76 -180.5t-76 -181t-184 -74q-90 0 -159.5 56.5t-89.5 142.5h-85v-167q0 -21 -19 -21h-93q-21 0 -21 21v448q0 21 21 21h89q10 0 16.5 -6.5t6.5 -14.5zM417 243q0 -56 35.5 -94t89.5 -38t89.5 38t35.5 94
t-35.5 94.5t-89.5 38.5t-89.5 -38.5t-35.5 -94.5z" />
    <glyph glyph-name="afii10097" unicode="&#x44f;" horiz-adv-x="500" 
d="M423 0h-88q-22 0 -22 21v140h-65q-20 -45 -58 -137q-10 -24 -36 -24h-96q-7 0 -12 5.5t-5 12.5q0 4 3 10q24 52 74 158q-35 22 -55.5 59.5t-20.5 79.5q0 68 46 116.5t114 48.5h222q22 0 22 -21v-446q0 -23 -23 -23zM173 325q0 -30 21.5 -43.5t53.5 -13.5h65v117h-65
q-75 0 -75 -60z" />
    <glyph glyph-name="afii10071" unicode="&#x451;" horiz-adv-x="572" 
d="M296 107q40 -1 84 24q4 2 10 5.5t10 6t8 2.5q9 0 15 -9l37 -59q5 -8 5 -13q0 -10 -16 -24q-68 -52 -150 -52q-105 0 -180 75t-75 181q0 104 74 180.5t175 76.5q97 0 166.5 -67t69.5 -161q0 -41 -7 -57.5t-28 -16.5h-311q4 -41 38.5 -66.5t74.5 -25.5zM183 295h215
q-2 38 -33 65t-75 27q-37 0 -69.5 -27t-37.5 -65zM130 633q0 30 21 50.5t50 20.5q30 0 50.5 -20.5t20.5 -50.5q0 -29 -20.5 -49.5t-50.5 -20.5q-29 0 -50 20.5t-21 49.5zM333 634q0 30 21 51t50 21q30 0 50.5 -21t20.5 -51q0 -29 -20.5 -49.5t-50.5 -20.5q-29 0 -50 20.5
t-21 49.5z" />
    <glyph glyph-name="afii10099" unicode="&#x452;" horiz-adv-x="570" 
d="M2 570v71q0 20 19 20h56v63q0 21 21 21h86q8 0 15.5 -6t7.5 -15v-63h69q19 0 19 -20v-71q0 -9 -5 -16t-14 -7h-69v-110q53 61 113 61q94 0 150.5 -55t64.5 -149q3 -45 3 -92v-98q0 -34 -6 -69q-12 -71 -70 -114.5t-134 -47.5q-19 0 -19 20v83q0 20 20 20q31 0 54.5 21
t23.5 51v210q0 41 -28.5 68t-69.5 27q-36 0 -67 -25.5t-35 -63.5v-263q0 -21 -23 -21h-86q-21 0 -21 21v526h-56q-19 0 -19 23z" />
    <glyph glyph-name="afii10100" unicode="&#x453;" horiz-adv-x="448" 
d="M360 608l46 105q5 11 5 19q0 10 -14 10h-75q-16 0 -27 -21l-44 -102q-5 -15 -5 -19q0 -13 16 -13h72q18 0 26 21zM436 362h-214v-341q0 -21 -21 -21h-98q-23 0 -23 21v448q0 21 22 21h334q10 0 16 -6t6 -15v-84q0 -10 -6.5 -16.5t-15.5 -6.5z" />
    <glyph glyph-name="afii10101" unicode="&#x454;" horiz-adv-x="493" 
d="M376 146q5 3 14 3q8 0 18 -17l39 -58q3 -9 3 -11q0 -9 -16 -21q-72 -52 -154 -52q-105 0 -178.5 74t-73.5 180t73.5 179.5t178.5 73.5q80 0 150 -47q15 -10 15 -26q0 -12 -22.5 -49t-34.5 -37q-7 0 -45.5 21t-61.5 21q-79 0 -114 -82h133q19 0 19 -19v-69q0 -8 -5 -14
t-14 -6h-135q16 -38 46.5 -61t71.5 -23q47 0 93 40z" />
    <glyph glyph-name="afii10102" unicode="&#x455;" horiz-adv-x="425" 
d="M24 85q-2 3 -2 10q0 9 7 14l61 49q3 5 11 5q5 0 16 -7q2 -2 12.5 -11t15 -12.5t15 -11t18 -10.5t17.5 -6t20 -3q59 0 59 48q0 32 -75 53q-87 23 -126 60t-39 95q0 59 52 100.5t135 41.5q93 0 160 -60q18 -18 18 -30q0 -9 -35 -37t-43 -28t-17 9q-42 35 -81 35
q-52 0 -52 -33q0 -17 18 -27t59 -23q85 -28 127 -64t42 -98q0 -73 -58.5 -114.5t-142.5 -41.5q-109 0 -177 73q-11 13 -15 24z" />
    <glyph glyph-name="afii10103" unicode="&#x456;" horiz-adv-x="288" 
d="M207 467v-444q0 -23 -25 -23h-87q-23 0 -23 23v444q0 24 23 24h87q9 0 17 -7t8 -17zM59 637q0 32 22.5 54.5t54.5 22.5q33 0 55 -22.5t22 -54.5t-22 -54t-55 -22q-32 0 -54.5 22.5t-22.5 53.5z" />
    <glyph glyph-name="afii10104" unicode="&#x457;" horiz-adv-x="288" 
d="M-22 633q0 30 20.5 50.5t49.5 20.5q31 0 51 -20.5t20 -50.5q0 -29 -20.5 -49.5t-50.5 -20.5q-28 0 -49 20.5t-21 49.5zM181 634q0 30 20.5 51t49.5 21q30 0 50.5 -21t20.5 -51q0 -29 -20.5 -49.5t-50.5 -20.5q-29 0 -49.5 20.5t-20.5 49.5zM207 467v-444q0 -23 -25 -23
h-87q-23 0 -23 23v444q0 24 23 24h87q9 0 17 -7t8 -17z" />
    <glyph glyph-name="afii10105" unicode="&#x458;" horiz-adv-x="282" 
d="M12 -206q-27 0 -27 26v66q0 25 24 25h3q25 2 42.5 21.5t17.5 46.5v486q0 26 27 26h79q12 0 19 -7.5t7 -18.5v-455q0 -31 -2 -45q-7 -75 -60 -122.5t-130 -48.5zM60 637q0 32 22 54.5t54 22.5q33 0 55 -22.5t22 -54.5t-22 -54t-55 -22q-32 0 -54 22.5t-22 53.5z" />
    <glyph glyph-name="afii10106" unicode="&#x459;" horiz-adv-x="787" 
d="M127 491h377q19 0 19 -19v-135h103q65 0 111 -51t46 -117q0 -68 -46.5 -118.5t-113.5 -50.5h-207h-6q-19 0 -19 18v348h-150v-131q0 -116 -43 -179.5t-147 -63.5q-21 0 -21 22v84q0 21 21 21q26 0 41.5 17.5t15.5 44.5v289q0 21 19 21zM660 169q0 23 -17 42t-40 21
q-12 1 -38 1h-42v-131h42q7 0 20 0.5t19 0.5q23 3 39.5 22t16.5 44z" />
    <glyph glyph-name="afii10107" unicode="&#x45a;" horiz-adv-x="795" 
d="M399 490h86q20 0 20 -19v-134h114q65 0 111 -51t46 -117q0 -68 -46.5 -118.5t-113.5 -50.5h-218q-19 0 -19 18v186h-172v-185q0 -19 -21 -19h-86q-19 0 -19 19v451q0 20 19 20h86q21 0 21 -20v-158h172v157q0 21 20 21zM653 169q0 26 -19 45t-44 19h-85v-131h85
q26 0 44.5 20t18.5 47z" />
    <glyph glyph-name="afii10108" unicode="&#x45b;" horiz-adv-x="570" 
d="M92 23v529h-60q-14 0 -14 22v65q0 19 14 19h59v66q0 21 21 21h88q23 0 23 -21v-2v-4v-60h59q13 0 13 -19v-65q0 -22 -13 -22h-59v-115q19 21 29.5 30.5t35 20t53.5 10.5q94 0 155.5 -63t64.5 -156q0 -7 1 -10v-246q0 -23 -24 -23h-83q-25 0 -25 23v255q0 40 -30 68
t-70 28q-38 0 -71 -27t-36 -66v-259q0 -22 -31 -22h-75q-25 0 -25 23z" />
    <glyph glyph-name="afii10109" unicode="&#x45c;" horiz-adv-x="583" 
d="M376 713l-45 -105q-11 -21 -27 -21h-71q-17 0 -17 13q2 12 6 19l44 103q12 21 27 21h75q14 0 14 -11q0 -7 -6 -19zM72 20v450q0 21 21 21h90q9 0 15 -6t6 -14v-187q23 0 36 13t37 58q38 74 83.5 110.5t120.5 36.5q20 0 20 -21v-76q0 -19 -17 -19q-48 0 -89 -67
q-21 -41 -45 -71q30 -38 89.5 -113t88.5 -112h-1q8 -9 8 -15q0 -8 -13 -8h-132q-14 0 -23 16l-107 148q-34 -18 -56 -22v-121q0 -21 -21 -21h-91q-9 0 -14.5 6.5t-5.5 13.5z" />
    <glyph glyph-name="afii10110" unicode="&#x45e;" horiz-adv-x="559" 
d="M534 448l-244 -624q-10 -22 -32 -22h-81q-28 0 -28 21q0 5 2 13l63 169l-182 446q-4 8 -4 17q0 22 27 22h87q25 0 32 -23l109 -292l108 293q7 22 33 22h86q28 0 28 -24q0 -6 -4 -18zM265 604q-55 1 -93 37.5t-38 83.5q0 8 5.5 13.5t13.5 5.5h53q16 0 16 -16q0 -15 12 -26
t33 -11q19 0 30.5 10.5t11.5 24.5q0 18 15 18h51q23 0 23 -19q0 -48 -39 -84t-94 -37z" />
    <glyph glyph-name="afii10193" unicode="&#x45f;" horiz-adv-x="576" 
d="M246 -95v95h-146q-20 0 -20 19v452q0 19 20 19h92q20 0 20 -19v-350h198v350q0 19 21 19h91q20 0 20 -19v-452q0 -8 -6 -13.5t-14 -5.5h-141v-95q0 -23 -24 -23h-88q-23 0 -23 23z" />
    <glyph glyph-name="afii10146" unicode="&#x462;" horiz-adv-x="660" 
d="M-4 646v78q0 17 17 17h298q17 0 17 -17v-78q0 -7 -4.5 -13t-12.5 -6h-80v-157h180q97 -1 162 -71t65 -163q0 -95 -66 -165.5t-164 -70.5h-298q-19 0 -19 19v608h-78q-17 0 -17 19zM497 235q0 45 -32 79.5t-78 34.5h-156v-228h156q47 0 78.5 35t31.5 79z" />
    <glyph glyph-name="afii10194" unicode="&#x463;" horiz-adv-x="520" 
d="M114 746h87q19 0 19 -20v-124h72q12 0 12 -12v-84q0 -15 -12 -15h-72v-154h97q66 0 111.5 -51t45.5 -117q0 -68 -46 -118.5t-113 -50.5h-202q-19 0 -19 18v473h-76q-12 0 -12 15v84q0 12 12 12h76v122q0 22 20 22zM352 169q0 25 -19 44.5t-45 19.5h-68v-131h68
q26 0 45 20t19 47z" />
    <glyph glyph-name="afii10147" unicode="&#x472;" horiz-adv-x="853" 
d="M752 400l-632 68q-17 -2 -17 -17l-9 -82q0 -19 18 -19l631 -67q16 2 16 19l10 82q0 16 -17 16zM806 371q0 -158 -112.5 -269.5t-270.5 -111.5t-269 111.5t-111 269.5q0 159 111 270.5t269 111.5q159 0 271 -111.5t112 -270.5zM659 371q0 -101 -67.5 -171t-168.5 -70
q-100 0 -167 70t-67 171q0 102 67 172t167 70q101 0 168.5 -70t67.5 -172z" />
    <glyph glyph-name="afii10195" unicode="&#x473;" horiz-adv-x="609" 
d="M45 244q0 106 74 180t180 74t180 -74t74 -180t-74 -180.5t-180 -74.5t-180 74.5t-74 180.5zM299 110q73 0 110 69l-229 24q12 -41 44.5 -67t74.5 -26zM299 376q-71 0 -108 -68l226 -24q-13 41 -45 66.5t-73 25.5z" />
    <glyph glyph-name="afii10148" unicode="&#x474;" horiz-adv-x="718" 
d="M703 720l-276 -702q-7 -19 -25 -19h-84q-19 0 -26 19l-276 703q-9 21 13 21h114q18 0 25 -19l191 -518l191 518q6 19 24 19h116q22 0 13 -22z" />
    <glyph glyph-name="afii10196" unicode="&#x475;" horiz-adv-x="506" 
d="M165 468l99 -276l98 277q10 22 34 22h89q27 0 27 -23q0 -3 -2 -8l-1 -5l-173 -424q-14 -31 -35 -31h-74q-11 0 -19.5 7t-11.5 13.5t-9 20.5l-82 202q-7 17 -38 93.5t-47 114.5q-4 16 -4 18q0 22 26 22h91q24 0 32 -23z" />
    <glyph glyph-name="afii10050" unicode="&#x490;" horiz-adv-x="583" 
d="M99 742h343v153q0 22 20 22h89q9 0 15.5 -6t6.5 -15v-264q0 -22 -23 -22h-330v-591q0 -19 -20 -19h-101q-19 0 -19 18v704q0 20 19 20z" />
    <glyph glyph-name="afii10098" unicode="&#x491;" horiz-adv-x="485" 
d="M99 491h256v104q0 21 21 21h90q8 0 14.5 -5.5t6.5 -14.5v-203q0 -22 -22 -22h-125h-128v-352q0 -19 -19 -19h-94q-19 0 -19 18v453q0 20 19 20z" />
    <glyph glyph-name="afii10846" unicode="&#x4d9;" horiz-adv-x="586" 
d="M274 382q-39 0 -84 -24q-25 -15 -27 -15q-7 0 -16 9l-37 59q-4 7 -4 13q0 12 16 24q66 53 149 53q105 0 180.5 -75t75.5 -182q0 -104 -74 -180t-176 -76q-96 0 -165.5 67t-69.5 161q0 40 7 57t28 17h311q-4 41 -39 66.5t-75 25.5zM387 194h-215q2 -39 33 -66t75 -27
q38 0 70.5 27.5t36.5 65.5z" />
    <glyph glyph-name="Wgrave" unicode="&#x1e80;" horiz-adv-x="1065" 
d="M644 18l-105 253l-98 -253q-8 -18 -26 -18h-84q-18 0 -25 18l-277 702q-4 10 0.5 16t13.5 6h113q18 0 25 -19l191 -516l191 516q7 19 24 19h117q9 0 13 -6.5t1 -15.5l-107 -266l97 -246l196 515q7 19 25 19h117q10 0 14 -6t0 -16l-285 -702q-7 -18 -25 -18h-80
q-18 0 -26 18zM469 860l-46 105q-5 11 -5 19q0 10 14 10h75q16 0 27 -21l44 -102q5 -15 5 -19q0 -13 -16 -13h-72q-18 0 -26 21z" />
    <glyph glyph-name="wgrave" unicode="&#x1e81;" horiz-adv-x="800" 
d="M166 467l39 -113q7 -19 18 -51t20 -56.5t17 -46.5l95 264q10 27 35 27h80q28 0 28 -24q0 -2 -0.5 -6t-0.5 -5l-31 -87q31 -92 63 -170l28 77q10 28 21 59.5t24.5 70t20.5 59.5q9 26 34 26h91q27 0 27 -21q0 -8 -3 -14l-171 -427q-15 -29 -35 -29h-72q-8 0 -14 2.5t-9.5 6
t-6.5 9t-4.5 9t-3 8.5t-1.5 6l-43 107q-1 3 -7 17.5t-10 24.5l-20 -48q-3 -11 -11 -30t-11 -26l-22 -55q-1 0 -1 -2l-1 -3q-13 -26 -32 -26h-74q-12 0 -20 7t-11 12.5t-8 18.5q-64 157 -166 419q-2 6 -2 12q0 22 26 22h91q23 0 33 -24zM381 608l-46 105q-5 11 -5 19
q0 10 14 10h75q16 0 27 -21l44 -102q5 -15 5 -19q0 -13 -16 -13h-72q-18 0 -26 21z" />
    <glyph glyph-name="Wacute" unicode="&#x1e82;" horiz-adv-x="1065" 
d="M644 18l-105 253l-98 -253q-8 -18 -26 -18h-84q-18 0 -25 18l-277 702q-4 10 0.5 16t13.5 6h113q18 0 25 -19l191 -516l191 516q7 19 24 19h117q9 0 13 -6.5t1 -15.5l-107 -266l97 -246l196 515q7 19 25 19h117q10 0 14 -6t0 -16l-285 -702q-7 -18 -25 -18h-80
q-18 0 -26 18zM637 965l-46 -105q-8 -21 -26 -21h-72q-16 0 -16 13q0 4 5 19l44 102q11 21 27 21h75q14 0 14 -10q0 -8 -5 -19z" />
    <glyph glyph-name="wacute" unicode="&#x1e83;" horiz-adv-x="800" 
d="M166 467l39 -113q7 -19 18 -51t20 -56.5t17 -46.5l95 264q10 27 35 27h80q28 0 28 -24q0 -2 -0.5 -6t-0.5 -5l-31 -87q31 -92 63 -170l28 77q10 28 21 59.5t24.5 70t20.5 59.5q9 26 34 26h91q27 0 27 -21q0 -8 -3 -14l-171 -427q-15 -29 -35 -29h-72q-8 0 -14 2.5t-9.5 6
t-6.5 9t-4.5 9t-3 8.5t-1.5 6l-43 107q-1 3 -7 17.5t-10 24.5l-20 -48q-3 -11 -11 -30t-11 -26l-22 -55q-1 0 -1 -2l-1 -3q-13 -26 -32 -26h-74q-12 0 -20 7t-11 12.5t-8 18.5q-64 157 -166 419q-2 6 -2 12q0 22 26 22h91q23 0 33 -24zM469 713l-46 -105q-8 -21 -26 -21h-72
q-16 0 -16 13q0 4 5 19l44 102q11 21 27 21h75q14 0 14 -10q0 -8 -5 -19z" />
    <glyph glyph-name="Wdieresis" unicode="&#x1e84;" horiz-adv-x="1065" 
d="M644 18l-105 253l-98 -253q-8 -18 -26 -18h-84q-18 0 -25 18l-277 702q-4 10 0.5 16t13.5 6h113q18 0 25 -19l191 -516l191 516q7 19 24 19h117q9 0 13 -6.5t1 -15.5l-107 -266l97 -246l196 515q7 19 25 19h117q10 0 14 -6t0 -16l-285 -702q-7 -18 -25 -18h-80
q-18 0 -26 18zM369 875q0 30 20.5 50.5t49.5 20.5q31 0 51 -20.5t20 -50.5q0 -29 -20.5 -49.5t-50.5 -20.5q-29 0 -49.5 20.5t-20.5 49.5zM572 876q0 30 20.5 51t49.5 21q30 0 50.5 -21t20.5 -51q0 -29 -20.5 -49.5t-50.5 -20.5q-29 0 -49.5 20.5t-20.5 49.5z" />
    <glyph glyph-name="wdieresis" unicode="&#x1e85;" horiz-adv-x="800" 
d="M166 467l39 -113q7 -19 18 -51t20 -56.5t17 -46.5l95 264q10 27 35 27h80q28 0 28 -24q0 -2 -0.5 -6t-0.5 -5l-31 -87q31 -92 63 -170l28 77q10 28 21 59.5t24.5 70t20.5 59.5q9 26 34 26h91q27 0 27 -21q0 -8 -3 -14l-171 -427q-15 -29 -35 -29h-72q-8 0 -14 2.5t-9.5 6
t-6.5 9t-4.5 9t-3 8.5t-1.5 6l-43 107q-1 3 -7 17.5t-10 24.5l-20 -48q-3 -11 -11 -30t-11 -26l-22 -55q-1 0 -1 -2l-1 -3q-13 -26 -32 -26h-74q-12 0 -20 7t-11 12.5t-8 18.5q-64 157 -166 419q-2 6 -2 12q0 22 26 22h91q23 0 33 -24zM242 633q0 30 20.5 50.5t49.5 20.5
q31 0 51 -20.5t20 -50.5q0 -29 -20.5 -49.5t-50.5 -20.5q-28 0 -49 20.5t-21 49.5zM445 634q0 30 20.5 51t49.5 21q30 0 50.5 -21t20.5 -51q0 -29 -20.5 -49.5t-50.5 -20.5q-29 0 -49.5 20.5t-20.5 49.5z" />
    <glyph glyph-name="Ygrave" unicode="&#x1ef2;" horiz-adv-x="659" 
d="M284 21v291l-239 408q-5 10 -1 16t14 6h123q15 0 25 -18l151 -291l150 291q10 18 25 18h124q10 0 14 -6t-1 -16l-239 -407v-292q0 -21 -19 -21h-108q-19 0 -19 21zM267 860l-46 105q-5 11 -5 19q0 10 14 10h75q16 0 27 -21l44 -102q5 -15 5 -19q0 -13 -16 -13h-72
q-18 0 -26 21z" />
    <glyph glyph-name="ygrave" unicode="&#x1ef3;" horiz-adv-x="559" 
d="M534 448l-244 -624q-10 -22 -32 -22h-81q-28 0 -28 21q0 5 2 13l63 169l-182 446q-4 8 -4 17q0 22 27 22h87q25 0 32 -23l109 -292l108 293q7 22 33 22h86q28 0 28 -24q0 -6 -4 -18zM251 608l-46 105q-5 11 -5 19q0 10 14 10h75q16 0 27 -21l44 -102q5 -15 5 -19
q0 -13 -16 -13h-72q-18 0 -26 21z" />
    <glyph glyph-name="figuredash" unicode="&#x2012;" horiz-adv-x="525" 
d="M106 347h326q12 0 19.5 -7t7.5 -19v-71q0 -10 -8 -19t-19 -9h-326q-26 0 -26 28v71q0 26 26 26z" />
    <glyph glyph-name="endash" unicode="&#x2013;" horiz-adv-x="671" 
d="M107 346h455q11 0 18.5 -7t7.5 -19v-64q0 -10 -7.5 -19.5t-18.5 -9.5h-455q-27 0 -27 29v64q0 26 27 26z" />
    </font>
</defs>
</svg>
